<svg width="78" height="33" viewBox="0 0 78 33" fill="none" xmlns="http://www.w3.org/2000/svg">
<path fill-rule="evenodd" clip-rule="evenodd" d="M77.0759 17.31C77.0759 11.8948 74.4529 7.62183 69.4396 7.62183C64.4052 7.62183 61.3591 11.8948 61.3591 17.2677C61.3591 23.6348 64.9552 26.85 70.1165 26.85C72.6338 26.85 74.5375 26.2789 75.9759 25.4751V21.2444C74.5375 21.9637 72.8876 22.4079 70.7934 22.4079C68.7416 22.4079 66.9224 21.6887 66.6897 19.1926H77.0336C77.0336 18.9176 77.0759 17.8176 77.0759 17.31ZM66.6267 15.3003C66.6267 12.91 68.0863 11.9158 69.4189 11.9158C70.7093 11.9158 72.0842 12.91 72.0842 15.3003H66.6267Z" fill="white"/>
<path fill-rule="evenodd" clip-rule="evenodd" d="M53.1931 7.62231C51.1201 7.62231 49.7874 8.59536 49.0471 9.27226L48.7721 7.96076H44.1184V32.6253L49.4067 31.5042L49.4278 25.5179C50.1894 26.0678 51.3105 26.8505 53.172 26.8505C56.9584 26.8505 60.4063 23.8045 60.4063 17.0989C60.3852 10.9645 56.8949 7.62231 53.1931 7.62231ZM51.9223 22.1966C50.6742 22.1966 49.9339 21.7524 49.4262 21.2024L49.405 13.3546C49.955 12.7412 50.7165 12.3181 51.9223 12.3181C53.8472 12.3181 55.1798 14.4757 55.1798 17.2468C55.1798 20.0813 53.8683 22.1966 51.9223 22.1966Z" fill="white"/>
<path fill-rule="evenodd" clip-rule="evenodd" d="M36.8416 6.37386L42.151 5.23159V0.9375L36.8416 2.05862V6.37386Z" fill="white"/>
<rect x="36.8416" y="7.98157" width="5.30944" height="18.509" fill="white"/>
<path fill-rule="evenodd" clip-rule="evenodd" d="M31.1539 9.54692L30.8154 7.98159H26.2463V26.4906H31.5346V13.9468C32.7827 12.318 34.898 12.6141 35.5537 12.8468V7.98159C34.8768 7.72775 32.4019 7.26238 31.1539 9.54692Z" fill="white"/>
<path fill-rule="evenodd" clip-rule="evenodd" d="M20.5744 3.39136L15.413 4.49132L15.3918 21.435C15.3918 24.5656 17.7398 26.8713 20.8705 26.8713C22.6051 26.8713 23.8743 26.554 24.5723 26.1733V21.8792C23.8954 22.1542 20.5532 23.1272 20.5532 19.9966V12.4872H24.5723V7.98159H20.5532L20.5744 3.39136Z" fill="white"/>
<path fill-rule="evenodd" clip-rule="evenodd" d="M6.27582 13.3543C6.27582 12.5294 6.95272 12.2121 8.07383 12.2121C9.68147 12.2121 11.7122 12.6986 13.3198 13.5659V8.59487C11.5641 7.89682 9.82954 7.62183 8.07383 7.62183C3.77975 7.62183 0.924072 9.86406 0.924072 13.6082C0.924072 19.4464 8.96226 18.5157 8.96226 21.0329C8.96226 22.006 8.11614 22.3233 6.93156 22.3233C5.17585 22.3233 2.93362 21.604 1.15676 20.631V25.6655C3.124 26.5116 5.11239 26.8712 6.93156 26.8712C11.3314 26.8712 14.3563 24.6924 14.3563 20.906C14.3352 14.6024 6.27582 15.7235 6.27582 13.3543Z" fill="white"/>
</svg>
