<svg width="40" height="40" viewBox="0 0 40 40" fill="none" xmlns="http://www.w3.org/2000/svg">
<path d="M19.3737 12.0367C17.9137 12.0367 15.6537 10.3767 13.2737 10.4367C10.1337 10.4767 7.25368 12.2567 5.63368 15.0767C2.37368 20.7367 4.79368 29.0967 7.97368 33.6967C9.53368 35.9367 11.3737 38.4567 13.8137 38.3767C16.1537 38.2767 17.0337 36.8567 19.8737 36.8567C22.6937 36.8567 23.4937 38.3767 25.9737 38.3167C28.4937 38.2767 30.0937 36.0367 31.6337 33.7767C33.4137 31.1767 34.1537 28.6567 34.1937 28.5167C34.1337 28.4967 29.2937 26.6367 29.2337 21.0367C29.1937 16.3567 33.0537 14.1167 33.2337 14.0167C31.0337 10.7967 27.6537 10.4367 26.4737 10.3567C23.3937 10.1167 20.8137 12.0367 19.3737 12.0367ZM24.5737 7.31675C25.8737 5.75675 26.7337 3.57675 26.4937 1.41675C24.6337 1.49675 22.3937 2.65675 21.0537 4.21675C19.8537 5.59675 18.8137 7.81675 19.0937 9.93675C21.1537 10.0967 23.2737 8.87675 24.5737 7.31675Z" fill="white"/>
</svg>
