<svg width="92" height="26" viewBox="0 0 92 26" fill="none" xmlns="http://www.w3.org/2000/svg">
<g clip-path="url(#clip0_4406_8333)">
<path d="M31.9804 14.4581C31.2055 14.0299 30.7977 13.6832 30.7977 13.1938C30.7977 12.5616 31.3483 12.1742 32.2251 12.1742C33.2447 12.1742 34.142 12.6024 34.142 12.6024L34.8557 10.4204C34.8557 10.4204 34.2032 9.91064 32.2659 9.91064C29.5741 9.91064 27.698 11.4604 27.698 13.622C27.698 14.8455 28.5749 15.7836 29.7373 16.4565C30.6753 16.9867 31.0016 17.3742 31.0016 17.9248C31.0016 18.5161 30.5326 18.9852 29.6557 18.9852C28.3506 18.9852 27.1271 18.3122 27.1271 18.3122L26.3726 20.4942C26.3726 20.4942 27.5145 21.2487 29.411 21.2487C32.1843 21.2487 34.1624 19.8824 34.1624 17.4353C34.2032 16.0895 33.1835 15.1514 31.9804 14.4581Z" fill="white"/>
<path d="M43.033 9.86973C41.6667 9.86973 40.6063 10.5223 39.7702 11.5011L39.7295 11.4807L40.9122 5.28149H37.8126L34.8149 21.0446H37.8942L38.9138 15.6611C39.3216 13.6219 40.3616 12.378 41.3404 12.378C42.0338 12.378 42.2989 12.847 42.2989 13.5199C42.2989 13.9482 42.2581 14.458 42.1561 14.8862L40.9938 21.065H44.073L45.2761 14.7027C45.4189 14.0297 45.5004 13.2344 45.5004 12.6838C45.5412 10.9097 44.644 9.86973 43.033 9.86973Z" fill="white"/>
<path d="M52.5153 9.86987C48.8039 9.86987 46.3364 13.2142 46.3364 16.946C46.3364 19.3318 47.8047 21.2691 50.578 21.2691C54.2282 21.2691 56.6753 18.0063 56.6753 14.193C56.6956 11.9703 55.4109 9.86987 52.5153 9.86987ZM51.0062 18.8832C49.9458 18.8832 49.5176 17.986 49.5176 16.8644C49.5176 15.0903 50.4353 12.215 52.1074 12.215C53.2086 12.215 53.5553 13.153 53.5553 14.0707C53.5553 15.9875 52.6376 18.8832 51.0062 18.8832Z" fill="white"/>
<path d="M64.5876 9.86987C62.5076 9.86987 61.3248 11.7052 61.3248 11.7052H61.284L61.4676 10.0534H58.735C58.5923 11.175 58.3476 12.8675 58.1028 14.1522L55.9617 25.4087H59.0409L59.8974 20.8409H59.9585C59.9585 20.8409 60.5907 21.2487 61.7734 21.2487C65.4032 21.2487 67.7687 17.5373 67.7687 13.7852C67.7687 11.7256 66.8511 9.86987 64.5876 9.86987ZM61.6511 18.9444C60.8558 18.9444 60.3868 18.4958 60.3868 18.4958L60.8966 15.6205C61.2636 13.7036 62.2629 12.4189 63.3232 12.4189C64.2613 12.4189 64.5468 13.2958 64.5468 14.1114C64.5468 16.0895 63.364 18.9444 61.6511 18.9444Z" fill="white"/>
<path d="M72.1733 5.44458C71.1945 5.44458 70.3992 6.21948 70.3992 7.23909C70.3992 8.15674 70.9702 8.78889 71.847 8.78889H71.8878C72.8462 8.78889 73.6823 8.13634 73.7027 6.99438C73.7231 6.07674 73.1113 5.44458 72.1733 5.44458Z" fill="white"/>
<path d="M67.8501 21.0447H70.9497L73.0501 10.1145H69.9301L67.8501 21.0447Z" fill="white"/>
<path d="M80.8807 10.0941H78.7395L78.8415 9.58431C79.025 8.52391 79.6368 7.58587 80.6768 7.58587C81.2274 7.58587 81.6556 7.74901 81.6556 7.74901L82.2674 5.34274C82.2674 5.34274 81.7372 5.07764 80.5952 5.07764C79.494 5.07764 78.4132 5.38352 77.5772 6.09724C76.5168 6.9945 76.0274 8.27921 75.7827 9.58431L75.7011 10.0941H74.2736L73.825 12.4188H75.2525L73.6211 21.0447H76.7003L78.3317 12.4188H80.4525L80.8807 10.0941Z" fill="white"/>
<path d="M88.3034 10.1145C88.3034 10.1145 86.3662 14.9678 85.5097 17.6188H85.4689C85.4078 16.7623 84.7144 10.1145 84.7144 10.1145H81.4721L83.3278 20.1474C83.3685 20.3718 83.3481 20.5145 83.2666 20.6572C82.8995 21.3506 82.3081 22.0235 81.5944 22.5129C81.0234 22.9412 80.3709 23.2063 79.8611 23.3898L80.7176 26C81.3497 25.8572 82.6344 25.3474 83.7356 24.3278C85.1427 23.0023 86.4478 20.9835 87.7733 18.2102L91.5458 10.1145H88.3034Z" fill="white"/>
<path d="M15.7483 3.01807C15.7483 3.01807 15.4628 3.09963 14.9938 3.24238C14.9122 2.97728 14.7899 2.6714 14.6267 2.34512C14.0965 1.32552 13.3012 0.774928 12.3632 0.774928C12.302 0.774928 12.2409 0.774929 12.1593 0.795321C12.1389 0.754536 12.0981 0.734144 12.0777 0.69336C11.6699 0.244732 11.1397 0.0408108 10.5075 0.0612029C9.28399 0.101987 8.06046 0.97885 7.08164 2.54905C6.38831 3.65022 5.85811 5.03689 5.71537 6.11767C4.30831 6.54591 3.32949 6.85179 3.30909 6.87218C2.59537 7.0965 2.57498 7.11689 2.49341 7.78983C2.43223 8.29963 0.556152 22.6557 0.556152 22.6557L15.9726 25.3271V2.99767C15.8503 2.99767 15.7891 3.01807 15.7483 3.01807ZM12.1797 4.11924C11.364 4.36395 10.4667 4.64944 9.58988 4.91454C9.83458 3.95611 10.324 2.99767 10.895 2.36552C11.1193 2.1412 11.4252 1.8761 11.7718 1.71297C12.1185 2.44709 12.2001 3.4463 12.1797 4.11924ZM10.5075 0.897281C10.793 0.897281 11.0377 0.958458 11.2416 1.08081C10.9154 1.24395 10.5891 1.50905 10.2832 1.81493C9.50831 2.65101 8.91693 3.9561 8.67223 5.20003C7.93811 5.42434 7.20399 5.64865 6.53105 5.85258C6.97968 3.89493 8.63144 0.938066 10.5075 0.897281ZM8.14203 12.113C8.2236 13.4181 11.6699 13.7036 11.8738 16.7828C12.0165 19.2094 10.5891 20.8612 8.52948 20.9836C6.04164 21.1467 4.67537 19.6785 4.67537 19.6785L5.20556 17.4353C5.20556 17.4353 6.57184 18.4753 7.67301 18.3938C8.38674 18.353 8.65184 17.7616 8.63144 17.3538C8.52948 15.6408 5.71537 15.7428 5.53184 12.9287C5.3687 10.5632 6.9185 8.17728 10.3444 7.95297C11.6699 7.8714 12.3428 8.19767 12.3428 8.19767L11.5679 11.1341C11.5679 11.1341 10.6911 10.7263 9.65105 10.8079C8.14203 10.9098 8.12164 11.8683 8.14203 12.113ZM12.9954 3.87454C12.9954 3.26277 12.9138 2.38591 12.6283 1.65179C13.5663 1.83532 14.015 2.87532 14.2189 3.50748C13.8518 3.60944 13.444 3.73179 12.9954 3.87454Z" fill="white"/>
<path d="M16.4417 25.2864L22.8448 23.6958C22.8448 23.6958 20.0918 5.07773 20.0715 4.95537C20.0511 4.83302 19.9491 4.75145 19.8471 4.75145C19.7452 4.75145 17.9507 4.71067 17.9507 4.71067C17.9507 4.71067 16.8495 3.65027 16.4417 3.24243V25.2864Z" fill="white"/>
</g>
<defs>
<clipPath id="clip0_4406_8333">
<rect width="91.0102" height="26" fill="white" transform="translate(0.494873)"/>
</clipPath>
</defs>
</svg>
