<svg width="40" height="40" viewBox="0 0 40 40" fill="none" xmlns="http://www.w3.org/2000/svg">
<g clip-path="url(#clip0_4406_8353)">
<path d="M32.5547 9.87967C32.1599 8.82992 31.8105 7.9313 31.4871 7.02292C31.3783 6.71742 31.2206 6.60693 30.8891 6.60855C28.6174 6.62318 26.3456 6.62642 24.0739 6.60692C23.6725 6.60367 23.575 6.75642 23.5815 7.1123C23.5945 7.86467 23.5848 8.61705 23.4889 9.39217C23.1411 8.6398 22.7674 7.90042 22.4586 7.13342C22.2929 6.72067 22.0637 6.60042 21.6283 6.60692C19.9041 6.6313 18.18 6.62642 16.4559 6.60855C16.0935 6.60367 15.9212 6.72717 15.775 7.05705C13.8234 11.5095 11.8571 15.9539 9.89412 20.3999C9.62925 20.9979 9.6325 20.9995 10.3101 21.0012C11.5825 21.0012 12.8565 21.0223 14.1289 20.9898C14.5871 20.9784 14.7041 21.1377 14.7025 21.5683C14.6895 25.2587 14.696 28.9507 14.696 32.641C14.696 33.4259 14.6976 33.4276 15.4922 33.4276C20.117 33.4276 24.7418 33.4194 29.3665 33.4389C29.9044 33.4406 30.2733 33.278 30.5999 32.8637C30.998 32.3583 31.4579 31.9017 31.8722 31.4093C32.064 31.1802 32.1924 31.1574 32.3923 31.406C32.8277 31.9439 33.3153 32.4428 33.7329 32.9937C34.001 33.3463 34.3114 33.4422 34.7274 33.4357C36.1135 33.4178 37.4996 33.4438 38.8841 33.4211C39.331 33.4129 39.5244 33.5186 39.4951 34.0093C39.4545 34.7162 39.4854 35.4279 39.4837 36.1364C39.4789 38.1986 38.1903 39.4953 36.1362 39.4969C32.3841 39.5018 28.6304 39.5002 24.8766 39.5002C17.868 39.5002 10.8578 39.5018 3.84913 39.5002C2.25825 39.5002 1.08175 38.6958 0.66575 37.3292C0.550375 36.9571 0.5 36.5752 0.5 36.1852C0.501625 25.4017 0.5 14.6182 0.501625 3.8363C0.501625 1.80667 1.80162 0.503425 3.82638 0.503425C14.6066 0.500175 25.3869 0.500175 36.1671 0.5018C38.1886 0.5018 39.4805 1.80992 39.487 3.84117C39.4886 4.61468 39.4707 5.3898 39.4951 6.16167C39.5065 6.5338 39.37 6.6248 39.019 6.62155C37.4557 6.6053 35.8925 6.62967 34.3309 6.6053C33.9149 6.5988 33.7004 6.70767 33.5655 7.12692C33.2795 8.01092 32.9285 8.87217 32.5547 9.87967Z" fill="white"/>
<path d="M36.9373 11.0511C36.6546 11.1925 36.653 11.3907 36.5945 11.5451C35.7202 13.8624 34.8443 16.1812 33.9896 18.5066C33.8531 18.8787 33.6808 19.0575 33.2632 19.0234C32.7985 18.986 32.3272 18.9909 31.8625 19.0217C31.4611 19.0494 31.271 18.908 31.128 18.5196C30.2781 16.1926 29.399 13.877 28.528 11.5581C28.4678 11.3972 28.4418 11.2136 28.2615 11.0787C28.1315 11.2299 28.1818 11.4102 28.1818 11.5711C28.1786 13.8754 28.1688 16.1812 28.1916 18.4855C28.1965 18.9226 28.0551 19.0461 27.6391 19.0234C27.0931 18.9925 26.5438 19.0071 25.9962 19.0185C25.7248 19.0234 25.6322 18.9145 25.6322 18.6464C25.6387 15.4549 25.6387 12.2634 25.6322 9.07186C25.6322 8.78911 25.7525 8.71599 26.0108 8.71761C27.2198 8.72574 28.4272 8.73061 29.6362 8.71436C29.9612 8.70949 30.0343 8.90286 30.1237 9.13849C30.8257 10.9877 31.5342 12.837 32.2411 14.6846C32.2638 14.7447 32.285 14.8065 32.3142 14.8634C32.3906 15.0145 32.3776 15.281 32.5645 15.2875C32.7676 15.2956 32.7578 15.0291 32.8163 14.8764C33.5395 12.9832 34.2658 11.0901 34.9646 9.18724C35.0978 8.82161 35.275 8.69974 35.6617 8.70949C36.7895 8.73711 37.9172 8.72899 39.045 8.71274C39.3748 8.70786 39.4951 8.80049 39.4935 9.14824C39.4821 12.291 39.4821 15.4337 39.4935 18.5765C39.4951 18.9177 39.3813 19.0315 39.0482 19.0185C38.5168 18.999 37.9838 18.9925 37.4541 19.0201C37.056 19.0412 36.9276 18.908 36.9308 18.5034C36.9471 16.2316 36.939 13.9582 36.939 11.6865C36.9373 11.4964 36.9373 11.3062 36.9373 11.0511ZM16.9352 26.1181C16.9352 24.5874 16.9466 23.055 16.9271 21.5242C16.9222 21.1391 17.01 20.9912 17.4308 20.9945C19.9772 21.0124 22.522 21.0107 25.0683 20.9961C25.4551 20.9945 25.5883 21.1099 25.5623 21.4917C25.5347 21.8931 25.538 22.2977 25.5623 22.6991C25.5851 23.0631 25.4437 23.1687 25.0878 23.1655C23.4125 23.1509 21.7355 23.1704 20.0601 23.1509C19.6295 23.146 19.428 23.2549 19.4767 23.7164C19.5076 24.004 19.5011 24.2981 19.4783 24.5857C19.4475 24.9644 19.5937 25.0862 19.9756 25.083C21.5713 25.0651 23.1655 25.0749 24.7612 25.0765C25.3982 25.0765 25.3982 25.0781 25.3998 25.7151C25.4015 26.0531 25.382 26.3927 25.4047 26.7307C25.4291 27.1012 25.304 27.2361 24.9123 27.2312C23.2857 27.2101 21.6575 27.2345 20.0308 27.215C19.6116 27.2101 19.4718 27.3336 19.4751 27.761C19.4816 29.1276 19.4653 29.1276 20.8368 29.1276C22.2555 29.1276 23.6725 29.1374 25.0911 29.1211C25.4486 29.1162 25.5867 29.2267 25.564 29.5891C25.5396 29.9905 25.5363 30.3967 25.564 30.7965C25.59 31.1816 25.4502 31.2937 25.0683 31.2921C22.7153 31.2759 20.364 31.284 18.011 31.284C16.9368 31.284 16.9368 31.284 16.9368 30.2277C16.9352 28.8579 16.9352 27.488 16.9352 26.1181ZM19.2167 8.71924C19.6522 8.71924 20.0877 8.74524 20.52 8.71111C20.8758 8.68349 21.0302 8.84111 21.1635 9.14336C22.5333 12.2845 23.913 15.4207 25.3007 18.5537C25.4518 18.895 25.4551 19.038 25.0196 19.0217C24.3273 18.9957 23.6351 19.0039 22.9428 19.0201C22.6552 19.0266 22.5041 18.921 22.4115 18.6496C22.288 18.284 22.0946 17.9411 21.9873 17.5722C21.8638 17.1465 21.6315 16.997 21.1846 17.0067C19.8326 17.0344 18.479 17.0262 17.1253 17.0116C16.7678 17.0084 16.5615 17.1221 16.4493 17.4747C16.3275 17.8566 16.1357 18.2157 16.009 18.596C15.9082 18.8982 15.749 19.0331 15.4158 19.0217C14.7236 18.999 14.0313 19.0071 13.3391 19.0185C13.0498 19.0234 12.9621 18.9519 13.0921 18.6594C14.5237 15.4386 15.9488 12.2162 17.3691 8.99061C17.4633 8.77774 17.5982 8.71111 17.816 8.71599C18.2823 8.72574 18.7503 8.71924 19.2167 8.71924ZM19.1241 10.9487C18.6301 12.1675 18.1247 13.3944 17.6372 14.6277C17.5218 14.9202 17.7753 14.8926 17.9427 14.8942C18.7633 14.8991 19.5856 14.8877 20.4062 14.9007C20.7995 14.9072 20.832 14.7496 20.6987 14.4279C20.2535 13.3602 19.8212 12.2861 19.3825 11.2136C19.3435 11.1145 19.324 10.9926 19.1241 10.9487ZM38.6013 21.0042C37.0673 22.6357 35.6195 24.1909 34.1488 25.7249C33.8547 26.032 33.8255 26.214 34.1375 26.5374C35.4976 27.9544 36.8301 29.4006 38.1691 30.8387C38.2747 30.9509 38.4258 31.037 38.4486 31.2791C37.433 31.2791 36.4271 31.2807 35.4212 31.2775C35.2197 31.2759 35.1222 31.102 35.0036 30.9752C34.1456 30.0571 33.2811 29.1455 32.4393 28.2127C32.1923 27.9381 32.0412 27.9381 31.7958 28.2079C30.9622 29.126 30.1026 30.0214 29.2673 30.9379C29.0447 31.1816 28.8156 31.3002 28.476 31.2921C27.6082 31.2694 26.7372 31.284 25.8646 31.284C25.8142 31.0825 25.98 31.0207 26.0661 30.9281C27.4278 29.4672 28.7863 28.0015 30.1708 26.5617C30.465 26.2562 30.4552 26.0824 30.1692 25.7817C28.814 24.3582 27.4815 22.9136 26.1441 21.4722C26.0271 21.3471 25.8743 21.2431 25.8126 21.0026C26.8396 21.0026 27.8471 21.0042 28.853 21.001C29.0626 21.001 29.1601 21.1554 29.2787 21.2821C30.1123 22.1791 30.959 23.0647 31.7682 23.9829C32.0721 24.329 32.2508 24.3761 32.5791 24.0007C33.3737 23.0924 34.2252 22.2311 35.0361 21.3357C35.262 21.0871 35.4976 20.9864 35.8323 20.9929C36.7163 21.0172 37.6003 21.0042 38.6013 21.0042Z" fill="white"/>
<path d="M39.4545 28.8092C38.5851 27.9772 37.7044 27.1354 36.822 26.2953C36.7034 26.1832 36.6936 26.0889 36.8123 25.9719C37.68 25.1188 38.5478 24.264 39.4545 23.3687C39.4545 25.226 39.4545 27.033 39.4545 28.8092Z" fill="white"/>
</g>
<defs>
<clipPath id="clip0_4406_8353">
<rect width="39" height="39" fill="white" transform="translate(0.5 0.5)"/>
</clipPath>
</defs>
</svg>
