<svg width="25" height="24" viewBox="0 0 25 24" fill="none" xmlns="http://www.w3.org/2000/svg">
<path d="M21.5734 -0.060791H2.5888C1.90221 -0.060791 1.24374 0.2115 0.758243 0.69618C0.272748 1.18086 0 1.83823 0 2.52367L0 21.4764C0 22.1618 0.272748 22.8192 0.758243 23.3039C1.24374 23.7885 1.90221 24.0608 2.5888 24.0608H9.99116V15.86H6.59336V12H9.99116V9.05804C9.99116 5.71171 11.9867 3.86328 15.0431 3.86328C16.5069 3.86328 18.0375 4.12388 18.0375 4.12388V7.4083H16.351C14.6893 7.4083 14.171 8.43777 14.171 9.49363V12H17.8805L17.2873 15.86H14.171V24.0608H21.5734C22.26 24.0608 22.9184 23.7885 23.4039 23.3039C23.8894 22.8192 24.1622 22.1618 24.1622 21.4764V2.52367C24.1622 1.83823 23.8894 1.18086 23.4039 0.69618C22.9184 0.2115 22.26 -0.060791 21.5734 -0.060791Z" fill="white"/>
</svg>
