<svg width="56" height="39" viewBox="0 0 56 39" fill="none" xmlns="http://www.w3.org/2000/svg">
<path fill-rule="evenodd" clip-rule="evenodd" d="M26.1333 0L16.0926 15.6404C21.0442 16.6008 25.3081 20.4423 25.3081 26.7534C25.3081 33.7504 19.8063 38.8267 12.654 38.8267C5.77684 38.8267 0 34.162 0 25.3814C0 20.4423 2.33825 15.6404 5.22667 11.2501L12.5165 0H26.1333ZM56 0L45.9593 15.6404C50.9109 16.6008 55.1748 20.4423 55.1748 26.7534C55.1748 33.7504 49.673 38.8267 42.5207 38.8267C35.6435 38.8267 29.8667 34.162 29.8667 25.3814C29.8667 20.4423 32.2049 15.6404 35.0933 11.2501L42.3832 0H56Z" fill="#ABAECD"/>
</svg>
