<svg width="57" height="56" viewBox="0 0 57 56" fill="none" xmlns="http://www.w3.org/2000/svg">
<rect x="0.5" width="56" height="56" rx="4" fill="#DDEFDD"/>
<path fill-rule="evenodd" clip-rule="evenodd" d="M50.5965 27.2089L50.5967 27.2092L51 27.75L50.5967 28.2908L50.5965 28.2911C50.1995 28.8358 40.9697 41.5 29 41.5C17.0303 41.5 7.8006 28.8359 7.40353 28.2911L7.40333 28.2908L7 27.75L7.40333 27.2092L7.40353 27.2089C7.8006 26.6641 17.0303 14 29 14C40.9697 14 50.1995 26.6642 50.5965 27.2089ZM9.30083 27.75C11.235 30.1517 19.3017 39.6667 29 39.6667C38.6983 39.6667 46.765 30.1517 48.6992 27.75C46.765 25.3483 38.6983 15.8333 29 15.8333C19.3017 15.8333 11.235 25.3483 9.30083 27.75ZM24.9258 21.6526C26.1318 20.8468 27.5496 20.4167 29 20.4167C30.9449 20.4167 32.8102 21.1893 34.1855 22.5645C35.5607 23.9398 36.3333 25.8051 36.3333 27.75C36.3333 29.2004 35.9032 30.6182 35.0974 31.8242C34.2916 33.0301 33.1463 33.9701 31.8063 34.5251C30.4664 35.0802 28.9919 35.2254 27.5693 34.9424C26.1468 34.6595 24.8401 33.961 23.8146 32.9354C22.789 31.9099 22.0905 30.6032 21.8076 29.1807C21.5246 27.7581 21.6698 26.2836 22.2249 24.9437C22.7799 23.6037 23.7199 22.4584 24.9258 21.6526ZM25.9444 32.3231C26.8488 32.9274 27.9122 33.25 29 33.25C30.4587 33.25 31.8576 32.6705 32.8891 31.6391C33.9205 30.6076 34.5 29.2087 34.5 27.75C34.5 26.6622 34.1774 25.5988 33.5731 24.6944C32.9687 23.7899 32.1098 23.0849 31.1048 22.6687C30.0998 22.2524 28.9939 22.1435 27.927 22.3557C26.8601 22.5679 25.8801 23.0917 25.1109 23.8609C24.3417 24.6301 23.8179 25.6101 23.6057 26.677C23.3935 27.7439 23.5024 28.8498 23.9187 29.8548C24.3349 30.8598 25.0399 31.7187 25.9444 32.3231Z" fill="#A2CB94"/>
</svg>
