<svg width="57" height="56" viewBox="0 0 57 56" fill="none" xmlns="http://www.w3.org/2000/svg">
<rect x="0.5" width="56" height="56" rx="4" fill="#DDEFDD"/>
<path d="M13.4587 27.4768H11.4789C10.8284 27.4768 10.291 26.9394 10.291 26.2606V24.903C10.291 24.2525 10.8284 23.6869 11.4789 23.6869H13.4587C14.1092 23.6869 14.6466 24.2243 14.6466 24.903V26.2606C14.6466 26.9394 14.1092 27.4768 13.4587 27.4768ZM11.4789 24.6485C11.3375 24.6485 11.2526 24.7616 11.2526 24.9313V26.2889C11.2526 26.4303 11.3658 26.5717 11.4789 26.5717H13.4587C13.6001 26.5717 13.685 26.4586 13.685 26.2889V24.9313C13.685 24.7899 13.5718 24.6485 13.4587 24.6485H11.4789ZM13.4587 23.1495H11.4789C10.8284 23.1495 10.291 22.6121 10.291 21.9333V20.5758C10.291 19.897 10.8284 19.3596 11.4789 19.3596H13.4587C14.1092 19.3596 14.6466 19.897 14.6466 20.5758V21.9333C14.6466 22.5839 14.1092 23.1495 13.4587 23.1495ZM11.4789 20.2929C11.3375 20.2929 11.2526 20.4061 11.2526 20.5758V21.9333C11.2526 22.0748 11.3658 22.2162 11.4789 22.2162H13.4587C13.6001 22.2162 13.685 22.103 13.685 21.9333V20.5758C13.685 20.4344 13.5718 20.2929 13.4587 20.2929H11.4789ZM13.4587 18.8788H11.4789C10.8284 18.8788 10.291 18.3414 10.291 17.6626V16.3333C10.291 15.6546 10.8284 15.1172 11.4789 15.1172H13.4587C14.1092 15.1172 14.6466 15.6546 14.6466 16.3333V17.6909C14.6466 18.3414 14.1092 18.8788 13.4587 18.8788ZM11.4789 16.0505C11.3375 16.0505 11.2526 16.1637 11.2526 16.3333V17.6909C11.2526 17.8323 11.3658 17.9738 11.4789 17.9738H13.4587C13.6001 17.9738 13.685 17.8606 13.685 17.6909V16.3333C13.685 16.1919 13.5718 16.0505 13.4587 16.0505H11.4789Z" fill="#A2CB94"/>
<path d="M10.3475 31.4646C9.72525 31.4646 9.13131 31.2101 8.70707 30.7859C8.25455 30.3333 8 29.7394 8 29.1172V9.23434C8 8.01818 9.01818 7 10.2343 7H25.7051C26.5253 7 27.1758 7.6505 27.204 8.47071L27.3172 16.0788L26.1293 16.1071L25.9879 8.47071C25.9879 8.30101 25.8465 8.1596 25.6768 8.1596H10.2343C9.6404 8.1596 9.18788 8.6404 9.18788 9.20606V29.0889C9.18788 29.4 9.30101 29.6828 9.52727 29.9091C9.75354 30.1354 10.0364 30.2485 10.3475 30.2485L25.2808 30.1354C25.7051 30.1354 26.0162 29.796 26.0444 29.3717L25.9879 18.8505H27.1758L27.2323 29.4283C27.2323 30.503 26.3556 31.3515 25.3091 31.3798L10.3475 31.4646Z" fill="#A2CB94"/>
<path d="M22.8486 29.5697C21.6324 29.5697 20.6425 28.5798 20.6425 27.3354V21.5657C20.6425 20.3495 21.6324 19.3313 22.8486 19.3313C24.0647 19.3313 25.0546 20.3212 25.0546 21.5657V27.3354C25.0829 28.5798 24.093 29.5697 22.8486 29.5697ZM22.8486 20.2929C22.1415 20.2929 21.5758 20.8586 21.5758 21.5657V27.3354C21.5758 28.0424 22.1415 28.6081 22.8486 28.6081C23.5556 28.6081 24.1213 28.0424 24.1213 27.3354V21.5657C24.1213 20.8586 23.5556 20.2929 22.8486 20.2929ZM18.4647 27.5051H16.4001C15.7213 27.5051 15.1839 26.9677 15.1839 26.2889V24.9313C15.1839 24.2525 15.7213 23.7152 16.4001 23.7152H18.4647C19.1435 23.7152 19.6809 24.2525 19.6809 24.9313V26.2889C19.7092 26.9677 19.1435 27.5051 18.4647 27.5051ZM16.4001 24.6485C16.2587 24.6485 16.1172 24.7616 16.1172 24.9313V26.2889C16.1172 26.4303 16.2304 26.5717 16.4001 26.5717H18.4647C18.6061 26.5717 18.7475 26.4586 18.7475 26.2889V24.9313C18.7475 24.7899 18.6344 24.6485 18.4647 24.6485H16.4001ZM18.4647 23.1212H16.4001C15.7213 23.1212 15.1839 22.5838 15.1839 21.9051V20.5475C15.1839 19.8687 15.7213 19.3313 16.4001 19.3313H18.4647C19.1435 19.3313 19.6809 19.8687 19.6809 20.5475V21.9051C19.7092 22.5838 19.1435 23.1212 18.4647 23.1212ZM16.4001 20.2647C16.2587 20.2647 16.1172 20.3778 16.1172 20.5475V21.9051C16.1172 22.0465 16.2304 22.1879 16.4001 22.1879H18.4647C18.6061 22.1879 18.7475 22.0748 18.7475 21.9051V20.5475C18.7475 20.4061 18.6344 20.2647 18.4647 20.2647H16.4001ZM23.3859 18.8505H21.3213C20.6425 18.8505 20.1051 18.3131 20.1051 17.6343V16.2768C20.1051 15.598 20.6425 15.0606 21.3213 15.0606H23.3859C24.0647 15.0606 24.6021 15.598 24.6021 16.2768V17.6343C24.6021 18.2849 24.0364 18.8505 23.3859 18.8505ZM21.3213 15.9939C21.1799 15.9939 21.0385 16.1071 21.0385 16.2768V17.6343C21.0385 17.7758 21.1516 17.9172 21.3213 17.9172H23.3859C23.5273 17.9172 23.6688 17.804 23.6688 17.6343V16.2768C23.6688 16.1354 23.5556 15.9939 23.3859 15.9939H21.3213ZM18.4647 18.8505H16.4001C15.7213 18.8505 15.1839 18.3131 15.1839 17.6343V16.2768C15.1839 15.598 15.7213 15.0606 16.4001 15.0606H18.4647C19.1435 15.0606 19.6809 15.598 19.6809 16.2768V17.6343C19.7092 18.2849 19.1435 18.8505 18.4647 18.8505ZM16.4001 15.9939C16.2587 15.9939 16.1172 16.1071 16.1172 16.2768V17.6343C16.1172 17.7758 16.2304 17.9172 16.4001 17.9172H18.4647C18.6061 17.9172 18.7475 17.804 18.7475 17.6343V16.2768C18.7475 16.1354 18.6344 15.9939 18.4647 15.9939H16.4001ZM22.8203 13.3071H12.3556C11.196 13.3071 10.2627 12.3737 10.2627 11.2141C10.2627 10.0545 11.196 9.12122 12.3556 9.12122H22.8203C23.9799 9.12122 24.9132 10.0545 24.9132 11.2141C24.9132 12.3737 23.9516 13.3071 22.8203 13.3071ZM12.3556 10.0828C11.7334 10.0828 11.2243 10.5919 11.2243 11.2141C11.2243 11.8364 11.7334 12.3455 12.3556 12.3455H22.8203C23.4425 12.3455 23.9516 11.8364 23.9516 11.2141C23.9516 10.5919 23.4425 10.0828 22.8203 10.0828H12.3556Z" fill="#A2CB94"/>
<path d="M17.2766 49.1414C16.2302 49.1414 15.3817 48.2929 15.3817 47.2748L15.2686 31.0404H16.6827L16.7958 47.2748C16.7958 47.5293 16.9938 47.7556 17.2766 47.7556L48.1049 47.6424C48.3595 47.6424 48.5857 47.4162 48.5857 47.1616V17.6626L43.0706 17.5495C42.1655 17.5212 41.4585 16.8142 41.4302 15.9091L41.317 10.3657H27.1756V8.95154H41.515C42.0241 8.95154 42.5049 9.14952 42.8443 9.51719L49.4342 16.1071C49.8019 16.4748 49.9999 16.9273 49.9999 17.4364V47.1051C49.9999 48.1515 49.1514 49 48.1049 49L17.2766 49.1414ZM42.7595 11.4121L42.8443 15.8808C42.8443 16.0222 42.9574 16.1354 43.0989 16.1354L47.5675 16.2202L42.7595 11.4121Z" fill="#A2CB94"/>
<path d="M45.3899 26.996C44.8808 27.5051 44.0041 27.5051 43.495 26.996L33.0869 16.5879C32.5778 16.0788 32.5778 15.2021 33.0869 14.693C33.596 14.1839 34.4728 14.1839 34.9818 14.693L45.3899 25.1011C45.9273 25.6101 45.9273 26.4586 45.3899 26.996Z" fill="#A2CB94"/>
<path d="M45.5313 26.3171L44.202 25.8363L44.4283 25.2424C44.7111 24.4222 44.5414 23.5171 44.004 22.8949L42.2505 20.8868L43.3252 19.9535L45.0788 21.9616C45.9555 22.9515 46.2384 24.4505 45.7576 25.7232L45.5313 26.3171Z" fill="#A2CB94"/>
<path d="M24.0649 38.5071H20.5012C20.077 38.5071 19.7659 38.1677 19.7659 37.7717C19.7659 37.3475 20.1053 37.0364 20.5012 37.0364H24.0366C24.4608 37.0364 24.7719 37.3758 24.7719 37.7717C24.8002 38.1677 24.4608 38.5071 24.0649 38.5071Z" fill="#A2CB94"/>
<path d="M24.1779 42.1838H20.6426C20.2183 42.1838 19.9072 41.8444 19.9072 41.4485C19.9072 41.0242 20.2466 40.7131 20.6426 40.7131H24.1779C24.6022 40.7131 24.9133 41.0525 24.9133 41.4485C24.9416 41.8444 24.6022 42.1838 24.1779 42.1838Z" fill="#A2CB94"/>
<path d="M37.2726 46.4263C32.0403 46.4263 27.7979 42.1839 27.7979 36.9516C27.7979 31.7192 32.0403 27.4768 37.2726 27.4768C42.5049 27.4768 46.7473 31.7192 46.7473 36.9516C46.7473 42.1556 42.4766 46.4263 37.2726 46.4263ZM37.2726 28.8909C32.8322 28.8909 29.212 32.5112 29.212 36.9516C29.212 41.392 32.8322 45.0122 37.2726 45.0122C41.713 45.0122 45.3332 41.392 45.3332 36.9516C45.3049 32.5112 41.713 28.8909 37.2726 28.8909Z" fill="#A2CB94"/>
<path d="M34.8687 16.3898C34.7273 16.5313 34.5293 16.5313 34.3879 16.3898L32.2667 14.2686C32.1253 14.1272 32.1253 13.9292 32.2667 13.7878C32.4081 13.6464 32.6061 13.6464 32.7475 13.7878L34.8687 15.909C34.9819 16.0504 34.9819 16.2484 34.8687 16.3898Z" fill="#A2CB94"/>
<path d="M38.9412 39.9778C39.224 39.6667 39.3654 39.299 39.3654 38.8747C39.3654 38.4222 39.224 38.0545 38.9412 37.8C38.7715 37.6303 38.5452 37.5172 38.2624 37.3758C38.0078 37.2626 37.725 37.4606 37.725 37.7151V40.0343C37.725 40.2889 37.9796 40.4869 38.2341 40.402C38.5452 40.3172 38.7715 40.1758 38.9412 39.9778ZM35.8018 35.2545C35.9715 35.396 36.1977 35.5374 36.4806 35.6788C36.7351 35.7919 37.0179 35.5939 37.0179 35.3394V33.0768C37.0179 32.8222 36.7634 32.6242 36.5371 32.7091C36.2543 32.7939 36.028 32.9071 35.8583 33.0768C35.5755 33.3313 35.4341 33.7273 35.4341 34.2081C35.4058 34.6606 35.519 35.0283 35.8018 35.2545ZM40.327 40.0909C40.1008 40.4869 39.7614 40.8545 39.3371 41.1091C38.9695 41.3353 38.5735 41.4768 38.0927 41.5333C37.8947 41.5616 37.7533 41.7313 37.7533 41.901V42.3252C37.7533 42.5232 37.5836 42.6929 37.3856 42.6929C37.1876 42.6929 37.0179 42.5232 37.0179 42.3252V41.901C37.0179 41.703 36.8765 41.5616 36.7068 41.5333C35.9998 41.4202 35.4058 41.1657 34.9533 40.7414C34.5291 40.3737 34.2745 39.9212 34.1897 39.3838C34.1614 39.1576 34.3311 38.9313 34.5573 38.9313H35.1796C35.3493 38.9313 35.519 39.0444 35.5755 39.2141C35.6321 39.497 35.7735 39.7515 35.9715 39.9495C36.1129 40.1192 36.3109 40.2606 36.5371 40.3455C36.7917 40.4586 37.0745 40.2606 37.0745 40.0061V37.2626C37.0745 37.0929 36.9614 36.9515 36.7917 36.8949C36.2826 36.7535 35.8866 36.6121 35.5472 36.4707C35.1513 36.301 34.8402 36.0465 34.5573 35.6788C34.2745 35.3111 34.1614 34.8303 34.1614 34.2364C34.1614 33.4727 34.4159 32.8505 34.9533 32.3414C35.4058 31.9172 35.9998 31.6343 36.7351 31.5495C36.9331 31.5212 37.0745 31.3515 37.0745 31.1818V30.7576C37.0745 30.5596 37.2442 30.3899 37.4422 30.3899C37.6402 30.3899 37.8099 30.5596 37.8099 30.7576V31.2101C37.8099 31.4081 37.9513 31.5495 38.121 31.5778C38.7715 31.6909 39.3089 31.9172 39.7331 32.3131C40.1008 32.6525 40.3553 33.0768 40.4967 33.5859C40.5533 33.8121 40.3836 34.0667 40.1291 34.0667H39.5068C39.3371 34.0667 39.1957 33.9535 39.1392 33.7838C39.0543 33.5576 38.9412 33.3596 38.7715 33.1616C38.6583 33.0485 38.5169 32.9353 38.3755 32.8505C38.121 32.7091 37.8099 32.8788 37.8099 33.1899V35.7919C37.8099 35.9616 37.923 36.103 38.0927 36.1596C38.6018 36.301 38.9977 36.4424 39.3371 36.5838C39.7331 36.7535 40.0442 37.0081 40.327 37.3758C40.6099 37.7434 40.723 38.2242 40.723 38.8182C40.6664 39.2424 40.5533 39.6949 40.327 40.0909Z" fill="#A2CB94"/>
</svg>
