<svg width="57" height="56" viewBox="0 0 57 56" fill="none" xmlns="http://www.w3.org/2000/svg">
<rect x="0.5" width="56" height="56" rx="4" fill="#DDEFDD"/>
<path d="M19.964 45.4882C18.8253 45.4882 17.8599 44.7703 17.5381 43.7802L9.88923 43.7059L9.91398 42.196L17.5381 42.2702C17.8599 41.2801 18.8253 40.587 19.964 40.587C21.1026 40.587 22.068 41.3048 22.3898 42.295L48.4554 42.3692V43.8792L22.3898 43.805C22.068 44.7703 21.1026 45.4882 19.964 45.4882ZM19.964 42.097C19.3946 42.097 18.9243 42.5178 18.9243 43.0376C18.9243 43.5574 19.3946 43.9782 19.964 43.9782C20.5333 43.9782 21.0036 43.5574 21.0036 43.0376C21.0036 42.5178 20.5333 42.097 19.964 42.097ZM44.2225 41.8247C43.0839 41.8247 42.1185 41.1068 41.7967 40.1167H33.4547C33.1329 41.1068 32.1675 41.8247 31.0288 41.8247C29.6179 41.8247 28.4792 40.7355 28.4792 39.3741C28.4792 38.0126 29.6179 36.9234 31.0288 36.9234C32.1675 36.9234 33.1329 37.6413 33.4547 38.6314H41.8214C42.1432 37.6413 43.1086 36.9234 44.2473 36.9234C45.386 36.9234 46.3514 37.6413 46.6732 38.6314H49V40.1414H46.6732C46.3266 41.1316 45.3612 41.8247 44.2225 41.8247ZM44.2225 38.4334C43.6532 38.4334 43.1829 38.8542 43.1829 39.3741C43.1829 39.8939 43.6532 40.3147 44.2225 40.3147C44.7919 40.3147 45.2622 39.8939 45.2622 39.3741C45.2622 38.8542 44.8166 38.4334 44.2225 38.4334ZM31.0288 38.4334C30.4595 38.4334 29.9892 38.8542 29.9892 39.3741C29.9892 39.8939 30.4595 40.3147 31.0288 40.3147C31.5982 40.3147 32.0685 39.8939 32.0685 39.3741C32.0685 38.8542 31.5982 38.4334 31.0288 38.4334ZM11.6962 41.8247C10.2853 41.8247 9.14662 40.7355 9.14662 39.3741C9.14662 38.0126 10.2853 36.9234 11.6962 36.9234C12.8349 36.9234 13.8003 37.6413 14.1221 38.6067L16.4985 38.5819V40.0919L14.0974 40.1167C13.8003 41.1316 12.8349 41.8247 11.6962 41.8247ZM11.6962 38.4334C11.1269 38.4334 10.6566 38.8542 10.6566 39.3741C10.6566 39.8939 11.1269 40.3147 11.6962 40.3147C12.2656 40.3147 12.7359 39.8939 12.7359 39.3741C12.7359 38.8542 12.2656 38.4334 11.6962 38.4334ZM27.6376 39.8939L19.5184 39.8196L19.5432 38.3096L26.1524 38.3839L26.1771 25.8338C25.2117 25.5368 24.5186 24.6456 24.5186 23.6307C24.5186 22.3435 25.6078 21.3039 26.9445 21.3039C28.0089 21.3039 28.9 21.9475 29.2218 22.8634L33.2319 22.8139C33.5785 21.9227 34.4944 21.2791 35.534 21.2791C36.8955 21.2791 37.9846 22.3435 37.9846 23.6555C37.9846 24.9674 36.8707 26.0318 35.534 26.0318C34.4201 26.0318 33.4795 25.314 33.1824 24.3238L29.2466 24.3733C28.999 25.0664 28.4297 25.611 27.7119 25.8338L27.6376 39.8939ZM35.5093 22.8139C34.9894 22.8139 34.5439 23.2099 34.5439 23.6802C34.5439 24.1506 34.9647 24.5466 35.5093 24.5466C36.0291 24.5466 36.4746 24.1506 36.4746 23.6802C36.4746 23.2099 36.0538 22.8139 35.5093 22.8139ZM26.9445 22.8139C26.4494 22.8139 26.0286 23.1852 26.0286 23.6307C26.0286 24.0763 26.4247 24.4476 26.9445 24.4476C27.4643 24.4476 27.8604 24.0763 27.8604 23.6307C27.8604 23.1852 27.4396 22.8139 26.9445 22.8139ZM24.3949 36.5769L9.88923 36.4779V34.9679L22.8849 35.0422L22.9592 27.9874L21.4244 25.9823C21.3007 26.0071 21.1521 26.0071 21.0036 26.0071C19.5927 26.0071 18.454 24.9179 18.454 23.5565C18.454 22.195 19.6422 21.1306 21.0531 21.1306C22.4641 21.1306 23.6028 22.2198 23.6028 23.5812C23.6028 24.2743 23.3057 24.8684 22.8354 25.314L24.4939 27.4923L24.3949 36.5769ZM21.0531 22.6406C20.4838 22.6406 20.0135 23.0614 20.0135 23.5812C20.0135 24.1011 20.4838 24.5219 21.0531 24.5219C21.6225 24.5219 22.0928 24.1011 22.0928 23.5812C22.0928 23.0614 21.6225 22.6406 21.0531 22.6406ZM35.9548 36.5769H29.9149V30.438C28.8258 30.1162 28.0337 29.1508 28.0337 28.0121C28.0337 26.6259 29.2218 25.4873 30.6823 25.4873C32.1428 25.4873 33.3309 26.6259 33.3309 28.0121C33.3309 29.1508 32.5388 30.1409 31.4497 30.438V35.0669H36.0043V36.5769H35.9548ZM30.6575 26.9725C30.0387 26.9725 29.5189 27.4428 29.5189 28.0121C29.5189 28.5815 30.0387 29.0518 30.6575 29.0518C31.2764 29.0518 31.7962 28.5815 31.7962 28.0121C31.7962 27.4428 31.3011 26.9725 30.6575 26.9725ZM48.6287 36.4779H39.6431V34.9927H48.6287V36.4779ZM17.2163 32.6163C15.2113 32.6163 12.6369 32.245 10.9041 30.6608C9.39416 29.2993 8.77532 27.2943 9.07236 24.6951V24.5714L9.12187 24.4724C9.19613 24.2991 11.0279 20.2147 14.6419 20.3633C14.8647 19.1998 15.5083 17.1453 17.3401 15.8581C18.7758 14.8679 20.6323 14.5461 22.8354 14.9422C23.776 13.5808 26.9197 9.71919 32.217 10.0162C38.5044 10.3875 40.658 14.5957 40.757 14.7689L39.4203 15.4373C39.3461 15.2888 37.5391 11.8232 32.1428 11.5262C27.5138 11.2539 24.7662 14.7689 24.0236 15.8828C23.7265 16.3284 23.2067 16.5512 22.6621 16.4522C20.8056 16.1304 19.2956 16.3532 18.1817 17.1205C16.746 18.1107 16.2509 19.8187 16.1024 20.7346C15.9786 21.4277 15.335 21.9475 14.5924 21.898C12.2408 21.7742 10.8051 24.4229 10.5576 24.9674C10.3595 27.022 10.8051 28.5567 11.919 29.5716C14.5429 31.9727 19.9887 30.8836 20.063 30.8588L20.36 32.344C20.2363 32.344 18.9243 32.6163 17.2163 32.6163ZM34.2716 32.3193L34.2468 30.8093L43.975 30.636C44.0245 30.636 44.0493 30.636 44.0988 30.6113C47.5643 29.5716 47.3663 26.6507 47.3663 26.5269V26.4527V26.3536C47.5395 25.1655 47.3167 24.2248 46.7227 23.4575C45.5097 21.9722 43.0591 21.6752 42.069 21.6009C41.3016 21.5514 40.7075 20.9326 40.7075 20.19V18.2839H42.2175V20.1405C43.7027 20.2395 46.3761 20.6851 47.8861 22.5416C48.7525 23.606 49.0743 24.9179 48.8762 26.5022C48.9752 28.0121 48.2079 30.9826 44.5443 32.0965C44.3711 32.146 44.1978 32.1707 44.0245 32.1707L34.2716 32.3193ZM31.0288 21.1059C29.6674 21.1059 28.5782 20.0415 28.5782 18.7295C28.5782 17.4176 29.6922 16.3532 31.0288 16.3532C32.3903 16.3532 33.4795 17.4176 33.4795 18.7295C33.4795 20.0415 32.3903 21.1059 31.0288 21.1059ZM31.0288 17.8879C30.509 17.8879 30.0635 18.2839 30.0635 18.7543C30.0635 19.2246 30.4843 19.6206 31.0288 19.6206C31.5487 19.6206 31.9942 19.2246 31.9942 18.7543C31.9942 18.2839 31.5487 17.8879 31.0288 17.8879Z" fill="#A2CB94"/>
</svg>
