<svg width="57" height="56" viewBox="0 0 57 56" fill="none" xmlns="http://www.w3.org/2000/svg">
<rect x="0.5" width="56" height="56" rx="4" fill="#DDEFDD"/>
<path d="M42.7361 49.0255H18.5525V47.3869H42.7057C44.4353 47.3869 45.8311 45.9911 45.8311 44.2616V16.4671L38.0329 16.3457C37.2136 16.3457 36.5764 15.6782 36.5764 14.8589V8.63854H18.5525C16.8229 8.63854 15.4271 10.0343 15.4271 11.7639V41.2879H13.7886V11.7942C13.7886 9.15437 15.9429 7 18.5525 7H42.7057C45.3456 7 47.5 9.15437 47.5 11.7942V44.2616C47.5 46.8711 45.3759 49.0255 42.7361 49.0255ZM38.2453 14.7072L45.8614 14.7982V11.7639C45.8614 10.0343 44.4656 8.63854 42.7361 8.63854H38.2453V14.7072ZM30.9932 38.2232C24.9852 38.2232 20.1 33.338 20.1 27.33C20.1 21.322 24.9852 16.4064 30.9932 16.4064C37.0012 16.4064 41.8865 21.2917 41.8865 27.2997C41.8865 33.3076 37.0315 38.2232 30.9932 38.2232ZM30.9932 18.045C25.8955 18.045 21.7385 22.202 21.7385 27.2997C21.7385 32.3973 25.8955 36.5544 30.9932 36.5544C36.0909 36.5544 40.2479 32.3973 40.2479 27.2997C40.2479 22.202 36.1212 18.045 30.9932 18.045ZM37.2136 26.7535C37.2136 26.5411 37.1226 21.7772 32.5104 20.8365L32.8442 19.2283C37.6081 20.1993 38.8521 24.5991 38.8521 26.7535H37.2136H38.0329H37.2136Z" fill="#A2CB94"/>
<path d="M11.877 47.9939C11.2094 47.9939 10.5419 47.7208 10.0867 47.1746C9.66192 46.6891 9.44951 46.0822 9.5102 45.445C9.54054 44.8078 9.84398 44.2313 10.3295 43.8065L17.4905 37.5254C18.2187 36.8882 19.2504 36.7668 20.1 37.1613L23.2861 34.2787L24.5301 35.6441L21.2834 38.5571C21.5868 39.437 21.3441 40.4687 20.5855 41.1363L13.4245 47.4173C12.9997 47.7815 12.4232 47.9939 11.877 47.9939ZM19.0077 38.7695C18.8863 38.7695 18.7649 38.7998 18.6435 38.8909L11.5129 45.2023C11.3915 45.2933 11.3308 45.4147 11.3308 45.5664C11.3308 45.7181 11.3611 45.8395 11.4522 45.9609C11.6342 46.1733 11.9983 46.2036 12.2108 46.0215L19.3718 39.7405C19.5842 39.5584 19.6145 39.1943 19.4325 38.9819C19.3111 38.8302 19.1594 38.7695 19.0077 38.7695Z" fill="#A2CB94"/>
</svg>
