<svg width="57" height="56" viewBox="0 0 57 56" fill="none" xmlns="http://www.w3.org/2000/svg">
<rect x="0.5" width="56" height="56" rx="4" fill="#DDEFDD"/>
<path d="M30.9688 16.3148V14.875H32.2812C32.6435 14.875 32.9375 14.581 32.9375 14.2188V11.5938C32.9375 11.2315 32.6435 10.9375 32.2812 10.9375H25.7188C25.3565 10.9375 25.0625 11.2315 25.0625 11.5938V14.2188C25.0625 14.581 25.3565 14.875 25.7188 14.875H27.0312V16.3148C19.2731 17.2874 13.25 23.9201 13.25 31.9375C13.25 40.6217 20.3158 47.6875 29 47.6875C37.6842 47.6875 44.75 40.6217 44.75 31.9375C44.75 23.9201 38.7269 17.2874 30.9688 16.3148ZM26.375 12.25H31.625V13.5625H26.375V12.25ZM28.3438 14.875H29.6562V16.2039C29.4384 16.1954 29.2198 16.1875 29 16.1875C28.7802 16.1875 28.5616 16.1954 28.3438 16.2039V14.875ZM29 46.375C21.039 46.375 14.5625 39.8985 14.5625 31.9375C14.5625 23.9765 21.039 17.5 29 17.5C36.961 17.5 43.4375 23.9765 43.4375 31.9375C43.4375 39.8985 36.961 46.375 29 46.375Z" fill="#A2CB94"/>
<path d="M29 18.8125C21.7629 18.8125 15.875 24.7004 15.875 31.9375C15.875 39.1746 21.7629 45.0625 29 45.0625C36.2371 45.0625 42.125 39.1746 42.125 31.9375C42.125 24.7004 36.2371 18.8125 29 18.8125ZM29 43.75C22.4867 43.75 17.1875 38.4508 17.1875 31.9375C17.1875 25.4242 22.4867 20.125 29 20.125C35.5133 20.125 40.8125 25.4242 40.8125 31.9375C40.8125 38.4508 35.5133 43.75 29 43.75Z" fill="#A2CB94"/>
<path d="M29.6562 21.4375C29.294 21.4375 29 21.7315 29 22.0938V31.2812C29 31.6435 29.294 31.9375 29.6562 31.9375H38.8438C39.206 31.9375 39.5 31.6435 39.5 31.2812C39.5 26.0372 34.9003 21.4375 29.6562 21.4375ZM30.3125 30.625V22.7776C34.605 23.1359 37.8069 26.9644 38.156 30.625H30.3125Z" fill="#A2CB94"/>
<path d="M40.6205 17.6925L39.6924 18.6206L42.3174 21.2456L43.2455 20.3176L40.6205 17.6925Z" fill="#A2CB94"/>
<path d="M27.0312 8.3125H25.7188V9.625H27.0312V8.3125Z" fill="#A2CB94"/>
<path d="M29.6562 8.3125H28.3438V9.625H29.6562V8.3125Z" fill="#A2CB94"/>
<path d="M32.2812 8.3125H30.9688V9.625H32.2812V8.3125Z" fill="#A2CB94"/>
</svg>
