<svg width="56" height="56" viewBox="0 0 56 56" fill="none" xmlns="http://www.w3.org/2000/svg">
<rect width="56" height="56" rx="4" fill="#DDEFDD"/>
<path d="M42.2361 49.0255H18.0525V47.3869H42.2057C43.9353 47.3869 45.3311 45.9911 45.3311 44.2616V16.4671L37.5329 16.3457C36.7136 16.3457 36.0764 15.6782 36.0764 14.8589V8.63854H18.0525C16.3229 8.63854 14.9271 10.0343 14.9271 11.7639V41.2879H13.2886V11.7942C13.2886 9.15437 15.4429 7 18.0525 7H42.2057C44.8456 7 47 9.15437 47 11.7942V44.2616C47 46.8711 44.8759 49.0255 42.2361 49.0255ZM37.7453 14.7072L45.3614 14.7982V11.7639C45.3614 10.0343 43.9656 8.63854 42.2361 8.63854H37.7453V14.7072ZM30.4932 38.2232C24.4852 38.2232 19.6 33.338 19.6 27.33C19.6 21.322 24.4852 16.4064 30.4932 16.4064C36.5012 16.4064 41.3865 21.2917 41.3865 27.2997C41.3865 33.3076 36.5315 38.2232 30.4932 38.2232ZM30.4932 18.045C25.3955 18.045 21.2385 22.202 21.2385 27.2997C21.2385 32.3973 25.3955 36.5544 30.4932 36.5544C35.5909 36.5544 39.7479 32.3973 39.7479 27.2997C39.7479 22.202 35.6212 18.045 30.4932 18.045ZM36.7136 26.7535C36.7136 26.5411 36.6226 21.7772 32.0104 20.8365L32.3442 19.2283C37.1081 20.1993 38.3521 24.5991 38.3521 26.7535H36.7136H37.5329H36.7136Z" fill="#A2CB94"/>
<path d="M11.377 47.9939C10.7094 47.9939 10.0419 47.7208 9.58672 47.1746C9.16192 46.6891 8.94951 46.0822 9.0102 45.445C9.04054 44.8078 9.34398 44.2313 9.82947 43.8065L16.9905 37.5254C17.7187 36.8882 18.7504 36.7668 19.6 37.1613L22.7861 34.2787L24.0301 35.6441L20.7834 38.5571C21.0868 39.437 20.8441 40.4687 20.0855 41.1363L12.9245 47.4173C12.4997 47.7815 11.9232 47.9939 11.377 47.9939ZM18.5077 38.7695C18.3863 38.7695 18.2649 38.7998 18.1435 38.8909L11.0129 45.2023C10.8915 45.2933 10.8308 45.4147 10.8308 45.5664C10.8308 45.7181 10.8611 45.8395 10.9522 45.9609C11.1342 46.1733 11.4983 46.2036 11.7108 46.0215L18.8718 39.7405C19.0842 39.5584 19.1145 39.1943 18.9325 38.9819C18.8111 38.8302 18.6594 38.7695 18.5077 38.7695Z" fill="#A2CB94"/>
</svg>
