<svg width="72" height="72" viewBox="0 0 72 72" fill="none" xmlns="http://www.w3.org/2000/svg">
<rect width="72" height="72" rx="12" fill="#DDEFDD"/>
<g clip-path="url(#clip0_873_4348)">
<path d="M36.9896 49.8711L38.4329 50.7858C38.9712 51.127 39.3519 51.6679 39.4913 52.2897C39.6307 52.9115 39.5173 53.5633 39.1762 54.1015V54.1015C38.8351 54.6398 38.2941 55.0205 37.6723 55.1598C37.0505 55.2992 36.3988 55.1859 35.8605 54.8448L34.7188 54.172" stroke="#A2CB94" stroke-width="2" stroke-miterlimit="10" stroke-linecap="round"/>
<path d="M39.5626 45.8121L43.3734 48.2273C43.9117 48.5684 44.2924 49.1094 44.4318 49.7312C44.5711 50.353 44.4578 51.0047 44.1167 51.543V51.543C43.7756 52.0812 43.2346 52.4619 42.6128 52.6013C41.991 52.7407 41.3393 52.6273 40.801 52.2862L36.9902 49.8711" stroke="#A2CB94" stroke-width="2" stroke-miterlimit="10" stroke-linecap="round"/>
<path d="M42.1349 41.7532L48.3131 45.6687C48.8514 46.0098 49.2321 46.5508 49.3715 47.1726C49.5109 47.7944 49.3975 48.4461 49.0564 48.9844C48.7153 49.5226 48.1743 49.9033 47.5525 50.0427C46.9307 50.1821 46.279 50.0688 45.7407 49.7277L39.5625 45.8121" stroke="#A2CB94" stroke-width="2" stroke-miterlimit="10" stroke-linecap="round"/>
<path d="M22.9336 46.8036C23.5843 45.718 23.2317 44.3105 22.1461 43.6598C21.0605 43.0091 19.653 43.3617 19.0023 44.4473C18.3517 45.5329 18.7043 46.9404 19.7899 47.5911C20.8755 48.2418 22.283 47.8892 22.9336 46.8036Z" stroke="#A2CB94" stroke-width="2" stroke-miterlimit="10" stroke-linecap="round"/>
<path d="M27.0203 44.4435C27.5417 44.756 27.9175 45.2627 28.0652 45.8523C28.2129 46.4419 28.1203 47.066 27.8078 47.5873L26.8653 49.1598C26.5529 49.6811 26.0461 50.057 25.4566 50.2046C24.867 50.3523 24.2429 50.2598 23.7216 49.9473C23.2003 49.6349 22.8244 49.1281 22.6767 48.5385C22.529 47.949 22.6216 47.3249 22.9341 46.8035L23.8766 45.231C24.189 44.7097 24.6958 44.3339 25.2853 44.1862C25.8749 44.0385 26.499 44.1311 27.0203 44.4435V44.4435Z" stroke="#A2CB94" stroke-width="2" stroke-miterlimit="10" stroke-linecap="round"/>
<path d="M31.4227 46.0136C31.944 46.326 32.3198 46.8328 32.4675 47.4224C32.6152 48.0119 32.5226 48.636 32.2102 49.1573L30.7964 51.5161C30.484 52.0374 29.9772 52.4133 29.3876 52.561C28.7981 52.7087 28.174 52.6161 27.6527 52.3036V52.3036C27.1313 51.9912 26.7555 51.4844 26.6078 50.8948C26.4601 50.3053 26.5527 49.6812 26.8651 49.1599L28.2789 46.8011C28.5914 46.2798 29.0981 45.9039 29.6877 45.7562C30.2773 45.6085 30.9014 45.7011 31.4227 46.0136Z" stroke="#A2CB94" stroke-width="2" stroke-miterlimit="10" stroke-linecap="round"/>
<path d="M34.7276 53.8723C35.3782 52.7867 35.0257 51.3792 33.9401 50.7285C32.8545 50.0779 31.447 50.4305 30.7963 51.516C30.1456 52.6016 30.4982 54.0092 31.5838 54.6598C32.6694 55.3105 34.0769 54.9579 34.7276 53.8723Z" stroke="#A2CB94" stroke-width="2" stroke-miterlimit="10" stroke-linecap="round"/>
<path d="M42.1343 41.7531L50.6604 47.1717C51.1969 47.5127 51.8464 47.6283 52.4677 47.4934C53.089 47.3585 53.632 46.984 53.9788 46.4512L53.9792 46.4506C54.1546 46.1813 54.2744 45.8796 54.3316 45.5634C54.3889 45.2471 54.3824 44.9227 54.3126 44.609C54.2428 44.2952 54.1111 43.9986 53.9252 43.7365C53.7393 43.4744 53.5029 43.252 53.2299 43.0824L46.1761 38.204C44.8994 37.3211 43.3808 36.8545 41.8286 36.8684L36.4084 36.9166L33.3143 39.5022C32.8525 39.9649 32.2276 40.2283 31.5738 40.2357C30.9201 40.2432 30.2894 39.9942 29.8171 39.5421V39.5421C29.5756 39.311 29.383 39.0339 29.2506 38.727C29.1181 38.4202 29.0485 38.0899 29.046 37.7557C29.0434 37.4216 29.1079 37.0903 29.2356 36.7814C29.3633 36.4726 29.5516 36.1925 29.7894 35.9577L35.0829 31.4166" stroke="#A2CB94" stroke-width="2" stroke-miterlimit="10" stroke-linecap="round"/>
<path d="M20.417 43.3333L17.667 41.5H14.917" stroke="#A2CB94" stroke-width="2" stroke-miterlimit="10" stroke-linecap="round"/>
<path d="M52.6982 42.6257L54.3152 41.5L57.0652 41.4459" stroke="#A2CB94" stroke-width="2" stroke-miterlimit="10" stroke-linecap="round"/>
<path d="M31.417 24.0834H33.2503" stroke="#A2CB94" stroke-width="2" stroke-miterlimit="10"/>
<path d="M35.083 24.0834H36.9163" stroke="#A2CB94" stroke-width="2" stroke-miterlimit="10"/>
<path d="M38.75 24.0834H40.5833" stroke="#A2CB94" stroke-width="2" stroke-miterlimit="10"/>
<path d="M25.0003 16.75H14.917V31.4167H20.417V35.0833L25.0003 31.4167H44.2503V20.4167" stroke="#A2CB94" stroke-width="2" stroke-linecap="round" stroke-linejoin="round"/>
<path d="M47.9167 31.4167L51.5833 35.0833V31.4167H57.0833V16.75H27.75V27.75" stroke="#A2CB94" stroke-width="2" stroke-linecap="round" stroke-linejoin="round"/>
</g>
<defs>
<clipPath id="clip0_873_4348">
<rect width="44" height="44" fill="white" transform="translate(14 14)"/>
</clipPath>
</defs>
</svg>
