<svg width="72" height="72" viewBox="0 0 72 72" fill="none" xmlns="http://www.w3.org/2000/svg">
<rect width="72" height="72" rx="12" fill="#DDEFDD"/>
<g clip-path="url(#clip0_873_4371)">
<path d="M36.9163 17.6666V14.9166H24.083V17.6666" stroke="#A2CB94" stroke-width="2" stroke-miterlimit="10"/>
<path d="M38.7503 57.0833H14.917V16.75H24.0837V20.4167H36.917V16.75H46.0837V30.5" stroke="#A2CB94" stroke-width="2" stroke-miterlimit="10" stroke-linecap="round"/>
<path d="M39.7048 53.4166H18.583V20.4166H21.333" stroke="#A2CB94" stroke-width="2" stroke-miterlimit="10"/>
<path d="M42.417 30.5V20.4166H36.917" stroke="#A2CB94" stroke-width="2" stroke-miterlimit="10" stroke-linecap="round"/>
<path d="M26.833 49.75H21.333" stroke="#A2CB94" stroke-width="2" stroke-miterlimit="10"/>
<path d="M39.667 24.0834H34.167" stroke="#A2CB94" stroke-width="2" stroke-miterlimit="10"/>
<path d="M26.833 46.0834H21.333" stroke="#A2CB94" stroke-width="2" stroke-miterlimit="10"/>
<path d="M55.2503 58V53.4166H42.417V58" stroke="#A2CB94" stroke-width="2" stroke-miterlimit="10"/>
<path d="M35.083 37.8334L46.083 37.8334" stroke="#A2CB94" stroke-width="2" stroke-miterlimit="10" stroke-linecap="round"/>
<path d="M55.25 53.7791V37.8334" stroke="#A2CB94" stroke-width="2" stroke-miterlimit="10"/>
<path d="M44.1082 33.25C43.8429 33.25 43.5802 33.3035 43.336 33.4072C43.0917 33.511 42.8709 33.6628 42.6866 33.8538L39.667 37.8333" stroke="#A2CB94" stroke-width="2" stroke-miterlimit="10" stroke-linecap="round"/>
<path d="M45.1662 53.4166V51.6686L38.4271 41.436C37.9283 40.6024 37.6326 39.2877 38.4249 38.4635C38.6072 38.2648 38.8286 38.106 39.0752 37.997C39.3218 37.888 39.5883 37.8311 39.8579 37.83C40.1276 37.8288 40.3945 37.8834 40.6421 37.9904C40.8896 38.0973 41.1123 38.2543 41.2963 38.4514L44.4561 42.8699C44.5396 42.9802 44.6474 43.0698 44.7712 43.1317C44.8949 43.1936 45.0312 43.2262 45.1696 43.2269V43.2269C45.4166 43.2219 45.6516 43.1191 45.8229 42.9409C45.9941 42.7628 46.0876 42.5239 46.0829 42.2769V36.4197" stroke="#A2CB94" stroke-width="2" stroke-miterlimit="10" stroke-linecap="round"/>
<path d="M55.25 37.8333C55.25 36.6178 54.7671 35.452 53.9076 34.5924C53.048 33.7329 51.8822 33.25 50.6667 33.25H44.25" stroke="#A2CB94" stroke-width="2" stroke-miterlimit="10" stroke-linecap="round"/>
<path d="M37.8333 30.7228L28.6667 39.6667L25 36.2099" stroke="#A2CB94" stroke-width="2" stroke-miterlimit="10" stroke-linecap="round"/>
</g>
<defs>
<clipPath id="clip0_873_4371">
<rect width="44" height="44" fill="white" transform="translate(14 14)"/>
</clipPath>
</defs>
</svg>
