<svg width="72" height="72" viewBox="0 0 72 72" fill="none" xmlns="http://www.w3.org/2000/svg">
<rect width="72" height="72" rx="12" fill="#DDEFDD"/>
<g clip-path="url(#clip0_873_4391)">
<path d="M36.0003 48.8334C33.4337 48.8334 31.417 46.8167 31.417 44.25V42.4167C31.417 39.85 33.4337 37.8334 36.0003 37.8334C38.567 37.8334 40.5837 39.85 40.5837 42.4167V44.25C40.5837 46.8167 38.567 48.8334 36.0003 48.8334ZM36.0003 39.6667C34.442 39.6667 33.2503 40.8584 33.2503 42.4167V44.25C33.2503 45.8084 34.442 47 36.0003 47C37.5587 47 38.7503 45.8084 38.7503 44.25V42.4167C38.7503 40.8584 37.5587 39.6667 36.0003 39.6667Z" fill="#A2CB94"/>
<path d="M30.6832 51.7667C30.3165 51.7667 29.9499 51.4917 29.8582 51.125C29.6749 50.6667 29.9499 50.1167 30.4082 49.9333L33.2499 49.0167V47.9167C33.2499 47.3667 33.6165 47 34.1665 47C34.7165 47 35.0832 47.3667 35.0832 47.9167V50.3917L30.9582 51.7667C30.8665 51.7667 30.7749 51.7667 30.6832 51.7667Z" fill="#A2CB94"/>
<path d="M41.317 51.8583C41.2253 51.8583 41.1337 51.8583 41.042 51.7667L36.917 50.3917V47.9167C36.917 47.3667 37.2837 47 37.8337 47C38.3837 47 38.7503 47.3667 38.7503 47.9167V49.1083L41.6837 50.1167C42.142 50.3 42.417 50.7583 42.2337 51.3083C42.0503 51.5833 41.7753 51.8583 41.317 51.8583Z" fill="#A2CB94"/>
<path d="M25.0003 48.8334C22.4337 48.8334 20.417 46.8167 20.417 44.25V42.4167C20.417 39.85 22.4337 37.8334 25.0003 37.8334C27.567 37.8334 29.5837 39.85 29.5837 42.4167V44.25C29.5837 46.8167 27.567 48.8334 25.0003 48.8334ZM25.0003 39.6667C23.442 39.6667 22.2503 40.8584 22.2503 42.4167V44.25C22.2503 45.8084 23.442 47 25.0003 47C26.5587 47 27.7503 45.8084 27.7503 44.25V42.4167C27.7503 40.8584 26.5587 39.6667 25.0003 39.6667Z" fill="#A2CB94"/>
<path d="M15.8337 58C15.2837 58 14.917 57.6333 14.917 57.0833V54.8833C14.917 53.05 16.017 51.4 17.667 50.6667L22.2503 49.0167V47.9167C22.2503 47.3667 22.617 47 23.167 47C23.717 47 24.0837 47.3667 24.0837 47.9167V50.3917L18.4003 52.4083C17.4837 52.775 16.7503 53.7833 16.7503 54.8833V57.0833C16.7503 57.6333 16.3837 58 15.8337 58Z" fill="#A2CB94"/>
<path d="M34.167 58C33.617 58 33.2503 57.6333 33.2503 57.0833V54.8833C33.2503 53.7833 32.6087 52.775 31.6003 52.3167L25.917 50.3917V47.9167C25.917 47.3667 26.2837 47 26.8337 47C27.3837 47 27.7503 47.3667 27.7503 47.9167V49.1083L32.242 50.6667C33.9837 51.4 35.0837 53.05 35.0837 54.8833V57.0833C35.0837 57.6333 34.717 58 34.167 58Z" fill="#A2CB94"/>
<path d="M47.0003 48.8334C44.4337 48.8334 42.417 46.8167 42.417 44.25V42.4167C42.417 39.85 44.4337 37.8334 47.0003 37.8334C49.567 37.8334 51.5837 39.85 51.5837 42.4167V44.25C51.5837 46.8167 49.567 48.8334 47.0003 48.8334ZM47.0003 39.6667C45.442 39.6667 44.2503 40.8584 44.2503 42.4167V44.25C44.2503 45.8084 45.442 47 47.0003 47C48.5587 47 49.7503 45.8084 49.7503 44.25V42.4167C49.7503 40.8584 48.5587 39.6667 47.0003 39.6667Z" fill="#A2CB94"/>
<path d="M37.8337 58C37.2837 58 36.917 57.6333 36.917 57.0833V54.8833C36.917 53.05 38.017 51.4 39.667 50.6667L44.2503 49.0167V47.9167C44.2503 47.3667 44.617 47 45.167 47C45.717 47 46.0837 47.3667 46.0837 47.9167V50.3917L40.4003 52.4083C39.4837 52.775 38.7503 53.7833 38.7503 54.8833V57.0833C38.7503 57.6333 38.3837 58 37.8337 58Z" fill="#A2CB94"/>
<path d="M56.167 58C55.617 58 55.2503 57.6333 55.2503 57.0833V54.8833C55.2503 53.7833 54.6087 52.775 53.6003 52.3167L47.917 50.3917V47.9167C47.917 47.3667 48.2837 47 48.8337 47C49.3837 47 49.7503 47.3667 49.7503 47.9167V49.1083L54.242 50.6667C55.9837 51.4 57.0837 53.05 57.0837 54.8833V57.0833C57.0837 57.6333 56.717 58 56.167 58Z" fill="#A2CB94"/>
<path d="M17.6667 36C15.65 36 14 34.35 14 32.3333C14 30.3166 15.65 28.6666 17.6667 28.6666C19.6833 28.6666 21.3333 30.3166 21.3333 32.3333C21.3333 34.35 19.6833 36 17.6667 36ZM17.6667 30.5C16.6583 30.5 15.8333 31.325 15.8333 32.3333C15.8333 33.3416 16.6583 34.1666 17.6667 34.1666C18.675 34.1666 19.5 33.3416 19.5 32.3333C19.5 31.325 18.675 30.5 17.6667 30.5Z" fill="#A2CB94"/>
<path d="M54.3337 36C52.317 36 50.667 34.35 50.667 32.3333C50.667 30.3166 52.317 28.6666 54.3337 28.6666C56.3503 28.6666 58.0003 30.3166 58.0003 32.3333C58.0003 34.35 56.3503 36 54.3337 36ZM54.3337 30.5C53.3253 30.5 52.5003 31.325 52.5003 32.3333C52.5003 33.3416 53.3253 34.1666 54.3337 34.1666C55.342 34.1666 56.167 33.3416 56.167 32.3333C56.167 31.325 55.342 30.5 54.3337 30.5Z" fill="#A2CB94"/>
<path d="M45.1667 21.3333C43.15 21.3333 41.5 19.6833 41.5 17.6667C41.5 15.65 43.15 14 45.1667 14C47.1833 14 48.8333 15.65 48.8333 17.6667C48.8333 19.6833 47.1833 21.3333 45.1667 21.3333ZM45.1667 15.8333C44.1583 15.8333 43.3333 16.6583 43.3333 17.6667C43.3333 18.675 44.1583 19.5 45.1667 19.5C46.175 19.5 47 18.675 47 17.6667C47 16.6583 46.175 15.8333 45.1667 15.8333Z" fill="#A2CB94"/>
<path d="M26.8337 21.3333C24.817 21.3333 23.167 19.6833 23.167 17.6667C23.167 15.65 24.817 14 26.8337 14C28.8503 14 30.5003 15.65 30.5003 17.6667C30.5003 19.6833 28.8503 21.3333 26.8337 21.3333ZM26.8337 15.8333C25.8253 15.8333 25.0003 16.6583 25.0003 17.6667C25.0003 18.675 25.8253 19.5 26.8337 19.5C27.842 19.5 28.667 18.675 28.667 17.6667C28.667 16.6583 27.842 15.8333 26.8337 15.8333Z" fill="#A2CB94"/>
<path d="M35.9997 36C33.983 36 32.333 34.35 32.333 32.3333C32.333 30.3166 33.983 28.6666 35.9997 28.6666C38.0163 28.6666 39.6663 30.3166 39.6663 32.3333C39.6663 34.35 38.0163 36 35.9997 36ZM35.9997 30.5C34.9913 30.5 34.1663 31.325 34.1663 32.3333C34.1663 33.3416 34.9913 34.1666 35.9997 34.1666C37.008 34.1666 37.833 33.3416 37.833 32.3333C37.833 31.325 37.008 30.5 35.9997 30.5Z" fill="#A2CB94"/>
<path d="M30.5003 33.25H20.6003C20.0503 33.25 19.6836 32.8833 19.6836 32.3333C19.6836 31.7833 20.0503 31.4166 20.6003 31.4166H30.5003C31.0503 31.4166 31.4169 31.7833 31.4169 32.3333C31.4169 32.8833 31.0503 33.25 30.5003 33.25Z" fill="#A2CB94"/>
<path d="M48.833 33.25H38.7497C38.1997 33.25 37.833 32.8833 37.833 32.3333C37.833 31.7833 38.1997 31.4166 38.7497 31.4166H48.833C49.383 31.4166 49.7497 31.7833 49.7497 32.3333C49.7497 32.8833 49.383 33.25 48.833 33.25Z" fill="#A2CB94"/>
<path d="M19.3168 31.05C19.1335 31.05 19.0418 31.05 18.8585 30.9583C18.4002 30.6833 18.3085 30.1333 18.4918 29.675L22.8002 22.25C23.0752 21.7917 23.6252 21.7 24.0835 21.8833C24.5418 22.1583 24.6335 22.7083 24.4502 23.1667L20.1418 30.5917C19.9585 30.8667 19.5918 31.05 19.3168 31.05Z" fill="#A2CB94"/>
<path d="M37.8334 30.775C37.6501 30.775 37.5584 30.775 37.3751 30.6833C36.9168 30.4083 36.8251 29.8583 37.0084 29.4L41.4084 21.7916C41.6834 21.3333 42.2334 21.2416 42.6918 21.425C43.1501 21.7 43.2418 22.25 43.0585 22.7083L38.6584 30.3166C38.4751 30.5916 38.1084 30.775 37.8334 30.775Z" fill="#A2CB94"/>
<path d="M52.6833 30.9584C52.4083 30.9584 52.0417 30.775 51.8583 30.5L47.275 22.8C47 22.3417 47.1833 21.7917 47.55 21.5167C47.9167 21.2417 48.5583 21.425 48.8333 21.7917L53.4167 29.4917C53.6917 29.95 53.5083 30.5 53.1417 30.775C52.9583 30.8667 52.775 30.9584 52.6833 30.9584Z" fill="#A2CB94"/>
<path d="M32.7918 28.3917C32.5168 28.3917 32.1502 28.2084 31.9668 27.9334L27.6585 20.4167C27.3835 19.9584 27.5668 19.4084 28.0252 19.1334C28.4835 18.8584 29.0335 19.0417 29.3085 19.5L33.7085 27.0167C33.9835 27.475 33.8002 28.025 33.3418 28.3C33.1585 28.3917 32.9752 28.3917 32.7918 28.3917Z" fill="#A2CB94"/>
<path d="M39.667 18.5833H29.5837C29.0337 18.5833 28.667 18.2167 28.667 17.6667C28.667 17.1167 29.0337 16.75 29.5837 16.75H39.667C40.217 16.75 40.5837 17.1167 40.5837 17.6667C40.5837 18.2167 40.217 18.5833 39.667 18.5833Z" fill="#A2CB94"/>
<path d="M21.0583 38.5667C20.7833 38.5667 20.4167 38.3833 20.2333 38.1083L18.4 35.175C18.125 34.7167 18.3083 34.1667 18.675 33.8917C19.1333 33.6167 19.6833 33.8 19.9583 34.1667L21.7917 37.1C22.0667 37.5584 21.8833 38.1084 21.5167 38.3834C21.425 38.5667 21.2417 38.5667 21.0583 38.5667Z" fill="#A2CB94"/>
<path d="M51.0335 38.2916C50.8502 38.2916 50.6669 38.2916 50.5752 38.1083C50.1169 37.8333 50.0252 37.2833 50.3002 36.825L51.9502 34.1666C52.2252 33.7083 52.7752 33.6166 53.2335 33.8916C53.6919 34.1666 53.7835 34.7166 53.5085 35.175L51.8585 37.8333C51.6752 38.2 51.3085 38.2916 51.0335 38.2916Z" fill="#A2CB94"/>
</g>
<defs>
<clipPath id="clip0_873_4391">
<rect width="44" height="44" fill="white" transform="translate(14 14)"/>
</clipPath>
</defs>
</svg>
