<svg width="72" height="72" viewBox="0 0 72 72" fill="none" xmlns="http://www.w3.org/2000/svg">
<rect width="72" height="72" rx="12" fill="#DDEFDD"/>
<g clip-path="url(#clip0_873_4447)">
<path d="M54.1492 43.15C54.0575 43.15 53.8742 43.15 53.7825 43.0583C53.3242 42.875 53.1408 42.325 53.3242 41.8666C55.1575 38.1083 56.1658 33.8916 56.1658 29.675C56.1658 29.125 56.5325 28.7583 57.0825 28.7583C57.6325 28.7583 57.9992 29.125 57.9992 29.675C57.9992 34.1666 56.9908 38.6583 54.9742 42.6916C54.7908 42.9666 54.4242 43.15 54.1492 43.15Z" fill="#A2CB94"/>
<path d="M57.0833 30.5C56.5333 30.5 56.1667 30.1333 56.1667 29.5833V23.1666C56.1667 22.6166 55.8 22.25 55.25 22.25C54.7 22.25 54.3333 22.6166 54.3333 23.1666V25.9166C54.3333 26.4666 53.9667 26.8333 53.4167 26.8333C52.8667 26.8333 52.5 26.4666 52.5 25.9166V23.1666C52.5 21.6083 53.6917 20.4166 55.25 20.4166C56.8083 20.4166 58 21.6083 58 23.1666V29.5833C58 30.1333 57.6333 30.5 57.0833 30.5Z" fill="#A2CB94"/>
<path d="M53.4163 26.8334C52.8663 26.8334 52.4997 26.4667 52.4997 25.9167V18.5834C52.4997 18.0334 52.133 17.6667 51.583 17.6667C51.033 17.6667 50.6663 18.0334 50.6663 18.5834V25.9167C50.6663 26.4667 50.2997 26.8334 49.7497 26.8334C49.1997 26.8334 48.833 26.4667 48.833 25.9167V18.5834C48.833 17.025 50.0247 15.8334 51.583 15.8334C53.1413 15.8334 54.333 17.025 54.333 18.5834V25.9167C54.333 26.4667 53.9663 26.8334 53.4163 26.8334Z" fill="#A2CB94"/>
<path d="M49.7493 26.8333C49.1993 26.8333 48.8327 26.4667 48.8327 25.9167V16.75C48.8327 16.2 48.466 15.8333 47.916 15.8333C47.366 15.8333 46.9993 16.2 46.9993 16.75V25.9167C46.9993 26.4667 46.6327 26.8333 46.0827 26.8333C45.5327 26.8333 45.166 26.4667 45.166 25.9167V16.75C45.166 15.1917 46.3577 14 47.916 14C49.4743 14 50.666 15.1917 50.666 16.75V25.9167C50.666 26.4667 50.2993 26.8333 49.7493 26.8333Z" fill="#A2CB94"/>
<path d="M46.0833 26.8334C45.5333 26.8334 45.1667 26.4667 45.1667 25.9167V18.5834C45.1667 18.0334 44.8 17.6667 44.25 17.6667C43.7 17.6667 43.3333 18.0334 43.3333 18.5834V25.9167C43.3333 26.4667 42.9667 26.8334 42.4167 26.8334C41.8667 26.8334 41.5 26.4667 41.5 25.9167V18.5834C41.5 17.025 42.6917 15.8334 44.25 15.8334C45.8083 15.8334 47 17.025 47 18.5834V25.9167C47 26.4667 46.6333 26.8334 46.0833 26.8334Z" fill="#A2CB94"/>
<path d="M43.9745 39.3916C43.6995 39.3916 43.4245 39.3 43.2412 39.1166L39.2995 34.5333C38.2912 33.3416 37.7412 31.875 37.7412 30.3166V25.9166C37.7412 24.3583 38.9329 23.1666 40.4912 23.1666C42.0495 23.1666 43.2412 24.3583 43.2412 25.9166V29.5833C43.2412 30.1333 42.8745 30.5 42.3245 30.5C41.7745 30.5 41.4079 30.1333 41.4079 29.5833V25.9166C41.4079 25.3666 41.0412 25 40.4912 25C39.9412 25 39.5745 25.3666 39.5745 25.9166V30.3166C39.5745 31.4166 39.9412 32.425 40.6745 33.3416L44.6162 37.925C44.9829 38.2916 44.8912 38.8416 44.5245 39.2083C44.4329 39.3 44.1579 39.3916 43.9745 39.3916Z" fill="#A2CB94"/>
<path d="M14.9167 43.2417C14.3667 43.2417 14 42.875 14 42.325C14 37.8334 15.1 33.25 17.025 29.2167C17.2083 28.7584 17.7583 28.575 18.2167 28.7584C18.675 28.9417 18.8583 29.4917 18.675 29.95C16.8417 33.8917 15.8333 38.1084 15.8333 42.325C15.8333 42.7834 15.4667 43.2417 14.9167 43.2417Z" fill="#A2CB94"/>
<path d="M16.75 51.4917C15.1917 51.4917 14 50.3 14 48.7417V42.325C14 41.775 14.3667 41.4083 14.9167 41.4083C15.4667 41.4083 15.8333 41.775 15.8333 42.325V48.7417C15.8333 49.2917 16.2 49.6583 16.75 49.6583C17.3 49.6583 17.6667 49.2917 17.6667 48.7417V45.9917C17.6667 45.4417 18.0333 45.075 18.5833 45.075C19.1333 45.075 19.5 45.4417 19.5 45.9917V48.7417C19.5 50.2083 18.3083 51.4917 16.75 51.4917Z" fill="#A2CB94"/>
<path d="M20.417 56.0751C18.8587 56.0751 17.667 54.8834 17.667 53.3251V45.9917C17.667 45.4417 18.0337 45.0751 18.5837 45.0751C19.1337 45.0751 19.5003 45.4417 19.5003 45.9917V53.3251C19.5003 53.8751 19.867 54.2417 20.417 54.2417C20.967 54.2417 21.3337 53.8751 21.3337 53.3251V45.9917C21.3337 45.4417 21.7003 45.0751 22.2503 45.0751C22.8003 45.0751 23.167 45.4417 23.167 45.9917V53.3251C23.167 54.7917 21.9753 56.0751 20.417 56.0751Z" fill="#A2CB94"/>
<path d="M24.083 57.9084C22.5247 57.9084 21.333 56.7167 21.333 55.1584V45.9917C21.333 45.4417 21.6997 45.0751 22.2497 45.0751C22.7997 45.0751 23.1663 45.4417 23.1663 45.9917V55.1584C23.1663 55.7084 23.533 56.0751 24.083 56.0751C24.633 56.0751 24.9997 55.7084 24.9997 55.1584V45.9917C24.9997 45.4417 25.3663 45.0751 25.9163 45.0751C26.4663 45.0751 26.833 45.4417 26.833 45.9917V55.1584C26.833 56.6251 25.6413 57.9084 24.083 57.9084Z" fill="#A2CB94"/>
<path d="M27.75 56.0751C26.1917 56.0751 25 54.8834 25 53.3251V45.9917C25 45.4417 25.3667 45.0751 25.9167 45.0751C26.4667 45.0751 26.8333 45.4417 26.8333 45.9917V53.3251C26.8333 53.8751 27.2 54.2417 27.75 54.2417C28.3 54.2417 28.6667 53.8751 28.6667 53.3251V45.9917C28.6667 45.4417 29.0333 45.0751 29.5833 45.0751C30.1333 45.0751 30.5 45.4417 30.5 45.9917V53.3251C30.5 54.7917 29.3083 56.0751 27.75 56.0751Z" fill="#A2CB94"/>
<path d="M31.417 48.7416C29.8587 48.7416 28.667 47.55 28.667 45.9916V42.325C28.667 41.775 29.0337 41.4083 29.5837 41.4083C30.1337 41.4083 30.5003 41.775 30.5003 42.325V45.9916C30.5003 46.5416 30.867 46.9083 31.417 46.9083C31.967 46.9083 32.3337 46.5416 32.3337 45.9916V41.5916C32.3337 40.4916 31.967 39.4833 31.2337 38.5666L27.292 33.9833C26.9253 33.6166 27.017 32.975 27.3837 32.7C27.7503 32.3333 28.392 32.425 28.667 32.7916L32.6087 37.375C33.617 38.5666 34.167 40.0333 34.167 41.5916V45.9916C34.167 47.4583 32.9753 48.7416 31.417 48.7416Z" fill="#A2CB94"/>
<path d="M42.4171 18.8583C42.2338 18.8583 42.1421 18.8583 42.0505 18.7667C38.2005 16.8417 33.8921 15.8333 29.6755 15.8333C29.1255 15.8333 28.7588 15.4667 28.7588 14.9167C28.7588 14.3667 29.1255 14 29.6755 14C34.1671 14 38.7505 15.1 42.7838 17.1167C43.2421 17.3 43.4255 17.85 43.1505 18.3083C43.0588 18.675 42.6921 18.8583 42.4171 18.8583Z" fill="#A2CB94"/>
<path d="M26.0088 19.5H23.2588C21.7005 19.5 20.5088 18.3083 20.5088 16.75C20.5088 15.1917 21.7005 14 23.2588 14H29.6755C30.2255 14 30.5921 14.3667 30.5921 14.9167C30.5921 15.4667 30.2255 15.8333 29.6755 15.8333H23.2588C22.7088 15.8333 22.3421 16.2 22.3421 16.75C22.3421 17.3 22.7088 17.6667 23.2588 17.6667H26.0088C26.5588 17.6667 26.9255 18.0333 26.9255 18.5833C26.9255 19.1333 26.4671 19.5 26.0088 19.5Z" fill="#A2CB94"/>
<path d="M26.0081 23.1666H18.6748C17.1165 23.1666 15.9248 21.975 15.9248 20.4166C15.9248 18.8583 17.1165 17.6666 18.6748 17.6666H26.0081C26.5581 17.6666 26.9248 18.0333 26.9248 18.5833C26.9248 19.1333 26.5581 19.5 26.0081 19.5H18.6748C18.1248 19.5 17.7581 19.8666 17.7581 20.4166C17.7581 20.9666 18.1248 21.3333 18.6748 21.3333H26.0081C26.5581 21.3333 26.9248 21.7 26.9248 22.25C26.9248 22.8 26.4665 23.1666 26.0081 23.1666Z" fill="#A2CB94"/>
<path d="M26.0085 26.8334H16.8418C15.2835 26.8334 14.0918 25.6417 14.0918 24.0834C14.0918 22.525 15.2835 21.3334 16.8418 21.3334H26.0085C26.5585 21.3334 26.9251 21.7 26.9251 22.25C26.9251 22.8 26.5585 23.1667 26.0085 23.1667H16.8418C16.2918 23.1667 15.9251 23.5334 15.9251 24.0834C15.9251 24.6334 16.2918 25 16.8418 25H26.0085C26.5585 25 26.9251 25.3667 26.9251 25.9167C26.9251 26.4667 26.4668 26.8334 26.0085 26.8334Z" fill="#A2CB94"/>
<path d="M26.0081 30.5H18.6748C17.1165 30.5 15.9248 29.3083 15.9248 27.75C15.9248 26.1917 17.1165 25 18.6748 25H26.0081C26.5581 25 26.9248 25.3667 26.9248 25.9167C26.9248 26.4667 26.5581 26.8333 26.0081 26.8333H18.6748C18.1248 26.8333 17.7581 27.2 17.7581 27.75C17.7581 28.3 18.1248 28.6667 18.6748 28.6667H26.0081C26.5581 28.6667 26.9248 29.0333 26.9248 29.5833C26.9248 30.1333 26.4665 30.5 26.0081 30.5Z" fill="#A2CB94"/>
<path d="M30.317 34.1666H25.917C24.3587 34.1666 23.167 32.975 23.167 31.4166C23.167 29.8583 24.3587 28.6666 25.917 28.6666H29.5837C30.1337 28.6666 30.5003 29.0333 30.5003 29.5833C30.5003 30.1333 30.1337 30.5 29.5837 30.5H25.917C25.367 30.5 25.0003 30.8666 25.0003 31.4166C25.0003 31.9666 25.367 32.3333 25.917 32.3333H30.317C31.417 32.3333 32.4253 31.9666 33.342 31.2333L37.9253 27.2916C38.292 26.925 38.9337 27.0166 39.2087 27.3833C39.5753 27.75 39.4837 28.3916 39.117 28.6666L34.5337 32.6083C33.342 33.6166 31.8753 34.1666 30.317 34.1666Z" fill="#A2CB94"/>
<path d="M42.3246 58C37.7413 58 33.158 56.9 29.033 54.7917C28.5747 54.6083 28.3913 53.9667 28.6663 53.6C28.8497 53.1417 29.4913 52.9583 29.858 53.2333C33.708 55.1583 38.0163 56.1667 42.3246 56.1667C42.8746 56.1667 43.2413 56.5333 43.2413 57.0833C43.2413 57.5417 42.8746 58 42.3246 58Z" fill="#A2CB94"/>
<path d="M48.8333 58H42.4167C41.8667 58 41.5 57.6333 41.5 57.0833C41.5 56.5333 41.8667 56.1667 42.4167 56.1667H48.8333C49.3833 56.1667 49.75 55.8 49.75 55.25C49.75 54.7 49.3833 54.3333 48.8333 54.3333H46.0833C45.5333 54.3333 45.1667 53.9667 45.1667 53.4167C45.1667 52.8667 45.5333 52.5 46.0833 52.5H48.8333C50.3917 52.5 51.5833 53.6917 51.5833 55.25C51.5833 56.8083 50.3 58 48.8333 58Z" fill="#A2CB94"/>
<path d="M53.416 54.3334H46.0827C45.5327 54.3334 45.166 53.9667 45.166 53.4167C45.166 52.8667 45.5327 52.5 46.0827 52.5H53.416C53.966 52.5 54.3327 52.1334 54.3327 51.5834C54.3327 51.0334 53.966 50.6667 53.416 50.6667H46.0827C45.5327 50.6667 45.166 50.3 45.166 49.75C45.166 49.2 45.5327 48.8334 46.0827 48.8334H53.416C54.9743 48.8334 56.166 50.025 56.166 51.5834C56.166 53.1417 54.8827 54.3334 53.416 54.3334Z" fill="#A2CB94"/>
<path d="M55.2494 50.6667H46.0827C45.5327 50.6667 45.166 50.3001 45.166 49.7501C45.166 49.2001 45.5327 48.8334 46.0827 48.8334H55.2494C55.7994 48.8334 56.166 48.4667 56.166 47.9167C56.166 47.3667 55.7994 47.0001 55.2494 47.0001H46.0827C45.5327 47.0001 45.166 46.6334 45.166 46.0834C45.166 45.5334 45.5327 45.1667 46.0827 45.1667H55.2494C56.8077 45.1667 57.9994 46.3584 57.9994 47.9167C57.9994 49.4751 56.716 50.6667 55.2494 50.6667Z" fill="#A2CB94"/>
<path d="M53.416 47H46.0827C45.5327 47 45.166 46.6333 45.166 46.0833C45.166 45.5333 45.5327 45.1667 46.0827 45.1667H53.416C53.966 45.1667 54.3327 44.8 54.3327 44.25C54.3327 43.7 53.966 43.3333 53.416 43.3333H46.0827C45.5327 43.3333 45.166 42.9667 45.166 42.4167C45.166 41.8667 45.5327 41.5 46.0827 41.5H53.416C54.9743 41.5 56.166 42.6917 56.166 44.25C56.166 45.8083 54.8827 47 53.416 47Z" fill="#A2CB94"/>
<path d="M33.5244 44.8917C33.2494 44.8917 32.9744 44.8 32.791 44.6167C32.4244 44.25 32.516 43.7 32.8827 43.3334L37.466 39.3917C38.6577 38.3834 40.1244 37.8334 41.6827 37.8334H46.0827C47.641 37.8334 48.8327 39.025 48.8327 40.5834C48.8327 42.1417 47.641 43.3334 46.0827 43.3334H42.416C41.866 43.3334 41.4994 42.9667 41.4994 42.4167C41.4994 41.8667 41.866 41.5 42.416 41.5H46.0827C46.6327 41.5 46.9994 41.1334 46.9994 40.5834C46.9994 40.0334 46.6327 39.6667 46.0827 39.6667H41.6827C40.5827 39.6667 39.5744 40.0334 38.6577 40.7667L34.0744 44.7084C33.891 44.8917 33.7077 44.8917 33.5244 44.8917Z" fill="#A2CB94"/>
</g>
<defs>
<clipPath id="clip0_873_4447">
<rect width="44" height="44" fill="white" transform="translate(14 14)"/>
</clipPath>
</defs>
</svg>
