<svg width="24" height="24" viewBox="0 0 24 24" fill="none" xmlns="http://www.w3.org/2000/svg">
<path d="M22.2857 -0.283203H1.70893C0.766071 -0.283203 0 0.494753 0 1.44976V22.02C0 22.975 0.766071 23.7529 1.70893 23.7529H22.2857C23.2286 23.7529 24 22.975 24 22.02V1.44976C24 0.494753 23.2286 -0.283203 22.2857 -0.283203ZM7.25357 20.3192H3.69643V8.84839H7.25893V20.3192H7.25357ZM5.475 7.28174C4.33393 7.28174 3.4125 6.35356 3.4125 5.21614C3.4125 4.07871 4.33393 3.15053 5.475 3.15053C6.61071 3.15053 7.5375 4.07871 7.5375 5.21614C7.5375 6.35893 6.61607 7.28174 5.475 7.28174ZM20.5875 20.3192H17.0304V14.7394C17.0304 13.4088 17.0036 11.6973 15.1821 11.6973C13.3286 11.6973 13.0446 13.1459 13.0446 14.6428V20.3192H9.4875V8.84839H12.9V10.415H12.9482C13.425 9.51367 14.5875 8.56403 16.3179 8.56403C19.9179 8.56403 20.5875 10.9408 20.5875 14.0312V20.3192Z" fill="#F7F7F9"/>
</svg>
