<svg width="72" height="72" viewBox="0 0 72 72" fill="none" xmlns="http://www.w3.org/2000/svg">
<rect width="72" height="72" rx="12" fill="#DDEFDD"/>
<path d="M57.75 33.75H51.75V28.5C51.75 28.0852 51.414 27.75 51 27.75H45.915L36.75 23.52V20.25H42.75C43.164 20.25 43.5 19.9148 43.5 19.5V14.25C43.5 13.8353 43.164 13.5 42.75 13.5H29.25C28.836 13.5 28.5 13.8353 28.5 14.25V19.5C28.5 19.9148 28.836 20.25 29.25 20.25H35.25V23.52L26.085 27.75H21C20.586 27.75 20.25 28.0852 20.25 28.5V33.75H14.25C13.836 33.75 13.5 34.0853 13.5 34.5V39.75C13.5 40.1647 13.836 40.5 14.25 40.5H20.25V46.5C20.25 46.9147 20.586 47.25 21 47.25H35.25V51.75H29.25C28.836 51.75 28.5 52.0853 28.5 52.5V57.75C28.5 58.1647 28.836 58.5 29.25 58.5H42.75C43.164 58.5 43.5 58.1647 43.5 57.75V52.5C43.5 52.0853 43.164 51.75 42.75 51.75H36.75V47.25H51C51.414 47.25 51.75 46.9147 51.75 46.5V40.5H57.75C58.164 40.5 58.5 40.1647 58.5 39.75V34.5C58.5 34.0853 58.164 33.75 57.75 33.75ZM30 15H42V18.75H30V15ZM42 57H30V53.25H42V57ZM36 24.8265L43.9605 28.5L36 32.1735L28.0395 28.5L36 24.8265ZM15 35.25H27V39H15V35.25ZM50.25 45.75H21.75V40.5H27.75C28.164 40.5 28.5 40.1647 28.5 39.75V34.5C28.5 34.0853 28.164 33.75 27.75 33.75H21.75V29.25H26.085L35.6857 33.681C35.7855 33.7275 35.8927 33.75 36 33.75C36.1073 33.75 36.2145 33.7275 36.3142 33.681L45.915 29.25H50.25V33.75H44.25C43.836 33.75 43.5 34.0853 43.5 34.5V39.75C43.5 40.1647 43.836 40.5 44.25 40.5H50.25V45.75ZM57 39H45V35.25H57V39Z" fill="#A2CB94"/>
</svg>
