<svg width="72" height="72" viewBox="0 0 72 72" fill="none" xmlns="http://www.w3.org/2000/svg">
<rect width="72" height="72" rx="12" fill="#DDEFDD"/>
<g clip-path="url(#clip0_3726_9701)">
<path d="M15.75 50.25H37.5V48.75H15.75C14.5095 48.75 13.5 47.7405 13.5 46.5V25.5C13.5 24.2595 14.5095 23.25 15.75 23.25H50.25V21.75H15.75C13.6823 21.75 12 23.4323 12 25.5V46.5C12 48.5677 13.6823 50.25 15.75 50.25Z" fill="#A2CB94"/>
<path d="M56.25 21.7502H54.507L55.4265 19.8235L54.0728 19.1777L38.3228 52.1777L39.6765 52.8235L40.905 50.2502H56.25C58.3178 50.2502 60 48.568 60 46.5002V25.5002C60 23.4325 58.3178 21.7502 56.25 21.7502ZM52.359 26.2502H53.3445C53.6168 27.3025 54.447 28.1335 55.5 28.405V43.5955C54.447 43.867 53.6168 44.698 53.3445 45.7502H43.0523L52.359 26.2502ZM58.5 46.5002C58.5 47.7407 57.4905 48.7502 56.25 48.7502H41.6205L42.3368 47.2502H54C54.414 47.2502 54.75 46.915 54.75 46.5002C54.75 45.673 55.4228 45.0002 56.25 45.0002C56.664 45.0002 57 44.665 57 44.2502V27.7502C57 27.3355 56.664 27.0002 56.25 27.0002C55.4228 27.0002 54.75 26.3275 54.75 25.5002C54.75 25.0855 54.414 24.7502 54 24.7502H53.0753L53.7915 23.2502H56.25C57.4905 23.2502 58.5 24.2597 58.5 25.5002V46.5002Z" fill="#A2CB94"/>
<path d="M48.75 24.75H18C17.586 24.75 17.25 25.0853 17.25 25.5C17.25 26.3273 16.5773 27 15.75 27C15.336 27 15 27.3352 15 27.75V44.25C15 44.6647 15.336 45 15.75 45C16.5773 45 17.25 45.6728 17.25 46.5C17.25 46.9147 17.586 47.25 18 47.25H39V45.75H18.6555C18.3832 44.6978 17.553 43.8667 16.5 43.5952V28.4047C17.553 28.1332 18.3832 27.3022 18.6555 26.25H48.75V24.75Z" fill="#A2CB94"/>
<path d="M27.75 36C27.75 40.5487 31.4513 44.25 36 44.25C40.5487 44.25 44.25 40.5487 44.25 36C44.25 31.4513 40.5487 27.75 36 27.75C31.4513 27.75 27.75 31.4513 27.75 36ZM29.25 36C29.25 32.5312 31.8802 29.6685 35.25 29.2943V30.75C33.5955 30.75 32.25 32.0955 32.25 33.75C32.25 35.4045 33.5955 36.75 35.25 36.75H36.75C37.5773 36.75 38.25 37.4227 38.25 38.25C38.25 39.0773 37.5773 39.75 36.75 39.75H35.25C34.4227 39.75 33.75 39.0773 33.75 38.25H32.25C32.25 39.9045 33.5955 41.25 35.25 41.25V42.7058C31.8802 42.3315 29.25 39.4688 29.25 36ZM42.75 36C42.75 39.4688 40.1198 42.3315 36.75 42.7058V41.25C38.4045 41.25 39.75 39.9045 39.75 38.25C39.75 36.5955 38.4045 35.25 36.75 35.25H35.25C34.4227 35.25 33.75 34.5773 33.75 33.75C33.75 32.9227 34.4227 32.25 35.25 32.25H36.75C37.5773 32.25 38.25 32.9227 38.25 33.75H39.75C39.75 32.0955 38.4045 30.75 36.75 30.75V29.2943C40.1198 29.6685 42.75 32.5312 42.75 36Z" fill="#A2CB94"/>
<path d="M32.4316 13.0225C31.9178 13.102 31.3966 13.201 30.8828 13.3165L31.2113 14.7797C31.6928 14.6717 32.1803 14.5795 32.6618 14.5052L32.4316 13.0225Z" fill="#A2CB94"/>
<path d="M40.2764 13.1431L40.0034 14.6183C40.4774 14.7061 40.9612 14.8133 41.4419 14.9371L41.8154 13.4836C41.3017 13.3523 40.7842 13.2376 40.2764 13.1431Z" fill="#A2CB94"/>
<path d="M37.1492 12.7778L37.0757 14.2763C37.5684 14.3003 38.0627 14.3408 38.5457 14.3971L38.7189 12.9076C38.2037 12.8476 37.6749 12.8033 37.1492 12.7778Z" fill="#A2CB94"/>
<path d="M43.3285 13.9292L42.8545 15.3527C43.324 15.5087 43.789 15.6812 44.2367 15.8649L44.8067 14.4774C44.3275 14.2809 43.8295 14.0964 43.3285 13.9292Z" fill="#A2CB94"/>
<path d="M29.3556 13.7144C28.8501 13.8644 28.3461 14.0339 27.8594 14.2161L28.3859 15.6209C28.8404 15.4499 29.3106 15.2924 29.7831 15.1514L29.3556 13.7144Z" fill="#A2CB94"/>
<path d="M46.2428 15.1255L45.5806 16.4717C46.0171 16.6862 46.4543 16.9202 46.8811 17.167L47.6326 15.8695C47.1766 15.6055 46.7093 15.355 46.2428 15.1255Z" fill="#A2CB94"/>
<path d="M35.5723 12.7539C35.0488 12.7637 34.5193 12.7914 33.998 12.8349L34.124 14.3289C34.613 14.2877 35.1095 14.2622 35.6 14.2532L35.5723 12.7539Z" fill="#A2CB94"/>
<path d="M48.9691 16.7031L48.1313 17.9481C48.5333 18.2181 48.9353 18.5099 49.3253 18.8121L50.2463 17.6286C49.8286 17.3039 49.3988 16.9926 48.9691 16.7031Z" fill="#A2CB94"/>
<path d="M23.6273 16.3164C23.1818 16.5969 22.743 16.8947 22.3223 17.2022L23.2065 18.4134C23.5995 18.1262 24.0105 17.8479 24.4268 17.5854L23.6273 16.3164Z" fill="#A2CB94"/>
<path d="M21.081 18.1719C20.679 18.5086 20.2845 18.8626 19.9072 19.2241L20.946 20.3064C21.2985 19.9681 21.6682 19.6359 22.044 19.3216L21.081 18.1719Z" fill="#A2CB94"/>
<path d="M26.4023 14.8198C25.926 15.0358 25.4505 15.2721 24.9893 15.5211L25.701 16.8411C26.1323 16.6086 26.577 16.3881 27.0225 16.1856L26.4023 14.8198Z" fill="#A2CB94"/>
<path d="M51.4575 18.6377L50.4585 19.7567C50.8282 20.0859 51.1875 20.4287 51.5272 20.7752L52.5982 19.7252C52.2352 19.3554 51.8512 18.9894 51.4575 18.6377Z" fill="#A2CB94"/>
<path d="M36.4272 59.2464C36.9507 59.2366 37.4802 59.2089 38.0014 59.1654L37.8754 57.6714C37.3864 57.7126 36.8899 57.7381 36.3994 57.7471L36.4272 59.2464Z" fill="#A2CB94"/>
<path d="M51.0541 51.6929C50.7016 52.0311 50.3318 52.3634 49.9561 52.6776L50.9191 53.8274C51.3211 53.4906 51.7156 53.1366 52.0928 52.7751L51.0541 51.6929Z" fill="#A2CB94"/>
<path d="M43.614 56.3789C43.1595 56.5499 42.6893 56.7074 42.2168 56.8484L42.6443 58.2854C43.1498 58.1354 43.6538 57.9659 44.1405 57.7837L43.614 56.3789Z" fill="#A2CB94"/>
<path d="M46.299 55.1597C45.8678 55.3922 45.423 55.6127 44.9775 55.8152L45.5978 57.1802C46.074 56.9642 46.5495 56.7279 47.0108 56.4789L46.299 55.1597Z" fill="#A2CB94"/>
<path d="M40.7894 57.2207C40.3079 57.3287 39.8204 57.421 39.3389 57.4952L39.5691 58.978C40.0829 58.8985 40.6041 58.7995 41.1179 58.684L40.7894 57.2207Z" fill="#A2CB94"/>
<path d="M48.7935 53.5869C48.4005 53.8742 47.9895 54.1524 47.5732 54.4149L48.3727 55.6832C48.8182 55.4027 49.257 55.1049 49.6777 54.7974L48.7935 53.5869Z" fill="#A2CB94"/>
<path d="M25.7569 56.8745L26.4192 55.5283C25.9827 55.3138 25.5454 55.0798 25.1187 54.833L24.3672 56.1305C24.8232 56.3945 25.2904 56.645 25.7569 56.8745Z" fill="#A2CB94"/>
<path d="M28.6716 58.071L29.1456 56.6475C28.6761 56.4915 28.2111 56.319 27.7634 56.1353L27.1934 57.5228C27.6726 57.7193 28.1706 57.9038 28.6716 58.071Z" fill="#A2CB94"/>
<path d="M31.7236 58.857L31.9966 57.3817C31.5226 57.294 31.0388 57.1867 30.5581 57.063L30.1846 58.5165C30.6983 58.6477 31.2158 58.7625 31.7236 58.857Z" fill="#A2CB94"/>
<path d="M34.851 59.2223L34.9245 57.7238C34.4317 57.6998 33.9375 57.6593 33.4545 57.603L33.2812 59.0925C33.7965 59.1525 34.3253 59.1968 34.851 59.2223Z" fill="#A2CB94"/>
<path d="M23.0312 55.297L23.8689 54.052C23.4669 53.782 23.0649 53.4902 22.6749 53.188L21.7539 54.3715C22.1717 54.6962 22.6014 55.0075 23.0312 55.297Z" fill="#A2CB94"/>
<path d="M20.5423 53.3626L21.5413 52.2436C21.1716 51.9143 20.8123 51.5716 20.4726 51.2251L19.4023 52.2751C19.7646 52.6449 20.1486 53.0109 20.5423 53.3626Z" fill="#A2CB94"/>
</g>
<defs>
<clipPath id="clip0_3726_9701">
<rect width="48" height="48" fill="white" transform="translate(12 12)"/>
</clipPath>
</defs>
</svg>
