<svg width="72" height="72" viewBox="0 0 72 72" fill="none" xmlns="http://www.w3.org/2000/svg">
<rect width="72" height="72" rx="12" fill="#DDEFDD"/>
<g clip-path="url(#clip0_3726_9735)">
<path d="M35.25 25.5C38.9723 25.5 42 22.4715 42 18.75C42 15.0285 38.9723 12 35.25 12C31.5278 12 28.5 15.0285 28.5 18.75C28.5 22.4715 31.5278 25.5 35.25 25.5ZM35.25 13.5C38.1443 13.5 40.5 15.855 40.5 18.75C40.5 21.645 38.1443 24 35.25 24C32.3558 24 30 21.645 30 18.75C30 15.855 32.3558 13.5 35.25 13.5Z" fill="#A2CB94"/>
<path d="M26.8974 50.6285C27.0324 50.3982 27.0346 50.114 26.9034 49.8822L20.1534 37.8822C19.8879 37.4097 19.1116 37.4097 18.8469 37.8822L12.0969 49.8822C11.9656 50.1147 11.9679 50.3982 12.1029 50.6285C12.2379 50.8587 12.4839 50.9997 12.7501 50.9997H26.2501C26.5171 50.9997 26.7631 50.8587 26.8974 50.6285ZM14.0326 49.4997L19.5001 39.7797L24.9676 49.4997H14.0326Z" fill="#A2CB94"/>
<path d="M59.25 38.25C59.25 37.836 58.914 37.5 58.5 37.5H46.5C46.086 37.5 45.75 37.836 45.75 38.25V50.25C45.75 50.664 46.086 51 46.5 51H58.5C58.914 51 59.25 50.664 59.25 50.25V38.25ZM57.75 49.5H47.25V39H57.75V49.5Z" fill="#A2CB94"/>
<path d="M35.2498 54.7498C31.7675 54.7498 28.3903 53.7538 25.481 51.8705L24.665 53.1298C27.818 55.1713 31.478 56.2498 35.2498 56.2498C39.1648 56.2498 42.941 55.094 46.1705 52.907L45.3298 51.665C42.3493 53.6833 38.864 54.7498 35.2498 54.7498Z" fill="#A2CB94"/>
<path d="M53.2372 36.0296L54.7357 35.9711C54.4544 28.8101 50.2754 22.3976 43.8307 19.2349L43.1699 20.5819C49.1189 23.5009 52.9769 29.4206 53.2372 36.0296Z" fill="#A2CB94"/>
<path d="M17.307 38.1911C17.2695 37.7179 17.25 37.2334 17.25 36.7504C17.25 29.8286 21.1125 23.6329 27.33 20.5819L26.67 19.2349C19.9342 22.5409 15.75 29.2519 15.75 36.7504C15.75 37.2731 15.7702 37.7974 15.8115 38.3104L17.307 38.1911Z" fill="#A2CB94"/>
<path d="M24.2197 17.4697L25.2803 18.5302L27.5303 16.2802C27.8235 15.987 27.8235 15.513 27.5303 15.2197L25.2803 12.9697L24.2197 14.0302L25.1895 15H20.25V16.5H25.1895L24.2197 17.4697Z" fill="#A2CB94"/>
<path d="M56.25 29.25C56.442 29.25 56.634 29.1765 56.7802 29.0303L59.0302 26.7803L57.9697 25.7197L57 26.6895V21.75H55.5V26.6895L54.5302 25.7197L53.4697 26.7803L55.7197 29.0303C55.866 29.1765 56.058 29.25 56.25 29.25Z" fill="#A2CB94"/>
<path d="M18.9697 52.7199L16.7197 54.9699L17.7802 56.0304L18.75 55.0607V60.0002H20.25V55.0607L21.2197 56.0304L22.2802 54.9699L20.0302 52.7199C19.7377 52.4267 19.263 52.4267 18.9697 52.7199Z" fill="#A2CB94"/>
<path d="M42.0005 36.0001C42.0005 33.5978 40.7075 31.3576 38.6262 30.1538L37.8747 31.4521C39.494 32.3888 40.5005 34.1311 40.5005 36.0001C40.5005 38.4458 38.816 40.5008 36.5487 41.0813L37.4217 39.3361L36.08 38.6648L34.58 41.6648C34.436 41.9536 34.4922 42.3023 34.721 42.5303L36.971 44.7803L38.0315 43.7198L36.86 42.5483C39.806 41.8238 42.0005 39.1666 42.0005 36.0001Z" fill="#A2CB94"/>
<path d="M31.8765 41.8477L32.6265 40.5495C31.0065 39.6127 30 37.8697 30 36C30 33.5542 31.6845 31.4992 33.9518 30.9187L33.0788 32.664L34.4205 33.3352L35.9205 30.3352C36.0645 30.0465 36.0083 29.6977 35.7795 29.4697L33.5295 27.2197L32.469 28.2802L33.6405 29.4517C30.6953 30.1762 28.5 32.8335 28.5 36C28.5 38.4037 29.7938 40.644 31.8765 41.8477Z" fill="#A2CB94"/>
</g>
<defs>
<clipPath id="clip0_3726_9735">
<rect width="47.25" height="48" fill="white" transform="translate(12 12)"/>
</clipPath>
</defs>
</svg>
