<svg width="32" height="19" viewBox="0 0 32 19" fill="none" xmlns="http://www.w3.org/2000/svg">
<path d="M30.4085 4.17183L17.1085 17.8625C16.9501 18.025 16.7786 18.1398 16.5939 18.207C16.4092 18.2752 16.2112 18.3093 16.0001 18.3093C15.789 18.3093 15.5911 18.2752 15.4064 18.207C15.2217 18.1398 15.0501 18.025 14.8918 17.8625L1.55221 4.17183C1.18277 3.79266 0.998046 3.3187 0.998046 2.74995C0.998046 2.1812 1.19596 1.6937 1.5918 1.28745C1.98763 0.881203 2.44944 0.678078 2.97721 0.678078C3.50499 0.678078 3.9668 0.881203 4.36263 1.28745L16.0001 13.2312L27.6376 1.28745C28.0071 0.908284 28.462 0.718701 29.0025 0.718701C29.544 0.718701 30.0126 0.921826 30.4085 1.32808C30.8043 1.73433 31.0022 2.20828 31.0022 2.74995C31.0022 3.29162 30.8043 3.76558 30.4085 4.17183Z" fill="#D5D7E5"/>
</svg>
