<svg width="273" height="304" viewBox="0 0 273 304" fill="none" xmlns="http://www.w3.org/2000/svg">
<circle opacity="0.64" cx="83.9999" cy="285.5" r="23.9444" transform="rotate(90 83.9999 285.5)" stroke="#FF553E"/>
<circle cx="84" cy="285.5" r="29.5" transform="rotate(90 84 285.5)" stroke="#F43318" stroke-opacity="0.16"/>
<circle cx="84.1111" cy="285.389" r="18.8889" transform="rotate(90 84.1111 285.389)" fill="#FF553E"/>
<path d="M93 294.5L75.2222 276.722M93 276.722L75.2222 294.5" stroke="white" stroke-width="2"/>
<path fill-rule="evenodd" clip-rule="evenodd" d="M112.932 287.5L108.364 287.5C108.417 286.84 108.444 286.173 108.444 285.5L113 285.5C113 286.172 112.977 286.839 112.932 287.5ZM114 285.5C114 286.172 113.978 286.839 113.934 287.5L184 287.5V285.5H114ZM86 256.568C85.3392 256.523 84.6723 256.5 84 256.5L84 261.056C84.6734 261.056 85.3404 261.083 86 261.136L86 256.568ZM107.444 285.5C107.444 286.174 107.416 286.841 107.36 287.5L102.883 287.5C102.956 286.843 102.996 286.176 103 285.5L107.444 285.5ZM86 266.593L86 262.14C85.3407 262.084 84.6737 262.056 84 262.056L84 266.5C84.037 266.5 84.0741 266.5 84.1111 266.5C84.7486 266.5 85.3787 266.531 86 266.593ZM86 255.566L86 234H84L84 255.5C84.6721 255.5 85.339 255.522 86 255.566Z" fill="url(#paint0_linear_3918_11200)"/>
<path d="M63.1504 120.272V108.415C63.1504 103.634 75.0201 99.7354 89.6504 99.7354C104.281 99.7354 116.15 103.634 116.15 108.415V120.272C116.15 125.053 104.281 128.952 89.6504 128.952C75.0201 128.952 63.1504 125.053 63.1504 120.272Z" fill="#D7D8DD"/>
<ellipse rx="26.5" ry="7.50516" transform="matrix(-1 0 0 1 89.6504 107.241)" fill="#B7B9C1"/>
<path d="M63.1504 99.5441V91.9751C63.1504 87.1946 75.0201 83.2957 89.6504 83.2957C104.281 83.2957 116.15 87.1946 116.15 91.9751V99.5441C116.15 104.325 104.281 108.224 89.6504 108.224C75.0201 108.224 63.1504 104.325 63.1504 99.5441Z" fill="#D7D8DD"/>
<ellipse rx="26.5" ry="7.50516" transform="matrix(-1 0 0 1 89.6504 90.8008)" fill="#B7B9C1"/>
<path d="M63.1504 83.1041V77.6795C63.1504 72.899 75.0201 69 89.6504 69C104.281 69 116.15 72.899 116.15 77.6795V83.1041C116.15 87.8846 104.281 91.7835 89.6504 91.7835C75.0201 91.7835 63.1504 87.8846 63.1504 83.1041Z" fill="#D7D8DD"/>
<ellipse rx="26.5" ry="7.50517" transform="matrix(-1 0 0 1 89.6504 76.5052)" fill="#B7B9C1"/>
<circle r="1.22571" transform="matrix(-1 0 0 1 72.5326 86.0201)" fill="#878787"/>
<circle r="1.22571" transform="matrix(-1 0 0 1 72.5326 103.18)" fill="#878787"/>
<circle r="1.22571" transform="matrix(-1 0 0 1 72.5326 124.426)" fill="#878787"/>
<circle r="1.22571" transform="matrix(-1 0 0 1 67.6283 84.3859)" fill="#878787"/>
<circle r="1.22571" transform="matrix(-1 0 0 1 67.6283 101.546)" fill="#878787"/>
<circle r="1.22571" transform="matrix(-1 0 0 1 67.6283 122.792)" fill="#878787"/>
<rect width="4" height="4" rx="1" transform="matrix(-1 0 0 1 91.2832 24)" fill="#F3F2F3"/>
<rect width="4" height="4" rx="1" transform="matrix(-1 0 0 1 91.2832 36)" fill="#F3F2F3"/>
<rect width="4" height="4" rx="1" transform="matrix(-1 0 0 1 91.2832 48)" fill="#F3F2F3"/>
<rect width="4" height="4" rx="1" transform="matrix(-1 0 0 1 91.2832 60)" fill="#F3F2F3"/>
<rect width="4" height="4" rx="1" transform="matrix(-1 0 0 1 91.2832 72)" fill="#F3F2F3"/>
<rect width="4" height="4" rx="1" transform="matrix(-1 0 0 1 46.2832 52)" fill="#F3F2F3"/>
<rect width="4" height="4" rx="1" transform="matrix(-1 0 0 1 46.2832 64)" fill="#F3F2F3"/>
<rect width="4" height="4" rx="1" transform="matrix(-1 0 0 1 46.2832 76)" fill="#F3F2F3"/>
<rect width="4" height="4" rx="1" transform="matrix(-1 0 0 1 46.2832 88)" fill="#F3F2F3"/>
<rect width="4" height="4" rx="1" transform="matrix(-1 0 0 1 46.2832 100)" fill="#F3F2F3"/>
<rect width="4" height="4" rx="1" transform="matrix(-1 0 0 1 137.283 52)" fill="#F3F2F3"/>
<rect width="4" height="4" rx="1" transform="matrix(-1 0 0 1 137.283 64)" fill="#F3F2F3"/>
<rect width="4" height="4" rx="1" transform="matrix(-1 0 0 1 137.283 76)" fill="#F3F2F3"/>
<rect width="4" height="4" rx="1" transform="matrix(-1 0 0 1 137.283 88)" fill="#F3F2F3"/>
<rect width="4" height="4" rx="1" transform="matrix(-1 0 0 1 137.283 100)" fill="#F3F2F3"/>
<g filter="url(#filter0_d_3918_11200)">
<path d="M99.771 162.654V147.265C99.771 141.06 115.115 136 134.027 136C152.939 136 168.283 141.06 168.283 147.265V162.654C168.283 168.859 152.939 173.919 134.027 173.919C115.115 173.919 99.771 168.859 99.771 162.654Z" fill="url(#paint1_linear_3918_11200)"/>
<ellipse rx="34.2561" ry="9.74075" transform="matrix(-1 0 0 1 134.027 145.741)" fill="#C0C0C7"/>
<path d="M99.771 135.789V125.965C99.771 119.761 115.115 114.7 134.027 114.7C152.939 114.7 168.283 119.761 168.283 125.965V135.789C168.283 141.993 152.939 147.054 134.027 147.054C115.115 147.054 99.771 141.993 99.771 135.789Z" fill="white"/>
<ellipse rx="34.2561" ry="9.74074" transform="matrix(-1 0 0 1 134.027 124.441)" fill="#C0C0C7"/>
<path d="M99.771 114.452V107.411C99.771 101.207 115.115 96.1464 134.027 96.1464C152.939 96.1464 168.283 101.207 168.283 107.411V114.452C168.283 120.656 152.939 125.716 134.027 125.716C115.115 125.716 99.771 120.656 99.771 114.452Z" fill="white"/>
<ellipse rx="34.2561" ry="9.74075" transform="matrix(-1 0 0 1 134.027 105.887)" fill="#C0C0C7"/>
<circle r="1.59023" transform="matrix(-1 0 0 1 113.206 118.12)" fill="#878787"/>
<circle r="1.59023" transform="matrix(-1 0 0 1 113.206 140.384)" fill="#878787"/>
<circle r="1.59023" transform="matrix(-1 0 0 1 113.206 167.947)" fill="#878787"/>
<circle r="1.59023" transform="matrix(-1 0 0 1 106.842 116)" fill="#878787"/>
<circle r="1.59023" transform="matrix(-1 0 0 1 106.842 138.263)" fill="#878787"/>
<circle r="1.59023" transform="matrix(-1 0 0 1 106.842 165.827)" fill="#878787"/>
</g>
<g filter="url(#filter1_d_3918_11200)">
<path d="M11 162.691V147.302C11 141.097 26.3438 136.037 45.2561 136.037C64.1684 136.037 79.5122 141.097 79.5122 147.302V162.691C79.5122 168.896 64.1684 173.956 45.2561 173.956C26.3438 173.956 11 168.896 11 162.691Z" fill="url(#paint2_linear_3918_11200)"/>
<ellipse rx="34.2561" ry="9.74075" transform="matrix(-1 0 0 1 45.2561 145.777)" fill="#C0C0C7"/>
<path d="M11 135.789V125.965C11 119.761 26.3438 114.7 45.2561 114.7C64.1684 114.7 79.5122 119.761 79.5122 125.965V135.789C79.5122 141.993 64.1684 147.053 45.2561 147.053C26.3438 147.053 11 141.993 11 135.789Z" fill="white"/>
<ellipse rx="34.2561" ry="9.74074" transform="matrix(-1 0 0 1 45.2561 124.441)" fill="#C0C0C7"/>
<path d="M11 114.452V107.411C11 101.207 26.3438 96.1462 45.2561 96.1462C64.1684 96.1462 79.5122 101.207 79.5122 107.411V114.452C79.5122 120.656 64.1684 125.716 45.2561 125.716C26.3438 125.716 11 120.656 11 114.452Z" fill="white"/>
<ellipse rx="34.2561" ry="9.74075" transform="matrix(-1 0 0 1 45.2561 105.887)" fill="#C0C0C7"/>
<circle r="1.59023" transform="matrix(-1 0 0 1 23.4347 118.12)" fill="#878787"/>
<circle r="1.59023" transform="matrix(-1 0 0 1 23.4347 140.383)" fill="#878787"/>
<circle r="1.59023" transform="matrix(-1 0 0 1 23.4347 167.947)" fill="#878787"/>
<circle r="1.59023" transform="matrix(-1 0 0 1 17.0714 116)" fill="#878787"/>
<circle r="1.59023" transform="matrix(-1 0 0 1 17.0714 138.263)" fill="#878787"/>
<circle r="1.59023" transform="matrix(-1 0 0 1 17.0714 165.827)" fill="#878787"/>
</g>
<path d="M8.51 194.944C9.06067 195.047 9.51333 195.322 9.868 195.77C10.2227 196.218 10.4 196.731 10.4 197.31C10.4 197.833 10.2693 198.295 10.008 198.696C9.756 199.088 9.38733 199.396 8.902 199.62C8.41667 199.844 7.84267 199.956 7.18 199.956H2.966V190.184H6.998C7.66067 190.184 8.23 190.291 8.706 190.506C9.19133 190.721 9.55533 191.019 9.798 191.402C10.05 191.785 10.176 192.219 10.176 192.704C10.176 193.273 10.022 193.749 9.714 194.132C9.41533 194.515 9.014 194.785 8.51 194.944ZM4.926 194.216H6.718C7.18467 194.216 7.544 194.113 7.796 193.908C8.048 193.693 8.174 193.39 8.174 192.998C8.174 192.606 8.048 192.303 7.796 192.088C7.544 191.873 7.18467 191.766 6.718 191.766H4.926V194.216ZM6.9 198.36C7.376 198.36 7.74467 198.248 8.006 198.024C8.27667 197.8 8.412 197.483 8.412 197.072C8.412 196.652 8.272 196.325 7.992 196.092C7.712 195.849 7.334 195.728 6.858 195.728H4.926V198.36H6.9ZM19.2841 192.2V199.956H17.3101V198.976C17.0581 199.312 16.7268 199.578 16.3161 199.774C15.9148 199.961 15.4761 200.054 15.0001 200.054C14.3934 200.054 13.8568 199.928 13.3901 199.676C12.9234 199.415 12.5548 199.037 12.2841 198.542C12.0228 198.038 11.8921 197.441 11.8921 196.75V192.2H13.8521V196.47C13.8521 197.086 14.0061 197.562 14.3141 197.898C14.6221 198.225 15.0421 198.388 15.5741 198.388C16.1154 198.388 16.5401 198.225 16.8481 197.898C17.1561 197.562 17.3101 197.086 17.3101 196.47V192.2H19.2841ZM22.212 191.276C21.8666 191.276 21.5773 191.169 21.344 190.954C21.12 190.73 21.008 190.455 21.008 190.128C21.008 189.801 21.12 189.531 21.344 189.316C21.5773 189.092 21.8666 188.98 22.212 188.98C22.5573 188.98 22.842 189.092 23.066 189.316C23.2993 189.531 23.416 189.801 23.416 190.128C23.416 190.455 23.2993 190.73 23.066 190.954C22.842 191.169 22.5573 191.276 22.212 191.276ZM23.178 192.2V199.956H21.218V192.2H23.178ZM27.0744 189.596V199.956H25.1144V189.596H27.0744ZM28.5069 196.05C28.5069 195.266 28.6609 194.571 28.9689 193.964C29.2863 193.357 29.7156 192.891 30.2569 192.564C30.7983 192.237 31.4003 192.074 32.0629 192.074C32.5669 192.074 33.0476 192.186 33.5049 192.41C33.9623 192.625 34.3263 192.914 34.5969 193.278V189.596H36.5849V199.956H34.5969V198.808C34.3543 199.191 34.0136 199.499 33.5749 199.732C33.1363 199.965 32.6276 200.082 32.0489 200.082C31.3956 200.082 30.7983 199.914 30.2569 199.578C29.7156 199.242 29.2863 198.771 28.9689 198.164C28.6609 197.548 28.5069 196.843 28.5069 196.05ZM34.6109 196.078C34.6109 195.602 34.5176 195.196 34.3309 194.86C34.1443 194.515 33.8923 194.253 33.5749 194.076C33.2576 193.889 32.9169 193.796 32.5529 193.796C32.1889 193.796 31.8529 193.885 31.5449 194.062C31.2369 194.239 30.9849 194.501 30.7889 194.846C30.6023 195.182 30.5089 195.583 30.5089 196.05C30.5089 196.517 30.6023 196.927 30.7889 197.282C30.9849 197.627 31.2369 197.893 31.5449 198.08C31.8623 198.267 32.1983 198.36 32.5529 198.36C32.9169 198.36 33.2576 198.271 33.5749 198.094C33.8923 197.907 34.1443 197.646 34.3309 197.31C34.5176 196.965 34.6109 196.554 34.6109 196.078ZM39.4932 191.276C39.1479 191.276 38.8585 191.169 38.6252 190.954C38.4012 190.73 38.2892 190.455 38.2892 190.128C38.2892 189.801 38.4012 189.531 38.6252 189.316C38.8585 189.092 39.1479 188.98 39.4932 188.98C39.8385 188.98 40.1232 189.092 40.3472 189.316C40.5805 189.531 40.6972 189.801 40.6972 190.128C40.6972 190.455 40.5805 190.73 40.3472 190.954C40.1232 191.169 39.8385 191.276 39.4932 191.276ZM40.4592 192.2V199.956H38.4992V192.2H40.4592ZM46.6937 192.088C47.6177 192.088 48.3644 192.382 48.9337 192.97C49.503 193.549 49.7877 194.361 49.7877 195.406V199.956H47.8277V195.672C47.8277 195.056 47.6737 194.585 47.3657 194.258C47.0577 193.922 46.6377 193.754 46.1057 193.754C45.5644 193.754 45.135 193.922 44.8177 194.258C44.5097 194.585 44.3557 195.056 44.3557 195.672V199.956H42.3957V192.2H44.3557V193.166C44.617 192.83 44.9484 192.569 45.3497 192.382C45.7604 192.186 46.2084 192.088 46.6937 192.088ZM54.6895 192.074C55.2682 192.074 55.7769 192.191 56.2155 192.424C56.6542 192.648 56.9995 192.942 57.2515 193.306V192.2H59.2255V200.012C59.2255 200.731 59.0809 201.37 58.7915 201.93C58.5022 202.499 58.0682 202.947 57.4895 203.274C56.9109 203.61 56.2109 203.778 55.3895 203.778C54.2882 203.778 53.3829 203.521 52.6735 203.008C51.9735 202.495 51.5769 201.795 51.4835 200.908H53.4295C53.5322 201.263 53.7515 201.543 54.0875 201.748C54.4329 201.963 54.8482 202.07 55.3335 202.07C55.9029 202.07 56.3649 201.897 56.7195 201.552C57.0742 201.216 57.2515 200.703 57.2515 200.012V198.808C56.9995 199.172 56.6495 199.475 56.2015 199.718C55.7629 199.961 55.2589 200.082 54.6895 200.082C54.0362 200.082 53.4389 199.914 52.8975 199.578C52.3562 199.242 51.9269 198.771 51.6095 198.164C51.3015 197.548 51.1475 196.843 51.1475 196.05C51.1475 195.266 51.3015 194.571 51.6095 193.964C51.9269 193.357 52.3515 192.891 52.8835 192.564C53.4249 192.237 54.0269 192.074 54.6895 192.074ZM57.2515 196.078C57.2515 195.602 57.1582 195.196 56.9715 194.86C56.7849 194.515 56.5329 194.253 56.2155 194.076C55.8982 193.889 55.5575 193.796 55.1935 193.796C54.8295 193.796 54.4935 193.885 54.1855 194.062C53.8775 194.239 53.6255 194.501 53.4295 194.846C53.2429 195.182 53.1495 195.583 53.1495 196.05C53.1495 196.517 53.2429 196.927 53.4295 197.282C53.6255 197.627 53.8775 197.893 54.1855 198.08C54.5029 198.267 54.8389 198.36 55.1935 198.36C55.5575 198.36 55.8982 198.271 56.2155 198.094C56.5329 197.907 56.7849 197.646 56.9715 197.31C57.1582 196.965 57.2515 196.554 57.2515 196.078ZM63.9718 196.078C63.9718 195.275 64.1351 194.575 64.4618 193.978C64.7884 193.371 65.2411 192.905 65.8198 192.578C66.3984 192.242 67.0611 192.074 67.8078 192.074C68.7691 192.074 69.5624 192.317 70.1878 192.802C70.8224 193.278 71.2471 193.95 71.4618 194.818H69.3478C69.2358 194.482 69.0444 194.221 68.7738 194.034C68.5124 193.838 68.1858 193.74 67.7938 193.74C67.2338 193.74 66.7904 193.945 66.4638 194.356C66.1371 194.757 65.9738 195.331 65.9738 196.078C65.9738 196.815 66.1371 197.389 66.4638 197.8C66.7904 198.201 67.2338 198.402 67.7938 198.402C68.5871 198.402 69.1051 198.047 69.3478 197.338H71.4618C71.2471 198.178 70.8224 198.845 70.1878 199.34C69.5531 199.835 68.7598 200.082 67.8078 200.082C67.0611 200.082 66.3984 199.919 65.8198 199.592C65.2411 199.256 64.7884 198.789 64.4618 198.192C64.1351 197.585 63.9718 196.881 63.9718 196.078ZM80.2196 192.2V199.956H78.2456V198.976C77.9936 199.312 77.6623 199.578 77.2516 199.774C76.8503 199.961 76.4116 200.054 75.9356 200.054C75.329 200.054 74.7923 199.928 74.3256 199.676C73.859 199.415 73.4903 199.037 73.2196 198.542C72.9583 198.038 72.8276 197.441 72.8276 196.75V192.2H74.7876V196.47C74.7876 197.086 74.9416 197.562 75.2496 197.898C75.5576 198.225 75.9776 198.388 76.5096 198.388C77.051 198.388 77.4756 198.225 77.7836 197.898C78.0916 197.562 78.2456 197.086 78.2456 196.47V192.2H80.2196ZM85.1215 200.082C84.4868 200.082 83.9175 199.97 83.4135 199.746C82.9095 199.513 82.5082 199.2 82.2095 198.808C81.9202 198.416 81.7615 197.982 81.7335 197.506H83.7075C83.7448 197.805 83.8895 198.052 84.1415 198.248C84.4028 198.444 84.7248 198.542 85.1075 198.542C85.4808 198.542 85.7702 198.467 85.9755 198.318C86.1902 198.169 86.2975 197.977 86.2975 197.744C86.2975 197.492 86.1668 197.305 85.9055 197.184C85.6535 197.053 85.2475 196.913 84.6875 196.764C84.1088 196.624 83.6328 196.479 83.2595 196.33C82.8955 196.181 82.5782 195.952 82.3075 195.644C82.0462 195.336 81.9155 194.921 81.9155 194.398C81.9155 193.969 82.0368 193.577 82.2795 193.222C82.5315 192.867 82.8862 192.587 83.3435 192.382C83.8102 192.177 84.3562 192.074 84.9815 192.074C85.9055 192.074 86.6428 192.307 87.1935 192.774C87.7442 193.231 88.0475 193.852 88.1035 194.636H86.2275C86.1995 194.328 86.0688 194.085 85.8355 193.908C85.6115 193.721 85.3082 193.628 84.9255 193.628C84.5708 193.628 84.2955 193.693 84.0995 193.824C83.9128 193.955 83.8195 194.137 83.8195 194.37C83.8195 194.631 83.9502 194.832 84.2115 194.972C84.4728 195.103 84.8788 195.238 85.4295 195.378C85.9895 195.518 86.4515 195.663 86.8155 195.812C87.1795 195.961 87.4922 196.195 87.7535 196.512C88.0242 196.82 88.1642 197.231 88.1735 197.744C88.1735 198.192 88.0475 198.593 87.7955 198.948C87.5528 199.303 87.1982 199.583 86.7315 199.788C86.2742 199.984 85.7375 200.082 85.1215 200.082ZM92.0644 193.81V197.562C92.0644 197.823 92.1251 198.015 92.2464 198.136C92.3771 198.248 92.5917 198.304 92.8904 198.304H93.8004V199.956H92.5684C90.9164 199.956 90.0904 199.153 90.0904 197.548V193.81H89.1664V192.2H90.0904V190.282H92.0644V192.2H93.8004V193.81H92.0644ZM98.6541 200.082C97.9075 200.082 97.2355 199.919 96.6381 199.592C96.0408 199.256 95.5695 198.785 95.2241 198.178C94.8881 197.571 94.7201 196.871 94.7201 196.078C94.7201 195.285 94.8928 194.585 95.2381 193.978C95.5928 193.371 96.0735 192.905 96.6801 192.578C97.2868 192.242 97.9635 192.074 98.7101 192.074C99.4568 192.074 100.133 192.242 100.74 192.578C101.347 192.905 101.823 193.371 102.168 193.978C102.523 194.585 102.7 195.285 102.7 196.078C102.7 196.871 102.518 197.571 102.154 198.178C101.799 198.785 101.314 199.256 100.698 199.592C100.091 199.919 99.4101 200.082 98.6541 200.082ZM98.6541 198.374C99.0088 198.374 99.3401 198.29 99.6481 198.122C99.9655 197.945 100.217 197.683 100.404 197.338C100.591 196.993 100.684 196.573 100.684 196.078C100.684 195.341 100.488 194.776 100.096 194.384C99.7135 193.983 99.2421 193.782 98.6821 193.782C98.1221 193.782 97.6508 193.983 97.2681 194.384C96.8948 194.776 96.7081 195.341 96.7081 196.078C96.7081 196.815 96.8901 197.385 97.2541 197.786C97.6275 198.178 98.0941 198.374 98.6541 198.374ZM113.77 192.088C114.722 192.088 115.487 192.382 116.066 192.97C116.654 193.549 116.948 194.361 116.948 195.406V199.956H114.988V195.672C114.988 195.065 114.834 194.603 114.526 194.286C114.218 193.959 113.798 193.796 113.266 193.796C112.734 193.796 112.309 193.959 111.992 194.286C111.684 194.603 111.53 195.065 111.53 195.672V199.956H109.57V195.672C109.57 195.065 109.416 194.603 109.108 194.286C108.8 193.959 108.38 193.796 107.848 193.796C107.307 193.796 106.877 193.959 106.56 194.286C106.252 194.603 106.098 195.065 106.098 195.672V199.956H104.138V192.2H106.098V193.138C106.35 192.811 106.672 192.555 107.064 192.368C107.465 192.181 107.904 192.088 108.38 192.088C108.987 192.088 109.528 192.219 110.004 192.48C110.48 192.732 110.849 193.096 111.11 193.572C111.362 193.124 111.726 192.765 112.202 192.494C112.687 192.223 113.21 192.088 113.77 192.088ZM121.64 196.05C121.64 195.266 121.794 194.571 122.102 193.964C122.419 193.357 122.844 192.891 123.376 192.564C123.917 192.237 124.519 192.074 125.182 192.074C125.76 192.074 126.264 192.191 126.694 192.424C127.132 192.657 127.482 192.951 127.744 193.306V192.2H129.718V199.956H127.744V198.822C127.492 199.186 127.142 199.489 126.694 199.732C126.255 199.965 125.746 200.082 125.168 200.082C124.514 200.082 123.917 199.914 123.376 199.578C122.844 199.242 122.419 198.771 122.102 198.164C121.794 197.548 121.64 196.843 121.64 196.05ZM127.744 196.078C127.744 195.602 127.65 195.196 127.464 194.86C127.277 194.515 127.025 194.253 126.708 194.076C126.39 193.889 126.05 193.796 125.686 193.796C125.322 193.796 124.986 193.885 124.678 194.062C124.37 194.239 124.118 194.501 123.922 194.846C123.735 195.182 123.642 195.583 123.642 196.05C123.642 196.517 123.735 196.927 123.922 197.282C124.118 197.627 124.37 197.893 124.678 198.08C124.995 198.267 125.331 198.36 125.686 198.36C126.05 198.36 126.39 198.271 126.708 198.094C127.025 197.907 127.277 197.646 127.464 197.31C127.65 196.965 127.744 196.554 127.744 196.078ZM133.592 193.32C133.844 192.965 134.189 192.671 134.628 192.438C135.076 192.195 135.585 192.074 136.154 192.074C136.817 192.074 137.414 192.237 137.946 192.564C138.487 192.891 138.912 193.357 139.22 193.964C139.537 194.561 139.696 195.257 139.696 196.05C139.696 196.843 139.537 197.548 139.22 198.164C138.912 198.771 138.487 199.242 137.946 199.578C137.414 199.914 136.817 200.082 136.154 200.082C135.585 200.082 135.081 199.965 134.642 199.732C134.213 199.499 133.863 199.205 133.592 198.85V203.652H131.632V192.2H133.592V193.32ZM137.694 196.05C137.694 195.583 137.596 195.182 137.4 194.846C137.213 194.501 136.961 194.239 136.644 194.062C136.336 193.885 136 193.796 135.636 193.796C135.281 193.796 134.945 193.889 134.628 194.076C134.32 194.253 134.068 194.515 133.872 194.86C133.685 195.205 133.592 195.611 133.592 196.078C133.592 196.545 133.685 196.951 133.872 197.296C134.068 197.641 134.32 197.907 134.628 198.094C134.945 198.271 135.281 198.36 135.636 198.36C136 198.36 136.336 198.267 136.644 198.08C136.961 197.893 137.213 197.627 137.4 197.282C137.596 196.937 137.694 196.526 137.694 196.05ZM143.08 193.32C143.332 192.965 143.678 192.671 144.116 192.438C144.564 192.195 145.073 192.074 145.642 192.074C146.305 192.074 146.902 192.237 147.434 192.564C147.976 192.891 148.4 193.357 148.708 193.964C149.026 194.561 149.184 195.257 149.184 196.05C149.184 196.843 149.026 197.548 148.708 198.164C148.4 198.771 147.976 199.242 147.434 199.578C146.902 199.914 146.305 200.082 145.642 200.082C145.073 200.082 144.569 199.965 144.13 199.732C143.701 199.499 143.351 199.205 143.08 198.85V203.652H141.12V192.2H143.08V193.32ZM147.182 196.05C147.182 195.583 147.084 195.182 146.888 194.846C146.702 194.501 146.45 194.239 146.132 194.062C145.824 193.885 145.488 193.796 145.124 193.796C144.77 193.796 144.434 193.889 144.116 194.076C143.808 194.253 143.556 194.515 143.36 194.86C143.174 195.205 143.08 195.611 143.08 196.078C143.08 196.545 143.174 196.951 143.36 197.296C143.556 197.641 143.808 197.907 144.116 198.094C144.434 198.271 144.77 198.36 145.124 198.36C145.488 198.36 145.824 198.267 146.132 198.08C146.45 197.893 146.702 197.627 146.888 197.282C147.084 196.937 147.182 196.526 147.182 196.05ZM153.577 200.082C152.942 200.082 152.373 199.97 151.869 199.746C151.365 199.513 150.963 199.2 150.665 198.808C150.375 198.416 150.217 197.982 150.189 197.506H152.163C152.2 197.805 152.345 198.052 152.597 198.248C152.858 198.444 153.18 198.542 153.563 198.542C153.936 198.542 154.225 198.467 154.431 198.318C154.645 198.169 154.753 197.977 154.753 197.744C154.753 197.492 154.622 197.305 154.361 197.184C154.109 197.053 153.703 196.913 153.143 196.764C152.564 196.624 152.088 196.479 151.715 196.33C151.351 196.181 151.033 195.952 150.763 195.644C150.501 195.336 150.371 194.921 150.371 194.398C150.371 193.969 150.492 193.577 150.735 193.222C150.987 192.867 151.341 192.587 151.799 192.382C152.265 192.177 152.811 192.074 153.437 192.074C154.361 192.074 155.098 192.307 155.649 192.774C156.199 193.231 156.503 193.852 156.559 194.636H154.683C154.655 194.328 154.524 194.085 154.291 193.908C154.067 193.721 153.763 193.628 153.381 193.628C153.026 193.628 152.751 193.693 152.555 193.824C152.368 193.955 152.275 194.137 152.275 194.37C152.275 194.631 152.405 194.832 152.667 194.972C152.928 195.103 153.334 195.238 153.885 195.378C154.445 195.518 154.907 195.663 155.271 195.812C155.635 195.961 155.947 196.195 156.209 196.512C156.479 196.82 156.619 197.231 156.629 197.744C156.629 198.192 156.503 198.593 156.251 198.948C156.008 199.303 155.653 199.583 155.187 199.788C154.729 199.984 154.193 200.082 153.577 200.082ZM165.017 200.082C164.271 200.082 163.599 199.919 163.001 199.592C162.404 199.256 161.933 198.785 161.587 198.178C161.251 197.571 161.083 196.871 161.083 196.078C161.083 195.285 161.256 194.585 161.601 193.978C161.956 193.371 162.437 192.905 163.043 192.578C163.65 192.242 164.327 192.074 165.073 192.074C165.82 192.074 166.497 192.242 167.103 192.578C167.71 192.905 168.186 193.371 168.531 193.978C168.886 194.585 169.063 195.285 169.063 196.078C169.063 196.871 168.881 197.571 168.517 198.178C168.163 198.785 167.677 199.256 167.061 199.592C166.455 199.919 165.773 200.082 165.017 200.082ZM165.017 198.374C165.372 198.374 165.703 198.29 166.011 198.122C166.329 197.945 166.581 197.683 166.767 197.338C166.954 196.993 167.047 196.573 167.047 196.078C167.047 195.341 166.851 194.776 166.459 194.384C166.077 193.983 165.605 193.782 165.045 193.782C164.485 193.782 164.014 193.983 163.631 194.384C163.258 194.776 163.071 195.341 163.071 196.078C163.071 196.815 163.253 197.385 163.617 197.786C163.991 198.178 164.457 198.374 165.017 198.374ZM174.799 192.088C175.723 192.088 176.47 192.382 177.039 192.97C177.608 193.549 177.893 194.361 177.893 195.406V199.956H175.933V195.672C175.933 195.056 175.779 194.585 175.471 194.258C175.163 193.922 174.743 193.754 174.211 193.754C173.67 193.754 173.24 193.922 172.923 194.258C172.615 194.585 172.461 195.056 172.461 195.672V199.956H170.501V192.2H172.461V193.166C172.722 192.83 173.054 192.569 173.455 192.382C173.866 192.186 174.314 192.088 174.799 192.088ZM10.386 210.2L5.584 221.624H3.498L5.178 217.76L2.07 210.2H4.268L6.27 215.618L8.3 210.2H10.386ZM14.8866 218.082C14.1399 218.082 13.4679 217.919 12.8706 217.592C12.2732 217.256 11.8019 216.785 11.4566 216.178C11.1206 215.571 10.9526 214.871 10.9526 214.078C10.9526 213.285 11.1252 212.585 11.4706 211.978C11.8252 211.371 12.3059 210.905 12.9126 210.578C13.5192 210.242 14.1959 210.074 14.9426 210.074C15.6892 210.074 16.3659 210.242 16.9726 210.578C17.5792 210.905 18.0552 211.371 18.4006 211.978C18.7552 212.585 18.9326 213.285 18.9326 214.078C18.9326 214.871 18.7506 215.571 18.3866 216.178C18.0319 216.785 17.5466 217.256 16.9306 217.592C16.3239 217.919 15.6426 218.082 14.8866 218.082ZM14.8866 216.374C15.2412 216.374 15.5726 216.29 15.8806 216.122C16.1979 215.945 16.4499 215.683 16.6366 215.338C16.8232 214.993 16.9166 214.573 16.9166 214.078C16.9166 213.341 16.7206 212.776 16.3286 212.384C15.9459 211.983 15.4746 211.782 14.9146 211.782C14.3546 211.782 13.8832 211.983 13.5006 212.384C13.1272 212.776 12.9406 213.341 12.9406 214.078C12.9406 214.815 13.1226 215.385 13.4866 215.786C13.8599 216.178 14.3266 216.374 14.8866 216.374ZM27.6923 210.2V217.956H25.7183V216.976C25.4663 217.312 25.135 217.578 24.7243 217.774C24.323 217.961 23.8843 218.054 23.4083 218.054C22.8016 218.054 22.265 217.928 21.7983 217.676C21.3316 217.415 20.963 217.037 20.6923 216.542C20.431 216.038 20.3003 215.441 20.3003 214.75V210.2H22.2603V214.47C22.2603 215.086 22.4143 215.562 22.7223 215.898C23.0303 216.225 23.4503 216.388 23.9823 216.388C24.5236 216.388 24.9483 216.225 25.2563 215.898C25.5643 215.562 25.7183 215.086 25.7183 214.47V210.2H27.6923ZM31.5862 211.404C31.8382 210.993 32.1648 210.671 32.5662 210.438C32.9768 210.205 33.4435 210.088 33.9662 210.088V212.146H33.4482C32.8322 212.146 32.3655 212.291 32.0482 212.58C31.7402 212.869 31.5862 213.373 31.5862 214.092V217.956H29.6262V210.2H31.5862V211.404ZM38.1182 214.05C38.1182 213.266 38.2722 212.571 38.5802 211.964C38.8976 211.357 39.3269 210.891 39.8683 210.564C40.4096 210.237 41.0116 210.074 41.6743 210.074C42.1783 210.074 42.6589 210.186 43.1163 210.41C43.5736 210.625 43.9376 210.914 44.2083 211.278V207.596H46.1963V217.956H44.2083V216.808C43.9656 217.191 43.6249 217.499 43.1863 217.732C42.7476 217.965 42.2389 218.082 41.6603 218.082C41.0069 218.082 40.4096 217.914 39.8683 217.578C39.3269 217.242 38.8976 216.771 38.5802 216.164C38.2722 215.548 38.1182 214.843 38.1182 214.05ZM44.2223 214.078C44.2223 213.602 44.1289 213.196 43.9423 212.86C43.7556 212.515 43.5036 212.253 43.1863 212.076C42.8689 211.889 42.5283 211.796 42.1643 211.796C41.8003 211.796 41.4643 211.885 41.1562 212.062C40.8483 212.239 40.5963 212.501 40.4003 212.846C40.2136 213.182 40.1203 213.583 40.1203 214.05C40.1203 214.517 40.2136 214.927 40.4003 215.282C40.5963 215.627 40.8483 215.893 41.1562 216.08C41.4736 216.267 41.8096 216.36 42.1643 216.36C42.5283 216.36 42.8689 216.271 43.1863 216.094C43.5036 215.907 43.7556 215.646 43.9423 215.31C44.1289 214.965 44.2223 214.554 44.2223 214.078ZM47.6065 214.05C47.6065 213.266 47.7605 212.571 48.0685 211.964C48.3859 211.357 48.8105 210.891 49.3425 210.564C49.8839 210.237 50.4859 210.074 51.1485 210.074C51.7272 210.074 52.2312 210.191 52.6605 210.424C53.0992 210.657 53.4492 210.951 53.7105 211.306V210.2H55.6845V217.956H53.7105V216.822C53.4585 217.186 53.1085 217.489 52.6605 217.732C52.2219 217.965 51.7132 218.082 51.1345 218.082C50.4812 218.082 49.8839 217.914 49.3425 217.578C48.8105 217.242 48.3859 216.771 48.0685 216.164C47.7605 215.548 47.6065 214.843 47.6065 214.05ZM53.7105 214.078C53.7105 213.602 53.6172 213.196 53.4305 212.86C53.2439 212.515 52.9919 212.253 52.6745 212.076C52.3572 211.889 52.0165 211.796 51.6525 211.796C51.2885 211.796 50.9525 211.885 50.6445 212.062C50.3365 212.239 50.0845 212.501 49.8885 212.846C49.7019 213.182 49.6085 213.583 49.6085 214.05C49.6085 214.517 49.7019 214.927 49.8885 215.282C50.0845 215.627 50.3365 215.893 50.6445 216.08C50.9619 216.267 51.2979 216.36 51.6525 216.36C52.0165 216.36 52.3572 216.271 52.6745 216.094C52.9919 215.907 53.2439 215.646 53.4305 215.31C53.6172 214.965 53.7105 214.554 53.7105 214.078ZM59.8808 211.81V215.562C59.8808 215.823 59.9415 216.015 60.0628 216.136C60.1935 216.248 60.4081 216.304 60.7068 216.304H61.6168V217.956H60.3848C58.7328 217.956 57.9068 217.153 57.9068 215.548V211.81H56.9828V210.2H57.9068V208.282H59.8808V210.2H61.6168V211.81H59.8808ZM62.5225 214.05C62.5225 213.266 62.6765 212.571 62.9845 211.964C63.3019 211.357 63.7265 210.891 64.2585 210.564C64.7999 210.237 65.4019 210.074 66.0645 210.074C66.6432 210.074 67.1472 210.191 67.5765 210.424C68.0152 210.657 68.3652 210.951 68.6265 211.306V210.2H70.6005V217.956H68.6265V216.822C68.3745 217.186 68.0245 217.489 67.5765 217.732C67.1379 217.965 66.6292 218.082 66.0505 218.082C65.3972 218.082 64.7999 217.914 64.2585 217.578C63.7265 217.242 63.3019 216.771 62.9845 216.164C62.6765 215.548 62.5225 214.843 62.5225 214.05ZM68.6265 214.078C68.6265 213.602 68.5332 213.196 68.3465 212.86C68.1599 212.515 67.9079 212.253 67.5905 212.076C67.2732 211.889 66.9325 211.796 66.5685 211.796C66.2045 211.796 65.8685 211.885 65.5605 212.062C65.2525 212.239 65.0005 212.501 64.8045 212.846C64.6179 213.182 64.5245 213.583 64.5245 214.05C64.5245 214.517 64.6179 214.927 64.8045 215.282C65.0005 215.627 65.2525 215.893 65.5605 216.08C65.8779 216.267 66.2139 216.36 66.5685 216.36C66.9325 216.36 67.2732 216.271 67.5905 216.094C67.9079 215.907 68.1599 215.646 68.3465 215.31C68.5332 214.965 68.6265 214.554 68.6265 214.078ZM86.6028 210.2L84.3348 217.956H82.2208L80.8068 212.538L79.3928 217.956H77.2648L74.9828 210.2H76.9708L78.3428 216.108L79.8268 210.2H81.8988L83.3548 216.094L84.7268 210.2H86.6028ZM87.1593 214.05C87.1593 213.266 87.3133 212.571 87.6213 211.964C87.9386 211.357 88.3633 210.891 88.8953 210.564C89.4366 210.237 90.0386 210.074 90.7013 210.074C91.2799 210.074 91.7839 210.191 92.2133 210.424C92.6519 210.657 93.0019 210.951 93.2633 211.306V210.2H95.2373V217.956H93.2633V216.822C93.0113 217.186 92.6613 217.489 92.2133 217.732C91.7746 217.965 91.2659 218.082 90.6873 218.082C90.0339 218.082 89.4366 217.914 88.8953 217.578C88.3633 217.242 87.9386 216.771 87.6213 216.164C87.3133 215.548 87.1593 214.843 87.1593 214.05ZM93.2633 214.078C93.2633 213.602 93.1699 213.196 92.9833 212.86C92.7966 212.515 92.5446 212.253 92.2273 212.076C91.9099 211.889 91.5693 211.796 91.2053 211.796C90.8413 211.796 90.5053 211.885 90.1973 212.062C89.8893 212.239 89.6373 212.501 89.4413 212.846C89.2546 213.182 89.1613 213.583 89.1613 214.05C89.1613 214.517 89.2546 214.927 89.4413 215.282C89.6373 215.627 89.8893 215.893 90.1973 216.08C90.5146 216.267 90.8506 216.36 91.2053 216.36C91.5693 216.36 91.9099 216.271 92.2273 216.094C92.5446 215.907 92.7966 215.646 92.9833 215.31C93.1699 214.965 93.2633 214.554 93.2633 214.078ZM99.1115 211.404C99.3635 210.993 99.6902 210.671 100.092 210.438C100.502 210.205 100.969 210.088 101.492 210.088V212.146H100.974C100.358 212.146 99.8909 212.291 99.5735 212.58C99.2655 212.869 99.1115 213.373 99.1115 214.092V217.956H97.1515V210.2H99.1115V211.404ZM110.022 213.91C110.022 214.19 110.003 214.442 109.966 214.666H104.296C104.342 215.226 104.538 215.665 104.884 215.982C105.229 216.299 105.654 216.458 106.158 216.458C106.886 216.458 107.404 216.145 107.712 215.52H109.826C109.602 216.267 109.172 216.883 108.538 217.368C107.903 217.844 107.124 218.082 106.2 218.082C105.453 218.082 104.781 217.919 104.184 217.592C103.596 217.256 103.134 216.785 102.798 216.178C102.471 215.571 102.308 214.871 102.308 214.078C102.308 213.275 102.471 212.571 102.798 211.964C103.124 211.357 103.582 210.891 104.17 210.564C104.758 210.237 105.434 210.074 106.2 210.074C106.937 210.074 107.595 210.233 108.174 210.55C108.762 210.867 109.214 211.32 109.532 211.908C109.858 212.487 110.022 213.154 110.022 213.91ZM107.992 213.35C107.982 212.846 107.8 212.445 107.446 212.146C107.091 211.838 106.657 211.684 106.144 211.684C105.658 211.684 105.248 211.833 104.912 212.132C104.585 212.421 104.384 212.827 104.31 213.35H107.992ZM115.82 210.088C116.408 210.088 116.931 210.219 117.388 210.48C117.846 210.732 118.2 211.11 118.452 211.614C118.714 212.109 118.844 212.706 118.844 213.406V217.956H116.884V213.672C116.884 213.056 116.73 212.585 116.422 212.258C116.114 211.922 115.694 211.754 115.162 211.754C114.621 211.754 114.192 211.922 113.874 212.258C113.566 212.585 113.412 213.056 113.412 213.672V217.956H111.452V207.596H113.412V211.166C113.664 210.83 114 210.569 114.42 210.382C114.84 210.186 115.307 210.088 115.82 210.088ZM124.152 218.082C123.406 218.082 122.734 217.919 122.136 217.592C121.539 217.256 121.068 216.785 120.722 216.178C120.386 215.571 120.218 214.871 120.218 214.078C120.218 213.285 120.391 212.585 120.736 211.978C121.091 211.371 121.572 210.905 122.178 210.578C122.785 210.242 123.462 210.074 124.208 210.074C124.955 210.074 125.632 210.242 126.238 210.578C126.845 210.905 127.321 211.371 127.666 211.978C128.021 212.585 128.198 213.285 128.198 214.078C128.198 214.871 128.016 215.571 127.652 216.178C127.298 216.785 126.812 217.256 126.196 217.592C125.59 217.919 124.908 218.082 124.152 218.082ZM124.152 216.374C124.507 216.374 124.838 216.29 125.146 216.122C125.464 215.945 125.716 215.683 125.902 215.338C126.089 214.993 126.182 214.573 126.182 214.078C126.182 213.341 125.986 212.776 125.594 212.384C125.212 211.983 124.74 211.782 124.18 211.782C123.62 211.782 123.149 211.983 122.766 212.384C122.393 212.776 122.206 213.341 122.206 214.078C122.206 214.815 122.388 215.385 122.752 215.786C123.126 216.178 123.592 216.374 124.152 216.374ZM136.958 210.2V217.956H134.984V216.976C134.732 217.312 134.401 217.578 133.99 217.774C133.589 217.961 133.15 218.054 132.674 218.054C132.067 218.054 131.531 217.928 131.064 217.676C130.597 217.415 130.229 217.037 129.958 216.542C129.697 216.038 129.566 215.441 129.566 214.75V210.2H131.526V214.47C131.526 215.086 131.68 215.562 131.988 215.898C132.296 216.225 132.716 216.388 133.248 216.388C133.789 216.388 134.214 216.225 134.522 215.898C134.83 215.562 134.984 215.086 134.984 214.47V210.2H136.958ZM141.86 218.082C141.225 218.082 140.656 217.97 140.152 217.746C139.648 217.513 139.246 217.2 138.948 216.808C138.658 216.416 138.5 215.982 138.472 215.506H140.446C140.483 215.805 140.628 216.052 140.88 216.248C141.141 216.444 141.463 216.542 141.846 216.542C142.219 216.542 142.508 216.467 142.714 216.318C142.928 216.169 143.036 215.977 143.036 215.744C143.036 215.492 142.905 215.305 142.644 215.184C142.392 215.053 141.986 214.913 141.426 214.764C140.847 214.624 140.371 214.479 139.998 214.33C139.634 214.181 139.316 213.952 139.046 213.644C138.784 213.336 138.654 212.921 138.654 212.398C138.654 211.969 138.775 211.577 139.018 211.222C139.27 210.867 139.624 210.587 140.082 210.382C140.548 210.177 141.094 210.074 141.72 210.074C142.644 210.074 143.381 210.307 143.932 210.774C144.482 211.231 144.786 211.852 144.842 212.636H142.966C142.938 212.328 142.807 212.085 142.574 211.908C142.35 211.721 142.046 211.628 141.664 211.628C141.309 211.628 141.034 211.693 140.838 211.824C140.651 211.955 140.558 212.137 140.558 212.37C140.558 212.631 140.688 212.832 140.95 212.972C141.211 213.103 141.617 213.238 142.168 213.378C142.728 213.518 143.19 213.663 143.554 213.812C143.918 213.961 144.23 214.195 144.492 214.512C144.762 214.82 144.902 215.231 144.912 215.744C144.912 216.192 144.786 216.593 144.534 216.948C144.291 217.303 143.936 217.583 143.47 217.788C143.012 217.984 142.476 218.082 141.86 218.082ZM153.731 213.91C153.731 214.19 153.712 214.442 153.675 214.666H148.005C148.051 215.226 148.247 215.665 148.593 215.982C148.938 216.299 149.363 216.458 149.867 216.458C150.595 216.458 151.113 216.145 151.421 215.52H153.535C153.311 216.267 152.881 216.883 152.247 217.368C151.612 217.844 150.833 218.082 149.909 218.082C149.162 218.082 148.49 217.919 147.893 217.592C147.305 217.256 146.843 216.785 146.507 216.178C146.18 215.571 146.017 214.871 146.017 214.078C146.017 213.275 146.18 212.571 146.507 211.964C146.833 211.357 147.291 210.891 147.879 210.564C148.467 210.237 149.143 210.074 149.909 210.074C150.646 210.074 151.304 210.233 151.883 210.55C152.471 210.867 152.923 211.32 153.241 211.908C153.567 212.487 153.731 213.154 153.731 213.91ZM151.701 213.35C151.691 212.846 151.509 212.445 151.155 212.146C150.8 211.838 150.366 211.684 149.853 211.684C149.367 211.684 148.957 211.833 148.621 212.132C148.294 212.421 148.093 212.827 148.019 213.35H151.701Z" fill="#D5D7E5"/>
<defs>
<filter id="filter0_d_3918_11200" x="3.771" y="0.146362" width="268.512" height="277.773" filterUnits="userSpaceOnUse" color-interpolation-filters="sRGB">
<feFlood flood-opacity="0" result="BackgroundImageFix"/>
<feColorMatrix in="SourceAlpha" type="matrix" values="0 0 0 0 0 0 0 0 0 0 0 0 0 0 0 0 0 0 127 0" result="hardAlpha"/>
<feOffset dx="4" dy="4"/>
<feGaussianBlur stdDeviation="50"/>
<feComposite in2="hardAlpha" operator="out"/>
<feColorMatrix type="matrix" values="0 0 0 0 0.423529 0 0 0 0 0.482353 0 0 0 0 0.666667 0 0 0 0.12 0"/>
<feBlend mode="normal" in2="BackgroundImageFix" result="effect1_dropShadow_3918_11200"/>
<feBlend mode="normal" in="SourceGraphic" in2="effect1_dropShadow_3918_11200" result="shape"/>
</filter>
<filter id="filter1_d_3918_11200" x="-85" y="0.14624" width="268.512" height="277.81" filterUnits="userSpaceOnUse" color-interpolation-filters="sRGB">
<feFlood flood-opacity="0" result="BackgroundImageFix"/>
<feColorMatrix in="SourceAlpha" type="matrix" values="0 0 0 0 0 0 0 0 0 0 0 0 0 0 0 0 0 0 127 0" result="hardAlpha"/>
<feOffset dx="4" dy="4"/>
<feGaussianBlur stdDeviation="50"/>
<feComposite in2="hardAlpha" operator="out"/>
<feColorMatrix type="matrix" values="0 0 0 0 0.423529 0 0 0 0 0.482353 0 0 0 0 0.666667 0 0 0 0.12 0"/>
<feBlend mode="normal" in2="BackgroundImageFix" result="effect1_dropShadow_3918_11200"/>
<feBlend mode="normal" in="SourceGraphic" in2="effect1_dropShadow_3918_11200" result="shape"/>
</filter>
<linearGradient id="paint0_linear_3918_11200" x1="206.988" y1="291.78" x2="66.5" y2="195.5" gradientUnits="userSpaceOnUse">
<stop stop-color="#F43318" stop-opacity="0"/>
<stop offset="0.442993" stop-color="#F43318"/>
<stop offset="1" stop-color="#F43318" stop-opacity="0"/>
</linearGradient>
<linearGradient id="paint1_linear_3918_11200" x1="134.283" y1="138.963" x2="134.283" y2="237.463" gradientUnits="userSpaceOnUse">
<stop stop-color="white"/>
<stop offset="1" stop-color="white" stop-opacity="0"/>
</linearGradient>
<linearGradient id="paint2_linear_3918_11200" x1="45.2561" y1="136.037" x2="45.2827" y2="234.5" gradientUnits="userSpaceOnUse">
<stop stop-color="white"/>
<stop offset="1" stop-color="white" stop-opacity="0"/>
</linearGradient>
</defs>
</svg>
