<svg width="302" height="412" viewBox="0 0 302 412" fill="none" xmlns="http://www.w3.org/2000/svg">
<g clip-path="url(#clip0_7111_9531)">
<g filter="url(#filter0_d_7111_9531)">
<rect x="5.04639" y="40" width="291.907" height="80" rx="12" fill="url(#paint0_linear_7111_9531)" shape-rendering="crispEdges"/>
<path d="M69.3108 68.416C69.3108 67.328 69.5614 66.352 70.0628 65.488C70.5748 64.624 71.2628 63.952 72.1268 63.472C73.0014 62.9813 73.9561 62.736 74.9908 62.736C76.1748 62.736 77.2254 63.0293 78.1428 63.616C79.0708 64.192 79.7428 65.0133 80.1588 66.08H77.9668C77.6788 65.4933 77.2788 65.056 76.7668 64.768C76.2548 64.48 75.6628 64.336 74.9908 64.336C74.2548 64.336 73.5988 64.5013 73.0228 64.832C72.4468 65.1627 71.9934 65.6373 71.6628 66.256C71.3428 66.8747 71.1828 67.5947 71.1828 68.416C71.1828 69.2373 71.3428 69.9573 71.6628 70.576C71.9934 71.1947 72.4468 71.6747 73.0228 72.016C73.5988 72.3467 74.2548 72.512 74.9908 72.512C75.6628 72.512 76.2548 72.368 76.7668 72.08C77.2788 71.792 77.6788 71.3547 77.9668 70.768H80.1588C79.7428 71.8347 79.0708 72.656 78.1428 73.232C77.2254 73.808 76.1748 74.096 74.9908 74.096C73.9454 74.096 72.9908 73.856 72.1268 73.376C71.2628 72.8853 70.5748 72.208 70.0628 71.344C69.5614 70.48 69.3108 69.504 69.3108 68.416ZM86.1178 74.144C85.2858 74.144 84.5338 73.9573 83.8618 73.584C83.1898 73.2 82.6618 72.6667 82.2778 71.984C81.8938 71.2907 81.7018 70.4907 81.7018 69.584C81.7018 68.688 81.8991 67.8933 82.2938 67.2C82.6884 66.5067 83.2271 65.9733 83.9098 65.6C84.5924 65.2267 85.3551 65.04 86.1978 65.04C87.0404 65.04 87.8031 65.2267 88.4858 65.6C89.1684 65.9733 89.7071 66.5067 90.1018 67.2C90.4964 67.8933 90.6938 68.688 90.6938 69.584C90.6938 70.48 90.4911 71.2747 90.0858 71.968C89.6804 72.6613 89.1258 73.2 88.4218 73.584C87.7284 73.9573 86.9604 74.144 86.1178 74.144ZM86.1178 72.56C86.5871 72.56 87.0244 72.448 87.4298 72.224C87.8458 72 88.1818 71.664 88.4378 71.216C88.6938 70.768 88.8218 70.224 88.8218 69.584C88.8218 68.944 88.6991 68.4053 88.4538 67.968C88.2084 67.52 87.8831 67.184 87.4778 66.96C87.0724 66.736 86.6351 66.624 86.1658 66.624C85.6964 66.624 85.2591 66.736 84.8538 66.96C84.4591 67.184 84.1444 67.52 83.9098 67.968C83.6751 68.4053 83.5578 68.944 83.5578 69.584C83.5578 70.5333 83.7978 71.2693 84.2778 71.792C84.7684 72.304 85.3818 72.56 86.1178 72.56ZM96.9449 65.04C97.6382 65.04 98.2569 65.184 98.8009 65.472C99.3555 65.76 99.7875 66.1867 100.097 66.752C100.406 67.3173 100.561 68 100.561 68.8V74H98.7529V69.072C98.7529 68.2827 98.5555 67.68 98.1609 67.264C97.7662 66.8373 97.2275 66.624 96.5449 66.624C95.8622 66.624 95.3182 66.8373 94.9129 67.264C94.5182 67.68 94.3209 68.2827 94.3209 69.072V74H92.4969V65.184H94.3209V66.192C94.6195 65.8293 94.9982 65.5467 95.4569 65.344C95.9262 65.1413 96.4222 65.04 96.9449 65.04ZM106.584 66.672H104.952V74H103.112V66.672H102.072V65.184H103.112V64.56C103.112 63.5467 103.378 62.8107 103.912 62.352C104.456 61.8827 105.304 61.648 106.456 61.648V63.168C105.901 63.168 105.512 63.2747 105.288 63.488C105.064 63.6907 104.952 64.048 104.952 64.56V65.184H106.584V66.672ZM109.128 64.016C108.797 64.016 108.52 63.904 108.296 63.68C108.072 63.456 107.96 63.1787 107.96 62.848C107.96 62.5173 108.072 62.24 108.296 62.016C108.52 61.792 108.797 61.68 109.128 61.68C109.448 61.68 109.72 61.792 109.944 62.016C110.168 62.24 110.28 62.5173 110.28 62.848C110.28 63.1787 110.168 63.456 109.944 63.68C109.72 63.904 109.448 64.016 109.128 64.016ZM110.024 65.184V74H108.2V65.184H110.024ZM115.971 65.04C116.653 65.04 117.256 65.1787 117.779 65.456C118.312 65.7227 118.728 66.0587 119.027 66.464V65.184H120.867V74.144C120.867 74.9547 120.696 75.6747 120.355 76.304C120.013 76.944 119.517 77.4453 118.867 77.808C118.227 78.1707 117.459 78.352 116.563 78.352C115.368 78.352 114.376 78.0693 113.587 77.504C112.797 76.9493 112.349 76.192 112.243 75.232H114.051C114.189 75.6907 114.483 76.0587 114.931 76.336C115.389 76.624 115.933 76.768 116.563 76.768C117.299 76.768 117.891 76.544 118.339 76.096C118.797 75.648 119.027 74.9973 119.027 74.144V72.672C118.717 73.088 118.296 73.44 117.763 73.728C117.24 74.0053 116.643 74.144 115.971 74.144C115.203 74.144 114.499 73.952 113.859 73.568C113.229 73.1733 112.728 72.6293 112.355 71.936C111.992 71.232 111.811 70.4373 111.811 69.552C111.811 68.6667 111.992 67.8827 112.355 67.2C112.728 66.5173 113.229 65.9893 113.859 65.616C114.499 65.232 115.203 65.04 115.971 65.04ZM119.027 69.584C119.027 68.976 118.899 68.448 118.643 68C118.397 67.552 118.072 67.2107 117.667 66.976C117.261 66.7413 116.824 66.624 116.355 66.624C115.885 66.624 115.448 66.7413 115.043 66.976C114.637 67.2 114.307 67.536 114.051 67.984C113.805 68.4213 113.683 68.944 113.683 69.552C113.683 70.16 113.805 70.6933 114.051 71.152C114.307 71.6107 114.637 71.9627 115.043 72.208C115.459 72.4427 115.896 72.56 116.355 72.56C116.824 72.56 117.261 72.4427 117.667 72.208C118.072 71.9733 118.397 71.632 118.643 71.184C118.899 70.7253 119.027 70.192 119.027 69.584ZM131.247 65.184V74H129.423V72.96C129.135 73.3227 128.756 73.6107 128.287 73.824C127.828 74.0267 127.337 74.128 126.815 74.128C126.121 74.128 125.497 73.984 124.943 73.696C124.399 73.408 123.967 72.9813 123.647 72.416C123.337 71.8507 123.183 71.168 123.183 70.368V65.184H124.991V70.096C124.991 70.8853 125.188 71.4933 125.583 71.92C125.977 72.336 126.516 72.544 127.199 72.544C127.881 72.544 128.42 72.336 128.815 71.92C129.22 71.4933 129.423 70.8853 129.423 70.096V65.184H131.247ZM135.477 66.464C135.744 66.016 136.096 65.6693 136.533 65.424C136.981 65.168 137.509 65.04 138.117 65.04V66.928H137.653C136.938 66.928 136.394 67.1093 136.021 67.472C135.658 67.8347 135.477 68.464 135.477 69.36V74H133.653V65.184H135.477V66.464ZM139.186 69.552C139.186 68.6667 139.367 67.8827 139.73 67.2C140.103 66.5173 140.604 65.9893 141.234 65.616C141.874 65.232 142.578 65.04 143.346 65.04C144.039 65.04 144.642 65.1787 145.154 65.456C145.676 65.7227 146.092 66.0587 146.402 66.464V65.184H148.242V74H146.402V72.688C146.092 73.104 145.671 73.4507 145.138 73.728C144.604 74.0053 143.996 74.144 143.314 74.144C142.556 74.144 141.863 73.952 141.234 73.568C140.604 73.1733 140.103 72.6293 139.73 71.936C139.367 71.232 139.186 70.4373 139.186 69.552ZM146.402 69.584C146.402 68.976 146.274 68.448 146.018 68C145.772 67.552 145.447 67.2107 145.042 66.976C144.636 66.7413 144.199 66.624 143.73 66.624C143.26 66.624 142.823 66.7413 142.418 66.976C142.012 67.2 141.682 67.536 141.426 67.984C141.18 68.4213 141.058 68.944 141.058 69.552C141.058 70.16 141.18 70.6933 141.426 71.152C141.682 71.6107 142.012 71.9627 142.418 72.208C142.834 72.4427 143.271 72.56 143.73 72.56C144.199 72.56 144.636 72.4427 145.042 72.208C145.447 71.9733 145.772 71.632 146.018 71.184C146.274 70.7253 146.402 70.192 146.402 69.584ZM152.462 66.496C152.771 66.0693 153.192 65.7227 153.726 65.456C154.27 65.1787 154.872 65.04 155.534 65.04C156.312 65.04 157.016 65.2267 157.646 65.6C158.275 65.9733 158.771 66.5067 159.134 67.2C159.496 67.8827 159.678 68.6667 159.678 69.552C159.678 70.4373 159.496 71.232 159.134 71.936C158.771 72.6293 158.27 73.1733 157.63 73.568C157 73.952 156.302 74.144 155.534 74.144C154.851 74.144 154.243 74.0107 153.71 73.744C153.187 73.4773 152.771 73.136 152.462 72.72V74H150.638V62.16H152.462V66.496ZM157.822 69.552C157.822 68.944 157.694 68.4213 157.438 67.984C157.192 67.536 156.862 67.2 156.446 66.976C156.04 66.7413 155.603 66.624 155.134 66.624C154.675 66.624 154.238 66.7413 153.822 66.976C153.416 67.2107 153.086 67.552 152.83 68C152.584 68.448 152.462 68.976 152.462 69.584C152.462 70.192 152.584 70.7253 152.83 71.184C153.086 71.632 153.416 71.9733 153.822 72.208C154.238 72.4427 154.675 72.56 155.134 72.56C155.603 72.56 156.04 72.4427 156.446 72.208C156.862 71.9627 157.192 71.6107 157.438 71.152C157.694 70.6933 157.822 70.16 157.822 69.552ZM163.305 62.16V74H161.481V62.16H163.305ZM173.78 69.376C173.78 69.7067 173.759 70.0053 173.716 70.272H166.98C167.033 70.976 167.295 71.5413 167.764 71.968C168.233 72.3947 168.809 72.608 169.492 72.608C170.473 72.608 171.167 72.1973 171.572 71.376H173.54C173.273 72.1867 172.788 72.8533 172.084 73.376C171.391 73.888 170.527 74.144 169.492 74.144C168.649 74.144 167.892 73.9573 167.22 73.584C166.559 73.2 166.036 72.6667 165.652 71.984C165.279 71.2907 165.092 70.4907 165.092 69.584C165.092 68.6773 165.273 67.8827 165.636 67.2C166.009 66.5067 166.527 65.9733 167.188 65.6C167.86 65.2267 168.628 65.04 169.492 65.04C170.324 65.04 171.065 65.2213 171.716 65.584C172.367 65.9467 172.873 66.4587 173.236 67.12C173.599 67.7707 173.78 68.5227 173.78 69.376ZM171.876 68.8C171.865 68.128 171.625 67.5893 171.156 67.184C170.687 66.7787 170.105 66.576 169.412 66.576C168.783 66.576 168.244 66.7787 167.796 67.184C167.348 67.5787 167.081 68.1173 166.996 68.8H171.876ZM187.779 66.08C187.491 65.5253 187.091 65.1093 186.579 64.832C186.067 64.544 185.475 64.4 184.803 64.4C184.067 64.4 183.411 64.5653 182.835 64.896C182.259 65.2267 181.806 65.696 181.475 66.304C181.155 66.912 180.995 67.616 180.995 68.416C180.995 69.216 181.155 69.9253 181.475 70.544C181.806 71.152 182.259 71.6213 182.835 71.952C183.411 72.2827 184.067 72.448 184.803 72.448C185.795 72.448 186.601 72.1707 187.219 71.616C187.838 71.0613 188.217 70.3093 188.355 69.36H184.179V67.904H190.307V69.328C190.19 70.192 189.881 70.9867 189.379 71.712C188.889 72.4373 188.243 73.0187 187.443 73.456C186.654 73.8827 185.774 74.096 184.803 74.096C183.758 74.096 182.803 73.856 181.939 73.376C181.075 72.8853 180.387 72.208 179.875 71.344C179.374 70.48 179.123 69.504 179.123 68.416C179.123 67.328 179.374 66.352 179.875 65.488C180.387 64.624 181.075 63.952 181.939 63.472C182.814 62.9813 183.769 62.736 184.803 62.736C185.987 62.736 187.038 63.0293 187.955 63.616C188.883 64.192 189.555 65.0133 189.971 66.08H187.779ZM193.93 66.464C194.197 66.016 194.549 65.6693 194.986 65.424C195.434 65.168 195.962 65.04 196.57 65.04V66.928H196.106C195.392 66.928 194.848 67.1093 194.474 67.472C194.112 67.8347 193.93 68.464 193.93 69.36V74H192.106V65.184H193.93V66.464ZM197.639 69.552C197.639 68.6667 197.82 67.8827 198.183 67.2C198.556 66.5173 199.058 65.9893 199.687 65.616C200.327 65.232 201.031 65.04 201.799 65.04C202.492 65.04 203.095 65.1787 203.607 65.456C204.13 65.7227 204.546 66.0587 204.855 66.464V65.184H206.695V74H204.855V72.688C204.546 73.104 204.124 73.4507 203.591 73.728C203.058 74.0053 202.45 74.144 201.767 74.144C201.01 74.144 200.316 73.952 199.687 73.568C199.058 73.1733 198.556 72.6293 198.183 71.936C197.82 71.232 197.639 70.4373 197.639 69.552ZM204.855 69.584C204.855 68.976 204.727 68.448 204.471 68C204.226 67.552 203.9 67.2107 203.495 66.976C203.09 66.7413 202.652 66.624 202.183 66.624C201.714 66.624 201.276 66.7413 200.871 66.976C200.466 67.2 200.135 67.536 199.879 67.984C199.634 68.4213 199.511 68.944 199.511 69.552C199.511 70.16 199.634 70.6933 199.879 71.152C200.135 71.6107 200.466 71.9627 200.871 72.208C201.287 72.4427 201.724 72.56 202.183 72.56C202.652 72.56 203.09 72.4427 203.495 72.208C203.9 71.9733 204.226 71.632 204.471 71.184C204.727 70.7253 204.855 70.192 204.855 69.584ZM210.915 66.48C211.224 66.0747 211.645 65.7333 212.179 65.456C212.712 65.1787 213.315 65.04 213.987 65.04C214.755 65.04 215.453 65.232 216.083 65.616C216.723 65.9893 217.224 66.5173 217.587 67.2C217.949 67.8827 218.131 68.6667 218.131 69.552C218.131 70.4373 217.949 71.232 217.587 71.936C217.224 72.6293 216.723 73.1733 216.083 73.568C215.453 73.952 214.755 74.144 213.987 74.144C213.315 74.144 212.717 74.0107 212.195 73.744C211.672 73.4667 211.245 73.1253 210.915 72.72V78.192H209.091V65.184H210.915V66.48ZM216.275 69.552C216.275 68.944 216.147 68.4213 215.891 67.984C215.645 67.536 215.315 67.2 214.899 66.976C214.493 66.7413 214.056 66.624 213.587 66.624C213.128 66.624 212.691 66.7413 212.275 66.976C211.869 67.2107 211.539 67.552 211.283 68C211.037 68.448 210.915 68.976 210.915 69.584C210.915 70.192 211.037 70.7253 211.283 71.184C211.539 71.632 211.869 71.9733 212.275 72.208C212.691 72.4427 213.128 72.56 213.587 72.56C214.056 72.56 214.493 72.4427 214.899 72.208C215.315 71.9627 215.645 71.6107 215.891 71.152C216.147 70.6933 216.275 70.16 216.275 69.552ZM224.494 65.04C225.166 65.04 225.764 65.184 226.286 65.472C226.82 65.76 227.236 66.1867 227.534 66.752C227.844 67.3173 227.998 68 227.998 68.8V74H226.19V69.072C226.19 68.2827 225.993 67.68 225.598 67.264C225.204 66.8373 224.665 66.624 223.982 66.624C223.3 66.624 222.756 66.8373 222.35 67.264C221.956 67.68 221.758 68.2827 221.758 69.072V74H219.934V62.16H221.758V66.208C222.068 65.8347 222.457 65.5467 222.926 65.344C223.406 65.1413 223.929 65.04 224.494 65.04ZM98.7323 86.88V98H96.9083V90.384L93.5163 98H92.2523L88.8443 90.384V98H87.0203V86.88H88.9883L92.8923 95.6L96.7803 86.88H98.7323ZM100.522 93.552C100.522 92.6667 100.703 91.8827 101.066 91.2C101.439 90.5173 101.94 89.9893 102.57 89.616C103.21 89.232 103.914 89.04 104.682 89.04C105.375 89.04 105.978 89.1787 106.49 89.456C107.012 89.7227 107.428 90.0587 107.738 90.464V89.184H109.578V98H107.738V96.688C107.428 97.104 107.007 97.4507 106.474 97.728C105.94 98.0053 105.332 98.144 104.65 98.144C103.892 98.144 103.199 97.952 102.57 97.568C101.94 97.1733 101.439 96.6293 101.066 95.936C100.703 95.232 100.522 94.4373 100.522 93.552ZM107.738 93.584C107.738 92.976 107.61 92.448 107.354 92C107.108 91.552 106.783 91.2107 106.378 90.976C105.972 90.7413 105.535 90.624 105.066 90.624C104.596 90.624 104.159 90.7413 103.754 90.976C103.348 91.2 103.018 91.536 102.762 91.984C102.516 92.4213 102.394 92.944 102.394 93.552C102.394 94.16 102.516 94.6933 102.762 95.152C103.018 95.6107 103.348 95.9627 103.754 96.208C104.17 96.4427 104.607 96.56 105.066 96.56C105.535 96.56 105.972 96.4427 106.378 96.208C106.783 95.9733 107.108 95.632 107.354 95.184C107.61 94.7253 107.738 94.192 107.738 93.584ZM113.797 90.48C114.107 90.0747 114.528 89.7333 115.061 89.456C115.595 89.1787 116.197 89.04 116.869 89.04C117.637 89.04 118.336 89.232 118.965 89.616C119.605 89.9893 120.107 90.5173 120.469 91.2C120.832 91.8827 121.013 92.6667 121.013 93.552C121.013 94.4373 120.832 95.232 120.469 95.936C120.107 96.6293 119.605 97.1733 118.965 97.568C118.336 97.952 117.637 98.144 116.869 98.144C116.197 98.144 115.6 98.0107 115.077 97.744C114.555 97.4667 114.128 97.1253 113.797 96.72V102.192H111.973V89.184H113.797V90.48ZM119.157 93.552C119.157 92.944 119.029 92.4213 118.773 91.984C118.528 91.536 118.197 91.2 117.781 90.976C117.376 90.7413 116.939 90.624 116.469 90.624C116.011 90.624 115.573 90.7413 115.157 90.976C114.752 91.2107 114.421 91.552 114.165 92C113.92 92.448 113.797 92.976 113.797 93.584C113.797 94.192 113.92 94.7253 114.165 95.184C114.421 95.632 114.752 95.9733 115.157 96.208C115.573 96.4427 116.011 96.56 116.469 96.56C116.939 96.56 117.376 96.4427 117.781 96.208C118.197 95.9627 118.528 95.6107 118.773 95.152C119.029 94.6933 119.157 94.16 119.157 93.552ZM124.641 90.48C124.951 90.0747 125.372 89.7333 125.905 89.456C126.439 89.1787 127.041 89.04 127.713 89.04C128.481 89.04 129.18 89.232 129.809 89.616C130.449 89.9893 130.951 90.5173 131.313 91.2C131.676 91.8827 131.857 92.6667 131.857 93.552C131.857 94.4373 131.676 95.232 131.313 95.936C130.951 96.6293 130.449 97.1733 129.809 97.568C129.18 97.952 128.481 98.144 127.713 98.144C127.041 98.144 126.444 98.0107 125.921 97.744C125.399 97.4667 124.972 97.1253 124.641 96.72V102.192H122.817V89.184H124.641V90.48ZM130.001 93.552C130.001 92.944 129.873 92.4213 129.617 91.984C129.372 91.536 129.041 91.2 128.625 90.976C128.22 90.7413 127.783 90.624 127.313 90.624C126.855 90.624 126.417 90.7413 126.001 90.976C125.596 91.2107 125.265 91.552 125.009 92C124.764 92.448 124.641 92.976 124.641 93.584C124.641 94.192 124.764 94.7253 125.009 95.184C125.265 95.632 125.596 95.9733 126.001 96.208C126.417 96.4427 126.855 96.56 127.313 96.56C127.783 96.56 128.22 96.4427 128.625 96.208C129.041 95.9627 129.372 95.6107 129.617 95.152C129.873 94.6933 130.001 94.16 130.001 93.552ZM134.589 88.016C134.258 88.016 133.981 87.904 133.757 87.68C133.533 87.456 133.421 87.1787 133.421 86.848C133.421 86.5173 133.533 86.24 133.757 86.016C133.981 85.792 134.258 85.68 134.589 85.68C134.909 85.68 135.181 85.792 135.405 86.016C135.629 86.24 135.741 86.5173 135.741 86.848C135.741 87.1787 135.629 87.456 135.405 87.68C135.181 87.904 134.909 88.016 134.589 88.016ZM135.485 89.184V98H133.661V89.184H135.485ZM142.328 89.04C143.021 89.04 143.64 89.184 144.184 89.472C144.738 89.76 145.17 90.1867 145.48 90.752C145.789 91.3173 145.944 92 145.944 92.8V98H144.136V93.072C144.136 92.2827 143.938 91.68 143.544 91.264C143.149 90.8373 142.61 90.624 141.928 90.624C141.245 90.624 140.701 90.8373 140.296 91.264C139.901 91.68 139.704 92.2827 139.704 93.072V98H137.88V89.184H139.704V90.192C140.002 89.8293 140.381 89.5467 140.84 89.344C141.309 89.1413 141.805 89.04 142.328 89.04ZM151.822 89.04C152.505 89.04 153.108 89.1787 153.63 89.456C154.164 89.7227 154.58 90.0587 154.878 90.464V89.184H156.718V98.144C156.718 98.9547 156.548 99.6747 156.206 100.304C155.865 100.944 155.369 101.445 154.718 101.808C154.078 102.171 153.31 102.352 152.414 102.352C151.22 102.352 150.228 102.069 149.438 101.504C148.649 100.949 148.201 100.192 148.094 99.232H149.902C150.041 99.6907 150.334 100.059 150.782 100.336C151.241 100.624 151.785 100.768 152.414 100.768C153.15 100.768 153.742 100.544 154.19 100.096C154.649 99.648 154.878 98.9973 154.878 98.144V96.672C154.569 97.088 154.148 97.44 153.614 97.728C153.092 98.0053 152.494 98.144 151.822 98.144C151.054 98.144 150.35 97.952 149.71 97.568C149.081 97.1733 148.58 96.6293 148.206 95.936C147.844 95.232 147.662 94.4373 147.662 93.552C147.662 92.6667 147.844 91.8827 148.206 91.2C148.58 90.5173 149.081 89.9893 149.71 89.616C150.35 89.232 151.054 89.04 151.822 89.04ZM154.878 93.584C154.878 92.976 154.75 92.448 154.494 92C154.249 91.552 153.924 91.2107 153.518 90.976C153.113 90.7413 152.676 90.624 152.206 90.624C151.737 90.624 151.3 90.7413 150.894 90.976C150.489 91.2 150.158 91.536 149.902 91.984C149.657 92.4213 149.534 92.944 149.534 93.552C149.534 94.16 149.657 94.6933 149.902 95.152C150.158 95.6107 150.489 95.9627 150.894 96.208C151.31 96.4427 151.748 96.56 152.206 96.56C152.676 96.56 153.113 96.4427 153.518 96.208C153.924 95.9733 154.249 95.632 154.494 95.184C154.75 94.7253 154.878 94.192 154.878 93.584ZM165.094 88.352V91.616H168.934V93.104H165.094V96.512H169.414V98H163.27V86.864H169.414V88.352H165.094ZM176.109 89.04C176.802 89.04 177.421 89.184 177.965 89.472C178.52 89.76 178.952 90.1867 179.261 90.752C179.57 91.3173 179.725 92 179.725 92.8V98H177.917V93.072C177.917 92.2827 177.72 91.68 177.325 91.264C176.93 90.8373 176.392 90.624 175.709 90.624C175.026 90.624 174.482 90.8373 174.077 91.264C173.682 91.68 173.485 92.2827 173.485 93.072V98H171.661V89.184H173.485V90.192C173.784 89.8293 174.162 89.5467 174.621 89.344C175.09 89.1413 175.586 89.04 176.109 89.04ZM185.604 89.04C186.286 89.04 186.889 89.1787 187.412 89.456C187.945 89.7227 188.361 90.0587 188.66 90.464V89.184H190.5V98.144C190.5 98.9547 190.329 99.6747 189.988 100.304C189.646 100.944 189.15 101.445 188.5 101.808C187.86 102.171 187.092 102.352 186.196 102.352C185.001 102.352 184.009 102.069 183.22 101.504C182.43 100.949 181.982 100.192 181.876 99.232H183.684C183.822 99.6907 184.116 100.059 184.564 100.336C185.022 100.624 185.566 100.768 186.196 100.768C186.932 100.768 187.524 100.544 187.972 100.096C188.43 99.648 188.66 98.9973 188.66 98.144V96.672C188.35 97.088 187.929 97.44 187.396 97.728C186.873 98.0053 186.276 98.144 185.604 98.144C184.836 98.144 184.132 97.952 183.492 97.568C182.862 97.1733 182.361 96.6293 181.988 95.936C181.625 95.232 181.444 94.4373 181.444 93.552C181.444 92.6667 181.625 91.8827 181.988 91.2C182.361 90.5173 182.862 89.9893 183.492 89.616C184.132 89.232 184.836 89.04 185.604 89.04ZM188.66 93.584C188.66 92.976 188.532 92.448 188.276 92C188.03 91.552 187.705 91.2107 187.3 90.976C186.894 90.7413 186.457 90.624 185.988 90.624C185.518 90.624 185.081 90.7413 184.676 90.976C184.27 91.2 183.94 91.536 183.684 91.984C183.438 92.4213 183.316 92.944 183.316 93.552C183.316 94.16 183.438 94.6933 183.684 95.152C183.94 95.6107 184.27 95.9627 184.676 96.208C185.092 96.4427 185.529 96.56 185.988 96.56C186.457 96.56 186.894 96.4427 187.3 96.208C187.705 95.9733 188.03 95.632 188.276 95.184C188.532 94.7253 188.66 94.192 188.66 93.584ZM193.823 88.016C193.493 88.016 193.215 87.904 192.991 87.68C192.767 87.456 192.655 87.1787 192.655 86.848C192.655 86.5173 192.767 86.24 192.991 86.016C193.215 85.792 193.493 85.68 193.823 85.68C194.143 85.68 194.415 85.792 194.639 86.016C194.863 86.24 194.975 86.5173 194.975 86.848C194.975 87.1787 194.863 87.456 194.639 87.68C194.415 87.904 194.143 88.016 193.823 88.016ZM194.719 89.184V98H192.895V89.184H194.719ZM201.562 89.04C202.255 89.04 202.874 89.184 203.418 89.472C203.973 89.76 204.405 90.1867 204.714 90.752C205.023 91.3173 205.178 92 205.178 92.8V98H203.37V93.072C203.37 92.2827 203.173 91.68 202.778 91.264C202.383 90.8373 201.845 90.624 201.162 90.624C200.479 90.624 199.935 90.8373 199.53 91.264C199.135 91.68 198.938 92.2827 198.938 93.072V98H197.114V89.184H198.938V90.192C199.237 89.8293 199.615 89.5467 200.074 89.344C200.543 89.1413 201.039 89.04 201.562 89.04ZM215.585 93.376C215.585 93.7067 215.563 94.0053 215.521 94.272H208.785C208.838 94.976 209.099 95.5413 209.569 95.968C210.038 96.3947 210.614 96.608 211.297 96.608C212.278 96.608 212.971 96.1973 213.377 95.376H215.345C215.078 96.1867 214.593 96.8533 213.889 97.376C213.195 97.888 212.331 98.144 211.297 98.144C210.454 98.144 209.697 97.9573 209.025 97.584C208.363 97.2 207.841 96.6667 207.457 95.984C207.083 95.2907 206.897 94.4907 206.897 93.584C206.897 92.6773 207.078 91.8827 207.441 91.2C207.814 90.5067 208.331 89.9733 208.993 89.6C209.665 89.2267 210.433 89.04 211.297 89.04C212.129 89.04 212.87 89.2213 213.521 89.584C214.171 89.9467 214.678 90.4587 215.041 91.12C215.403 91.7707 215.585 92.5227 215.585 93.376ZM213.681 92.8C213.67 92.128 213.43 91.5893 212.961 91.184C212.491 90.7787 211.91 90.576 211.217 90.576C210.587 90.576 210.049 90.7787 209.601 91.184C209.153 91.5787 208.886 92.1173 208.801 92.8H213.681Z" fill="white"/>
</g>
<path d="M61.3171 221.086C60.5705 221.086 59.8985 220.958 59.3011 220.702C58.7038 220.435 58.2345 220.062 57.8931 219.582C57.5518 219.102 57.3811 218.542 57.3811 217.902H59.3331C59.3758 218.382 59.5625 218.777 59.8931 219.086C60.2345 219.395 60.7091 219.55 61.3171 219.55C61.9465 219.55 62.4371 219.401 62.7891 219.102C63.1411 218.793 63.3171 218.398 63.3171 217.918C63.3171 217.545 63.2051 217.241 62.9811 217.006C62.7678 216.771 62.4958 216.59 62.1651 216.462C61.8451 216.334 61.3971 216.195 60.8211 216.046C60.0958 215.854 59.5038 215.662 59.0451 215.47C58.5971 215.267 58.2131 214.958 57.8931 214.542C57.5731 214.126 57.4131 213.571 57.4131 212.878C57.4131 212.238 57.5731 211.678 57.8931 211.198C58.2131 210.718 58.6611 210.35 59.2371 210.094C59.8131 209.838 60.4798 209.71 61.2371 209.71C62.3145 209.71 63.1945 209.982 63.8771 210.526C64.5705 211.059 64.9545 211.795 65.0291 212.734H63.0131C62.9811 212.329 62.7891 211.982 62.4371 211.694C62.0851 211.406 61.6211 211.262 61.0451 211.262C60.5225 211.262 60.0958 211.395 59.7651 211.662C59.4345 211.929 59.2691 212.313 59.2691 212.814C59.2691 213.155 59.3705 213.438 59.5731 213.662C59.7865 213.875 60.0531 214.046 60.3731 214.174C60.6931 214.302 61.1305 214.441 61.6851 214.59C62.4211 214.793 63.0185 214.995 63.4771 215.198C63.9465 215.401 64.3411 215.715 64.6611 216.142C64.9918 216.558 65.1571 217.118 65.1571 217.822C65.1571 218.387 65.0025 218.921 64.6931 219.422C64.3945 219.923 63.9518 220.329 63.3651 220.638C62.7891 220.937 62.1065 221.086 61.3171 221.086ZM69.4374 213.646V218.526C69.4374 218.857 69.512 219.097 69.6614 219.246C69.8214 219.385 70.088 219.454 70.4614 219.454H71.5814V220.974H70.1414C69.32 220.974 68.6907 220.782 68.2534 220.398C67.816 220.014 67.5974 219.39 67.5974 218.526V213.646H66.5574V212.158H67.5974V209.966H69.4374V212.158H71.5814V213.646H69.4374ZM72.6545 216.526C72.6545 215.641 72.8358 214.857 73.1985 214.174C73.5718 213.491 74.0732 212.963 74.7025 212.59C75.3425 212.206 76.0465 212.014 76.8145 212.014C77.5078 212.014 78.1105 212.153 78.6225 212.43C79.1452 212.697 79.5612 213.033 79.8705 213.438V212.158H81.7105V220.974H79.8705V219.662C79.5612 220.078 79.1398 220.425 78.6065 220.702C78.0732 220.979 77.4652 221.118 76.7825 221.118C76.0252 221.118 75.3318 220.926 74.7025 220.542C74.0732 220.147 73.5718 219.603 73.1985 218.91C72.8358 218.206 72.6545 217.411 72.6545 216.526ZM79.8705 216.558C79.8705 215.95 79.7425 215.422 79.4865 214.974C79.2412 214.526 78.9158 214.185 78.5105 213.95C78.1052 213.715 77.6678 213.598 77.1985 213.598C76.7292 213.598 76.2918 213.715 75.8865 213.95C75.4812 214.174 75.1505 214.51 74.8945 214.958C74.6492 215.395 74.5265 215.918 74.5265 216.526C74.5265 217.134 74.6492 217.667 74.8945 218.126C75.1505 218.585 75.4812 218.937 75.8865 219.182C76.3025 219.417 76.7398 219.534 77.1985 219.534C77.6678 219.534 78.1052 219.417 78.5105 219.182C78.9158 218.947 79.2412 218.606 79.4865 218.158C79.7425 217.699 79.8705 217.166 79.8705 216.558ZM88.5543 212.014C89.2476 212.014 89.8663 212.158 90.4103 212.446C90.9649 212.734 91.3969 213.161 91.7063 213.726C92.0156 214.291 92.1703 214.974 92.1703 215.774V220.974H90.3623V216.046C90.3623 215.257 90.1649 214.654 89.7703 214.238C89.3756 213.811 88.8369 213.598 88.1543 213.598C87.4716 213.598 86.9276 213.811 86.5223 214.238C86.1276 214.654 85.9303 215.257 85.9303 216.046V220.974H84.1063V212.158H85.9303V213.166C86.2289 212.803 86.6076 212.521 87.0663 212.318C87.5356 212.115 88.0316 212.014 88.5543 212.014ZM93.8889 216.526C93.8889 215.641 94.0702 214.857 94.4329 214.174C94.8062 213.491 95.3075 212.963 95.9369 212.59C96.5769 212.206 97.2862 212.014 98.0649 212.014C98.6409 212.014 99.2062 212.142 99.7609 212.398C100.326 212.643 100.774 212.974 101.105 213.39V209.134H102.945V220.974H101.105V219.646C100.806 220.073 100.39 220.425 99.8569 220.702C99.3342 220.979 98.7315 221.118 98.0489 221.118C97.2809 221.118 96.5769 220.926 95.9369 220.542C95.3075 220.147 94.8062 219.603 94.4329 218.91C94.0702 218.206 93.8889 217.411 93.8889 216.526ZM101.105 216.558C101.105 215.95 100.977 215.422 100.721 214.974C100.476 214.526 100.15 214.185 99.7449 213.95C99.3395 213.715 98.9022 213.598 98.4329 213.598C97.9635 213.598 97.5262 213.715 97.1209 213.95C96.7155 214.174 96.3849 214.51 96.1289 214.958C95.8835 215.395 95.7609 215.918 95.7609 216.526C95.7609 217.134 95.8835 217.667 96.1289 218.126C96.3849 218.585 96.7155 218.937 97.1209 219.182C97.5369 219.417 97.9742 219.534 98.4329 219.534C98.9022 219.534 99.3395 219.417 99.7449 219.182C100.15 218.947 100.476 218.606 100.721 218.158C100.977 217.699 101.105 217.166 101.105 216.558ZM104.733 216.526C104.733 215.641 104.914 214.857 105.277 214.174C105.65 213.491 106.151 212.963 106.781 212.59C107.421 212.206 108.125 212.014 108.893 212.014C109.586 212.014 110.189 212.153 110.701 212.43C111.223 212.697 111.639 213.033 111.949 213.438V212.158H113.789V220.974H111.949V219.662C111.639 220.078 111.218 220.425 110.685 220.702C110.151 220.979 109.543 221.118 108.861 221.118C108.103 221.118 107.41 220.926 106.781 220.542C106.151 220.147 105.65 219.603 105.277 218.91C104.914 218.206 104.733 217.411 104.733 216.526ZM111.949 216.558C111.949 215.95 111.821 215.422 111.565 214.974C111.319 214.526 110.994 214.185 110.589 213.95C110.183 213.715 109.746 213.598 109.277 213.598C108.807 213.598 108.37 213.715 107.965 213.95C107.559 214.174 107.229 214.51 106.973 214.958C106.727 215.395 106.605 215.918 106.605 216.526C106.605 217.134 106.727 217.667 106.973 218.126C107.229 218.585 107.559 218.937 107.965 219.182C108.381 219.417 108.818 219.534 109.277 219.534C109.746 219.534 110.183 219.417 110.589 219.182C110.994 218.947 111.319 218.606 111.565 218.158C111.821 217.699 111.949 217.166 111.949 216.558ZM118.008 213.438C118.275 212.99 118.627 212.643 119.064 212.398C119.512 212.142 120.04 212.014 120.648 212.014V213.902H120.184C119.47 213.902 118.926 214.083 118.552 214.446C118.19 214.809 118.008 215.438 118.008 216.334V220.974H116.184V212.158H118.008V213.438ZM121.717 216.526C121.717 215.641 121.898 214.857 122.261 214.174C122.634 213.491 123.136 212.963 123.765 212.59C124.405 212.206 125.114 212.014 125.893 212.014C126.469 212.014 127.034 212.142 127.589 212.398C128.154 212.643 128.602 212.974 128.933 213.39V209.134H130.773V220.974H128.933V219.646C128.634 220.073 128.218 220.425 127.685 220.702C127.162 220.979 126.56 221.118 125.877 221.118C125.109 221.118 124.405 220.926 123.765 220.542C123.136 220.147 122.634 219.603 122.261 218.91C121.898 218.206 121.717 217.411 121.717 216.526ZM128.933 216.558C128.933 215.95 128.805 215.422 128.549 214.974C128.304 214.526 127.978 214.185 127.573 213.95C127.168 213.715 126.73 213.598 126.261 213.598C125.792 213.598 125.354 213.715 124.949 213.95C124.544 214.174 124.213 214.51 123.957 214.958C123.712 215.395 123.589 215.918 123.589 216.526C123.589 217.134 123.712 217.667 123.957 218.126C124.213 218.585 124.544 218.937 124.949 219.182C125.365 219.417 125.802 219.534 126.261 219.534C126.73 219.534 127.168 219.417 127.573 219.182C127.978 218.947 128.304 218.606 128.549 218.158C128.805 217.699 128.933 217.166 128.933 216.558ZM134.097 210.99C133.766 210.99 133.489 210.878 133.265 210.654C133.041 210.43 132.929 210.153 132.929 209.822C132.929 209.491 133.041 209.214 133.265 208.99C133.489 208.766 133.766 208.654 134.097 208.654C134.417 208.654 134.689 208.766 134.913 208.99C135.137 209.214 135.249 209.491 135.249 209.822C135.249 210.153 135.137 210.43 134.913 210.654C134.689 210.878 134.417 210.99 134.097 210.99ZM134.993 212.158V220.974H133.169V212.158H134.993ZM139.004 219.486H143.004V220.974H136.892V219.486L140.908 213.646H136.892V212.158H143.004V213.646L139.004 219.486ZM152.999 216.35C152.999 216.681 152.977 216.979 152.935 217.246H146.199C146.252 217.95 146.513 218.515 146.983 218.942C147.452 219.369 148.028 219.582 148.711 219.582C149.692 219.582 150.385 219.171 150.791 218.35H152.759C152.492 219.161 152.007 219.827 151.303 220.35C150.609 220.862 149.745 221.118 148.711 221.118C147.868 221.118 147.111 220.931 146.439 220.558C145.777 220.174 145.255 219.641 144.871 218.958C144.497 218.265 144.311 217.465 144.311 216.558C144.311 215.651 144.492 214.857 144.855 214.174C145.228 213.481 145.745 212.947 146.407 212.574C147.079 212.201 147.847 212.014 148.711 212.014C149.543 212.014 150.284 212.195 150.935 212.558C151.585 212.921 152.092 213.433 152.455 214.094C152.817 214.745 152.999 215.497 152.999 216.35ZM151.095 215.774C151.084 215.102 150.844 214.563 150.375 214.158C149.905 213.753 149.324 213.55 148.631 213.55C148.001 213.55 147.463 213.753 147.015 214.158C146.567 214.553 146.3 215.091 146.215 215.774H151.095ZM154.186 216.526C154.186 215.641 154.367 214.857 154.73 214.174C155.103 213.491 155.604 212.963 156.234 212.59C156.874 212.206 157.583 212.014 158.362 212.014C158.938 212.014 159.503 212.142 160.058 212.398C160.623 212.643 161.071 212.974 161.402 213.39V209.134H163.242V220.974H161.402V219.646C161.103 220.073 160.687 220.425 160.154 220.702C159.631 220.979 159.028 221.118 158.346 221.118C157.578 221.118 156.874 220.926 156.234 220.542C155.604 220.147 155.103 219.603 154.73 218.91C154.367 218.206 154.186 217.411 154.186 216.526ZM161.402 216.558C161.402 215.95 161.274 215.422 161.018 214.974C160.772 214.526 160.447 214.185 160.042 213.95C159.636 213.715 159.199 213.598 158.73 213.598C158.26 213.598 157.823 213.715 157.418 213.95C157.012 214.174 156.682 214.51 156.426 214.958C156.18 215.395 156.058 215.918 156.058 216.526C156.058 217.134 156.18 217.667 156.426 218.126C156.682 218.585 157.012 218.937 157.418 219.182C157.834 219.417 158.271 219.534 158.73 219.534C159.199 219.534 159.636 219.417 160.042 219.182C160.447 218.947 160.772 218.606 161.018 218.158C161.274 217.699 161.402 217.166 161.402 216.558ZM176.338 209.854V211.342H171.618V214.622H175.298V216.11H171.618V220.974H169.794V209.854H176.338ZM178.956 210.99C178.625 210.99 178.348 210.878 178.124 210.654C177.9 210.43 177.788 210.153 177.788 209.822C177.788 209.491 177.9 209.214 178.124 208.99C178.348 208.766 178.625 208.654 178.956 208.654C179.276 208.654 179.548 208.766 179.772 208.99C179.996 209.214 180.108 209.491 180.108 209.822C180.108 210.153 179.996 210.43 179.772 210.654C179.548 210.878 179.276 210.99 178.956 210.99ZM179.852 212.158V220.974H178.028V212.158H179.852ZM186.695 212.014C187.388 212.014 188.007 212.158 188.551 212.446C189.106 212.734 189.538 213.161 189.847 213.726C190.156 214.291 190.311 214.974 190.311 215.774V220.974H188.503V216.046C188.503 215.257 188.306 214.654 187.911 214.238C187.516 213.811 186.978 213.598 186.295 213.598C185.612 213.598 185.068 213.811 184.663 214.238C184.268 214.654 184.071 215.257 184.071 216.046V220.974H182.247V212.158H184.071V213.166C184.37 212.803 184.748 212.521 185.207 212.318C185.676 212.115 186.172 212.014 186.695 212.014ZM192.03 216.526C192.03 215.641 192.211 214.857 192.574 214.174C192.947 213.491 193.448 212.963 194.078 212.59C194.718 212.206 195.422 212.014 196.19 212.014C196.883 212.014 197.486 212.153 197.998 212.43C198.52 212.697 198.936 213.033 199.246 213.438V212.158H201.086V220.974H199.246V219.662C198.936 220.078 198.515 220.425 197.982 220.702C197.448 220.979 196.84 221.118 196.158 221.118C195.4 221.118 194.707 220.926 194.078 220.542C193.448 220.147 192.947 219.603 192.574 218.91C192.211 218.206 192.03 217.411 192.03 216.526ZM199.246 216.558C199.246 215.95 199.118 215.422 198.862 214.974C198.616 214.526 198.291 214.185 197.886 213.95C197.48 213.715 197.043 213.598 196.574 213.598C196.104 213.598 195.667 213.715 195.262 213.95C194.856 214.174 194.526 214.51 194.27 214.958C194.024 215.395 193.902 215.918 193.902 216.526C193.902 217.134 194.024 217.667 194.27 218.126C194.526 218.585 194.856 218.937 195.262 219.182C195.678 219.417 196.115 219.534 196.574 219.534C197.043 219.534 197.48 219.417 197.886 219.182C198.291 218.947 198.616 218.606 198.862 218.158C199.118 217.699 199.246 217.166 199.246 216.558ZM207.929 212.014C208.623 212.014 209.241 212.158 209.785 212.446C210.34 212.734 210.772 213.161 211.081 213.726C211.391 214.291 211.545 214.974 211.545 215.774V220.974H209.737V216.046C209.737 215.257 209.54 214.654 209.145 214.238C208.751 213.811 208.212 213.598 207.529 213.598C206.847 213.598 206.303 213.811 205.897 214.238C205.503 214.654 205.305 215.257 205.305 216.046V220.974H203.481V212.158H205.305V213.166C205.604 212.803 205.983 212.521 206.441 212.318C206.911 212.115 207.407 212.014 207.929 212.014ZM213.264 216.558C213.264 215.651 213.445 214.857 213.808 214.174C214.181 213.481 214.693 212.947 215.344 212.574C215.995 212.201 216.741 212.014 217.584 212.014C218.651 212.014 219.531 212.27 220.224 212.782C220.928 213.283 221.403 214.003 221.648 214.942H219.68C219.52 214.505 219.264 214.163 218.912 213.918C218.56 213.673 218.117 213.55 217.584 213.55C216.837 213.55 216.24 213.817 215.792 214.35C215.355 214.873 215.136 215.609 215.136 216.558C215.136 217.507 215.355 218.249 215.792 218.782C216.24 219.315 216.837 219.582 217.584 219.582C218.64 219.582 219.339 219.118 219.68 218.19H221.648C221.392 219.086 220.912 219.801 220.208 220.334C219.504 220.857 218.629 221.118 217.584 221.118C216.741 221.118 215.995 220.931 215.344 220.558C214.693 220.174 214.181 219.641 213.808 218.958C213.445 218.265 213.264 217.465 213.264 216.558ZM224.394 210.99C224.063 210.99 223.786 210.878 223.562 210.654C223.338 210.43 223.226 210.153 223.226 209.822C223.226 209.491 223.338 209.214 223.562 208.99C223.786 208.766 224.063 208.654 224.394 208.654C224.714 208.654 224.986 208.766 225.21 208.99C225.434 209.214 225.546 209.491 225.546 209.822C225.546 210.153 225.434 210.43 225.21 210.654C224.986 210.878 224.714 210.99 224.394 210.99ZM225.29 212.158V220.974H223.466V212.158H225.29ZM227.076 216.526C227.076 215.641 227.258 214.857 227.62 214.174C227.994 213.491 228.495 212.963 229.124 212.59C229.764 212.206 230.468 212.014 231.236 212.014C231.93 212.014 232.532 212.153 233.044 212.43C233.567 212.697 233.983 213.033 234.292 213.438V212.158H236.132V220.974H234.292V219.662C233.983 220.078 233.562 220.425 233.028 220.702C232.495 220.979 231.887 221.118 231.204 221.118C230.447 221.118 229.754 220.926 229.124 220.542C228.495 220.147 227.994 219.603 227.62 218.91C227.258 218.206 227.076 217.411 227.076 216.526ZM234.292 216.558C234.292 215.95 234.164 215.422 233.908 214.974C233.663 214.526 233.338 214.185 232.932 213.95C232.527 213.715 232.09 213.598 231.62 213.598C231.151 213.598 230.714 213.715 230.308 213.95C229.903 214.174 229.572 214.51 229.316 214.958C229.071 215.395 228.948 215.918 228.948 216.526C228.948 217.134 229.071 217.667 229.316 218.126C229.572 218.585 229.903 218.937 230.308 219.182C230.724 219.417 231.162 219.534 231.62 219.534C232.09 219.534 232.527 219.417 232.932 219.182C233.338 218.947 233.663 218.606 233.908 218.158C234.164 217.699 234.292 217.166 234.292 216.558ZM240.352 209.134V220.974H238.528V209.134H240.352ZM95.9448 242.974L93.3848 238.526H91.9928V242.974H90.1688V231.854H94.0088C94.8621 231.854 95.5821 232.003 96.1688 232.302C96.7661 232.601 97.2088 233.001 97.4968 233.502C97.7954 234.003 97.9448 234.563 97.9448 235.182C97.9448 235.907 97.7314 236.569 97.3048 237.166C96.8888 237.753 96.2434 238.153 95.3688 238.366L98.1208 242.974H95.9448ZM91.9928 237.07H94.0088C94.6914 237.07 95.2034 236.899 95.5448 236.558C95.8968 236.217 96.0728 235.758 96.0728 235.182C96.0728 234.606 95.9021 234.158 95.5608 233.838C95.2194 233.507 94.7021 233.342 94.0088 233.342H91.9928V237.07ZM108.358 238.35C108.358 238.681 108.337 238.979 108.294 239.246H101.558C101.611 239.95 101.873 240.515 102.342 240.942C102.811 241.369 103.387 241.582 104.07 241.582C105.051 241.582 105.745 241.171 106.15 240.35H108.118C107.851 241.161 107.366 241.827 106.662 242.35C105.969 242.862 105.105 243.118 104.07 243.118C103.227 243.118 102.47 242.931 101.798 242.558C101.137 242.174 100.614 241.641 100.23 240.958C99.8568 240.265 99.6701 239.465 99.6701 238.558C99.6701 237.651 99.8515 236.857 100.214 236.174C100.587 235.481 101.105 234.947 101.766 234.574C102.438 234.201 103.206 234.014 104.07 234.014C104.902 234.014 105.643 234.195 106.294 234.558C106.945 234.921 107.451 235.433 107.814 236.094C108.177 236.745 108.358 237.497 108.358 238.35ZM106.454 237.774C106.443 237.102 106.203 236.563 105.734 236.158C105.265 235.753 104.683 235.55 103.99 235.55C103.361 235.55 102.822 235.753 102.374 236.158C101.926 236.553 101.659 237.091 101.574 237.774H106.454ZM109.545 238.558C109.545 237.651 109.726 236.857 110.089 236.174C110.462 235.481 110.974 234.947 111.625 234.574C112.276 234.201 113.022 234.014 113.865 234.014C114.932 234.014 115.812 234.27 116.505 234.782C117.209 235.283 117.684 236.003 117.929 236.942H115.961C115.801 236.505 115.545 236.163 115.193 235.918C114.841 235.673 114.398 235.55 113.865 235.55C113.118 235.55 112.521 235.817 112.073 236.35C111.636 236.873 111.417 237.609 111.417 238.558C111.417 239.507 111.636 240.249 112.073 240.782C112.521 241.315 113.118 241.582 113.865 241.582C114.921 241.582 115.62 241.118 115.961 240.19H117.929C117.673 241.086 117.193 241.801 116.489 242.334C115.785 242.857 114.91 243.118 113.865 243.118C113.022 243.118 112.276 242.931 111.625 242.558C110.974 242.174 110.462 241.641 110.089 240.958C109.726 240.265 109.545 239.465 109.545 238.558ZM123.571 243.118C122.739 243.118 121.987 242.931 121.315 242.558C120.643 242.174 120.115 241.641 119.731 240.958C119.347 240.265 119.155 239.465 119.155 238.558C119.155 237.662 119.352 236.867 119.747 236.174C120.142 235.481 120.68 234.947 121.363 234.574C122.046 234.201 122.808 234.014 123.651 234.014C124.494 234.014 125.256 234.201 125.939 234.574C126.622 234.947 127.16 235.481 127.555 236.174C127.95 236.867 128.147 237.662 128.147 238.558C128.147 239.454 127.944 240.249 127.539 240.942C127.134 241.635 126.579 242.174 125.875 242.558C125.182 242.931 124.414 243.118 123.571 243.118ZM123.571 241.534C124.04 241.534 124.478 241.422 124.883 241.198C125.299 240.974 125.635 240.638 125.891 240.19C126.147 239.742 126.275 239.198 126.275 238.558C126.275 237.918 126.152 237.379 125.907 236.942C125.662 236.494 125.336 236.158 124.931 235.934C124.526 235.71 124.088 235.598 123.619 235.598C123.15 235.598 122.712 235.71 122.307 235.934C121.912 236.158 121.598 236.494 121.363 236.942C121.128 237.379 121.011 237.918 121.011 238.558C121.011 239.507 121.251 240.243 121.731 240.766C122.222 241.278 122.835 241.534 123.571 241.534ZM131.774 235.438C132.041 234.99 132.393 234.643 132.83 234.398C133.278 234.142 133.806 234.014 134.414 234.014V235.902H133.95C133.235 235.902 132.691 236.083 132.318 236.446C131.955 236.809 131.774 237.438 131.774 238.334V242.974H129.95V234.158H131.774V235.438ZM135.483 238.526C135.483 237.641 135.664 236.857 136.027 236.174C136.4 235.491 136.901 234.963 137.531 234.59C138.171 234.206 138.88 234.014 139.659 234.014C140.235 234.014 140.8 234.142 141.355 234.398C141.92 234.643 142.368 234.974 142.699 235.39V231.134H144.539V242.974H142.699V241.646C142.4 242.073 141.984 242.425 141.451 242.702C140.928 242.979 140.325 243.118 139.643 243.118C138.875 243.118 138.171 242.926 137.531 242.542C136.901 242.147 136.4 241.603 136.027 240.91C135.664 240.206 135.483 239.411 135.483 238.526ZM142.699 238.558C142.699 237.95 142.571 237.422 142.315 236.974C142.069 236.526 141.744 236.185 141.339 235.95C140.933 235.715 140.496 235.598 140.027 235.598C139.557 235.598 139.12 235.715 138.715 235.95C138.309 236.174 137.979 236.51 137.723 236.958C137.477 237.395 137.355 237.918 137.355 238.526C137.355 239.134 137.477 239.667 137.723 240.126C137.979 240.585 138.309 240.937 138.715 241.182C139.131 241.417 139.568 241.534 140.027 241.534C140.496 241.534 140.933 241.417 141.339 241.182C141.744 240.947 142.069 240.606 142.315 240.158C142.571 239.699 142.699 239.166 142.699 238.558ZM159.139 235.054C158.851 234.499 158.451 234.083 157.939 233.806C157.427 233.518 156.835 233.374 156.163 233.374C155.427 233.374 154.771 233.539 154.195 233.87C153.619 234.201 153.165 234.67 152.835 235.278C152.515 235.886 152.355 236.59 152.355 237.39C152.355 238.19 152.515 238.899 152.835 239.518C153.165 240.126 153.619 240.595 154.195 240.926C154.771 241.257 155.427 241.422 156.163 241.422C157.155 241.422 157.96 241.145 158.579 240.59C159.197 240.035 159.576 239.283 159.715 238.334H155.539V236.878H161.667V238.302C161.549 239.166 161.24 239.961 160.739 240.686C160.248 241.411 159.603 241.993 158.803 242.43C158.013 242.857 157.133 243.07 156.163 243.07C155.117 243.07 154.163 242.83 153.299 242.35C152.435 241.859 151.747 241.182 151.235 240.318C150.733 239.454 150.483 238.478 150.483 237.39C150.483 236.302 150.733 235.326 151.235 234.462C151.747 233.598 152.435 232.926 153.299 232.446C154.173 231.955 155.128 231.71 156.163 231.71C157.347 231.71 158.397 232.003 159.315 232.59C160.243 233.166 160.915 233.987 161.331 235.054H159.139ZM165.29 235.438C165.556 234.99 165.908 234.643 166.346 234.398C166.794 234.142 167.322 234.014 167.93 234.014V235.902H167.466C166.751 235.902 166.207 236.083 165.834 236.446C165.471 236.809 165.29 237.438 165.29 238.334V242.974H163.466V234.158H165.29V235.438ZM168.998 238.526C168.998 237.641 169.18 236.857 169.542 236.174C169.916 235.491 170.417 234.963 171.046 234.59C171.686 234.206 172.39 234.014 173.158 234.014C173.852 234.014 174.454 234.153 174.966 234.43C175.489 234.697 175.905 235.033 176.214 235.438V234.158H178.054V242.974H176.214V241.662C175.905 242.078 175.484 242.425 174.95 242.702C174.417 242.979 173.809 243.118 173.126 243.118C172.369 243.118 171.676 242.926 171.046 242.542C170.417 242.147 169.916 241.603 169.542 240.91C169.18 240.206 168.998 239.411 168.998 238.526ZM176.214 238.558C176.214 237.95 176.086 237.422 175.83 236.974C175.585 236.526 175.26 236.185 174.854 235.95C174.449 235.715 174.012 235.598 173.542 235.598C173.073 235.598 172.636 235.715 172.23 235.95C171.825 236.174 171.494 236.51 171.238 236.958C170.993 237.395 170.87 237.918 170.87 238.526C170.87 239.134 170.993 239.667 171.238 240.126C171.494 240.585 171.825 240.937 172.23 241.182C172.646 241.417 173.084 241.534 173.542 241.534C174.012 241.534 174.449 241.417 174.854 241.182C175.26 240.947 175.585 240.606 175.83 240.158C176.086 239.699 176.214 239.166 176.214 238.558ZM182.274 235.454C182.583 235.049 183.005 234.707 183.538 234.43C184.071 234.153 184.674 234.014 185.346 234.014C186.114 234.014 186.813 234.206 187.442 234.59C188.082 234.963 188.583 235.491 188.946 236.174C189.309 236.857 189.49 237.641 189.49 238.526C189.49 239.411 189.309 240.206 188.946 240.91C188.583 241.603 188.082 242.147 187.442 242.542C186.813 242.926 186.114 243.118 185.346 243.118C184.674 243.118 184.077 242.985 183.554 242.718C183.031 242.441 182.605 242.099 182.274 241.694V247.166H180.45V234.158H182.274V235.454ZM187.634 238.526C187.634 237.918 187.506 237.395 187.25 236.958C187.005 236.51 186.674 236.174 186.258 235.95C185.853 235.715 185.415 235.598 184.946 235.598C184.487 235.598 184.05 235.715 183.634 235.95C183.229 236.185 182.898 236.526 182.642 236.974C182.397 237.422 182.274 237.95 182.274 238.558C182.274 239.166 182.397 239.699 182.642 240.158C182.898 240.606 183.229 240.947 183.634 241.182C184.05 241.417 184.487 241.534 184.946 241.534C185.415 241.534 185.853 241.417 186.258 241.182C186.674 240.937 187.005 240.585 187.25 240.126C187.506 239.667 187.634 239.134 187.634 238.526ZM195.854 234.014C196.526 234.014 197.123 234.158 197.646 234.446C198.179 234.734 198.595 235.161 198.894 235.726C199.203 236.291 199.358 236.974 199.358 237.774V242.974H197.55V238.046C197.55 237.257 197.352 236.654 196.958 236.238C196.563 235.811 196.024 235.598 195.342 235.598C194.659 235.598 194.115 235.811 193.71 236.238C193.315 236.654 193.118 237.257 193.118 238.046V242.974H191.294V231.134H193.118V235.182C193.427 234.809 193.816 234.521 194.286 234.318C194.766 234.115 195.288 234.014 195.854 234.014ZM204.884 243.118C204.191 243.118 203.567 242.995 203.012 242.75C202.468 242.494 202.036 242.153 201.716 241.726C201.396 241.289 201.226 240.803 201.204 240.27H203.092C203.124 240.643 203.3 240.958 203.62 241.214C203.951 241.459 204.362 241.582 204.852 241.582C205.364 241.582 205.759 241.486 206.036 241.294C206.324 241.091 206.468 240.835 206.468 240.526C206.468 240.195 206.308 239.95 205.988 239.79C205.679 239.63 205.183 239.454 204.5 239.262C203.839 239.081 203.3 238.905 202.884 238.734C202.468 238.563 202.106 238.302 201.796 237.95C201.498 237.598 201.348 237.134 201.348 236.558C201.348 236.089 201.487 235.662 201.764 235.278C202.042 234.883 202.436 234.574 202.948 234.35C203.471 234.126 204.068 234.014 204.74 234.014C205.743 234.014 206.548 234.27 207.156 234.782C207.775 235.283 208.106 235.971 208.148 236.846H206.324C206.292 236.451 206.132 236.137 205.844 235.902C205.556 235.667 205.167 235.55 204.676 235.55C204.196 235.55 203.828 235.641 203.572 235.822C203.316 236.003 203.188 236.243 203.188 236.542C203.188 236.777 203.274 236.974 203.444 237.134C203.615 237.294 203.823 237.422 204.068 237.518C204.314 237.603 204.676 237.715 205.156 237.854C205.796 238.025 206.319 238.201 206.724 238.382C207.14 238.553 207.498 238.809 207.796 239.15C208.095 239.491 208.25 239.945 208.26 240.51C208.26 241.011 208.122 241.459 207.844 241.854C207.567 242.249 207.172 242.558 206.66 242.782C206.159 243.006 205.567 243.118 204.884 243.118Z" fill="#ABAECD"/>
<path opacity="0.2" fill-rule="evenodd" clip-rule="evenodd" d="M168 119.974L168 182.974L136 182.974L136 119.974L168 119.974Z" fill="url(#paint1_linear_7111_9531)"/>
<circle cx="151.535" cy="137.974" r="3" transform="rotate(90 151.535 137.974)" fill="#A2CB94"/>
<circle cx="151.535" cy="27.9741" r="3" transform="rotate(90 151.535 27.9741)" fill="#A2CB94"/>
<circle opacity="0.5" cx="151.535" cy="167.974" r="3" transform="rotate(90 151.535 167.974)" fill="#A2CB94"/>
<path opacity="0.7" d="M268.75 356.974V385.727C268.75 386.831 267.855 387.727 266.75 387.727H195.25C194.145 387.727 193.25 386.831 193.25 385.727V356.974" stroke="url(#paint2_linear_7111_9531)" stroke-width="2"/>
<path opacity="0.75" d="M183 399.974L183 363.974" stroke="url(#paint3_linear_7111_9531)" stroke-width="2"/>
<circle r="6.375" transform="matrix(-1 0 0 1 230.375 388.349)" fill="url(#paint4_linear_7111_9531)"/>
<path opacity="0.7" d="M268.75 314.724V285.972C268.75 284.867 267.855 283.972 266.75 283.972H195.25C194.145 283.972 193.25 284.867 193.25 285.972V314.724" stroke="url(#paint5_linear_7111_9531)" stroke-width="2"/>
<circle cx="229.625" cy="283.349" r="6.375" transform="rotate(-180 229.625 283.349)" fill="url(#paint6_linear_7111_9531)"/>
<circle r="6.375" transform="matrix(-1 0 0 1 183.375 405.349)" fill="url(#paint7_linear_7111_9531)"/>
<path opacity="0.72" d="M31 356.974V385.727C31 386.831 31.8954 387.727 33 387.727H104.5C105.605 387.727 106.5 386.831 106.5 385.727V356.974" stroke="url(#paint8_linear_7111_9531)" stroke-width="2"/>
<path opacity="0.56" d="M117 399.974L117 366.974" stroke="url(#paint9_linear_7111_9531)" stroke-width="2"/>
<path opacity="0.7" d="M106.5 276.974V307.727" stroke="url(#paint10_linear_7111_9531)" stroke-width="2"/>
<path opacity="0.7" d="M117 305.727V284.974C117 283.87 117.895 282.974 119 282.974H136.5" stroke="url(#paint11_linear_7111_9531)" stroke-width="2"/>
<path d="M79.5 336.974H55.5" stroke="url(#paint12_linear_7111_9531)" stroke-width="2"/>
<g opacity="0.4">
<path d="M158 336.974H134" stroke="#4680B5" stroke-width="2"/>
<path d="M158 336.974H134" stroke="url(#paint13_linear_7111_9531)" stroke-width="2"/>
</g>
<g opacity="0.4">
<path d="M237 336.974H213" stroke="#4680B5" stroke-width="2"/>
<path d="M237 336.974H213" stroke="url(#paint14_linear_7111_9531)" stroke-width="2"/>
</g>
<circle cx="31.375" cy="388.349" r="6.375" fill="url(#paint15_linear_7111_9531)"/>
<circle cx="106.375" cy="388.349" r="6.375" fill="url(#paint16_linear_7111_9531)"/>
<circle cx="106.375" cy="272.349" r="6.375" fill="url(#paint17_linear_7111_9531)"/>
<circle cx="117.375" cy="405.349" r="6.375" fill="url(#paint18_linear_7111_9531)"/>
<circle cx="118.375" cy="284.349" r="6.375" fill="url(#paint19_linear_7111_9531)"/>
<circle cx="142.375" cy="284.349" r="6.375" fill="url(#paint20_linear_7111_9531)"/>
<circle cx="32.5" cy="336.474" r="32.5" fill="url(#paint21_linear_7111_9531)"/>
<path d="M9.315 336.824C9.315 336.206 9.453 335.654 9.729 335.168C10.011 334.676 10.392 334.295 10.872 334.025C11.358 333.749 11.901 333.611 12.501 333.611C13.203 333.611 13.818 333.791 14.346 334.151C14.874 334.511 15.243 335.009 15.453 335.645H14.004C13.86 335.345 13.656 335.12 13.392 334.97C13.134 334.82 12.834 334.745 12.492 334.745C12.126 334.745 11.799 334.832 11.511 335.006C11.229 335.174 11.007 335.414 10.845 335.726C10.689 336.038 10.611 336.404 10.611 336.824C10.611 337.238 10.689 337.604 10.845 337.922C11.007 338.234 11.229 338.477 11.511 338.651C11.799 338.819 12.126 338.903 12.492 338.903C12.834 338.903 13.134 338.828 13.392 338.678C13.656 338.522 13.86 338.294 14.004 337.994H15.453C15.243 338.636 14.874 339.137 14.346 339.497C13.824 339.851 13.209 340.028 12.501 340.028C11.901 340.028 11.358 339.893 10.872 339.623C10.392 339.347 10.011 338.966 9.729 338.48C9.453 337.994 9.315 337.442 9.315 336.824ZM21.2362 334.988V339.974H19.9672V339.344C19.8052 339.56 19.5922 339.731 19.3282 339.857C19.0702 339.977 18.7882 340.037 18.4822 340.037C18.0922 340.037 17.7472 339.956 17.4472 339.794C17.1472 339.626 16.9102 339.383 16.7362 339.065C16.5682 338.741 16.4842 338.357 16.4842 337.913V334.988H17.7442V337.733C17.7442 338.129 17.8432 338.435 18.0412 338.651C18.2392 338.861 18.5092 338.966 18.8512 338.966C19.1992 338.966 19.4722 338.861 19.6702 338.651C19.8682 338.435 19.9672 338.129 19.9672 337.733V334.988H21.2362ZM24.3874 340.055C23.9794 340.055 23.6134 339.983 23.2894 339.839C22.9654 339.689 22.7074 339.488 22.5154 339.236C22.3294 338.984 22.2274 338.705 22.2094 338.399H23.4784C23.5024 338.591 23.5954 338.75 23.7574 338.876C23.9254 339.002 24.1324 339.065 24.3784 339.065C24.6184 339.065 24.8044 339.017 24.9364 338.921C25.0744 338.825 25.1434 338.702 25.1434 338.552C25.1434 338.39 25.0594 338.27 24.8914 338.192C24.7294 338.108 24.4684 338.018 24.1084 337.922C23.7364 337.832 23.4304 337.739 23.1904 337.643C22.9564 337.547 22.7524 337.4 22.5784 337.202C22.4104 337.004 22.3264 336.737 22.3264 336.401C22.3264 336.125 22.4044 335.873 22.5604 335.645C22.7224 335.417 22.9504 335.237 23.2444 335.105C23.5444 334.973 23.8954 334.907 24.2974 334.907C24.8914 334.907 25.3654 335.057 25.7194 335.357C26.0734 335.651 26.2684 336.05 26.3044 336.554H25.0984C25.0804 336.356 24.9964 336.2 24.8464 336.086C24.7024 335.966 24.5074 335.906 24.2614 335.906C24.0334 335.906 23.8564 335.948 23.7304 336.032C23.6104 336.116 23.5504 336.233 23.5504 336.383C23.5504 336.551 23.6344 336.68 23.8024 336.77C23.9704 336.854 24.2314 336.941 24.5854 337.031C24.9454 337.121 25.2424 337.214 25.4764 337.31C25.7104 337.406 25.9114 337.556 26.0794 337.76C26.2534 337.958 26.3434 338.222 26.3494 338.552C26.3494 338.84 26.2684 339.098 26.1064 339.326C25.9504 339.554 25.7224 339.734 25.4224 339.866C25.1284 339.992 24.7834 340.055 24.3874 340.055ZM28.8507 336.023V338.435C28.8507 338.603 28.8897 338.726 28.9677 338.804C29.0517 338.876 29.1897 338.912 29.3817 338.912H29.9667V339.974H29.1747C28.1127 339.974 27.5817 339.458 27.5817 338.426V336.023H26.9877V334.988H27.5817V333.755H28.8507V334.988H29.9667V336.023H28.8507ZM33.087 340.055C32.607 340.055 32.175 339.95 31.791 339.74C31.407 339.524 31.104 339.221 30.882 338.831C30.666 338.441 30.558 337.991 30.558 337.481C30.558 336.971 30.669 336.521 30.891 336.131C31.119 335.741 31.428 335.441 31.818 335.231C32.208 335.015 32.643 334.907 33.123 334.907C33.603 334.907 34.038 335.015 34.428 335.231C34.818 335.441 35.124 335.741 35.346 336.131C35.574 336.521 35.688 336.971 35.688 337.481C35.688 337.991 35.571 338.441 35.337 338.831C35.109 339.221 34.797 339.524 34.401 339.74C34.011 339.95 33.573 340.055 33.087 340.055ZM33.087 338.957C33.315 338.957 33.528 338.903 33.726 338.795C33.93 338.681 34.092 338.513 34.212 338.291C34.332 338.069 34.392 337.799 34.392 337.481C34.392 337.007 34.266 336.644 34.014 336.392C33.768 336.134 33.465 336.005 33.105 336.005C32.745 336.005 32.442 336.134 32.196 336.392C31.956 336.644 31.836 337.007 31.836 337.481C31.836 337.955 31.953 338.321 32.187 338.579C32.427 338.831 32.727 338.957 33.087 338.957ZM42.8042 334.916C43.4162 334.916 43.9082 335.105 44.2802 335.483C44.6582 335.855 44.8472 336.377 44.8472 337.049V339.974H43.5872V337.22C43.5872 336.83 43.4882 336.533 43.2902 336.329C43.0922 336.119 42.8222 336.014 42.4802 336.014C42.1382 336.014 41.8652 336.119 41.6612 336.329C41.4632 336.533 41.3642 336.83 41.3642 337.22V339.974H40.1042V337.22C40.1042 336.83 40.0052 336.533 39.8072 336.329C39.6092 336.119 39.3392 336.014 38.9972 336.014C38.6492 336.014 38.3732 336.119 38.1692 336.329C37.9712 336.533 37.8722 336.83 37.8722 337.22V339.974H36.6122V334.988H37.8722V335.591C38.0342 335.381 38.2412 335.216 38.4932 335.096C38.7512 334.976 39.0332 334.916 39.3392 334.916C39.7292 334.916 40.0772 335 40.3832 335.168C40.6892 335.33 40.9262 335.564 41.0942 335.87C41.2562 335.582 41.4902 335.351 41.7962 335.177C42.1082 335.003 42.4442 334.916 42.8042 334.916ZM50.6779 337.373C50.6779 337.553 50.6659 337.715 50.6419 337.859H46.9969C47.0269 338.219 47.1529 338.501 47.3749 338.705C47.5969 338.909 47.8699 339.011 48.1939 339.011C48.6619 339.011 48.9949 338.81 49.1929 338.408H50.5519C50.4079 338.888 50.1319 339.284 49.7239 339.596C49.3159 339.902 48.8149 340.055 48.2209 340.055C47.7409 340.055 47.3089 339.95 46.9249 339.74C46.5469 339.524 46.2499 339.221 46.0339 338.831C45.8239 338.441 45.7189 337.991 45.7189 337.481C45.7189 336.965 45.8239 336.512 46.0339 336.122C46.2439 335.732 46.5379 335.432 46.9159 335.222C47.2939 335.012 47.7289 334.907 48.2209 334.907C48.6949 334.907 49.1179 335.009 49.4899 335.213C49.8679 335.417 50.1589 335.708 50.3629 336.086C50.5729 336.458 50.6779 336.887 50.6779 337.373ZM49.3729 337.013C49.3669 336.689 49.2499 336.431 49.0219 336.239C48.7939 336.041 48.5149 335.942 48.1849 335.942C47.8729 335.942 47.6089 336.038 47.3929 336.23C47.1829 336.416 47.0539 336.677 47.0059 337.013H49.3729ZM52.8576 335.762C53.0196 335.498 53.2296 335.291 53.4876 335.141C53.7516 334.991 54.0516 334.916 54.3876 334.916V336.239H54.0546C53.6586 336.239 53.3586 336.332 53.1546 336.518C52.9566 336.704 52.8576 337.028 52.8576 337.49V339.974H51.5976V334.988H52.8576V335.762Z" fill="#2A326D" fill-opacity="0.8"/>
<circle cx="111.5" cy="336.474" r="32.5" fill="url(#paint22_linear_7111_9531)"/>
<path d="M96.881 333.692V339.974H95.621V333.692H96.881ZM100.889 334.916C101.483 334.916 101.963 335.105 102.329 335.483C102.695 335.855 102.878 336.377 102.878 337.049V339.974H101.618V337.22C101.618 336.824 101.519 336.521 101.321 336.311C101.123 336.095 100.853 335.987 100.511 335.987C100.163 335.987 99.8869 336.095 99.6829 336.311C99.4849 336.521 99.3859 336.824 99.3859 337.22V339.974H98.1259V334.988H99.3859V335.609C99.5539 335.393 99.7669 335.225 100.025 335.105C100.289 334.979 100.577 334.916 100.889 334.916ZM106.155 338.813L107.415 334.988H108.756L106.911 339.974H105.381L103.545 334.988H104.895L106.155 338.813ZM111.678 340.055C111.198 340.055 110.766 339.95 110.382 339.74C109.998 339.524 109.695 339.221 109.473 338.831C109.257 338.441 109.149 337.991 109.149 337.481C109.149 336.971 109.26 336.521 109.482 336.131C109.71 335.741 110.019 335.441 110.409 335.231C110.799 335.015 111.234 334.907 111.714 334.907C112.194 334.907 112.629 335.015 113.019 335.231C113.409 335.441 113.715 335.741 113.937 336.131C114.165 336.521 114.279 336.971 114.279 337.481C114.279 337.991 114.162 338.441 113.928 338.831C113.7 339.221 113.388 339.524 112.992 339.74C112.602 339.95 112.164 340.055 111.678 340.055ZM111.678 338.957C111.906 338.957 112.119 338.903 112.317 338.795C112.521 338.681 112.683 338.513 112.803 338.291C112.923 338.069 112.983 337.799 112.983 337.481C112.983 337.007 112.857 336.644 112.605 336.392C112.359 336.134 112.056 336.005 111.696 336.005C111.336 336.005 111.033 336.134 110.787 336.392C110.547 336.644 110.427 337.007 110.427 337.481C110.427 337.955 110.544 338.321 110.778 338.579C111.018 338.831 111.318 338.957 111.678 338.957ZM115.842 334.394C115.62 334.394 115.434 334.325 115.284 334.187C115.14 334.043 115.068 333.866 115.068 333.656C115.068 333.446 115.14 333.272 115.284 333.134C115.434 332.99 115.62 332.918 115.842 332.918C116.064 332.918 116.247 332.99 116.391 333.134C116.541 333.272 116.616 333.446 116.616 333.656C116.616 333.866 116.541 334.043 116.391 334.187C116.247 334.325 116.064 334.394 115.842 334.394ZM116.463 334.988V339.974H115.203V334.988H116.463ZM117.384 337.481C117.384 336.965 117.489 336.515 117.699 336.131C117.909 335.741 118.2 335.441 118.572 335.231C118.944 335.015 119.37 334.907 119.85 334.907C120.468 334.907 120.978 335.063 121.38 335.375C121.788 335.681 122.061 336.113 122.199 336.671H120.84C120.768 336.455 120.645 336.287 120.471 336.167C120.303 336.041 120.093 335.978 119.841 335.978C119.481 335.978 119.196 336.11 118.986 336.374C118.776 336.632 118.671 337.001 118.671 337.481C118.671 337.955 118.776 338.324 118.986 338.588C119.196 338.846 119.481 338.975 119.841 338.975C120.351 338.975 120.684 338.747 120.84 338.291H122.199C122.061 338.831 121.788 339.26 121.38 339.578C120.972 339.896 120.462 340.055 119.85 340.055C119.37 340.055 118.944 339.95 118.572 339.74C118.2 339.524 117.909 339.224 117.699 338.84C117.489 338.45 117.384 337.997 117.384 337.481ZM127.757 337.373C127.757 337.553 127.745 337.715 127.721 337.859H124.076C124.106 338.219 124.232 338.501 124.454 338.705C124.676 338.909 124.949 339.011 125.273 339.011C125.741 339.011 126.074 338.81 126.272 338.408H127.631C127.487 338.888 127.211 339.284 126.803 339.596C126.395 339.902 125.894 340.055 125.3 340.055C124.82 340.055 124.388 339.95 124.004 339.74C123.626 339.524 123.329 339.221 123.113 338.831C122.903 338.441 122.798 337.991 122.798 337.481C122.798 336.965 122.903 336.512 123.113 336.122C123.323 335.732 123.617 335.432 123.995 335.222C124.373 335.012 124.808 334.907 125.3 334.907C125.774 334.907 126.197 335.009 126.569 335.213C126.947 335.417 127.238 335.708 127.442 336.086C127.652 336.458 127.757 336.887 127.757 337.373ZM126.452 337.013C126.446 336.689 126.329 336.431 126.101 336.239C125.873 336.041 125.594 335.942 125.264 335.942C124.952 335.942 124.688 336.038 124.472 336.23C124.262 336.416 124.133 336.677 124.085 337.013H126.452Z" fill="#2A326D" fill-opacity="0.8"/>
<circle cx="190.5" cy="336.474" r="32.5" fill="url(#paint23_linear_7111_9531)"/>
<path d="M174.202 335.636C174.202 335.972 174.121 336.287 173.959 336.581C173.803 336.875 173.554 337.112 173.212 337.292C172.876 337.472 172.45 337.562 171.934 337.562H170.881V339.974H169.621V333.692H171.934C172.42 333.692 172.834 333.776 173.176 333.944C173.518 334.112 173.773 334.343 173.941 334.637C174.115 334.931 174.202 335.264 174.202 335.636ZM171.88 336.545C172.228 336.545 172.486 336.467 172.654 336.311C172.822 336.149 172.906 335.924 172.906 335.636C172.906 335.024 172.564 334.718 171.88 334.718H170.881V336.545H171.88ZM174.773 337.463C174.773 336.959 174.872 336.512 175.07 336.122C175.274 335.732 175.547 335.432 175.889 335.222C176.237 335.012 176.624 334.907 177.05 334.907C177.422 334.907 177.746 334.982 178.022 335.132C178.304 335.282 178.529 335.471 178.697 335.699V334.988H179.966V339.974H178.697V339.245C178.535 339.479 178.31 339.674 178.022 339.83C177.74 339.98 177.413 340.055 177.041 340.055C176.621 340.055 176.237 339.947 175.889 339.731C175.547 339.515 175.274 339.212 175.07 338.822C174.872 338.426 174.773 337.973 174.773 337.463ZM178.697 337.481C178.697 337.175 178.637 336.914 178.517 336.698C178.397 336.476 178.235 336.308 178.031 336.194C177.827 336.074 177.608 336.014 177.374 336.014C177.14 336.014 176.924 336.071 176.726 336.185C176.528 336.299 176.366 336.467 176.24 336.689C176.12 336.905 176.06 337.163 176.06 337.463C176.06 337.763 176.12 338.027 176.24 338.255C176.366 338.477 176.528 338.648 176.726 338.768C176.93 338.888 177.146 338.948 177.374 338.948C177.608 338.948 177.827 338.891 178.031 338.777C178.235 338.657 178.397 338.489 178.517 338.273C178.637 338.051 178.697 337.787 178.697 337.481ZM185.966 334.988L182.879 342.332H181.538L182.618 339.848L180.62 334.988H182.033L183.32 338.471L184.625 334.988H185.966ZM192.837 334.916C193.449 334.916 193.941 335.105 194.313 335.483C194.691 335.855 194.88 336.377 194.88 337.049V339.974H193.62V337.22C193.62 336.83 193.521 336.533 193.323 336.329C193.125 336.119 192.855 336.014 192.513 336.014C192.171 336.014 191.898 336.119 191.694 336.329C191.496 336.533 191.397 336.83 191.397 337.22V339.974H190.137V337.22C190.137 336.83 190.038 336.533 189.84 336.329C189.642 336.119 189.372 336.014 189.03 336.014C188.682 336.014 188.406 336.119 188.202 336.329C188.004 336.533 187.905 336.83 187.905 337.22V339.974H186.645V334.988H187.905V335.591C188.067 335.381 188.274 335.216 188.526 335.096C188.784 334.976 189.066 334.916 189.372 334.916C189.762 334.916 190.11 335 190.416 335.168C190.722 335.33 190.959 335.564 191.127 335.87C191.289 335.582 191.523 335.351 191.829 335.177C192.141 335.003 192.477 334.916 192.837 334.916ZM200.711 337.373C200.711 337.553 200.699 337.715 200.675 337.859H197.03C197.06 338.219 197.186 338.501 197.408 338.705C197.63 338.909 197.903 339.011 198.227 339.011C198.695 339.011 199.028 338.81 199.226 338.408H200.585C200.441 338.888 200.165 339.284 199.757 339.596C199.349 339.902 198.848 340.055 198.254 340.055C197.774 340.055 197.342 339.95 196.958 339.74C196.58 339.524 196.283 339.221 196.067 338.831C195.857 338.441 195.752 337.991 195.752 337.481C195.752 336.965 195.857 336.512 196.067 336.122C196.277 335.732 196.571 335.432 196.949 335.222C197.327 335.012 197.762 334.907 198.254 334.907C198.728 334.907 199.151 335.009 199.523 335.213C199.901 335.417 200.192 335.708 200.396 336.086C200.606 336.458 200.711 336.887 200.711 337.373ZM199.406 337.013C199.4 336.689 199.283 336.431 199.055 336.239C198.827 336.041 198.548 335.942 198.218 335.942C197.906 335.942 197.642 336.038 197.426 336.23C197.216 336.416 197.087 336.677 197.039 337.013H199.406ZM204.394 334.916C204.988 334.916 205.468 335.105 205.834 335.483C206.2 335.855 206.383 336.377 206.383 337.049V339.974H205.123V337.22C205.123 336.824 205.024 336.521 204.826 336.311C204.628 336.095 204.358 335.987 204.016 335.987C203.668 335.987 203.392 336.095 203.188 336.311C202.99 336.521 202.891 336.824 202.891 337.22V339.974H201.631V334.988H202.891V335.609C203.059 335.393 203.272 335.225 203.53 335.105C203.794 334.979 204.082 334.916 204.394 334.916ZM209.048 336.023V338.435C209.048 338.603 209.087 338.726 209.165 338.804C209.249 338.876 209.387 338.912 209.579 338.912H210.164V339.974H209.372C208.31 339.974 207.779 339.458 207.779 338.426V336.023H207.185V334.988H207.779V333.755H209.048V334.988H210.164V336.023H209.048Z" fill="#2A326D" fill-opacity="0.8"/>
<circle cx="269.5" cy="336.474" r="32.5" fill="url(#paint24_linear_7111_9531)"/>
<path d="M258.202 335.636C258.202 335.972 258.121 336.287 257.959 336.581C257.803 336.875 257.554 337.112 257.212 337.292C256.876 337.472 256.45 337.562 255.934 337.562H254.881V339.974H253.621V333.692H255.934C256.42 333.692 256.834 333.776 257.176 333.944C257.518 334.112 257.773 334.343 257.941 334.637C258.115 334.931 258.202 335.264 258.202 335.636ZM255.88 336.545C256.228 336.545 256.486 336.467 256.654 336.311C256.822 336.149 256.906 335.924 256.906 335.636C256.906 335.024 256.564 334.718 255.88 334.718H254.881V336.545H255.88ZM258.773 337.463C258.773 336.959 258.872 336.512 259.07 336.122C259.274 335.732 259.547 335.432 259.889 335.222C260.237 335.012 260.624 334.907 261.05 334.907C261.422 334.907 261.746 334.982 262.022 335.132C262.304 335.282 262.529 335.471 262.697 335.699V334.988H263.966V339.974H262.697V339.245C262.535 339.479 262.31 339.674 262.022 339.83C261.74 339.98 261.413 340.055 261.041 340.055C260.621 340.055 260.237 339.947 259.889 339.731C259.547 339.515 259.274 339.212 259.07 338.822C258.872 338.426 258.773 337.973 258.773 337.463ZM262.697 337.481C262.697 337.175 262.637 336.914 262.517 336.698C262.397 336.476 262.235 336.308 262.031 336.194C261.827 336.074 261.608 336.014 261.374 336.014C261.14 336.014 260.924 336.071 260.726 336.185C260.528 336.299 260.366 336.467 260.24 336.689C260.12 336.905 260.06 337.163 260.06 337.463C260.06 337.763 260.12 338.027 260.24 338.255C260.366 338.477 260.528 338.648 260.726 338.768C260.93 338.888 261.146 338.948 261.374 338.948C261.608 338.948 261.827 338.891 262.031 338.777C262.235 338.657 262.397 338.489 262.517 338.273C262.637 338.051 262.697 337.787 262.697 337.481ZM269.966 334.988L266.879 342.332H265.538L266.618 339.848L264.62 334.988H266.033L267.32 338.471L268.625 334.988H269.966ZM272.859 340.055C272.379 340.055 271.947 339.95 271.563 339.74C271.179 339.524 270.876 339.221 270.654 338.831C270.438 338.441 270.33 337.991 270.33 337.481C270.33 336.971 270.441 336.521 270.663 336.131C270.891 335.741 271.2 335.441 271.59 335.231C271.98 335.015 272.415 334.907 272.895 334.907C273.375 334.907 273.81 335.015 274.2 335.231C274.59 335.441 274.896 335.741 275.118 336.131C275.346 336.521 275.46 336.971 275.46 337.481C275.46 337.991 275.343 338.441 275.109 338.831C274.881 339.221 274.569 339.524 274.173 339.74C273.783 339.95 273.345 340.055 272.859 340.055ZM272.859 338.957C273.087 338.957 273.3 338.903 273.498 338.795C273.702 338.681 273.864 338.513 273.984 338.291C274.104 338.069 274.164 337.799 274.164 337.481C274.164 337.007 274.038 336.644 273.786 336.392C273.54 336.134 273.237 336.005 272.877 336.005C272.517 336.005 272.214 336.134 271.968 336.392C271.728 336.644 271.608 337.007 271.608 337.481C271.608 337.955 271.725 338.321 271.959 338.579C272.199 338.831 272.499 338.957 272.859 338.957ZM281.092 334.988V339.974H279.823V339.344C279.661 339.56 279.448 339.731 279.184 339.857C278.926 339.977 278.644 340.037 278.338 340.037C277.948 340.037 277.603 339.956 277.303 339.794C277.003 339.626 276.766 339.383 276.592 339.065C276.424 338.741 276.34 338.357 276.34 337.913V334.988H277.6V337.733C277.6 338.129 277.699 338.435 277.897 338.651C278.095 338.861 278.365 338.966 278.707 338.966C279.055 338.966 279.328 338.861 279.526 338.651C279.724 338.435 279.823 338.129 279.823 337.733V334.988H281.092ZM283.802 336.023V338.435C283.802 338.603 283.841 338.726 283.919 338.804C284.003 338.876 284.141 338.912 284.333 338.912H284.918V339.974H284.126C283.064 339.974 282.533 339.458 282.533 338.426V336.023H281.939V334.988H282.533V333.755H283.802V334.988H284.918V336.023H283.802Z" fill="#2A326D" fill-opacity="0.8"/>
<path opacity="0.2" fill-rule="evenodd" clip-rule="evenodd" d="M135.535 40L135.535 -1.39876e-06L166.465 0L166.465 40L135.535 40Z" fill="url(#paint25_linear_7111_9531)"/>
</g>
<defs>
<filter id="filter0_d_7111_9531" x="-90.9536" y="-56" width="491.907" height="280" filterUnits="userSpaceOnUse" color-interpolation-filters="sRGB">
<feFlood flood-opacity="0" result="BackgroundImageFix"/>
<feColorMatrix in="SourceAlpha" type="matrix" values="0 0 0 0 0 0 0 0 0 0 0 0 0 0 0 0 0 0 127 0" result="hardAlpha"/>
<feOffset dx="4" dy="4"/>
<feGaussianBlur stdDeviation="50"/>
<feComposite in2="hardAlpha" operator="out"/>
<feColorMatrix type="matrix" values="0 0 0 0 0.423529 0 0 0 0 0.482353 0 0 0 0 0.666667 0 0 0 0.12 0"/>
<feBlend mode="normal" in2="BackgroundImageFix" result="effect1_dropShadow_7111_9531"/>
<feBlend mode="normal" in="SourceGraphic" in2="effect1_dropShadow_7111_9531" result="shape"/>
</filter>
<linearGradient id="paint0_linear_7111_9531" x1="151" y1="40" x2="151" y2="120" gradientUnits="userSpaceOnUse">
<stop stop-color="#63B866" stop-opacity="0.99"/>
<stop offset="1" stop-color="#63B866" stop-opacity="0.98"/>
</linearGradient>
<linearGradient id="paint1_linear_7111_9531" x1="153" y1="119.974" x2="169.022" y2="178.595" gradientUnits="userSpaceOnUse">
<stop stop-color="white"/>
<stop offset="1" stop-color="white" stop-opacity="0"/>
</linearGradient>
<linearGradient id="paint2_linear_7111_9531" x1="155.896" y1="165.974" x2="155.896" y2="483.974" gradientUnits="userSpaceOnUse">
<stop offset="0.505208" stop-color="#4680B5" stop-opacity="0"/>
<stop offset="0.739583" stop-color="#4680B5"/>
</linearGradient>
<linearGradient id="paint3_linear_7111_9531" x1="165.75" y1="346.415" x2="164.38" y2="448.255" gradientUnits="userSpaceOnUse">
<stop stop-color="#4680B5" stop-opacity="0"/>
<stop offset="0.616194" stop-color="#4680B5"/>
</linearGradient>
<linearGradient id="paint4_linear_7111_9531" x1="6.375" y1="0" x2="6.375" y2="12.75" gradientUnits="userSpaceOnUse">
<stop stop-color="#456092"/>
<stop offset="1" stop-color="#456092" stop-opacity="0.46"/>
</linearGradient>
<linearGradient id="paint5_linear_7111_9531" x1="155.896" y1="505.724" x2="155.896" y2="187.724" gradientUnits="userSpaceOnUse">
<stop offset="0.515625" stop-color="#4680B5" stop-opacity="0"/>
<stop offset="0.748548" stop-color="#4680B5"/>
</linearGradient>
<linearGradient id="paint6_linear_7111_9531" x1="229.625" y1="276.974" x2="229.625" y2="289.724" gradientUnits="userSpaceOnUse">
<stop stop-color="#456092"/>
<stop offset="1" stop-color="#456092" stop-opacity="0.56"/>
</linearGradient>
<linearGradient id="paint7_linear_7111_9531" x1="6.375" y1="0" x2="6.375" y2="12.75" gradientUnits="userSpaceOnUse">
<stop stop-color="#456092"/>
<stop offset="1" stop-color="#456092" stop-opacity="0.46"/>
</linearGradient>
<linearGradient id="paint8_linear_7111_9531" x1="73" y1="356.974" x2="73" y2="424.974" gradientUnits="userSpaceOnUse">
<stop stop-color="#4680B5" stop-opacity="0"/>
<stop offset="0.695612" stop-color="#4680B5"/>
</linearGradient>
<linearGradient id="paint9_linear_7111_9531" x1="101" y1="324.051" x2="101" y2="400.24" gradientUnits="userSpaceOnUse">
<stop stop-color="#4680B5" stop-opacity="0"/>
<stop offset="1" stop-color="#4680B5"/>
</linearGradient>
<linearGradient id="paint10_linear_7111_9531" x1="131.854" y1="498.727" x2="131.854" y2="180.727" gradientUnits="userSpaceOnUse">
<stop offset="0.557088" stop-color="#4680B5" stop-opacity="0"/>
<stop offset="0.722808" stop-color="#4680B5"/>
</linearGradient>
<linearGradient id="paint11_linear_7111_9531" x1="134.354" y1="496.727" x2="134.354" y2="178.727" gradientUnits="userSpaceOnUse">
<stop offset="0.526042" stop-color="#4680B5" stop-opacity="0"/>
<stop offset="0.694109" stop-color="#4680B5"/>
</linearGradient>
<linearGradient id="paint12_linear_7111_9531" x1="103.5" y1="336.974" x2="36.5" y2="336.974" gradientUnits="userSpaceOnUse">
<stop stop-color="#4680B5"/>
<stop offset="1" stop-color="#4680B5" stop-opacity="0"/>
</linearGradient>
<linearGradient id="paint13_linear_7111_9531" x1="414.5" y1="335.967" x2="196.39" y2="336.024" gradientUnits="userSpaceOnUse">
<stop stop-color="white"/>
<stop offset="1" stop-color="white" stop-opacity="0"/>
</linearGradient>
<linearGradient id="paint14_linear_7111_9531" x1="493.5" y1="335.967" x2="275.39" y2="336.024" gradientUnits="userSpaceOnUse">
<stop stop-color="white"/>
<stop offset="1" stop-color="white" stop-opacity="0"/>
</linearGradient>
<linearGradient id="paint15_linear_7111_9531" x1="31.375" y1="381.974" x2="31.375" y2="394.724" gradientUnits="userSpaceOnUse">
<stop stop-color="#456092"/>
<stop offset="1" stop-color="#456092" stop-opacity="0.46"/>
</linearGradient>
<linearGradient id="paint16_linear_7111_9531" x1="106.375" y1="381.974" x2="106.375" y2="394.724" gradientUnits="userSpaceOnUse">
<stop stop-color="#456092"/>
<stop offset="1" stop-color="#456092" stop-opacity="0.46"/>
</linearGradient>
<linearGradient id="paint17_linear_7111_9531" x1="106.375" y1="265.974" x2="106.375" y2="278.724" gradientUnits="userSpaceOnUse">
<stop stop-color="#456092" stop-opacity="0.48"/>
<stop offset="1" stop-color="#456092"/>
</linearGradient>
<linearGradient id="paint18_linear_7111_9531" x1="117.375" y1="398.974" x2="117.375" y2="411.724" gradientUnits="userSpaceOnUse">
<stop stop-color="#456092"/>
<stop offset="1" stop-color="#456092" stop-opacity="0.46"/>
</linearGradient>
<linearGradient id="paint19_linear_7111_9531" x1="118.375" y1="277.974" x2="118.375" y2="290.724" gradientUnits="userSpaceOnUse">
<stop stop-color="#456092" stop-opacity="0.56"/>
<stop offset="1" stop-color="#456092"/>
</linearGradient>
<linearGradient id="paint20_linear_7111_9531" x1="142.375" y1="277.974" x2="142.375" y2="290.724" gradientUnits="userSpaceOnUse">
<stop stop-color="#456092" stop-opacity="0.56"/>
<stop offset="1" stop-color="#456092"/>
</linearGradient>
<linearGradient id="paint21_linear_7111_9531" x1="32.5" y1="303.974" x2="32.5" y2="368.974" gradientUnits="userSpaceOnUse">
<stop stop-color="#D5D7E5"/>
<stop offset="1" stop-color="#D5D7E5" stop-opacity="0.9"/>
</linearGradient>
<linearGradient id="paint22_linear_7111_9531" x1="111.5" y1="303.974" x2="111.5" y2="368.974" gradientUnits="userSpaceOnUse">
<stop stop-color="#D5D7E5"/>
<stop offset="1" stop-color="#D5D7E5" stop-opacity="0.9"/>
</linearGradient>
<linearGradient id="paint23_linear_7111_9531" x1="190.5" y1="303.974" x2="190.5" y2="368.974" gradientUnits="userSpaceOnUse">
<stop stop-color="#D5D7E5"/>
<stop offset="1" stop-color="#D5D7E5" stop-opacity="0.9"/>
</linearGradient>
<linearGradient id="paint24_linear_7111_9531" x1="269.5" y1="303.974" x2="269.5" y2="368.974" gradientUnits="userSpaceOnUse">
<stop stop-color="#D5D7E5"/>
<stop offset="1" stop-color="#D5D7E5" stop-opacity="0.9"/>
</linearGradient>
<linearGradient id="paint25_linear_7111_9531" x1="150.033" y1="40" x2="138.159" y2="4.23808" gradientUnits="userSpaceOnUse">
<stop stop-color="white"/>
<stop offset="1" stop-color="white" stop-opacity="0"/>
</linearGradient>
<clipPath id="clip0_7111_9531">
<rect width="302" height="411.724" fill="white"/>
</clipPath>
</defs>
</svg>
