<svg width="492" height="468" viewBox="0 0 492 468" fill="none" xmlns="http://www.w3.org/2000/svg">
<g filter="url(#filter0_d_3879_13590)">
<rect x="96.0464" y="96" width="291.907" height="80" rx="12" fill="url(#paint0_linear_3879_13590)" shape-rendering="crispEdges"/>
<path d="M160.311 124.416C160.311 123.328 160.561 122.352 161.063 121.488C161.575 120.624 162.263 119.952 163.127 119.472C164.001 118.981 164.956 118.736 165.991 118.736C167.175 118.736 168.225 119.029 169.143 119.616C170.071 120.192 170.743 121.013 171.159 122.08H168.967C168.679 121.493 168.279 121.056 167.767 120.768C167.255 120.48 166.663 120.336 165.991 120.336C165.255 120.336 164.599 120.501 164.023 120.832C163.447 121.163 162.993 121.637 162.663 122.256C162.343 122.875 162.183 123.595 162.183 124.416C162.183 125.237 162.343 125.957 162.663 126.576C162.993 127.195 163.447 127.675 164.023 128.016C164.599 128.347 165.255 128.512 165.991 128.512C166.663 128.512 167.255 128.368 167.767 128.08C168.279 127.792 168.679 127.355 168.967 126.768H171.159C170.743 127.835 170.071 128.656 169.143 129.232C168.225 129.808 167.175 130.096 165.991 130.096C164.945 130.096 163.991 129.856 163.127 129.376C162.263 128.885 161.575 128.208 161.063 127.344C160.561 126.48 160.311 125.504 160.311 124.416ZM177.118 130.144C176.286 130.144 175.534 129.957 174.862 129.584C174.19 129.2 173.662 128.667 173.278 127.984C172.894 127.291 172.702 126.491 172.702 125.584C172.702 124.688 172.899 123.893 173.294 123.2C173.688 122.507 174.227 121.973 174.91 121.6C175.592 121.227 176.355 121.04 177.198 121.04C178.04 121.04 178.803 121.227 179.486 121.6C180.168 121.973 180.707 122.507 181.102 123.2C181.496 123.893 181.694 124.688 181.694 125.584C181.694 126.48 181.491 127.275 181.086 127.968C180.68 128.661 180.126 129.2 179.422 129.584C178.728 129.957 177.96 130.144 177.118 130.144ZM177.118 128.56C177.587 128.56 178.024 128.448 178.43 128.224C178.846 128 179.182 127.664 179.438 127.216C179.694 126.768 179.822 126.224 179.822 125.584C179.822 124.944 179.699 124.405 179.454 123.968C179.208 123.52 178.883 123.184 178.478 122.96C178.072 122.736 177.635 122.624 177.166 122.624C176.696 122.624 176.259 122.736 175.854 122.96C175.459 123.184 175.144 123.52 174.91 123.968C174.675 124.405 174.558 124.944 174.558 125.584C174.558 126.533 174.798 127.269 175.278 127.792C175.768 128.304 176.382 128.56 177.118 128.56ZM187.945 121.04C188.638 121.04 189.257 121.184 189.801 121.472C190.356 121.76 190.788 122.187 191.097 122.752C191.406 123.317 191.561 124 191.561 124.8V130H189.753V125.072C189.753 124.283 189.556 123.68 189.161 123.264C188.766 122.837 188.228 122.624 187.545 122.624C186.862 122.624 186.318 122.837 185.913 123.264C185.518 123.68 185.321 124.283 185.321 125.072V130H183.497V121.184H185.321V122.192C185.62 121.829 185.998 121.547 186.457 121.344C186.926 121.141 187.422 121.04 187.945 121.04ZM197.584 122.672H195.952V130H194.112V122.672H193.072V121.184H194.112V120.56C194.112 119.547 194.378 118.811 194.912 118.352C195.456 117.883 196.304 117.648 197.456 117.648V119.168C196.901 119.168 196.512 119.275 196.288 119.488C196.064 119.691 195.952 120.048 195.952 120.56V121.184H197.584V122.672ZM200.128 120.016C199.797 120.016 199.52 119.904 199.296 119.68C199.072 119.456 198.96 119.179 198.96 118.848C198.96 118.517 199.072 118.24 199.296 118.016C199.52 117.792 199.797 117.68 200.128 117.68C200.448 117.68 200.72 117.792 200.944 118.016C201.168 118.24 201.28 118.517 201.28 118.848C201.28 119.179 201.168 119.456 200.944 119.68C200.72 119.904 200.448 120.016 200.128 120.016ZM201.024 121.184V130H199.2V121.184H201.024ZM206.971 121.04C207.653 121.04 208.256 121.179 208.779 121.456C209.312 121.723 209.728 122.059 210.027 122.464V121.184H211.867V130.144C211.867 130.955 211.696 131.675 211.355 132.304C211.013 132.944 210.517 133.445 209.867 133.808C209.227 134.171 208.459 134.352 207.563 134.352C206.368 134.352 205.376 134.069 204.587 133.504C203.797 132.949 203.349 132.192 203.243 131.232H205.051C205.189 131.691 205.483 132.059 205.931 132.336C206.389 132.624 206.933 132.768 207.563 132.768C208.299 132.768 208.891 132.544 209.339 132.096C209.797 131.648 210.027 130.997 210.027 130.144V128.672C209.717 129.088 209.296 129.44 208.763 129.728C208.24 130.005 207.643 130.144 206.971 130.144C206.203 130.144 205.499 129.952 204.859 129.568C204.229 129.173 203.728 128.629 203.355 127.936C202.992 127.232 202.811 126.437 202.811 125.552C202.811 124.667 202.992 123.883 203.355 123.2C203.728 122.517 204.229 121.989 204.859 121.616C205.499 121.232 206.203 121.04 206.971 121.04ZM210.027 125.584C210.027 124.976 209.899 124.448 209.643 124C209.397 123.552 209.072 123.211 208.667 122.976C208.261 122.741 207.824 122.624 207.355 122.624C206.885 122.624 206.448 122.741 206.043 122.976C205.637 123.2 205.307 123.536 205.051 123.984C204.805 124.421 204.683 124.944 204.683 125.552C204.683 126.16 204.805 126.693 205.051 127.152C205.307 127.611 205.637 127.963 206.043 128.208C206.459 128.443 206.896 128.56 207.355 128.56C207.824 128.56 208.261 128.443 208.667 128.208C209.072 127.973 209.397 127.632 209.643 127.184C209.899 126.725 210.027 126.192 210.027 125.584ZM222.247 121.184V130H220.423V128.96C220.135 129.323 219.756 129.611 219.287 129.824C218.828 130.027 218.337 130.128 217.815 130.128C217.121 130.128 216.497 129.984 215.943 129.696C215.399 129.408 214.967 128.981 214.647 128.416C214.337 127.851 214.183 127.168 214.183 126.368V121.184H215.991V126.096C215.991 126.885 216.188 127.493 216.583 127.92C216.977 128.336 217.516 128.544 218.199 128.544C218.881 128.544 219.42 128.336 219.815 127.92C220.22 127.493 220.423 126.885 220.423 126.096V121.184H222.247ZM226.477 122.464C226.744 122.016 227.096 121.669 227.533 121.424C227.981 121.168 228.509 121.04 229.117 121.04V122.928H228.653C227.938 122.928 227.394 123.109 227.021 123.472C226.658 123.835 226.477 124.464 226.477 125.36V130H224.653V121.184H226.477V122.464ZM230.186 125.552C230.186 124.667 230.367 123.883 230.73 123.2C231.103 122.517 231.604 121.989 232.234 121.616C232.874 121.232 233.578 121.04 234.346 121.04C235.039 121.04 235.642 121.179 236.154 121.456C236.676 121.723 237.092 122.059 237.402 122.464V121.184H239.242V130H237.402V128.688C237.092 129.104 236.671 129.451 236.138 129.728C235.604 130.005 234.996 130.144 234.314 130.144C233.556 130.144 232.863 129.952 232.234 129.568C231.604 129.173 231.103 128.629 230.73 127.936C230.367 127.232 230.186 126.437 230.186 125.552ZM237.402 125.584C237.402 124.976 237.274 124.448 237.018 124C236.772 123.552 236.447 123.211 236.042 122.976C235.636 122.741 235.199 122.624 234.73 122.624C234.26 122.624 233.823 122.741 233.418 122.976C233.012 123.2 232.682 123.536 232.426 123.984C232.18 124.421 232.058 124.944 232.058 125.552C232.058 126.16 232.18 126.693 232.426 127.152C232.682 127.611 233.012 127.963 233.418 128.208C233.834 128.443 234.271 128.56 234.73 128.56C235.199 128.56 235.636 128.443 236.042 128.208C236.447 127.973 236.772 127.632 237.018 127.184C237.274 126.725 237.402 126.192 237.402 125.584ZM243.462 122.496C243.771 122.069 244.192 121.723 244.726 121.456C245.27 121.179 245.872 121.04 246.534 121.04C247.312 121.04 248.016 121.227 248.646 121.6C249.275 121.973 249.771 122.507 250.134 123.2C250.496 123.883 250.678 124.667 250.678 125.552C250.678 126.437 250.496 127.232 250.134 127.936C249.771 128.629 249.27 129.173 248.63 129.568C248 129.952 247.302 130.144 246.534 130.144C245.851 130.144 245.243 130.011 244.71 129.744C244.187 129.477 243.771 129.136 243.462 128.72V130H241.638V118.16H243.462V122.496ZM248.822 125.552C248.822 124.944 248.694 124.421 248.438 123.984C248.192 123.536 247.862 123.2 247.446 122.976C247.04 122.741 246.603 122.624 246.134 122.624C245.675 122.624 245.238 122.741 244.822 122.976C244.416 123.211 244.086 123.552 243.83 124C243.584 124.448 243.462 124.976 243.462 125.584C243.462 126.192 243.584 126.725 243.83 127.184C244.086 127.632 244.416 127.973 244.822 128.208C245.238 128.443 245.675 128.56 246.134 128.56C246.603 128.56 247.04 128.443 247.446 128.208C247.862 127.963 248.192 127.611 248.438 127.152C248.694 126.693 248.822 126.16 248.822 125.552ZM254.305 118.16V130H252.481V118.16H254.305ZM264.78 125.376C264.78 125.707 264.759 126.005 264.716 126.272H257.98C258.033 126.976 258.295 127.541 258.764 127.968C259.233 128.395 259.809 128.608 260.492 128.608C261.473 128.608 262.167 128.197 262.572 127.376H264.54C264.273 128.187 263.788 128.853 263.084 129.376C262.391 129.888 261.527 130.144 260.492 130.144C259.649 130.144 258.892 129.957 258.22 129.584C257.559 129.2 257.036 128.667 256.652 127.984C256.279 127.291 256.092 126.491 256.092 125.584C256.092 124.677 256.273 123.883 256.636 123.2C257.009 122.507 257.527 121.973 258.188 121.6C258.86 121.227 259.628 121.04 260.492 121.04C261.324 121.04 262.065 121.221 262.716 121.584C263.367 121.947 263.873 122.459 264.236 123.12C264.599 123.771 264.78 124.523 264.78 125.376ZM262.876 124.8C262.865 124.128 262.625 123.589 262.156 123.184C261.687 122.779 261.105 122.576 260.412 122.576C259.783 122.576 259.244 122.779 258.796 123.184C258.348 123.579 258.081 124.117 257.996 124.8H262.876ZM278.779 122.08C278.491 121.525 278.091 121.109 277.579 120.832C277.067 120.544 276.475 120.4 275.803 120.4C275.067 120.4 274.411 120.565 273.835 120.896C273.259 121.227 272.806 121.696 272.475 122.304C272.155 122.912 271.995 123.616 271.995 124.416C271.995 125.216 272.155 125.925 272.475 126.544C272.806 127.152 273.259 127.621 273.835 127.952C274.411 128.283 275.067 128.448 275.803 128.448C276.795 128.448 277.601 128.171 278.219 127.616C278.838 127.061 279.217 126.309 279.355 125.36H275.179V123.904H281.307V125.328C281.19 126.192 280.881 126.987 280.379 127.712C279.889 128.437 279.243 129.019 278.443 129.456C277.654 129.883 276.774 130.096 275.803 130.096C274.758 130.096 273.803 129.856 272.939 129.376C272.075 128.885 271.387 128.208 270.875 127.344C270.374 126.48 270.123 125.504 270.123 124.416C270.123 123.328 270.374 122.352 270.875 121.488C271.387 120.624 272.075 119.952 272.939 119.472C273.814 118.981 274.769 118.736 275.803 118.736C276.987 118.736 278.038 119.029 278.955 119.616C279.883 120.192 280.555 121.013 280.971 122.08H278.779ZM284.93 122.464C285.197 122.016 285.549 121.669 285.986 121.424C286.434 121.168 286.962 121.04 287.57 121.04V122.928H287.106C286.392 122.928 285.848 123.109 285.474 123.472C285.112 123.835 284.93 124.464 284.93 125.36V130H283.106V121.184H284.93V122.464ZM288.639 125.552C288.639 124.667 288.82 123.883 289.183 123.2C289.556 122.517 290.058 121.989 290.687 121.616C291.327 121.232 292.031 121.04 292.799 121.04C293.492 121.04 294.095 121.179 294.607 121.456C295.13 121.723 295.546 122.059 295.855 122.464V121.184H297.695V130H295.855V128.688C295.546 129.104 295.124 129.451 294.591 129.728C294.058 130.005 293.45 130.144 292.767 130.144C292.01 130.144 291.316 129.952 290.687 129.568C290.058 129.173 289.556 128.629 289.183 127.936C288.82 127.232 288.639 126.437 288.639 125.552ZM295.855 125.584C295.855 124.976 295.727 124.448 295.471 124C295.226 123.552 294.9 123.211 294.495 122.976C294.09 122.741 293.652 122.624 293.183 122.624C292.714 122.624 292.276 122.741 291.871 122.976C291.466 123.2 291.135 123.536 290.879 123.984C290.634 124.421 290.511 124.944 290.511 125.552C290.511 126.16 290.634 126.693 290.879 127.152C291.135 127.611 291.466 127.963 291.871 128.208C292.287 128.443 292.724 128.56 293.183 128.56C293.652 128.56 294.09 128.443 294.495 128.208C294.9 127.973 295.226 127.632 295.471 127.184C295.727 126.725 295.855 126.192 295.855 125.584ZM301.915 122.48C302.224 122.075 302.645 121.733 303.179 121.456C303.712 121.179 304.315 121.04 304.987 121.04C305.755 121.04 306.453 121.232 307.083 121.616C307.723 121.989 308.224 122.517 308.587 123.2C308.949 123.883 309.131 124.667 309.131 125.552C309.131 126.437 308.949 127.232 308.587 127.936C308.224 128.629 307.723 129.173 307.083 129.568C306.453 129.952 305.755 130.144 304.987 130.144C304.315 130.144 303.717 130.011 303.195 129.744C302.672 129.467 302.245 129.125 301.915 128.72V134.192H300.091V121.184H301.915V122.48ZM307.275 125.552C307.275 124.944 307.147 124.421 306.891 123.984C306.645 123.536 306.315 123.2 305.899 122.976C305.493 122.741 305.056 122.624 304.587 122.624C304.128 122.624 303.691 122.741 303.275 122.976C302.869 123.211 302.539 123.552 302.283 124C302.037 124.448 301.915 124.976 301.915 125.584C301.915 126.192 302.037 126.725 302.283 127.184C302.539 127.632 302.869 127.973 303.275 128.208C303.691 128.443 304.128 128.56 304.587 128.56C305.056 128.56 305.493 128.443 305.899 128.208C306.315 127.963 306.645 127.611 306.891 127.152C307.147 126.693 307.275 126.16 307.275 125.552ZM315.494 121.04C316.166 121.04 316.764 121.184 317.286 121.472C317.82 121.76 318.236 122.187 318.534 122.752C318.844 123.317 318.998 124 318.998 124.8V130H317.19V125.072C317.19 124.283 316.993 123.68 316.598 123.264C316.204 122.837 315.665 122.624 314.982 122.624C314.3 122.624 313.756 122.837 313.35 123.264C312.956 123.68 312.758 124.283 312.758 125.072V130H310.934V118.16H312.758V122.208C313.068 121.835 313.457 121.547 313.926 121.344C314.406 121.141 314.929 121.04 315.494 121.04ZM189.732 142.88V154H187.908V146.384L184.516 154H183.252L179.844 146.384V154H178.02V142.88H179.988L183.892 151.6L187.78 142.88H189.732ZM191.522 149.552C191.522 148.667 191.703 147.883 192.066 147.2C192.439 146.517 192.94 145.989 193.57 145.616C194.21 145.232 194.914 145.04 195.682 145.04C196.375 145.04 196.978 145.179 197.49 145.456C198.012 145.723 198.428 146.059 198.738 146.464V145.184H200.578V154H198.738V152.688C198.428 153.104 198.007 153.451 197.474 153.728C196.94 154.005 196.332 154.144 195.65 154.144C194.892 154.144 194.199 153.952 193.57 153.568C192.94 153.173 192.439 152.629 192.066 151.936C191.703 151.232 191.522 150.437 191.522 149.552ZM198.738 149.584C198.738 148.976 198.61 148.448 198.354 148C198.108 147.552 197.783 147.211 197.378 146.976C196.972 146.741 196.535 146.624 196.066 146.624C195.596 146.624 195.159 146.741 194.754 146.976C194.348 147.2 194.018 147.536 193.762 147.984C193.516 148.421 193.394 148.944 193.394 149.552C193.394 150.16 193.516 150.693 193.762 151.152C194.018 151.611 194.348 151.963 194.754 152.208C195.17 152.443 195.607 152.56 196.066 152.56C196.535 152.56 196.972 152.443 197.378 152.208C197.783 151.973 198.108 151.632 198.354 151.184C198.61 150.725 198.738 150.192 198.738 149.584ZM204.797 146.48C205.107 146.075 205.528 145.733 206.061 145.456C206.595 145.179 207.197 145.04 207.869 145.04C208.637 145.04 209.336 145.232 209.965 145.616C210.605 145.989 211.107 146.517 211.469 147.2C211.832 147.883 212.013 148.667 212.013 149.552C212.013 150.437 211.832 151.232 211.469 151.936C211.107 152.629 210.605 153.173 209.965 153.568C209.336 153.952 208.637 154.144 207.869 154.144C207.197 154.144 206.6 154.011 206.077 153.744C205.555 153.467 205.128 153.125 204.797 152.72V158.192H202.973V145.184H204.797V146.48ZM210.157 149.552C210.157 148.944 210.029 148.421 209.773 147.984C209.528 147.536 209.197 147.2 208.781 146.976C208.376 146.741 207.939 146.624 207.469 146.624C207.011 146.624 206.573 146.741 206.157 146.976C205.752 147.211 205.421 147.552 205.165 148C204.92 148.448 204.797 148.976 204.797 149.584C204.797 150.192 204.92 150.725 205.165 151.184C205.421 151.632 205.752 151.973 206.157 152.208C206.573 152.443 207.011 152.56 207.469 152.56C207.939 152.56 208.376 152.443 208.781 152.208C209.197 151.963 209.528 151.611 209.773 151.152C210.029 150.693 210.157 150.16 210.157 149.552ZM215.641 146.48C215.951 146.075 216.372 145.733 216.905 145.456C217.439 145.179 218.041 145.04 218.713 145.04C219.481 145.04 220.18 145.232 220.809 145.616C221.449 145.989 221.951 146.517 222.313 147.2C222.676 147.883 222.857 148.667 222.857 149.552C222.857 150.437 222.676 151.232 222.313 151.936C221.951 152.629 221.449 153.173 220.809 153.568C220.18 153.952 219.481 154.144 218.713 154.144C218.041 154.144 217.444 154.011 216.921 153.744C216.399 153.467 215.972 153.125 215.641 152.72V158.192H213.817V145.184H215.641V146.48ZM221.001 149.552C221.001 148.944 220.873 148.421 220.617 147.984C220.372 147.536 220.041 147.2 219.625 146.976C219.22 146.741 218.783 146.624 218.313 146.624C217.855 146.624 217.417 146.741 217.001 146.976C216.596 147.211 216.265 147.552 216.009 148C215.764 148.448 215.641 148.976 215.641 149.584C215.641 150.192 215.764 150.725 216.009 151.184C216.265 151.632 216.596 151.973 217.001 152.208C217.417 152.443 217.855 152.56 218.313 152.56C218.783 152.56 219.22 152.443 219.625 152.208C220.041 151.963 220.372 151.611 220.617 151.152C220.873 150.693 221.001 150.16 221.001 149.552ZM225.589 144.016C225.258 144.016 224.981 143.904 224.757 143.68C224.533 143.456 224.421 143.179 224.421 142.848C224.421 142.517 224.533 142.24 224.757 142.016C224.981 141.792 225.258 141.68 225.589 141.68C225.909 141.68 226.181 141.792 226.405 142.016C226.629 142.24 226.741 142.517 226.741 142.848C226.741 143.179 226.629 143.456 226.405 143.68C226.181 143.904 225.909 144.016 225.589 144.016ZM226.485 145.184V154H224.661V145.184H226.485ZM233.328 145.04C234.021 145.04 234.64 145.184 235.184 145.472C235.738 145.76 236.17 146.187 236.48 146.752C236.789 147.317 236.944 148 236.944 148.8V154H235.136V149.072C235.136 148.283 234.938 147.68 234.544 147.264C234.149 146.837 233.61 146.624 232.928 146.624C232.245 146.624 231.701 146.837 231.296 147.264C230.901 147.68 230.704 148.283 230.704 149.072V154H228.88V145.184H230.704V146.192C231.002 145.829 231.381 145.547 231.84 145.344C232.309 145.141 232.805 145.04 233.328 145.04ZM242.822 145.04C243.505 145.04 244.108 145.179 244.63 145.456C245.164 145.723 245.58 146.059 245.878 146.464V145.184H247.718V154.144C247.718 154.955 247.548 155.675 247.206 156.304C246.865 156.944 246.369 157.445 245.718 157.808C245.078 158.171 244.31 158.352 243.414 158.352C242.22 158.352 241.228 158.069 240.438 157.504C239.649 156.949 239.201 156.192 239.094 155.232H240.902C241.041 155.691 241.334 156.059 241.782 156.336C242.241 156.624 242.785 156.768 243.414 156.768C244.15 156.768 244.742 156.544 245.19 156.096C245.649 155.648 245.878 154.997 245.878 154.144V152.672C245.569 153.088 245.148 153.44 244.614 153.728C244.092 154.005 243.494 154.144 242.822 154.144C242.054 154.144 241.35 153.952 240.71 153.568C240.081 153.173 239.58 152.629 239.206 151.936C238.844 151.232 238.662 150.437 238.662 149.552C238.662 148.667 238.844 147.883 239.206 147.2C239.58 146.517 240.081 145.989 240.71 145.616C241.35 145.232 242.054 145.04 242.822 145.04ZM245.878 149.584C245.878 148.976 245.75 148.448 245.494 148C245.249 147.552 244.924 147.211 244.518 146.976C244.113 146.741 243.676 146.624 243.206 146.624C242.737 146.624 242.3 146.741 241.894 146.976C241.489 147.2 241.158 147.536 240.902 147.984C240.657 148.421 240.534 148.944 240.534 149.552C240.534 150.16 240.657 150.693 240.902 151.152C241.158 151.611 241.489 151.963 241.894 152.208C242.31 152.443 242.748 152.56 243.206 152.56C243.676 152.56 244.113 152.443 244.518 152.208C244.924 151.973 245.249 151.632 245.494 151.184C245.75 150.725 245.878 150.192 245.878 149.584ZM256.094 144.352V147.616H259.934V149.104H256.094V152.512H260.414V154H254.27V142.864H260.414V144.352H256.094ZM267.109 145.04C267.802 145.04 268.421 145.184 268.965 145.472C269.52 145.76 269.952 146.187 270.261 146.752C270.57 147.317 270.725 148 270.725 148.8V154H268.917V149.072C268.917 148.283 268.72 147.68 268.325 147.264C267.93 146.837 267.392 146.624 266.709 146.624C266.026 146.624 265.482 146.837 265.077 147.264C264.682 147.68 264.485 148.283 264.485 149.072V154H262.661V145.184H264.485V146.192C264.784 145.829 265.162 145.547 265.621 145.344C266.09 145.141 266.586 145.04 267.109 145.04ZM276.604 145.04C277.286 145.04 277.889 145.179 278.412 145.456C278.945 145.723 279.361 146.059 279.66 146.464V145.184H281.5V154.144C281.5 154.955 281.329 155.675 280.988 156.304C280.646 156.944 280.15 157.445 279.5 157.808C278.86 158.171 278.092 158.352 277.196 158.352C276.001 158.352 275.009 158.069 274.22 157.504C273.43 156.949 272.982 156.192 272.876 155.232H274.684C274.822 155.691 275.116 156.059 275.564 156.336C276.022 156.624 276.566 156.768 277.196 156.768C277.932 156.768 278.524 156.544 278.972 156.096C279.43 155.648 279.66 154.997 279.66 154.144V152.672C279.35 153.088 278.929 153.44 278.396 153.728C277.873 154.005 277.276 154.144 276.604 154.144C275.836 154.144 275.132 153.952 274.492 153.568C273.862 153.173 273.361 152.629 272.988 151.936C272.625 151.232 272.444 150.437 272.444 149.552C272.444 148.667 272.625 147.883 272.988 147.2C273.361 146.517 273.862 145.989 274.492 145.616C275.132 145.232 275.836 145.04 276.604 145.04ZM279.66 149.584C279.66 148.976 279.532 148.448 279.276 148C279.03 147.552 278.705 147.211 278.3 146.976C277.894 146.741 277.457 146.624 276.988 146.624C276.518 146.624 276.081 146.741 275.676 146.976C275.27 147.2 274.94 147.536 274.684 147.984C274.438 148.421 274.316 148.944 274.316 149.552C274.316 150.16 274.438 150.693 274.684 151.152C274.94 151.611 275.27 151.963 275.676 152.208C276.092 152.443 276.529 152.56 276.988 152.56C277.457 152.56 277.894 152.443 278.3 152.208C278.705 151.973 279.03 151.632 279.276 151.184C279.532 150.725 279.66 150.192 279.66 149.584ZM284.823 144.016C284.493 144.016 284.215 143.904 283.991 143.68C283.767 143.456 283.655 143.179 283.655 142.848C283.655 142.517 283.767 142.24 283.991 142.016C284.215 141.792 284.493 141.68 284.823 141.68C285.143 141.68 285.415 141.792 285.639 142.016C285.863 142.24 285.975 142.517 285.975 142.848C285.975 143.179 285.863 143.456 285.639 143.68C285.415 143.904 285.143 144.016 284.823 144.016ZM285.719 145.184V154H283.895V145.184H285.719ZM292.562 145.04C293.255 145.04 293.874 145.184 294.418 145.472C294.973 145.76 295.405 146.187 295.714 146.752C296.023 147.317 296.178 148 296.178 148.8V154H294.37V149.072C294.37 148.283 294.173 147.68 293.778 147.264C293.383 146.837 292.845 146.624 292.162 146.624C291.479 146.624 290.935 146.837 290.53 147.264C290.135 147.68 289.938 148.283 289.938 149.072V154H288.114V145.184H289.938V146.192C290.237 145.829 290.615 145.547 291.074 145.344C291.543 145.141 292.039 145.04 292.562 145.04ZM306.585 149.376C306.585 149.707 306.563 150.005 306.521 150.272H299.785C299.838 150.976 300.099 151.541 300.569 151.968C301.038 152.395 301.614 152.608 302.297 152.608C303.278 152.608 303.971 152.197 304.377 151.376H306.345C306.078 152.187 305.593 152.853 304.889 153.376C304.195 153.888 303.331 154.144 302.297 154.144C301.454 154.144 300.697 153.957 300.025 153.584C299.363 153.2 298.841 152.667 298.457 151.984C298.083 151.291 297.897 150.491 297.897 149.584C297.897 148.677 298.078 147.883 298.441 147.2C298.814 146.507 299.331 145.973 299.993 145.6C300.665 145.227 301.433 145.04 302.297 145.04C303.129 145.04 303.87 145.221 304.521 145.584C305.171 145.947 305.678 146.459 306.041 147.12C306.403 147.771 306.585 148.523 306.585 149.376ZM304.681 148.8C304.67 148.128 304.43 147.589 303.961 147.184C303.491 146.779 302.91 146.576 302.217 146.576C301.587 146.576 301.049 146.779 300.601 147.184C300.153 147.579 299.886 148.117 299.801 148.8H304.681Z" fill="white"/>
</g>
<path d="M152.317 277.086C151.57 277.086 150.898 276.958 150.301 276.702C149.704 276.435 149.234 276.062 148.893 275.582C148.552 275.102 148.381 274.542 148.381 273.902H150.333C150.376 274.382 150.562 274.777 150.893 275.086C151.234 275.395 151.709 275.55 152.317 275.55C152.946 275.55 153.437 275.401 153.789 275.102C154.141 274.793 154.317 274.398 154.317 273.918C154.317 273.545 154.205 273.241 153.981 273.006C153.768 272.771 153.496 272.59 153.165 272.462C152.845 272.334 152.397 272.195 151.821 272.046C151.096 271.854 150.504 271.662 150.045 271.47C149.597 271.267 149.213 270.958 148.893 270.542C148.573 270.126 148.413 269.571 148.413 268.878C148.413 268.238 148.573 267.678 148.893 267.198C149.213 266.718 149.661 266.35 150.237 266.094C150.813 265.838 151.48 265.71 152.237 265.71C153.314 265.71 154.194 265.982 154.877 266.526C155.57 267.059 155.954 267.795 156.029 268.734H154.013C153.981 268.329 153.789 267.982 153.437 267.694C153.085 267.406 152.621 267.262 152.045 267.262C151.522 267.262 151.096 267.395 150.765 267.662C150.434 267.929 150.269 268.313 150.269 268.814C150.269 269.155 150.37 269.438 150.573 269.662C150.786 269.875 151.053 270.046 151.373 270.174C151.693 270.302 152.13 270.441 152.685 270.59C153.421 270.793 154.018 270.995 154.477 271.198C154.946 271.401 155.341 271.715 155.661 272.142C155.992 272.558 156.157 273.118 156.157 273.822C156.157 274.387 156.002 274.921 155.693 275.422C155.394 275.923 154.952 276.329 154.365 276.638C153.789 276.937 153.106 277.086 152.317 277.086ZM160.437 269.646V274.526C160.437 274.857 160.512 275.097 160.661 275.246C160.821 275.385 161.088 275.454 161.461 275.454H162.581V276.974H161.141C160.32 276.974 159.691 276.782 159.253 276.398C158.816 276.014 158.597 275.39 158.597 274.526V269.646H157.557V268.158H158.597V265.966H160.437V268.158H162.581V269.646H160.437ZM163.655 272.526C163.655 271.641 163.836 270.857 164.199 270.174C164.572 269.491 165.073 268.963 165.703 268.59C166.343 268.206 167.047 268.014 167.815 268.014C168.508 268.014 169.111 268.153 169.623 268.43C170.145 268.697 170.561 269.033 170.871 269.438V268.158H172.711V276.974H170.871V275.662C170.561 276.078 170.14 276.425 169.607 276.702C169.073 276.979 168.465 277.118 167.783 277.118C167.025 277.118 166.332 276.926 165.703 276.542C165.073 276.147 164.572 275.603 164.199 274.91C163.836 274.206 163.655 273.411 163.655 272.526ZM170.871 272.558C170.871 271.95 170.743 271.422 170.487 270.974C170.241 270.526 169.916 270.185 169.511 269.95C169.105 269.715 168.668 269.598 168.199 269.598C167.729 269.598 167.292 269.715 166.887 269.95C166.481 270.174 166.151 270.51 165.895 270.958C165.649 271.395 165.527 271.918 165.527 272.526C165.527 273.134 165.649 273.667 165.895 274.126C166.151 274.585 166.481 274.937 166.887 275.182C167.303 275.417 167.74 275.534 168.199 275.534C168.668 275.534 169.105 275.417 169.511 275.182C169.916 274.947 170.241 274.606 170.487 274.158C170.743 273.699 170.871 273.166 170.871 272.558ZM179.554 268.014C180.248 268.014 180.866 268.158 181.41 268.446C181.965 268.734 182.397 269.161 182.706 269.726C183.016 270.291 183.17 270.974 183.17 271.774V276.974H181.362V272.046C181.362 271.257 181.165 270.654 180.77 270.238C180.376 269.811 179.837 269.598 179.154 269.598C178.472 269.598 177.928 269.811 177.522 270.238C177.128 270.654 176.93 271.257 176.93 272.046V276.974H175.106V268.158H176.93V269.166C177.229 268.803 177.608 268.521 178.066 268.318C178.536 268.115 179.032 268.014 179.554 268.014ZM184.889 272.526C184.889 271.641 185.07 270.857 185.433 270.174C185.806 269.491 186.308 268.963 186.937 268.59C187.577 268.206 188.286 268.014 189.065 268.014C189.641 268.014 190.206 268.142 190.761 268.398C191.326 268.643 191.774 268.974 192.105 269.39V265.134H193.945V276.974H192.105V275.646C191.806 276.073 191.39 276.425 190.857 276.702C190.334 276.979 189.732 277.118 189.049 277.118C188.281 277.118 187.577 276.926 186.937 276.542C186.308 276.147 185.806 275.603 185.433 274.91C185.07 274.206 184.889 273.411 184.889 272.526ZM192.105 272.558C192.105 271.95 191.977 271.422 191.721 270.974C191.476 270.526 191.15 270.185 190.745 269.95C190.34 269.715 189.902 269.598 189.433 269.598C188.964 269.598 188.526 269.715 188.121 269.95C187.716 270.174 187.385 270.51 187.129 270.958C186.884 271.395 186.761 271.918 186.761 272.526C186.761 273.134 186.884 273.667 187.129 274.126C187.385 274.585 187.716 274.937 188.121 275.182C188.537 275.417 188.974 275.534 189.433 275.534C189.902 275.534 190.34 275.417 190.745 275.182C191.15 274.947 191.476 274.606 191.721 274.158C191.977 273.699 192.105 273.166 192.105 272.558ZM195.733 272.526C195.733 271.641 195.914 270.857 196.277 270.174C196.65 269.491 197.151 268.963 197.781 268.59C198.421 268.206 199.125 268.014 199.893 268.014C200.586 268.014 201.189 268.153 201.701 268.43C202.223 268.697 202.639 269.033 202.949 269.438V268.158H204.789V276.974H202.949V275.662C202.639 276.078 202.218 276.425 201.685 276.702C201.151 276.979 200.543 277.118 199.861 277.118C199.103 277.118 198.41 276.926 197.781 276.542C197.151 276.147 196.65 275.603 196.277 274.91C195.914 274.206 195.733 273.411 195.733 272.526ZM202.949 272.558C202.949 271.95 202.821 271.422 202.565 270.974C202.319 270.526 201.994 270.185 201.589 269.95C201.183 269.715 200.746 269.598 200.277 269.598C199.807 269.598 199.37 269.715 198.965 269.95C198.559 270.174 198.229 270.51 197.973 270.958C197.727 271.395 197.605 271.918 197.605 272.526C197.605 273.134 197.727 273.667 197.973 274.126C198.229 274.585 198.559 274.937 198.965 275.182C199.381 275.417 199.818 275.534 200.277 275.534C200.746 275.534 201.183 275.417 201.589 275.182C201.994 274.947 202.319 274.606 202.565 274.158C202.821 273.699 202.949 273.166 202.949 272.558ZM209.008 269.438C209.275 268.99 209.627 268.643 210.064 268.398C210.512 268.142 211.04 268.014 211.648 268.014V269.902H211.184C210.47 269.902 209.926 270.083 209.552 270.446C209.19 270.809 209.008 271.438 209.008 272.334V276.974H207.184V268.158H209.008V269.438ZM212.717 272.526C212.717 271.641 212.898 270.857 213.261 270.174C213.634 269.491 214.136 268.963 214.765 268.59C215.405 268.206 216.114 268.014 216.893 268.014C217.469 268.014 218.034 268.142 218.589 268.398C219.154 268.643 219.602 268.974 219.933 269.39V265.134H221.773V276.974H219.933V275.646C219.634 276.073 219.218 276.425 218.685 276.702C218.162 276.979 217.56 277.118 216.877 277.118C216.109 277.118 215.405 276.926 214.765 276.542C214.136 276.147 213.634 275.603 213.261 274.91C212.898 274.206 212.717 273.411 212.717 272.526ZM219.933 272.558C219.933 271.95 219.805 271.422 219.549 270.974C219.304 270.526 218.978 270.185 218.573 269.95C218.168 269.715 217.73 269.598 217.261 269.598C216.792 269.598 216.354 269.715 215.949 269.95C215.544 270.174 215.213 270.51 214.957 270.958C214.712 271.395 214.589 271.918 214.589 272.526C214.589 273.134 214.712 273.667 214.957 274.126C215.213 274.585 215.544 274.937 215.949 275.182C216.365 275.417 216.802 275.534 217.261 275.534C217.73 275.534 218.168 275.417 218.573 275.182C218.978 274.947 219.304 274.606 219.549 274.158C219.805 273.699 219.933 273.166 219.933 272.558ZM225.097 266.99C224.766 266.99 224.489 266.878 224.265 266.654C224.041 266.43 223.929 266.153 223.929 265.822C223.929 265.491 224.041 265.214 224.265 264.99C224.489 264.766 224.766 264.654 225.097 264.654C225.417 264.654 225.689 264.766 225.913 264.99C226.137 265.214 226.249 265.491 226.249 265.822C226.249 266.153 226.137 266.43 225.913 266.654C225.689 266.878 225.417 266.99 225.097 266.99ZM225.993 268.158V276.974H224.169V268.158H225.993ZM230.004 275.486H234.004V276.974H227.892V275.486L231.908 269.646H227.892V268.158H234.004V269.646L230.004 275.486ZM243.999 272.35C243.999 272.681 243.977 272.979 243.935 273.246H237.199C237.252 273.95 237.513 274.515 237.983 274.942C238.452 275.369 239.028 275.582 239.711 275.582C240.692 275.582 241.385 275.171 241.791 274.35H243.759C243.492 275.161 243.007 275.827 242.303 276.35C241.609 276.862 240.745 277.118 239.711 277.118C238.868 277.118 238.111 276.931 237.439 276.558C236.777 276.174 236.255 275.641 235.871 274.958C235.497 274.265 235.311 273.465 235.311 272.558C235.311 271.651 235.492 270.857 235.855 270.174C236.228 269.481 236.745 268.947 237.407 268.574C238.079 268.201 238.847 268.014 239.711 268.014C240.543 268.014 241.284 268.195 241.935 268.558C242.585 268.921 243.092 269.433 243.455 270.094C243.817 270.745 243.999 271.497 243.999 272.35ZM242.095 271.774C242.084 271.102 241.844 270.563 241.375 270.158C240.905 269.753 240.324 269.55 239.631 269.55C239.001 269.55 238.463 269.753 238.015 270.158C237.567 270.553 237.3 271.091 237.215 271.774H242.095ZM245.186 272.526C245.186 271.641 245.367 270.857 245.73 270.174C246.103 269.491 246.604 268.963 247.234 268.59C247.874 268.206 248.583 268.014 249.362 268.014C249.938 268.014 250.503 268.142 251.058 268.398C251.623 268.643 252.071 268.974 252.402 269.39V265.134H254.242V276.974H252.402V275.646C252.103 276.073 251.687 276.425 251.154 276.702C250.631 276.979 250.028 277.118 249.346 277.118C248.578 277.118 247.874 276.926 247.234 276.542C246.604 276.147 246.103 275.603 245.73 274.91C245.367 274.206 245.186 273.411 245.186 272.526ZM252.402 272.558C252.402 271.95 252.274 271.422 252.018 270.974C251.772 270.526 251.447 270.185 251.042 269.95C250.636 269.715 250.199 269.598 249.73 269.598C249.26 269.598 248.823 269.715 248.418 269.95C248.012 270.174 247.682 270.51 247.426 270.958C247.18 271.395 247.058 271.918 247.058 272.526C247.058 273.134 247.18 273.667 247.426 274.126C247.682 274.585 248.012 274.937 248.418 275.182C248.834 275.417 249.271 275.534 249.73 275.534C250.199 275.534 250.636 275.417 251.042 275.182C251.447 274.947 251.772 274.606 252.018 274.158C252.274 273.699 252.402 273.166 252.402 272.558ZM267.338 265.854V267.342H262.618V270.622H266.298V272.11H262.618V276.974H260.794V265.854H267.338ZM269.956 266.99C269.625 266.99 269.348 266.878 269.124 266.654C268.9 266.43 268.788 266.153 268.788 265.822C268.788 265.491 268.9 265.214 269.124 264.99C269.348 264.766 269.625 264.654 269.956 264.654C270.276 264.654 270.548 264.766 270.772 264.99C270.996 265.214 271.108 265.491 271.108 265.822C271.108 266.153 270.996 266.43 270.772 266.654C270.548 266.878 270.276 266.99 269.956 266.99ZM270.852 268.158V276.974H269.028V268.158H270.852ZM277.695 268.014C278.388 268.014 279.007 268.158 279.551 268.446C280.106 268.734 280.538 269.161 280.847 269.726C281.156 270.291 281.311 270.974 281.311 271.774V276.974H279.503V272.046C279.503 271.257 279.306 270.654 278.911 270.238C278.516 269.811 277.978 269.598 277.295 269.598C276.612 269.598 276.068 269.811 275.663 270.238C275.268 270.654 275.071 271.257 275.071 272.046V276.974H273.247V268.158H275.071V269.166C275.37 268.803 275.748 268.521 276.207 268.318C276.676 268.115 277.172 268.014 277.695 268.014ZM283.03 272.526C283.03 271.641 283.211 270.857 283.574 270.174C283.947 269.491 284.448 268.963 285.078 268.59C285.718 268.206 286.422 268.014 287.19 268.014C287.883 268.014 288.486 268.153 288.998 268.43C289.52 268.697 289.936 269.033 290.246 269.438V268.158H292.086V276.974H290.246V275.662C289.936 276.078 289.515 276.425 288.982 276.702C288.448 276.979 287.84 277.118 287.158 277.118C286.4 277.118 285.707 276.926 285.078 276.542C284.448 276.147 283.947 275.603 283.574 274.91C283.211 274.206 283.03 273.411 283.03 272.526ZM290.246 272.558C290.246 271.95 290.118 271.422 289.862 270.974C289.616 270.526 289.291 270.185 288.886 269.95C288.48 269.715 288.043 269.598 287.574 269.598C287.104 269.598 286.667 269.715 286.262 269.95C285.856 270.174 285.526 270.51 285.27 270.958C285.024 271.395 284.902 271.918 284.902 272.526C284.902 273.134 285.024 273.667 285.27 274.126C285.526 274.585 285.856 274.937 286.262 275.182C286.678 275.417 287.115 275.534 287.574 275.534C288.043 275.534 288.48 275.417 288.886 275.182C289.291 274.947 289.616 274.606 289.862 274.158C290.118 273.699 290.246 273.166 290.246 272.558ZM298.929 268.014C299.623 268.014 300.241 268.158 300.785 268.446C301.34 268.734 301.772 269.161 302.081 269.726C302.391 270.291 302.545 270.974 302.545 271.774V276.974H300.737V272.046C300.737 271.257 300.54 270.654 300.145 270.238C299.751 269.811 299.212 269.598 298.529 269.598C297.847 269.598 297.303 269.811 296.897 270.238C296.503 270.654 296.305 271.257 296.305 272.046V276.974H294.481V268.158H296.305V269.166C296.604 268.803 296.983 268.521 297.441 268.318C297.911 268.115 298.407 268.014 298.929 268.014ZM304.264 272.558C304.264 271.651 304.445 270.857 304.808 270.174C305.181 269.481 305.693 268.947 306.344 268.574C306.995 268.201 307.741 268.014 308.584 268.014C309.651 268.014 310.531 268.27 311.224 268.782C311.928 269.283 312.403 270.003 312.648 270.942H310.68C310.52 270.505 310.264 270.163 309.912 269.918C309.56 269.673 309.117 269.55 308.584 269.55C307.837 269.55 307.24 269.817 306.792 270.35C306.355 270.873 306.136 271.609 306.136 272.558C306.136 273.507 306.355 274.249 306.792 274.782C307.24 275.315 307.837 275.582 308.584 275.582C309.64 275.582 310.339 275.118 310.68 274.19H312.648C312.392 275.086 311.912 275.801 311.208 276.334C310.504 276.857 309.629 277.118 308.584 277.118C307.741 277.118 306.995 276.931 306.344 276.558C305.693 276.174 305.181 275.641 304.808 274.958C304.445 274.265 304.264 273.465 304.264 272.558ZM315.394 266.99C315.063 266.99 314.786 266.878 314.562 266.654C314.338 266.43 314.226 266.153 314.226 265.822C314.226 265.491 314.338 265.214 314.562 264.99C314.786 264.766 315.063 264.654 315.394 264.654C315.714 264.654 315.986 264.766 316.21 264.99C316.434 265.214 316.546 265.491 316.546 265.822C316.546 266.153 316.434 266.43 316.21 266.654C315.986 266.878 315.714 266.99 315.394 266.99ZM316.29 268.158V276.974H314.466V268.158H316.29ZM318.076 272.526C318.076 271.641 318.258 270.857 318.62 270.174C318.994 269.491 319.495 268.963 320.124 268.59C320.764 268.206 321.468 268.014 322.236 268.014C322.93 268.014 323.532 268.153 324.044 268.43C324.567 268.697 324.983 269.033 325.292 269.438V268.158H327.132V276.974H325.292V275.662C324.983 276.078 324.562 276.425 324.028 276.702C323.495 276.979 322.887 277.118 322.204 277.118C321.447 277.118 320.754 276.926 320.124 276.542C319.495 276.147 318.994 275.603 318.62 274.91C318.258 274.206 318.076 273.411 318.076 272.526ZM325.292 272.558C325.292 271.95 325.164 271.422 324.908 270.974C324.663 270.526 324.338 270.185 323.932 269.95C323.527 269.715 323.09 269.598 322.62 269.598C322.151 269.598 321.714 269.715 321.308 269.95C320.903 270.174 320.572 270.51 320.316 270.958C320.071 271.395 319.948 271.918 319.948 272.526C319.948 273.134 320.071 273.667 320.316 274.126C320.572 274.585 320.903 274.937 321.308 275.182C321.724 275.417 322.162 275.534 322.62 275.534C323.09 275.534 323.527 275.417 323.932 275.182C324.338 274.947 324.663 274.606 324.908 274.158C325.164 273.699 325.292 273.166 325.292 272.558ZM331.352 265.134V276.974H329.528V265.134H331.352ZM186.945 298.974L184.385 294.526H182.993V298.974H181.169V287.854H185.009C185.862 287.854 186.582 288.003 187.169 288.302C187.766 288.601 188.209 289.001 188.497 289.502C188.795 290.003 188.945 290.563 188.945 291.182C188.945 291.907 188.731 292.569 188.305 293.166C187.889 293.753 187.243 294.153 186.369 294.366L189.121 298.974H186.945ZM182.993 293.07H185.009C185.691 293.07 186.203 292.899 186.545 292.558C186.897 292.217 187.073 291.758 187.073 291.182C187.073 290.606 186.902 290.158 186.561 289.838C186.219 289.507 185.702 289.342 185.009 289.342H182.993V293.07ZM199.358 294.35C199.358 294.681 199.337 294.979 199.294 295.246H192.558C192.611 295.95 192.873 296.515 193.342 296.942C193.811 297.369 194.387 297.582 195.07 297.582C196.051 297.582 196.745 297.171 197.15 296.35H199.118C198.851 297.161 198.366 297.827 197.662 298.35C196.969 298.862 196.105 299.118 195.07 299.118C194.227 299.118 193.47 298.931 192.798 298.558C192.137 298.174 191.614 297.641 191.23 296.958C190.857 296.265 190.67 295.465 190.67 294.558C190.67 293.651 190.851 292.857 191.214 292.174C191.587 291.481 192.105 290.947 192.766 290.574C193.438 290.201 194.206 290.014 195.07 290.014C195.902 290.014 196.643 290.195 197.294 290.558C197.945 290.921 198.451 291.433 198.814 292.094C199.177 292.745 199.358 293.497 199.358 294.35ZM197.454 293.774C197.443 293.102 197.203 292.563 196.734 292.158C196.265 291.753 195.683 291.55 194.99 291.55C194.361 291.55 193.822 291.753 193.374 292.158C192.926 292.553 192.659 293.091 192.574 293.774H197.454ZM200.545 294.558C200.545 293.651 200.726 292.857 201.089 292.174C201.462 291.481 201.974 290.947 202.625 290.574C203.276 290.201 204.022 290.014 204.865 290.014C205.932 290.014 206.812 290.27 207.505 290.782C208.209 291.283 208.684 292.003 208.929 292.942H206.961C206.801 292.505 206.545 292.163 206.193 291.918C205.841 291.673 205.398 291.55 204.865 291.55C204.118 291.55 203.521 291.817 203.073 292.35C202.636 292.873 202.417 293.609 202.417 294.558C202.417 295.507 202.636 296.249 203.073 296.782C203.521 297.315 204.118 297.582 204.865 297.582C205.921 297.582 206.62 297.118 206.961 296.19H208.929C208.673 297.086 208.193 297.801 207.489 298.334C206.785 298.857 205.91 299.118 204.865 299.118C204.022 299.118 203.276 298.931 202.625 298.558C201.974 298.174 201.462 297.641 201.089 296.958C200.726 296.265 200.545 295.465 200.545 294.558ZM214.571 299.118C213.739 299.118 212.987 298.931 212.315 298.558C211.643 298.174 211.115 297.641 210.731 296.958C210.347 296.265 210.155 295.465 210.155 294.558C210.155 293.662 210.352 292.867 210.747 292.174C211.142 291.481 211.68 290.947 212.363 290.574C213.046 290.201 213.808 290.014 214.651 290.014C215.494 290.014 216.256 290.201 216.939 290.574C217.622 290.947 218.16 291.481 218.555 292.174C218.95 292.867 219.147 293.662 219.147 294.558C219.147 295.454 218.944 296.249 218.539 296.942C218.134 297.635 217.579 298.174 216.875 298.558C216.182 298.931 215.414 299.118 214.571 299.118ZM214.571 297.534C215.04 297.534 215.478 297.422 215.883 297.198C216.299 296.974 216.635 296.638 216.891 296.19C217.147 295.742 217.275 295.198 217.275 294.558C217.275 293.918 217.152 293.379 216.907 292.942C216.662 292.494 216.336 292.158 215.931 291.934C215.526 291.71 215.088 291.598 214.619 291.598C214.15 291.598 213.712 291.71 213.307 291.934C212.912 292.158 212.598 292.494 212.363 292.942C212.128 293.379 212.011 293.918 212.011 294.558C212.011 295.507 212.251 296.243 212.731 296.766C213.222 297.278 213.835 297.534 214.571 297.534ZM222.774 291.438C223.041 290.99 223.393 290.643 223.83 290.398C224.278 290.142 224.806 290.014 225.414 290.014V291.902H224.95C224.235 291.902 223.691 292.083 223.318 292.446C222.955 292.809 222.774 293.438 222.774 294.334V298.974H220.95V290.158H222.774V291.438ZM226.483 294.526C226.483 293.641 226.664 292.857 227.027 292.174C227.4 291.491 227.901 290.963 228.531 290.59C229.171 290.206 229.88 290.014 230.659 290.014C231.235 290.014 231.8 290.142 232.355 290.398C232.92 290.643 233.368 290.974 233.699 291.39V287.134H235.539V298.974H233.699V297.646C233.4 298.073 232.984 298.425 232.451 298.702C231.928 298.979 231.325 299.118 230.643 299.118C229.875 299.118 229.171 298.926 228.531 298.542C227.901 298.147 227.4 297.603 227.027 296.91C226.664 296.206 226.483 295.411 226.483 294.526ZM233.699 294.558C233.699 293.95 233.571 293.422 233.315 292.974C233.069 292.526 232.744 292.185 232.339 291.95C231.933 291.715 231.496 291.598 231.027 291.598C230.557 291.598 230.12 291.715 229.715 291.95C229.309 292.174 228.979 292.51 228.723 292.958C228.477 293.395 228.355 293.918 228.355 294.526C228.355 295.134 228.477 295.667 228.723 296.126C228.979 296.585 229.309 296.937 229.715 297.182C230.131 297.417 230.568 297.534 231.027 297.534C231.496 297.534 231.933 297.417 232.339 297.182C232.744 296.947 233.069 296.606 233.315 296.158C233.571 295.699 233.699 295.166 233.699 294.558ZM250.139 291.054C249.851 290.499 249.451 290.083 248.939 289.806C248.427 289.518 247.835 289.374 247.163 289.374C246.427 289.374 245.771 289.539 245.195 289.87C244.619 290.201 244.165 290.67 243.835 291.278C243.515 291.886 243.355 292.59 243.355 293.39C243.355 294.19 243.515 294.899 243.835 295.518C244.165 296.126 244.619 296.595 245.195 296.926C245.771 297.257 246.427 297.422 247.163 297.422C248.155 297.422 248.96 297.145 249.579 296.59C250.197 296.035 250.576 295.283 250.715 294.334H246.539V292.878H252.667V294.302C252.549 295.166 252.24 295.961 251.739 296.686C251.248 297.411 250.603 297.993 249.803 298.43C249.013 298.857 248.133 299.07 247.163 299.07C246.117 299.07 245.163 298.83 244.299 298.35C243.435 297.859 242.747 297.182 242.235 296.318C241.733 295.454 241.483 294.478 241.483 293.39C241.483 292.302 241.733 291.326 242.235 290.462C242.747 289.598 243.435 288.926 244.299 288.446C245.173 287.955 246.128 287.71 247.163 287.71C248.347 287.71 249.397 288.003 250.315 288.59C251.243 289.166 251.915 289.987 252.331 291.054H250.139ZM256.29 291.438C256.556 290.99 256.908 290.643 257.346 290.398C257.794 290.142 258.322 290.014 258.93 290.014V291.902H258.466C257.751 291.902 257.207 292.083 256.834 292.446C256.471 292.809 256.29 293.438 256.29 294.334V298.974H254.466V290.158H256.29V291.438ZM259.998 294.526C259.998 293.641 260.18 292.857 260.542 292.174C260.916 291.491 261.417 290.963 262.046 290.59C262.686 290.206 263.39 290.014 264.158 290.014C264.852 290.014 265.454 290.153 265.966 290.43C266.489 290.697 266.905 291.033 267.214 291.438V290.158H269.054V298.974H267.214V297.662C266.905 298.078 266.484 298.425 265.95 298.702C265.417 298.979 264.809 299.118 264.126 299.118C263.369 299.118 262.676 298.926 262.046 298.542C261.417 298.147 260.916 297.603 260.542 296.91C260.18 296.206 259.998 295.411 259.998 294.526ZM267.214 294.558C267.214 293.95 267.086 293.422 266.83 292.974C266.585 292.526 266.26 292.185 265.854 291.95C265.449 291.715 265.012 291.598 264.542 291.598C264.073 291.598 263.636 291.715 263.23 291.95C262.825 292.174 262.494 292.51 262.238 292.958C261.993 293.395 261.87 293.918 261.87 294.526C261.87 295.134 261.993 295.667 262.238 296.126C262.494 296.585 262.825 296.937 263.23 297.182C263.646 297.417 264.084 297.534 264.542 297.534C265.012 297.534 265.449 297.417 265.854 297.182C266.26 296.947 266.585 296.606 266.83 296.158C267.086 295.699 267.214 295.166 267.214 294.558ZM273.274 291.454C273.583 291.049 274.005 290.707 274.538 290.43C275.071 290.153 275.674 290.014 276.346 290.014C277.114 290.014 277.813 290.206 278.442 290.59C279.082 290.963 279.583 291.491 279.946 292.174C280.309 292.857 280.49 293.641 280.49 294.526C280.49 295.411 280.309 296.206 279.946 296.91C279.583 297.603 279.082 298.147 278.442 298.542C277.813 298.926 277.114 299.118 276.346 299.118C275.674 299.118 275.077 298.985 274.554 298.718C274.031 298.441 273.605 298.099 273.274 297.694V303.166H271.45V290.158H273.274V291.454ZM278.634 294.526C278.634 293.918 278.506 293.395 278.25 292.958C278.005 292.51 277.674 292.174 277.258 291.95C276.853 291.715 276.415 291.598 275.946 291.598C275.487 291.598 275.05 291.715 274.634 291.95C274.229 292.185 273.898 292.526 273.642 292.974C273.397 293.422 273.274 293.95 273.274 294.558C273.274 295.166 273.397 295.699 273.642 296.158C273.898 296.606 274.229 296.947 274.634 297.182C275.05 297.417 275.487 297.534 275.946 297.534C276.415 297.534 276.853 297.417 277.258 297.182C277.674 296.937 278.005 296.585 278.25 296.126C278.506 295.667 278.634 295.134 278.634 294.526ZM286.854 290.014C287.526 290.014 288.123 290.158 288.646 290.446C289.179 290.734 289.595 291.161 289.894 291.726C290.203 292.291 290.358 292.974 290.358 293.774V298.974H288.55V294.046C288.55 293.257 288.352 292.654 287.958 292.238C287.563 291.811 287.024 291.598 286.342 291.598C285.659 291.598 285.115 291.811 284.71 292.238C284.315 292.654 284.118 293.257 284.118 294.046V298.974H282.294V287.134H284.118V291.182C284.427 290.809 284.816 290.521 285.286 290.318C285.766 290.115 286.288 290.014 286.854 290.014ZM295.884 299.118C295.191 299.118 294.567 298.995 294.012 298.75C293.468 298.494 293.036 298.153 292.716 297.726C292.396 297.289 292.226 296.803 292.204 296.27H294.092C294.124 296.643 294.3 296.958 294.62 297.214C294.951 297.459 295.362 297.582 295.852 297.582C296.364 297.582 296.759 297.486 297.036 297.294C297.324 297.091 297.468 296.835 297.468 296.526C297.468 296.195 297.308 295.95 296.988 295.79C296.679 295.63 296.183 295.454 295.5 295.262C294.839 295.081 294.3 294.905 293.884 294.734C293.468 294.563 293.106 294.302 292.796 293.95C292.498 293.598 292.348 293.134 292.348 292.558C292.348 292.089 292.487 291.662 292.764 291.278C293.042 290.883 293.436 290.574 293.948 290.35C294.471 290.126 295.068 290.014 295.74 290.014C296.743 290.014 297.548 290.27 298.156 290.782C298.775 291.283 299.106 291.971 299.148 292.846H297.324C297.292 292.451 297.132 292.137 296.844 291.902C296.556 291.667 296.167 291.55 295.676 291.55C295.196 291.55 294.828 291.641 294.572 291.822C294.316 292.003 294.188 292.243 294.188 292.542C294.188 292.777 294.274 292.974 294.444 293.134C294.615 293.294 294.823 293.422 295.068 293.518C295.314 293.603 295.676 293.715 296.156 293.854C296.796 294.025 297.319 294.201 297.724 294.382C298.14 294.553 298.498 294.809 298.796 295.15C299.095 295.491 299.25 295.945 299.26 296.51C299.26 297.011 299.122 297.459 298.844 297.854C298.567 298.249 298.172 298.558 297.66 298.782C297.159 299.006 296.567 299.118 295.884 299.118Z" fill="#ABAECD"/>
<path opacity="0.2" fill-rule="evenodd" clip-rule="evenodd" d="M259 175.974L259 238.974L227 238.974L227 175.974L259 175.974Z" fill="url(#paint1_linear_3879_13590)"/>
<circle cx="242.535" cy="193.974" r="3" transform="rotate(90 242.535 193.974)" fill="#A2CB94"/>
<circle cx="242.535" cy="83.9741" r="3" transform="rotate(90 242.535 83.9741)" fill="#A2CB94"/>
<circle opacity="0.5" cx="242.535" cy="223.974" r="3" transform="rotate(90 242.535 223.974)" fill="#A2CB94"/>
<path opacity="0.7" d="M359.75 412.974V441.727C359.75 442.831 358.855 443.727 357.75 443.727H286.25C285.145 443.727 284.25 442.831 284.25 441.727V412.974" stroke="url(#paint2_linear_3879_13590)" stroke-width="2"/>
<path opacity="0.75" d="M274 455.974L274 419.974" stroke="url(#paint3_linear_3879_13590)" stroke-width="2"/>
<circle r="6.375" transform="matrix(-1 0 0 1 321.375 444.349)" fill="url(#paint4_linear_3879_13590)"/>
<path opacity="0.7" d="M359.75 370.724V341.972C359.75 340.867 358.855 339.972 357.75 339.972H286.25C285.145 339.972 284.25 340.867 284.25 341.972V370.724" stroke="url(#paint5_linear_3879_13590)" stroke-width="2"/>
<circle cx="320.625" cy="339.349" r="6.375" transform="rotate(-180 320.625 339.349)" fill="url(#paint6_linear_3879_13590)"/>
<circle r="6.375" transform="matrix(-1 0 0 1 274.375 461.349)" fill="url(#paint7_linear_3879_13590)"/>
<path opacity="0.72" d="M122 412.974V441.727C122 442.831 122.895 443.727 124 443.727H195.5C196.605 443.727 197.5 442.831 197.5 441.727V412.974" stroke="url(#paint8_linear_3879_13590)" stroke-width="2"/>
<path opacity="0.56" d="M208 455.974L208 422.974" stroke="url(#paint9_linear_3879_13590)" stroke-width="2"/>
<path opacity="0.7" d="M197.5 332.974V363.727" stroke="url(#paint10_linear_3879_13590)" stroke-width="2"/>
<path opacity="0.7" d="M208 361.727V340.974C208 339.87 208.895 338.974 210 338.974H227.5" stroke="url(#paint11_linear_3879_13590)" stroke-width="2"/>
<path d="M170.5 392.974H146.5" stroke="url(#paint12_linear_3879_13590)" stroke-width="2"/>
<g opacity="0.4">
<path d="M249 392.974H225" stroke="#4680B5" stroke-width="2"/>
<path d="M249 392.974H225" stroke="url(#paint13_linear_3879_13590)" stroke-width="2"/>
</g>
<g opacity="0.4">
<path d="M328 392.974H304" stroke="#4680B5" stroke-width="2"/>
<path d="M328 392.974H304" stroke="url(#paint14_linear_3879_13590)" stroke-width="2"/>
</g>
<circle cx="122.375" cy="444.349" r="6.375" fill="url(#paint15_linear_3879_13590)"/>
<circle cx="197.375" cy="444.349" r="6.375" fill="url(#paint16_linear_3879_13590)"/>
<circle cx="197.375" cy="328.349" r="6.375" fill="url(#paint17_linear_3879_13590)"/>
<circle cx="208.375" cy="461.349" r="6.375" fill="url(#paint18_linear_3879_13590)"/>
<circle cx="209.375" cy="340.349" r="6.375" fill="url(#paint19_linear_3879_13590)"/>
<circle cx="233.375" cy="340.349" r="6.375" fill="url(#paint20_linear_3879_13590)"/>
<circle cx="123.5" cy="392.474" r="32.5" fill="url(#paint21_linear_3879_13590)"/>
<path d="M100.315 392.824C100.315 392.206 100.453 391.654 100.729 391.168C101.011 390.676 101.392 390.295 101.872 390.025C102.358 389.749 102.901 389.611 103.501 389.611C104.203 389.611 104.818 389.791 105.346 390.151C105.874 390.511 106.243 391.009 106.453 391.645H105.004C104.86 391.345 104.656 391.12 104.392 390.97C104.134 390.82 103.834 390.745 103.492 390.745C103.126 390.745 102.799 390.832 102.511 391.006C102.229 391.174 102.007 391.414 101.845 391.726C101.689 392.038 101.611 392.404 101.611 392.824C101.611 393.238 101.689 393.604 101.845 393.922C102.007 394.234 102.229 394.477 102.511 394.651C102.799 394.819 103.126 394.903 103.492 394.903C103.834 394.903 104.134 394.828 104.392 394.678C104.656 394.522 104.86 394.294 105.004 393.994H106.453C106.243 394.636 105.874 395.137 105.346 395.497C104.824 395.851 104.209 396.028 103.501 396.028C102.901 396.028 102.358 395.893 101.872 395.623C101.392 395.347 101.011 394.966 100.729 394.48C100.453 393.994 100.315 393.442 100.315 392.824ZM112.236 390.988V395.974H110.967V395.344C110.805 395.56 110.592 395.731 110.328 395.857C110.07 395.977 109.788 396.037 109.482 396.037C109.092 396.037 108.747 395.956 108.447 395.794C108.147 395.626 107.91 395.383 107.736 395.065C107.568 394.741 107.484 394.357 107.484 393.913V390.988H108.744V393.733C108.744 394.129 108.843 394.435 109.041 394.651C109.239 394.861 109.509 394.966 109.851 394.966C110.199 394.966 110.472 394.861 110.67 394.651C110.868 394.435 110.967 394.129 110.967 393.733V390.988H112.236ZM115.387 396.055C114.979 396.055 114.613 395.983 114.289 395.839C113.965 395.689 113.707 395.488 113.515 395.236C113.329 394.984 113.227 394.705 113.209 394.399H114.478C114.502 394.591 114.595 394.75 114.757 394.876C114.925 395.002 115.132 395.065 115.378 395.065C115.618 395.065 115.804 395.017 115.936 394.921C116.074 394.825 116.143 394.702 116.143 394.552C116.143 394.39 116.059 394.27 115.891 394.192C115.729 394.108 115.468 394.018 115.108 393.922C114.736 393.832 114.43 393.739 114.19 393.643C113.956 393.547 113.752 393.4 113.578 393.202C113.41 393.004 113.326 392.737 113.326 392.401C113.326 392.125 113.404 391.873 113.56 391.645C113.722 391.417 113.95 391.237 114.244 391.105C114.544 390.973 114.895 390.907 115.297 390.907C115.891 390.907 116.365 391.057 116.719 391.357C117.073 391.651 117.268 392.05 117.304 392.554H116.098C116.08 392.356 115.996 392.2 115.846 392.086C115.702 391.966 115.507 391.906 115.261 391.906C115.033 391.906 114.856 391.948 114.73 392.032C114.61 392.116 114.55 392.233 114.55 392.383C114.55 392.551 114.634 392.68 114.802 392.77C114.97 392.854 115.231 392.941 115.585 393.031C115.945 393.121 116.242 393.214 116.476 393.31C116.71 393.406 116.911 393.556 117.079 393.76C117.253 393.958 117.343 394.222 117.349 394.552C117.349 394.84 117.268 395.098 117.106 395.326C116.95 395.554 116.722 395.734 116.422 395.866C116.128 395.992 115.783 396.055 115.387 396.055ZM119.851 392.023V394.435C119.851 394.603 119.89 394.726 119.968 394.804C120.052 394.876 120.19 394.912 120.382 394.912H120.967V395.974H120.175C119.113 395.974 118.582 395.458 118.582 394.426V392.023H117.988V390.988H118.582V389.755H119.851V390.988H120.967V392.023H119.851ZM124.087 396.055C123.607 396.055 123.175 395.95 122.791 395.74C122.407 395.524 122.104 395.221 121.882 394.831C121.666 394.441 121.558 393.991 121.558 393.481C121.558 392.971 121.669 392.521 121.891 392.131C122.119 391.741 122.428 391.441 122.818 391.231C123.208 391.015 123.643 390.907 124.123 390.907C124.603 390.907 125.038 391.015 125.428 391.231C125.818 391.441 126.124 391.741 126.346 392.131C126.574 392.521 126.688 392.971 126.688 393.481C126.688 393.991 126.571 394.441 126.337 394.831C126.109 395.221 125.797 395.524 125.401 395.74C125.011 395.95 124.573 396.055 124.087 396.055ZM124.087 394.957C124.315 394.957 124.528 394.903 124.726 394.795C124.93 394.681 125.092 394.513 125.212 394.291C125.332 394.069 125.392 393.799 125.392 393.481C125.392 393.007 125.266 392.644 125.014 392.392C124.768 392.134 124.465 392.005 124.105 392.005C123.745 392.005 123.442 392.134 123.196 392.392C122.956 392.644 122.836 393.007 122.836 393.481C122.836 393.955 122.953 394.321 123.187 394.579C123.427 394.831 123.727 394.957 124.087 394.957ZM133.804 390.916C134.416 390.916 134.908 391.105 135.28 391.483C135.658 391.855 135.847 392.377 135.847 393.049V395.974H134.587V393.22C134.587 392.83 134.488 392.533 134.29 392.329C134.092 392.119 133.822 392.014 133.48 392.014C133.138 392.014 132.865 392.119 132.661 392.329C132.463 392.533 132.364 392.83 132.364 393.22V395.974H131.104V393.22C131.104 392.83 131.005 392.533 130.807 392.329C130.609 392.119 130.339 392.014 129.997 392.014C129.649 392.014 129.373 392.119 129.169 392.329C128.971 392.533 128.872 392.83 128.872 393.22V395.974H127.612V390.988H128.872V391.591C129.034 391.381 129.241 391.216 129.493 391.096C129.751 390.976 130.033 390.916 130.339 390.916C130.729 390.916 131.077 391 131.383 391.168C131.689 391.33 131.926 391.564 132.094 391.87C132.256 391.582 132.49 391.351 132.796 391.177C133.108 391.003 133.444 390.916 133.804 390.916ZM141.678 393.373C141.678 393.553 141.666 393.715 141.642 393.859H137.997C138.027 394.219 138.153 394.501 138.375 394.705C138.597 394.909 138.87 395.011 139.194 395.011C139.662 395.011 139.995 394.81 140.193 394.408H141.552C141.408 394.888 141.132 395.284 140.724 395.596C140.316 395.902 139.815 396.055 139.221 396.055C138.741 396.055 138.309 395.95 137.925 395.74C137.547 395.524 137.25 395.221 137.034 394.831C136.824 394.441 136.719 393.991 136.719 393.481C136.719 392.965 136.824 392.512 137.034 392.122C137.244 391.732 137.538 391.432 137.916 391.222C138.294 391.012 138.729 390.907 139.221 390.907C139.695 390.907 140.118 391.009 140.49 391.213C140.868 391.417 141.159 391.708 141.363 392.086C141.573 392.458 141.678 392.887 141.678 393.373ZM140.373 393.013C140.367 392.689 140.25 392.431 140.022 392.239C139.794 392.041 139.515 391.942 139.185 391.942C138.873 391.942 138.609 392.038 138.393 392.23C138.183 392.416 138.054 392.677 138.006 393.013H140.373ZM143.858 391.762C144.02 391.498 144.23 391.291 144.488 391.141C144.752 390.991 145.052 390.916 145.388 390.916V392.239H145.055C144.659 392.239 144.359 392.332 144.155 392.518C143.957 392.704 143.858 393.028 143.858 393.49V395.974H142.598V390.988H143.858V391.762Z" fill="#2A326D" fill-opacity="0.8"/>
<circle cx="202.5" cy="392.474" r="32.5" fill="url(#paint22_linear_3879_13590)"/>
<path d="M187.881 389.692V395.974H186.621V389.692H187.881ZM191.889 390.916C192.483 390.916 192.963 391.105 193.329 391.483C193.695 391.855 193.878 392.377 193.878 393.049V395.974H192.618V393.22C192.618 392.824 192.519 392.521 192.321 392.311C192.123 392.095 191.853 391.987 191.511 391.987C191.163 391.987 190.887 392.095 190.683 392.311C190.485 392.521 190.386 392.824 190.386 393.22V395.974H189.126V390.988H190.386V391.609C190.554 391.393 190.767 391.225 191.025 391.105C191.289 390.979 191.577 390.916 191.889 390.916ZM197.155 394.813L198.415 390.988H199.756L197.911 395.974H196.381L194.545 390.988H195.895L197.155 394.813ZM202.678 396.055C202.198 396.055 201.766 395.95 201.382 395.74C200.998 395.524 200.695 395.221 200.473 394.831C200.257 394.441 200.149 393.991 200.149 393.481C200.149 392.971 200.26 392.521 200.482 392.131C200.71 391.741 201.019 391.441 201.409 391.231C201.799 391.015 202.234 390.907 202.714 390.907C203.194 390.907 203.629 391.015 204.019 391.231C204.409 391.441 204.715 391.741 204.937 392.131C205.165 392.521 205.279 392.971 205.279 393.481C205.279 393.991 205.162 394.441 204.928 394.831C204.7 395.221 204.388 395.524 203.992 395.74C203.602 395.95 203.164 396.055 202.678 396.055ZM202.678 394.957C202.906 394.957 203.119 394.903 203.317 394.795C203.521 394.681 203.683 394.513 203.803 394.291C203.923 394.069 203.983 393.799 203.983 393.481C203.983 393.007 203.857 392.644 203.605 392.392C203.359 392.134 203.056 392.005 202.696 392.005C202.336 392.005 202.033 392.134 201.787 392.392C201.547 392.644 201.427 393.007 201.427 393.481C201.427 393.955 201.544 394.321 201.778 394.579C202.018 394.831 202.318 394.957 202.678 394.957ZM206.842 390.394C206.62 390.394 206.434 390.325 206.284 390.187C206.14 390.043 206.068 389.866 206.068 389.656C206.068 389.446 206.14 389.272 206.284 389.134C206.434 388.99 206.62 388.918 206.842 388.918C207.064 388.918 207.247 388.99 207.391 389.134C207.541 389.272 207.616 389.446 207.616 389.656C207.616 389.866 207.541 390.043 207.391 390.187C207.247 390.325 207.064 390.394 206.842 390.394ZM207.463 390.988V395.974H206.203V390.988H207.463ZM208.384 393.481C208.384 392.965 208.489 392.515 208.699 392.131C208.909 391.741 209.2 391.441 209.572 391.231C209.944 391.015 210.37 390.907 210.85 390.907C211.468 390.907 211.978 391.063 212.38 391.375C212.788 391.681 213.061 392.113 213.199 392.671H211.84C211.768 392.455 211.645 392.287 211.471 392.167C211.303 392.041 211.093 391.978 210.841 391.978C210.481 391.978 210.196 392.11 209.986 392.374C209.776 392.632 209.671 393.001 209.671 393.481C209.671 393.955 209.776 394.324 209.986 394.588C210.196 394.846 210.481 394.975 210.841 394.975C211.351 394.975 211.684 394.747 211.84 394.291H213.199C213.061 394.831 212.788 395.26 212.38 395.578C211.972 395.896 211.462 396.055 210.85 396.055C210.37 396.055 209.944 395.95 209.572 395.74C209.2 395.524 208.909 395.224 208.699 394.84C208.489 394.45 208.384 393.997 208.384 393.481ZM218.757 393.373C218.757 393.553 218.745 393.715 218.721 393.859H215.076C215.106 394.219 215.232 394.501 215.454 394.705C215.676 394.909 215.949 395.011 216.273 395.011C216.741 395.011 217.074 394.81 217.272 394.408H218.631C218.487 394.888 218.211 395.284 217.803 395.596C217.395 395.902 216.894 396.055 216.3 396.055C215.82 396.055 215.388 395.95 215.004 395.74C214.626 395.524 214.329 395.221 214.113 394.831C213.903 394.441 213.798 393.991 213.798 393.481C213.798 392.965 213.903 392.512 214.113 392.122C214.323 391.732 214.617 391.432 214.995 391.222C215.373 391.012 215.808 390.907 216.3 390.907C216.774 390.907 217.197 391.009 217.569 391.213C217.947 391.417 218.238 391.708 218.442 392.086C218.652 392.458 218.757 392.887 218.757 393.373ZM217.452 393.013C217.446 392.689 217.329 392.431 217.101 392.239C216.873 392.041 216.594 391.942 216.264 391.942C215.952 391.942 215.688 392.038 215.472 392.23C215.262 392.416 215.133 392.677 215.085 393.013H217.452Z" fill="#2A326D" fill-opacity="0.8"/>
<circle cx="281.5" cy="392.474" r="32.5" fill="url(#paint23_linear_3879_13590)"/>
<path d="M265.202 391.636C265.202 391.972 265.121 392.287 264.959 392.581C264.803 392.875 264.554 393.112 264.212 393.292C263.876 393.472 263.45 393.562 262.934 393.562H261.881V395.974H260.621V389.692H262.934C263.42 389.692 263.834 389.776 264.176 389.944C264.518 390.112 264.773 390.343 264.941 390.637C265.115 390.931 265.202 391.264 265.202 391.636ZM262.88 392.545C263.228 392.545 263.486 392.467 263.654 392.311C263.822 392.149 263.906 391.924 263.906 391.636C263.906 391.024 263.564 390.718 262.88 390.718H261.881V392.545H262.88ZM265.773 393.463C265.773 392.959 265.872 392.512 266.07 392.122C266.274 391.732 266.547 391.432 266.889 391.222C267.237 391.012 267.624 390.907 268.05 390.907C268.422 390.907 268.746 390.982 269.022 391.132C269.304 391.282 269.529 391.471 269.697 391.699V390.988H270.966V395.974H269.697V395.245C269.535 395.479 269.31 395.674 269.022 395.83C268.74 395.98 268.413 396.055 268.041 396.055C267.621 396.055 267.237 395.947 266.889 395.731C266.547 395.515 266.274 395.212 266.07 394.822C265.872 394.426 265.773 393.973 265.773 393.463ZM269.697 393.481C269.697 393.175 269.637 392.914 269.517 392.698C269.397 392.476 269.235 392.308 269.031 392.194C268.827 392.074 268.608 392.014 268.374 392.014C268.14 392.014 267.924 392.071 267.726 392.185C267.528 392.299 267.366 392.467 267.24 392.689C267.12 392.905 267.06 393.163 267.06 393.463C267.06 393.763 267.12 394.027 267.24 394.255C267.366 394.477 267.528 394.648 267.726 394.768C267.93 394.888 268.146 394.948 268.374 394.948C268.608 394.948 268.827 394.891 269.031 394.777C269.235 394.657 269.397 394.489 269.517 394.273C269.637 394.051 269.697 393.787 269.697 393.481ZM276.966 390.988L273.879 398.332H272.538L273.618 395.848L271.62 390.988H273.033L274.32 394.471L275.625 390.988H276.966ZM283.837 390.916C284.449 390.916 284.941 391.105 285.313 391.483C285.691 391.855 285.88 392.377 285.88 393.049V395.974H284.62V393.22C284.62 392.83 284.521 392.533 284.323 392.329C284.125 392.119 283.855 392.014 283.513 392.014C283.171 392.014 282.898 392.119 282.694 392.329C282.496 392.533 282.397 392.83 282.397 393.22V395.974H281.137V393.22C281.137 392.83 281.038 392.533 280.84 392.329C280.642 392.119 280.372 392.014 280.03 392.014C279.682 392.014 279.406 392.119 279.202 392.329C279.004 392.533 278.905 392.83 278.905 393.22V395.974H277.645V390.988H278.905V391.591C279.067 391.381 279.274 391.216 279.526 391.096C279.784 390.976 280.066 390.916 280.372 390.916C280.762 390.916 281.11 391 281.416 391.168C281.722 391.33 281.959 391.564 282.127 391.87C282.289 391.582 282.523 391.351 282.829 391.177C283.141 391.003 283.477 390.916 283.837 390.916ZM291.711 393.373C291.711 393.553 291.699 393.715 291.675 393.859H288.03C288.06 394.219 288.186 394.501 288.408 394.705C288.63 394.909 288.903 395.011 289.227 395.011C289.695 395.011 290.028 394.81 290.226 394.408H291.585C291.441 394.888 291.165 395.284 290.757 395.596C290.349 395.902 289.848 396.055 289.254 396.055C288.774 396.055 288.342 395.95 287.958 395.74C287.58 395.524 287.283 395.221 287.067 394.831C286.857 394.441 286.752 393.991 286.752 393.481C286.752 392.965 286.857 392.512 287.067 392.122C287.277 391.732 287.571 391.432 287.949 391.222C288.327 391.012 288.762 390.907 289.254 390.907C289.728 390.907 290.151 391.009 290.523 391.213C290.901 391.417 291.192 391.708 291.396 392.086C291.606 392.458 291.711 392.887 291.711 393.373ZM290.406 393.013C290.4 392.689 290.283 392.431 290.055 392.239C289.827 392.041 289.548 391.942 289.218 391.942C288.906 391.942 288.642 392.038 288.426 392.23C288.216 392.416 288.087 392.677 288.039 393.013H290.406ZM295.394 390.916C295.988 390.916 296.468 391.105 296.834 391.483C297.2 391.855 297.383 392.377 297.383 393.049V395.974H296.123V393.22C296.123 392.824 296.024 392.521 295.826 392.311C295.628 392.095 295.358 391.987 295.016 391.987C294.668 391.987 294.392 392.095 294.188 392.311C293.99 392.521 293.891 392.824 293.891 393.22V395.974H292.631V390.988H293.891V391.609C294.059 391.393 294.272 391.225 294.53 391.105C294.794 390.979 295.082 390.916 295.394 390.916ZM300.048 392.023V394.435C300.048 394.603 300.087 394.726 300.165 394.804C300.249 394.876 300.387 394.912 300.579 394.912H301.164V395.974H300.372C299.31 395.974 298.779 395.458 298.779 394.426V392.023H298.185V390.988H298.779V389.755H300.048V390.988H301.164V392.023H300.048Z" fill="#2A326D" fill-opacity="0.8"/>
<circle cx="360.5" cy="392.474" r="32.5" fill="url(#paint24_linear_3879_13590)"/>
<path d="M349.202 391.636C349.202 391.972 349.121 392.287 348.959 392.581C348.803 392.875 348.554 393.112 348.212 393.292C347.876 393.472 347.45 393.562 346.934 393.562H345.881V395.974H344.621V389.692H346.934C347.42 389.692 347.834 389.776 348.176 389.944C348.518 390.112 348.773 390.343 348.941 390.637C349.115 390.931 349.202 391.264 349.202 391.636ZM346.88 392.545C347.228 392.545 347.486 392.467 347.654 392.311C347.822 392.149 347.906 391.924 347.906 391.636C347.906 391.024 347.564 390.718 346.88 390.718H345.881V392.545H346.88ZM349.773 393.463C349.773 392.959 349.872 392.512 350.07 392.122C350.274 391.732 350.547 391.432 350.889 391.222C351.237 391.012 351.624 390.907 352.05 390.907C352.422 390.907 352.746 390.982 353.022 391.132C353.304 391.282 353.529 391.471 353.697 391.699V390.988H354.966V395.974H353.697V395.245C353.535 395.479 353.31 395.674 353.022 395.83C352.74 395.98 352.413 396.055 352.041 396.055C351.621 396.055 351.237 395.947 350.889 395.731C350.547 395.515 350.274 395.212 350.07 394.822C349.872 394.426 349.773 393.973 349.773 393.463ZM353.697 393.481C353.697 393.175 353.637 392.914 353.517 392.698C353.397 392.476 353.235 392.308 353.031 392.194C352.827 392.074 352.608 392.014 352.374 392.014C352.14 392.014 351.924 392.071 351.726 392.185C351.528 392.299 351.366 392.467 351.24 392.689C351.12 392.905 351.06 393.163 351.06 393.463C351.06 393.763 351.12 394.027 351.24 394.255C351.366 394.477 351.528 394.648 351.726 394.768C351.93 394.888 352.146 394.948 352.374 394.948C352.608 394.948 352.827 394.891 353.031 394.777C353.235 394.657 353.397 394.489 353.517 394.273C353.637 394.051 353.697 393.787 353.697 393.481ZM360.966 390.988L357.879 398.332H356.538L357.618 395.848L355.62 390.988H357.033L358.32 394.471L359.625 390.988H360.966ZM363.859 396.055C363.379 396.055 362.947 395.95 362.563 395.74C362.179 395.524 361.876 395.221 361.654 394.831C361.438 394.441 361.33 393.991 361.33 393.481C361.33 392.971 361.441 392.521 361.663 392.131C361.891 391.741 362.2 391.441 362.59 391.231C362.98 391.015 363.415 390.907 363.895 390.907C364.375 390.907 364.81 391.015 365.2 391.231C365.59 391.441 365.896 391.741 366.118 392.131C366.346 392.521 366.46 392.971 366.46 393.481C366.46 393.991 366.343 394.441 366.109 394.831C365.881 395.221 365.569 395.524 365.173 395.74C364.783 395.95 364.345 396.055 363.859 396.055ZM363.859 394.957C364.087 394.957 364.3 394.903 364.498 394.795C364.702 394.681 364.864 394.513 364.984 394.291C365.104 394.069 365.164 393.799 365.164 393.481C365.164 393.007 365.038 392.644 364.786 392.392C364.54 392.134 364.237 392.005 363.877 392.005C363.517 392.005 363.214 392.134 362.968 392.392C362.728 392.644 362.608 393.007 362.608 393.481C362.608 393.955 362.725 394.321 362.959 394.579C363.199 394.831 363.499 394.957 363.859 394.957ZM372.092 390.988V395.974H370.823V395.344C370.661 395.56 370.448 395.731 370.184 395.857C369.926 395.977 369.644 396.037 369.338 396.037C368.948 396.037 368.603 395.956 368.303 395.794C368.003 395.626 367.766 395.383 367.592 395.065C367.424 394.741 367.34 394.357 367.34 393.913V390.988H368.6V393.733C368.6 394.129 368.699 394.435 368.897 394.651C369.095 394.861 369.365 394.966 369.707 394.966C370.055 394.966 370.328 394.861 370.526 394.651C370.724 394.435 370.823 394.129 370.823 393.733V390.988H372.092ZM374.802 392.023V394.435C374.802 394.603 374.841 394.726 374.919 394.804C375.003 394.876 375.141 394.912 375.333 394.912H375.918V395.974H375.126C374.064 395.974 373.533 395.458 373.533 394.426V392.023H372.939V390.988H373.533V389.755H374.802V390.988H375.918V392.023H374.802Z" fill="#2A326D" fill-opacity="0.8"/>
<path opacity="0.2" fill-rule="evenodd" clip-rule="evenodd" d="M226.535 96L226.535 56L257.465 56L257.465 96L226.535 96Z" fill="url(#paint25_linear_3879_13590)"/>
<defs>
<filter id="filter0_d_3879_13590" x="0.0463867" y="0" width="491.907" height="280" filterUnits="userSpaceOnUse" color-interpolation-filters="sRGB">
<feFlood flood-opacity="0" result="BackgroundImageFix"/>
<feColorMatrix in="SourceAlpha" type="matrix" values="0 0 0 0 0 0 0 0 0 0 0 0 0 0 0 0 0 0 127 0" result="hardAlpha"/>
<feOffset dx="4" dy="4"/>
<feGaussianBlur stdDeviation="50"/>
<feComposite in2="hardAlpha" operator="out"/>
<feColorMatrix type="matrix" values="0 0 0 0 0.423529 0 0 0 0 0.482353 0 0 0 0 0.666667 0 0 0 0.12 0"/>
<feBlend mode="normal" in2="BackgroundImageFix" result="effect1_dropShadow_3879_13590"/>
<feBlend mode="normal" in="SourceGraphic" in2="effect1_dropShadow_3879_13590" result="shape"/>
</filter>
<linearGradient id="paint0_linear_3879_13590" x1="242" y1="96" x2="242" y2="176" gradientUnits="userSpaceOnUse">
<stop stop-color="#63B866" stop-opacity="0.99"/>
<stop offset="1" stop-color="#63B866" stop-opacity="0.98"/>
</linearGradient>
<linearGradient id="paint1_linear_3879_13590" x1="244" y1="175.974" x2="260.022" y2="234.595" gradientUnits="userSpaceOnUse">
<stop stop-color="white"/>
<stop offset="1" stop-color="white" stop-opacity="0"/>
</linearGradient>
<linearGradient id="paint2_linear_3879_13590" x1="246.896" y1="221.974" x2="246.896" y2="539.974" gradientUnits="userSpaceOnUse">
<stop offset="0.505208" stop-color="#4680B5" stop-opacity="0"/>
<stop offset="0.739583" stop-color="#4680B5"/>
</linearGradient>
<linearGradient id="paint3_linear_3879_13590" x1="256.75" y1="402.415" x2="255.38" y2="504.255" gradientUnits="userSpaceOnUse">
<stop stop-color="#4680B5" stop-opacity="0"/>
<stop offset="0.616194" stop-color="#4680B5"/>
</linearGradient>
<linearGradient id="paint4_linear_3879_13590" x1="6.375" y1="0" x2="6.375" y2="12.75" gradientUnits="userSpaceOnUse">
<stop stop-color="#456092"/>
<stop offset="1" stop-color="#456092" stop-opacity="0.46"/>
</linearGradient>
<linearGradient id="paint5_linear_3879_13590" x1="246.896" y1="561.724" x2="246.896" y2="243.724" gradientUnits="userSpaceOnUse">
<stop offset="0.515625" stop-color="#4680B5" stop-opacity="0"/>
<stop offset="0.748548" stop-color="#4680B5"/>
</linearGradient>
<linearGradient id="paint6_linear_3879_13590" x1="320.625" y1="332.974" x2="320.625" y2="345.724" gradientUnits="userSpaceOnUse">
<stop stop-color="#456092"/>
<stop offset="1" stop-color="#456092" stop-opacity="0.56"/>
</linearGradient>
<linearGradient id="paint7_linear_3879_13590" x1="6.375" y1="0" x2="6.375" y2="12.75" gradientUnits="userSpaceOnUse">
<stop stop-color="#456092"/>
<stop offset="1" stop-color="#456092" stop-opacity="0.46"/>
</linearGradient>
<linearGradient id="paint8_linear_3879_13590" x1="164" y1="412.974" x2="164" y2="480.974" gradientUnits="userSpaceOnUse">
<stop stop-color="#4680B5" stop-opacity="0"/>
<stop offset="0.695612" stop-color="#4680B5"/>
</linearGradient>
<linearGradient id="paint9_linear_3879_13590" x1="192" y1="380.051" x2="192" y2="456.24" gradientUnits="userSpaceOnUse">
<stop stop-color="#4680B5" stop-opacity="0"/>
<stop offset="1" stop-color="#4680B5"/>
</linearGradient>
<linearGradient id="paint10_linear_3879_13590" x1="222.854" y1="554.727" x2="222.854" y2="236.727" gradientUnits="userSpaceOnUse">
<stop offset="0.557088" stop-color="#4680B5" stop-opacity="0"/>
<stop offset="0.722808" stop-color="#4680B5"/>
</linearGradient>
<linearGradient id="paint11_linear_3879_13590" x1="225.354" y1="552.727" x2="225.354" y2="234.727" gradientUnits="userSpaceOnUse">
<stop offset="0.526042" stop-color="#4680B5" stop-opacity="0"/>
<stop offset="0.694109" stop-color="#4680B5"/>
</linearGradient>
<linearGradient id="paint12_linear_3879_13590" x1="194.5" y1="392.974" x2="127.5" y2="392.974" gradientUnits="userSpaceOnUse">
<stop stop-color="#4680B5"/>
<stop offset="1" stop-color="#4680B5" stop-opacity="0"/>
</linearGradient>
<linearGradient id="paint13_linear_3879_13590" x1="505.5" y1="391.967" x2="287.39" y2="392.024" gradientUnits="userSpaceOnUse">
<stop stop-color="white"/>
<stop offset="1" stop-color="white" stop-opacity="0"/>
</linearGradient>
<linearGradient id="paint14_linear_3879_13590" x1="584.5" y1="391.967" x2="366.39" y2="392.024" gradientUnits="userSpaceOnUse">
<stop stop-color="white"/>
<stop offset="1" stop-color="white" stop-opacity="0"/>
</linearGradient>
<linearGradient id="paint15_linear_3879_13590" x1="122.375" y1="437.974" x2="122.375" y2="450.724" gradientUnits="userSpaceOnUse">
<stop stop-color="#456092"/>
<stop offset="1" stop-color="#456092" stop-opacity="0.46"/>
</linearGradient>
<linearGradient id="paint16_linear_3879_13590" x1="197.375" y1="437.974" x2="197.375" y2="450.724" gradientUnits="userSpaceOnUse">
<stop stop-color="#456092"/>
<stop offset="1" stop-color="#456092" stop-opacity="0.46"/>
</linearGradient>
<linearGradient id="paint17_linear_3879_13590" x1="197.375" y1="321.974" x2="197.375" y2="334.724" gradientUnits="userSpaceOnUse">
<stop stop-color="#456092" stop-opacity="0.48"/>
<stop offset="1" stop-color="#456092"/>
</linearGradient>
<linearGradient id="paint18_linear_3879_13590" x1="208.375" y1="454.974" x2="208.375" y2="467.724" gradientUnits="userSpaceOnUse">
<stop stop-color="#456092"/>
<stop offset="1" stop-color="#456092" stop-opacity="0.46"/>
</linearGradient>
<linearGradient id="paint19_linear_3879_13590" x1="209.375" y1="333.974" x2="209.375" y2="346.724" gradientUnits="userSpaceOnUse">
<stop stop-color="#456092" stop-opacity="0.56"/>
<stop offset="1" stop-color="#456092"/>
</linearGradient>
<linearGradient id="paint20_linear_3879_13590" x1="233.375" y1="333.974" x2="233.375" y2="346.724" gradientUnits="userSpaceOnUse">
<stop stop-color="#456092" stop-opacity="0.56"/>
<stop offset="1" stop-color="#456092"/>
</linearGradient>
<linearGradient id="paint21_linear_3879_13590" x1="123.5" y1="359.974" x2="123.5" y2="424.974" gradientUnits="userSpaceOnUse">
<stop stop-color="#D5D7E5"/>
<stop offset="1" stop-color="#D5D7E5" stop-opacity="0.9"/>
</linearGradient>
<linearGradient id="paint22_linear_3879_13590" x1="202.5" y1="359.974" x2="202.5" y2="424.974" gradientUnits="userSpaceOnUse">
<stop stop-color="#D5D7E5"/>
<stop offset="1" stop-color="#D5D7E5" stop-opacity="0.9"/>
</linearGradient>
<linearGradient id="paint23_linear_3879_13590" x1="281.5" y1="359.974" x2="281.5" y2="424.974" gradientUnits="userSpaceOnUse">
<stop stop-color="#D5D7E5"/>
<stop offset="1" stop-color="#D5D7E5" stop-opacity="0.9"/>
</linearGradient>
<linearGradient id="paint24_linear_3879_13590" x1="360.5" y1="359.974" x2="360.5" y2="424.974" gradientUnits="userSpaceOnUse">
<stop stop-color="#D5D7E5"/>
<stop offset="1" stop-color="#D5D7E5" stop-opacity="0.9"/>
</linearGradient>
<linearGradient id="paint25_linear_3879_13590" x1="241.033" y1="96" x2="229.159" y2="60.2381" gradientUnits="userSpaceOnUse">
<stop stop-color="white"/>
<stop offset="1" stop-color="white" stop-opacity="0"/>
</linearGradient>
</defs>
</svg>
