<svg width="60" height="60" viewBox="0 0 60 60" fill="none" xmlns="http://www.w3.org/2000/svg">
<path d="M7.5 15H3.75V17.5H7.5V15Z" fill="#63B866"/>
<path d="M7.5 22.5H3.75V25H7.5V22.5Z" fill="#63B866"/>
<path d="M7.5 30H3.75V32.5H7.5V30Z" fill="#63B866"/>
<path d="M7.5 37.5H3.75V40H7.5V37.5Z" fill="#63B866"/>
<path d="M7.5 45H3.75V47.5H7.5V45Z" fill="#63B866"/>
<path d="M1.25 10H58.75" stroke="#A2CB94" stroke-width="2"/>
<path d="M11.25 10V58.75" stroke="#A2CB94" stroke-width="2"/>
<path d="M21.25 10V58.75" stroke="#A2CB94" stroke-width="2"/>
<path d="M31.25 10V58.75" stroke="#A2CB94" stroke-width="2"/>
<path d="M41.25 10V58.75" stroke="#A2CB94" stroke-width="2"/>
<path d="M41.25 15H58.75" stroke="#A2CB94" stroke-width="2"/>
<path d="M41.25 21.25H58.75" stroke="#A2CB94" stroke-width="2"/>
<path d="M41.25 27.5H58.75" stroke="#A2CB94" stroke-width="2"/>
<path d="M41.25 33.75H58.75" stroke="#A2CB94" stroke-width="2"/>
<path d="M41.25 40H58.75" stroke="#A2CB94" stroke-width="2"/>
<path d="M41.25 46.25H58.75" stroke="#A2CB94" stroke-width="2"/>
<path d="M41.25 52.5H58.75" stroke="#A2CB94" stroke-width="2"/>
<rect x="41.875" y="15.625" width="16.25" height="36.25" stroke="#A2CB94" stroke-width="1.25"/>
<mask id="path-19-inside-1_3392_18225" fill="white">
<path d="M55.3125 0H4.6875C2.10281 0 0 2.10281 0 4.6875V55.3125C0 57.8972 2.10281 60 4.6875 60H55.3125C57.8972 60 60 57.8972 60 55.3125V4.6875C60 2.10281 57.8972 0 55.3125 0ZM58.125 55.3125C58.125 56.8631 56.8631 58.125 55.3125 58.125H4.6875C3.13687 58.125 1.875 56.8631 1.875 55.3125V4.6875C1.875 3.13687 3.13687 1.875 4.6875 1.875H55.3125C56.8631 1.875 58.125 3.13687 58.125 4.6875V55.3125Z"/>
</mask>
<path d="M55.3125 0H4.6875C2.10281 0 0 2.10281 0 4.6875V55.3125C0 57.8972 2.10281 60 4.6875 60H55.3125C57.8972 60 60 57.8972 60 55.3125V4.6875C60 2.10281 57.8972 0 55.3125 0ZM58.125 55.3125C58.125 56.8631 56.8631 58.125 55.3125 58.125H4.6875C3.13687 58.125 1.875 56.8631 1.875 55.3125V4.6875C1.875 3.13687 3.13687 1.875 4.6875 1.875H55.3125C56.8631 1.875 58.125 3.13687 58.125 4.6875V55.3125Z" fill="#A2CB94"/>
<path d="M55.3125 -2H4.6875V2H55.3125V-2ZM4.6875 -2C0.998243 -2 -2 0.998243 -2 4.6875H2C2 3.20738 3.20738 2 4.6875 2V-2ZM-2 4.6875V55.3125H2V4.6875H-2ZM-2 55.3125C-2 59.0018 0.998243 62 4.6875 62V58C3.20738 58 2 56.7926 2 55.3125H-2ZM4.6875 62H55.3125V58H4.6875V62ZM55.3125 62C59.0018 62 62 59.0018 62 55.3125H58C58 56.7926 56.7926 58 55.3125 58V62ZM62 55.3125V4.6875H58V55.3125H62ZM62 4.6875C62 0.998243 59.0018 -2 55.3125 -2V2C56.7926 2 58 3.20738 58 4.6875H62ZM56.125 55.3125C56.125 55.7586 55.7586 56.125 55.3125 56.125V60.125C57.9677 60.125 60.125 57.9677 60.125 55.3125H56.125ZM55.3125 56.125H4.6875V60.125H55.3125V56.125ZM4.6875 56.125C4.24144 56.125 3.875 55.7586 3.875 55.3125H-0.125C-0.125 57.9677 2.03231 60.125 4.6875 60.125V56.125ZM3.875 55.3125V4.6875H-0.125V55.3125H3.875ZM3.875 4.6875C3.875 4.24144 4.24144 3.875 4.6875 3.875V-0.125C2.03231 -0.125 -0.125 2.03231 -0.125 4.6875H3.875ZM4.6875 3.875H55.3125V-0.125H4.6875V3.875ZM55.3125 3.875C55.7586 3.875 56.125 4.24144 56.125 4.6875H60.125C60.125 2.03231 57.9677 -0.125 55.3125 -0.125V3.875ZM56.125 4.6875V55.3125H60.125V4.6875H56.125Z" fill="#A2CB94" mask="url(#path-19-inside-1_3392_18225)"/>
</svg>
