<svg width="13" height="218" viewBox="0 0 13 218" fill="none" xmlns="http://www.w3.org/2000/svg">
<path opacity="0.6" d="M10.528 215.976L10.528 212.216L12 212.216L12 217.8L0.879999 217.8L0.879999 215.976L10.528 215.976ZM2.352 208.867L5.616 208.867L5.616 205.027L7.104 205.027L7.104 208.867L10.512 208.867L10.512 204.547L12 204.547L12 210.691L0.863999 210.691L0.863999 204.547L2.352 204.547L2.352 208.867ZM9.728 195.596L9.728 200.252L12 201.052L12 202.956L0.863998 198.972L0.863998 196.86L12 192.876L12 194.796L9.728 195.596ZM8.24 196.108L3.072 197.916L8.24 199.74L8.24 196.108ZM4.192 183.368C4.75733 183.368 5.29066 183.501 5.792 183.768C6.29333 184.034 6.704 184.461 7.024 185.048C7.33333 185.634 7.488 186.386 7.488 187.304L7.488 189.32L12 189.32L12 191.144L0.879998 191.144L0.879998 187.304C0.879998 186.45 1.02933 185.73 1.328 185.144C1.616 184.546 2.01066 184.104 2.512 183.816C3.01333 183.517 3.57333 183.368 4.192 183.368ZM6 187.304C6 186.61 5.84533 186.093 5.536 185.752C5.216 185.41 4.768 185.24 4.192 185.24C2.976 185.24 2.368 185.928 2.368 187.304L2.368 189.32L6 189.32L6 187.304ZM0.879997 175.084L2.368 175.084L2.368 179.804L5.648 179.804L5.648 176.124L7.136 176.124L7.136 179.804L12 179.804L12 181.628L0.879998 181.628L0.879997 175.084ZM0.879997 171.57L12 171.57L12 173.394L0.879997 173.394L0.879997 171.57ZM12 160.039L12 161.863L3.696 167.351L12 167.351L12 169.175L0.863997 169.175L0.863997 167.351L9.152 161.863L0.863997 161.863L0.863997 160.039L12 160.039ZM12 147.711L7.552 150.271L7.552 151.663L12 151.663L12 153.487L0.879996 153.487L0.879996 149.647C0.879996 148.794 1.02933 148.074 1.328 147.487C1.62666 146.89 2.02666 146.447 2.528 146.159C3.02933 145.861 3.58933 145.711 4.208 145.711C4.93333 145.711 5.59466 145.925 6.192 146.351C6.77866 146.767 7.17866 147.413 7.392 148.287L12 145.535L12 147.711ZM6.096 151.663L6.096 149.647C6.096 148.965 5.92533 148.453 5.584 148.111C5.24266 147.759 4.784 147.583 4.208 147.583C3.632 147.583 3.184 147.754 2.864 148.095C2.53333 148.437 2.368 148.954 2.368 149.647L2.368 151.663L6.096 151.663ZM2.352 141.554L5.616 141.554L5.616 137.714L7.104 137.714L7.104 141.554L10.512 141.554L10.512 137.234L12 137.234L12 143.378L0.863996 143.378L0.863996 137.234L2.352 137.234L2.352 141.554ZM0.879995 125.403L12 129.579L12 131.691L0.879996 135.883L0.879995 133.931L10.128 130.635L0.879995 127.323L0.879995 125.403ZM2.352 122.054L5.616 122.054L5.616 118.214L7.104 118.214L7.104 122.054L10.512 122.054L10.512 117.734L12 117.734L12 123.878L0.863995 123.878L0.863995 117.734L2.35199 117.734L2.352 122.054ZM12 106.351L12 108.175L3.69599 113.663L12 113.663L12 115.487L0.863995 115.487L0.863995 113.663L9.152 108.175L0.863995 108.175L0.863994 106.351L12 106.351ZM0.879994 102.148L7.96799 102.148C8.81066 102.148 9.44533 101.93 9.87199 101.492C10.2987 101.044 10.512 100.426 10.512 99.6362C10.512 98.8362 10.2987 98.2176 9.87199 97.7802C9.44533 97.3322 8.81066 97.1082 7.96799 97.1082L0.879994 97.1082L0.879994 95.2842L7.93599 95.2842C8.84266 95.2842 9.61066 95.4816 10.24 95.8762C10.8693 96.2709 11.3387 96.7989 11.648 97.4602C11.9573 98.1216 12.112 98.8522 12.112 99.6522C12.112 100.452 11.9573 101.183 11.648 101.844C11.3387 102.495 10.8693 103.012 10.24 103.396C9.61066 103.78 8.84266 103.972 7.93599 103.972L0.879994 103.972L0.879994 102.148ZM2.35199 91.0854L5.61599 91.0854L5.61599 87.2454L7.10399 87.2454L7.10399 91.0854L10.512 91.0854L10.512 86.7654L12 86.7654L12 92.9094L0.863994 92.9094L0.863994 86.7654L2.35199 86.7654L2.35199 91.0854ZM4.19199 72.5865C4.75733 72.5865 5.29066 72.7198 5.79199 72.9865C6.29333 73.2532 6.70399 73.6798 7.02399 74.2665C7.33333 74.8532 7.48799 75.6052 7.48799 76.5225L7.48799 78.5385L12 78.5385L12 80.3625L0.879993 80.3625L0.879993 76.5225C0.879993 75.6692 1.02933 74.9492 1.32799 74.3625C1.61599 73.7652 2.01066 73.3225 2.51199 73.0345C3.01333 72.7358 3.57333 72.5865 4.19199 72.5865ZM5.99999 76.5225C5.99999 75.8292 5.84533 75.3118 5.53599 74.9705C5.21599 74.6292 4.76799 74.4585 4.19199 74.4585C2.97599 74.4585 2.36799 75.1465 2.36799 76.5225L2.36799 78.5385L5.99999 78.5385L5.99999 76.5225ZM10.528 69.0229L10.528 65.2629L12 65.2629L12 70.8469L0.879993 70.8469L0.879993 69.0229L10.528 69.0229ZM9.72799 57.0335L9.72799 61.6895L12 62.4895L12 64.3935L0.863992 60.4095L0.863992 58.2975L12 54.3135L12 56.2335L9.72799 57.0335ZM8.23999 57.5455L3.07199 59.3535L8.23999 61.1775L8.23999 57.5455ZM0.879992 45.3972L2.36799 45.3972L2.36799 48.3572L12 48.3572L12 50.1812L2.36799 50.1812L2.36799 53.1572L0.879992 53.1572L0.879992 45.3972ZM0.879991 37.006L2.36799 37.006L2.36799 41.726L5.64799 41.726L5.64799 38.046L7.13599 38.046L7.13599 41.726L12 41.726L12 43.55L0.879991 43.55L0.879991 37.006ZM12.112 30.2436C12.112 31.2783 11.872 32.233 11.392 33.1076C10.9013 33.9716 10.224 34.6596 9.35999 35.1716C8.48533 35.673 7.50399 35.9236 6.41599 35.9236C5.32799 35.9236 4.35199 35.673 3.48799 35.1716C2.62399 34.6596 1.95199 33.9716 1.47199 33.1076C0.981324 32.233 0.735991 31.2783 0.735991 30.2436C0.735991 29.1983 0.981324 28.2436 1.47199 27.3796C1.95199 26.505 2.62399 25.817 3.48799 25.3156C4.35199 24.8143 5.32799 24.5636 6.41599 24.5636C7.50399 24.5636 8.48532 24.8143 9.35999 25.3156C10.224 25.817 10.9013 26.505 11.392 27.3796C11.872 28.2436 12.112 29.1983 12.112 30.2436ZM10.528 30.2436C10.528 29.5076 10.3627 28.8516 10.032 28.2756C9.69066 27.6996 9.21066 27.2516 8.59199 26.9316C7.96266 26.601 7.23732 26.4356 6.41599 26.4356C5.59466 26.4356 4.87466 26.601 4.25599 26.9316C3.63732 27.2516 3.16266 27.6996 2.83199 28.2756C2.50132 28.8516 2.33599 29.5076 2.33599 30.2436C2.33599 30.9796 2.50132 31.6356 2.83199 32.2116C3.16266 32.7876 3.63732 33.241 4.25599 33.5716C4.87466 33.8916 5.59466 34.0516 6.41599 34.0516C7.23733 34.0516 7.96266 33.8916 8.59199 33.5716C9.21066 33.241 9.69066 32.7876 10.032 32.2116C10.3627 31.6356 10.528 30.9796 10.528 30.2436ZM12 16.9927L7.55199 19.5527L7.55199 20.9447L12 20.9447L12 22.7687L0.879991 22.7687L0.87999 18.9287C0.87999 18.0754 1.02932 17.3554 1.32799 16.7687C1.62666 16.1714 2.02666 15.7287 2.52799 15.4407C3.02932 15.1421 3.58932 14.9927 4.20799 14.9927C4.93332 14.9927 5.59466 15.2061 6.19199 15.6327C6.77866 16.0487 7.17866 16.6941 7.39199 17.5687L12 14.8167L12 16.9927ZM6.09599 20.9447L6.09599 18.9287C6.09599 18.2461 5.92532 17.7341 5.58399 17.3927C5.24266 17.0407 4.78399 16.8647 4.20799 16.8647C3.63199 16.8647 3.18399 17.0354 2.86399 17.3767C2.53332 17.7181 2.36799 18.2354 2.36799 18.9287L2.36799 20.9447L6.09599 20.9447ZM0.87999 0.947374L12 0.947374L12 2.77137L4.38399 2.77137L12 6.16337L12 7.42737L4.38399 10.8354L12 10.8354L12 12.6594L0.87999 12.6594L0.87999 10.6914L9.59999 6.78737L0.87999 2.89937L0.87999 0.947374Z" fill="#ABAECD"/>
</svg>
