<?xml version="1.0" encoding="utf-8"?><svg viewBox="0 0 25 24" xmlns="http://www.w3.org/2000/svg" xmlns:xlink="http://www.w3.org/1999/xlink"><style>:root>svg{display:none}:root>svg:target{display:block}</style><svg viewBox="0 0 25 24" id="facebook" xmlns="http://www.w3.org/2000/svg"><path d="M21.573-.06H2.59A2.582 2.582 0 0 0 0 2.523v18.952a2.582 2.582 0 0 0 2.589 2.585H9.99V15.86H6.593V12h3.398V9.058c0-3.346 1.996-5.195 5.052-5.195 1.464 0 2.995.26 2.995.26v3.285H16.35c-1.662 0-2.18 1.03-2.18 2.086V12h3.71l-.594 3.86h-3.116v8.2h7.402a2.582 2.582 0 0 0 2.589-2.584V2.524c0-.686-.273-1.343-.758-1.828a2.59 2.59 0 0 0-1.83-.757Z"/></svg><svg viewBox="0 0 24 24" id="linkedin" xmlns="http://www.w3.org/2000/svg"><path d="M22.286-.283H1.709C.766-.283 0 .495 0 1.45v20.57c0 .955.766 1.733 1.709 1.733h20.577c.943 0 1.714-.778 1.714-1.733V1.45c0-.955-.771-1.733-1.714-1.733ZM7.254 20.319H3.696V8.85H7.26v11.47h-.005ZM5.475 7.282a2.065 2.065 0 0 1 0-4.131c1.136 0 2.063.928 2.063 2.065a2.062 2.062 0 0 1-2.063 2.066Zm15.112 13.037H17.03v-5.58c0-1.33-.026-3.042-1.848-3.042-1.853 0-2.137 1.449-2.137 2.946v5.676H9.488V8.85H12.9v1.566h.048c.477-.901 1.64-1.851 3.37-1.851 3.6 0 4.27 2.377 4.27 5.467v6.288Z"/></svg><svg viewBox="0 0 15 16" id="login" xmlns="http://www.w3.org/2000/svg"><path d="M3 0v3h2V2h8v12H5v-1H3v3h12V0H3Z"/><path d="m3.879 10.293 1.414 1.414L9 8 5.293 4.293 3.879 5.707 5.172 7H0v2h5.172l-1.293 1.293Z"/></svg><svg viewBox="0 0 24 24" id="twitter" xmlns="http://www.w3.org/2000/svg"><path d="M21.429 0H2.57A2.572 2.572 0 0 0 0 2.571V21.43A2.572 2.572 0 0 0 2.571 24H21.43A2.572 2.572 0 0 0 24 21.429V2.57A2.572 2.572 0 0 0 21.429 0Zm-2.62 8.507c.01.15.01.306.01.456 0 4.644-3.535 9.996-9.996 9.996a9.95 9.95 0 0 1-5.394-1.575c.284.032.557.043.846.043a7.045 7.045 0 0 0 4.36-1.5 3.518 3.518 0 0 1-3.283-2.438c.54.08 1.028.08 1.585-.064a3.514 3.514 0 0 1-2.812-3.45v-.043a3.511 3.511 0 0 0 1.586.445 3.507 3.507 0 0 1-1.565-2.925c0-.654.172-1.254.477-1.773a9.976 9.976 0 0 0 7.243 3.675c-.498-2.384 1.286-4.318 3.429-4.318a3.5 3.5 0 0 1 2.566 1.109 6.885 6.885 0 0 0 2.228-.847 3.504 3.504 0 0 1-1.543 1.934 6.99 6.99 0 0 0 2.025-.546 7.396 7.396 0 0 1-1.762 1.821Z"/></svg></svg>