<svg width="49" height="49" viewBox="0 0 49 49" fill="none" xmlns="http://www.w3.org/2000/svg">
<g clip-path="url(#clip0_2334_3324)">
<path d="M25.75 43.905H0.75V18.905H2.75V41.905H25.75V43.905Z" fill="#22338A"/>
<path d="M13.75 39.905H5.75V31.905H13.75V39.905ZM7.75 37.905H11.75V33.905H7.75V37.905Z" fill="#22338A"/>
<path d="M19.75 39.905H11.75V31.905H19.75V39.905ZM13.75 37.905H17.75V33.905H13.75V37.905Z" fill="#22338A"/>
<path d="M25.75 39.905H17.75V31.905H25.75V39.905ZM19.75 37.905H23.75V33.905H19.75V37.905Z" fill="#22338A"/>
<path d="M13.75 33.905H5.75V25.905H13.75V33.905ZM7.75 31.905H11.75V27.905H7.75V31.905Z" fill="#22338A"/>
<path d="M19.75 33.905H11.75V25.905H19.75V33.905ZM13.75 31.905H17.75V27.905H13.75V31.905Z" fill="#22338A"/>
<path d="M25.75 33.905H17.75V25.905H25.75V33.905ZM19.75 31.905H23.75V27.905H19.75V31.905Z" fill="#22338A"/>
<path d="M28.75 33.905H23.75V25.905H30.75C31.35 25.905 31.75 26.305 31.75 26.905C31.75 27.505 31.35 27.905 30.75 27.905H25.75V31.905H28.75C29.35 31.905 29.75 32.305 29.75 32.905C29.75 33.505 29.35 33.905 28.75 33.905Z" fill="#22338A"/>
<path d="M25.75 27.905H17.75V19.905H25.75V27.905ZM19.75 25.905H23.75V21.905H19.75V25.905Z" fill="#22338A"/>
<path d="M31.75 27.905H23.75V19.905H31.75V27.905ZM25.75 25.905H29.75V21.905H25.75V25.905Z" fill="#22338A"/>
<path d="M31.75 26.905H29.75V19.905H36.75V21.905H31.75V26.905Z" fill="#22338A"/>
<path d="M48.75 21.905H46.75V10.905H2.75V14.905H44.75V16.905H0.75V8.90503H48.75V21.905Z" fill="#22338A"/>
<path d="M19.75 6.90503H17.75V12.905H19.75V6.90503Z" fill="#22338A"/>
<path d="M25.75 6.90503H23.75V12.905H25.75V6.90503Z" fill="#22338A"/>
<path d="M31.75 6.90503H29.75V12.905H31.75V6.90503Z" fill="#22338A"/>
<path d="M37.75 6.90503H35.75V12.905H37.75V6.90503Z" fill="#22338A"/>
<path d="M7.75 6.90503H5.75V12.905H7.75V6.90503Z" fill="#22338A"/>
<path d="M13.75 6.90503H11.75V12.905H13.75V6.90503Z" fill="#22338A"/>
<path d="M39.75 43.905C34.75 43.905 30.75 39.905 30.75 34.905C30.75 29.905 34.75 25.905 39.75 25.905C44.75 25.905 48.75 29.905 48.75 34.905C48.75 39.905 44.75 43.905 39.75 43.905ZM39.75 27.905C35.85 27.905 32.75 31.005 32.75 34.905C32.75 38.805 35.85 41.905 39.75 41.905C43.65 41.905 46.75 38.805 46.75 34.905C46.75 31.005 43.65 27.905 39.75 27.905Z" fill="#22338A"/>
<path d="M44.75 35.905H38.75V29.905H40.75V33.905H44.75V35.905Z" fill="#22338A"/>
<path d="M28.75 39.905H24.75C24.15 39.905 23.75 39.505 23.75 38.905C23.75 38.305 24.15 37.905 24.75 37.905H28.75C29.35 37.905 29.75 38.305 29.75 38.905C29.75 39.505 29.35 39.905 28.75 39.905Z" fill="#22338A"/>
<path d="M30.75 43.905H21.75C21.15 43.905 20.75 43.505 20.75 42.905C20.75 42.305 21.15 41.905 21.75 41.905H30.75C31.35 41.905 31.75 42.305 31.75 42.905C31.75 43.505 31.35 43.905 30.75 43.905Z" fill="#22338A"/>
<path d="M43.75 6.90503H41.75V12.905H43.75V6.90503Z" fill="#22338A"/>
<path d="M41.75 22.905H37.75V24.905H41.75V22.905Z" fill="#22338A"/>
<path d="M40.75 23.905H38.75V27.905H40.75V23.905Z" fill="#22338A"/>
<path d="M45.8597 24.4023L44.4453 25.8163L47.2733 28.6451L48.6877 27.2311L45.8597 24.4023Z" fill="#22338A"/>
<path d="M45.8596 25.7281L43.7383 27.8494L45.1525 29.2636L47.2738 27.1423L45.8596 25.7281Z" fill="#22338A"/>
</g>
<defs>
<clipPath id="clip0_2334_3324">
<rect width="48" height="48" fill="white" transform="translate(0.75 0.905029)"/>
</clipPath>
</defs>
</svg>
