<svg width="56" height="56" viewBox="0 0 56 56" fill="none" xmlns="http://www.w3.org/2000/svg">
<rect width="56" height="56" rx="12" fill="#DDEFDD"/>
<path d="M46.125 25.5H41.75V15.5H43.625C43.8775 15.5 44.1063 15.3481 44.2025 15.1143C44.2994 14.8806 44.2456 14.6118 44.0669 14.4331L39.0669 9.4331C38.8225 9.18872 38.4275 9.18872 38.1831 9.4331L33.1831 14.4331C33.0044 14.6118 32.9506 14.8806 33.0475 15.1143C33.1437 15.3481 33.3725 15.5 33.625 15.5H35.5V16.75H23.9125C24.1275 16.1518 24.25 15.52 24.25 14.875C24.25 11.7731 21.7269 9.24997 18.625 9.24997C15.5231 9.24997 13 11.7731 13 14.875C13 15.5943 13.1444 16.2981 13.4062 16.9487C10.9869 17.595 9.25 19.7906 9.25 22.375V33C9.25 33.3456 9.52938 33.625 9.875 33.625H13V46.125C13 46.4706 13.2794 46.75 13.625 46.75H18.625H23.625C23.9706 46.75 24.25 46.4706 24.25 46.125V22.375H35.5V25.5H31.125C30.7794 25.5 30.5 25.7793 30.5 26.125V33H26.125C25.7794 33 25.5 33.2793 25.5 33.625V46.125C25.5 46.4706 25.7794 46.75 26.125 46.75H31.125H36.125H41.125H46.125C46.4706 46.75 46.75 46.4706 46.75 46.125V26.125C46.75 25.7793 46.4706 25.5 46.125 25.5ZM18.625 10.5C21.0369 10.5 23 12.4631 23 14.875C23 15.6587 22.8006 16.3925 22.3975 17.0712C22.2087 17.4106 21.9688 17.7206 21.68 17.9987C20.8619 18.8056 19.7769 19.25 18.625 19.25C17.4731 19.25 16.3881 18.8056 15.5687 17.9975C15.2887 17.7231 15.0531 17.4193 14.8594 17.0825C14.4606 16.4237 14.25 15.66 14.25 14.875C14.25 12.4631 16.2131 10.5 18.625 10.5ZM23.625 21.125C23.2794 21.125 23 21.4043 23 21.75V45.5H19.25V34.25H18V45.5H14.25V21.75H13V32.375H10.5V22.375C10.5 20.26 11.9931 18.4768 14.0287 18.0837C14.225 18.3675 14.44 18.6412 14.6925 18.8887C15.7463 19.9275 17.1425 20.5 18.625 20.5C20.1075 20.5 21.5037 19.9275 22.5512 18.8943C22.8337 18.6231 23.07 18.3175 23.2794 18H35.5V21.125H23.625ZM26.75 34.25H30.5V45.5H26.75V34.25ZM31.75 33.625V26.75H35.5V45.5H31.75V33.625ZM36.75 26.125V21.75V17.375V14.875C36.75 14.5293 36.4706 14.25 36.125 14.25H35.1338L38.625 10.7587L42.1162 14.25H41.125C40.7794 14.25 40.5 14.5293 40.5 14.875V26.125V45.5H36.75V26.125ZM45.5 45.5H41.75V26.75H45.5V45.5Z" fill="#A2CB94"/>
<path d="M16.125 23H18V27.375H19.25V23H20.9619V21.75H16.125V23Z" fill="#A2CB94"/>
</svg>
