<svg width="48" height="48" viewBox="0 0 48 48" fill="none" xmlns="http://www.w3.org/2000/svg">
<rect width="48" height="48" rx="3.42857" fill="#DDEFDD"/>
<path d="M14.2447 18.9107V18.9964H14.3304H15.2625V21.4553V21.541H15.3482H16.3661H16.4518V21.4553V18.9964H17.384H17.4697V18.9107V17.8928V17.8071H17.384H14.3304H14.2447V17.8928V18.9107Z" fill="#A2CB94" stroke="#A2CB94" stroke-width="0.171429"/>
<path d="M10.8536 33.6697V33.584H10.7679H9.75H9.66429V33.6697V39.2679V39.3536H9.75H10.7679H10.8536V39.2679V33.6697Z" fill="#A2CB94" stroke="#A2CB94" stroke-width="0.171429"/>
<path d="M23.0679 28.0713V27.9856H22.9822H21.9644H21.8786V28.0713V39.2677V39.3534H21.9644H22.9822H23.0679V39.2677V28.0713Z" fill="#A2CB94" stroke="#A2CB94" stroke-width="0.171429"/>
<path d="M26.1215 21.4553V21.3696H26.0357H25.0179H24.9322V21.4553V39.2678V39.3535H25.0179H26.0357H26.1215V39.2678V21.4553Z" fill="#A2CB94" stroke="#A2CB94" stroke-width="0.171429"/>
<path d="M29.175 26.5447V26.459H29.0893H28.0714H27.9857V26.5447V39.2679V39.3536H28.0714H29.0893H29.175V39.2679V26.5447Z" fill="#A2CB94" stroke="#A2CB94" stroke-width="0.171429"/>
<path d="M32.2286 31.6338V31.5481H32.1429H31.125H31.0393V31.6338V39.2677V39.3534H31.125H32.1429H32.2286V39.2677V31.6338Z" fill="#A2CB94" stroke="#A2CB94" stroke-width="0.171429"/>
<path d="M35.2822 24V23.9143H35.1964H34.1786H34.0929V24V39.2679V39.3536H34.1786H35.1964H35.2822V39.2679V24Z" fill="#A2CB94" stroke="#A2CB94" stroke-width="0.171429"/>
<path d="M38.3357 29.5983V29.5126H38.25H37.2321H37.1464V29.5983V39.2679V39.3536H37.2321H38.25H38.3357V39.2679V29.5983Z" fill="#A2CB94" stroke="#A2CB94" stroke-width="0.171429"/>
<path d="M25.0282 14.7536H19.7765C20.0935 14.1586 20.2688 13.4886 20.2688 12.8036C20.2688 10.5114 18.4039 8.64646 16.1116 8.64646C13.8194 8.64646 11.9545 10.5114 11.9545 12.8036C11.9545 13.5193 12.1463 14.2182 12.4901 14.832C10.3094 15.2221 8.64646 17.1273 8.64646 19.4197V25.0179C8.64646 25.3467 8.91289 25.6125 9.24111 25.6125H11.7V33.1607C11.7 33.4896 11.9665 33.7554 12.2947 33.7554H12.7179V39.2679V39.3536H12.8036H13.8215H13.9072V39.2679V33.7554H15.7715V39.2679V39.3536H15.8572H16.875H16.9607V39.2679V33.7554H18.825V39.2679V39.3536H18.9107H19.9286H20.0143V39.2679V33.1607V18.9965H25.6566C26.8576 21.4811 29.3587 23.0679 32.1429 23.0679C36.1192 23.0679 39.3536 19.8334 39.3536 15.8572C39.3536 11.8809 36.1192 8.64646 32.1429 8.64646C28.573 8.64646 25.5493 11.2985 25.0282 14.7536ZM17.1905 15.5657C16.8514 15.6996 16.4873 15.7715 16.1116 15.7715C15.3305 15.7715 14.5953 15.4709 14.0373 14.9217L14.0368 14.9213C13.4694 14.3716 13.1438 13.5995 13.1438 12.8036C13.1438 11.1669 14.4749 9.83575 16.1116 9.83575C17.7483 9.83575 19.0795 11.1669 19.0795 12.8036C19.0795 13.5018 18.8274 14.1805 18.38 14.7102C17.703 14.6003 17.3532 14.2843 17.1695 13.9847C16.9792 13.6743 16.9619 13.3723 16.9607 13.311L16.9592 13.2268H16.875H15.8572H15.7715V13.3125C15.7715 13.3867 15.7829 14.0106 16.1794 14.6455L16.1794 14.6456C16.3783 14.9636 16.6973 15.3102 17.1905 15.5657ZM25.203 17.8072H19.4197C19.0915 17.8072 18.825 18.073 18.825 18.4018V32.5661H16.4518V23.4911V23.4054H16.3661H15.3482H15.2625V23.4911V32.5661H12.8893V25.0179V18.4018V18.3161H12.8036H11.7857H11.7V18.4018V24.4232H9.83575V19.4197C9.83575 17.5031 11.3954 15.9429 13.3125 15.9429H13.3973C14.1505 16.5985 15.1029 16.9607 16.1116 16.9607C17.1213 16.9607 18.0747 16.5975 18.826 15.9429H18.9097H18.9107H24.9327C24.9403 16.577 25.0319 17.2006 25.203 17.8072ZM26.1448 15.396L26.1449 15.396L26.1451 15.3923C26.3774 12.2767 29.0119 9.83575 32.1429 9.83575C35.4631 9.83575 38.1643 12.5369 38.1643 15.8572C38.1643 19.1774 35.4631 21.8786 32.1429 21.8786C29.7052 21.8786 27.5231 20.4246 26.5847 18.1735C26.2775 17.4337 26.1215 16.6545 26.1215 15.8572C26.1215 15.7065 26.125 15.5627 26.1448 15.396Z" fill="#A2CB94" stroke="#A2CB94" stroke-width="0.171429"/>
<path d="M32.7375 11.7858V11.7001H32.6518H31.6339H31.5482V11.7858V12.7569C30.682 12.9176 30.0214 13.672 30.0214 14.5849C30.0214 15.6144 30.8588 16.4518 31.8884 16.4518H32.3973C32.7708 16.4518 33.075 16.756 33.075 17.1295C33.075 17.5031 32.7708 17.8072 32.3973 17.8072H31.8884C31.5148 17.8072 31.2107 17.5031 31.2107 17.1295V16.8751V16.7893H31.125H30.1071H30.0214V16.8751V17.1295C30.0214 18.0424 30.682 18.7968 31.5482 18.9575V19.9286V20.0143H31.6339H32.6518H32.7375V19.9286V18.9575C33.6037 18.7968 34.2643 18.0424 34.2643 17.1295C34.2643 16.0999 33.4269 15.2626 32.3973 15.2626H31.8884C31.5148 15.2626 31.2107 14.9584 31.2107 14.5849C31.2107 14.2113 31.5148 13.9072 31.8884 13.9072H32.3973C32.7708 13.9072 33.075 14.2113 33.075 14.5849V14.8393V14.9251H33.1607H34.1785H34.2643V14.8393V14.5849C34.2643 13.672 33.6037 12.9176 32.7375 12.7569V11.7858Z" fill="#A2CB94" stroke="#A2CB94" stroke-width="0.171429"/>
</svg>
