<svg width="70" height="48" viewBox="0 0 70 48" fill="none" xmlns="http://www.w3.org/2000/svg">
<path fill-rule="evenodd" clip-rule="evenodd" d="M32.3077 0L19.8947 19.3357C26.0162 20.523 31.2874 25.2721 31.2874 33.0742C31.2874 41.7244 24.4858 48 15.6437 48C7.1417 48 0 42.2332 0 31.3781C0 25.2721 2.89069 19.3357 6.46154 13.9081L15.4737 0H32.3077ZM69.2308 0L56.8178 19.3357C62.9393 20.523 68.2105 25.2721 68.2105 33.0742C68.2105 41.7244 61.4089 48 52.5668 48C44.0648 48 36.9231 42.2332 36.9231 31.3781C36.9231 25.2721 39.8138 19.3357 43.3846 13.9081L52.3968 0H69.2308Z" fill="#A2CB94"/>
</svg>
