<svg width="56" height="56" viewBox="0 0 56 56" fill="none" xmlns="http://www.w3.org/2000/svg">
<rect width="56" height="56" rx="4" fill="#DDEFDD"/>
<path d="M20.825 44.575V35.9853L15.5667 30.7264C15.5667 30.7263 15.5666 30.7263 15.5666 30.7263C15.3705 30.5319 15.1118 30.425 14.836 30.425C14.2645 30.425 13.8 30.8895 13.8 31.461C13.8 31.7374 13.9075 31.9973 14.1036 32.1933L17.7676 35.8574L17.803 35.8927L17.7676 35.9281L16.9281 36.7676L16.8927 36.803L16.8574 36.7676L13.1934 33.1036L20.825 44.575ZM20.825 44.575H16.7688V40.4688C16.7688 40.3245 16.7204 40.1855 16.6323 40.0723L16.6323 40.0722L11.425 33.4185V20.5781C11.425 20.1147 11.8022 19.7375 12.2656 19.7375C12.729 19.7375 13.1063 20.1147 13.1063 20.5781V28C13.1063 28.1705 13.1738 28.3346 13.2949 28.4551L20.825 44.575ZM10.2739 34.0371L10.274 34.0372L15.4812 40.6908V45.2188C15.4812 45.5741 15.7696 45.8625 16.125 45.8625H21.4688C21.8241 45.8625 22.1125 45.5741 22.1125 45.2188V35.7188C22.1125 35.5482 22.0449 35.384 21.9238 35.2635L14.3938 27.7335V20.5781C14.3938 19.4046 13.4392 18.45 12.2656 18.45C11.0921 18.45 10.1375 19.4046 10.1375 20.5781V33.6406C10.1375 33.7849 10.1858 33.9239 10.2739 34.0371ZM13.295 28.4552L14.0976 29.2579C13.1774 29.5669 12.5125 30.4378 12.5125 31.461C12.5125 32.081 12.7541 32.6649 13.1933 33.1036L13.295 28.4552Z" fill="#A2CB94" stroke="#A2CB94" stroke-width="0.1"/>
<path d="M39.3677 40.0723L39.3678 40.0722L44.575 33.4185V20.5781C44.575 20.1147 44.1978 19.7375 43.7344 19.7375C43.271 19.7375 42.8938 20.1147 42.8938 20.5781V28C42.8938 28.1705 42.8262 28.3346 42.7051 28.4551L39.3677 40.0723ZM39.3677 40.0723C39.2796 40.1855 39.2312 40.3245 39.2312 40.4688V44.575H35.175V35.9853L40.4339 30.7263L39.3677 40.0723ZM41.9024 29.2579C42.8226 29.5669 43.4875 30.4378 43.4875 31.461C43.4875 32.0811 43.2459 32.6644 42.8067 33.1036L39.1426 36.7676L39.1073 36.803L39.0719 36.7676L38.2324 35.9281L38.197 35.8927L38.2324 35.8574L41.8964 32.1933C42.0925 31.9973 42.2 31.7374 42.2 31.461C42.2 30.8895 41.7355 30.425 41.164 30.425C40.8887 30.425 40.6295 30.5319 40.434 30.7262L41.9024 29.2579ZM41.9024 29.2579L42.705 28.4552L41.9024 29.2579ZM45.726 34.0372L45.7261 34.0371C45.8142 33.9239 45.8625 33.7849 45.8625 33.6406V20.5781C45.8625 19.4046 44.9079 18.45 43.7344 18.45C42.5608 18.45 41.6062 19.4046 41.6062 20.5781V27.7335L34.0762 35.2635C33.9551 35.384 33.8875 35.5482 33.8875 35.7188V45.2188C33.8875 45.5741 34.1759 45.8625 34.5312 45.8625H39.875C40.2304 45.8625 40.5188 45.5741 40.5188 45.2188V40.6908L45.726 34.0372Z" fill="#A2CB94" stroke="#A2CB94" stroke-width="0.1"/>
<path d="M34.5812 10.1875V10.1375H34.5312H33.3438H33.2937V10.1875V11.375V11.425H33.3438H34.5312H34.5812V11.375V10.1875Z" fill="#A2CB94" stroke="#A2CB94" stroke-width="0.1"/>
<path d="M36.9562 10.1875V10.1375H36.9062H35.7188H35.6687V10.1875V11.375V11.425H35.7188H36.9062H36.9562V11.375V10.1875Z" fill="#A2CB94" stroke="#A2CB94" stroke-width="0.1"/>
<path d="M39.3312 10.1875V10.1375H39.2812H38.0938H38.0437V10.1875V11.375V11.425H38.0938H39.2812H39.3312V11.375V10.1875Z" fill="#A2CB94" stroke="#A2CB94" stroke-width="0.1"/>
<path d="M17.9562 10.1875V10.1375H17.9062H16.7188H16.6687V10.1875V11.375V11.425H16.7188H17.9062H17.9562V11.375V10.1875Z" fill="#A2CB94" stroke="#A2CB94" stroke-width="0.1"/>
<path d="M20.3312 10.1875V10.1375H20.2812H19.0938H19.0437V10.1875V11.375V11.425H19.0938H20.2812H20.3312V11.375V10.1875Z" fill="#A2CB94" stroke="#A2CB94" stroke-width="0.1"/>
<path d="M22.7062 10.1875V10.1375H22.6562H21.4688H21.4187V10.1875V11.375V11.425H21.4688H22.6562H22.7062V11.375V10.1875Z" fill="#A2CB94" stroke="#A2CB94" stroke-width="0.1"/>
<path d="M28.6438 14.3112V11.425H32.1562H32.2063V11.375V10.1875V10.1375H32.1562H23.8438H23.7938V10.1875V11.375V11.425H23.8438H27.3562V14.3112C25.3503 14.3967 23.5788 14.876 22.304 15.6126C21.0202 16.3544 20.2312 17.3633 20.2312 18.5V22.0625V25.625V29.1875C20.2312 30.3795 21.0979 31.4319 22.4938 32.1836C23.8912 32.9361 25.8294 33.3937 28 33.3937C30.1706 33.3937 32.1088 32.9361 33.5062 32.1836C34.9021 31.4319 35.7688 30.3795 35.7688 29.1875V25.625V22.0625V18.5C35.7688 17.3633 34.9798 16.3544 33.696 15.6126C32.4212 14.876 30.6497 14.3967 28.6438 14.3112ZM29.7812 17.8562H28.6438V15.5984C30.3786 15.6795 31.8365 16.0814 32.8619 16.625C33.3798 16.8996 33.7857 17.2095 34.0616 17.531C34.3376 17.8525 34.4812 18.1829 34.4812 18.5C34.4812 18.8347 34.3213 19.1843 34.0149 19.5227C33.7087 19.8609 33.2588 20.1847 32.6868 20.4661C31.5431 21.0288 29.918 21.4187 28 21.4187C26.082 21.4187 24.4569 21.0288 23.3132 20.4661C22.7412 20.1847 22.2913 19.8609 21.9851 19.5227C21.6787 19.1843 21.5187 18.8347 21.5187 18.5C21.5187 18.1829 21.6624 17.8525 21.9384 17.531C22.2143 17.2095 22.6202 16.8996 23.1381 16.625C24.1635 16.0814 25.6214 15.6795 27.3562 15.5984V17.8562H26.2188H26.1687V17.9062V19.0938V19.1438H26.2188H29.7812H29.8313V19.0938V17.9062V17.8562H29.7812ZM21.5187 22.0625V20.845C22.8988 21.9762 25.263 22.7063 28 22.7063C30.737 22.7063 33.1012 21.9762 34.4812 20.845V22.0625C34.4812 22.3972 34.3213 22.7468 34.0149 23.0852C33.7087 23.4234 33.2588 23.7472 32.6868 24.0286C31.5431 24.5913 29.918 24.9812 28 24.9812C26.082 24.9812 24.4569 24.5913 23.3132 24.0286C22.7412 23.7472 22.2913 23.4234 21.9851 23.0852C21.6787 22.7468 21.5187 22.3972 21.5187 22.0625ZM21.5187 25.625V24.4075C22.8988 25.5387 25.263 26.2687 28 26.2687C30.737 26.2687 33.1012 25.5387 34.4812 24.4075V25.625C34.4812 25.9597 34.3213 26.3093 34.0149 26.6477C33.7087 26.9859 33.2588 27.3097 32.6868 27.5911C31.5431 28.1538 29.918 28.5438 28 28.5438C26.082 28.5438 24.4569 28.1538 23.3132 27.5911C22.7412 27.3097 22.2913 26.9859 21.9851 26.6477C21.6787 26.3093 21.5187 25.9597 21.5187 25.625ZM28 32.1063C26.082 32.1063 24.4569 31.7163 23.3132 31.1536C22.7412 30.8722 22.2913 30.5484 21.9851 30.2102C21.6787 29.8718 21.5187 29.5222 21.5187 29.1875V27.97C22.8988 29.1012 25.263 29.8312 28 29.8312C30.737 29.8312 33.1012 29.1012 34.4812 27.97V29.1875C34.4812 29.5222 34.3213 29.8718 34.0149 30.2102C33.7087 30.5484 33.2588 30.8722 32.6868 31.1536C31.5431 31.7163 29.918 32.1063 28 32.1063Z" fill="#A2CB94" stroke="#A2CB94" stroke-width="0.1"/>
<path d="M28.6437 34.5312V34.4812H28.5938H27.4062H27.3562V34.5312V35.7188V35.7687H27.4062H28.5938H28.6437V35.7188V34.5312Z" fill="#A2CB94" stroke="#A2CB94" stroke-width="0.1"/>
<path d="M28.6437 36.9062V36.8562H28.5938H27.4062H27.3562V36.9062V38.0938V38.1437H27.4062H28.5938H28.6437V38.0938V36.9062Z" fill="#A2CB94" stroke="#A2CB94" stroke-width="0.1"/>
<path d="M31.0187 36.9062V36.8562H30.9688H29.7812H29.7312V36.9062V38.0938V38.1437H29.7812H30.9688H31.0187V38.0938V36.9062Z" fill="#A2CB94" stroke="#A2CB94" stroke-width="0.1"/>
<path d="M26.2687 36.9062V36.8562H26.2188H25.0312H24.9812V36.9062V38.0938V38.1437H25.0312H26.2188H26.2687V38.0938V36.9062Z" fill="#A2CB94" stroke="#A2CB94" stroke-width="0.1"/>
<path d="M28.6437 39.2812V39.2312H28.5938H27.4062H27.3562V39.2812V40.4688V40.5187H27.4062H28.5938H28.6437V40.4688V39.2812Z" fill="#A2CB94" stroke="#A2CB94" stroke-width="0.1"/>
<path d="M28.6437 41.6562V41.6062H28.5938H27.4062H27.3562V41.6562V42.8438V42.8937H27.4062H28.5938H28.6437V42.8438V41.6562Z" fill="#A2CB94" stroke="#A2CB94" stroke-width="0.1"/>
<path d="M28.6437 44.0312V43.9812H28.5938H27.4062H27.3562V44.0312V45.2188V45.2687H27.4062H28.5938H28.6437V45.2188V44.0312Z" fill="#A2CB94" stroke="#A2CB94" stroke-width="0.1"/>
</svg>
