<svg width="48" height="48" viewBox="0 0 48 48" fill="none" xmlns="http://www.w3.org/2000/svg">
<rect width="48" height="48" rx="3.42857" fill="#DDEFDD"/>
<g clip-path="url(#clip0_4585_8473)">
<path d="M24 36.8929C31.1206 36.8929 36.8929 31.1206 36.8929 24C36.8929 16.8795 31.1206 11.1072 24 11.1072C16.8795 11.1072 11.1072 16.8795 11.1072 24C11.1072 31.1206 16.8795 36.8929 24 36.8929Z" stroke="#A2CB94" stroke-width="1.28571" stroke-miterlimit="10"/>
<path d="M24 11.1072V21.2857" stroke="#A2CB94" stroke-width="1.28571" stroke-miterlimit="10" stroke-linecap="round"/>
<path d="M34.1484 31.934C31.7884 31.0298 28.125 30.4464 24 30.4464C19.8749 30.4464 16.2115 31.0298 13.8516 31.934" stroke="#A2CB94" stroke-width="1.28571" stroke-miterlimit="10"/>
<path d="M13.8516 16.066C16.2115 16.9703 19.8749 17.5537 24 17.5537C28.125 17.5537 31.7884 16.9703 34.1484 16.066" stroke="#A2CB94" stroke-width="1.28571" stroke-miterlimit="10"/>
<path d="M24.0001 36.8929C28.2724 36.8929 31.7358 31.1206 31.7358 24C31.7358 16.8795 28.2724 11.1072 24.0001 11.1072C19.7277 11.1072 16.2643 16.8795 16.2643 24C16.2643 31.1206 19.7277 36.8929 24.0001 36.8929Z" stroke="#A2CB94" stroke-width="1.28571" stroke-miterlimit="10"/>
<path d="M24 36.8927V26.7142" stroke="#A2CB94" stroke-width="1.28571" stroke-miterlimit="10" stroke-linecap="round"/>
<path d="M36.8928 24H29.4285" stroke="#A2CB94" stroke-width="1.28571" stroke-miterlimit="10"/>
<path d="M18.5715 24H11.1072" stroke="#A2CB94" stroke-width="1.28571" stroke-miterlimit="10"/>
<path d="M24 8.39282C27.0868 8.39283 30.1043 9.30818 32.6708 11.0231C35.2374 12.738 37.2378 15.1755 38.4191 18.0274C39.6003 20.8792 39.9094 24.0173 39.3072 27.0448C38.705 30.0722 37.2186 32.8532 35.0359 35.0359H37.5714" stroke="#A2CB94" stroke-width="1.28571" stroke-linecap="round" stroke-linejoin="round"/>
<path d="M24 39.6071C20.9132 39.6071 17.8957 38.6918 15.3291 36.9769C12.7625 35.2619 10.7621 32.8244 9.58085 29.9726C8.39958 27.1208 8.09051 23.9827 8.69272 20.9552C9.29493 17.9277 10.7814 15.1467 12.9641 12.9641H10.4286" stroke="#A2CB94" stroke-width="1.28571" stroke-linecap="round" stroke-linejoin="round"/>
<path d="M26.0356 40.2857C26.4104 40.2857 26.7142 39.9819 26.7142 39.6072C26.7142 39.2324 26.4104 38.9286 26.0356 38.9286C25.6609 38.9286 25.3571 39.2324 25.3571 39.6072C25.3571 39.9819 25.6609 40.2857 26.0356 40.2857Z" fill="#A2CB94"/>
<path d="M21.9643 9.07138C22.3391 9.07138 22.6429 8.76757 22.6429 8.3928C22.6429 8.01804 22.3391 7.71423 21.9643 7.71423C21.5896 7.71423 21.2858 8.01804 21.2858 8.3928C21.2858 8.76757 21.5896 9.07138 21.9643 9.07138Z" fill="#A2CB94"/>
<path d="M21.9643 24.6786C22.3391 24.6786 22.6429 24.3747 22.6429 24C22.6429 23.6252 22.3391 23.3214 21.9643 23.3214C21.5896 23.3214 21.2858 23.6252 21.2858 24C21.2858 24.3747 21.5896 24.6786 21.9643 24.6786Z" fill="#A2CB94"/>
<path d="M24 24.6786C24.3747 24.6786 24.6786 24.3747 24.6786 24C24.6786 23.6252 24.3747 23.3214 24 23.3214C23.6252 23.3214 23.3214 23.6252 23.3214 24C23.3214 24.3747 23.6252 24.6786 24 24.6786Z" fill="#A2CB94"/>
<path d="M26.0356 24.6786C26.4104 24.6786 26.7142 24.3747 26.7142 24C26.7142 23.6252 26.4104 23.3214 26.0356 23.3214C25.6609 23.3214 25.3571 23.6252 25.3571 24C25.3571 24.3747 25.6609 24.6786 26.0356 24.6786Z" fill="#A2CB94"/>
<path d="M26.7143 21.2858H21.2858C19.7867 21.2858 18.5715 22.5011 18.5715 24.0001C18.5715 25.4992 19.7867 26.7144 21.2858 26.7144H26.7143C28.2134 26.7144 29.4286 25.4992 29.4286 24.0001C29.4286 22.5011 28.2134 21.2858 26.7143 21.2858Z" stroke="#A2CB94" stroke-width="1.28571" stroke-miterlimit="10" stroke-linecap="round"/>
</g>
<defs>
<clipPath id="clip0_4585_8473">
<rect width="32.5714" height="32.5714" fill="white" transform="translate(7.71423 7.71423)"/>
</clipPath>
</defs>
</svg>
