<svg width="42" height="42" viewBox="0 0 42 42" fill="none" xmlns="http://www.w3.org/2000/svg">
<rect width="42" height="42" rx="4" fill="#DDEFDD"/>
<g clip-path="url(#clip0_4891_9312)">
<path d="M31.875 9.75H12.375C12.168 9.75 12 9.918 12 10.125V12H10.125C9.918 12 9.75 12.168 9.75 12.375V31.875C9.75 32.082 9.918 32.25 10.125 32.25H29.625C29.832 32.25 30 32.082 30 31.875V30H31.875C32.082 30 32.25 29.832 32.25 29.625V10.125C32.25 9.918 32.082 9.75 31.875 9.75ZM12.375 12.75H29.25V15H10.5V12.75H12.375ZM29.25 31.5H10.5V15.75H29.25V29.625V31.5ZM31.5 29.25H30V12.375C30 12.168 29.832 12 29.625 12H12.75V10.5H31.5V29.25Z" fill="#A2CB94"/>
<path d="M12 13.5H11.25V14.25H12V13.5Z" fill="#A2CB94"/>
<path d="M13.5 13.5H12.75V14.25H13.5V13.5Z" fill="#A2CB94"/>
<path d="M15 13.5H14.25V14.25H15V13.5Z" fill="#A2CB94"/>
<path d="M24.375 17.625H17.625V18.375H24.375V17.625Z" fill="#A2CB94"/>
<path d="M24.375 19.125H17.625V19.875H24.375V19.125Z" fill="#A2CB94"/>
<path d="M24.375 20.625H17.625V21.375H24.375V20.625Z" fill="#A2CB94"/>
<path d="M16.125 16.5H11.625C11.418 16.5 11.25 16.668 11.25 16.875V22.125C11.25 22.332 11.418 22.5 11.625 22.5H16.125C16.332 22.5 16.5 22.332 16.5 22.125V16.875C16.5 16.668 16.332 16.5 16.125 16.5ZM15.75 21.75H12V17.25H15.75V21.75Z" fill="#A2CB94"/>
<path d="M21.375 25.125H17.625V25.875H21.375V25.125Z" fill="#A2CB94"/>
<path d="M21.375 26.625H17.625V27.375H21.375V26.625Z" fill="#A2CB94"/>
<path d="M21.375 28.125H17.625V28.875H21.375V28.125Z" fill="#A2CB94"/>
<path d="M16.125 24H11.625C11.418 24 11.25 24.168 11.25 24.375V29.625C11.25 29.832 11.418 30 11.625 30H16.125C16.332 30 16.5 29.832 16.5 29.625V24.375C16.5 24.168 16.332 24 16.125 24ZM15.75 29.25H12V24.75H15.75V29.25Z" fill="#A2CB94"/>
<path d="M27.7299 26.7459C27.7816 26.594 27.7306 26.4256 27.6035 26.3281L22.7285 22.5781C22.6055 22.4836 22.4379 22.4742 22.3055 22.5549C22.1731 22.6351 22.1038 22.7885 22.1308 22.9407L23.2558 29.3157C23.285 29.4807 23.42 29.6064 23.5865 29.6236C23.7504 29.6394 23.9109 29.5456 23.9731 29.39L24.4344 28.2361L25.5493 30.1869C25.6025 30.2802 25.6936 30.3462 25.799 30.368C25.8241 30.3725 25.8496 30.3751 25.8748 30.3751C25.955 30.3751 26.0341 30.3492 26.0998 30.3001L27.5998 29.1751C27.6819 29.1136 27.7351 29.0206 27.7471 28.9186C27.7591 28.8166 27.7288 28.7139 27.6628 28.6351L26.3004 27.0001H27.3748C27.5353 27.0001 27.6781 26.8981 27.7299 26.7459ZM26.834 28.8121L25.9895 29.4455L24.7003 27.1891C24.6331 27.0717 24.5086 27.0001 24.3748 27.0001C24.3661 27.0001 24.3575 27.0005 24.3489 27.0009C24.2053 27.0106 24.08 27.1021 24.0268 27.2356L23.7658 27.8889L23.0375 23.7616L26.2723 26.2501H25.4998C25.3543 26.2501 25.2219 26.3345 25.16 26.4661C25.0981 26.5981 25.1184 26.7537 25.2118 26.8651L26.834 28.8121Z" fill="#A2CB94"/>
</g>
<defs>
<clipPath id="clip0_4891_9312">
<rect width="24" height="24" fill="white" transform="translate(9 9)"/>
</clipPath>
</defs>
</svg>
