<svg width="24" height="24" viewBox="0 0 24 24" fill="none" xmlns="http://www.w3.org/2000/svg">
<g clip-path="url(#clip0_4838_12602)">
<path d="M12 21.5C17.2467 21.5 21.5 17.2467 21.5 12C21.5 6.75329 17.2467 2.5 12 2.5C6.75329 2.5 2.5 6.75329 2.5 12C2.5 17.2467 6.75329 21.5 12 21.5Z" stroke="#6C7BAA" stroke-miterlimit="10"/>
<path d="M12 2.5V10" stroke="#6C7BAA" stroke-miterlimit="10" stroke-linecap="round"/>
<path d="M19.478 17.8461C17.7391 17.1798 15.0397 16.75 12.0002 16.75C8.96073 16.75 6.26138 17.1798 4.52246 17.8461" stroke="#6C7BAA" stroke-miterlimit="10"/>
<path d="M4.52246 6.15381C6.26138 6.82012 8.96073 7.24995 12.0002 7.24995C15.0397 7.24995 17.7391 6.82012 19.478 6.15381" stroke="#6C7BAA" stroke-miterlimit="10"/>
<path d="M11.9998 21.5C15.1478 21.5 17.6998 17.2467 17.6998 12C17.6998 6.75329 15.1478 2.5 11.9998 2.5C8.85178 2.5 6.2998 6.75329 6.2998 12C6.2998 17.2467 8.85178 21.5 11.9998 21.5Z" stroke="#6C7BAA" stroke-miterlimit="10"/>
<path d="M12 21.5V14" stroke="#6C7BAA" stroke-miterlimit="10" stroke-linecap="round"/>
<path d="M21.5 12H16" stroke="#6C7BAA" stroke-miterlimit="10"/>
<path d="M8 12H2.5" stroke="#6C7BAA" stroke-miterlimit="10"/>
<path d="M12 0.5C14.2745 0.500005 16.4979 1.17447 18.389 2.43811C20.2802 3.70174 21.7542 5.4978 22.6246 7.59914C23.495 9.70049 23.7227 12.0128 23.279 14.2435C22.8353 16.4743 21.74 18.5234 20.1317 20.1317H22" stroke="#6C7BAA" stroke-linecap="round" stroke-linejoin="round"/>
<path d="M12 23.4999C9.72555 23.4999 7.50214 22.8255 5.61096 21.5618C3.71979 20.2982 2.2458 18.5021 1.37539 16.4008C0.504982 14.2994 0.277243 11.9871 0.720976 9.75636C1.16471 7.52558 2.25998 5.47647 3.86829 3.86816H2.00004" stroke="#6C7BAA" stroke-linecap="round" stroke-linejoin="round"/>
<path d="M13.5 24C13.7761 24 14 23.7761 14 23.5C14 23.2239 13.7761 23 13.5 23C13.2239 23 13 23.2239 13 23.5C13 23.7761 13.2239 24 13.5 24Z" fill="#6C7BAA"/>
<path d="M10.5 1C10.7761 1 11 0.776142 11 0.5C11 0.223858 10.7761 0 10.5 0C10.2239 0 10 0.223858 10 0.5C10 0.776142 10.2239 1 10.5 1Z" fill="#6C7BAA"/>
<path d="M10.5 12.5C10.7761 12.5 11 12.2761 11 12C11 11.7239 10.7761 11.5 10.5 11.5C10.2239 11.5 10 11.7239 10 12C10 12.2761 10.2239 12.5 10.5 12.5Z" fill="#6C7BAA"/>
<path d="M12 12.5C12.2761 12.5 12.5 12.2761 12.5 12C12.5 11.7239 12.2761 11.5 12 11.5C11.7239 11.5 11.5 11.7239 11.5 12C11.5 12.2761 11.7239 12.5 12 12.5Z" fill="#6C7BAA"/>
<path d="M13.5 12.5C13.7761 12.5 14 12.2761 14 12C14 11.7239 13.7761 11.5 13.5 11.5C13.2239 11.5 13 11.7239 13 12C13 12.2761 13.2239 12.5 13.5 12.5Z" fill="#6C7BAA"/>
<path d="M14 10H10C8.89543 10 8 10.8954 8 12C8 13.1046 8.89543 14 10 14H14C15.1046 14 16 13.1046 16 12C16 10.8954 15.1046 10 14 10Z" stroke="#6C7BAA" stroke-miterlimit="10" stroke-linecap="round"/>
</g>
<defs>
<clipPath id="clip0_4838_12602">
<rect width="24" height="24" fill="white"/>
</clipPath>
</defs>
</svg>
