<svg width="42" height="42" viewBox="0 0 42 42" fill="none" xmlns="http://www.w3.org/2000/svg">
<g clip-path="url(#clip0_4838_12601)">
<path d="M21 30.5C26.2467 30.5 30.5 26.2467 30.5 21C30.5 15.7533 26.2467 11.5 21 11.5C15.7533 11.5 11.5 15.7533 11.5 21C11.5 26.2467 15.7533 30.5 21 30.5Z" stroke="#6C7BAA" stroke-miterlimit="10"/>
<path d="M21 11.5V19" stroke="#6C7BAA" stroke-miterlimit="10" stroke-linecap="round"/>
<path d="M28.478 26.8461C26.7391 26.1798 24.0397 25.75 21.0002 25.75C17.9607 25.75 15.2614 26.1798 13.5225 26.8461" stroke="#6C7BAA" stroke-miterlimit="10"/>
<path d="M13.5225 15.1538C15.2614 15.8201 17.9607 16.25 21.0002 16.25C24.0397 16.25 26.7391 15.8201 28.478 15.1538" stroke="#6C7BAA" stroke-miterlimit="10"/>
<path d="M20.9998 30.5C24.1478 30.5 26.6998 26.2467 26.6998 21C26.6998 15.7533 24.1478 11.5 20.9998 11.5C17.8518 11.5 15.2998 15.7533 15.2998 21C15.2998 26.2467 17.8518 30.5 20.9998 30.5Z" stroke="#6C7BAA" stroke-miterlimit="10"/>
<path d="M21 30.5V23" stroke="#6C7BAA" stroke-miterlimit="10" stroke-linecap="round"/>
<path d="M30.5 21H25" stroke="#6C7BAA" stroke-miterlimit="10"/>
<path d="M17 21H11.5" stroke="#6C7BAA" stroke-miterlimit="10"/>
<path d="M21 9.5C23.2745 9.50001 25.4979 10.1745 27.389 11.4381C29.2802 12.7017 30.7542 14.4978 31.6246 16.5991C32.495 18.7005 32.7227 21.0128 32.279 23.2435C31.8353 25.4743 30.74 27.5234 29.1317 29.1317H31" stroke="#6C7BAA" stroke-linecap="round" stroke-linejoin="round"/>
<path d="M21 32.4999C18.7255 32.4999 16.5021 31.8255 14.611 30.5618C12.7198 29.2982 11.2458 27.5021 10.3754 25.4008C9.50498 23.2994 9.27724 20.9871 9.72098 18.7564C10.1647 16.5256 11.26 14.4765 12.8683 12.8682H11" stroke="#6C7BAA" stroke-linecap="round" stroke-linejoin="round"/>
<path d="M22.5 33C22.7761 33 23 32.7761 23 32.5C23 32.2239 22.7761 32 22.5 32C22.2239 32 22 32.2239 22 32.5C22 32.7761 22.2239 33 22.5 33Z" fill="#6C7BAA"/>
<path d="M19.5 10C19.7761 10 20 9.77614 20 9.5C20 9.22386 19.7761 9 19.5 9C19.2239 9 19 9.22386 19 9.5C19 9.77614 19.2239 10 19.5 10Z" fill="#6C7BAA"/>
<path d="M19.5 21.5C19.7761 21.5 20 21.2761 20 21C20 20.7239 19.7761 20.5 19.5 20.5C19.2239 20.5 19 20.7239 19 21C19 21.2761 19.2239 21.5 19.5 21.5Z" fill="#6C7BAA"/>
<path d="M21 21.5C21.2761 21.5 21.5 21.2761 21.5 21C21.5 20.7239 21.2761 20.5 21 20.5C20.7239 20.5 20.5 20.7239 20.5 21C20.5 21.2761 20.7239 21.5 21 21.5Z" fill="#6C7BAA"/>
<path d="M22.5 21.5C22.7761 21.5 23 21.2761 23 21C23 20.7239 22.7761 20.5 22.5 20.5C22.2239 20.5 22 20.7239 22 21C22 21.2761 22.2239 21.5 22.5 21.5Z" fill="#6C7BAA"/>
<path d="M23 19H19C17.8954 19 17 19.8954 17 21C17 22.1046 17.8954 23 19 23H23C24.1046 23 25 22.1046 25 21C25 19.8954 24.1046 19 23 19Z" stroke="#6C7BAA" stroke-miterlimit="10" stroke-linecap="round"/>
</g>
<defs>
<clipPath id="clip0_4838_12601">
<rect width="24" height="24" fill="white" transform="translate(9 9)"/>
</clipPath>
</defs>
</svg>
