<svg width="24" height="24" viewBox="0 0 24 24" fill="none" xmlns="http://www.w3.org/2000/svg">
<g clip-path="url(#clip0_4838_12586)">
<path d="M4.775 8.25V8.35H4.875H5.525V10.125V10.225H5.625H6.375H6.475V10.125V8.35H7.125H7.225V8.25V7.5V7.4H7.125H4.875H4.775V7.5V8.25Z" fill="#6C7BAA" stroke="#6C7BAA" stroke-width="0.2"/>
<path d="M2.35 19.125V19.025H2.25H1.5H1.4V19.125V23.25V23.35H1.5H2.25H2.35V23.25V19.125Z" fill="#6C7BAA" stroke="#6C7BAA" stroke-width="0.2"/>
<path d="M11.35 15V14.9H11.25H10.5H10.4V15V23.25V23.35H10.5H11.25H11.35V23.25V15Z" fill="#6C7BAA" stroke="#6C7BAA" stroke-width="0.2"/>
<path d="M13.6 10.125V10.025H13.5H12.75H12.65V10.125V23.25V23.35H12.75H13.5H13.6V23.25V10.125Z" fill="#6C7BAA" stroke="#6C7BAA" stroke-width="0.2"/>
<path d="M15.85 13.875V13.775H15.75H15H14.9V13.875V23.25V23.35H15H15.75H15.85V23.25V13.875Z" fill="#6C7BAA" stroke="#6C7BAA" stroke-width="0.2"/>
<path d="M18.1 17.625V17.525H18H17.25H17.15V17.625V23.25V23.35H17.25H18H18.1V23.25V17.625Z" fill="#6C7BAA" stroke="#6C7BAA" stroke-width="0.2"/>
<path d="M20.35 12V11.9H20.25H19.5H19.4V12V23.25V23.35H19.5H20.25H20.35V23.25V12Z" fill="#6C7BAA" stroke="#6C7BAA" stroke-width="0.2"/>
<path d="M22.6 16.125V16.025H22.5H21.75H21.65V16.125V23.25V23.35H21.75H22.5H22.6V23.25V16.125Z" fill="#6C7BAA" stroke="#6C7BAA" stroke-width="0.2"/>
<path d="M12.726 5.15H8.94861C9.1671 4.72011 9.2875 4.24029 9.2875 3.75C9.2875 2.04065 7.89685 0.65 6.1875 0.65C4.47815 0.65 3.0875 2.04065 3.0875 3.75C3.0875 4.26655 3.22141 4.77114 3.4622 5.2177C1.863 5.52829 0.65 6.93531 0.65 8.625V12.75C0.65 13.0127 0.862837 13.225 1.125 13.225H2.9V18.75C2.9 19.0127 3.11284 19.225 3.375 19.225H3.65V23.25V23.35H3.75H4.5H4.6V23.25V19.225H5.9V23.25V23.35H6H6.75H6.85V23.25V19.225H8.15V23.25V23.35H8.25H9H9.1V23.25V18.75V8.35H13.1975C14.0925 10.1815 15.9421 11.35 18 11.35C20.9502 11.35 23.35 8.95023 23.35 6C23.35 3.04977 20.9502 0.65 18 0.65C15.362 0.65 13.1262 2.60154 12.726 5.15ZM6.89377 5.77903C6.66977 5.85798 6.432 5.9 6.1875 5.9C5.62161 5.9 5.08918 5.68231 4.68489 5.28447L4.68433 5.28392C4.27344 4.88592 4.0375 4.32653 4.0375 3.75C4.0375 2.56435 5.00185 1.6 6.1875 1.6C7.37315 1.6 8.3375 2.56435 8.3375 3.75C8.3375 4.24864 8.15992 4.7337 7.84421 5.11504C7.36936 5.03276 7.12616 4.80943 6.99838 4.60101C6.86294 4.38011 6.85075 4.16495 6.84998 4.12316L6.84818 4.025H6.75H6H5.9V4.125C5.9 4.18269 5.90873 4.65041 6.20618 5.12672L6.20621 5.12677C6.34594 5.3502 6.56429 5.59199 6.89377 5.77903ZM12.8379 7.4H8.625C8.36284 7.4 8.15 7.61233 8.15 7.875V18.275H6.475V11.625V11.525H6.375H5.625H5.525V11.625V18.275H3.85V12.75V7.875V7.775H3.75H3H2.9V7.875V12.275H1.6V8.625C1.6 7.23309 2.73274 6.1 4.125 6.1H4.17373C4.7337 6.58314 5.43991 6.85 6.1875 6.85C6.93578 6.85 7.64272 6.58244 8.2013 6.1H8.24925H8.25H12.6509C12.6592 6.54167 12.7225 6.97636 12.8379 7.4ZM13.6169 5.66454L13.617 5.66455L13.6173 5.66018C13.7871 3.38381 15.7122 1.6 18 1.6C20.4261 1.6 22.4 3.57385 22.4 6C22.4 8.42615 20.4261 10.4 18 10.4C16.2187 10.4 14.6242 9.33757 13.9385 7.69265C13.714 7.15198 13.6 6.58262 13.6 6C13.6 5.88961 13.6026 5.78529 13.6169 5.66454Z" fill="#6C7BAA" stroke="#6C7BAA" stroke-width="0.2"/>
<path d="M18.475 3V2.9H18.375H17.625H17.525V3V3.68526C16.8847 3.81848 16.4 4.38215 16.4 5.0625C16.4 5.84148 17.0335 6.475 17.8125 6.475H18.1875C18.4424 6.475 18.65 6.6826 18.65 6.9375C18.65 7.1924 18.4424 7.4 18.1875 7.4H17.8125C17.5576 7.4 17.35 7.1924 17.35 6.9375V6.75V6.65H17.25H16.5H16.4V6.75V6.9375C16.4 7.61785 16.8847 8.18152 17.525 8.31474V9V9.1H17.625H18.375H18.475V9V8.31474C19.1153 8.18152 19.6 7.61785 19.6 6.9375C19.6 6.15852 18.9665 5.525 18.1875 5.525H17.8125C17.5576 5.525 17.35 5.3174 17.35 5.0625C17.35 4.8076 17.5576 4.6 17.8125 4.6H18.1875C18.4424 4.6 18.65 4.8076 18.65 5.0625V5.25V5.35H18.75H19.5H19.6V5.25V5.0625C19.6 4.38215 19.1153 3.81848 18.475 3.68526V3Z" fill="#6C7BAA" stroke="#6C7BAA" stroke-width="0.2"/>
</g>
<defs>
<clipPath id="clip0_4838_12586">
<rect width="24" height="24" fill="white"/>
</clipPath>
</defs>
</svg>
