<svg width="42" height="42" viewBox="0 0 42 42" fill="none" xmlns="http://www.w3.org/2000/svg">
<g clip-path="url(#clip0_4838_12585)">
<path d="M13.775 17.25V17.35H13.875H14.525V19.125V19.225H14.625H15.375H15.475V19.125V17.35H16.125H16.225V17.25V16.5V16.4H16.125H13.875H13.775V16.5V17.25Z" fill="#6C7BAA" stroke="#6C7BAA" stroke-width="0.2"/>
<path d="M11.35 28.125V28.025H11.25H10.5H10.4V28.125V32.25V32.35H10.5H11.25H11.35V32.25V28.125Z" fill="#6C7BAA" stroke="#6C7BAA" stroke-width="0.2"/>
<path d="M20.35 24V23.9H20.25H19.5H19.4V24V32.25V32.35H19.5H20.25H20.35V32.25V24Z" fill="#6C7BAA" stroke="#6C7BAA" stroke-width="0.2"/>
<path d="M22.6 19.125V19.025H22.5H21.75H21.65V19.125V32.25V32.35H21.75H22.5H22.6V32.25V19.125Z" fill="#6C7BAA" stroke="#6C7BAA" stroke-width="0.2"/>
<path d="M24.85 22.875V22.775H24.75H24H23.9V22.875V32.25V32.35H24H24.75H24.85V32.25V22.875Z" fill="#6C7BAA" stroke="#6C7BAA" stroke-width="0.2"/>
<path d="M27.1 26.625V26.525H27H26.25H26.15V26.625V32.25V32.35H26.25H27H27.1V32.25V26.625Z" fill="#6C7BAA" stroke="#6C7BAA" stroke-width="0.2"/>
<path d="M29.35 21V20.9H29.25H28.5H28.4V21V32.25V32.35H28.5H29.25H29.35V32.25V21Z" fill="#6C7BAA" stroke="#6C7BAA" stroke-width="0.2"/>
<path d="M31.6 25.125V25.025H31.5H30.75H30.65V25.125V32.25V32.35H30.75H31.5H31.6V32.25V25.125Z" fill="#6C7BAA" stroke="#6C7BAA" stroke-width="0.2"/>
<path d="M21.726 14.15H17.9486C18.1671 13.7201 18.2875 13.2403 18.2875 12.75C18.2875 11.0406 16.8969 9.65 15.1875 9.65C13.4781 9.65 12.0875 11.0406 12.0875 12.75C12.0875 13.2665 12.2214 13.7711 12.4622 14.2177C10.863 14.5283 9.65 15.9353 9.65 17.625V21.75C9.65 22.0127 9.86284 22.225 10.125 22.225H11.9V27.75C11.9 28.0127 12.1128 28.225 12.375 28.225H12.65V32.25V32.35H12.75H13.5H13.6V32.25V28.225H14.9V32.25V32.35H15H15.75H15.85V32.25V28.225H17.15V32.25V32.35H17.25H18H18.1V32.25V27.75V17.35H22.1975C23.0925 19.1815 24.9421 20.35 27 20.35C29.9502 20.35 32.35 17.9502 32.35 15C32.35 12.0498 29.9502 9.65 27 9.65C24.362 9.65 22.1262 11.6015 21.726 14.15ZM15.8938 14.779C15.6698 14.858 15.432 14.9 15.1875 14.9C14.6216 14.9 14.0892 14.6823 13.6849 14.2845L13.6843 14.2839C13.2734 13.8859 13.0375 13.3265 13.0375 12.75C13.0375 11.5644 14.0019 10.6 15.1875 10.6C16.3731 10.6 17.3375 11.5644 17.3375 12.75C17.3375 13.2486 17.1599 13.7337 16.8442 14.115C16.3694 14.0328 16.1262 13.8094 15.9984 13.601C15.8629 13.3801 15.8508 13.165 15.85 13.1232L15.8482 13.025H15.75H15H14.9V13.125C14.9 13.1827 14.9087 13.6504 15.2062 14.1267L15.2062 14.1268C15.3459 14.3502 15.5643 14.592 15.8938 14.779ZM21.8379 16.4H17.625C17.3628 16.4 17.15 16.6123 17.15 16.875V27.275H15.475V20.625V20.525H15.375H14.625H14.525V20.625V27.275H12.85V21.75V16.875V16.775H12.75H12H11.9V16.875V21.275H10.6V17.625C10.6 16.2331 11.7327 15.1 13.125 15.1H13.1737C13.7337 15.5831 14.4399 15.85 15.1875 15.85C15.9358 15.85 16.6427 15.5824 17.2013 15.1H17.2492H17.25H21.6509C21.6592 15.5417 21.7225 15.9764 21.8379 16.4ZM22.6169 14.6645L22.617 14.6645L22.6173 14.6602C22.7871 12.3838 24.7122 10.6 27 10.6C29.4261 10.6 31.4 12.5739 31.4 15C31.4 17.4261 29.4261 19.4 27 19.4C25.2187 19.4 23.6242 18.3376 22.9385 16.6927C22.714 16.152 22.6 15.5826 22.6 15C22.6 14.8896 22.6026 14.7853 22.6169 14.6645Z" fill="#6C7BAA" stroke="#6C7BAA" stroke-width="0.2"/>
<path d="M27.475 12V11.9H27.375H26.625H26.525V12V12.6853C25.8847 12.8185 25.4 13.3821 25.4 14.0625C25.4 14.8415 26.0335 15.475 26.8125 15.475H27.1875C27.4424 15.475 27.65 15.6826 27.65 15.9375C27.65 16.1924 27.4424 16.4 27.1875 16.4H26.8125C26.5576 16.4 26.35 16.1924 26.35 15.9375V15.75V15.65H26.25H25.5H25.4V15.75V15.9375C25.4 16.6179 25.8847 17.1815 26.525 17.3147V18V18.1H26.625H27.375H27.475V18V17.3147C28.1153 17.1815 28.6 16.6179 28.6 15.9375C28.6 15.1585 27.9665 14.525 27.1875 14.525H26.8125C26.5576 14.525 26.35 14.3174 26.35 14.0625C26.35 13.8076 26.5576 13.6 26.8125 13.6H27.1875C27.4424 13.6 27.65 13.8076 27.65 14.0625V14.25V14.35H27.75H28.5H28.6V14.25V14.0625C28.6 13.3821 28.1153 12.8185 27.475 12.6853V12Z" fill="#6C7BAA" stroke="#6C7BAA" stroke-width="0.2"/>
</g>
<defs>
<clipPath id="clip0_4838_12585">
<rect width="24" height="24" fill="white" transform="translate(9 9)"/>
</clipPath>
</defs>
</svg>
