<svg width="42" height="42" viewBox="0 0 42 42" fill="none" xmlns="http://www.w3.org/2000/svg">
<rect width="42" height="42" rx="4" fill="#DDEFDD"/>
<g clip-path="url(#clip0_4838_12690)">
<path d="M31.875 28.875H31.125V25.125V12.75C31.125 12.6502 31.0856 12.555 31.0151 12.4849L28.3901 9.85987C28.32 9.78937 28.2248 9.75 28.125 9.75H19.875C19.6676 9.75 19.5 9.91763 19.5 10.125V15H12.75C11.7161 15 10.875 15.8411 10.875 16.875V28.875H10.125C9.91763 28.875 9.75 29.0426 9.75 29.25V30.375C9.75 31.4089 10.5911 32.25 11.625 32.25H30.375C31.4089 32.25 32.25 31.4089 32.25 30.375V29.25C32.25 29.0426 32.0824 28.875 31.875 28.875ZM28.5 11.0303L29.8447 12.375H28.5V11.0303ZM20.25 10.5H27.75V12.75C27.75 12.9574 27.9176 13.125 28.125 13.125H30.375V24.75H28.875H20.25V17.25V15.375V10.5ZM19.875 25.5H28.5V27.375H13.5V17.625H19.5V25.125C19.5 25.3324 19.6676 25.5 19.875 25.5ZM11.625 16.875C11.625 16.2547 12.1298 15.75 12.75 15.75H19.5V16.875H13.125C12.9176 16.875 12.75 17.0426 12.75 17.25V27.75C12.75 27.9574 12.9176 28.125 13.125 28.125H28.875C29.0824 28.125 29.25 27.9574 29.25 27.75V25.5H30.375V28.875H24C23.9003 28.875 23.805 28.9144 23.7349 28.9849L23.4697 29.25H18.5302L18.2651 28.9849C18.195 28.9144 18.0997 28.875 18 28.875H11.625V16.875ZM31.5 30.375C31.5 30.9953 30.9953 31.5 30.375 31.5H11.625C11.0048 31.5 10.5 30.9953 10.5 30.375V29.625H17.8448L18.1099 29.8901C18.18 29.9606 18.2753 30 18.375 30H23.625C23.7247 30 23.82 29.9606 23.8901 29.8901L24.1553 29.625H31.5V30.375Z" fill="#1ED760"/>
<path d="M16.125 18.75H14.25V19.5H16.125V18.75Z" fill="#1ED760"/>
<path d="M18.75 18.75H16.875V19.5H18.75V18.75Z" fill="#1ED760"/>
<path d="M18.75 20.25H14.25V21H18.75V20.25Z" fill="#1ED760"/>
<path d="M15.375 21.75H14.25V22.5H15.375V21.75Z" fill="#1ED760"/>
<path d="M18.75 21.75H16.125V22.5H18.75V21.75Z" fill="#1ED760"/>
<path d="M16.5 23.25H14.25V24H16.5V23.25Z" fill="#1ED760"/>
<path d="M18.75 23.25H17.25V24H18.75V23.25Z" fill="#1ED760"/>
<path d="M15 24.75H14.25V25.5H15V24.75Z" fill="#1ED760"/>
<path d="M18.75 24.75H15.75V25.5H18.75V24.75Z" fill="#1ED760"/>
<path d="M21.375 15.75H23.625C23.8324 15.75 24 15.5824 24 15.375V13.125C24 12.9176 23.8324 12.75 23.625 12.75H21.375C21.1676 12.75 21 12.9176 21 13.125V15.375C21 15.5824 21.1676 15.75 21.375 15.75ZM21.75 13.5H23.25V15H21.75V13.5Z" fill="#1ED760"/>
<path d="M21.375 19.5H23.625C23.8324 19.5 24 19.3324 24 19.125V16.875C24 16.6676 23.8324 16.5 23.625 16.5H21.375C21.1676 16.5 21 16.6676 21 16.875V19.125C21 19.3324 21.1676 19.5 21.375 19.5ZM21.75 17.25H23.25V18.75H21.75V17.25Z" fill="#1ED760"/>
<path d="M21.375 23.25H23.625C23.8324 23.25 24 23.0824 24 22.875V20.625C24 20.4176 23.8324 20.25 23.625 20.25H21.375C21.1676 20.25 21 20.4176 21 20.625V22.875C21 23.0824 21.1676 23.25 21.375 23.25ZM21.75 21H23.25V22.5H21.75V21Z" fill="#1ED760"/>
<path d="M25.5 15.375C25.596 15.375 25.692 15.3382 25.7651 15.2651L27.2651 13.7651L26.7349 13.2349L25.5 14.4697L25.0151 13.9849L24.4849 14.5151L25.2349 15.2651C25.308 15.3382 25.404 15.375 25.5 15.375Z" fill="#1ED760"/>
<path d="M25.5 19.125C25.596 19.125 25.692 19.0882 25.7651 19.0151L27.2651 17.5151L26.7349 16.9849L25.5 18.2197L25.0151 17.7349L24.4849 18.2651L25.2349 19.0151C25.308 19.0882 25.404 19.125 25.5 19.125Z" fill="#1ED760"/>
<path d="M25.5 22.875C25.596 22.875 25.692 22.8382 25.7651 22.7651L27.2651 21.2651L26.7349 20.7349L25.5 21.9697L25.0151 21.4849L24.4849 22.0151L25.2349 22.7651C25.308 22.8382 25.404 22.875 25.5 22.875Z" fill="#1ED760"/>
<path d="M14.25 13.5H13.5V14.25H14.25V13.5Z" fill="#1ED760"/>
<path d="M14.25 12H13.5V12.75H14.25V12Z" fill="#1ED760"/>
<path d="M14.25 10.5H13.5V11.25H14.25V10.5Z" fill="#1ED760"/>
<path d="M15.75 10.5H15V11.25H15.75V10.5Z" fill="#1ED760"/>
<path d="M17.25 10.5H16.5V11.25H17.25V10.5Z" fill="#1ED760"/>
<path d="M18.75 10.5H18V11.25H18.75V10.5Z" fill="#1ED760"/>
</g>
<defs>
<clipPath id="clip0_4838_12690">
<rect width="24" height="24" fill="white" transform="translate(9 9)"/>
</clipPath>
</defs>
</svg>
