<svg width="42" height="42" viewBox="0 0 42 42" fill="none" xmlns="http://www.w3.org/2000/svg">
<rect width="42" height="42" rx="4" fill="#FBF3E9"/>
<path d="M12.1087 20.6617H10.9812C10.6107 20.6617 10.3047 20.3557 10.3047 19.9691V19.196C10.3047 18.8255 10.6107 18.5033 10.9812 18.5033H12.1087C12.4792 18.5033 12.7852 18.8094 12.7852 19.196V19.9691C12.7852 20.3557 12.4792 20.6617 12.1087 20.6617ZM10.9812 19.051C10.9007 19.051 10.8523 19.1154 10.8523 19.2121V19.9852C10.8523 20.0658 10.9168 20.1463 10.9812 20.1463H12.1087C12.1893 20.1463 12.2376 20.0819 12.2376 19.9852V19.2121C12.2376 19.1315 12.1731 19.051 12.1087 19.051H10.9812ZM12.1087 18.1973H10.9812C10.6107 18.1973 10.3047 17.8913 10.3047 17.5047V16.7315C10.3047 16.3449 10.6107 16.0389 10.9812 16.0389H12.1087C12.4792 16.0389 12.7852 16.3449 12.7852 16.7315V17.5047C12.7852 17.8752 12.4792 18.1973 12.1087 18.1973ZM10.9812 16.5705C10.9007 16.5705 10.8523 16.6349 10.8523 16.7315V17.5047C10.8523 17.5852 10.9168 17.6658 10.9812 17.6658H12.1087C12.1893 17.6658 12.2376 17.6013 12.2376 17.5047V16.7315C12.2376 16.651 12.1731 16.5705 12.1087 16.5705H10.9812ZM12.1087 15.7651H10.9812C10.6107 15.7651 10.3047 15.459 10.3047 15.0725V14.3154C10.3047 13.9288 10.6107 13.6228 10.9812 13.6228H12.1087C12.4792 13.6228 12.7852 13.9288 12.7852 14.3154V15.0886C12.7852 15.459 12.4792 15.7651 12.1087 15.7651ZM10.9812 14.1543C10.9007 14.1543 10.8523 14.2188 10.8523 14.3154V15.0886C10.8523 15.1691 10.9168 15.2496 10.9812 15.2496H12.1087C12.1893 15.2496 12.2376 15.1852 12.2376 15.0886V14.3154C12.2376 14.2349 12.1731 14.1543 12.1087 14.1543H10.9812Z" fill="#FAA204"/>
<path d="M10.3369 22.9329C9.98255 22.9329 9.6443 22.7879 9.40268 22.5463C9.14497 22.2886 9 21.9503 9 21.596V10.2725C9 9.57987 9.57987 9 10.2725 9H19.0832C19.5503 9 19.9208 9.37047 19.9369 9.83758L20.0013 14.1705L19.3248 14.1866L19.2443 9.83758C19.2443 9.74094 19.1638 9.6604 19.0671 9.6604H10.2725C9.93423 9.6604 9.67651 9.93423 9.67651 10.2564V21.5799C9.67651 21.757 9.74094 21.9181 9.8698 22.047C9.99866 22.1758 10.1597 22.2403 10.3369 22.2403L18.8416 22.1758C19.0832 22.1758 19.2604 21.9825 19.2765 21.7409L19.2443 15.749H19.9208L19.953 21.7732C19.953 22.3852 19.4537 22.8685 18.8577 22.8846L10.3369 22.9329Z" fill="#FAA204"/>
<path d="M17.4559 21.8536C16.7633 21.8536 16.1995 21.2899 16.1995 20.5812V17.2953C16.1995 16.6026 16.7633 16.0228 17.4559 16.0228C18.1485 16.0228 18.7122 16.5865 18.7122 17.2953V20.5812C18.7284 21.2899 18.1646 21.8536 17.4559 21.8536ZM17.4559 16.5704C17.0532 16.5704 16.731 16.8926 16.731 17.2953V20.5812C16.731 20.9838 17.0532 21.306 17.4559 21.306C17.8586 21.306 18.1807 20.9838 18.1807 20.5812V17.2953C18.1807 16.8926 17.8586 16.5704 17.4559 16.5704ZM14.9592 20.6778H13.7834C13.3968 20.6778 13.0908 20.3718 13.0908 19.9852V19.212C13.0908 18.8255 13.3968 18.5194 13.7834 18.5194H14.9592C15.3458 18.5194 15.6518 18.8255 15.6518 19.212V19.9852C15.668 20.3718 15.3458 20.6778 14.9592 20.6778ZM13.7834 19.051C13.7029 19.051 13.6223 19.1154 13.6223 19.212V19.9852C13.6223 20.0657 13.6867 20.1463 13.7834 20.1463H14.9592C15.0398 20.1463 15.1203 20.0818 15.1203 19.9852V19.212C15.1203 19.1315 15.0559 19.051 14.9592 19.051H13.7834ZM14.9592 18.1812H13.7834C13.3968 18.1812 13.0908 17.8751 13.0908 17.4885V16.7154C13.0908 16.3288 13.3968 16.0228 13.7834 16.0228H14.9592C15.3458 16.0228 15.6518 16.3288 15.6518 16.7154V17.4885C15.668 17.8751 15.3458 18.1812 14.9592 18.1812ZM13.7834 16.5543C13.7029 16.5543 13.6223 16.6187 13.6223 16.7154V17.4885C13.6223 17.5691 13.6867 17.6496 13.7834 17.6496H14.9592C15.0398 17.6496 15.1203 17.5852 15.1203 17.4885V16.7154C15.1203 16.6349 15.0559 16.5543 14.9592 16.5543H13.7834ZM17.7619 15.7489H16.5861C16.1995 15.7489 15.8935 15.4429 15.8935 15.0563V14.2832C15.8935 13.8966 16.1995 13.5906 16.5861 13.5906H17.7619C18.1485 13.5906 18.4545 13.8966 18.4545 14.2832V15.0563C18.4545 15.4268 18.1324 15.7489 17.7619 15.7489ZM16.5861 14.1221C16.5055 14.1221 16.425 14.1865 16.425 14.2832V15.0563C16.425 15.1369 16.4894 15.2174 16.5861 15.2174H17.7619C17.8424 15.2174 17.923 15.153 17.923 15.0563V14.2832C17.923 14.2026 17.8586 14.1221 17.7619 14.1221H16.5861ZM14.9592 15.7489H13.7834C13.3968 15.7489 13.0908 15.4429 13.0908 15.0563V14.2832C13.0908 13.8966 13.3968 13.5906 13.7834 13.5906H14.9592C15.3458 13.5906 15.6518 13.8966 15.6518 14.2832V15.0563C15.668 15.4268 15.3458 15.7489 14.9592 15.7489ZM13.7834 14.1221C13.7029 14.1221 13.6223 14.1865 13.6223 14.2832V15.0563C13.6223 15.1369 13.6867 15.2174 13.7834 15.2174H14.9592C15.0398 15.2174 15.1203 15.153 15.1203 15.0563V14.2832C15.1203 14.2026 15.0559 14.1221 14.9592 14.1221H13.7834ZM17.4398 12.5919H11.48C10.8196 12.5919 10.2881 12.0604 10.2881 11.4C10.2881 10.7396 10.8196 10.208 11.48 10.208H17.4398C18.1002 10.208 18.6317 10.7396 18.6317 11.4C18.6317 12.0604 18.0841 12.5919 17.4398 12.5919ZM11.48 10.7557C11.1257 10.7557 10.8357 11.0456 10.8357 11.4C10.8357 11.7543 11.1257 12.0442 11.48 12.0442H17.4398C17.7941 12.0442 18.0841 11.7543 18.0841 11.4C18.0841 11.0456 17.7941 10.7557 17.4398 10.7557H11.48Z" fill="#FAA204"/>
<path d="M14.2828 32.9999C13.6868 32.9999 13.2036 32.5167 13.2036 31.9368L13.1392 22.6912H13.9445L14.009 31.9368C14.009 32.0818 14.1217 32.2107 14.2828 32.2107L31.8398 32.1462C31.9848 32.1462 32.1137 32.0174 32.1137 31.8724V15.0724L28.9727 15.008C28.4573 14.9919 28.0546 14.5892 28.0385 14.0737L27.9741 10.9167H19.9204V10.1113H28.0868C28.3767 10.1113 28.6506 10.2241 28.8439 10.4335L32.5969 14.1865C32.8063 14.3959 32.919 14.6536 32.919 14.9435V31.8402C32.919 32.4362 32.4358 32.9194 31.8398 32.9194L14.2828 32.9999ZM28.7955 11.5127L28.8439 14.0576C28.8439 14.1382 28.9083 14.2026 28.9888 14.2026L31.5338 14.2509L28.7955 11.5127Z" fill="#FAA204"/>
<path d="M30.2945 20.388C30.0045 20.6779 29.5052 20.6779 29.2153 20.388L23.2878 14.4605C22.9978 14.1705 22.9978 13.6712 23.2878 13.3813C23.5777 13.0913 24.077 13.0913 24.367 13.3813L30.2945 19.3088C30.6005 19.5987 30.6005 20.0819 30.2945 20.388Z" fill="#FAA204"/>
<path d="M30.3743 20.0014L29.6173 19.7275L29.7461 19.3893C29.9072 18.9222 29.8106 18.4067 29.5045 18.0524L28.5059 16.9087L29.1179 16.3772L30.1166 17.5208C30.6159 18.0846 30.777 18.9383 30.5032 19.6631L30.3743 20.0014Z" fill="#FAA204"/>
<path d="M18.1495 26.9435H16.12C15.8784 26.9435 15.7012 26.7503 15.7012 26.5247C15.7012 26.2831 15.8945 26.106 16.12 26.106H18.1334C18.375 26.106 18.5522 26.2992 18.5522 26.5247C18.5683 26.7503 18.375 26.9435 18.1495 26.9435Z" fill="#FAA204"/>
<path d="M18.2135 29.0375H16.2C15.9584 29.0375 15.7812 28.8442 15.7812 28.6187C15.7812 28.3771 15.9745 28.2 16.2 28.2H18.2135C18.4551 28.2 18.6323 28.3932 18.6323 28.6187C18.6484 28.8442 18.4551 29.0375 18.2135 29.0375Z" fill="#FAA204"/>
<path d="M25.6709 31.4538C22.691 31.4538 20.2749 29.0377 20.2749 26.0578C20.2749 23.078 22.691 20.6619 25.6709 20.6619C28.6507 20.6619 31.0668 23.078 31.0668 26.0578C31.0668 29.0216 28.6346 31.4538 25.6709 31.4538ZM25.6709 21.4672C23.142 21.4672 21.0803 23.529 21.0803 26.0578C21.0803 28.5867 23.142 30.6484 25.6709 30.6484C28.1997 30.6484 30.2615 28.5867 30.2615 26.0578C30.2454 23.529 28.1997 21.4672 25.6709 21.4672Z" fill="#FAA204"/>
<path d="M24.3016 14.3477C24.221 14.4282 24.1083 14.4282 24.0277 14.3477L22.8197 13.1396C22.7391 13.0591 22.7391 12.9464 22.8197 12.8658C22.9002 12.7853 23.013 12.7853 23.0935 12.8658L24.3016 14.0739C24.366 14.1544 24.366 14.2672 24.3016 14.3477Z" fill="#FAA204"/>
<path d="M26.6211 27.7812C26.7821 27.604 26.8627 27.3946 26.8627 27.153C26.8627 26.8953 26.7821 26.6859 26.6211 26.5409C26.5244 26.4443 26.3956 26.3799 26.2345 26.2993C26.0895 26.2349 25.9285 26.3476 25.9285 26.4926V27.8134C25.9285 27.9584 26.0734 28.0711 26.2184 28.0228C26.3956 27.9745 26.5244 27.894 26.6211 27.7812ZM24.8332 25.0913C24.9298 25.1718 25.0587 25.2523 25.2197 25.3329C25.3647 25.3973 25.5258 25.2846 25.5258 25.1396V23.851C25.5258 23.706 25.3808 23.5933 25.2519 23.6416C25.0909 23.6899 24.962 23.7544 24.8654 23.851C24.7043 23.996 24.6238 24.2215 24.6238 24.4953C24.6077 24.753 24.6721 24.9624 24.8332 25.0913ZM27.4103 27.8456C27.2815 28.0711 27.0882 28.2805 26.8466 28.4255C26.6372 28.5544 26.4117 28.6349 26.1379 28.6671C26.0251 28.6832 25.9446 28.7799 25.9446 28.8765V29.1181C25.9446 29.2309 25.8479 29.3275 25.7352 29.3275C25.6224 29.3275 25.5258 29.2309 25.5258 29.1181V28.8765C25.5258 28.7638 25.4452 28.6832 25.3486 28.6671C24.9459 28.6027 24.6077 28.4577 24.3499 28.2161C24.1083 28.0067 23.9634 27.749 23.915 27.4429C23.8989 27.3141 23.9956 27.1852 24.1244 27.1852H24.4788C24.5754 27.1852 24.6721 27.2497 24.7043 27.3463C24.7365 27.5074 24.817 27.6523 24.9298 27.7651C25.0103 27.8617 25.1231 27.9423 25.2519 27.9906C25.3969 28.055 25.558 27.9423 25.558 27.7973V26.2349C25.558 26.1383 25.4936 26.0577 25.3969 26.0255C25.107 25.945 24.8815 25.8644 24.6882 25.7839C24.4627 25.6872 24.2855 25.5423 24.1244 25.3329C23.9634 25.1235 23.8989 24.8497 23.8989 24.5114C23.8989 24.0765 24.0439 23.7221 24.3499 23.4322C24.6077 23.1906 24.9459 23.0295 25.3647 22.9812C25.4774 22.9651 25.558 22.8685 25.558 22.7718V22.5302C25.558 22.4174 25.6546 22.3208 25.7674 22.3208C25.8801 22.3208 25.9768 22.4174 25.9768 22.5302V22.7879C25.9768 22.9007 26.0573 22.9812 26.154 22.9973C26.5244 23.0617 26.8305 23.1906 27.0721 23.4161C27.2815 23.6094 27.4264 23.851 27.507 24.1409C27.5392 24.2698 27.4425 24.4148 27.2976 24.4148H26.9432C26.8466 24.4148 26.766 24.3503 26.7338 24.2537C26.6855 24.1248 26.6211 24.0121 26.5244 23.8993C26.46 23.8349 26.3795 23.7705 26.2989 23.7221C26.154 23.6416 25.9768 23.7383 25.9768 23.9154V25.3973C25.9768 25.494 26.0412 25.5745 26.1379 25.6067C26.4278 25.6872 26.6533 25.7678 26.8466 25.8483C27.0721 25.945 27.2493 26.0899 27.4103 26.2993C27.5714 26.5087 27.6358 26.7825 27.6358 27.1208C27.6036 27.3624 27.5392 27.6201 27.4103 27.8456Z" fill="#FAA204"/>
</svg>
