<svg width="42" height="42" viewBox="0 0 42 42" fill="none" xmlns="http://www.w3.org/2000/svg">
<rect width="42" height="42" rx="4" fill="#DDEFDD"/>
<g clip-path="url(#clip0_4838_12728)">
<path d="M12.125 13.4688C13.4176 13.4688 14.4688 12.4176 14.4688 11.125C14.4688 9.83242 13.4176 8.78125 12.125 8.78125C10.8324 8.78125 9.78125 9.83242 9.78125 11.125C9.78125 12.4176 10.8324 13.4688 12.125 13.4688ZM12.125 9.5625C12.9867 9.5625 13.6875 10.2633 13.6875 11.125C13.6875 11.9867 12.9867 12.6875 12.125 12.6875C11.2633 12.6875 10.5625 11.9867 10.5625 11.125C10.5625 10.2633 11.2633 9.5625 12.125 9.5625Z" fill="#1ED760"/>
<path d="M30.875 22.0625C29.5824 22.0625 28.5312 23.1137 28.5312 24.4062C28.5312 25.6988 29.5824 26.75 30.875 26.75C32.1676 26.75 33.2188 25.6988 33.2188 24.4062C33.2188 23.1137 32.1676 22.0625 30.875 22.0625ZM30.875 25.9688C30.0133 25.9688 29.3125 25.268 29.3125 24.4062C29.3125 23.5445 30.0133 22.8438 30.875 22.8438C31.7367 22.8438 32.4375 23.5445 32.4375 24.4062C32.4375 25.268 31.7367 25.9688 30.875 25.9688Z" fill="#1ED760"/>
<path d="M30.875 27.5312C29.5824 27.5312 28.5312 28.5824 28.5312 29.875C28.5312 31.1676 29.5824 32.2188 30.875 32.2188C32.1676 32.2188 33.2188 31.1676 33.2188 29.875C33.2188 28.5824 32.1676 27.5312 30.875 27.5312ZM30.875 31.4375C30.0133 31.4375 29.3125 30.7367 29.3125 29.875C29.3125 29.0133 30.0133 28.3125 30.875 28.3125C31.7367 28.3125 32.4375 29.0133 32.4375 29.875C32.4375 30.7367 31.7367 31.4375 30.875 31.4375Z" fill="#1ED760"/>
<path d="M21.6145 12.0208L22.1668 12.5731L23.3387 11.4012C23.4914 11.2485 23.4914 11.0016 23.3387 10.8489L22.1668 9.677L21.6145 10.2293L22.1195 10.7344H15.25V11.5157H22.1195L21.6145 12.0208Z" fill="#1ED760"/>
<path d="M20.2138 16.87L19.6614 16.3176L18.4896 17.4895C18.3368 17.6422 18.3368 17.8891 18.4896 18.0418L19.6614 19.2137L20.2138 18.6614L19.7087 18.1563H26.5782V17.375H19.7087L20.2138 16.87Z" fill="#1ED760"/>
<path d="M29.5078 10.7344H24.2344V11.5156H29.5078C31.1234 11.5156 32.4375 12.8297 32.4375 14.4453C32.4375 16.0609 31.1234 17.375 29.5078 17.375H28.693L29.198 16.8699L28.6457 16.3176L27.4738 17.4895C27.3211 17.6422 27.3211 17.8891 27.4738 18.0418L28.6457 19.2137L29.198 18.6613L28.693 18.1563H29.5078C31.5539 18.1563 33.2188 16.4914 33.2188 14.4453C33.2188 12.3992 31.5539 10.7344 29.5078 10.7344Z" fill="#1ED760"/>
<path d="M26.4637 25.8543L27.6355 24.6825C27.7883 24.5297 27.7883 24.2829 27.6355 24.1301L26.4637 22.9583L25.9113 23.5106L26.4164 24.0157H21.5V24.7969H26.4164L25.9113 25.302L26.4637 25.8543Z" fill="#1ED760"/>
<path d="M13.4922 24.7969H14.0781H14.4688C15.7613 24.7969 16.8125 25.848 16.8125 27.1406C16.8125 28.8637 18.2145 30.2656 19.9375 30.2656H26.4164L25.9113 30.7707L26.4637 31.323L27.6355 30.1512C27.7883 29.9984 27.7883 29.7516 27.6355 29.5988L26.4637 28.427L25.9113 28.9793L26.4164 29.4844H19.9375C18.6449 29.4844 17.5938 28.4332 17.5938 27.1406C17.5938 26.207 17.1801 25.3699 16.5289 24.7969H19.3852L18.8801 25.302L19.4324 25.8543L20.6043 24.6824C20.757 24.5297 20.757 24.2828 20.6043 24.1301L19.4324 22.9582L18.8801 23.5105L19.3852 24.0156H14.4688H14.0781H13.4922C11.8766 24.0156 10.5625 22.7016 10.5625 21.0859C10.5625 19.4703 11.8766 18.1563 13.4922 18.1563H17.5938V17.375H13.4922C11.4461 17.375 9.78125 19.0398 9.78125 21.0859C9.78125 23.132 11.4461 24.7969 13.4922 24.7969Z" fill="#1ED760"/>
<path d="M15.6406 27.5312H14.8594V28.3125H15.6406V27.5312Z" fill="#1ED760"/>
<path d="M14.0781 27.5312H13.2969V28.3125H14.0781V27.5312Z" fill="#1ED760"/>
<path d="M12.5156 27.5312H11.7344V28.3125H12.5156V27.5312Z" fill="#1ED760"/>
</g>
<defs>
<clipPath id="clip0_4838_12728">
<rect width="25" height="25" fill="white" transform="translate(9 8)"/>
</clipPath>
</defs>
</svg>
