<svg width="33" height="22" viewBox="0 0 33 22" fill="none" xmlns="http://www.w3.org/2000/svg">
<path opacity="0.9" fill-rule="evenodd" clip-rule="evenodd" d="M15.8125 0L10.0493 8.86219C12.8914 9.40636 15.3388 11.583 15.3388 15.159C15.3388 19.1237 12.1809 22 8.07566 22C4.12829 22 0.8125 19.3569 0.8125 14.3816C0.8125 11.583 2.15461 8.86219 3.8125 6.37456L7.99671 0H15.8125ZM32.8125 0L27.0493 8.86219C29.8914 9.40636 32.3388 11.583 32.3388 15.159C32.3388 19.1237 29.1809 22 25.0757 22C21.1283 22 17.8125 19.3569 17.8125 14.3816C17.8125 11.583 19.1546 8.86219 20.8125 6.37456L24.9967 0H32.8125Z" fill="#D5D7E5"/>
</svg>
