<svg width="49" height="49" viewBox="0 0 49 49" fill="none" xmlns="http://www.w3.org/2000/svg">
<g clip-path="url(#clip0_2334_3403)">
<path d="M26.5 19.905H45.5V23.905H26.5" stroke="#22338A" stroke-width="2" stroke-miterlimit="10"/>
<path d="M26.5 15.905H40.5V19.905H26.5" stroke="#22338A" stroke-width="2" stroke-miterlimit="10"/>
<path d="M28.668 47.905H48.5013" stroke="#22338A" stroke-width="2" stroke-miterlimit="10"/>
<path d="M0.5 47.905H20.3333" stroke="#22338A" stroke-width="2" stroke-miterlimit="10"/>
<path d="M26.5 23.905H41.5V27.905H26.5" stroke="#22338A" stroke-width="2" stroke-miterlimit="10"/>
<path d="M26.5 27.905H41.5V31.905H28.5" stroke="#22338A" stroke-width="2" stroke-miterlimit="10"/>
<path d="M28.5 31.905H41.5V35.905H30.5" stroke="#22338A" stroke-width="2" stroke-miterlimit="10"/>
<path d="M30.5 35.905H45.5V39.905H30.5" stroke="#22338A" stroke-width="2" stroke-miterlimit="10"/>
<path d="M30.5 39.905H43.5V43.905H28.5" stroke="#22338A" stroke-width="2" stroke-miterlimit="10"/>
<path d="M28.5 43.905H43.5V47.905H33.5" stroke="#22338A" stroke-width="2" stroke-miterlimit="10"/>
<path d="M25.5 39.905H3.5V43.905H25.5V39.905Z" stroke="#22338A" stroke-width="2" stroke-miterlimit="10"/>
<path d="M25.5 43.905H3.5V47.905H25.5V43.905Z" stroke="#22338A" stroke-width="2" stroke-miterlimit="10"/>
<path d="M25.5 31.905H3.5V35.905H25.5V31.905Z" stroke="#22338A" stroke-width="2" stroke-miterlimit="10"/>
<path d="M27.5 35.905H5.5V39.905H27.5V35.905Z" stroke="#22338A" stroke-width="2" stroke-miterlimit="10"/>
<path d="M23.5 23.905H1.5V27.905H23.5V23.905Z" stroke="#22338A" stroke-width="2" stroke-miterlimit="10"/>
<path d="M23.5 27.905H1.5V31.905H23.5V27.905Z" stroke="#22338A" stroke-width="2" stroke-miterlimit="10"/>
<path d="M12.5 23.905C18.5751 23.905 23.5 18.9802 23.5 12.905C23.5 6.8299 18.5751 1.90503 12.5 1.90503C6.42487 1.90503 1.5 6.8299 1.5 12.905C1.5 18.9802 6.42487 23.905 12.5 23.905Z" stroke="#22338A" stroke-width="2" stroke-miterlimit="10"/>
<path d="M12.5 9.90503V15.905" stroke="#22338A" stroke-width="2" stroke-miterlimit="10"/>
</g>
<defs>
<clipPath id="clip0_2334_3403">
<rect width="48" height="48" fill="white" transform="translate(0.5 0.905029)"/>
</clipPath>
</defs>
</svg>
