<svg width="34" height="41" viewBox="0 0 34 41" fill="none" xmlns="http://www.w3.org/2000/svg">
<g clip-path="url(#clip0_2334_3492)">
<path fill-rule="evenodd" clip-rule="evenodd" d="M19.9504 11.808L19.9185 4.91992L18.2559 4.92766L18.2954 13.4746H24.9422V11.808H25.7249L26.6048 12.6671V15.1771H19.9185V17.4952L22.7623 21.7721H24.9422V24.9986L27.7978 27.6413H30.1829V25.9746H28.4479L26.6048 24.269V20.1055H23.6522L21.5812 16.9907V16.8438H28.2675V11.9638L26.4008 10.1413H23.2795V11.808H19.9504Z" fill="#22338A"/>
<path fill-rule="evenodd" clip-rule="evenodd" d="M14.1345 13.1966V5.97461H15.7972V13.8977L12.4719 17.1585V18.4746H18.2911V30.3946H15.4768L9.14655 23.7356V21.7721H7.06338L3.7832 17.3017L5.12257 16.3142L7.90442 20.1054H10.8092V16.4574L14.1345 13.1966ZM16.6285 20.1413H10.8092V23.0686L16.189 28.7279H16.6285V20.1413Z" fill="#22338A"/>
<path fill-rule="evenodd" clip-rule="evenodd" d="M18.29 5.97459C10.944 5.97459 4.98882 11.9441 4.98882 19.3079C4.98882 26.6717 10.944 32.6413 18.29 32.6413C25.6361 32.6413 31.5912 26.6717 31.5912 19.3079C31.5912 11.9441 25.6361 5.97459 18.29 5.97459ZM3.32617 19.3079C3.32617 11.0236 10.0257 4.30792 18.29 4.30792C26.5543 4.30792 33.2539 11.0236 33.2539 19.3079C33.2539 27.5922 26.5543 34.3079 18.29 34.3079C10.0257 34.3079 3.32617 27.5922 3.32617 19.3079Z" fill="#22338A"/>
<path fill-rule="evenodd" clip-rule="evenodd" d="M17.4551 36.8079V33.4746H19.1177V36.8079H17.4551Z" fill="#22338A"/>
<path fill-rule="evenodd" clip-rule="evenodd" d="M5.35482 6.34432C8.7847 2.90615 13.4366 0.974609 18.2872 0.974609H19.2224V5.14128H17.5598V2.65722C13.4147 2.83902 9.47668 4.56952 6.53049 7.52283C3.41241 10.6484 1.6607 14.8877 1.6607 19.3079C1.6607 23.7282 3.41241 27.9674 6.53049 31.0931C9.64856 34.2187 13.8776 35.9746 18.2872 35.9746H25.2821L27.4318 38.1294V40.9746H4.15467V38.1294L6.3043 35.9746H8.3113V37.6413H6.99299L5.81732 38.8198V39.3079H25.7691V38.8198L24.5935 37.6413H18.2872C13.4366 37.6413 8.7847 35.7097 5.35482 32.2716C1.92493 28.8334 -0.00195312 24.1702 -0.00195312 19.3079C-0.00195312 14.4456 1.92493 9.78249 5.35482 6.34432Z" fill="#22338A"/>
</g>
<defs>
<clipPath id="clip0_2334_3492">
<rect width="33.253" height="40" fill="white" transform="translate(0.373047 0.974609)"/>
</clipPath>
</defs>
</svg>
