<svg width="41" height="41" viewBox="0 0 41 41" fill="none" xmlns="http://www.w3.org/2000/svg">
<g clip-path="url(#clip0_2334_3535)">
<path d="M2.16667 27.6413H0.5V6.80792C0.5 5.39126 1.58333 4.30792 3 4.30792H21.3333V5.97459H3C2.5 5.97459 2.16667 6.30792 2.16667 6.80792V27.6413Z" fill="#22338A"/>
<path d="M38 35.1413H3C1.58333 35.1413 0.5 34.058 0.5 32.6413V29.308H21.25V30.9746H2.16667V32.6413C2.16667 33.1413 2.5 33.4746 3 33.4746H38C38.5 33.4746 38.8333 33.1413 38.8333 32.6413V25.1413H40.5V32.6413C40.5 34.058 39.4167 35.1413 38 35.1413Z" fill="#22338A"/>
<path d="M16.3346 40.1413H14.668V39.1413L15.5013 35.0579V34.3079H17.168V35.3079L16.3346 39.3913V40.1413Z" fill="#22338A"/>
<path d="M26.332 40.1413H24.6654V39.3913L23.832 35.1413V34.3079H25.4987V35.0579L26.332 39.3079V40.1413Z" fill="#22338A"/>
<path d="M28 39.3079H0.5V40.9746H28V39.3079Z" fill="#22338A"/>
<path d="M35.5 18.4746H28V20.1413H35.5V18.4746Z" fill="#22338A"/>
<path d="M35.5 15.1413H28V16.808H35.5V15.1413Z" fill="#22338A"/>
<path d="M24.6667 30.9746H23V28.4746V6.80796C23 4.47463 24.9167 2.6413 27.25 2.6413H40.5833V25.8913L27.0833 25.9746C26.4167 25.9746 25.8333 26.2246 25.3333 26.7246C24.9167 27.1413 24.6667 27.808 24.5833 28.3913V30.9746H24.6667ZM27.1667 4.30796C25.75 4.30796 24.6667 5.47463 24.5833 6.80796V25.1413C25.3333 24.6413 26.1667 24.308 27.0833 24.308L38.8333 24.2246V4.30796H27.1667Z" fill="#22338A"/>
<path d="M37.332 29.308H23.832V30.9746H37.332V29.308Z" fill="#22338A"/>
<path d="M35.5 11.808H28V13.4746H35.5V11.808Z" fill="#22338A"/>
<path d="M35.5 8.47461H28V10.1413H35.5V8.47461Z" fill="#22338A"/>
<path d="M12.1654 21.3913C11.6654 21.3913 11.332 21.0579 11.332 20.5579C11.332 20.0579 11.6654 19.7246 12.1654 19.7246C13.9987 19.7246 15.4987 18.2246 15.4987 16.3913C15.4987 15.8913 15.832 15.5579 16.332 15.5579C16.832 15.5579 17.1654 15.8913 17.1654 16.3913C17.1654 19.1413 14.9154 21.3913 12.1654 21.3913Z" fill="#22338A"/>
<path d="M21.3333 27.6413H19.6667C19.6667 26.2246 18.75 24.9746 17.5 24.4746L13.8333 22.8079V19.2246L14.1667 18.9746C15 18.3913 15.5 17.3913 15.5 16.3079V13.8079C15.5 13.7246 15.5 13.5579 15.5 13.4746C15.3333 11.6413 13.6667 10.3079 11.8333 10.4746C10.0833 10.7246 8.83333 12.2246 8.83333 13.9746V16.3079C8.83333 17.3079 9.33333 18.3079 10.1667 18.9746L10.5 19.2246V22.8079L6.91667 24.4746C6.16667 24.9746 4.66667 26.2246 4.66667 27.6413H3C3 25.5579 4.66667 23.8913 6.16667 22.9746L8.83333 21.7246V20.0579C7.75 19.1413 7.16667 17.7246 7.16667 16.3913V14.0579C7.08333 11.4746 9.08333 9.22461 11.6667 8.89128C14.4167 8.64128 16.9167 10.6413 17.1667 13.3913C17.1667 13.5579 17.1667 13.7246 17.1667 13.8913V16.3913C17.1667 17.8079 16.5833 19.1413 15.5 20.1413V21.8079L18.1667 23.0579C20 23.6413 21.3333 25.5579 21.3333 27.6413Z" fill="#22338A"/>
<path d="M40.5013 40.9746H29.668V38.4746C29.668 37.5579 30.418 36.8079 31.3346 36.8079H34.668C35.5846 36.8079 36.3346 37.5579 36.3346 38.4746H31.3346V39.3079H40.5013V40.9746Z" fill="#22338A"/>
</g>
<defs>
<clipPath id="clip0_2334_3535">
<rect width="40" height="40" fill="white" transform="translate(0.5 0.974609)"/>
</clipPath>
</defs>
</svg>
