<svg width="40" height="41" viewBox="0 0 40 41" fill="none" xmlns="http://www.w3.org/2000/svg">
<g clip-path="url(#clip0_2334_3503)">
<path fill-rule="evenodd" clip-rule="evenodd" d="M39.1544 14.3207C39.6146 14.3204 39.9879 14.6933 39.9882 15.1535C39.9906 19.2564 39.0464 23.3044 37.2291 26.9828C37.0252 27.3955 36.5255 27.5647 36.1128 27.3608C35.7002 27.157 35.531 26.6572 35.7348 26.2446C37.4386 22.7961 38.3238 19.0009 38.3215 15.1545C38.3212 14.6943 38.6941 14.321 39.1544 14.3207Z" fill="#22338A"/>
<path fill-rule="evenodd" clip-rule="evenodd" d="M35.7322 7.54016C36.2011 7.07131 36.837 6.80792 37.5 6.80792C38.163 6.80792 38.7989 7.07131 39.2678 7.54016C39.7366 8.009 40 8.64488 40 9.30792V15.1413C40 15.6015 39.6269 15.9746 39.1667 15.9746C38.7064 15.9746 38.3333 15.6015 38.3333 15.1413V9.30792C38.3333 9.08691 38.2455 8.87495 38.0893 8.71867C37.933 8.56239 37.721 8.47459 37.5 8.47459C37.279 8.47459 37.067 8.56239 36.9107 8.71867C36.7545 8.87495 36.6667 9.08691 36.6667 9.30792V11.8079C36.6667 12.2682 36.2936 12.6413 35.8333 12.6413C35.3731 12.6413 35 12.2682 35 11.8079V9.30792C35 8.64488 35.2634 8.009 35.7322 7.54016Z" fill="#22338A"/>
<path fill-rule="evenodd" clip-rule="evenodd" d="M32.4002 3.37353C32.869 2.90469 33.5049 2.6413 34.168 2.6413C34.831 2.6413 35.4669 2.90469 35.9357 3.37353C36.4046 3.84237 36.668 4.47826 36.668 5.1413V11.808C36.668 12.2682 36.2949 12.6413 35.8346 12.6413C35.3744 12.6413 35.0013 12.2682 35.0013 11.808V5.1413C35.0013 4.92028 34.9135 4.70832 34.7572 4.55204C34.6009 4.39576 34.389 4.30796 34.168 4.30796C33.947 4.30796 33.735 4.39576 33.5787 4.55204C33.4224 4.70832 33.3346 4.92028 33.3346 5.1413V11.808C33.3346 12.2682 32.9615 12.6413 32.5013 12.6413C32.0411 12.6413 31.668 12.2682 31.668 11.808V5.1413C31.668 4.47826 31.9314 3.84237 32.4002 3.37353Z" fill="#22338A"/>
<path fill-rule="evenodd" clip-rule="evenodd" d="M29.0682 1.70684C29.537 1.238 30.1729 0.974609 30.8359 0.974609C31.499 0.974609 32.1349 1.238 32.6037 1.70684C33.0725 2.17568 33.3359 2.81157 33.3359 3.47461V11.8079C33.3359 12.2682 32.9628 12.6413 32.5026 12.6413C32.0424 12.6413 31.6693 12.2682 31.6693 11.8079V3.47461C31.6693 3.25359 31.5815 3.04163 31.4252 2.88535C31.2689 2.72907 31.057 2.64128 30.8359 2.64128C30.6149 2.64128 30.403 2.72907 30.2467 2.88535C30.0904 3.04163 30.0026 3.25359 30.0026 3.47461V11.8079C30.0026 12.2682 29.6295 12.6413 29.1693 12.6413C28.709 12.6413 28.3359 12.2682 28.3359 11.8079V3.47461C28.3359 2.81157 28.5993 2.17568 29.0682 1.70684Z" fill="#22338A"/>
<path fill-rule="evenodd" clip-rule="evenodd" d="M25.7322 3.37353C26.2011 2.90469 26.837 2.6413 27.5 2.6413C28.163 2.6413 28.7989 2.90469 29.2678 3.37353C29.7366 3.84237 30 4.47826 30 5.1413V11.808C30 12.2682 29.6269 12.6413 29.1667 12.6413C28.7064 12.6413 28.3333 12.2682 28.3333 11.808V5.1413C28.3333 4.92028 28.2455 4.70832 28.0893 4.55204C27.933 4.39576 27.721 4.30796 27.5 4.30796C27.279 4.30796 27.067 4.39576 26.9107 4.55204C26.7545 4.70832 26.6667 4.92028 26.6667 5.1413V11.808C26.6667 12.2682 26.2936 12.6413 25.8333 12.6413C25.3731 12.6413 25 12.2682 25 11.808V5.1413C25 4.47825 25.2634 3.84237 25.7322 3.37353Z" fill="#22338A"/>
<path fill-rule="evenodd" clip-rule="evenodd" d="M22.4002 10.0402C22.869 9.57132 23.5049 9.30792 24.168 9.30792C24.831 9.30792 25.4669 9.57132 25.9357 10.0402C26.4046 10.509 26.668 11.1449 26.668 11.8079V15.1413C26.668 15.6015 26.2949 15.9746 25.8346 15.9746C25.3744 15.9746 25.0013 15.6015 25.0013 15.1413V11.8079C25.0013 11.5869 24.9135 11.3749 24.7572 11.2187C24.6009 11.0624 24.389 10.9746 24.168 10.9746C23.947 10.9746 23.735 11.0624 23.5787 11.2187C23.4224 11.3749 23.3346 11.5869 23.3346 11.8079V15.7916C23.3346 16.7863 23.6904 17.7481 24.3377 18.5033L27.8908 22.6485C28.1903 22.9979 28.1498 23.524 27.8004 23.8235C27.4509 24.123 26.9249 24.0826 26.6253 23.7331L23.0723 19.5879C22.1661 18.5307 21.668 17.1841 21.668 15.7916V11.8079C21.668 11.1449 21.9314 10.509 22.4002 10.0402Z" fill="#22338A"/>
<path fill-rule="evenodd" clip-rule="evenodd" d="M3.90276 14.4633C4.31512 14.6677 4.48371 15.1677 4.27932 15.5801C2.56628 19.0361 1.6761 22.8416 1.67839 26.6989C1.67866 27.1591 1.30579 27.5324 0.845553 27.5327C0.385315 27.533 0.0119973 27.1601 0.0117235 26.6999C0.00927576 22.5855 0.958804 18.5263 2.78603 14.8399C2.99042 14.4275 3.4904 14.2589 3.90276 14.4633Z" fill="#22338A"/>
<path fill-rule="evenodd" clip-rule="evenodd" d="M0.833333 25.8788C1.29357 25.8788 1.66667 26.2519 1.66667 26.7121V32.5455C1.66667 32.7665 1.75446 32.9784 1.91074 33.1347C2.06702 33.291 2.27898 33.3788 2.5 33.3788C2.72102 33.3788 2.93298 33.291 3.08926 33.1347C3.24554 32.9784 3.33333 32.7665 3.33333 32.5455V30.0455C3.33333 29.5852 3.70643 29.2121 4.16667 29.2121C4.6269 29.2121 5 29.5852 5 30.0455V32.5455C5 33.2085 4.73661 33.8444 4.26777 34.3132C3.79892 34.7821 3.16304 35.0455 2.5 35.0455C1.83696 35.0455 1.20108 34.7821 0.732233 34.3132C0.263392 33.8444 0 33.2085 0 32.5455V26.7121C0 26.2519 0.373096 25.8788 0.833333 25.8788Z" fill="#22338A"/>
<path fill-rule="evenodd" clip-rule="evenodd" d="M4.16536 29.2121C4.6256 29.2121 4.9987 29.5852 4.9987 30.0454V36.7121C4.9987 36.9331 5.0865 37.1451 5.24277 37.3014C5.39905 37.4576 5.61102 37.5454 5.83203 37.5454C6.05305 37.5454 6.26501 37.4576 6.42129 37.3014C6.57757 37.1451 6.66536 36.9331 6.66536 36.7121V30.0454C6.66536 29.5852 7.03846 29.2121 7.4987 29.2121C7.95893 29.2121 8.33203 29.5852 8.33203 30.0454V36.7121C8.33203 37.3751 8.06864 38.011 7.5998 38.4799C7.13095 38.9487 6.49507 39.2121 5.83203 39.2121C5.16899 39.2121 4.53311 38.9487 4.06426 38.4799C3.59542 38.011 3.33203 37.3751 3.33203 36.7121V30.0454C3.33203 29.5852 3.70513 29.2121 4.16536 29.2121Z" fill="#22338A"/>
<path fill-rule="evenodd" clip-rule="evenodd" d="M7.5013 29.2121C7.96154 29.2121 8.33463 29.5852 8.33463 30.0454V38.3788C8.33463 38.5998 8.42243 38.8117 8.57871 38.968C8.73499 39.1243 8.94695 39.2121 9.16797 39.2121C9.38898 39.2121 9.60094 39.1243 9.75722 38.968C9.9135 38.8117 10.0013 38.5998 10.0013 38.3788V30.0454C10.0013 29.5852 10.3744 29.2121 10.8346 29.2121C11.2949 29.2121 11.668 29.5852 11.668 30.0454V38.3788C11.668 39.0418 11.4046 39.6777 10.9357 40.1465C10.4669 40.6154 9.83101 40.8788 9.16797 40.8788C8.50493 40.8788 7.86904 40.6154 7.4002 40.1465C6.93136 39.6777 6.66797 39.0418 6.66797 38.3788V30.0454C6.66797 29.5852 7.04106 29.2121 7.5013 29.2121Z" fill="#22338A"/>
<path fill-rule="evenodd" clip-rule="evenodd" d="M10.8333 29.2121C11.2936 29.2121 11.6667 29.5852 11.6667 30.0454V36.7121C11.6667 36.9331 11.7545 37.1451 11.9107 37.3014C12.067 37.4576 12.279 37.5454 12.5 37.5454C12.721 37.5454 12.933 37.4576 13.0893 37.3014C13.2455 37.1451 13.3333 36.9331 13.3333 36.7121V30.0454C13.3333 29.5852 13.7064 29.2121 14.1667 29.2121C14.6269 29.2121 15 29.5852 15 30.0454V36.7121C15 37.3751 14.7366 38.011 14.2678 38.4799C13.7989 38.9487 13.163 39.2121 12.5 39.2121C11.837 39.2121 11.2011 38.9487 10.7322 38.4799C10.2634 38.011 10 37.3751 10 36.7121V30.0454C10 29.5852 10.3731 29.2121 10.8333 29.2121Z" fill="#22338A"/>
<path fill-rule="evenodd" clip-rule="evenodd" d="M12.1621 17.9843C12.5116 17.6847 13.0376 17.7252 13.3372 18.0746L16.9293 22.2655L16.9293 22.2655C17.8355 23.3227 18.3337 24.6693 18.3337 26.0618V30.0455C18.3337 30.7085 18.0703 31.3444 17.6014 31.8132C17.1326 32.2821 16.4967 32.5455 15.8337 32.5455C15.1706 32.5455 14.5347 32.2821 14.0659 31.8132C13.5971 31.3444 13.3337 30.7085 13.3337 30.0455V26.7121C13.3337 26.2519 13.7068 25.8788 14.167 25.8788C14.6272 25.8788 15.0003 26.2519 15.0003 26.7121V30.0455C15.0003 30.2665 15.0881 30.4784 15.2444 30.6347C15.4007 30.791 15.6127 30.8788 15.8337 30.8788C16.0547 30.8788 16.2666 30.791 16.4229 30.6347C16.5792 30.4784 16.667 30.2665 16.667 30.0455V26.0618C16.667 25.0671 16.3112 24.1053 15.6639 23.3501C15.6639 23.3501 15.6639 23.3501 15.6639 23.3501L12.0717 19.1593C11.7722 18.8099 11.8127 18.2838 12.1621 17.9843Z" fill="#22338A"/>
<path fill-rule="evenodd" clip-rule="evenodd" d="M25.4356 5.29541C21.9586 3.55625 18.1239 2.65192 14.2362 2.65428C13.7759 2.65456 13.4026 2.28169 13.4023 1.82145C13.4021 1.36122 13.7749 0.987894 14.2352 0.987615C18.3821 0.985098 22.4724 1.94971 26.1812 3.80482C26.5928 4.0107 26.7596 4.51129 26.5537 4.9229C26.3478 5.33452 25.8472 5.5013 25.4356 5.29541Z" fill="#22338A"/>
<path fill-rule="evenodd" clip-rule="evenodd" d="M6.61895 1.70684C7.08779 1.238 7.72368 0.974609 8.38672 0.974609H14.2201C14.6803 0.974609 15.0534 1.34771 15.0534 1.80794C15.0534 2.26818 14.6803 2.64128 14.2201 2.64128H8.38672C8.16571 2.64128 7.95374 2.72907 7.79746 2.88535C7.64118 3.04163 7.55339 3.2536 7.55339 3.47461C7.55339 3.69562 7.64118 3.90758 7.79746 4.06386C7.95374 4.22015 8.16571 4.30794 8.38672 4.30794H10.8867C11.347 4.30794 11.7201 4.68104 11.7201 5.14128C11.7201 5.60151 11.347 5.97461 10.8867 5.97461H8.38672C7.72368 5.97461 7.08779 5.71122 6.61895 5.24238C6.15011 4.77354 5.88672 4.13765 5.88672 3.47461C5.88672 2.81157 6.15011 2.17568 6.61895 1.70684Z" fill="#22338A"/>
<path fill-rule="evenodd" clip-rule="evenodd" d="M2.45489 5.04016C2.92373 4.57131 3.55962 4.30792 4.22266 4.30792H10.8893C11.3496 4.30792 11.7227 4.68102 11.7227 5.14126C11.7227 5.60149 11.3496 5.97459 10.8893 5.97459H4.22266C4.00164 5.97459 3.78968 6.06239 3.6334 6.21867C3.47712 6.37495 3.38932 6.58691 3.38932 6.80792C3.38932 7.02894 3.47712 7.2409 3.6334 7.39718C3.78968 7.55346 4.00164 7.64126 4.22266 7.64126H10.8893C11.3496 7.64126 11.7227 8.01435 11.7227 8.47459C11.7227 8.93483 11.3496 9.30792 10.8893 9.30792H4.22266C3.55961 9.30792 2.92373 9.04453 2.45489 8.57569C1.98605 8.10685 1.72266 7.47096 1.72266 6.80792C1.72266 6.14488 1.98605 5.509 2.45489 5.04016Z" fill="#22338A"/>
<path fill-rule="evenodd" clip-rule="evenodd" d="M0.786921 8.37353C1.25576 7.90469 1.89165 7.6413 2.55469 7.6413H10.888C11.3483 7.6413 11.7214 8.01439 11.7214 8.47463C11.7214 8.93487 11.3483 9.30796 10.888 9.30796H2.55469C2.33367 9.30796 2.12171 9.39576 1.96543 9.55204C1.80915 9.70832 1.72135 9.92028 1.72135 10.1413C1.72135 10.3623 1.80915 10.5743 1.96543 10.7306C2.12171 10.8868 2.33367 10.9746 2.55469 10.9746H10.888C11.3483 10.9746 11.7214 11.3477 11.7214 11.808C11.7214 12.2682 11.3483 12.6413 10.888 12.6413H2.55469C1.89165 12.6413 1.25576 12.3779 0.786921 11.9091C0.31808 11.4402 0.0546875 10.8043 0.0546875 10.1413C0.0546875 9.47825 0.31808 8.84237 0.786921 8.37353Z" fill="#22338A"/>
<path fill-rule="evenodd" clip-rule="evenodd" d="M2.45489 11.7068C2.92373 11.238 3.55961 10.9746 4.22266 10.9746H10.8893C11.3496 10.9746 11.7227 11.3477 11.7227 11.8079C11.7227 12.2682 11.3496 12.6413 10.8893 12.6413H4.22266C4.00164 12.6413 3.78968 12.7291 3.6334 12.8854C3.47712 13.0416 3.38932 13.2536 3.38932 13.4746C3.38932 13.6956 3.47712 13.9076 3.6334 14.0639C3.78968 14.2201 4.00164 14.3079 4.22266 14.3079H10.8893C11.3496 14.3079 11.7227 14.681 11.7227 15.1413C11.7227 15.6015 11.3496 15.9746 10.8893 15.9746H4.22266C3.55961 15.9746 2.92373 15.7112 2.45489 15.2424C1.98605 14.7735 1.72266 14.1377 1.72266 13.4746C1.72266 12.8116 1.98605 12.1757 2.45489 11.7068Z" fill="#22338A"/>
<path fill-rule="evenodd" clip-rule="evenodd" d="M22.9627 13.1238C23.2622 13.4732 23.2217 13.9993 22.8723 14.2988L18.6667 17.9036C17.6095 18.8098 16.2629 19.3079 14.8704 19.3079H10.8867C10.2237 19.3079 9.58779 19.0445 9.11895 18.5757C8.65011 18.1069 8.38672 17.471 8.38672 16.8079C8.38672 16.1449 8.65011 15.509 9.11895 15.0402C9.58779 14.5713 10.2237 14.3079 10.8867 14.3079H14.2201C14.6803 14.3079 15.0534 14.681 15.0534 15.1413C15.0534 15.6015 14.6803 15.9746 14.2201 15.9746H10.8867C10.6657 15.9746 10.4537 16.0624 10.2975 16.2187C10.1412 16.375 10.0534 16.5869 10.0534 16.8079C10.0534 17.029 10.1412 17.2409 10.2975 17.3972C10.4537 17.5535 10.6657 17.6413 10.8867 17.6413H14.8704C15.8651 17.6413 16.8269 17.2855 17.5821 16.6382L21.7876 13.0334C22.1371 12.7339 22.6632 12.7743 22.9627 13.1238Z" fill="#22338A"/>
<path fill-rule="evenodd" clip-rule="evenodd" d="M13.3479 36.9646C13.5559 36.554 14.0573 36.3897 14.4679 36.5977C17.9737 38.3733 21.8487 39.2974 25.7786 39.2949C26.2388 39.2946 26.6121 39.6675 26.6124 40.1277C26.6127 40.588 26.2398 40.9613 25.7796 40.9616C21.5878 40.9642 17.4544 39.9785 13.7148 38.0845C13.3042 37.8766 13.14 37.3751 13.3479 36.9646Z" fill="#22338A"/>
<path fill-rule="evenodd" clip-rule="evenodd" d="M28.2904 36.8079C28.2904 36.3477 28.6635 35.9746 29.1237 35.9746H31.6237C32.2867 35.9746 32.9226 36.238 33.3915 36.7068C33.8603 37.1757 34.1237 37.8116 34.1237 38.4746C34.1237 39.1377 33.8603 39.7735 33.3915 40.2424C32.9226 40.7112 32.2867 40.9746 31.6237 40.9746H25.7904C25.3301 40.9746 24.957 40.6015 24.957 40.1413C24.957 39.681 25.3301 39.3079 25.7904 39.3079H31.6237C31.8447 39.3079 32.0567 39.2201 32.213 39.0639C32.3692 38.9076 32.457 38.6956 32.457 38.4746C32.457 38.2536 32.3692 38.0416 32.213 37.8854C32.0567 37.7291 31.8447 37.6413 31.6237 37.6413H29.1237C28.6635 37.6413 28.2904 37.2682 28.2904 36.8079Z" fill="#22338A"/>
<path fill-rule="evenodd" clip-rule="evenodd" d="M28.293 33.4746C28.293 33.0144 28.6661 32.6413 29.1263 32.6413H35.793C36.456 32.6413 37.0919 32.9047 37.5607 33.3735C38.0296 33.8424 38.293 34.4783 38.293 35.1413C38.293 35.8043 38.0296 36.4402 37.5607 36.9091C37.0919 37.3779 36.456 37.6413 35.793 37.6413H29.1263C28.6661 37.6413 28.293 37.2682 28.293 36.808C28.293 36.3477 28.6661 35.9746 29.1263 35.9746H35.793C36.014 35.9746 36.2259 35.8868 36.3822 35.7306C36.5385 35.5743 36.6263 35.3623 36.6263 35.1413C36.6263 34.9203 36.5385 34.7083 36.3822 34.552C36.2259 34.3958 36.014 34.308 35.793 34.308H29.1263C28.6661 34.308 28.293 33.9349 28.293 33.4746Z" fill="#22338A"/>
<path fill-rule="evenodd" clip-rule="evenodd" d="M28.293 30.1413C28.293 29.6811 28.6661 29.308 29.1263 29.308H37.4596C38.1227 29.308 38.7586 29.5714 39.2274 30.0402C39.6962 30.5091 39.9596 31.1449 39.9596 31.808C39.9596 32.471 39.6962 33.1069 39.2274 33.5758C38.7586 34.0446 38.1227 34.308 37.4596 34.308H29.1263C28.6661 34.308 28.293 33.9349 28.293 33.4746C28.293 33.0144 28.6661 32.6413 29.1263 32.6413H37.4596C37.6806 32.6413 37.8926 32.5535 38.0489 32.3972C38.2052 32.241 38.293 32.029 38.293 31.808C38.293 31.587 38.2052 31.375 38.0489 31.2187C37.8926 31.0624 37.6806 30.9747 37.4596 30.9747H29.1263C28.6661 30.9747 28.293 30.6016 28.293 30.1413Z" fill="#22338A"/>
<path fill-rule="evenodd" clip-rule="evenodd" d="M28.293 26.8079C28.293 26.3477 28.6661 25.9746 29.1263 25.9746H35.793C36.456 25.9746 37.0919 26.238 37.5607 26.7068C38.0296 27.1757 38.293 27.8116 38.293 28.4746C38.293 29.1376 38.0296 29.7735 37.5607 30.2424C37.0919 30.7112 36.456 30.9746 35.793 30.9746H29.1263C28.6661 30.9746 28.293 30.6015 28.293 30.1413C28.293 29.681 28.6661 29.3079 29.1263 29.3079H35.793C36.014 29.3079 36.2259 29.2201 36.3822 29.0639C36.5385 28.9076 36.6263 28.6956 36.6263 28.4746C36.6263 28.2536 36.5385 28.0416 36.3822 27.8854C36.2259 27.7291 36.014 27.6413 35.793 27.6413H29.1263C28.6661 27.6413 28.293 27.2682 28.293 26.8079Z" fill="#22338A"/>
<path fill-rule="evenodd" clip-rule="evenodd" d="M21.3445 24.0456C22.4017 23.1394 23.7483 22.6413 25.1408 22.6413H29.1245C29.7875 22.6413 30.4234 22.9047 30.8923 23.3735C31.3611 23.8424 31.6245 24.4783 31.6245 25.1413C31.6245 25.8043 31.3611 26.4402 30.8923 26.9091C30.4234 27.3779 29.7875 27.6413 29.1245 27.6413H25.7912C25.3309 27.6413 24.9578 27.2682 24.9578 26.808C24.9578 26.3477 25.3309 25.9746 25.7912 25.9746H29.1245C29.3455 25.9746 29.5575 25.8868 29.7137 25.7305C29.87 25.5743 29.9578 25.3623 29.9578 25.1413C29.9578 24.9203 29.87 24.7083 29.7137 24.552C29.5575 24.3958 29.3455 24.308 29.1245 24.308H25.1408C24.1461 24.308 23.1843 24.6638 22.4291 25.3111L18.2546 28.8893C17.9051 29.1888 17.3791 29.1483 17.0795 28.7989C16.78 28.4494 16.8205 27.9233 17.1699 27.6238L21.3445 24.0456L21.8781 24.6682L21.3445 24.0456Z" fill="#22338A"/>
</g>
<defs>
<clipPath id="clip0_2334_3503">
<rect width="40" height="40" fill="white" transform="translate(0 0.974609)"/>
</clipPath>
</defs>
</svg>
