<svg width="41" height="41" viewBox="0 0 41 41" fill="none" xmlns="http://www.w3.org/2000/svg">
<g clip-path="url(#clip0_2334_3569)">
<path d="M34.6829 6.8079C35.1432 6.8079 35.5163 6.43481 35.5163 5.97457C35.5163 5.51433 35.1432 5.14124 34.6829 5.14124C34.2227 5.14124 33.8496 5.51433 33.8496 5.97457C33.8496 6.43481 34.2227 6.8079 34.6829 6.8079Z" fill="#22338A"/>
<path d="M32.1829 6.8079C32.6432 6.8079 33.0163 6.43481 33.0163 5.97457C33.0163 5.51433 32.6432 5.14124 32.1829 5.14124C31.7227 5.14124 31.3496 5.51433 31.3496 5.97457C31.3496 6.43481 31.7227 6.8079 32.1829 6.8079Z" fill="#22338A"/>
<path d="M40.5176 40.1413H0.517578V8.47459H27.1842V36.8079H25.5176V10.1413H2.18424V38.4746H38.8509V3.47459H2.18424V5.14126H30.5176V6.80792H0.517578V1.80792H40.5176V40.1413Z" fill="#22338A"/>
<path d="M37.1829 6.8079C37.6432 6.8079 38.0163 6.43481 38.0163 5.97457C38.0163 5.51433 37.6432 5.14124 37.1829 5.14124C36.7227 5.14124 36.3496 5.51433 36.3496 5.97457C36.3496 6.43481 36.7227 6.8079 37.1829 6.8079Z" fill="#22338A"/>
<path d="M37.1829 36.8079H28.8496V8.47461H37.1829V36.8079ZM30.5163 35.1413H35.5163V10.1413H30.5163V35.1413Z" fill="#22338A"/>
<path d="M33.8483 18.4746H32.1816V20.1413H33.8483V18.4746Z" fill="#22338A"/>
<path d="M33.8483 21.8079H32.1816V23.4746H33.8483V21.8079Z" fill="#22338A"/>
<path d="M33.8483 25.1413H32.1816V26.808H33.8483V25.1413Z" fill="#22338A"/>
<path d="M23.8496 20.1412H3.84961V15.1412H23.8496V20.1412ZM5.51628 18.4746H22.1829V16.8079H5.51628V18.4746Z" fill="#22338A"/>
<path d="M23.8496 30.1412H3.84961V25.1412H23.8496V30.1412ZM5.51628 28.4746H22.1829V26.8079H5.51628V28.4746Z" fill="#22338A"/>
<path d="M13.8496 11.8079H3.84961V13.4746H13.8496V11.8079Z" fill="#22338A"/>
<path d="M13.8496 21.8079H3.84961V23.4746H13.8496V21.8079Z" fill="#22338A"/>
<path d="M8.84961 36.8079H3.84961V31.8079H8.84961V36.8079ZM5.51628 35.1413H7.18294V33.4746H5.51628V35.1413Z" fill="#22338A"/>
<path d="M16.3483 33.4746H9.68164V35.1413H16.3483V33.4746Z" fill="#22338A"/>
</g>
<defs>
<clipPath id="clip0_2334_3569">
<rect width="40" height="40" fill="white" transform="translate(0.517578 0.974609)"/>
</clipPath>
</defs>
</svg>
