<svg width="80" height="20" viewBox="0 0 80 20" fill="none" xmlns="http://www.w3.org/2000/svg">
<path fill-rule="evenodd" clip-rule="evenodd" d="M10.7578 15.7971V0.853699H13.8952V13.1922H20.2573V15.7971H10.7578Z" fill="#22338A"/>
<path fill-rule="evenodd" clip-rule="evenodd" d="M24.1992 9.06237H28.8727C28.868 8.3961 28.6555 7.84639 28.2351 7.41325C27.8148 6.98043 27.2689 6.76385 26.5975 6.76385C25.9115 6.76385 25.3489 6.98775 24.9092 7.43522C24.4693 7.8827 24.2327 8.4254 24.1992 9.06237ZM26.6699 16.0162C25.5297 16.0162 24.5471 15.7815 23.7207 15.312C22.8949 14.8426 22.2595 14.1763 21.8151 13.3129C21.3708 12.4495 21.1484 11.4265 21.1484 10.2446C21.1484 9.09166 21.3708 8.07983 21.8151 7.20908C22.2595 6.33834 22.8863 5.65965 23.6954 5.17332C24.5047 4.68699 25.4551 4.44366 26.5469 4.44366C27.5273 4.44366 28.4125 4.65291 29.2023 5.07108C29.992 5.48957 30.6188 6.12081 31.0828 6.9648C31.5461 7.80847 31.7783 8.86553 31.7783 10.135V10.9886H24.1992V10.9959C24.1992 11.8329 24.4263 12.4918 24.8801 12.9734C25.3343 13.4549 25.9475 13.6957 26.7208 13.6957C27.2373 13.6957 27.6845 13.5865 28.0612 13.3673C28.4378 13.1485 28.7035 12.825 28.8582 12.3969L31.7131 12.5867C31.4955 13.6275 30.9449 14.4594 30.0609 15.0821C29.177 15.7047 28.0466 16.0162 26.6699 16.0162Z" fill="#22338A"/>
<path fill-rule="evenodd" clip-rule="evenodd" d="M37.3335 13.8636C38.0097 13.8636 38.5654 13.6655 39.0002 13.269C39.4348 12.8724 39.6521 12.3801 39.6521 11.7915V10.602C39.5313 10.6848 39.344 10.7577 39.0907 10.8208C38.837 10.8841 38.5663 10.9389 38.2788 10.9851C37.9917 11.0313 37.7345 11.0714 37.5074 11.1055C36.9663 11.1832 36.5302 11.3364 36.1994 11.5651C35.8685 11.7937 35.7031 12.1269 35.7031 12.5648C35.7031 12.9928 35.8565 13.3164 36.1633 13.5352C36.4701 13.754 36.86 13.8636 37.3335 13.8636ZM36.4492 16.0088C35.3865 16.0088 34.5048 15.7289 33.8046 15.1696C33.104 14.6103 32.7539 13.7759 32.7539 12.6669C32.7539 11.8303 32.9494 11.1735 33.3406 10.6968C33.7318 10.22 34.2451 9.87093 34.8802 9.64958C35.5156 9.42824 36.2003 9.28364 36.9344 9.21549C37.9006 9.11835 38.5916 9.01611 39.0069 8.9091C39.4222 8.80209 39.6303 8.56864 39.6303 8.20875V8.1648C39.6303 7.70268 39.4864 7.34533 39.1989 7.09214C38.9114 6.83926 38.5043 6.71282 37.9781 6.71282C37.4224 6.71282 36.9805 6.83448 36.6519 7.07749C36.3237 7.32113 36.1061 7.62974 35.9998 8.00428L33.1451 7.77083C33.3577 6.74945 33.8852 5.93922 34.7284 5.3411C35.5712 4.74266 36.6592 4.4436 37.9926 4.4436C38.8184 4.4436 39.5914 4.57482 40.3112 4.83757C41.0307 5.10032 41.6117 5.5099 42.0538 6.06725C42.4957 6.62428 42.7167 7.34756 42.7167 8.23773V15.797H39.7897V14.2428H39.7024C39.432 14.7635 39.0271 15.1877 38.4888 15.5161C37.9502 15.8445 37.2702 16.0088 36.4492 16.0088Z" fill="#22338A"/>
<mask id="mask0_2339_3938" style="mask-type:alpha" maskUnits="userSpaceOnUse" x="44" y="4" width="12" height="16">
<path fill-rule="evenodd" clip-rule="evenodd" d="M44.7617 4.44366H55.6161V20H44.7617V4.44366Z" fill="white"/>
</mask>
<g mask="url(#mask0_2339_3938)">
<path fill-rule="evenodd" clip-rule="evenodd" d="M47.7812 10.1934C47.7812 11.1906 47.9852 11.9919 48.3935 12.5977C48.8019 13.2035 49.3778 13.506 50.1217 13.506C50.8801 13.506 51.4598 13.1987 51.8605 12.5831C52.2615 11.9677 52.4621 11.1712 52.4621 10.1934C52.4621 9.22047 52.2628 8.43126 51.8643 7.8255C51.4655 7.22006 50.8848 6.91718 50.1217 6.91718C49.3727 6.91718 48.7955 7.21273 48.3901 7.80384C47.9843 8.39495 47.7812 9.19149 47.7812 10.1934ZM44.7617 20.0003V4.58965H47.8049V6.47223H47.9428C48.0826 6.16584 48.2809 5.85691 48.537 5.54543C48.7929 5.23427 49.1313 4.97247 49.5513 4.761C49.9716 4.54952 50.491 4.44379 51.1093 4.44379C51.9256 4.44379 52.6745 4.65654 53.3554 5.08203C54.0364 5.50785 54.5835 6.14737 54.9969 7.00123C55.4096 7.85478 55.6161 8.92394 55.6161 10.2081C55.6161 11.4581 55.4156 12.5126 55.0146 13.3713C54.6139 14.2296 54.0727 14.879 53.3915 15.3195C52.7105 15.7596 51.9471 15.9797 51.102 15.9797C50.503 15.9797 49.9944 15.88 49.5766 15.6806C49.1588 15.4813 48.8182 15.2293 48.5548 14.9252C48.2916 14.6213 48.0876 14.3137 47.9428 14.0022H47.8485V20.0003H44.7617Z" fill="#22338A"/>
</g>
<path fill-rule="evenodd" clip-rule="evenodd" d="M63.0839 4.58892V6.92407H60.8741V15.7965H57.7873V6.92407H56.2148V4.58892H57.7873V3.77901C57.7873 2.55825 58.134 1.64834 58.8269 1.05022C59.5199 0.451782 60.3909 0.152405 61.4393 0.152405C61.9125 0.152405 62.3461 0.189031 62.7398 0.261964C63.1333 0.334898 63.4268 0.400824 63.62 0.459107L63.077 2.79393C62.9562 2.75508 62.8062 2.71845 62.6275 2.68469C62.4485 2.65061 62.2676 2.63342 62.0842 2.63342C61.6297 2.63342 61.3147 2.73915 61.1385 2.95063C60.9621 3.16242 60.8741 3.45798 60.8741 3.83729V4.58892H63.0839Z" fill="#22338A"/>
<mask id="mask1_2339_3938" style="mask-type:alpha" maskUnits="userSpaceOnUse" x="64" y="0" width="4" height="4">
<path fill-rule="evenodd" clip-rule="evenodd" d="M64.4492 -6.10352e-05H67.7897V3.14464H64.4492V-6.10352e-05Z" fill="white"/>
</mask>
<g mask="url(#mask1_2339_3938)">
<path fill-rule="evenodd" clip-rule="evenodd" d="M66.1156 3.14451C65.6615 3.14451 65.2703 2.99004 64.942 2.68111C64.6134 2.37218 64.4492 2.00146 64.4492 1.56832C64.4492 1.13549 64.6134 0.765729 64.942 0.459345C65.2703 0.152643 65.6615 -0.000549316 66.1156 -0.000549316C66.5746 -0.000549316 66.9683 0.152643 67.2969 0.459345C67.6252 0.765729 67.7897 1.13549 67.7897 1.56832C67.7897 2.00146 67.6252 2.37218 67.2969 2.68111C66.9683 2.99004 66.5746 3.14451 66.1156 3.14451Z" fill="#22338A"/>
</g>
<mask id="mask2_2339_3938" style="mask-type:alpha" maskUnits="userSpaceOnUse" x="0" y="0" width="80" height="20">
<path fill-rule="evenodd" clip-rule="evenodd" d="M0 19.9999H80V-6.10352e-05H0V19.9999Z" fill="white"/>
</mask>
<g mask="url(#mask2_2339_3938)">
<path fill-rule="evenodd" clip-rule="evenodd" d="M64.5625 15.797H67.6493V4.58942H64.5625V15.797Z" fill="#22338A"/>
<path fill-rule="evenodd" clip-rule="evenodd" d="M72.8254 9.31766V15.797H69.7383V4.58941H72.6802V6.56689H72.8108C73.062 5.91495 73.4763 5.39805 74.0535 5.01618C74.6307 4.63432 75.3325 4.44354 76.1583 4.44354C77.3177 4.44354 78.2479 4.81904 78.9478 5.57067C79.6483 6.32229 79.9987 7.3526 79.9987 8.66094V15.797H76.9119V9.21543C76.917 8.52941 76.7427 7.99339 76.3901 7.60643C76.0374 7.21979 75.552 7.02647 74.9337 7.02647C74.3106 7.02647 73.8046 7.22712 73.4159 7.62841C73.0269 8.0297 72.8301 8.59279 72.8254 9.31766Z" fill="#22338A"/>
<path fill-rule="evenodd" clip-rule="evenodd" d="M5.38281 15.7968H8.52022V5.8349H5.38281V15.7968Z" fill="#22338A"/>
<path fill-rule="evenodd" clip-rule="evenodd" d="M0 15.7969H3.1374V10.8161H0V15.7969Z" fill="#22338A"/>
</g>
</svg>
