<svg width="49" height="49" viewBox="0 0 49 49" fill="none" xmlns="http://www.w3.org/2000/svg">
<g clip-path="url(#clip0_2334_3386)">
<path d="M15.5 47.905V40.071" stroke="#22338A" stroke-width="2" stroke-linecap="round" stroke-linejoin="round"/>
<path d="M27.5 47.905V40.071" stroke="#22338A" stroke-width="2" stroke-linecap="round" stroke-linejoin="round"/>
<path d="M11.5 39.905H31.5" stroke="#22338A" stroke-width="2" stroke-linecap="round" stroke-linejoin="round"/>
<path d="M1.5 47.905V13.905C1.5 13.3746 1.71071 12.8659 2.08579 12.4908C2.46086 12.1157 2.96957 11.905 3.5 11.905H19.5C20.0304 11.905 20.5391 12.1157 20.9142 12.4908C21.2893 12.8659 21.5 13.3746 21.5 13.905V47.905" stroke="#22338A" stroke-width="2" stroke-linecap="round" stroke-linejoin="round"/>
<path d="M15.5 6.90503C15.5 6.63981 15.3946 6.38546 15.2071 6.19792C15.0196 6.01039 14.7652 5.90503 14.5 5.90503H8.5C8.23478 5.90503 7.98043 6.01039 7.79289 6.19792C7.60536 6.38546 7.5 6.63981 7.5 6.90503V11.905H15.5V6.90503Z" stroke="#22338A" stroke-width="2" stroke-linecap="round" stroke-linejoin="round"/>
<path d="M11.5 5.90503V1.90503" stroke="#22338A" stroke-width="2" stroke-linecap="round" stroke-linejoin="round"/>
<path d="M5.5 17.905H17.5" stroke="#22338A" stroke-width="2" stroke-linecap="round" stroke-linejoin="round"/>
<path d="M5.5 25.905H17.5" stroke="#22338A" stroke-width="2" stroke-linecap="round" stroke-linejoin="round"/>
<path d="M5.5 33.905H17.5" stroke="#22338A" stroke-width="2" stroke-linecap="round" stroke-linejoin="round"/>
<path d="M1.5 47.905H45.5" stroke="#22338A" stroke-width="2" stroke-linecap="round" stroke-linejoin="round"/>
<path d="M37.4961 26.907V47.073" stroke="#22338A" stroke-width="2" stroke-linecap="round" stroke-linejoin="round"/>
<path d="M32.5 33.905C32.5568 35.2129 33.1018 36.4519 34.0275 37.3775C34.9531 38.3032 36.1922 38.8482 37.5 38.905" stroke="#22338A" stroke-width="2" stroke-linecap="round" stroke-linejoin="round"/>
<path d="M37.5 32.905C39.3635 32.915 41.1574 32.1975 42.5 30.905" stroke="#22338A" stroke-width="2" stroke-linecap="round" stroke-linejoin="round"/>
<path d="M43.5005 34.905C44.0321 34.9286 44.5627 34.8412 45.0587 34.6486C45.5547 34.4559 46.0051 34.1621 46.3813 33.7858C46.7576 33.4096 47.0514 32.9592 47.244 32.4632C47.4367 31.9672 47.5241 31.4366 47.5005 30.905C47.5241 30.3735 47.4367 29.8428 47.244 29.3469C47.0514 28.8509 46.7576 28.4005 46.3813 28.0242C46.0051 27.648 45.5547 27.3542 45.0587 27.1615C44.5627 26.9688 44.0321 26.8815 43.5005 26.905C43.1686 26.862 42.8325 26.862 42.5005 26.905C42.5205 26.611 42.5005 26.207 42.5005 25.905C42.5005 21.031 39.6865 17.905 36.5005 17.905C32.5005 17.905 30.5005 21.031 30.5005 25.905C30.6084 27.3021 30.9562 28.6701 31.5285 29.949C31.0612 29.7114 30.5448 29.5861 30.0205 29.583C29.0692 29.604 28.1649 30.0008 27.5053 30.6867C26.8457 31.3725 26.4844 32.2916 26.5005 33.243C26.4962 34.2074 26.8661 35.1359 27.5325 35.833" stroke="#22338A" stroke-width="2" stroke-linecap="round" stroke-linejoin="round"/>
</g>
<defs>
<clipPath id="clip0_2334_3386">
<rect width="48" height="48" fill="white" transform="translate(0.5 0.905029)"/>
</clipPath>
</defs>
</svg>
