<svg width="49" height="49" viewBox="0 0 49 49" fill="none" xmlns="http://www.w3.org/2000/svg">
<path d="M30.75 26.905L28.75 22.905V20.905H40.75V14.905L38.75 12.905H36.75V16.905H34.75L32.75 14.905H30.75V16.905H26.75V10.905H32.75V6.90503H28.75V2.90503" stroke="#22338A" stroke-width="2" stroke-miterlimit="10" stroke-linecap="round"/>
<path d="M18.7515 2.90503V16.905L12.7515 20.905V24.905H22.7515V42.905H20.7515L10.7515 32.905V28.905H8.75147L2.23047 21.839" stroke="#22338A" stroke-width="2" stroke-miterlimit="10"/>
<path d="M47.6418 27.1505C47.7134 26.4117 47.7495 25.6632 47.75 24.905C47.75 20.3561 46.4011 15.9093 43.8738 12.1269C41.3465 8.34459 37.7544 5.39663 33.5517 3.65581C29.349 1.91499 24.7245 1.45952 20.2629 2.34698C15.8014 3.23444 11.7032 5.42498 8.48655 8.64158C5.26995 11.8582 3.07941 15.9564 2.19195 20.418C1.30449 24.8795 1.75997 29.5041 3.50078 33.7068C5.2416 37.9095 8.18956 41.5016 11.9719 44.0288C15.7542 46.5561 20.201 47.905 24.75 47.905" stroke="#22338A" stroke-width="2" stroke-miterlimit="10" stroke-linecap="round"/>
</svg>
