<svg width="87" height="32" viewBox="0 0 87 32" fill="none" xmlns="http://www.w3.org/2000/svg">
<circle cx="16.4367" cy="15.7699" r="15.7699" fill="#70727E"/>
<path fill-rule="evenodd" clip-rule="evenodd" d="M9.19067 7.57251H11.748V23.688H9.19067V7.57251Z" fill="#A9ABB6"/>
<path fill-rule="evenodd" clip-rule="evenodd" d="M19.4199 7.57251C22.7138 7.57251 25.3869 10.2309 25.3869 13.5098C25.3869 16.7887 22.7176 19.4471 19.4199 19.4471C16.1259 19.4471 13.4529 16.7887 13.4529 13.5098C13.4529 10.2309 16.1259 7.57251 19.4199 7.57251Z" fill="white"/>
<path d="M38.2333 15.4654C38.8708 15.4654 39.4222 15.0064 39.4222 14.3129C39.4222 13.6344 38.8961 13.2104 38.2029 13.2104H37.3226V15.4654H38.2333ZM35.7795 11.9182L38.8606 11.9382C39.8624 11.9382 41.1424 12.7115 41.1424 14.268C41.1424 15.9094 39.999 16.8224 38.7038 16.8224L37.3277 16.7975V18.7132H35.7795V11.9182Z" fill="#A9ABB6"/>
<path d="M45.4933 13.9738L44.7496 16.608H46.237L45.4933 13.9738ZM44.3802 17.9251L44.1576 18.7084H42.3616L44.7799 12.0181H46.237L48.6553 18.7084H46.8239L46.6012 17.9251H44.3802Z" fill="#A9ABB6"/>
<path d="M51.2407 13.4151H49.7229V12.0681H54.3268V13.4151H52.7939V18.7085H51.2407V13.4151Z" fill="#A9ABB6"/>
<path d="M59.295 15.4705C59.9021 15.4705 60.3979 15.0264 60.3979 14.3529C60.3979 13.6295 59.8718 13.2204 59.2394 13.2204H58.3388V15.4705H59.295ZM56.7704 12.0679L59.6188 12.053C60.7369 12.053 61.9866 12.8662 61.9866 14.3878C61.9866 15.4006 61.6526 16.1689 60.6914 16.608L62.0422 18.7133H60.2765L59.0319 16.8025H58.3338V18.7133H56.7654V12.0679H56.7704Z" fill="#A9ABB6"/>
<path d="M64.6072 12.0681H68.8165V13.2256H66.3476V14.7173H68.8216V16.0543H66.3476V17.551H68.8266V18.7085H64.6072V12.0681Z" fill="#A9ABB6"/>
<path d="M74.9587 17.4311C76.1274 17.4311 76.9065 16.4832 76.9065 15.3706C76.9065 14.2531 76.1274 13.2752 74.9384 13.2752C73.7647 13.2752 72.9906 14.2231 72.9906 15.3357C72.9906 16.4582 73.7697 17.4311 74.9587 17.4311ZM74.9384 18.8878C73.7748 18.8878 72.7579 18.3839 72.1154 17.5757C71.6398 16.9771 71.3767 16.2187 71.3767 15.3706C71.3767 14.4726 71.655 13.6594 72.1811 13.0408C72.8287 12.2824 73.8355 11.8135 74.9587 11.8135C75.9908 11.8135 76.9419 12.2126 77.5844 12.8661C78.2017 13.4948 78.5406 14.3529 78.5406 15.3257C78.5406 16.3335 78.146 17.2814 77.4883 17.92C76.8458 18.5586 75.9503 18.8878 74.9384 18.8878Z" fill="#A9ABB6"/>
<path d="M81.217 12.0681H82.8461L85.2088 16.2688V12.0681H86.762V18.7085H85.1076L82.75 14.4878V18.7085H81.217V12.0681Z" fill="#A9ABB6"/>
</svg>
