<svg width="91" height="15" viewBox="0 0 91 15" fill="none" xmlns="http://www.w3.org/2000/svg">
<path d="M7.50482 0.911433C11.2204 0.911433 14.2477 3.94303 14.2477 7.69384C14.2477 11.4447 11.2204 14.4762 7.50482 14.4762C3.78923 14.4762 0.761963 11.4763 0.761963 7.69384C0.761963 3.91138 3.78923 0.911433 7.50482 0.911433ZM60.3695 0.761963V12.6457C60.3695 13.546 60.7295 13.7869 61.4178 13.9663L61.4477 14.1158H57.6425V12.6457C57.193 13.7254 56.2641 14.3866 55.0648 14.3866C53.0261 14.3866 51.6776 12.5261 51.6776 9.76532C51.6776 8.20555 52.1271 6.88495 52.9664 5.89317C53.7759 4.93305 54.8839 4.42309 56.1131 4.42309C56.7119 4.42309 57.2211 4.54267 57.6408 4.81347V3.19216C57.6408 2.83168 57.5512 2.59253 57.3704 2.41141C57.1298 2.20215 56.7417 2.11071 56.1412 2.1705H56.1113V2.02278L60.3695 0.761963ZM74.814 4.45299V12.6457C74.814 13.546 75.174 13.7869 75.8623 13.9663V14.1158H72.0571V12.6158C71.6076 13.6955 70.619 14.3866 69.5093 14.3866C68.1905 14.3866 67.3512 13.7869 67.0211 12.6158L66.9614 12.3169C66.9017 12.0162 66.8718 11.7172 66.8718 11.4165V7.03442C66.8718 6.07429 66.6629 5.77359 65.8235 5.71381H65.7937V5.56434L69.5988 4.45474V11.3567C69.5988 12.3766 70.0483 12.9481 70.8877 12.9481C71.3969 12.9481 71.8166 12.6773 72.0571 12.2272V7.03442C72.0571 6.0444 71.878 5.7437 71.188 5.68391H71.1581V5.53444L74.814 4.45299ZM47.3333 4.42309C48.3518 4.42309 49.3404 4.78358 50.0006 5.41311C50.7504 6.13408 51.1402 7.18389 51.1701 8.56428V8.59418H45.4457C45.3263 10.5742 46.5537 12.1955 48.1727 12.2553C49.3421 12.345 50.3606 11.6258 50.9295 10.4546L51.0788 10.5144C50.7487 12.7055 49.4598 14.3567 47.2122 14.3567C44.6643 14.3567 43.2262 12.2254 43.1665 9.5543V8.86322C43.2859 7.69208 43.6458 6.64228 44.2745 5.86152C44.6643 5.38146 45.1138 5.02097 45.6529 4.78182C46.1024 4.54091 46.7609 4.42133 47.3017 4.42133H47.3333V4.42309ZM86.981 4.45299C88.6 4.45299 89.5886 5.4729 89.5886 7.21378V12.7952C89.5886 13.4546 89.8888 13.7852 90.6369 13.9663H90.6667V14.1158H86.83V7.30522C86.83 6.22552 86.4401 5.68391 85.6307 5.68391C84.9722 5.68391 84.6421 6.16397 84.4612 6.58425C84.491 6.79351 84.5209 7.00452 84.5209 7.21378V12.8866C84.5209 13.5777 84.7299 13.8168 85.3304 13.9663H85.3602V14.1158H81.7939V7.30522C81.7939 6.22552 81.3742 5.68391 80.5946 5.68391C79.966 5.68391 79.6358 6.13408 79.4866 6.49457V12.9165C79.4866 13.6076 79.6955 13.8467 80.2961 13.9962H80.3259V14.1457H76.7596V7.00452C76.7596 6.0444 76.519 5.7437 75.7113 5.68391H75.6814V5.53444L79.4866 4.48464V6.07605C79.8764 5.05614 80.7754 4.45474 81.9133 4.45474C83.2022 4.45474 84.1012 5.08428 84.4015 6.22552C84.7931 5.14406 85.7817 4.45299 86.981 4.45299ZM32.3182 1.3616L35.8845 9.73542L39.4509 1.3616H43.2876L43.2578 1.51107L43.2139 1.52162C42.5536 1.67285 42.2077 1.92079 42.2077 2.742V12.9464C42.2674 13.6058 42.6274 13.8168 43.256 13.9663H43.2859V14.1158H38.4008V13.9663H38.4307C39.0593 13.8168 39.4193 13.6058 39.479 12.9464V3.0128L34.7748 14.0876H34.5043L29.9196 3.3135V12.7072C29.9196 13.5478 30.2795 13.7869 30.9679 13.9382H30.9977V14.0876H28.1812V13.9382H28.211C28.9011 13.7887 29.2593 13.5478 29.2593 12.7072V2.742C29.2593 1.90145 28.8993 1.6623 28.211 1.51107H28.1812V1.3616H32.3182ZM65.014 4.45299V12.6457V12.702C65.0281 13.5566 65.388 13.7904 66.0623 13.9663L66.0922 14.1158H62.287V7.03442C62.287 6.07429 62.0781 5.77359 61.2387 5.71381H61.2089V5.56434L65.014 4.45299ZM18.2934 1.30181C20.1213 1.30181 21.649 4.18218 21.649 7.69384C21.649 11.2354 20.1512 14.0859 18.2934 14.0859C16.4356 14.0859 14.9378 11.2354 14.9378 7.69384C14.9378 4.15229 16.4356 1.30181 18.2934 1.30181ZM23.4471 1.963C24.1372 1.963 24.6464 4.54443 24.6464 7.6956C24.6464 10.8468 24.1073 13.4282 23.4471 13.4282C22.7939 13.4282 22.2583 10.8978 22.2478 7.79056V7.6956C22.2496 4.54267 22.7886 1.963 23.4471 1.963ZM56.5626 4.96294C55.3633 4.96294 54.6153 6.55435 54.6153 9.01445C54.6153 10.1856 54.8242 11.2055 55.1842 11.8948C55.5143 12.5542 55.9937 12.9147 56.5328 12.9147C57.0718 12.9147 57.4617 12.6738 57.6408 12.2237V5.62413C57.4318 5.20385 57.042 4.96294 56.5626 4.96294ZM47.3035 4.99284C46.2253 4.99284 45.5949 6.28355 45.5054 8.08422V8.11411H48.7715C48.8312 6.70382 48.5923 5.77359 48.1428 5.32343C47.9023 5.11417 47.6318 4.99284 47.3035 4.99284ZM63.546 0.851645C64.4152 0.851645 65.0737 1.51107 65.0737 2.38151C65.0737 3.25195 64.4152 3.91138 63.546 3.91138C62.6768 3.91138 62.0184 3.25195 62.0184 2.38151C62.0184 1.51107 62.6768 0.851645 63.546 0.851645Z" fill="#A9ABB6"/>
</svg>
