<svg width="87" height="13" viewBox="0 0 87 13" fill="none" xmlns="http://www.w3.org/2000/svg">
<g clip-path="url(#clip0_3918_9155)">
<path d="M19.0654 12.3334C15.6359 12.3334 13.5276 9.95367 13.5276 6.61907C13.5276 3.28447 15.6359 0.904785 19.0654 0.904785C22.4949 0.904785 24.6149 3.28447 24.6149 6.61907C24.6149 9.95367 22.491 12.3334 19.0654 12.3334ZM19.0654 2.79944C16.9415 2.79944 15.7996 4.38717 15.7996 6.6077C15.7996 8.82824 16.9415 10.416 19.0654 10.416C21.1893 10.416 22.3312 8.82824 22.3312 6.6077C22.3312 4.38717 21.1893 2.79944 19.0654 2.79944Z" fill="#A9ABB6"/>
<path d="M34.996 7.72558H31.8783L31.7146 7.88473V12.0151L31.551 12.1742H29.6024L29.4387 12.0151V1.22312L29.6024 1.06396H34.996C37.2797 1.06396 38.9126 2.17423 38.9126 4.39856C38.9126 6.62289 37.2992 7.72558 34.996 7.72558ZM34.996 2.96241H31.8783L31.7146 3.12156V5.6604L31.8783 5.81955H34.996C35.9742 5.81955 36.6289 5.50125 36.6289 4.39098C36.6289 3.28071 35.9781 2.96999 34.996 2.96999V2.96241Z" fill="#A9ABB6"/>
<path d="M58.7886 1.06396H56.8283L56.6647 1.22312V5.20569L56.5049 5.36105H51.8127V7.58537H56.5049L56.6647 7.74452V12.0151L56.8283 12.1742H58.7886L58.9523 12.0151V1.22312L58.7886 1.06396Z" fill="#A9ABB6"/>
<path d="M74.0183 12.1742H72.5491L72.3854 12.0151L71.5709 9.94991L71.2436 9.79076H67.1633L66.8359 9.94991L66.0214 12.0151L65.8577 12.1742H64.3885L64.2249 12.0151V10.4274L67.9778 1.22312L68.1415 1.06396H70.2654L70.4291 1.22312L74.182 10.4311V12.0189L74.0183 12.1742ZM69.2833 3.93626H69.1196L67.6543 7.72558L67.818 7.88473H70.5927L70.7564 7.72558L69.2833 3.93626Z" fill="#A9ABB6"/>
<path d="M86.5986 2.96999H83.3328L83.1691 3.12914V12.0151L83.0054 12.1742H81.0569L80.8932 12.0151V3.12535L80.7295 2.9662H77.4403L77.2922 2.79947V1.22312L77.4403 1.06396H86.5986L86.7622 1.22312V2.79947L86.5986 2.96999Z" fill="#A9ABB6"/>
<path d="M9.97308 2.96999H6.70729L6.54361 3.12914V12.0151L6.37993 12.1742H4.43137L4.26769 12.0151V3.12535L4.09622 2.96999H0.830427L0.666748 2.79947V1.22312L0.830427 1.06396H9.97308L10.1368 1.22312V2.79947L9.97308 2.96999Z" fill="#A9ABB6"/>
<path d="M51.8123 1.21933V5.36105H49.6883L49.5286 5.2019V1.21933L49.6883 1.06396H51.6486L51.8123 1.21933Z" fill="#A9ABB6"/>
<path d="M51.8123 7.58521V12.0149L51.6486 12.1741H49.6883L49.5286 12.0149V7.74436L49.6883 7.58521H51.8123Z" fill="#A9ABB6"/>
</g>
<defs>
<clipPath id="clip0_3918_9155">
<rect width="86.0952" height="11.4286" fill="white" transform="translate(0.666748 0.904785)"/>
</clipPath>
</defs>
</svg>
