<svg width="106" height="21" viewBox="0 0 106 21" fill="none" xmlns="http://www.w3.org/2000/svg">
<g clip-path="url(#clip0_67_1120)">
<path d="M77.0523 16.5911C75.8832 16.5911 74.5545 16.8563 74.5545 15.6942H74.5248C73.4413 17.8093 67.8914 17.3323 67.8914 12.3899C67.8914 8.01048 72.8338 6.65021 74.5248 9.09833H74.5545C74.5545 7.92993 75.8958 8.20054 77.0523 8.20054V16.5911ZM72.4813 10.0794C69.6788 10.0794 69.741 14.524 72.466 14.524C75.2387 14.5231 75.2667 10.0794 72.4813 10.0794ZM80.6498 5.39674V8.86121C82.6906 6.81584 87.1832 8.08198 87.1832 12.3365C87.1832 16.8843 82.2525 18.0546 80.603 15.6816V16.5793H78.1052V7.13712C78.1277 6.17326 78.9263 5.39312 79.8863 5.39674C79.9801 5.39674 80.5561 5.39674 80.6498 5.39674ZM84.6232 12.3918C84.6232 11.1546 83.5677 10.2568 82.6014 10.2568C79.9215 10.2568 79.8278 14.5231 82.5779 14.5231V14.5285C83.5767 14.5294 84.6232 13.6244 84.6232 12.3918ZM90.3192 5.39674V8.86121C92.3645 6.81403 96.8526 8.0856 96.8526 12.3365C96.8526 16.8825 91.9246 18.0555 90.2723 15.6816V16.5793H87.8286V7.13712C87.8503 6.18412 88.63 5.40941 89.58 5.39674C89.5791 5.39674 90.3138 5.39674 90.3192 5.39674ZM94.3106 12.3918C94.3106 11.1546 93.2551 10.2568 92.2897 10.2568C89.6071 10.2568 89.5215 14.5231 92.2662 14.5231V14.5285C93.2632 14.5294 94.3106 13.6244 94.3106 12.3918ZM100.007 16.5911H97.562V9.95449C97.5304 8.99425 98.311 8.17248 99.2837 8.17248H100L100.007 16.5911Z" fill="#A9ABB6"/>
<path fill-rule="evenodd" clip-rule="evenodd" d="M98.787 7.71992C97.0591 7.71992 97.0582 5.09351 98.787 5.09351C100.514 5.09351 100.516 7.71992 98.787 7.71992Z" fill="#A9ABB6"/>
<path d="M66.7439 14.0598C65.9732 14.0127 65.6929 13.591 65.2413 13.0081L65.0394 12.771C68.1069 12.2035 68.7189 8.15624 66.4483 6.19956C65.1989 5.23388 64.001 5.39136 59.4651 5.39136V16.5912H62.1991V13.2407C64.4264 16.0508 64.6121 16.5912 67.85 16.5912V14.0598H66.7439ZM63.1933 11.0361H62.2171V7.92817C63.1897 7.92817 65.0574 7.72816 65.0574 9.43777C65.0872 10.3555 64.5337 11.0361 63.1933 11.0361ZM104.781 14.0598C104.517 14.0498 104.259 13.981 104.024 13.858C103.368 13.4996 103.503 13.1466 103.503 10.1084H105.13V8.14809H103.503V5.39679H102.763C101.79 5.39679 100.987 6.20137 100.987 7.17971C100.987 13.0434 100.987 12.9158 100.987 12.9158C100.987 14.6544 102.204 16.6156 105.142 16.6156V14.0607H104.781V14.0598Z" fill="#A9ABB6"/>
<path d="M29.4332 7.92806H26.9066C26.9066 7.04023 26.9048 7.06104 26.9048 7.06104C26.9048 6.14696 27.6457 5.35596 28.6166 5.35596H34.7236V7.88734H32.2799V16.592H31.2144C30.24 16.592 29.4395 15.7874 29.4395 14.809L29.4332 7.92806Z" fill="#70727E"/>
<path d="M42.3744 16.591C41.2044 16.591 39.8775 16.8562 39.8775 15.6941H39.818C38.7345 17.8092 33.1846 17.3323 33.1846 12.3899C33.1846 8.00859 38.127 6.65104 39.818 9.09825H39.8478C39.8478 7.92985 41.189 8.20046 42.3446 8.20046L42.3744 16.591ZM37.8043 10.0793C35.0054 10.0793 35.0505 14.485 37.788 14.5239C40.5572 14.523 40.5968 10.0793 37.8043 10.0793ZM47.1032 10.5427C47.1032 9.04033 43.8518 10.511 46.8958 11.3807C48.3101 11.7726 49.8137 12.1944 49.8137 14.0072C49.8137 17.64 43.4191 17.9567 43.0207 14.0542H45.5005C45.5726 15.1891 47.3114 15.0217 47.3114 14.2198C47.3114 12.8741 43.1235 13.3049 43.1099 10.6911C43.1099 7.26827 49.1917 6.76508 49.5478 10.5608L47.1032 10.5427ZM50.4348 14.3511V16.591H52.956V12.6044C54.4235 14.7746 54.9562 16.6091 58.8088 16.6091V14.3873C57.8281 14.3873 56.6698 14.3176 56.0748 13.3836C55.8612 13.0478 55.3087 12.2532 55.104 11.8921L58.2463 8.19593H55.2879L52.974 11.2206H52.9443V7.13704C52.9443 6.07544 52.0888 5.35594 51.1694 5.39666H50.4357V14.3511H50.4348Z" fill="#70727E"/>
<path d="M23.4862 9.36009C21.2002 5.5508 20.6044 8.42519 18.4563 4.80324C16.9456 2.24833 13.5418 -1.07133 11.5146 0.335088L11.035 0.679906C10.6393 0.556822 10.2589 0.566777 9.93442 0.816567C9.69645 1.0211 9.58468 1.33787 9.63876 1.64829C9.75504 2.17502 10.0101 2.75334 10.9764 3.65023C7.89634 3.0882 4.74683 4.28104 2.80431 6.74544C0.818509 6.74544 0.238004 8.69398 1.25389 9.847C-0.2136 15.3098 3.97072 20.5716 9.43594 20.5716C12.5296 20.5716 15.3861 18.8702 16.8707 16.1451C19.4136 16.289 19.6435 14.2382 17.7703 13.6255C18.0038 12.3802 17.3999 13.5676 20.6107 13.2635C23.2725 13.1006 24.8536 11.5937 23.4862 9.36009Z" fill="#A9ABB6"/>
<path d="M22.977 9.69831C20.8821 6.20488 20.1601 8.72449 17.9237 5.12336C15.2636 0.761094 12.0087 0.150196 12.0087 0.828067C12.0087 0.828067 15.6837 2.80647 17.4441 6.19945C17.4838 6.2628 17.3874 6.32072 17.3495 6.25918C15.8351 4.33417 11.1541 0.685976 10.3492 1.32765C9.68575 1.85528 13.2066 5.21296 16.0767 6.67459C16.3228 6.79496 15.8973 7.45382 14.8102 7.41762C13.295 7.41762 11.8518 5.17223 8.57341 5.12969C6.56058 5.10254 4.63698 5.97319 3.32453 7.50632C3.30109 7.52623 3.26504 7.52623 3.2416 7.50632C1.85343 6.77143 0.647354 8.7444 1.94628 9.61595C1.99676 9.64582 2.01929 9.70826 1.99946 9.76438C-0.0494325 16.191 6.93466 21.2103 12.1006 17.8328C14.62 16.3042 14.2973 14.3176 10.8756 15.6643C10.8684 15.6661 10.8612 15.667 10.854 15.667C10.7828 15.667 10.7431 15.5819 10.7927 15.5276C13.1976 13.018 11.3912 8.83762 7.95685 8.83762C7.95595 8.83762 7.95325 8.83762 7.95235 8.83762C6.34604 8.74169 4.85421 9.70645 4.27731 11.2133C4.2665 11.255 4.22864 11.2848 4.18537 11.2848C4.13309 11.2848 4.09072 11.2414 4.09072 11.1898C4.09072 11.1826 4.09162 11.1735 4.09343 11.1663C4.50267 9.28561 6.13151 7.90453 8.04699 7.81493C11.466 7.60858 13.7682 11.3799 11.9528 14.3511C11.878 14.4588 12.0024 14.5973 12.1186 14.5294C12.8371 14.1275 13.3941 13.4814 13.3941 13.4814C13.4113 13.4814 13.4266 13.4886 13.4383 13.5013C15.5683 15.8426 18.2969 15.8779 18.3681 14.9747C18.451 13.9411 15.8171 14.6126 15.6522 12.046C15.6522 11.9944 15.7107 11.9681 15.7468 11.998C16.0875 12.2786 16.6022 12.0659 16.6527 11.6297C16.6608 11.5853 16.7131 11.5672 16.7474 11.5935C17.8831 12.7048 19.0369 12.7818 20.6117 12.6632C22.858 12.5383 23.9054 11.2966 22.977 9.69831ZM20.9353 9.69831C20.682 9.66392 20.3629 9.46481 20.2908 9.16343C20.2827 9.12814 20.2782 9.09194 20.2782 9.05573C20.2782 8.80504 20.4837 8.59779 20.7334 8.59779C20.7397 8.59779 20.746 8.59869 20.7523 8.59869C21.0741 8.61227 21.3463 8.84667 21.4094 9.16343C21.4184 9.19873 21.4193 9.23493 21.423 9.27204C21.4491 9.53812 21.1787 9.7327 20.9353 9.69831Z" fill="#080F30"/>
</g>
<defs>
<clipPath id="clip0_67_1120">
<rect width="104.381" height="20.5714" fill="white" transform="translate(0.761963)"/>
</clipPath>
</defs>
</svg>
