<svg width="85" height="30" viewBox="0 0 85 30" fill="none" xmlns="http://www.w3.org/2000/svg">
<path d="M76.3227 11.8635C77.3396 11.8635 78.164 11.0391 78.164 10.0222C78.164 9.00528 77.3396 8.18091 76.3227 8.18091C75.3058 8.18091 74.4814 9.00528 74.4814 10.0222C74.4814 11.0391 75.3058 11.8635 76.3227 11.8635Z" fill="#70727E"/>
<path d="M50.025 17.8734C50.9283 17.8734 51.4492 17.196 51.4146 16.5359C51.3974 16.1885 51.3625 15.9625 51.3278 15.7889C50.7719 13.3921 48.8267 11.6201 46.5163 11.6201C43.772 11.6201 41.5486 14.104 41.5486 17.1611C41.5486 20.2181 43.772 22.7021 46.5163 22.7021C48.2361 22.7021 49.4694 22.0769 50.3552 21.0868C50.7894 20.6005 50.7026 19.8536 50.1813 19.4887C49.7472 19.1934 49.2087 19.2976 48.8092 19.6276C48.4272 19.9578 47.6977 20.6177 46.5163 20.6177C45.127 20.6177 43.9458 19.4191 43.6852 17.8384H50.025V17.8734ZM46.4991 13.722C47.7495 13.722 48.8267 14.6946 49.2262 16.0321H43.772C44.1715 14.6774 45.2484 13.722 46.4991 13.722ZM41.6529 12.7144C41.6529 12.1935 41.2708 11.7764 40.7845 11.6897C39.2732 11.464 37.8489 12.0196 37.0327 13.0447V12.9054C37.0327 12.2627 36.5114 11.8635 35.9905 11.8635C35.4171 11.8635 34.9482 12.3324 34.9482 12.9054V21.4167C34.9482 21.9726 35.3649 22.4589 35.9208 22.4936C36.5289 22.5282 37.0327 22.0594 37.0327 21.4514V17.0568C37.0327 15.1116 38.4916 13.5135 40.5064 13.7395H40.7149C41.2359 13.7045 41.6529 13.2528 41.6529 12.7144ZM77.3648 13.8262C77.3648 13.2528 76.896 12.784 76.3229 12.784C75.7495 12.784 75.2807 13.2528 75.2807 13.8262V21.4514C75.2807 22.0248 75.7495 22.4936 76.3229 22.4936C76.896 22.4936 77.3648 22.0248 77.3648 21.4514V13.8262ZM61.8711 8.05955C61.8711 7.48615 61.4023 7.01733 60.8289 7.01733C60.2558 7.01733 59.787 7.48615 59.787 8.05955V12.6972C59.0747 11.985 58.1888 11.6375 57.1291 11.6375C54.3849 11.6375 52.1615 14.1215 52.1615 17.1786C52.1615 20.2356 54.3849 22.7196 57.1291 22.7196C58.1888 22.7196 59.0922 22.3547 59.8041 21.6424C59.8909 22.129 60.3254 22.4936 60.8289 22.4936C61.4023 22.4936 61.8711 22.0248 61.8711 21.4514V8.05955ZM57.1466 20.6523C55.5485 20.6523 54.2631 19.1066 54.2631 17.1786C54.2631 15.268 55.5485 13.7045 57.1466 13.7045C58.7448 13.7045 60.0301 15.2505 60.0301 17.1786C60.0301 19.1066 58.7273 20.6523 57.1466 20.6523ZM72.7446 8.05955C72.7446 7.48615 72.2758 7.01733 71.7024 7.01733C71.1293 7.01733 70.6602 7.48615 70.6602 8.05955V12.6972C69.9482 11.985 69.0624 11.6375 68.0027 11.6375C65.2584 11.6375 63.035 14.1215 63.035 17.1786C63.035 20.2356 65.2584 22.7196 68.0027 22.7196C69.0624 22.7196 69.9654 22.3547 70.6777 21.6424C70.7644 22.129 71.1986 22.4936 71.7024 22.4936C72.2758 22.4936 72.7446 22.0248 72.7446 21.4514V8.05955ZM68.0027 20.6523C66.4045 20.6523 65.1195 19.1066 65.1195 17.1786C65.1195 15.268 66.4045 13.7045 68.0027 13.7045C69.6008 13.7045 70.8862 15.2505 70.8862 17.1786C70.8862 19.1066 69.6008 20.6523 68.0027 20.6523ZM82.6452 21.4689V13.722H83.566C84.0523 13.722 84.4865 13.3571 84.5211 12.8533C84.5561 12.3149 84.1219 11.8635 83.6007 11.8635H82.6452V10.4043C82.6452 9.84839 82.2285 9.36208 81.6726 9.32744C81.0646 9.2928 80.5611 9.76162 80.5611 10.3697V11.8807H79.6924C79.2061 11.8807 78.7719 12.2456 78.7373 12.7494C78.7023 13.2878 79.1368 13.7395 79.6578 13.7395H80.5436V21.4863C80.5436 22.0594 81.0128 22.5282 81.5858 22.5282C82.1939 22.4936 82.6452 22.0419 82.6452 21.4689Z" fill="#A9ABB6"/>
<path d="M14.5558 29.1115C22.5947 29.1115 29.1115 22.5947 29.1115 14.5558C29.1115 6.51684 22.5947 0 14.5558 0C6.51684 0 0 6.51684 0 14.5558C0 22.5947 6.51684 29.1115 14.5558 29.1115Z" fill="#70727E"/>
<path d="M24.2653 14.5557C24.2653 13.3746 23.3102 12.4366 22.1463 12.4366C21.5732 12.4366 21.0519 12.6623 20.6699 13.0272C19.211 11.9849 17.2133 11.3076 14.99 11.2208L15.9626 6.66992L19.1239 7.34725C19.1588 8.14632 19.8187 8.789 20.6352 8.789C21.4689 8.789 22.1463 8.11167 22.1463 7.27764C22.1463 6.44393 21.4689 5.7666 20.6352 5.7666C20.0447 5.7666 19.5234 6.11401 19.2802 6.6178L15.7544 5.87086C15.6501 5.85337 15.5459 5.87086 15.4763 5.92298C15.3895 5.97511 15.3374 6.06188 15.3202 6.16613L14.243 11.238C11.985 11.3076 9.95273 11.9849 8.47634 13.0446C8.07871 12.6649 7.54979 12.4533 6.99994 12.4541C5.81882 12.4541 4.88086 13.4092 4.88086 14.5732C4.88086 15.4415 5.40181 16.171 6.13159 16.5012C6.09662 16.7094 6.07946 16.9179 6.07946 17.1439C6.07946 20.4091 9.88344 23.067 14.5733 23.067C19.2631 23.067 23.0671 20.4266 23.0671 17.1439C23.0671 16.9354 23.0496 16.7094 23.0149 16.5012C23.7444 16.171 24.2653 15.424 24.2653 14.5557ZM9.70958 16.0667C9.70958 15.233 10.3869 14.5557 11.2209 14.5557C12.0547 14.5557 12.732 15.233 12.732 16.0667C12.732 16.9004 12.0547 17.5781 11.2209 17.5781C10.3869 17.5953 9.70958 16.9004 9.70958 16.0667ZM18.1687 20.0792C17.1265 21.1214 15.1463 21.1911 14.5733 21.1911C13.9827 21.1911 12.0025 21.104 10.9775 20.0792C10.8214 19.9228 10.8214 19.6797 10.9775 19.5233C11.1338 19.3672 11.377 19.3672 11.5334 19.5233C12.1936 20.1835 13.5832 20.4091 14.5733 20.4091C15.5634 20.4091 16.9701 20.1835 17.6128 19.5233C17.7692 19.3672 18.0124 19.3672 18.1687 19.5233C18.3076 19.6797 18.3076 19.9228 18.1687 20.0792ZM17.8906 17.5953C17.0569 17.5953 16.3796 16.9179 16.3796 16.0842C16.3796 15.2505 17.0569 14.5732 17.8906 14.5732C18.7247 14.5732 19.402 15.2505 19.402 16.0842C19.402 16.9004 18.7247 17.5953 17.8906 17.5953Z" fill="white"/>
</svg>
