<svg width="57" height="56" viewBox="0 0 57 56" fill="none" xmlns="http://www.w3.org/2000/svg">
<rect x="0.5" width="56" height="56" rx="4" fill="#DDEFDD"/>
<g clip-path="url(#clip0_75_290)">
<path d="M44.292 17.9434L36.0211 9.66804C35.5934 9.24038 35.0133 9.00008 34.4085 9H18.36C17.7553 9 17.1754 9.24021 16.7478 9.6678C16.3202 10.0954 16.08 10.6753 16.08 11.28V13.56H13.8C13.1955 13.5606 12.616 13.8011 12.1885 14.2285C11.7611 14.656 11.5207 15.2355 11.52 15.84V44.72C11.5207 45.3245 11.7611 45.904 12.1885 46.3315C12.616 46.7589 13.1955 46.9994 13.8 47H38.12C38.7245 46.9994 39.3041 46.7589 39.7315 46.3315C40.159 45.904 40.3994 45.3245 40.4 44.72V42.44H42.68C43.2847 42.44 43.8646 42.1998 44.2922 41.7722C44.7198 41.3446 44.96 40.7647 44.96 40.16V19.5569C44.9601 19.2572 44.9011 18.9605 44.7865 18.6837C44.6719 18.4068 44.5038 18.1553 44.292 17.9434ZM42.3196 18.12H36.5941C36.3931 18.1198 36.2004 18.04 36.058 17.8982C35.9156 17.7564 35.8351 17.564 35.8341 17.363L35.8057 11.6022L42.3196 18.12ZM38.88 44.72C38.88 44.9216 38.7999 45.1149 38.6574 45.2574C38.5149 45.3999 38.3216 45.48 38.12 45.48H13.8C13.5985 45.48 13.4051 45.3999 13.2626 45.2574C13.1201 45.1149 13.04 44.9216 13.04 44.72V15.84C13.04 15.6384 13.1201 15.4451 13.2626 15.3026C13.4051 15.1601 13.5985 15.08 13.8 15.08H16.08V40.16C16.08 40.7647 16.3202 41.3446 16.7478 41.7722C17.1754 42.1998 17.7553 42.44 18.36 42.44H38.88V44.72ZM43.44 40.16C43.44 40.3616 43.3599 40.5549 43.2174 40.6974C43.0749 40.8399 42.8816 40.92 42.68 40.92H18.36C18.1585 40.92 17.9651 40.8399 17.8226 40.6974C17.6801 40.5549 17.6 40.3616 17.6 40.16V11.28C17.6 11.0784 17.6801 10.8851 17.8226 10.7426C17.9651 10.6001 18.1585 10.52 18.36 10.52H34.2814L34.3141 17.369C34.3175 17.9718 34.5591 18.5488 34.9862 18.9742C35.4133 19.3997 35.9913 19.639 36.5941 19.64H43.44V40.16Z" fill="#A2CB94"/>
<path d="M28.9536 31.532L24.9265 28.1759C24.8498 28.1119 24.7612 28.0637 24.6659 28.034C24.5705 28.0043 24.4703 27.9937 24.3708 28.0027C24.2714 28.0117 24.1747 28.0403 24.0863 28.0867C23.9978 28.1331 23.9194 28.1964 23.8555 28.2732C23.7916 28.3499 23.7434 28.4384 23.7136 28.5338C23.6839 28.6291 23.6733 28.7293 23.6823 28.8288C23.6914 28.9283 23.7199 29.0249 23.7663 29.1134C23.8127 29.2018 23.8761 29.2802 23.9528 29.3441L28.5128 33.1442C28.6585 33.2656 28.8444 33.3281 29.0339 33.3194C29.2235 33.3108 29.4029 33.2316 29.5369 33.0973L37.1369 25.4973C37.2754 25.354 37.352 25.162 37.3503 24.9627C37.3485 24.7635 37.2686 24.5729 37.1277 24.432C36.9868 24.291 36.7962 24.2111 36.5969 24.2094C36.3976 24.2076 36.2056 24.2843 36.0623 24.4227L28.9536 31.532Z" fill="#A2CB94"/>
</g>
<defs>
<clipPath id="clip0_75_290">
<rect width="38" height="38" fill="white" transform="translate(10 9)"/>
</clipPath>
</defs>
</svg>
