<svg width="56" height="56" viewBox="0 0 56 56" fill="none" xmlns="http://www.w3.org/2000/svg">
<rect width="56" height="56" rx="4" fill="#DDEFDD"/>
<path d="M46.9988 45.5339C46.4856 45.5339 45.9468 45.3286 45.5877 44.9181L42.1497 41.121C41.8161 40.7618 41.6622 40.2999 41.6878 39.8125C41.7135 39.4789 41.8418 39.171 42.0214 38.9145L40.1741 37.1442C38.5577 38.5296 36.4282 39.3763 34.0935 39.3763C33.683 39.3763 33.2981 39.3506 32.9133 39.2993V41.5828H35.6585C36.7361 41.5828 37.6084 42.4294 37.6084 43.4557C37.6084 44.482 36.7361 45.3287 35.6585 45.3287H19.7514C18.6738 45.3287 17.8015 44.482 17.8015 43.4557C17.8015 42.4294 18.6738 41.5828 19.7514 41.5828H32.0409V39.6329H23.2663V41.4801H22.3684V39.6329H9.6683C8.20586 39.6329 7 38.4783 7 37.0672V13.5657C7 12.1546 8.20586 11 9.6683 11H46.3317C47.7941 11 49 12.1546 49 13.5657V35.9383C49 36.785 48.6408 37.606 47.9994 38.1961L47.8711 38.3244L44.4588 38.35C44.6384 38.4527 44.818 38.5809 44.9719 38.7605L48.4099 42.5577C48.7434 42.9169 48.8974 43.3787 48.8717 43.8662C48.8461 44.3537 48.5895 44.7899 48.2046 45.0977C47.8454 45.38 47.4349 45.5339 46.9988 45.5339ZM43.5608 39.0428C43.3299 39.0428 43.099 39.1197 42.9194 39.2737C42.7141 39.4276 42.6115 39.6585 42.5858 39.8894C42.5602 40.1203 42.6371 40.3513 42.8167 40.5308L46.2547 44.328C46.6139 44.7129 47.2297 44.7642 47.6402 44.4307C47.8454 44.2767 47.9481 44.0458 47.9737 43.8149C47.9994 43.584 47.9224 43.3531 47.7428 43.1735L44.3048 39.3763C44.1252 39.1454 43.843 39.0428 43.5608 39.0428ZM19.7514 42.4808C19.1869 42.4808 18.6994 42.9169 18.6994 43.4557C18.6994 43.9945 19.1613 44.4307 19.7514 44.4307H35.6842C36.2486 44.4307 36.7361 43.9945 36.7361 43.4557C36.7361 42.9169 36.2743 42.4808 35.6842 42.4808H19.7514ZM23.2663 38.7349H30.7581C28.5773 37.9139 26.8326 36.2975 25.8833 34.2706V34.7068L10.2584 34.7581C9.79658 34.7581 9.43739 34.3989 9.43739 33.9627V14.1045C9.43739 13.6683 9.79658 13.3091 10.2584 13.3091H45.2285C45.6903 13.3091 46.0495 13.6683 46.0495 14.1045V33.9627H45.1515V17.1833H10.3097V33.8858L25.6524 33.8345C25.2676 32.8852 25.0623 31.8332 25.0623 30.7556C25.0623 29.3702 25.3958 28.0874 26.0116 26.9328L23.2663 29.011C22.7532 29.3958 22.0861 29.4215 21.5473 29.0623L18.6481 27.1637C18.4429 27.0354 18.1607 27.0354 17.9554 27.1894L12.8497 31.1918L12.2853 30.4734L17.391 26.471C17.9041 26.0861 18.5968 26.0348 19.1356 26.394L22.0092 28.2926C22.2144 28.4209 22.4966 28.4209 22.7019 28.267L28.372 23.9823L28.3977 24.0336C29.9627 22.8277 31.9383 22.1093 34.0935 22.1093C34.6323 22.1093 35.1454 22.1607 35.6585 22.2376L35.6329 22.1863L40.405 18.7996L37.865 19.1588L37.7367 18.2608L41.0208 17.8247C41.3287 17.7734 41.6365 17.9016 41.8674 18.1069C42.0727 18.3378 42.1497 18.62 42.0984 18.9279L41.5082 21.9041L40.6359 21.7245L41.0721 19.4154L36.7618 22.4685C40.482 23.5718 43.1759 26.8558 43.1759 30.73C43.1759 32.9621 42.3036 34.989 40.8412 36.5027L41.8674 37.4777L47.5376 37.4264C47.9224 37.0159 48.1277 36.4771 48.1277 35.9383V13.5657C48.1277 12.642 47.3323 11.898 46.3574 11.898H9.6683C8.69334 11.898 7.89798 12.642 7.89798 13.5657V37.0672C7.89798 37.9908 8.69334 38.7349 9.6683 38.7349H22.3684V38.6323H23.2663V38.7349ZM34.1191 23.0073C29.6292 23.0073 25.9603 26.471 25.9603 30.7556C25.9603 35.0403 29.6292 38.504 34.1191 38.504C38.609 38.504 42.2779 35.0403 42.2779 30.7556C42.2779 26.471 38.609 23.0073 34.1191 23.0073ZM10.3097 16.2853H45.1258V14.2071H10.3097V16.2853ZM33.9908 36.9389C30.4759 36.9389 27.6023 34.1936 27.6023 30.8326C27.6023 27.4716 30.4759 24.7263 33.9908 24.7263C37.5058 24.7263 40.3794 27.4716 40.3794 30.8326C40.3794 34.1936 37.5315 36.9389 33.9908 36.9389ZM33.9908 25.6243C30.9633 25.6243 28.5003 27.9591 28.5003 30.8326C28.5003 33.7062 30.9633 36.0409 33.9908 36.0409C37.0183 36.0409 39.4814 33.7062 39.4814 30.8326C39.4814 27.9591 37.0183 25.6243 33.9908 25.6243Z" fill="#A2CB94"/>
<path d="M35.4794 33.4239C35.6846 33.2186 35.7872 32.9621 35.7872 32.6542C35.7872 32.3463 35.6846 32.0897 35.4794 31.9358C35.3511 31.8332 35.1971 31.7305 34.9919 31.6536C34.8123 31.5766 34.607 31.7049 34.607 31.8845V33.4495C34.607 33.6291 34.7866 33.7574 34.9662 33.7061C35.1971 33.6548 35.3511 33.5522 35.4794 33.4239ZM33.2216 30.2168C33.3499 30.3194 33.5038 30.422 33.7091 30.499C33.8887 30.576 34.0939 30.4477 34.0939 30.2681V28.7287C34.0939 28.5491 33.9143 28.4208 33.7604 28.4721C33.5551 28.5235 33.4012 28.6261 33.2729 28.7287C33.0676 28.9083 32.965 29.1649 32.965 29.4984C32.9394 29.8063 33.042 30.0372 33.2216 30.2168ZM36.4543 33.5009C36.3004 33.7831 36.0438 34.014 35.7359 34.1936C35.4794 34.3475 35.1971 34.4501 34.8379 34.4758C34.7097 34.5015 34.607 34.6041 34.607 34.7324V35.0146C34.607 35.1685 34.4788 35.2712 34.3248 35.2712C34.1709 35.2712 34.0426 35.1429 34.0426 35.0146V34.7324C34.0426 34.6041 33.94 34.5015 33.8117 34.4758C33.2985 34.3988 32.888 34.2192 32.5545 33.937C32.2466 33.6804 32.067 33.3726 31.9901 33.0134C31.9644 32.8594 32.0927 32.7055 32.2466 32.7055H32.6828C32.8111 32.7055 32.9137 32.7825 32.965 32.9107C33.0163 33.0903 33.119 33.2699 33.2472 33.4239C33.3499 33.5265 33.4781 33.6291 33.6321 33.7061C33.8117 33.7831 34.0169 33.6548 34.0169 33.4752V31.6279C34.0169 31.4996 33.94 31.397 33.8117 31.3713C33.4525 31.2687 33.1446 31.1918 32.9137 31.0891C32.6315 30.9865 32.4006 30.8069 32.1953 30.5503C31.9901 30.3194 31.9131 29.9859 31.9131 29.5754C31.9131 29.0622 32.0927 28.6261 32.4775 28.2925C32.8111 27.9847 33.2472 27.8051 33.7604 27.7538C33.8887 27.7281 33.9913 27.6255 33.9913 27.4972V27.1893C33.9913 27.0354 34.1196 26.9327 34.2735 26.9327C34.4274 26.9327 34.5557 27.061 34.5557 27.1893V27.4972C34.5557 27.6255 34.6584 27.7281 34.7866 27.7538C35.2485 27.8307 35.6333 27.9847 35.9412 28.2412C36.1978 28.4721 36.403 28.7544 36.48 29.1136C36.5313 29.2675 36.403 29.4471 36.2234 29.4471H35.7872C35.659 29.4471 35.5563 29.3701 35.5307 29.2675C35.4794 29.1136 35.3767 28.9853 35.2741 28.857C35.1971 28.78 35.0945 28.7031 34.9919 28.6517C34.8123 28.5491 34.5814 28.6774 34.5814 28.8826V30.653C34.5814 30.7812 34.6584 30.8839 34.7866 30.9095C35.1458 31.0122 35.4281 31.0891 35.659 31.1917C35.9412 31.2944 36.1721 31.474 36.3774 31.7305C36.5569 31.9615 36.6596 32.295 36.6596 32.7312C36.7109 32.9364 36.6339 33.2186 36.4543 33.5009Z" fill="#A2CB94"/>
</svg>
