<svg width="56" height="56" viewBox="0 0 56 56" fill="none" xmlns="http://www.w3.org/2000/svg">
<rect width="56" height="56" rx="4" fill="#DDEFDD"/>
<path d="M46.125 26.125H44.7663C43.9012 18.36 37.6406 12.0987 29.875 11.2331V9.875C29.875 9.53 29.5956 9.25 29.25 9.25H26.75C26.4044 9.25 26.125 9.53 26.125 9.875V11.2331C18.3594 12.0987 12.0987 18.36 11.2337 26.125H9.875C9.52938 26.125 9.25 26.405 9.25 26.75V29.25C9.25 29.595 9.52938 29.875 9.875 29.875H11.2337C12.0987 37.64 18.3594 43.9012 26.125 44.7669V46.125C26.125 46.47 26.4044 46.75 26.75 46.75H29.25C29.5956 46.75 29.875 46.47 29.875 46.125V44.7669C37.6406 43.9012 43.9012 37.64 44.7663 29.875H46.125C46.4706 29.875 46.75 29.595 46.75 29.25V26.75C46.75 26.405 46.4706 26.125 46.125 26.125ZM43.4919 26.125H42.2369C41.3956 19.6744 36.3256 14.6044 29.875 13.7638V12.5081C36.9506 13.3644 42.6362 19.0494 43.4919 26.125ZM26.125 40.9894C20.3631 40.1675 15.8319 35.6362 15.0113 29.875H18.8144C19.5612 33.5431 22.4569 36.4388 26.125 37.1863V40.9894ZM27.375 27.375H24.9381C25.1875 26.1525 26.1525 25.1875 27.375 24.9381V27.375ZM27.375 28.625V31.0619C26.1525 30.8125 25.1875 29.8475 24.9381 28.625H27.375ZM28.625 28.625H31.0619C30.8125 29.8475 29.8475 30.8125 28.625 31.0619V28.625ZM28.625 27.375V24.9381C29.8475 25.1875 30.8125 26.1525 31.0619 27.375H28.625ZM27.375 19.9069V23.675C25.4631 23.9506 23.9506 25.4631 23.675 27.375H19.9069C20.2119 23.3938 23.3938 20.2119 27.375 19.9069ZM23.675 28.625C23.9506 30.5369 25.4631 32.0494 27.375 32.325V36.0931C23.3938 35.7881 20.2119 32.6063 19.9069 28.625H23.675ZM28.625 36.0931V32.325C30.5369 32.0494 32.0494 30.5369 32.325 28.625H36.0931C35.7881 32.6063 32.6063 35.7881 28.625 36.0931ZM32.325 27.375C32.0494 25.4631 30.5369 23.9506 28.625 23.675V19.9069C32.6063 20.2119 35.7881 23.3938 36.0931 27.375H32.325ZM26.125 18.8138C22.4569 19.5612 19.5612 22.4569 18.8138 26.125H15.0106C15.8319 20.3637 20.3631 15.8325 26.125 15.0106V18.8138ZM29.875 37.1863C33.5431 36.4388 36.4388 33.5431 37.1863 29.875H40.9894C40.1681 35.6362 35.6369 40.1675 29.875 40.9894V37.1863ZM29.875 18.8138V15.0106C35.6369 15.8325 40.1681 20.3637 40.9888 26.125H37.1856C36.4387 22.4569 33.5431 19.5612 29.875 18.8138ZM27.375 10.5H28.625V11.8025V14.3094V18.625H27.375V14.3094V11.8025V10.5ZM26.125 12.5081V13.7631C19.6744 14.6044 14.6044 19.6744 13.7638 26.125H12.5081C13.3637 19.0494 19.0494 13.3644 26.125 12.5081ZM10.5 28.625V27.375H11.8025H14.3094H18.625V28.625H14.3094H11.8025H10.5ZM12.5081 29.875H13.7631C14.6044 36.3256 19.6744 41.3956 26.125 42.2363V43.4912C19.0494 42.6356 13.3637 36.9506 12.5081 29.875ZM28.625 45.5H27.375V44.1975V41.6906V37.375H28.625V41.6906V44.1975V45.5ZM29.875 43.4919V42.2369C36.3256 41.3956 41.3956 36.3256 42.2363 29.875H43.4912C42.6362 36.9506 36.9506 42.6356 29.875 43.4919ZM45.5 28.625H44.1975H41.6906H37.375V27.375H41.6906H44.1975H45.5V28.625Z" fill="#A2CB94"/>
</svg>
