<svg width="99" height="41" viewBox="0 0 99 41" fill="none" xmlns="http://www.w3.org/2000/svg">
<path d="M29.2114 31.1218C27.5333 33.3524 25.3615 35.6801 22.4987 37.4258C19.7347 39.1715 16.5757 40.5293 12.8245 40.5293C9.36946 40.5293 6.50669 38.7836 4.92723 37.3288C2.55804 35.0982 1.27472 31.8977 0.879859 28.8911C-0.20602 19.5806 5.61824 7.36053 14.6014 1.92938C16.6745 0.668578 18.9449 0.0866699 21.1167 0.0866699C25.4602 0.0866699 28.7178 3.0932 29.1127 6.77862C29.5076 10.0761 28.2243 12.8887 24.473 14.7314C22.5974 15.7012 21.6103 15.6042 21.3141 15.2163C21.1167 14.9253 21.2154 14.4404 21.6103 14.1495C25.0653 11.3369 25.1641 9.00927 24.7692 5.71179C24.473 3.57812 23.091 2.22033 21.5116 2.22033C14.7001 2.22033 4.82851 17.253 6.21054 28.1153C6.70412 32.3826 9.36946 37.3288 14.8976 37.3288C16.6745 37.3288 18.6488 36.8439 20.327 35.971C24.1769 34.0313 25.8551 32.6735 28.1255 29.57C28.4217 29.1821 28.7178 28.6972 29.014 28.3092C29.2114 27.9213 29.6063 27.8243 29.9024 27.8243C30.1986 27.8243 30.5935 28.1153 30.5935 28.6002C30.5935 28.8911 30.4947 29.473 30.0999 29.958C29.9024 30.1519 29.5076 30.7338 29.2114 31.1218Z" fill="white"/>
<path d="M39.5793 36.65C37.9011 36.65 36.914 35.7771 36.5191 34.4194C35.4332 35.8741 33.8538 36.65 32.2743 36.65C29.609 36.65 27.1411 34.4194 26.7462 31.5098C26.1539 26.3696 30.5961 19.7747 37.3088 19.7747C40.1716 19.7747 42.5408 20.9385 42.8369 23.1691C43.2318 25.9817 40.7639 26.5636 39.8755 26.5636C39.0857 26.5636 37.8024 26.3696 37.7037 25.5937C37.605 24.8179 39.3819 25.3028 39.1844 23.4601C39.0857 22.2963 37.9011 21.9083 36.7165 21.9083C32.5705 21.9083 30.3 27.5334 30.7936 31.0249C30.991 32.5766 31.7807 34.1284 33.2615 34.1284C34.4461 34.1284 36.223 32.4797 36.8153 29.9581C37.2101 28.3093 38.8883 27.1455 40.0729 27.1455C40.6652 27.1455 41.1588 27.4365 41.2575 28.0184C41.2575 28.2123 41.2575 28.5033 41.1588 28.8912C41.0601 29.6671 40.4678 31.9947 40.4678 32.5766C40.4678 33.0616 40.7639 33.6435 41.5536 33.6435C42.4421 33.6435 46.4895 31.3158 48.7599 28.2123C48.9574 27.9214 49.3522 27.7274 49.6484 27.7274C49.9445 27.7274 50.3394 27.9214 50.3394 28.3093C50.4381 28.6973 50.2407 29.1822 49.7471 29.8611C47.1805 33.5465 41.5536 36.65 39.5793 36.65Z" fill="white"/>
<path d="M96.1425 34.7102C96.3399 36.3589 97.1297 37.4258 97.8207 38.0077C98.1168 38.2016 98.2155 38.4926 98.2155 38.6866C98.3143 39.1715 97.9194 39.5594 97.3271 39.5594C97.1297 39.5594 96.9322 39.5594 96.7348 39.4624C93.7733 38.2986 92.5887 36.3589 92.1938 34.5162C91.108 35.874 89.5285 36.7469 88.0478 36.7469C85.3824 36.7469 82.9145 34.5162 82.5196 31.6067C81.9273 26.5635 86.567 19.9685 93.181 19.9685C95.9451 19.9685 98.413 21.0353 98.7091 23.266C99.104 26.0785 96.5374 26.6605 95.7476 26.6605C94.8592 26.6605 93.5759 26.4665 93.4772 25.6906C93.3784 25.0117 95.254 25.3996 95.0566 23.6539C94.9579 22.4901 93.6746 22.1022 92.5887 22.1022C88.7388 22.1022 86.1721 27.0484 86.6657 31.1217C86.8632 32.7705 87.6529 34.3222 89.1336 34.3222C90.3182 34.3222 92.0951 32.6735 92.7861 30.1519C93.181 28.5032 94.8592 27.3393 96.0438 27.3393C96.6361 27.3393 97.1297 27.6303 97.2284 28.3092C97.2284 28.6001 97.1297 29.376 96.5374 31.9946C96.0438 32.9645 96.0438 33.9343 96.1425 34.7102Z" fill="white"/>
<path d="M60.6054 33.7403C61.4938 33.7403 64.4553 32.6735 66.8245 29.473C67.1206 29.1821 67.4168 28.9881 67.7129 28.9881C68.1078 28.9881 68.4039 29.1821 68.5027 29.57C68.5027 29.861 68.3052 30.4429 67.8116 31.1218C65.1463 34.8072 60.6054 36.6499 58.631 36.6499C56.558 36.6499 55.4721 35.3891 55.2747 33.5464C55.176 32.9645 55.176 32.1886 55.3734 31.4127C56.0644 27.2424 57.6439 24.7208 57.5452 23.9449C57.5452 23.7509 57.3477 23.6539 57.249 23.6539C55.9657 23.6539 51.326 28.3092 50.635 31.4127L50.0427 33.8373C49.6479 35.583 47.9697 36.6499 46.7851 36.6499C46.1928 36.6499 45.7979 36.3589 45.6992 35.777C45.6992 35.583 45.6992 35.2921 45.7979 34.9042C45.7979 34.9042 48.0684 23.46 48.1671 22.878C48.4633 21.5203 48.9569 20.1625 51.7209 20.1625C52.3132 20.1625 52.7081 20.4534 52.8068 21.1323C52.8068 21.3263 52.8068 21.6172 52.7081 22.0052L51.9183 25.4966C54.3862 22.2961 58.1375 19.9685 60.5066 19.9685C61.4938 19.9685 62.1848 20.4534 62.3823 21.5203C62.481 22.1022 62.2835 23.072 61.8887 24.1388C61.0989 26.3695 60.2105 29.57 59.5195 32.3826C59.3221 32.7705 59.5195 33.7403 60.6054 33.7403Z" fill="white"/>
<path d="M76.2014 20.3565C76.2014 21.9083 76.9911 23.557 77.9783 24.6238C78.3731 23.557 78.5706 22.4902 78.5706 21.4233C78.5706 19.3867 77.7808 18.5138 77.1885 18.5138C76.4975 18.5138 76.2014 19.4836 76.2014 20.3565ZM79.7552 28.6972C79.459 28.6972 79.1629 28.6972 78.768 28.6002C76.2014 32.2856 73.536 34.8072 71.463 35.8741C70.5745 36.359 69.7848 36.553 69.1925 36.553C68.6989 36.553 68.2053 36.456 68.0079 36.068C67.1195 34.5163 66.7246 31.5097 66.7246 28.3093C66.7246 25.9816 66.922 24.0419 67.3169 22.6841C67.8105 21.2294 69.6861 19.8716 70.8707 19.8716C71.463 19.8716 71.9566 20.1625 71.9566 20.8414C71.9566 21.0354 71.8579 21.3264 71.7591 21.6173C70.8707 24.0419 70.4758 26.3696 70.4758 28.6972C70.4758 29.958 70.772 32.0917 71.0681 33.1585C71.1668 33.3525 71.1668 33.6434 71.3643 33.6434C71.7591 33.6434 74.4245 31.0248 76.3988 27.9213C74.7206 26.8545 73.7335 24.9148 73.7335 22.4902C73.7335 18.4168 76.2014 16.3801 78.5706 16.3801C80.4462 16.3801 82.1243 17.7379 82.1243 20.4535C82.1243 22.1022 81.4333 24.0419 80.4462 25.8846C80.4462 25.8846 80.841 25.9816 81.0385 25.9816C82.5192 25.9816 83.7038 25.3027 84.2961 24.6238C84.7897 24.1389 85.1845 23.751 85.5794 23.751C85.8756 23.751 85.9743 23.9449 85.9743 24.2359C85.9743 24.4299 85.8756 24.7208 85.7768 25.0118C84.3948 27.2424 81.8282 28.6972 79.7552 28.6972Z" fill="white"/>
</svg>
