<svg width="276" height="224" viewBox="0 0 276 224" fill="none" xmlns="http://www.w3.org/2000/svg">
<rect opacity="0.8" width="12.9492" height="12.9492" rx="2" fill="#A2CB94"/>
<rect x="273.223" y="224" width="1.86877" height="1.97635" transform="rotate(-90 273.223 224)" fill="#A2CB94"/>
<path fill-rule="evenodd" clip-rule="evenodd" d="M98.0291 224V222.131H96.0527V224H98.0291ZM106.092 222.131V224H104.116V222.131H106.092ZM114.146 224V222.131H112.17V224H114.146ZM122.2 222.131V224H120.224V222.131H122.2ZM130.253 224V222.131H128.277V224H130.253ZM138.307 222.131V224H136.331V222.131H138.307ZM146.361 224V222.131H144.385V224H146.361ZM154.415 222.131V224H152.438V222.131H154.415ZM162.468 224V222.131H160.492V224H162.468ZM170.522 222.131V224H168.546V222.131H170.522ZM178.586 224V222.131H176.609V224H178.586ZM186.639 222.131V224H184.663V222.131H186.639ZM194.693 224V222.131H192.716V224H194.693ZM202.746 222.131V224H200.77V222.131H202.746ZM210.8 224V222.131H208.824V224H210.8ZM218.854 222.131V224H216.877V222.131H218.854ZM226.908 224V222.131H224.931V224H226.908ZM234.961 222.131V224H232.985V222.131H234.961ZM243.015 224V222.131H241.038V224H243.015ZM251.068 222.131V224H249.092V222.131H251.068ZM259.132 224V222.131H257.155V224H259.132ZM267.185 224V222.131H265.209V224H267.185Z" fill="#A2CB94"/>
<path fill-rule="evenodd" clip-rule="evenodd" d="M90.2566 214.516V216.385H88.2803V214.516H90.2566ZM90.2566 208.77V206.901H88.2803V208.77H90.2566ZM90.2566 199.285V201.154H88.2803V199.285H90.2566ZM90.2566 193.539V191.67H88.2803V193.539H90.2566ZM90.2566 184.055V185.924H88.2803V184.055H90.2566ZM90.2566 178.309V176.44H88.2803V178.309H90.2566ZM90.2566 168.825V170.693H88.2803V168.825H90.2566ZM90.2566 163.069V161.2H88.2803V163.069H90.2566ZM90.2566 153.585V155.454H88.2803V153.585H90.2566ZM90.2566 147.838V145.97H88.2803V147.838H90.2566ZM90.2566 138.355V140.223H88.2803V138.355H90.2566ZM90.2566 132.608V130.739H88.2803V132.608H90.2566ZM90.2566 123.124V124.993H88.2803V123.124H90.2566ZM90.2566 117.378V115.509H88.2803V117.378H90.2566ZM90.2566 107.894V109.762H88.2803V107.894H90.2566ZM90.2566 102.147V100.278H88.2803V102.147H90.2566ZM90.2566 92.6631V94.5319H88.2803V92.6631H90.2566ZM90.2566 86.9073V85.0385H88.2803V86.9073H90.2566ZM90.2566 77.4232V79.292H88.2803V77.4232H90.2566ZM90.2566 71.677V69.8082H88.2803V71.677H90.2566ZM90.2566 64.0615V62.1928H88.2803V64.0615H90.2566ZM90.2567 224V222.131H88.2804V224H90.2567Z" fill="#A2CB94"/>
<rect x="88" y="48.8687" width="1.86877" height="1.97635" transform="rotate(-90 88 48.8687)" fill="#A2CB94"/>
</svg>
