<svg width="275" height="158" viewBox="0 0 275 158" fill="none" xmlns="http://www.w3.org/2000/svg">
<rect x="146.635" y="145" width="1.53091" height="1.56461" transform="rotate(-90 146.635 145)" fill="#A2CB94"/>
<path fill-rule="evenodd" clip-rule="evenodd" d="M7.93961 145V143.469H6.375V145H7.93961ZM14.3232 143.469V145H12.7585V143.469H14.3232ZM20.6992 145V143.469H19.1346V145H20.6992ZM27.0749 143.469V145H25.5102V143.469H27.0749ZM33.4505 145V143.469H31.8859V145H33.4505ZM39.8262 143.469V145H38.2615V143.469H39.8262ZM46.2026 145V143.469H44.638V145H46.2026ZM52.578 143.469V145H51.0134V143.469H52.578ZM58.9537 145V143.469H57.3891V145H58.9537ZM65.3297 143.469V145H63.7651V143.469H65.3297ZM71.7133 145V143.469H70.1487V145H71.7133ZM78.089 143.469V145H76.5244V143.469H78.089ZM84.4648 145V143.469H82.9002V145H84.4648ZM90.8405 143.469V145H89.2759V143.469H90.8405ZM97.2165 145V143.469H95.6519V145H97.2165ZM103.592 143.469V145H102.028V143.469H103.592ZM109.968 145V143.469H108.404V145H109.968ZM116.344 143.469V145H114.779V143.469H116.344ZM122.72 145V143.469H121.155V145L122.72 145ZM129.095 143.469V145H127.531V143.469H129.095ZM135.479 145V143.469H133.914V145H135.479ZM141.855 145V143.469H140.29V145H141.855Z" fill="#A2CB94"/>
<path fill-rule="evenodd" clip-rule="evenodd" d="M1.78629 137.231L1.78629 138.762H0.22168L0.22168 137.231H1.78629ZM1.78629 132.523L1.78629 130.992H0.22168L0.22168 132.523H1.78629ZM1.78629 124.754L1.78629 126.285H0.22168L0.22168 124.754H1.78629ZM1.78629 120.046L1.78629 118.515H0.22168L0.22168 120.046H1.78629ZM1.78629 112.277L1.78629 113.808H0.22168L0.22168 112.277H1.78629ZM1.78629 107.569V106.038H0.22168L0.22168 107.569H1.78629ZM1.78629 99.7999L1.78629 101.331H0.22168L0.22168 99.7999H1.78629ZM1.78629 95.0848V93.5539H0.22168L0.22168 95.0848H1.78629ZM1.78629 87.3154L1.78629 88.8463H0.22168L0.22168 87.3154H1.78629ZM1.78629 82.6078L1.78629 81.0769H0.22168L0.22168 82.6078H1.78629ZM1.78629 74.8387L1.78629 76.3696H0.22168L0.22168 74.8387H1.78629ZM1.78629 70.1309L1.78629 68.6H0.22168L0.22168 70.1309H1.78629ZM1.78629 62.3615L1.78629 63.8924H0.22168L0.22168 62.3615H1.78629ZM1.78629 57.654L1.78629 56.123H0.22168L0.22168 57.654H1.78629ZM1.78629 49.8848V51.4157H0.22168L0.22168 49.8848H1.78629ZM1.78629 45.177L1.78629 43.6461H0.22168L0.22168 45.177H1.78629ZM1.78629 37.4078L1.78629 38.9388H0.22168L0.22168 37.4078H1.78629ZM1.78629 32.6925L1.78629 31.1616H0.22168L0.22168 32.6925H1.78629ZM1.78629 24.9231L1.78629 26.454H0.22168L0.22168 24.9231H1.78629ZM1.78629 20.2157L1.78629 18.6848H0.22168L0.22168 20.2157H1.78629ZM1.78629 13.9771L1.78629 12.4462H0.22168L0.22168 13.9771H1.78629ZM1.78638 145L1.78638 143.469H0.221772L0.221772 145H1.78638Z" fill="#A2CB94"/>
<rect y="1.53088" width="1.53091" height="1.56461" transform="rotate(-90 0 1.53088)" fill="#A2CB94"/>
<rect opacity="0.8" x="262" y="145" width="12.9492" height="12.9492" rx="2" fill="#A2CB94"/>
</svg>
