<svg width="171" height="317" viewBox="0 0 171 317" fill="none" xmlns="http://www.w3.org/2000/svg">
<rect opacity="0.3" x="156" y="304" width="12.9492" height="12.9492" rx="2" fill="#A2CB94"/>
<rect x="1.44531" width="1.92763" height="1.44636" transform="rotate(90 1.44531 0)" fill="#A2CB94"/>
<path fill-rule="evenodd" clip-rule="evenodd" d="M146.239 0V1.92763H147.686V0L146.239 0ZM140.338 1.92763V0L141.785 0V1.92763H140.338ZM134.444 0V1.92763H135.89V0L134.444 0ZM128.55 1.92763V0L129.997 0V1.92763H128.55ZM122.656 0V1.92763H124.103V0L122.656 0ZM116.763 1.92763V0L118.209 0V1.92763H116.763ZM110.868 0V1.92763H112.314V0L110.868 0ZM104.975 1.92763V0L106.421 0V1.92763H104.975ZM99.0808 0V1.92763H100.527V0L99.0808 0ZM93.1866 1.92763V0L94.633 0V1.92763H93.1866ZM87.2855 0V1.92763H88.7319V0L87.2855 0ZM81.3917 1.92763V0L82.8381 0V1.92763H81.3917ZM75.4979 0V1.92763H76.9442V0L75.4979 0ZM69.604 1.92763V0L71.0504 0V1.92763H69.604ZM63.7099 0V1.92763H65.1563V0L63.7099 0ZM57.8161 1.92763V0L59.2624 0V1.92763H57.8161ZM51.922 0V1.92763H53.3683V0L51.922 0ZM46.0281 1.92763V0L47.4745 0V1.92763H46.0281ZM40.1343 0V1.92763H41.5806V0L40.1343 0ZM34.2405 1.92763V0L35.6868 0V1.92763H34.2405ZM28.3394 0V1.92763H29.7857V0L28.3394 0ZM22.4456 0V1.92763H23.892V0L22.4456 0Z" fill="#A2CB94"/>
<path fill-rule="evenodd" clip-rule="evenodd" d="M168.686 125.691V127.619H170.133V125.691H168.686ZM168.686 135.474V133.547H170.133V135.474H168.686ZM168.686 141.411V143.339H170.133V141.411H168.686ZM168.686 151.194V149.266H170.133V151.194H168.686ZM168.686 157.121V159.049H170.133V157.121H168.686ZM168.686 164.977V166.904H170.133V164.977H168.686ZM168.686 119.764V117.836H170.133V119.764H168.686ZM168.686 109.981V111.909H170.133V109.981H168.686ZM168.686 104.054V102.126H170.133V104.054H168.686ZM168.686 94.271V96.1987H170.133V94.271H168.686ZM168.686 88.3434V86.4158H170.133V88.3434H168.686ZM168.686 78.5607V80.4884H170.133V78.5607H168.686ZM168.686 72.6332V70.7056H170.133V72.6332H168.686ZM168.686 62.8506V64.7783H170.133V62.8506H168.686ZM168.686 56.9135V54.9859H170.133V56.9135H168.686ZM168.686 47.1306V49.0583H170.133V47.1306H168.686ZM168.686 41.2031V39.2755H170.133V41.2031H168.686ZM168.686 31.4205V33.3482H170.133V31.4205H168.686ZM168.686 25.493V23.5654H170.133V25.493H168.686ZM168.686 15.7102V17.6378H170.133V15.7102H168.686ZM168.686 9.78279V7.85516H170.133V9.78279H168.686ZM168.686 0V1.92763H170.132V0L168.686 0Z" fill="#A2CB94"/>
<rect x="170.338" y="180.648" width="1.92763" height="1.44636" transform="rotate(90 170.338 180.648)" fill="#A2CB94"/>
</svg>
