<svg width="64" height="26" viewBox="0 0 64 26" fill="none" xmlns="http://www.w3.org/2000/svg">
<path fill-rule="evenodd" clip-rule="evenodd" d="M63.2415 13.434C63.2415 8.99074 61.0893 5.48474 56.9759 5.48474C52.845 5.48474 50.3457 8.99074 50.3457 13.3993C50.3457 18.6236 53.2963 21.2617 57.5313 21.2617C59.5967 21.2617 61.1588 20.7931 62.339 20.1336V16.6623C61.1588 17.2524 59.805 17.6169 58.0867 17.6169C56.4031 17.6169 54.9104 17.0268 54.7195 14.9787H63.2068C63.2068 14.7531 63.2415 13.8505 63.2415 13.434ZM54.668 11.7848C54.668 9.82356 55.8656 9.00781 56.959 9.00781C58.0178 9.00781 59.1459 9.82356 59.1459 11.7848H54.668Z" fill="#1B2345"/>
<path fill-rule="evenodd" clip-rule="evenodd" d="M43.6451 5.48474C41.9442 5.48474 40.8507 6.28314 40.2433 6.83854L40.0176 5.76244H36.1992V26L40.5383 25.0801L40.5557 20.1683C41.1805 20.6195 42.1004 21.2617 43.6278 21.2617C46.7346 21.2617 49.5637 18.7624 49.5637 13.2604C49.5463 8.22706 46.6825 5.48474 43.6451 5.48474ZM42.6025 17.4433C41.5785 17.4433 40.971 17.0789 40.5545 16.6276L40.5371 10.1884C40.9884 9.68502 41.6132 9.33789 42.6025 9.33789C44.182 9.33789 45.2754 11.1082 45.2754 13.3819C45.2754 15.7077 44.1993 17.4433 42.6025 17.4433Z" fill="#1B2345"/>
<path fill-rule="evenodd" clip-rule="evenodd" d="M30.2285 4.4606L34.585 3.52335V0L30.2285 0.91989V4.4606Z" fill="#1B2345"/>
<rect x="30.2285" y="5.77966" width="4.35646" height="15.1869" fill="#1B2345"/>
<path fill-rule="evenodd" clip-rule="evenodd" d="M25.5618 7.06412L25.2841 5.77975H21.5352V20.9666H25.8743V10.6743C26.8983 9.33781 28.6339 9.5808 29.172 9.77172V5.77975C28.6166 5.57147 26.5859 5.18963 25.5618 7.06412Z" fill="#1B2345"/>
<path fill-rule="evenodd" clip-rule="evenodd" d="M16.8812 2.01343L12.6463 2.91596L12.6289 16.8185C12.6289 19.3872 14.5555 21.2791 17.1242 21.2791C18.5474 21.2791 19.5888 21.0187 20.1616 20.7063V17.1829C19.6062 17.4086 16.8639 18.207 16.8639 15.6382V9.47669H20.1616V5.77977H16.8639L16.8812 2.01343Z" fill="#1B2345"/>
<path fill-rule="evenodd" clip-rule="evenodd" d="M5.14899 10.1883C5.14899 9.51143 5.70439 9.25108 6.62428 9.25108C7.94337 9.25108 9.60959 9.65028 10.9287 10.3619V6.28314C9.48809 5.71037 8.06487 5.48474 6.62428 5.48474C3.10093 5.48474 0.757812 7.32452 0.757812 10.3966C0.757812 15.187 7.35325 14.4233 7.35325 16.4887C7.35325 17.2871 6.659 17.5475 5.68704 17.5475C4.24645 17.5475 2.40667 16.9573 0.948733 16.1589V20.2898C2.56288 20.984 4.19438 21.2791 5.68704 21.2791C9.29717 21.2791 11.7791 19.4914 11.7791 16.3846C11.7618 11.2124 5.14899 12.1322 5.14899 10.1883Z" fill="#1B2345"/>
</svg>
