<svg width="617" height="490" viewBox="0 0 617 490" fill="none" xmlns="http://www.w3.org/2000/svg">
<g opacity="0.6">
<path d="M542 297.289L581.289 258" stroke="#6C7BAA" stroke-width="2.31111"/>
<path d="M542 297.289L581.289 258" stroke="url(#paint0_linear_988_2419)" stroke-width="2.31111"/>
</g>
<g opacity="0.6">
<path d="M444.889 408L364 488.889" stroke="#6C7BAA" stroke-width="2.31111"/>
<path d="M444.889 408L364 488.889" stroke="url(#paint1_linear_988_2419)" stroke-width="2.31111"/>
</g>
<g opacity="0.6">
<path d="M356 428.325L376.325 408" stroke="#6C7BAA" stroke-width="2.31111"/>
<path d="M356 428.325L376.325 408" stroke="url(#paint2_linear_988_2419)" stroke-width="2.31111"/>
</g>
<rect opacity="0.6" y="196" width="12.9492" height="12.9492" rx="2" fill="#ABAECD"/>
<rect opacity="0.2" x="604" y="335" width="12.9492" height="12.9492" rx="2" fill="#878787"/>
<rect opacity="0.8" x="604" width="12.9492" height="12.9492" rx="2" fill="#ABAECD"/>
<rect x="228.224" y="439.576" width="1.92763" height="1.97635" transform="rotate(-90 228.224 439.576)" fill="#ABAECD"/>
<path fill-rule="evenodd" clip-rule="evenodd" d="M53.0301 439.576V437.648H51.0537V439.576H53.0301ZM61.0934 437.648V439.576H59.1171V437.648H61.0934ZM69.1474 439.576V437.648H67.1711V439.576H69.1474ZM77.2009 437.648V439.576H75.2246V437.648H77.2009ZM85.2545 439.576V437.648H83.2781V439.576H85.2545ZM93.308 437.648V439.576H91.3317V437.648H93.308ZM101.362 439.576V437.648H99.3861V439.576H101.362ZM109.416 437.648V439.576H107.439V437.648H109.416ZM117.469 439.576V437.648H115.493V439.576H117.469ZM125.523 437.648V439.576H123.547V437.648H125.523ZM133.587 439.576V437.648H131.61V439.576H133.587ZM141.64 437.648V439.576H139.664V437.648H141.64ZM149.694 439.576V437.648H147.717V439.576H149.694ZM157.747 437.648V439.576H155.771V437.648H157.747ZM165.801 439.576V437.648H163.825V439.576H165.801ZM173.855 437.648V439.576H171.878V437.648H173.855ZM181.909 439.576V437.648H179.932V439.576H181.909ZM189.962 437.648V439.576H187.986V437.648H189.962ZM198.016 439.576V437.648H196.039V439.576H198.016ZM206.069 437.648V439.576H204.093V437.648H206.069ZM214.133 439.576V437.648H212.156V439.576H214.133ZM222.186 439.576V437.648H220.21V439.576H222.186Z" fill="#ABAECD"/>
<path fill-rule="evenodd" clip-rule="evenodd" d="M45.2566 313.884V311.957H43.2803V313.884H45.2566ZM45.2566 304.102V306.029H43.2803V304.102H45.2566ZM45.2566 298.164V296.237H43.2803V298.164H45.2566ZM45.2566 288.382V290.309H43.2803V288.382H45.2566ZM45.2566 282.454V280.527H43.2803V282.454H45.2566ZM45.2566 274.599V272.671H43.2803V274.599H45.2566ZM45.2566 319.812V321.739H43.2803V319.812H45.2566ZM45.2566 329.595V327.667H43.2803V329.595H45.2566ZM45.2566 335.522V337.45H43.2803V335.522H45.2566ZM45.2566 345.305V343.377H43.2803V345.305H45.2566ZM45.2566 351.232V353.16H43.2803L43.2803 351.232H45.2566ZM45.2566 361.015V359.087H43.2803V361.015H45.2566ZM45.2566 366.942V368.87H43.2803V366.942H45.2566ZM45.2566 376.725V374.797H43.2803V376.725H45.2566ZM45.2566 382.662V384.59H43.2803V382.662H45.2566ZM45.2566 392.445V390.517H43.2803V392.445H45.2566ZM45.2566 398.373V400.3H43.2803V398.373H45.2566ZM45.2566 408.155V406.228H43.2803V408.155H45.2566ZM45.2566 414.083V416.01H43.2803V414.083H45.2566ZM45.2566 423.865V421.938H43.2803V423.865H45.2566ZM45.2566 429.793V431.721H43.2803V429.793H45.2566ZM45.2571 439.576V437.648H43.2807V439.576H45.2571Z" fill="#ABAECD"/>
<rect x="43" y="258.928" width="1.92763" height="1.97635" transform="rotate(-90 43 258.928)" fill="#ABAECD"/>
<defs>
<linearGradient id="paint0_linear_988_2419" x1="588.222" y1="236.622" x2="523.511" y2="307.111" gradientUnits="userSpaceOnUse">
<stop stop-color="white"/>
<stop offset="1" stop-color="white" stop-opacity="0"/>
</linearGradient>
<linearGradient id="paint1_linear_988_2419" x1="372.089" y1="507.956" x2="432.756" y2="448.444" gradientUnits="userSpaceOnUse">
<stop stop-color="white"/>
<stop offset="1" stop-color="white" stop-opacity="0"/>
</linearGradient>
<linearGradient id="paint2_linear_988_2419" x1="355.942" y1="443.822" x2="385.409" y2="408" gradientUnits="userSpaceOnUse">
<stop stop-color="white"/>
<stop offset="1" stop-color="white" stop-opacity="0"/>
</linearGradient>
</defs>
</svg>
