<svg width="96" height="40" viewBox="0 0 96 40" fill="none" xmlns="http://www.w3.org/2000/svg">
<g clip-path="url(#clip0_873_6474)">
<path d="M27.8789 30.5648C26.2349 32.7617 24.1074 35.054 21.3029 36.7733C18.5951 38.4926 15.5005 39.8298 11.8257 39.8298C8.441 39.8298 5.63652 38.1105 4.08923 36.6778C1.76829 34.4809 0.511109 31.3289 0.124285 28.368C-0.939481 19.1985 4.76617 7.16363 13.5664 1.81479C15.5972 0.57309 17.8215 0 19.949 0C24.2041 0 27.3954 2.96097 27.7822 6.59054C28.169 9.83805 26.9118 12.608 23.237 14.4228C21.3996 15.3779 20.4325 15.2824 20.1424 14.9004C19.949 14.6138 20.0457 14.1362 20.4325 13.8497C23.8172 11.0797 23.9139 8.78739 23.5271 5.53987C23.237 3.43854 21.8831 2.10133 20.3358 2.10133C13.6631 2.10133 3.99252 16.9062 5.34641 27.6039C5.82994 31.8065 8.441 36.6778 13.8565 36.6778C15.5972 36.6778 17.5314 36.2002 19.1754 35.3406C22.9469 33.4303 24.5909 32.0931 26.8151 29.0366C27.1052 28.6545 27.3954 28.1769 27.6855 27.7949C27.8789 27.4128 28.2657 27.3173 28.5558 27.3173C28.8459 27.3173 29.2328 27.6039 29.2328 28.0814C29.2328 28.368 29.1361 28.9411 28.7492 29.4186C28.5558 29.6097 28.169 30.1828 27.8789 30.5648Z" fill="white"/>
<path d="M38.0337 36.009C36.3897 36.009 35.4226 35.1494 35.0358 33.8122C33.972 35.2449 32.4247 36.009 30.8775 36.009C28.2664 36.009 25.8487 33.8122 25.4619 30.9467C24.8817 25.8844 29.2334 19.3894 35.8095 19.3894C38.6139 19.3894 40.9349 20.5356 41.225 22.7324C41.6118 25.5024 39.1942 26.0755 38.3238 26.0755C37.5502 26.0755 36.293 25.8844 36.1963 25.1203C36.0996 24.3562 37.8403 24.8338 37.6469 23.019C37.5502 21.8728 36.3897 21.4907 35.2292 21.4907C31.1676 21.4907 28.9433 27.0306 29.4269 30.4691C29.6203 31.9974 30.3939 33.5256 31.8445 33.5256C33.005 33.5256 34.7457 31.9019 35.3259 29.4185C35.7127 27.7947 37.3567 26.6485 38.5172 26.6485C39.0975 26.6485 39.581 26.9351 39.6777 27.5082C39.6777 27.6992 39.6777 27.9858 39.581 28.3678C39.4843 29.1319 38.904 31.4243 38.904 31.9974C38.904 32.475 39.1942 33.0481 39.9678 33.0481C40.8382 33.0481 44.8031 30.7557 47.0273 27.6992C47.2208 27.4127 47.6076 27.2216 47.8977 27.2216C48.1878 27.2216 48.5746 27.4127 48.5746 27.7947C48.6713 28.1768 48.4779 28.6544 47.9944 29.323C45.48 32.9525 39.9678 36.009 38.0337 36.009Z" fill="white"/>
<path d="M93.447 34.0989C93.6404 35.7226 94.4141 36.7733 95.091 37.3464C95.3811 37.5374 95.4779 37.8239 95.4779 38.015C95.5746 38.4926 95.1877 38.8746 94.6075 38.8746C94.4141 38.8746 94.2207 38.8746 94.0273 38.7791C91.1261 37.6329 89.9656 35.7226 89.5788 33.9078C88.515 35.245 86.9677 36.1047 85.5171 36.1047C82.9061 36.1047 80.4884 33.9078 80.1016 31.0424C79.5214 26.0756 84.0666 19.5806 90.5458 19.5806C93.2536 19.5806 95.6713 20.6312 95.9614 22.8281C96.3482 25.598 93.8339 26.1711 93.0602 26.1711C92.1899 26.1711 90.9327 25.9801 90.836 25.216C90.7393 24.5474 92.5767 24.9294 92.3833 23.2101C92.2866 22.064 91.0294 21.6819 89.9656 21.6819C86.1941 21.6819 83.6797 26.5532 84.1633 30.5648C84.3567 32.1886 85.1303 33.7168 86.5809 33.7168C87.7414 33.7168 89.4821 32.093 90.159 29.6097C90.5459 27.9859 92.1898 26.8397 93.3503 26.8397C93.9306 26.8397 94.4141 27.1263 94.5108 27.7949C94.5108 28.0814 94.4141 28.8455 93.8338 31.4244C93.3503 32.3796 93.3503 33.3347 93.447 34.0989Z" fill="white"/>
<path d="M58.6329 33.1437C59.5032 33.1437 62.4044 32.093 64.7253 28.941C65.0155 28.6545 65.3056 28.4635 65.5957 28.4635C65.9825 28.4635 66.2726 28.6545 66.3693 29.0366C66.3693 29.3231 66.1759 29.8962 65.6924 30.5648C63.0813 34.1944 58.6329 36.0092 56.6988 36.0092C54.6679 36.0092 53.6042 34.7675 53.4108 32.9527C53.314 32.3796 53.314 31.6155 53.5075 30.8513C54.1844 26.7442 55.7317 24.2608 55.635 23.4967C55.635 23.3057 55.4416 23.2101 55.3449 23.2101C54.0877 23.2101 49.5425 27.7949 48.8656 30.8513L48.2853 33.2392C47.8985 34.9585 46.2545 36.0092 45.094 36.0092C44.5138 36.0092 44.127 35.7226 44.0303 35.1495C44.0303 34.9585 44.0303 34.6719 44.127 34.2899C44.127 34.2899 46.3512 23.0191 46.4479 22.446C46.738 21.1088 47.2216 19.7716 49.9293 19.7716C50.5096 19.7716 50.8964 20.0581 50.9931 20.7267C50.9931 20.9178 50.9931 21.2043 50.8964 21.5864L50.1228 25.0249C52.5404 21.8729 56.2152 19.5806 58.5362 19.5806C59.5032 19.5806 60.1802 20.0581 60.3736 21.1088C60.4703 21.6819 60.2769 22.637 59.8901 23.6877C59.1164 25.8846 58.246 29.0366 57.5691 31.8065C57.3757 32.1886 57.5691 33.1437 58.6329 33.1437Z" fill="white"/>
<path d="M73.9117 19.9627C73.9117 21.491 74.6853 23.1147 75.6524 24.1654C76.0392 23.1147 76.2326 22.0641 76.2326 21.0134C76.2326 19.0076 75.459 18.148 74.8788 18.148C74.2018 18.148 73.9117 19.1031 73.9117 19.9627ZM77.3931 28.177C77.103 28.177 76.8129 28.177 76.426 28.0815C73.9117 31.7111 71.3006 34.1945 69.2698 35.2452C68.3995 35.7227 67.6258 35.9138 67.0456 35.9138C66.562 35.9138 66.0785 35.8183 65.8851 35.4362C65.0147 33.9079 64.6279 30.947 64.6279 27.795C64.6279 25.5026 64.8213 23.5923 65.2082 22.2551C65.6917 20.8224 67.5291 19.4852 68.6896 19.4852C69.2698 19.4852 69.7533 19.7717 69.7533 20.4403C69.7533 20.6314 69.6566 20.9179 69.5599 21.2044C68.6896 23.5923 68.3027 25.8847 68.3027 28.177C68.3027 29.4187 68.5929 31.5201 68.883 32.5707C68.9797 32.7618 68.9797 33.0483 69.1731 33.0483C69.5599 33.0483 72.171 30.4694 74.1051 27.4129C72.4611 26.3623 71.494 24.452 71.494 22.0641C71.494 18.0524 73.9117 16.0466 76.2326 16.0466C78.0701 16.0466 79.714 17.3838 79.714 20.0583C79.714 21.682 79.0371 23.5923 78.0701 25.4071C78.0701 25.4071 78.4569 25.5026 78.6503 25.5026C80.1009 25.5026 81.2613 24.834 81.8416 24.1654C82.3251 23.6878 82.7119 23.3058 83.0988 23.3058C83.3889 23.3058 83.4856 23.4968 83.4856 23.7834C83.4856 23.9744 83.3889 24.2609 83.2922 24.5475C81.9383 26.7443 79.4239 28.177 77.3931 28.177Z" fill="white"/>
</g>
<defs>
<clipPath id="clip0_873_6474">
<rect width="96" height="39.8298" fill="white"/>
</clipPath>
</defs>
</svg>
