<svg width="610" height="251" viewBox="0 0 610 251" fill="none" xmlns="http://www.w3.org/2000/svg">
<rect opacity="0.2" x="570" y="238.051" width="12.9492" height="12.9492" rx="2" fill="#878787"/>
<rect opacity="0.6" x="0.525391" y="203" width="12.9492" height="12.9492" rx="2" fill="#A2CB94"/>
<rect opacity="0.8" x="597" y="0.0507812" width="12.9492" height="12.9492" rx="2" fill="#A2CB94"/>
<rect x="215.99" y="248.576" width="1.0302" height="1.05624" transform="rotate(-90 215.99 248.576)" fill="#1ED760"/>
<path fill-rule="evenodd" clip-rule="evenodd" d="M122.359 248.576V247.545H121.303V248.576H122.359ZM126.668 247.545V248.576H125.612V247.545H126.668ZM130.973 248.576V247.545H129.916V248.576H130.973ZM135.276 247.545V248.576H134.22V247.545H135.276ZM139.581 248.576V247.545H138.525V248.576H139.581ZM143.885 247.545V248.576H142.829V247.545H143.885ZM148.19 248.576V247.545H147.133V248.576H148.19ZM152.493 247.545V248.576H151.437V247.545H152.493ZM156.798 248.576V247.545H155.742V248.576H156.798ZM161.102 247.545V248.576H160.045V247.545H161.102ZM165.412 248.576V247.545H164.355V248.576H165.412ZM169.715 247.545V248.576H168.659V247.545H169.715ZM174.02 248.576V247.545H172.964V248.576H174.02ZM178.324 247.545V248.576H177.268V247.545H178.324ZM182.629 248.576V247.545H181.572V248.576H182.629ZM186.932 247.545V248.576H185.876V247.545H186.932ZM191.237 248.576V247.545H190.181V248.576H191.237ZM195.541 247.545V248.576H194.484V247.545H195.541ZM199.845 248.576V247.545H198.789V248.576H199.845ZM204.149 247.545V248.576H203.093V247.545H204.149ZM208.459 248.576V247.545H207.403V248.576H208.459ZM212.763 248.576V247.545H211.707V248.576H212.763Z" fill="#1ED760"/>
<path fill-rule="evenodd" clip-rule="evenodd" d="M118.207 248.576V247.545H117.15V248.576H118.207ZM118.207 243.347V244.378H117.15V243.347H118.207ZM118.207 240.18V239.149H117.15V240.18H118.207ZM118.207 234.951V235.981H117.15V234.951H118.207ZM118.207 231.783V230.753H117.15V231.783H118.207ZM118.207 226.555V227.585H117.15V226.555H118.207ZM118.207 223.387V222.357H117.15V223.387H118.207ZM118.207 218.159V219.189H117.15V218.159H118.207ZM118.207 214.986V213.956H117.15V214.986H118.207ZM118.207 209.758V210.788H117.15V209.758H118.207ZM118.207 206.59V205.559H117.15V206.59H118.207ZM118.207 201.361V202.392H117.15V201.361H118.207ZM118.207 198.194V197.163H117.15V198.194H118.207ZM118.207 192.965V193.996H117.15V192.965H118.207ZM118.207 189.797L118.207 188.767H117.15V189.797H118.207ZM118.207 184.569V185.599H117.15V184.569H118.207ZM118.207 181.401V180.371H117.15V181.401H118.207ZM118.207 176.173V177.203H117.15V176.173H118.207ZM118.207 173V171.97H117.15V173H118.207ZM118.207 167.772V168.802H117.15V167.772H118.207ZM118.207 164.604V163.574H117.15V164.604H118.207ZM118.207 160.406V159.375H117.15V160.406H118.207Z" fill="#1ED760"/>
<rect x="117" y="152.03" width="1.0302" height="1.05624" transform="rotate(-90 117 152.03)" fill="#1ED760"/>
</svg>
