<svg width="34" height="24" viewBox="0 0 34 24" fill="none" xmlns="http://www.w3.org/2000/svg">
<path opacity="0.9" fill-rule="evenodd" clip-rule="evenodd" d="M16.1123 0.529297L10.2099 9.72341C13.1207 10.288 15.6272 12.5462 15.6272 16.2561C15.6272 20.3692 12.393 23.3533 8.18858 23.3533C4.14587 23.3533 0.75 20.6112 0.75 15.4496C0.75 12.5462 2.12452 9.72341 3.82246 7.1426L8.10773 0.529297H16.1123ZM33.6689 0.529297L27.7666 9.72341C30.6773 10.288 33.1838 12.5462 33.1838 16.2561C33.1838 20.3692 29.9496 23.3533 25.7452 23.3533C21.7025 23.3533 18.3066 20.6112 18.3066 15.4496C18.3066 12.5462 19.6812 9.72341 21.3791 7.1426L25.6644 0.529297H33.6689Z" fill="#ABAECD"/>
</svg>
