<svg width="72" height="72" viewBox="0 0 72 72" fill="none" xmlns="http://www.w3.org/2000/svg">
<rect width="72" height="72" rx="12" fill="#DDEFDD"/>
<path d="M57.75 17.25H48.75V14.25C48.75 13.8353 48.414 13.5 48 13.5H39.75H31.5H23.25H15C14.586 13.5 14.25 13.8353 14.25 14.25V36V54.75C14.25 56.8177 15.9323 58.5 18 58.5H23.25H35.25H52.875C55.977 58.5 58.5 55.977 58.5 52.875C58.5 52.7482 58.488 52.6245 58.4798 52.5H58.5V36V18C58.5 17.5852 58.164 17.25 57.75 17.25ZM22.5 57H18C16.7595 57 15.75 55.9905 15.75 54.75V36.75H22.5V57ZM22.5 35.25H15.75V15H22.5V35.25ZM40.5 15H47.25V18V35.25H40.5V15ZM40.5 36.75H47.25V42.0293C45.9788 41.0693 44.4165 40.5 42.75 40.5C41.9662 40.5 41.211 40.6215 40.5 40.8457V36.75ZM32.25 15H39V35.25H32.25V15ZM32.25 48.75V36.75H39V41.5148C38.4533 41.832 37.9485 42.213 37.5 42.6532V41.25H33.75V42.75H37.4032C36.963 43.1985 36.5828 43.7033 36.2648 44.25H33.75V45.75H35.5958C35.3722 46.461 35.25 47.2163 35.25 48C34.1348 48 33.1012 48.3525 32.25 48.948V48.75ZM24 15H30.75V35.25H24V15ZM24 57V36.75H30.75V48.75V50.5597C30.2768 51.348 30 52.266 30 53.25C30 54.7185 30.6075 56.046 31.5833 57H24ZM52.875 57H35.25C33.1823 57 31.5 55.3177 31.5 53.25C31.5 51.1823 33.1823 49.5 35.25 49.5C35.4645 49.5 35.6842 49.521 35.922 49.5638C36.1575 49.611 36.3975 49.536 36.5708 49.3717C36.744 49.2075 36.8295 48.9712 36.8003 48.7342C36.7658 48.456 36.75 48.2228 36.75 48C36.75 44.6917 39.4417 42 42.75 42C45.2992 42 47.5755 43.6208 48.4132 46.0343C48.534 46.3808 48.8903 46.5885 49.2487 46.527C49.3305 46.5135 49.4137 46.5 49.5 46.5C50.3273 46.5 51 47.1728 51 47.9782C50.9977 47.9963 50.9888 48.0742 50.988 48.0923C50.973 48.3293 51.072 48.5602 51.2542 48.7132C51.4365 48.8662 51.6802 48.9225 51.9113 48.8685C54.6188 48.2137 57 50.2882 57 52.875C57 55.149 55.1497 57 52.875 57ZM57 49.0522C55.875 47.8312 54.2235 47.1068 52.41 47.2702C52.2593 46.6702 51.924 46.146 51.4725 45.75H57V49.0522ZM57 44.25H49.2233C49.071 43.9875 48.9015 43.74 48.7207 43.5H48.75V41.25H57V44.25ZM57 39.75H48.75V36.75H57V39.75ZM57 35.25H48.75V32.25H57V35.25ZM57 30.75H48.75V27.75H57V30.75ZM57 26.25H48.75V23.25H57V26.25ZM57 21.75H48.75V18.75H57V21.75Z" fill="#A2CB94"/>
<path d="M21 16.5H17.25V18H21V16.5Z" fill="#A2CB94"/>
<path d="M21 19.5H17.25V21H21V19.5Z" fill="#A2CB94"/>
<path d="M21 22.5H17.25V24H21V22.5Z" fill="#A2CB94"/>
<path d="M21 25.5H17.25V27H21V25.5Z" fill="#A2CB94"/>
<path d="M21 28.5H17.25V30H21V28.5Z" fill="#A2CB94"/>
<path d="M21 31.5H17.25V33H21V31.5Z" fill="#A2CB94"/>
<path d="M29.25 16.5H25.5V18H29.25V16.5Z" fill="#A2CB94"/>
<path d="M29.25 19.5H25.5V21H29.25V19.5Z" fill="#A2CB94"/>
<path d="M29.25 22.5H25.5V24H29.25V22.5Z" fill="#A2CB94"/>
<path d="M29.25 25.5H25.5V27H29.25V25.5Z" fill="#A2CB94"/>
<path d="M29.25 28.5H25.5V30H29.25V28.5Z" fill="#A2CB94"/>
<path d="M29.25 31.5H25.5V33H29.25V31.5Z" fill="#A2CB94"/>
<path d="M37.5 16.5H33.75V18H37.5V16.5Z" fill="#A2CB94"/>
<path d="M37.5 19.5H33.75V21H37.5V19.5Z" fill="#A2CB94"/>
<path d="M37.5 22.5H33.75V24H37.5V22.5Z" fill="#A2CB94"/>
<path d="M37.5 25.5H33.75V27H37.5V25.5Z" fill="#A2CB94"/>
<path d="M37.5 28.5H33.75V30H37.5V28.5Z" fill="#A2CB94"/>
<path d="M37.5 31.5H33.75V33H37.5V31.5Z" fill="#A2CB94"/>
<path d="M45.75 16.5H42V18H45.75V16.5Z" fill="#A2CB94"/>
<path d="M45.75 19.5H42V21H45.75V19.5Z" fill="#A2CB94"/>
<path d="M45.75 22.5H42V24H45.75V22.5Z" fill="#A2CB94"/>
<path d="M45.75 25.5H42V27H45.75V25.5Z" fill="#A2CB94"/>
<path d="M45.75 28.5H42V30H45.75V28.5Z" fill="#A2CB94"/>
<path d="M45.75 31.5H42V33H45.75V31.5Z" fill="#A2CB94"/>
<path d="M21 38.25H17.25V39.75H21V38.25Z" fill="#A2CB94"/>
<path d="M21 41.25H17.25V42.75H21V41.25Z" fill="#A2CB94"/>
<path d="M21 44.25H17.25V45.75H21V44.25Z" fill="#A2CB94"/>
<path d="M21 47.25H17.25V48.75H21V47.25Z" fill="#A2CB94"/>
<path d="M21 50.25H17.25V51.75H21V50.25Z" fill="#A2CB94"/>
<path d="M21 53.25H17.25V54.75H21V53.25Z" fill="#A2CB94"/>
<path d="M29.25 38.25H25.5V39.75H29.25V38.25Z" fill="#A2CB94"/>
<path d="M29.25 41.25H25.5V42.75H29.25V41.25Z" fill="#A2CB94"/>
<path d="M29.25 44.25H25.5V45.75H29.25V44.25Z" fill="#A2CB94"/>
<path d="M29.25 47.25H25.5V48.75H29.25V47.25Z" fill="#A2CB94"/>
<path d="M29.25 50.25H25.5V51.75H29.25V50.25Z" fill="#A2CB94"/>
<path d="M29.25 53.25H25.5V54.75H29.25V53.25Z" fill="#A2CB94"/>
<path d="M37.5 38.25H33.75V39.75H37.5V38.25Z" fill="#A2CB94"/>
<path d="M45.75 38.25H42V39.75H45.75V38.25Z" fill="#A2CB94"/>
<path d="M47.25 54H45.75V55.5H47.25V54Z" fill="#A2CB94"/>
<path d="M50.25 54H48.75V55.5H50.25V54Z" fill="#A2CB94"/>
<path d="M53.25 54H51.75V55.5H53.25V54Z" fill="#A2CB94"/>
<path d="M38.25 53.25H39.75C39.75 50.7682 41.7682 48.75 44.25 48.75V47.25C40.9418 47.25 38.25 49.9418 38.25 53.25Z" fill="#A2CB94"/>
</svg>
