<svg width="72" height="72" viewBox="0 0 72 72" fill="none" xmlns="http://www.w3.org/2000/svg">
<rect width="72" height="72" rx="12" fill="#DDEFDD"/>
<path d="M57.75 32.25H53.25V30C53.25 29.586 52.9147 29.25 52.5 29.25H36.75V27.75H40.5C40.8232 27.75 41.109 27.5437 41.211 27.237L42.711 22.737C42.7883 22.5083 42.7493 22.257 42.6082 22.0612C42.4673 21.8655 42.2407 21.75 42 21.75H36.75V20.25H41.25C41.6647 20.25 42 19.914 42 19.5V14.25C42 13.836 41.6647 13.5 41.25 13.5H30.75C30.3353 13.5 30 13.836 30 14.25V19.5C30 19.914 30.3353 20.25 30.75 20.25H35.25V21.75H31.5C31.1768 21.75 30.891 21.9563 30.789 22.263L29.289 26.763C29.2118 26.9917 29.2507 27.243 29.3917 27.4387C29.5327 27.6345 29.7593 27.75 30 27.75H35.25V29.25H19.5C19.0852 29.25 18.75 29.586 18.75 30V32.25H14.25C13.8353 32.25 13.5 32.586 13.5 33V38.25C13.5 38.664 13.8353 39 14.25 39H18.75V51.75H14.25C13.8353 51.75 13.5 52.086 13.5 52.5V57.75C13.5 58.164 13.8353 58.5 14.25 58.5H24.75C25.1648 58.5 25.5 58.164 25.5 57.75V56.25H30V57.75C30 58.164 30.3353 58.5 30.75 58.5H41.25C41.6647 58.5 42 58.164 42 57.75V56.25H46.5V57.75C46.5 58.164 46.8353 58.5 47.25 58.5H57.75C58.1647 58.5 58.5 58.164 58.5 57.75V52.5C58.5 52.086 58.1647 51.75 57.75 51.75H47.25C46.8353 51.75 46.5 52.086 46.5 52.5V54.75H42V52.5C42 52.086 41.6647 51.75 41.25 51.75H30.75C30.3353 51.75 30 52.086 30 52.5V54.75H25.5V52.5C25.5 52.086 25.1648 51.75 24.75 51.75H20.25V42H35.25V43.5H30.75C30.3353 43.5 30 43.836 30 44.25V49.5C30 49.914 30.3353 50.25 30.75 50.25H41.25C41.6647 50.25 42 49.914 42 49.5V44.25C42 43.836 41.6647 43.5 41.25 43.5H36.75V41.25C36.75 40.836 36.4147 40.5 36 40.5H20.25V39H24.75C25.1648 39 25.5 38.664 25.5 38.25V33C25.5 32.586 25.1648 32.25 24.75 32.25H20.25V30.75H51.75V32.25H47.25C46.8353 32.25 46.5 32.586 46.5 33V38.25C46.5 38.664 46.8353 39 47.25 39H57.75C58.1647 39 58.5 38.664 58.5 38.25V33C58.5 32.586 58.1647 32.25 57.75 32.25ZM31.5 15H40.5V18.75H31.5V15ZM32.0408 23.25H40.9597L39.96 26.25H31.041L32.0408 23.25ZM48 53.25H57V57H48V53.25ZM31.5 53.25H40.5V57H31.5V53.25ZM24 57H15V53.25H24V57ZM40.5 48.75H31.5V45H40.5V48.75ZM24 37.5H15V33.75H24V37.5ZM57 37.5H48V33.75H57V37.5Z" fill="#A2CB94"/>
</svg>
