<svg width="72" height="72" viewBox="0 0 72 72" fill="none" xmlns="http://www.w3.org/2000/svg">
<rect width="72" height="72" rx="12" fill="#DDEFDD"/>
<path d="M18 19.5H16.5V21H18V19.5Z" fill="#A2CB94"/>
<path d="M21 19.5H19.5V21H21V19.5Z" fill="#A2CB94"/>
<path d="M18 16.5H16.5V18H18V16.5Z" fill="#A2CB94"/>
<path d="M21 16.5H19.5V18H21V16.5Z" fill="#A2CB94"/>
<path d="M24 19.5H22.5V21H24V19.5Z" fill="#A2CB94"/>
<path d="M24 16.5H22.5V18H24V16.5Z" fill="#A2CB94"/>
<path d="M27 19.5H25.5V21H27V19.5Z" fill="#A2CB94"/>
<path d="M27 16.5H25.5V18H27V16.5Z" fill="#A2CB94"/>
<path d="M30 19.5H28.5V21H30V19.5Z" fill="#A2CB94"/>
<path d="M30 16.5H28.5V18H30V16.5Z" fill="#A2CB94"/>
<path d="M34.5 21H41.25C41.664 21 42 20.6648 42 20.25V17.25C42 16.8353 41.664 16.5 41.25 16.5H34.5C34.086 16.5 33.75 16.8353 33.75 17.25V20.25C33.75 20.6648 34.086 21 34.5 21ZM35.25 18H40.5V19.5H35.25V18Z" fill="#A2CB94"/>
<path d="M18 28.5H16.5V30H18V28.5Z" fill="#A2CB94"/>
<path d="M21 28.5H19.5V30H21V28.5Z" fill="#A2CB94"/>
<path d="M18 25.5H16.5V27H18V25.5Z" fill="#A2CB94"/>
<path d="M21 25.5H19.5V27H21V25.5Z" fill="#A2CB94"/>
<path d="M24 28.5H22.5V30H24V28.5Z" fill="#A2CB94"/>
<path d="M24 25.5H22.5V27H24V25.5Z" fill="#A2CB94"/>
<path d="M27 28.5H25.5V30H27V28.5Z" fill="#A2CB94"/>
<path d="M27 25.5H25.5V27H27V25.5Z" fill="#A2CB94"/>
<path d="M30 28.5H28.5V30H30V28.5Z" fill="#A2CB94"/>
<path d="M30 25.5H28.5V27H30V25.5Z" fill="#A2CB94"/>
<path d="M42 26.25C42 25.8353 41.664 25.5 41.25 25.5H34.5C34.086 25.5 33.75 25.8353 33.75 26.25V29.25C33.75 29.6648 34.086 30 34.5 30H41.25C41.664 30 42 29.6648 42 29.25V26.25ZM40.5 28.5H35.25V27H40.5V28.5Z" fill="#A2CB94"/>
<path d="M18 37.5H16.5V39H18V37.5Z" fill="#A2CB94"/>
<path d="M21 37.5H19.5V39H21V37.5Z" fill="#A2CB94"/>
<path d="M18 34.5H16.5V36H18V34.5Z" fill="#A2CB94"/>
<path d="M21 34.5H19.5V36H21V34.5Z" fill="#A2CB94"/>
<path d="M24 37.5H22.5V39H24V37.5Z" fill="#A2CB94"/>
<path d="M24 34.5H22.5V36H24V34.5Z" fill="#A2CB94"/>
<path d="M27 37.5H25.5V39H27V37.5Z" fill="#A2CB94"/>
<path d="M27 34.5H25.5V36H27V34.5Z" fill="#A2CB94"/>
<path d="M30 37.5H28.5V39H30V37.5Z" fill="#A2CB94"/>
<path d="M30 34.5H28.5V36H30V34.5Z" fill="#A2CB94"/>
<path d="M50.883 47.5725C51.9015 45.9548 52.5 44.0483 52.5 42C52.5 37.143 49.1797 33.057 44.6932 31.863C44.883 31.5337 45 31.1565 45 30.75V24.75C45 24.1718 44.7743 23.649 44.415 23.25C44.775 22.851 45 22.3282 45 21.75V15.75C45 14.5095 43.9905 13.5 42.75 13.5H15.75C14.5095 13.5 13.5 14.5095 13.5 15.75V21.75C13.5 22.3282 13.7257 22.851 14.085 23.25C13.7257 23.649 13.5 24.1718 13.5 24.75V30.75C13.5 31.3283 13.7257 31.851 14.085 32.25C13.7257 32.649 13.5 33.1717 13.5 33.75V39.75C13.5 40.9905 14.5095 42 15.75 42H31.5C31.5 47.79 36.21 52.5 42 52.5C44.0483 52.5 45.9555 51.9015 47.5725 50.883L54.5033 57.8145C54.9458 58.257 55.5338 58.5 56.1593 58.5C57.45 58.5 58.5 57.45 58.5 56.1593C58.5 55.5428 58.2502 54.9398 57.8145 54.504L50.883 47.5725ZM15 30.75V24.75C15 24.336 15.3368 24 15.75 24H42.75C43.1632 24 43.5 24.336 43.5 24.75V30.75C43.5 31.164 43.1632 31.5 42.75 31.5H42H15.75C15.3368 31.5 15 31.164 15 30.75ZM15 15.75C15 15.336 15.3368 15 15.75 15H42.75C43.1632 15 43.5 15.336 43.5 15.75V21.75C43.5 22.164 43.1632 22.5 42.75 22.5H15.75C15.3368 22.5 15 22.164 15 21.75V15.75ZM31.6163 40.5H15.75C15.3368 40.5 15 40.164 15 39.75V33.75C15 33.336 15.3368 33 15.75 33H36.6195C34.3118 34.3853 32.5822 36.6263 31.8682 39.2858C31.86 39.3165 31.8525 39.348 31.8442 39.3787C31.755 39.7238 31.6838 40.0755 31.6297 40.4333C31.6268 40.4565 31.62 40.4775 31.6163 40.5ZM33 42C33 41.7675 33.0173 41.5388 33.0353 41.3108C33.0353 41.3093 33.036 41.3085 33.036 41.307C33.0802 40.7257 33.1807 40.1595 33.3307 39.615C33.3307 39.6143 33.3315 39.6128 33.3315 39.612C34.1595 36.6165 36.5077 34.2525 39.4545 33.3727C39.4935 33.3608 39.5347 33.3532 39.5737 33.342C39.8018 33.2775 40.032 33.2183 40.266 33.1717C40.3732 33.1507 40.4835 33.1388 40.5915 33.1222C40.7648 33.0945 40.9373 33.063 41.1135 33.0457C41.406 33.0165 41.7015 33 42 33C42.2302 33 42.456 33.0173 42.6825 33.0345C42.8288 33.0472 42.9742 33.06 43.1377 33.0802C43.14 33.0802 43.1415 33.0802 43.1438 33.0802C47.5672 33.6458 51 37.4258 51 42C51 44.0025 50.3348 45.8482 49.224 47.3452C48.8122 47.901 48.3435 48.408 47.8192 48.8535C47.8177 48.855 47.8162 48.8558 47.8148 48.8573C47.6655 48.984 47.5088 49.1017 47.352 49.2188C45.8543 50.3325 44.0055 51 42 51C37.0373 51 33 46.9627 33 42ZM56.1593 57C55.9342 57 55.7235 56.913 55.5645 56.754L48.7995 49.989C48.8798 49.9207 48.9533 49.8457 49.0312 49.7752C49.2915 49.5397 49.539 49.2915 49.7752 49.0312C49.8457 48.9533 49.9207 48.8798 49.989 48.7995L56.754 55.5645C56.91 55.7212 57 55.938 57 56.1593C57 56.6227 56.6227 57 56.1593 57Z" fill="#A2CB94"/>
<path d="M49.3344 42.471C49.5557 42.1957 49.5557 41.8043 49.3344 41.529C49.2017 41.3648 46.0404 37.5 42.0002 37.5C37.9599 37.5 34.7987 41.3648 34.6659 41.529C34.4447 41.8043 34.4447 42.1957 34.6659 42.471C34.7987 42.6352 37.9599 46.5 42.0002 46.5C46.0404 46.5 49.2017 42.6352 49.3344 42.471ZM36.2597 42C37.1709 41.0505 39.4382 39 42.0002 39C44.5622 39 46.8294 41.0505 47.7407 42C46.8294 42.9495 44.5622 45 42.0002 45C39.4382 45 37.1709 42.9495 36.2597 42Z" fill="#A2CB94"/>
<path d="M39 42C39 43.6545 40.3455 45 42 45C43.6545 45 45 43.6545 45 42C45 41.5852 44.664 41.25 44.25 41.25C43.8368 41.25 43.5 40.914 43.5 40.5C43.5 40.401 43.5195 40.3043 43.5577 40.212C43.7175 39.8303 43.5368 39.3907 43.1543 39.231C42.7868 39.078 42.3983 39 42 39C40.3455 39 39 40.3455 39 42ZM42 40.5C42 41.4337 42.5723 42.237 43.3845 42.5775C43.158 43.1183 42.6233 43.5 42 43.5C41.1727 43.5 40.5 42.8273 40.5 42C40.5 41.1727 41.1727 40.5 42 40.5Z" fill="#A2CB94"/>
<path d="M51 33C51 33.4148 51.336 33.75 51.75 33.75C52.164 33.75 52.5 33.4148 52.5 33C52.5 31.3455 53.8455 30 55.5 30C55.914 30 56.25 29.6648 56.25 29.25C56.25 28.8352 55.914 28.5 55.5 28.5C53.8455 28.5 52.5 27.1545 52.5 25.5C52.5 25.0853 52.164 24.75 51.75 24.75C51.336 24.75 51 25.0853 51 25.5C51 27.1545 49.6545 28.5 48 28.5C47.586 28.5 47.25 28.8352 47.25 29.25C47.25 29.6648 47.586 30 48 30C49.6545 30 51 31.3455 51 33ZM51.75 27.9847C52.083 28.4857 52.5143 28.9163 53.0153 29.25C52.5143 29.583 52.0837 30.0143 51.75 30.5153C51.417 30.0143 50.9857 29.5837 50.4847 29.25C50.9857 28.917 51.417 28.4857 51.75 27.9847Z" fill="#A2CB94"/>
<path d="M30.75 47.25C29.0955 47.25 27.75 45.9045 27.75 44.25C27.75 43.8353 27.414 43.5 27 43.5C26.586 43.5 26.25 43.8353 26.25 44.25C26.25 45.9045 24.9045 47.25 23.25 47.25C22.836 47.25 22.5 47.5852 22.5 48C22.5 48.4148 22.836 48.75 23.25 48.75C24.9045 48.75 26.25 50.0955 26.25 51.75C26.25 52.1648 26.586 52.5 27 52.5C27.414 52.5 27.75 52.1648 27.75 51.75C27.75 50.0955 29.0955 48.75 30.75 48.75C31.164 48.75 31.5 48.4148 31.5 48C31.5 47.5852 31.164 47.25 30.75 47.25ZM27 49.2653C26.667 48.7643 26.2357 48.3337 25.7347 48C26.2357 47.667 26.6663 47.2357 27 46.7347C27.333 47.2357 27.7643 47.6663 28.2653 48C27.7643 48.333 27.333 48.7643 27 49.2653Z" fill="#A2CB94"/>
</svg>
