<svg width="320" height="150" viewBox="0 0 320 150" fill="none" xmlns="http://www.w3.org/2000/svg">
<g filter="url(#filter0_d_3918_11366)">
<g clip-path="url(#clip0_3918_11366)">
<rect x="204.929" y="21.9289" width="77.2763" height="77.2763" rx="3.07" fill="url(#paint0_linear_3918_11366)" shape-rendering="crispEdges"/>
<path d="M288.107 21.9287H272.383L288.107 36.848V21.9287Z" fill="#22338A"/>
<path d="M211.368 42.4555H274.96" stroke="#D7D8DD" stroke-width="3.00654"/>
<path d="M211.368 53.3224H246.786" stroke="#D7D8DD" stroke-width="3.00654"/>
<path d="M227.424 62.7563V67.3543H232.833V69.4504H227.424V74.2512H233.509V76.3473H224.854V60.6602H233.509V62.7563H227.424ZM244.811 76.3473L241.205 70.0815H239.244V76.3473H236.674V60.6827H242.084C243.286 60.6827 244.3 60.8931 245.126 61.3138C245.968 61.7346 246.591 62.298 246.997 63.0043C247.418 63.7105 247.628 64.4993 247.628 65.3708C247.628 66.3926 247.328 67.3242 246.727 68.1657C246.141 68.9921 245.231 69.5556 243.999 69.8561L247.876 76.3473H244.811ZM239.244 68.0304H242.084C243.045 68.0304 243.766 67.79 244.247 67.3092C244.743 66.8284 244.991 66.1822 244.991 65.3708C244.991 64.5594 244.751 63.9284 244.27 63.4776C243.789 63.0118 243.06 62.7789 242.084 62.7789H239.244V68.0304ZM261.869 65.3483C261.869 66.1447 261.681 66.896 261.306 67.6022C260.93 68.3084 260.329 68.8869 259.502 69.3377C258.676 69.7734 257.617 69.9913 256.324 69.9913H253.485V76.3473H250.915V60.6827H256.324C257.527 60.6827 258.541 60.8931 259.367 61.3138C260.209 61.7195 260.832 62.2755 261.238 62.9817C261.659 63.6879 261.869 64.4768 261.869 65.3483ZM256.324 67.8952C257.301 67.8952 258.03 67.6773 258.511 67.2416C258.992 66.7908 259.232 66.1597 259.232 65.3483C259.232 63.6353 258.263 62.7789 256.324 62.7789H253.485V67.8952H256.324Z" fill="#737373"/>
<path d="M270.936 19.5139V32.3933H283.812L270.936 19.5139Z" fill="#737373"/>
</g>
</g>
<rect x="217.245" y="13.2637" width="3" height="8.53121" fill="#C0C0C7"/>
<circle cx="218.572" cy="7.39841" r="6.39841" fill="#C0C0C7"/>
<circle cx="218.572" cy="7.39793" r="3.1992" fill="#22338A"/>
<rect x="241.312" y="13.2637" width="3" height="8.53121" fill="#C0C0C7"/>
<circle cx="242.639" cy="7.39841" r="6.39841" fill="#C0C0C7"/>
<circle cx="242.639" cy="7.39815" r="3.1992" fill="#22338A"/>
<rect x="265.378" y="13.2637" width="3" height="8.53121" fill="#C0C0C7"/>
<circle cx="266.705" cy="7.39841" r="6.39841" fill="#C0C0C7"/>
<circle cx="266.705" cy="7.39815" r="3.1992" fill="#22338A"/>
<rect x="269.825" y="107.736" width="3" height="8.53121" transform="rotate(-180 269.825 107.736)" fill="#C0C0C7"/>
<circle cx="268.692" cy="113.602" r="6.39841" transform="rotate(-180 268.692 113.602)" fill="#C0C0C7"/>
<circle cx="268.693" cy="113.602" r="3.1992" transform="rotate(-180 268.693 113.602)" fill="#22338A"/>
<rect x="244.765" y="107.736" width="3" height="8.53121" transform="rotate(-180 244.765 107.736)" fill="#C0C0C7"/>
<circle cx="243.632" cy="113.602" r="6.39841" transform="rotate(-180 243.632 113.602)" fill="#C0C0C7"/>
<circle cx="243.632" cy="113.602" r="3.1992" transform="rotate(-180 243.632 113.602)" fill="#22338A"/>
<rect x="219.704" y="107.736" width="3" height="8.53121" transform="rotate(-180 219.704 107.736)" fill="#C0C0C7"/>
<circle cx="218.571" cy="113.602" r="6.39841" transform="rotate(-180 218.571 113.602)" fill="#C0C0C7"/>
<circle cx="218.571" cy="113.602" r="3.1992" transform="rotate(-180 218.571 113.602)" fill="#22338A"/>
<rect x="196.264" y="90.9149" width="3" height="8.53121" transform="rotate(-90 196.264 90.9149)" fill="#C0C0C7"/>
<circle cx="190.398" cy="88.7821" r="6.39841" transform="rotate(-90 190.398 88.7821)" fill="#C0C0C7"/>
<circle cx="190.398" cy="88.7824" r="3.1992" transform="rotate(-90 190.398 88.7824)" fill="#22338A"/>
<rect x="196.264" y="66.8486" width="3" height="8.53121" transform="rotate(-90 196.264 66.8486)" fill="#C0C0C7"/>
<circle cx="190.398" cy="64.7158" r="6.39841" transform="rotate(-90 190.398 64.7158)" fill="#C0C0C7"/>
<circle cx="190.398" cy="64.7159" r="3.1992" transform="rotate(-90 190.398 64.7159)" fill="#22338A"/>
<rect x="196.264" y="42.7823" width="3" height="8.53121" transform="rotate(-90 196.264 42.7823)" fill="#C0C0C7"/>
<circle cx="190.398" cy="40.6495" r="6.39841" transform="rotate(-90 190.398 40.6495)" fill="#C0C0C7"/>
<circle cx="190.398" cy="40.6501" r="3.1992" transform="rotate(-90 190.398 40.6501)" fill="#22338A"/>
<rect x="290.736" y="37.4638" width="3" height="8.53121" transform="rotate(90 290.736 37.4638)" fill="#C0C0C7"/>
<circle cx="296.602" cy="38.7919" r="6.39841" transform="rotate(90 296.602 38.7919)" fill="#C0C0C7"/>
<circle cx="296.603" cy="38.7915" r="3.1992" transform="rotate(90 296.603 38.7915)" fill="#22338A"/>
<rect x="290.736" y="62.3353" width="3" height="8.53121" transform="rotate(90 290.736 62.3353)" fill="#C0C0C7"/>
<circle cx="296.602" cy="62.8582" r="6.39841" transform="rotate(90 296.602 62.8582)" fill="#C0C0C7"/>
<circle cx="296.603" cy="62.8579" r="3.1992" transform="rotate(90 296.603 62.8579)" fill="#22338A"/>
<rect x="290.736" y="84.7917" width="3" height="8.53121" transform="rotate(90 290.736 84.7917)" fill="#C0C0C7"/>
<circle cx="296.602" cy="86.9244" r="6.39841" transform="rotate(90 296.602 86.9244)" fill="#C0C0C7"/>
<circle cx="296.603" cy="86.9241" r="3.1992" transform="rotate(90 296.603 86.9241)" fill="#22338A"/>
<rect x="317" y="91" width="4" height="4" rx="1" transform="rotate(-180 317 91)" fill="#F3F2F3"/>
<rect x="317" y="79" width="4" height="4" rx="1" transform="rotate(-180 317 79)" fill="#F3F2F3"/>
<rect x="317" y="67" width="4" height="4" rx="1" transform="rotate(-180 317 67)" fill="#F3F2F3"/>
<rect x="317" y="55" width="4" height="4" rx="1" transform="rotate(-180 317 55)" fill="#F3F2F3"/>
<rect x="317" y="43" width="4" height="4" rx="1" transform="rotate(-180 317 43)" fill="#F3F2F3"/>
<circle opacity="0.64" r="23.9444" transform="matrix(-4.37114e-08 -1 -1 4.37114e-08 78.9999 65)" stroke="#FF553E"/>
<circle r="29.5" transform="matrix(-4.37114e-08 -1 -1 4.37114e-08 79 65)" stroke="#F43318" stroke-opacity="0.16"/>
<circle r="18.8889" transform="matrix(-4.37114e-08 -1 -1 4.37114e-08 79.1111 65.1113)" fill="#FF553E"/>
<path d="M80 56L76 65.1698H81L77.3333 74" stroke="white" stroke-width="2"/>
<path fill-rule="evenodd" clip-rule="evenodd" d="M81 23L164 23V21L81 21C79.3431 21 78 22.3431 78 24V35.0164C78.332 35.0055 78.6654 35 79 35C79.3346 35 79.668 35.0055 80 35.0164V24C80 23.4477 80.4477 23 81 23ZM80 36.0169C79.6681 36.0057 79.3347 36 79 36C78.6653 36 78.3319 36.0057 78 36.0169V40.5757C78.3316 40.5623 78.665 40.5556 78.9999 40.5556C79.3349 40.5556 79.6683 40.5623 80 40.5757V36.0169ZM80 89.4244V93.9831C79.6681 93.9943 79.3347 94 79 94C78.6653 94 78.3319 93.9943 78 93.9831V89.4244C78.3316 89.4377 78.665 89.4445 78.9999 89.4445C79.3349 89.4445 79.6683 89.4377 80 89.4244ZM80 41.5765C79.6684 41.5626 79.335 41.5556 78.9999 41.5556C78.6649 41.5556 78.3316 41.5626 78 41.5765V46.2546C78.3676 46.2333 78.7381 46.2225 79.1111 46.2225C79.4091 46.2225 79.7054 46.2294 80 46.243V41.5765ZM80 83.9797V88.4235C79.6684 88.4374 79.335 88.4445 78.9999 88.4445C78.6649 88.4445 78.3316 88.4374 78 88.4235V83.9681C78.3676 83.9894 78.7381 84.0002 79.1111 84.0002C79.4091 84.0002 79.7054 83.9933 80 83.9797ZM78 94.9837C78.332 94.9945 78.6654 95 79 95C79.3346 95 79.668 94.9945 80 94.9837V105C80 106.657 78.6569 108 77 108L0 108L8.74224e-08 106L77 106C77.5523 106 78 105.552 78 105V94.9837Z" fill="url(#paint1_linear_3918_11366)"/>
<path d="M166.49 141.1C166.49 140.139 166.705 139.28 167.134 138.524C167.573 137.759 168.165 137.166 168.912 136.746C169.668 136.317 170.513 136.102 171.446 136.102C172.538 136.102 173.495 136.382 174.316 136.942C175.137 137.502 175.711 138.277 176.038 139.266H173.784C173.56 138.799 173.243 138.449 172.832 138.216C172.431 137.983 171.964 137.866 171.432 137.866C170.863 137.866 170.354 138.001 169.906 138.272C169.467 138.533 169.122 138.907 168.87 139.392C168.627 139.877 168.506 140.447 168.506 141.1C168.506 141.744 168.627 142.313 168.87 142.808C169.122 143.293 169.467 143.671 169.906 143.942C170.354 144.203 170.863 144.334 171.432 144.334C171.964 144.334 172.431 144.217 172.832 143.984C173.243 143.741 173.56 143.387 173.784 142.92H176.038C175.711 143.919 175.137 144.698 174.316 145.258C173.504 145.809 172.547 146.084 171.446 146.084C170.513 146.084 169.668 145.874 168.912 145.454C168.165 145.025 167.573 144.432 167.134 143.676C166.705 142.92 166.49 142.061 166.49 141.1ZM185.034 138.244V146H183.06V145.02C182.808 145.356 182.477 145.622 182.066 145.818C181.665 146.005 181.226 146.098 180.75 146.098C180.143 146.098 179.607 145.972 179.14 145.72C178.673 145.459 178.305 145.081 178.034 144.586C177.773 144.082 177.642 143.485 177.642 142.794V138.244H179.602V142.514C179.602 143.13 179.756 143.606 180.064 143.942C180.372 144.269 180.792 144.432 181.324 144.432C181.865 144.432 182.29 144.269 182.598 143.942C182.906 143.606 183.06 143.13 183.06 142.514V138.244H185.034ZM189.936 146.126C189.301 146.126 188.732 146.014 188.228 145.79C187.724 145.557 187.323 145.244 187.024 144.852C186.735 144.46 186.576 144.026 186.548 143.55H188.522C188.559 143.849 188.704 144.096 188.956 144.292C189.217 144.488 189.539 144.586 189.922 144.586C190.295 144.586 190.585 144.511 190.79 144.362C191.005 144.213 191.112 144.021 191.112 143.788C191.112 143.536 190.981 143.349 190.72 143.228C190.468 143.097 190.062 142.957 189.502 142.808C188.923 142.668 188.447 142.523 188.074 142.374C187.71 142.225 187.393 141.996 187.122 141.688C186.861 141.38 186.73 140.965 186.73 140.442C186.73 140.013 186.851 139.621 187.094 139.266C187.346 138.911 187.701 138.631 188.158 138.426C188.625 138.221 189.171 138.118 189.796 138.118C190.72 138.118 191.457 138.351 192.008 138.818C192.559 139.275 192.862 139.896 192.918 140.68H191.042C191.014 140.372 190.883 140.129 190.65 139.952C190.426 139.765 190.123 139.672 189.74 139.672C189.385 139.672 189.11 139.737 188.914 139.868C188.727 139.999 188.634 140.181 188.634 140.414C188.634 140.675 188.765 140.876 189.026 141.016C189.287 141.147 189.693 141.282 190.244 141.422C190.804 141.562 191.266 141.707 191.63 141.856C191.994 142.005 192.307 142.239 192.568 142.556C192.839 142.864 192.979 143.275 192.988 143.788C192.988 144.236 192.862 144.637 192.61 144.992C192.367 145.347 192.013 145.627 191.546 145.832C191.089 146.028 190.552 146.126 189.936 146.126ZM196.879 139.854V143.606C196.879 143.867 196.94 144.059 197.061 144.18C197.192 144.292 197.406 144.348 197.705 144.348H198.615V146H197.383C195.731 146 194.905 145.197 194.905 143.592V139.854H193.981V138.244H194.905V136.326H196.879V138.244H198.615V139.854H196.879ZM203.469 146.126C202.722 146.126 202.05 145.963 201.453 145.636C200.855 145.3 200.384 144.829 200.039 144.222C199.703 143.615 199.535 142.915 199.535 142.122C199.535 141.329 199.707 140.629 200.053 140.022C200.407 139.415 200.888 138.949 201.495 138.622C202.101 138.286 202.778 138.118 203.525 138.118C204.271 138.118 204.948 138.286 205.555 138.622C206.161 138.949 206.637 139.415 206.983 140.022C207.337 140.629 207.515 141.329 207.515 142.122C207.515 142.915 207.333 143.615 206.969 144.222C206.614 144.829 206.129 145.3 205.513 145.636C204.906 145.963 204.225 146.126 203.469 146.126ZM203.469 144.418C203.823 144.418 204.155 144.334 204.463 144.166C204.78 143.989 205.032 143.727 205.219 143.382C205.405 143.037 205.499 142.617 205.499 142.122C205.499 141.385 205.303 140.82 204.911 140.428C204.528 140.027 204.057 139.826 203.497 139.826C202.937 139.826 202.465 140.027 202.083 140.428C201.709 140.82 201.523 141.385 201.523 142.122C201.523 142.859 201.705 143.429 202.069 143.83C202.442 144.222 202.909 144.418 203.469 144.418ZM218.584 138.132C219.536 138.132 220.302 138.426 220.88 139.014C221.468 139.593 221.762 140.405 221.762 141.45V146H219.802V141.716C219.802 141.109 219.648 140.647 219.34 140.33C219.032 140.003 218.612 139.84 218.08 139.84C217.548 139.84 217.124 140.003 216.806 140.33C216.498 140.647 216.344 141.109 216.344 141.716V146H214.384V141.716C214.384 141.109 214.23 140.647 213.922 140.33C213.614 140.003 213.194 139.84 212.662 139.84C212.121 139.84 211.692 140.003 211.374 140.33C211.066 140.647 210.912 141.109 210.912 141.716V146H208.952V138.244H210.912V139.182C211.164 138.855 211.486 138.599 211.878 138.412C212.28 138.225 212.718 138.132 213.194 138.132C213.801 138.132 214.342 138.263 214.818 138.524C215.294 138.776 215.663 139.14 215.924 139.616C216.176 139.168 216.54 138.809 217.016 138.538C217.502 138.267 218.024 138.132 218.584 138.132ZM224.616 137.32C224.271 137.32 223.982 137.213 223.748 136.998C223.524 136.774 223.412 136.499 223.412 136.172C223.412 135.845 223.524 135.575 223.748 135.36C223.982 135.136 224.271 135.024 224.616 135.024C224.962 135.024 225.246 135.136 225.47 135.36C225.704 135.575 225.82 135.845 225.82 136.172C225.82 136.499 225.704 136.774 225.47 136.998C225.246 137.213 224.962 137.32 224.616 137.32ZM225.582 138.244V146H223.622V138.244H225.582ZM229.311 144.39H232.769V146H227.085V144.418L230.473 139.854H227.099V138.244H232.727V139.826L229.311 144.39ZM235.28 137.32C234.935 137.32 234.646 137.213 234.412 136.998C234.188 136.774 234.076 136.499 234.076 136.172C234.076 135.845 234.188 135.575 234.412 135.36C234.646 135.136 234.935 135.024 235.28 135.024C235.626 135.024 235.91 135.136 236.134 135.36C236.368 135.575 236.484 135.845 236.484 136.172C236.484 136.499 236.368 136.774 236.134 136.998C235.91 137.213 235.626 137.32 235.28 137.32ZM236.246 138.244V146H234.286V138.244H236.246ZM242.481 138.132C243.405 138.132 244.151 138.426 244.721 139.014C245.29 139.593 245.575 140.405 245.575 141.45V146H243.615V141.716C243.615 141.1 243.461 140.629 243.153 140.302C242.845 139.966 242.425 139.798 241.893 139.798C241.351 139.798 240.922 139.966 240.605 140.302C240.297 140.629 240.143 141.1 240.143 141.716V146H238.183V138.244H240.143V139.21C240.404 138.874 240.735 138.613 241.137 138.426C241.547 138.23 241.995 138.132 242.481 138.132ZM250.477 138.118C251.055 138.118 251.564 138.235 252.003 138.468C252.441 138.692 252.787 138.986 253.039 139.35V138.244H255.013V146.056C255.013 146.775 254.868 147.414 254.579 147.974C254.289 148.543 253.855 148.991 253.277 149.318C252.698 149.654 251.998 149.822 251.177 149.822C250.075 149.822 249.17 149.565 248.461 149.052C247.761 148.539 247.364 147.839 247.271 146.952H249.217C249.319 147.307 249.539 147.587 249.875 147.792C250.22 148.007 250.635 148.114 251.121 148.114C251.69 148.114 252.152 147.941 252.507 147.596C252.861 147.26 253.039 146.747 253.039 146.056V144.852C252.787 145.216 252.437 145.519 251.989 145.762C251.55 146.005 251.046 146.126 250.477 146.126C249.823 146.126 249.226 145.958 248.685 145.622C248.143 145.286 247.714 144.815 247.397 144.208C247.089 143.592 246.935 142.887 246.935 142.094C246.935 141.31 247.089 140.615 247.397 140.008C247.714 139.401 248.139 138.935 248.671 138.608C249.212 138.281 249.814 138.118 250.477 138.118ZM253.039 142.122C253.039 141.646 252.945 141.24 252.759 140.904C252.572 140.559 252.32 140.297 252.003 140.12C251.685 139.933 251.345 139.84 250.981 139.84C250.617 139.84 250.281 139.929 249.973 140.106C249.665 140.283 249.413 140.545 249.217 140.89C249.03 141.226 248.937 141.627 248.937 142.094C248.937 142.561 249.03 142.971 249.217 143.326C249.413 143.671 249.665 143.937 249.973 144.124C250.29 144.311 250.626 144.404 250.981 144.404C251.345 144.404 251.685 144.315 252.003 144.138C252.32 143.951 252.572 143.69 252.759 143.354C252.945 143.009 253.039 142.598 253.039 142.122ZM267.683 138.244L262.881 149.668H260.795L262.475 145.804L259.367 138.244H261.565L263.567 143.662L265.597 138.244H267.683ZM272.183 146.126C271.437 146.126 270.765 145.963 270.167 145.636C269.57 145.3 269.099 144.829 268.753 144.222C268.417 143.615 268.249 142.915 268.249 142.122C268.249 141.329 268.422 140.629 268.767 140.022C269.122 139.415 269.603 138.949 270.209 138.622C270.816 138.286 271.493 138.118 272.239 138.118C272.986 138.118 273.663 138.286 274.269 138.622C274.876 138.949 275.352 139.415 275.697 140.022C276.052 140.629 276.229 141.329 276.229 142.122C276.229 142.915 276.047 143.615 275.683 144.222C275.329 144.829 274.843 145.3 274.227 145.636C273.621 145.963 272.939 146.126 272.183 146.126ZM272.183 144.418C272.538 144.418 272.869 144.334 273.177 144.166C273.495 143.989 273.747 143.727 273.933 143.382C274.12 143.037 274.213 142.617 274.213 142.122C274.213 141.385 274.017 140.82 273.625 140.428C273.243 140.027 272.771 139.826 272.211 139.826C271.651 139.826 271.18 140.027 270.797 140.428C270.424 140.82 270.237 141.385 270.237 142.122C270.237 142.859 270.419 143.429 270.783 143.83C271.157 144.222 271.623 144.418 272.183 144.418ZM284.989 138.244V146H283.015V145.02C282.763 145.356 282.432 145.622 282.021 145.818C281.62 146.005 281.181 146.098 280.705 146.098C280.099 146.098 279.562 145.972 279.095 145.72C278.629 145.459 278.26 145.081 277.989 144.586C277.728 144.082 277.597 143.485 277.597 142.794V138.244H279.557V142.514C279.557 143.13 279.711 143.606 280.019 143.942C280.327 144.269 280.747 144.432 281.279 144.432C281.821 144.432 282.245 144.269 282.553 143.942C282.861 143.606 283.015 143.13 283.015 142.514V138.244H284.989ZM288.883 139.448C289.135 139.037 289.462 138.715 289.863 138.482C290.274 138.249 290.74 138.132 291.263 138.132V140.19H290.745C290.129 140.19 289.662 140.335 289.345 140.624C289.037 140.913 288.883 141.417 288.883 142.136V146H286.923V138.244H288.883V139.448ZM297.879 137.81V140.26H301.169V141.814H297.879V144.404H301.589V146H295.919V136.214H301.589V137.81H297.879ZM308.41 146L306.254 142.192H305.33V146H303.37V136.228H307.038C307.794 136.228 308.438 136.363 308.97 136.634C309.502 136.895 309.899 137.255 310.16 137.712C310.431 138.16 310.566 138.664 310.566 139.224C310.566 139.868 310.38 140.451 310.006 140.974C309.633 141.487 309.078 141.842 308.34 142.038L310.678 146H308.41ZM305.33 140.722H306.968C307.5 140.722 307.897 140.596 308.158 140.344C308.42 140.083 308.55 139.723 308.55 139.266C308.55 138.818 308.42 138.473 308.158 138.23C307.897 137.978 307.5 137.852 306.968 137.852H305.33V140.722ZM319.465 139.252C319.465 139.775 319.339 140.265 319.087 140.722C318.844 141.179 318.457 141.548 317.925 141.828C317.402 142.108 316.74 142.248 315.937 142.248H314.299V146H312.339V136.228H315.937C316.693 136.228 317.337 136.359 317.869 136.62C318.401 136.881 318.798 137.241 319.059 137.698C319.33 138.155 319.465 138.673 319.465 139.252ZM315.853 140.666C316.394 140.666 316.796 140.545 317.057 140.302C317.318 140.05 317.449 139.7 317.449 139.252C317.449 138.3 316.917 137.824 315.853 137.824H314.299V140.666H315.853Z" fill="#D5D7E5"/>
<defs>
<filter id="filter0_d_3918_11366" x="180.929" y="1.92892" width="125.276" height="125.276" filterUnits="userSpaceOnUse" color-interpolation-filters="sRGB">
<feFlood flood-opacity="0" result="BackgroundImageFix"/>
<feColorMatrix in="SourceAlpha" type="matrix" values="0 0 0 0 0 0 0 0 0 0 0 0 0 0 0 0 0 0 127 0" result="hardAlpha"/>
<feOffset dy="4"/>
<feGaussianBlur stdDeviation="12"/>
<feComposite in2="hardAlpha" operator="out"/>
<feColorMatrix type="matrix" values="0 0 0 0 0.0156863 0 0 0 0 0.0470588 0 0 0 0 0.176471 0 0 0 0.25 0"/>
<feBlend mode="normal" in2="BackgroundImageFix" result="effect1_dropShadow_3918_11366"/>
<feBlend mode="normal" in="SourceGraphic" in2="effect1_dropShadow_3918_11366" result="shape"/>
</filter>
<linearGradient id="paint0_linear_3918_11366" x1="243.567" y1="21.9289" x2="244" y2="134.5" gradientUnits="userSpaceOnUse">
<stop offset="0.378637" stop-color="#F5F7FA"/>
<stop offset="1" stop-color="#F5F7FA" stop-opacity="0"/>
</linearGradient>
<linearGradient id="paint1_linear_3918_11366" x1="185.84" y1="1.00003" x2="-1.02025e-05" y2="1.00002" gradientUnits="userSpaceOnUse">
<stop stop-color="#F43318"/>
<stop offset="1" stop-color="#F43318" stop-opacity="0"/>
</linearGradient>
<clipPath id="clip0_3918_11366">
<rect x="204.929" y="21.9289" width="77.2763" height="77.2763" rx="3.07" fill="white"/>
</clipPath>
</defs>
</svg>
