<svg width="256" height="195" viewBox="0 0 256 195" fill="none" xmlns="http://www.w3.org/2000/svg">
<circle opacity="0.64" cx="78.9999" cy="111" r="23.9444" transform="rotate(90 78.9999 111)" stroke="#FF553E"/>
<circle cx="79" cy="111" r="29.5" transform="rotate(90 79 111)" stroke="#F43318" stroke-opacity="0.16"/>
<circle cx="79.1111" cy="110.889" r="18.8889" transform="rotate(90 79.1111 110.889)" fill="#FF553E"/>
<path d="M79 114.5L79 103" stroke="white" stroke-width="2"/>
<rect x="77.875" y="118.875" width="2.25" height="2.25" fill="white" stroke="white" stroke-width="0.25"/>
<path fill-rule="evenodd" clip-rule="evenodd" d="M108.996 110.5H117V108.5H108.897C108.952 109.161 108.985 109.828 108.996 110.5ZM81 140.934V168.5C81 170.157 79.6569 171.5 78 171.5L3 171.5C2.44771 171.5 2 171.948 2 172.5L2 191L0 191L8.08661e-07 172.5C8.81084e-07 170.843 1.34314 169.5 3 169.5L78 169.5C78.5523 169.5 79 169.052 79 168.5L79 141C79.6721 141 80.339 140.978 81 140.934ZM107.894 108.5C107.95 109.161 107.984 109.828 107.996 110.5H103.439C103.426 109.826 103.385 109.159 103.318 108.5H107.894ZM79 135.444L79 140C79.6722 140 80.3392 139.977 81 139.932V135.364C80.3404 135.417 79.6734 135.444 79 135.444ZM102.313 108.5C102.382 109.159 102.425 109.826 102.439 110.5H97.9961C97.9824 109.824 97.9333 109.157 97.8504 108.5H102.313ZM79 129.777V134.444C79.6737 134.444 80.3407 134.416 81 134.36V129.684C80.3787 129.746 79.7486 129.778 79.1111 129.778C79.074 129.778 79.037 129.777 79 129.777Z" fill="url(#paint0_linear_3918_10797)"/>
<g filter="url(#filter0_d_3918_10797)">
<path d="M143.5 34.425H132C130.895 34.425 130 35.3204 130 36.425V84.4C130 85.5046 130.895 86.4 132 86.4H143.5V34.425Z" fill="url(#paint1_linear_3918_10797)"/>
<path d="M143.5 45.6989H134.05" stroke="#D7D8DD" stroke-width="3.73501"/>
<path d="M143.5 54.6466H134.05" stroke="#D7D8DD" stroke-width="3.73501"/>
<path d="M143.5 63.5943H134.05" stroke="#D7D8DD" stroke-width="3.73501"/>
<path d="M143.5 72.5682H134.05" stroke="#D7D8DD" stroke-width="3.73501"/>
<path d="M184 33.75L143.5 27V88.0891C143.5 89.325 144.61 90.265 145.829 90.0619L184 83.7V33.75Z" fill="url(#paint2_linear_3918_10797)"/>
<path d="M163.037 67.5864L166.706 61.8759L169.36 66.2364L173.2 65.5614L168.529 59.0328L172.598 51.975L169.36 51.3L166.366 56.3112L163.061 49.95L159.222 49.275L164.544 59.1543L159.125 68.2614L163.037 67.5864Z" fill="#BABABC"/>
</g>
<g filter="url(#filter1_d_3918_10797)">
<path d="M203.75 28.8125H197C195.895 28.8125 195 29.7079 195 30.8125V60.5C195 61.6045 195.895 62.5 197 62.5H203.75V28.8125Z" fill="url(#paint3_linear_3918_10797)"/>
<path d="M203.75 36.2864H197.625" stroke="#D7D8DD" stroke-width="3.73501"/>
<path d="M203.75 45.234H197.625" stroke="#D7D8DD" stroke-width="3.73501"/>
<path d="M203.75 54.1817H197.625" stroke="#D7D8DD" stroke-width="3.73501"/>
<path d="M203.75 63.1556H197.625" stroke="#D7D8DD" stroke-width="3.73501"/>
<path d="M230 28.375L203.75 24V62.764C203.75 63.9999 204.86 64.94 206.079 64.7368L230 60.75V28.375Z" fill="url(#paint4_linear_3918_10797)"/>
<path d="M216.413 50.3059L218.791 46.6047L220.512 49.4309L223 48.9934L219.973 44.7619L222.61 40.1874L220.512 39.7499L218.571 42.9979L216.429 38.8749L213.94 38.4374L217.39 44.8407L213.877 50.7434L216.413 50.3059Z" fill="#BABABC"/>
</g>
<g filter="url(#filter2_d_3918_10797)">
<path d="M189.17 58.7021H170.192C168.923 58.7021 167.893 59.7314 167.893 61.001V138.318C167.893 139.588 168.923 140.617 170.192 140.617H189.17V58.7021Z" fill="url(#paint5_linear_3918_10797)"/>
<path d="M189.17 76.2681H174.276" stroke="#D7D8DD" stroke-width="4.29311"/>
<path d="M189.17 86.5528H174.276" stroke="#D7D8DD" stroke-width="4.29311"/>
<path d="M189.17 96.8376H174.276" stroke="#D7D8DD" stroke-width="4.29311"/>
<path d="M189.17 107.152H174.276" stroke="#D7D8DD" stroke-width="4.29311"/>
<path d="M253 57.6383L189.17 47V144.286C189.17 145.707 190.446 146.787 191.847 146.554L253 136.362V57.6383Z" fill="url(#paint6_linear_3918_10797)"/>
<path d="M219.961 110.966L225.744 101.966L229.927 108.838L235.979 107.774L228.617 97.4851L235.03 86.3617L229.927 85.2979L225.208 93.1957L220 83.1702L213.949 82.1064L222.336 97.6766L213.796 112.03L219.961 110.966Z" fill="#BABABC"/>
</g>
<path d="M135.664 163.228V170.088C135.664 171.04 135.389 171.782 134.838 172.314C134.287 172.837 133.55 173.098 132.626 173.098C131.693 173.098 130.937 172.827 130.358 172.286C129.789 171.745 129.504 170.989 129.504 170.018H131.464C131.473 170.438 131.571 170.765 131.758 170.998C131.954 171.231 132.234 171.348 132.598 171.348C132.953 171.348 133.223 171.236 133.41 171.012C133.597 170.788 133.69 170.48 133.69 170.088V163.228H135.664ZM145.272 165.244V173H143.298V172.02C143.046 172.356 142.715 172.622 142.304 172.818C141.903 173.005 141.464 173.098 140.988 173.098C140.382 173.098 139.845 172.972 139.378 172.72C138.912 172.459 138.543 172.081 138.272 171.586C138.011 171.082 137.88 170.485 137.88 169.794V165.244H139.84V169.514C139.84 170.13 139.994 170.606 140.302 170.942C140.61 171.269 141.03 171.432 141.562 171.432C142.104 171.432 142.528 171.269 142.836 170.942C143.144 170.606 143.298 170.13 143.298 169.514V165.244H145.272ZM150.244 165.118C150.823 165.118 151.332 165.235 151.77 165.468C152.209 165.692 152.554 165.986 152.806 166.35V165.244H154.78V173.056C154.78 173.775 154.636 174.414 154.346 174.974C154.057 175.543 153.623 175.991 153.044 176.318C152.466 176.654 151.766 176.822 150.944 176.822C149.843 176.822 148.938 176.565 148.228 176.052C147.528 175.539 147.132 174.839 147.038 173.952H148.984C149.087 174.307 149.306 174.587 149.642 174.792C149.988 175.007 150.403 175.114 150.888 175.114C151.458 175.114 151.92 174.941 152.274 174.596C152.629 174.26 152.806 173.747 152.806 173.056V171.852C152.554 172.216 152.204 172.519 151.756 172.762C151.318 173.005 150.814 173.126 150.244 173.126C149.591 173.126 148.994 172.958 148.452 172.622C147.911 172.286 147.482 171.815 147.164 171.208C146.856 170.592 146.702 169.887 146.702 169.094C146.702 168.31 146.856 167.615 147.164 167.008C147.482 166.401 147.906 165.935 148.438 165.608C148.98 165.281 149.582 165.118 150.244 165.118ZM152.806 169.122C152.806 168.646 152.713 168.24 152.526 167.904C152.34 167.559 152.088 167.297 151.77 167.12C151.453 166.933 151.112 166.84 150.748 166.84C150.384 166.84 150.048 166.929 149.74 167.106C149.432 167.283 149.18 167.545 148.984 167.89C148.798 168.226 148.704 168.627 148.704 169.094C148.704 169.561 148.798 169.971 148.984 170.326C149.18 170.671 149.432 170.937 149.74 171.124C150.058 171.311 150.394 171.404 150.748 171.404C151.112 171.404 151.453 171.315 151.77 171.138C152.088 170.951 152.34 170.69 152.526 170.354C152.713 170.009 152.806 169.598 152.806 169.122ZM159.733 165.118C160.311 165.118 160.82 165.235 161.259 165.468C161.697 165.692 162.043 165.986 162.295 166.35V165.244H164.269V173.056C164.269 173.775 164.124 174.414 163.835 174.974C163.545 175.543 163.111 175.991 162.533 176.318C161.954 176.654 161.254 176.822 160.433 176.822C159.331 176.822 158.426 176.565 157.717 176.052C157.017 175.539 156.62 174.839 156.527 173.952H158.473C158.575 174.307 158.795 174.587 159.131 174.792C159.476 175.007 159.891 175.114 160.377 175.114C160.946 175.114 161.408 174.941 161.763 174.596C162.117 174.26 162.295 173.747 162.295 173.056V171.852C162.043 172.216 161.693 172.519 161.245 172.762C160.806 173.005 160.302 173.126 159.733 173.126C159.079 173.126 158.482 172.958 157.941 172.622C157.399 172.286 156.97 171.815 156.653 171.208C156.345 170.592 156.191 169.887 156.191 169.094C156.191 168.31 156.345 167.615 156.653 167.008C156.97 166.401 157.395 165.935 157.927 165.608C158.468 165.281 159.07 165.118 159.733 165.118ZM162.295 169.122C162.295 168.646 162.201 168.24 162.015 167.904C161.828 167.559 161.576 167.297 161.259 167.12C160.941 166.933 160.601 166.84 160.237 166.84C159.873 166.84 159.537 166.929 159.229 167.106C158.921 167.283 158.669 167.545 158.473 167.89C158.286 168.226 158.193 168.627 158.193 169.094C158.193 169.561 158.286 169.971 158.473 170.326C158.669 170.671 158.921 170.937 159.229 171.124C159.546 171.311 159.882 171.404 160.237 171.404C160.601 171.404 160.941 171.315 161.259 171.138C161.576 170.951 161.828 170.69 162.015 170.354C162.201 170.009 162.295 169.598 162.295 169.122ZM168.143 162.64V173H166.183V162.64H168.143ZM171.073 164.32C170.728 164.32 170.439 164.213 170.205 163.998C169.981 163.774 169.869 163.499 169.869 163.172C169.869 162.845 169.981 162.575 170.205 162.36C170.439 162.136 170.728 162.024 171.073 162.024C171.419 162.024 171.703 162.136 171.927 162.36C172.161 162.575 172.277 162.845 172.277 163.172C172.277 163.499 172.161 163.774 171.927 163.998C171.703 164.213 171.419 164.32 171.073 164.32ZM172.039 165.244V173H170.079V165.244H172.039ZM178.274 165.132C179.198 165.132 179.944 165.426 180.514 166.014C181.083 166.593 181.368 167.405 181.368 168.45V173H179.408V168.716C179.408 168.1 179.254 167.629 178.946 167.302C178.638 166.966 178.218 166.798 177.686 166.798C177.144 166.798 176.715 166.966 176.398 167.302C176.09 167.629 175.936 168.1 175.936 168.716V173H173.976V165.244H175.936V166.21C176.197 165.874 176.528 165.613 176.93 165.426C177.34 165.23 177.788 165.132 178.274 165.132ZM186.27 165.118C186.848 165.118 187.357 165.235 187.796 165.468C188.234 165.692 188.58 165.986 188.832 166.35V165.244H190.806V173.056C190.806 173.775 190.661 174.414 190.372 174.974C190.082 175.543 189.648 175.991 189.07 176.318C188.491 176.654 187.791 176.822 186.97 176.822C185.868 176.822 184.963 176.565 184.254 176.052C183.554 175.539 183.157 174.839 183.064 173.952H185.01C185.112 174.307 185.332 174.587 185.668 174.792C186.013 175.007 186.428 175.114 186.914 175.114C187.483 175.114 187.945 174.941 188.3 174.596C188.654 174.26 188.832 173.747 188.832 173.056V171.852C188.58 172.216 188.23 172.519 187.782 172.762C187.343 173.005 186.839 173.126 186.27 173.126C185.616 173.126 185.019 172.958 184.478 172.622C183.936 172.286 183.507 171.815 183.19 171.208C182.882 170.592 182.728 169.887 182.728 169.094C182.728 168.31 182.882 167.615 183.19 167.008C183.507 166.401 183.932 165.935 184.464 165.608C185.005 165.281 185.607 165.118 186.27 165.118ZM188.832 169.122C188.832 168.646 188.738 168.24 188.552 167.904C188.365 167.559 188.113 167.297 187.796 167.12C187.478 166.933 187.138 166.84 186.774 166.84C186.41 166.84 186.074 166.929 185.766 167.106C185.458 167.283 185.206 167.545 185.01 167.89C184.823 168.226 184.73 168.627 184.73 169.094C184.73 169.561 184.823 169.971 185.01 170.326C185.206 170.671 185.458 170.937 185.766 171.124C186.083 171.311 186.419 171.404 186.774 171.404C187.138 171.404 187.478 171.315 187.796 171.138C188.113 170.951 188.365 170.69 188.552 170.354C188.738 170.009 188.832 169.598 188.832 169.122ZM195.86 165.482C195.907 164.549 196.233 163.83 196.84 163.326C197.456 162.813 198.263 162.556 199.262 162.556C199.943 162.556 200.527 162.677 201.012 162.92C201.497 163.153 201.861 163.475 202.104 163.886C202.356 164.287 202.482 164.745 202.482 165.258C202.482 165.846 202.328 166.345 202.02 166.756C201.721 167.157 201.362 167.428 200.942 167.568V167.624C201.483 167.792 201.903 168.091 202.202 168.52C202.51 168.949 202.664 169.5 202.664 170.172C202.664 170.732 202.533 171.231 202.272 171.67C202.02 172.109 201.642 172.454 201.138 172.706C200.643 172.949 200.046 173.07 199.346 173.07C198.291 173.07 197.433 172.804 196.77 172.272C196.107 171.74 195.757 170.956 195.72 169.92H197.624C197.643 170.377 197.797 170.746 198.086 171.026C198.385 171.297 198.791 171.432 199.304 171.432C199.78 171.432 200.144 171.301 200.396 171.04C200.657 170.769 200.788 170.424 200.788 170.004C200.788 169.444 200.611 169.043 200.256 168.8C199.901 168.557 199.351 168.436 198.604 168.436H198.198V166.826H198.604C199.929 166.826 200.592 166.383 200.592 165.496C200.592 165.095 200.471 164.782 200.228 164.558C199.995 164.334 199.654 164.222 199.206 164.222C198.767 164.222 198.427 164.343 198.184 164.586C197.951 164.819 197.815 165.118 197.778 165.482H195.86ZM204.829 170.788C205.725 170.041 206.439 169.421 206.971 168.926C207.503 168.422 207.946 167.899 208.301 167.358C208.655 166.817 208.833 166.285 208.833 165.762C208.833 165.286 208.721 164.913 208.497 164.642C208.273 164.371 207.927 164.236 207.461 164.236C206.994 164.236 206.635 164.395 206.383 164.712C206.131 165.02 206 165.445 205.991 165.986H204.087C204.124 164.866 204.455 164.017 205.081 163.438C205.715 162.859 206.518 162.57 207.489 162.57C208.553 162.57 209.369 162.855 209.939 163.424C210.508 163.984 210.793 164.726 210.793 165.65C210.793 166.378 210.597 167.073 210.205 167.736C209.813 168.399 209.365 168.977 208.861 169.472C208.357 169.957 207.699 170.545 206.887 171.236H211.017V172.86H204.101V171.404L204.829 170.788ZM217.772 164.81V167.26H221.062V168.814H217.772V171.404H221.482V173H215.812V163.214H221.482V164.81H217.772ZM227.547 173L225.951 170.592L224.537 173H222.437L224.971 169.108L222.409 165.244H224.621L226.203 167.638L227.631 165.244H229.731L227.183 169.108L229.759 173H227.547ZM230.319 169.122C230.319 168.319 230.483 167.619 230.809 167.022C231.136 166.415 231.589 165.949 232.167 165.622C232.746 165.286 233.409 165.118 234.155 165.118C235.117 165.118 235.91 165.361 236.535 165.846C237.17 166.322 237.595 166.994 237.809 167.862H235.695C235.583 167.526 235.392 167.265 235.121 167.078C234.86 166.882 234.533 166.784 234.141 166.784C233.581 166.784 233.138 166.989 232.811 167.4C232.485 167.801 232.321 168.375 232.321 169.122C232.321 169.859 232.485 170.433 232.811 170.844C233.138 171.245 233.581 171.446 234.141 171.446C234.935 171.446 235.453 171.091 235.695 170.382H237.809C237.595 171.222 237.17 171.889 236.535 172.384C235.901 172.879 235.107 173.126 234.155 173.126C233.409 173.126 232.746 172.963 232.167 172.636C231.589 172.3 231.136 171.833 230.809 171.236C230.483 170.629 230.319 169.925 230.319 169.122ZM246.455 168.954C246.455 169.234 246.437 169.486 246.399 169.71H240.729C240.776 170.27 240.972 170.709 241.317 171.026C241.663 171.343 242.087 171.502 242.591 171.502C243.319 171.502 243.837 171.189 244.145 170.564H246.259C246.035 171.311 245.606 171.927 244.971 172.412C244.337 172.888 243.557 173.126 242.633 173.126C241.887 173.126 241.215 172.963 240.617 172.636C240.029 172.3 239.567 171.829 239.231 171.222C238.905 170.615 238.741 169.915 238.741 169.122C238.741 168.319 238.905 167.615 239.231 167.008C239.558 166.401 240.015 165.935 240.603 165.608C241.191 165.281 241.868 165.118 242.633 165.118C243.371 165.118 244.029 165.277 244.607 165.594C245.195 165.911 245.648 166.364 245.965 166.952C246.292 167.531 246.455 168.198 246.455 168.954ZM244.425 168.394C244.416 167.89 244.234 167.489 243.879 167.19C243.525 166.882 243.091 166.728 242.577 166.728C242.092 166.728 241.681 166.877 241.345 167.176C241.019 167.465 240.818 167.871 240.743 168.394H244.425ZM249.846 162.64V173H247.886V162.64H249.846ZM132.934 191.126C132.299 191.126 131.73 191.014 131.226 190.79C130.722 190.557 130.321 190.244 130.022 189.852C129.733 189.46 129.574 189.026 129.546 188.55H131.52C131.557 188.849 131.702 189.096 131.954 189.292C132.215 189.488 132.537 189.586 132.92 189.586C133.293 189.586 133.583 189.511 133.788 189.362C134.003 189.213 134.11 189.021 134.11 188.788C134.11 188.536 133.979 188.349 133.718 188.228C133.466 188.097 133.06 187.957 132.5 187.808C131.921 187.668 131.445 187.523 131.072 187.374C130.708 187.225 130.391 186.996 130.12 186.688C129.859 186.38 129.728 185.965 129.728 185.442C129.728 185.013 129.849 184.621 130.092 184.266C130.344 183.911 130.699 183.631 131.156 183.426C131.623 183.221 132.169 183.118 132.794 183.118C133.718 183.118 134.455 183.351 135.006 183.818C135.557 184.275 135.86 184.896 135.916 185.68H134.04C134.012 185.372 133.881 185.129 133.648 184.952C133.424 184.765 133.121 184.672 132.738 184.672C132.383 184.672 132.108 184.737 131.912 184.868C131.725 184.999 131.632 185.181 131.632 185.414C131.632 185.675 131.763 185.876 132.024 186.016C132.285 186.147 132.691 186.282 133.242 186.422C133.802 186.562 134.264 186.707 134.628 186.856C134.992 187.005 135.305 187.239 135.566 187.556C135.837 187.864 135.977 188.275 135.986 188.788C135.986 189.236 135.86 189.637 135.608 189.992C135.365 190.347 135.011 190.627 134.544 190.832C134.087 191.028 133.55 191.126 132.934 191.126ZM139.555 184.364C139.807 184.009 140.152 183.715 140.591 183.482C141.039 183.239 141.548 183.118 142.117 183.118C142.78 183.118 143.377 183.281 143.909 183.608C144.45 183.935 144.875 184.401 145.183 185.008C145.5 185.605 145.659 186.301 145.659 187.094C145.659 187.887 145.5 188.592 145.183 189.208C144.875 189.815 144.45 190.286 143.909 190.622C143.377 190.958 142.78 191.126 142.117 191.126C141.548 191.126 141.044 191.009 140.605 190.776C140.176 190.543 139.826 190.249 139.555 189.894V194.696H137.595V183.244H139.555V184.364ZM143.657 187.094C143.657 186.627 143.559 186.226 143.363 185.89C143.176 185.545 142.924 185.283 142.607 185.106C142.299 184.929 141.963 184.84 141.599 184.84C141.244 184.84 140.908 184.933 140.591 185.12C140.283 185.297 140.031 185.559 139.835 185.904C139.648 186.249 139.555 186.655 139.555 187.122C139.555 187.589 139.648 187.995 139.835 188.34C140.031 188.685 140.283 188.951 140.591 189.138C140.908 189.315 141.244 189.404 141.599 189.404C141.963 189.404 142.299 189.311 142.607 189.124C142.924 188.937 143.176 188.671 143.363 188.326C143.559 187.981 143.657 187.57 143.657 187.094ZM149.043 184.448C149.295 184.037 149.622 183.715 150.023 183.482C150.434 183.249 150.901 183.132 151.423 183.132V185.19H150.905C150.289 185.19 149.823 185.335 149.505 185.624C149.197 185.913 149.043 186.417 149.043 187.136V191H147.083V183.244H149.043V184.448ZM159.953 186.954C159.953 187.234 159.935 187.486 159.897 187.71H154.227C154.274 188.27 154.47 188.709 154.815 189.026C155.161 189.343 155.585 189.502 156.089 189.502C156.817 189.502 157.335 189.189 157.643 188.564H159.757C159.533 189.311 159.104 189.927 158.469 190.412C157.835 190.888 157.055 191.126 156.131 191.126C155.385 191.126 154.713 190.963 154.115 190.636C153.527 190.3 153.065 189.829 152.729 189.222C152.403 188.615 152.239 187.915 152.239 187.122C152.239 186.319 152.403 185.615 152.729 185.008C153.056 184.401 153.513 183.935 154.101 183.608C154.689 183.281 155.366 183.118 156.131 183.118C156.869 183.118 157.527 183.277 158.105 183.594C158.693 183.911 159.146 184.364 159.463 184.952C159.79 185.531 159.953 186.198 159.953 186.954ZM157.923 186.394C157.914 185.89 157.732 185.489 157.377 185.19C157.023 184.882 156.589 184.728 156.075 184.728C155.59 184.728 155.179 184.877 154.843 185.176C154.517 185.465 154.316 185.871 154.241 186.394H157.923ZM160.88 187.094C160.88 186.31 161.034 185.615 161.342 185.008C161.659 184.401 162.084 183.935 162.616 183.608C163.157 183.281 163.759 183.118 164.422 183.118C165.001 183.118 165.505 183.235 165.934 183.468C166.373 183.701 166.723 183.995 166.984 184.35V183.244H168.958V191H166.984V189.866C166.732 190.23 166.382 190.533 165.934 190.776C165.495 191.009 164.987 191.126 164.408 191.126C163.755 191.126 163.157 190.958 162.616 190.622C162.084 190.286 161.659 189.815 161.342 189.208C161.034 188.592 160.88 187.887 160.88 187.094ZM166.984 187.122C166.984 186.646 166.891 186.24 166.704 185.904C166.517 185.559 166.265 185.297 165.948 185.12C165.631 184.933 165.29 184.84 164.926 184.84C164.562 184.84 164.226 184.929 163.918 185.106C163.61 185.283 163.358 185.545 163.162 185.89C162.975 186.226 162.882 186.627 162.882 187.094C162.882 187.561 162.975 187.971 163.162 188.326C163.358 188.671 163.61 188.937 163.918 189.124C164.235 189.311 164.571 189.404 164.926 189.404C165.29 189.404 165.631 189.315 165.948 189.138C166.265 188.951 166.517 188.69 166.704 188.354C166.891 188.009 166.984 187.598 166.984 187.122ZM170.368 187.094C170.368 186.31 170.522 185.615 170.83 185.008C171.148 184.401 171.577 183.935 172.118 183.608C172.66 183.281 173.262 183.118 173.924 183.118C174.428 183.118 174.909 183.23 175.366 183.454C175.824 183.669 176.188 183.958 176.458 184.322V180.64H178.446V191H176.458V189.852C176.216 190.235 175.875 190.543 175.436 190.776C174.998 191.009 174.489 191.126 173.91 191.126C173.257 191.126 172.66 190.958 172.118 190.622C171.577 190.286 171.148 189.815 170.83 189.208C170.522 188.592 170.368 187.887 170.368 187.094ZM176.472 187.122C176.472 186.646 176.379 186.24 176.192 185.904C176.006 185.559 175.754 185.297 175.436 185.12C175.119 184.933 174.778 184.84 174.414 184.84C174.05 184.84 173.714 184.929 173.406 185.106C173.098 185.283 172.846 185.545 172.65 185.89C172.464 186.226 172.37 186.627 172.37 187.094C172.37 187.561 172.464 187.971 172.65 188.326C172.846 188.671 173.098 188.937 173.406 189.124C173.724 189.311 174.06 189.404 174.414 189.404C174.778 189.404 175.119 189.315 175.436 189.138C175.754 188.951 176.006 188.69 176.192 188.354C176.379 188.009 176.472 187.598 176.472 187.122ZM183.329 191.126C182.694 191.126 182.125 191.014 181.621 190.79C181.117 190.557 180.715 190.244 180.417 189.852C180.127 189.46 179.969 189.026 179.941 188.55H181.915C181.952 188.849 182.097 189.096 182.349 189.292C182.61 189.488 182.932 189.586 183.315 189.586C183.688 189.586 183.977 189.511 184.183 189.362C184.397 189.213 184.505 189.021 184.505 188.788C184.505 188.536 184.374 188.349 184.113 188.228C183.861 188.097 183.455 187.957 182.895 187.808C182.316 187.668 181.84 187.523 181.467 187.374C181.103 187.225 180.785 186.996 180.515 186.688C180.253 186.38 180.123 185.965 180.123 185.442C180.123 185.013 180.244 184.621 180.487 184.266C180.739 183.911 181.093 183.631 181.551 183.426C182.017 183.221 182.563 183.118 183.189 183.118C184.113 183.118 184.85 183.351 185.401 183.818C185.951 184.275 186.255 184.896 186.311 185.68H184.435C184.407 185.372 184.276 185.129 184.043 184.952C183.819 184.765 183.515 184.672 183.133 184.672C182.778 184.672 182.503 184.737 182.307 184.868C182.12 184.999 182.027 185.181 182.027 185.414C182.027 185.675 182.157 185.876 182.419 186.016C182.68 186.147 183.086 186.282 183.637 186.422C184.197 186.562 184.659 186.707 185.023 186.856C185.387 187.005 185.699 187.239 185.961 187.556C186.231 187.864 186.371 188.275 186.381 188.788C186.381 189.236 186.255 189.637 186.003 189.992C185.76 190.347 185.405 190.627 184.939 190.832C184.481 191.028 183.945 191.126 183.329 191.126ZM192.357 183.132C192.945 183.132 193.468 183.263 193.925 183.524C194.383 183.776 194.737 184.154 194.989 184.658C195.251 185.153 195.381 185.75 195.381 186.45V191H193.421V186.716C193.421 186.1 193.267 185.629 192.959 185.302C192.651 184.966 192.231 184.798 191.699 184.798C191.158 184.798 190.729 184.966 190.411 185.302C190.103 185.629 189.949 186.1 189.949 186.716V191H187.989V180.64H189.949V184.21C190.201 183.874 190.537 183.613 190.957 183.426C191.377 183.23 191.844 183.132 192.357 183.132ZM204.455 186.954C204.455 187.234 204.437 187.486 204.399 187.71H198.729C198.776 188.27 198.972 188.709 199.317 189.026C199.663 189.343 200.087 189.502 200.591 189.502C201.319 189.502 201.837 189.189 202.145 188.564H204.259C204.035 189.311 203.606 189.927 202.971 190.412C202.337 190.888 201.557 191.126 200.633 191.126C199.887 191.126 199.215 190.963 198.617 190.636C198.029 190.3 197.567 189.829 197.231 189.222C196.905 188.615 196.741 187.915 196.741 187.122C196.741 186.319 196.905 185.615 197.231 185.008C197.558 184.401 198.015 183.935 198.603 183.608C199.191 183.281 199.868 183.118 200.633 183.118C201.371 183.118 202.029 183.277 202.607 183.594C203.195 183.911 203.648 184.364 203.965 184.952C204.292 185.531 204.455 186.198 204.455 186.954ZM202.425 186.394C202.416 185.89 202.234 185.489 201.879 185.19C201.525 184.882 201.091 184.728 200.577 184.728C200.092 184.728 199.681 184.877 199.345 185.176C199.019 185.465 198.818 185.871 198.743 186.394H202.425ZM213.096 186.954C213.096 187.234 213.077 187.486 213.04 187.71H207.37C207.417 188.27 207.613 188.709 207.958 189.026C208.303 189.343 208.728 189.502 209.232 189.502C209.96 189.502 210.478 189.189 210.786 188.564H212.9C212.676 189.311 212.247 189.927 211.612 190.412C210.977 190.888 210.198 191.126 209.274 191.126C208.527 191.126 207.855 190.963 207.258 190.636C206.67 190.3 206.208 189.829 205.872 189.222C205.545 188.615 205.382 187.915 205.382 187.122C205.382 186.319 205.545 185.615 205.872 185.008C206.199 184.401 206.656 183.935 207.244 183.608C207.832 183.281 208.509 183.118 209.274 183.118C210.011 183.118 210.669 183.277 211.248 183.594C211.836 183.911 212.289 184.364 212.606 184.952C212.933 185.531 213.096 186.198 213.096 186.954ZM211.066 186.394C211.057 185.89 210.875 185.489 210.52 185.19C210.165 184.882 209.731 184.728 209.218 184.728C208.733 184.728 208.322 184.877 207.986 185.176C207.659 185.465 207.459 185.871 207.384 186.394H211.066ZM216.809 184.854V188.606C216.809 188.867 216.869 189.059 216.991 189.18C217.121 189.292 217.336 189.348 217.635 189.348H218.545V191H217.313C215.661 191 214.835 190.197 214.835 188.592V184.854H213.911V183.244H214.835V181.326H216.809V183.244H218.545V184.854H216.809ZM222.922 191.126C222.288 191.126 221.718 191.014 221.214 190.79C220.71 190.557 220.309 190.244 220.01 189.852C219.721 189.46 219.562 189.026 219.534 188.55H221.508C221.546 188.849 221.69 189.096 221.942 189.292C222.204 189.488 222.526 189.586 222.908 189.586C223.282 189.586 223.571 189.511 223.776 189.362C223.991 189.213 224.098 189.021 224.098 188.788C224.098 188.536 223.968 188.349 223.706 188.228C223.454 188.097 223.048 187.957 222.488 187.808C221.91 187.668 221.434 187.523 221.06 187.374C220.696 187.225 220.379 186.996 220.108 186.688C219.847 186.38 219.716 185.965 219.716 185.442C219.716 185.013 219.838 184.621 220.08 184.266C220.332 183.911 220.687 183.631 221.144 183.426C221.611 183.221 222.157 183.118 222.782 183.118C223.706 183.118 224.444 183.351 224.994 183.818C225.545 184.275 225.848 184.896 225.904 185.68H224.028C224 185.372 223.87 185.129 223.636 184.952C223.412 184.765 223.109 184.672 222.726 184.672C222.372 184.672 222.096 184.737 221.9 184.868C221.714 184.999 221.62 185.181 221.62 185.414C221.62 185.675 221.751 185.876 222.012 186.016C222.274 186.147 222.68 186.282 223.23 186.422C223.79 186.562 224.252 186.707 224.616 186.856C224.98 187.005 225.293 187.239 225.554 187.556C225.825 187.864 225.965 188.275 225.974 188.788C225.974 189.236 225.848 189.637 225.596 189.992C225.354 190.347 224.999 190.627 224.532 190.832C224.075 191.028 223.538 191.126 222.922 191.126Z" fill="#D5D7E5"/>
<defs>
<filter id="filter0_d_3918_10797" x="102" y="3" width="110" height="119.09" filterUnits="userSpaceOnUse" color-interpolation-filters="sRGB">
<feFlood flood-opacity="0" result="BackgroundImageFix"/>
<feColorMatrix in="SourceAlpha" type="matrix" values="0 0 0 0 0 0 0 0 0 0 0 0 0 0 0 0 0 0 127 0" result="hardAlpha"/>
<feOffset dy="4"/>
<feGaussianBlur stdDeviation="14"/>
<feComposite in2="hardAlpha" operator="out"/>
<feColorMatrix type="matrix" values="0 0 0 0 0.105882 0 0 0 0 0.137255 0 0 0 0 0.270588 0 0 0 0.3 0"/>
<feBlend mode="normal" in2="BackgroundImageFix" result="effect1_dropShadow_3918_10797"/>
<feBlend mode="normal" in="SourceGraphic" in2="effect1_dropShadow_3918_10797" result="shape"/>
</filter>
<filter id="filter1_d_3918_10797" x="167" y="0" width="91" height="97.0231" filterUnits="userSpaceOnUse" color-interpolation-filters="sRGB">
<feFlood flood-opacity="0" result="BackgroundImageFix"/>
<feColorMatrix in="SourceAlpha" type="matrix" values="0 0 0 0 0 0 0 0 0 0 0 0 0 0 0 0 0 0 127 0" result="hardAlpha"/>
<feOffset dy="4"/>
<feGaussianBlur stdDeviation="14"/>
<feComposite in2="hardAlpha" operator="out"/>
<feColorMatrix type="matrix" values="0 0 0 0 0.105882 0 0 0 0 0.137255 0 0 0 0 0.270588 0 0 0 0.3 0"/>
<feBlend mode="normal" in2="BackgroundImageFix" result="effect1_dropShadow_3918_10797"/>
<feBlend mode="normal" in="SourceGraphic" in2="effect1_dropShadow_3918_10797" result="shape"/>
</filter>
<filter id="filter2_d_3918_10797" x="139.894" y="23" width="141.106" height="155.586" filterUnits="userSpaceOnUse" color-interpolation-filters="sRGB">
<feFlood flood-opacity="0" result="BackgroundImageFix"/>
<feColorMatrix in="SourceAlpha" type="matrix" values="0 0 0 0 0 0 0 0 0 0 0 0 0 0 0 0 0 0 127 0" result="hardAlpha"/>
<feOffset dy="4"/>
<feGaussianBlur stdDeviation="14"/>
<feComposite in2="hardAlpha" operator="out"/>
<feColorMatrix type="matrix" values="0 0 0 0 0.105882 0 0 0 0 0.137255 0 0 0 0 0.270588 0 0 0 0.3 0"/>
<feBlend mode="normal" in2="BackgroundImageFix" result="effect1_dropShadow_3918_10797"/>
<feBlend mode="normal" in="SourceGraphic" in2="effect1_dropShadow_3918_10797" result="shape"/>
</filter>
<linearGradient id="paint0_linear_3918_10797" x1="196.5" y1="93" x2="0.709091" y2="93.0071" gradientUnits="userSpaceOnUse">
<stop offset="0.191944" stop-color="#F41830" stop-opacity="0"/>
<stop offset="0.705605" stop-color="#F43318"/>
<stop offset="0.916022" stop-color="#F43318" stop-opacity="0.39"/>
</linearGradient>
<linearGradient id="paint1_linear_3918_10797" x1="136.75" y1="34.425" x2="136.595" y2="93.3672" gradientUnits="userSpaceOnUse">
<stop stop-color="#70727E"/>
<stop offset="1" stop-color="#505475"/>
</linearGradient>
<linearGradient id="paint2_linear_3918_10797" x1="163.75" y1="27" x2="163.579" y2="103.942" gradientUnits="userSpaceOnUse">
<stop offset="0.354167" stop-color="#F6F8FB"/>
<stop offset="1" stop-color="#A5AAC3"/>
</linearGradient>
<linearGradient id="paint3_linear_3918_10797" x1="199.375" y1="28.8125" x2="199.274" y2="67.0158" gradientUnits="userSpaceOnUse">
<stop stop-color="#70727E"/>
<stop offset="1" stop-color="#505475"/>
</linearGradient>
<linearGradient id="paint4_linear_3918_10797" x1="216.875" y1="24" x2="216.764" y2="73.8699" gradientUnits="userSpaceOnUse">
<stop offset="0.354167" stop-color="#F6F8FB"/>
<stop offset="1" stop-color="#A5AAC3"/>
</linearGradient>
<linearGradient id="paint5_linear_3918_10797" x1="178.532" y1="58.7021" x2="178.287" y2="151.598" gradientUnits="userSpaceOnUse">
<stop stop-color="#70727E"/>
<stop offset="1" stop-color="#505475"/>
</linearGradient>
<linearGradient id="paint6_linear_3918_10797" x1="221.085" y1="47" x2="220.816" y2="168.264" gradientUnits="userSpaceOnUse">
<stop offset="0.354167" stop-color="#F6F8FB"/>
<stop offset="1" stop-color="#A5AAC3"/>
</linearGradient>
</defs>
</svg>
