<svg width="64" height="64" viewBox="0 0 64 64" fill="none" xmlns="http://www.w3.org/2000/svg">
<path d="M8 10H6V12H8V10Z" fill="#63B866"/>
<path d="M12 10H10V12H12V10Z" fill="#63B866"/>
<path d="M8 6H6V8H8V6Z" fill="#63B866"/>
<path d="M12 6H10V8H12V6Z" fill="#63B866"/>
<path d="M16 10H14V12H16V10Z" fill="#63B866"/>
<path d="M16 6H14V8H16V6Z" fill="#63B866"/>
<path d="M20 10H18V12H20V10Z" fill="#63B866"/>
<path d="M20 6H18V8H20V6Z" fill="#63B866"/>
<path d="M24 10H22V12H24V10Z" fill="#63B866"/>
<path d="M24 6H22V8H24V6Z" fill="#63B866"/>
<path d="M32 12H41C41.553 12 42 11.552 42 11V7C42 6.448 41.553 6 41 6H32C31.447 6 31 6.448 31 7V11C31 11.552 31.447 12 32 12ZM33 8H40V10H33V8Z" fill="#63B866"/>
<path d="M8 22H6V24H8V22Z" fill="#63B866"/>
<path d="M12 22H10V24H12V22Z" fill="#63B866"/>
<path d="M8 18H6V20H8V18Z" fill="#63B866"/>
<path d="M12 18H10V20H12V18Z" fill="#63B866"/>
<path d="M16 22H14V24H16V22Z" fill="#63B866"/>
<path d="M16 18H14V20H16V18Z" fill="#63B866"/>
<path d="M20 22H18V24H20V22Z" fill="#63B866"/>
<path d="M20 18H18V20H20V18Z" fill="#63B866"/>
<path d="M24 22H22V24H24V22Z" fill="#63B866"/>
<path d="M24 18H22V20H24V18Z" fill="#63B866"/>
<path d="M41 18H32C31.447 18 31 18.448 31 19V23C31 23.552 31.447 24 32 24H41C41.553 24 42 23.552 42 23V19C42 18.448 41.553 18 41 18ZM40 22H33V20H40V22Z" fill="#63B866"/>
<path d="M8 34H6V36H8V34Z" fill="#63B866"/>
<path d="M12 34H10V36H12V34Z" fill="#63B866"/>
<path d="M8 30H6V32H8V30Z" fill="#63B866"/>
<path d="M12 30H10V32H12V30Z" fill="#63B866"/>
<path d="M16 34H14V36H16V34Z" fill="#63B866"/>
<path d="M16 30H14V32H16V30Z" fill="#63B866"/>
<path d="M20 34H18V36H20V34Z" fill="#63B866"/>
<path d="M20 30H18V32H20V30Z" fill="#63B866"/>
<path d="M24 34H22V36H24V34Z" fill="#63B866"/>
<path d="M24 30H22V32H24V30Z" fill="#63B866"/>
<path d="M47 39C42.589 39 39 42.589 39 47C39 51.411 42.589 55 47 55C51.411 55 55 51.411 55 47C55 42.589 51.411 39 47 39ZM47 53C43.691 53 41 50.309 41 47C41 43.691 43.691 41 47 41C50.309 41 53 43.691 53 47C53 50.309 50.309 53 47 53Z" fill="#63B866"/>
<path d="M61 44H58.613C58.334 42.908 57.906 41.873 57.336 40.907L59.021 39.221C59.412 38.83 59.412 38.198 59.021 37.807L56.193 34.979C55.802 34.588 55.17 34.588 54.779 34.979L53.093 36.664C52.127 36.093 51.092 35.666 50 35.386V33C50 32.448 49.553 32 49 32H46V29C46 28.229 45.699 27.532 45.22 27C45.7 26.468 46 25.771 46 25V17C46 16.229 45.699 15.532 45.22 15C45.7 14.468 46 13.771 46 13V5C46 3.346 44.654 2 43 2H5C3.346 2 2 3.346 2 5V13C2 13.771 2.301 14.468 2.78 15C2.301 15.532 2 16.229 2 17V25C2 25.771 2.301 26.468 2.78 27C2.301 27.532 2 28.229 2 29V37C2 38.654 3.346 40 5 40H35.757L36.664 40.907C36.094 41.873 35.666 42.908 35.387 44H33C32.447 44 32 44.448 32 45V49C32 49.552 32.447 50 33 50H35.387C35.666 51.092 36.094 52.127 36.664 53.093L34.979 54.779C34.588 55.17 34.588 55.802 34.979 56.193L37.807 59.021C38.198 59.412 38.83 59.412 39.221 59.021L40.907 57.336C41.873 57.907 42.908 58.334 44 58.614V61C44 61.552 44.447 62 45 62H49C49.553 62 50 61.552 50 61V58.613C51.092 58.333 52.127 57.906 53.093 57.335L54.779 59.02C55.17 59.411 55.802 59.411 56.193 59.02L59.021 56.192C59.412 55.801 59.412 55.169 59.021 54.778L57.336 53.092C57.906 52.126 58.334 51.091 58.613 49.999H61C61.553 49.999 62 49.551 62 48.999V44.999C62 44.448 61.553 44 61 44ZM4 25V17C4 16.449 4.448 16 5 16H43C43.552 16 44 16.449 44 17V25C44 25.551 43.552 26 43 26H5C4.448 26 4 25.551 4 25ZM4 5C4 4.449 4.448 4 5 4H43C43.552 4 44 4.449 44 5V13C44 13.551 43.552 14 43 14H5C4.448 14 4 13.551 4 13V5ZM4 37V29C4 28.449 4.448 28 5 28H43C43.552 28 44 28.449 44 29V33V35.387C42.908 35.667 41.873 36.094 40.907 36.665L40.242 36H41C41.553 36 42 35.552 42 35V31C42 30.448 41.553 30 41 30H32C31.447 30 31 30.448 31 31V35C31 35.552 31.447 36 32 36H36.787L34.979 37.808C34.919 37.867 34.87 37.932 34.829 38H5C4.448 38 4 37.551 4 37ZM40 34H33V32H40V34ZM60 48H57.81C57.328 48 56.914 48.344 56.827 48.819C56.57 50.214 56.036 51.507 55.238 52.665C54.965 53.062 55.013 53.598 55.354 53.939L56.9 55.485L55.486 56.899L53.939 55.353C53.597 55.012 53.061 54.963 52.665 55.237C51.508 56.034 50.214 56.569 48.82 56.826C48.345 56.914 48 57.327 48 57.81V60H46V57.81C46 57.328 45.655 56.914 45.181 56.827C43.787 56.57 42.493 56.035 41.336 55.238C40.94 54.965 40.403 55.013 40.062 55.354L38.515 56.9L37.101 55.486L38.647 53.94C38.988 53.599 39.037 53.063 38.763 52.666C37.965 51.508 37.431 50.215 37.174 48.82C37.087 48.344 36.673 48 36.19 48H34V46H36.19C36.672 46 37.086 45.656 37.173 45.181C37.43 43.786 37.964 42.493 38.762 41.335C39.035 40.938 38.987 40.402 38.646 40.061L37.1 38.515L38.514 37.101L40.061 38.647C40.403 38.988 40.939 39.037 41.335 38.763C42.492 37.966 43.786 37.431 45.18 37.174C45.655 37.086 46 36.673 46 36.19V34H48V36.19C48 36.672 48.345 37.086 48.819 37.173C50.213 37.43 51.507 37.965 52.664 38.762C53.06 39.035 53.597 38.987 53.938 38.646L55.485 37.1L56.899 38.514L55.353 40.06C55.012 40.401 54.963 40.937 55.237 41.334C56.035 42.492 56.569 43.785 56.826 45.18C56.913 45.656 57.327 46 57.81 46H60V48Z" fill="#63B866"/>
<path d="M58 31H56V33H58V31Z" fill="#63B866"/>
<path d="M58 27H56V29H58V27Z" fill="#63B866"/>
<path d="M58 23H56V25H58V23Z" fill="#63B866"/>
<path d="M58 19H56V21H58V19Z" fill="#63B866"/>
<path d="M58 15H56V17H58V15Z" fill="#63B866"/>
<path d="M58 11H56V13H58V11Z" fill="#63B866"/>
<path d="M58 7H56V9H58V7Z" fill="#63B866"/>
<path d="M54 7H52V9H54V7Z" fill="#63B866"/>
<path d="M50 7H48V9H50V7Z" fill="#63B866"/>
<path d="M33 54H31V56H33V54Z" fill="#63B866"/>
<path d="M29 54H27V56H29V54Z" fill="#63B866"/>
<path d="M25 54H23V56H25V54Z" fill="#63B866"/>
<path d="M21 54H19V56H21V54Z" fill="#63B866"/>
<path d="M17 54H15V56H17V54Z" fill="#63B866"/>
<path d="M13 54H11V56H13V54Z" fill="#63B866"/>
<path d="M13 50H11V52H13V50Z" fill="#63B866"/>
<path d="M13 46H11V48H13V46Z" fill="#63B866"/>
<path d="M13 42H11V44H13V42Z" fill="#63B866"/>
</svg>
