<svg width="392" height="670" viewBox="0 0 392 670" fill="none" xmlns="http://www.w3.org/2000/svg">
<path opacity="0.2" d="M262.5 156.719L262.5 98.2819C262.5 80.6088 248.173 66.2819 230.5 66.2819L176.5 66.2819C158.827 66.2819 144.5 51.955 144.5 34.2819L144.5 2.83217e-06" stroke="url(#paint0_linear_3879_14155)" stroke-width="32"/>
<circle r="3" transform="matrix(-6.91585e-08 -1 -1 2.40015e-08 144.5 33.5)" fill="#FAA204"/>
<circle cx="182.5" cy="65.5" r="3" transform="rotate(-90 182.5 65.5)" fill="#FAA204"/>
<circle cx="223.5" cy="65.5" r="3" transform="rotate(-90 223.5 65.5)" fill="#FAA204"/>
<circle cx="256.5" cy="79.5" r="3" transform="rotate(-90 256.5 79.5)" fill="#FAA204"/>
<path opacity="0.2" d="M28.5 113.5L28.5 98.2819C28.5 80.6088 42.8269 66.2819 60.5 66.2819L114.5 66.2819C132.173 66.2819 146.5 51.955 146.5 34.2819L146.5 -4.79722e-06" stroke="url(#paint1_linear_3879_14155)" stroke-width="32"/>
<circle r="3" transform="matrix(1.56581e-07 -1 -1 -1.11424e-07 108.5 65.5)" fill="#FAA204"/>
<circle r="3" transform="matrix(1.56581e-07 -1 -1 -1.11424e-07 67.5 65.5)" fill="#FAA204"/>
<circle r="3" transform="matrix(1.56581e-07 -1 -1 -1.11424e-07 34.5 79.5)" fill="#FAA204"/>
<path opacity="0.2" d="M150.579 539.108L66.8117 539.108C49.1386 539.108 34.8117 524.781 34.8117 507.108L34.8117 285.719" stroke="url(#paint2_linear_3879_14155)" stroke-width="32"/>
<path opacity="0.2" d="M154.579 474.232L66.5273 474.232C48.8542 474.232 34.5273 459.905 34.5273 442.232L34.5273 290.719" stroke="url(#paint3_linear_3879_14155)" stroke-width="32"/>
<path opacity="0.2" d="M155.579 417.174L66.5273 417.174C48.8542 417.174 34.5273 402.847 34.5273 385.174L34.5273 290.219" stroke="url(#paint4_linear_3879_14155)" stroke-width="32"/>
<circle r="3" transform="matrix(-4.37114e-08 -1 -1 4.37114e-08 34.5 327)" fill="#FAA204"/>
<circle r="3" transform="matrix(-4.37114e-08 -1 -1 4.37114e-08 34.5 367)" fill="#FAA204"/>
<circle r="3" transform="matrix(-4.37114e-08 -1 -1 4.37114e-08 34.5 407)" fill="#FAA204"/>
<circle r="3" transform="matrix(-4.37114e-08 -1 -1 4.37114e-08 34.5 447)" fill="#FAA204"/>
<circle r="3" transform="matrix(-4.37114e-08 -1 -1 4.37114e-08 34.5 487)" fill="#FAA204"/>
<g filter="url(#filter0_d_3879_14155)">
<rect x="149.5" y="394" width="138" height="42" rx="12" fill="url(#paint5_linear_3879_14155)" shape-rendering="crispEdges"/>
<path d="M172.971 413.07C172.719 412.585 172.369 412.221 171.921 411.978C171.473 411.726 170.955 411.6 170.367 411.6C169.723 411.6 169.149 411.745 168.645 412.034C168.141 412.323 167.744 412.734 167.455 413.266C167.175 413.798 167.035 414.414 167.035 415.114C167.035 415.814 167.175 416.435 167.455 416.976C167.744 417.508 168.141 417.919 168.645 418.208C169.149 418.497 169.723 418.642 170.367 418.642C171.235 418.642 171.94 418.399 172.481 417.914C173.022 417.429 173.354 416.771 173.475 415.94H169.821V414.666H175.183V415.912C175.08 416.668 174.81 417.363 174.371 417.998C173.942 418.633 173.377 419.141 172.677 419.524C171.986 419.897 171.216 420.084 170.367 420.084C169.452 420.084 168.617 419.874 167.861 419.454C167.105 419.025 166.503 418.432 166.055 417.676C165.616 416.92 165.397 416.066 165.397 415.114C165.397 414.162 165.616 413.308 166.055 412.552C166.503 411.796 167.105 411.208 167.861 410.788C168.626 410.359 169.462 410.144 170.367 410.144C171.403 410.144 172.322 410.401 173.125 410.914C173.937 411.418 174.525 412.137 174.889 413.07H172.971ZM183.827 415.954C183.827 416.243 183.808 416.505 183.771 416.738H177.877C177.924 417.354 178.152 417.849 178.563 418.222C178.974 418.595 179.478 418.782 180.075 418.782C180.934 418.782 181.54 418.423 181.895 417.704H183.617C183.384 418.413 182.959 418.997 182.343 419.454C181.736 419.902 180.98 420.126 180.075 420.126C179.338 420.126 178.675 419.963 178.087 419.636C177.508 419.3 177.051 418.833 176.715 418.236C176.388 417.629 176.225 416.929 176.225 416.136C176.225 415.343 176.384 414.647 176.701 414.05C177.028 413.443 177.48 412.977 178.059 412.65C178.647 412.323 179.319 412.16 180.075 412.16C180.803 412.16 181.452 412.319 182.021 412.636C182.59 412.953 183.034 413.401 183.351 413.98C183.668 414.549 183.827 415.207 183.827 415.954ZM182.161 415.45C182.152 414.862 181.942 414.391 181.531 414.036C181.12 413.681 180.612 413.504 180.005 413.504C179.454 413.504 178.983 413.681 178.591 414.036C178.199 414.381 177.966 414.853 177.891 415.45H182.161ZM189.29 412.16C189.896 412.16 190.438 412.286 190.914 412.538C191.399 412.79 191.777 413.163 192.048 413.658C192.318 414.153 192.454 414.75 192.454 415.45V420H190.872V415.688C190.872 414.997 190.699 414.47 190.354 414.106C190.008 413.733 189.537 413.546 188.94 413.546C188.342 413.546 187.866 413.733 187.512 414.106C187.166 414.47 186.994 414.997 186.994 415.688V420H185.398V412.286H186.994V413.168C187.255 412.851 187.586 412.603 187.988 412.426C188.398 412.249 188.832 412.16 189.29 412.16ZM201.559 415.954C201.559 416.243 201.541 416.505 201.503 416.738H195.609C195.656 417.354 195.885 417.849 196.295 418.222C196.706 418.595 197.21 418.782 197.807 418.782C198.666 418.782 199.273 418.423 199.627 417.704H201.349C201.116 418.413 200.691 418.997 200.075 419.454C199.469 419.902 198.713 420.126 197.807 420.126C197.07 420.126 196.407 419.963 195.819 419.636C195.241 419.3 194.783 418.833 194.447 418.236C194.121 417.629 193.957 416.929 193.957 416.136C193.957 415.343 194.116 414.647 194.433 414.05C194.76 413.443 195.213 412.977 195.791 412.65C196.379 412.323 197.051 412.16 197.807 412.16C198.535 412.16 199.184 412.319 199.753 412.636C200.323 412.953 200.766 413.401 201.083 413.98C201.401 414.549 201.559 415.207 201.559 415.954ZM199.893 415.45C199.884 414.862 199.674 414.391 199.263 414.036C198.853 413.681 198.344 413.504 197.737 413.504C197.187 413.504 196.715 413.681 196.323 414.036C195.931 414.381 195.698 414.853 195.623 415.45H199.893ZM204.726 413.406C204.959 413.014 205.267 412.711 205.65 412.496C206.042 412.272 206.504 412.16 207.036 412.16V413.812H206.63C206.005 413.812 205.529 413.971 205.202 414.288C204.885 414.605 204.726 415.156 204.726 415.94V420H203.13V412.286H204.726V413.406ZM207.971 416.108C207.971 415.333 208.13 414.647 208.447 414.05C208.774 413.453 209.212 412.991 209.763 412.664C210.323 412.328 210.939 412.16 211.611 412.16C212.218 412.16 212.745 412.281 213.193 412.524C213.65 412.757 214.014 413.051 214.285 413.406V412.286H215.895V420H214.285V418.852C214.014 419.216 213.646 419.519 213.179 419.762C212.712 420.005 212.18 420.126 211.583 420.126C210.92 420.126 210.314 419.958 209.763 419.622C209.212 419.277 208.774 418.801 208.447 418.194C208.13 417.578 207.971 416.883 207.971 416.108ZM214.285 416.136C214.285 415.604 214.173 415.142 213.949 414.75C213.734 414.358 213.45 414.059 213.095 413.854C212.74 413.649 212.358 413.546 211.947 413.546C211.536 413.546 211.154 413.649 210.799 413.854C210.444 414.05 210.155 414.344 209.931 414.736C209.716 415.119 209.609 415.576 209.609 416.108C209.609 416.64 209.716 417.107 209.931 417.508C210.155 417.909 210.444 418.217 210.799 418.432C211.163 418.637 211.546 418.74 211.947 418.74C212.358 418.74 212.74 418.637 213.095 418.432C213.45 418.227 213.734 417.928 213.949 417.536C214.173 417.135 214.285 416.668 214.285 416.136ZM219.587 409.64V420H217.991V409.64H219.587ZM226.916 418.712H230.206V420H225.32V410.27H226.916V418.712ZM238.61 415.954C238.61 416.243 238.592 416.505 238.554 416.738H232.66C232.707 417.354 232.936 417.849 233.346 418.222C233.757 418.595 234.261 418.782 234.858 418.782C235.717 418.782 236.324 418.423 236.678 417.704H238.4C238.167 418.413 237.742 418.997 237.126 419.454C236.52 419.902 235.764 420.126 234.858 420.126C234.121 420.126 233.458 419.963 232.87 419.636C232.292 419.3 231.834 418.833 231.498 418.236C231.172 417.629 231.008 416.929 231.008 416.136C231.008 415.343 231.167 414.647 231.484 414.05C231.811 413.443 232.264 412.977 232.842 412.65C233.43 412.323 234.102 412.16 234.858 412.16C235.586 412.16 236.235 412.319 236.804 412.636C237.374 412.953 237.817 413.401 238.134 413.98C238.452 414.549 238.61 415.207 238.61 415.954ZM236.944 415.45C236.935 414.862 236.725 414.391 236.314 414.036C235.904 413.681 235.395 413.504 234.788 413.504C234.238 413.504 233.766 413.681 233.374 414.036C232.982 414.381 232.749 414.853 232.674 415.45H236.944ZM239.649 416.108C239.649 415.333 239.808 414.647 240.125 414.05C240.452 413.453 240.89 412.991 241.441 412.664C242.001 412.328 242.622 412.16 243.303 412.16C243.807 412.16 244.302 412.272 244.787 412.496C245.282 412.711 245.674 413 245.963 413.364V409.64H247.573V420H245.963V418.838C245.702 419.211 245.338 419.519 244.871 419.762C244.414 420.005 243.886 420.126 243.289 420.126C242.617 420.126 242.001 419.958 241.441 419.622C240.89 419.277 240.452 418.801 240.125 418.194C239.808 417.578 239.649 416.883 239.649 416.108ZM245.963 416.136C245.963 415.604 245.851 415.142 245.627 414.75C245.412 414.358 245.128 414.059 244.773 413.854C244.418 413.649 244.036 413.546 243.625 413.546C243.214 413.546 242.832 413.649 242.477 413.854C242.122 414.05 241.833 414.344 241.609 414.736C241.394 415.119 241.287 415.576 241.287 416.108C241.287 416.64 241.394 417.107 241.609 417.508C241.833 417.909 242.122 418.217 242.477 418.432C242.841 418.637 243.224 418.74 243.625 418.74C244.036 418.74 244.418 418.637 244.773 418.432C245.128 418.227 245.412 417.928 245.627 417.536C245.851 417.135 245.963 416.668 245.963 416.136ZM252.777 412.16C253.374 412.16 253.902 412.281 254.359 412.524C254.826 412.757 255.19 413.051 255.451 413.406V412.286H257.061V420.126C257.061 420.835 256.912 421.465 256.613 422.016C256.314 422.576 255.88 423.015 255.311 423.332C254.751 423.649 254.079 423.808 253.295 423.808C252.25 423.808 251.382 423.561 250.691 423.066C250 422.581 249.608 421.918 249.515 421.078H251.097C251.218 421.479 251.475 421.801 251.867 422.044C252.268 422.296 252.744 422.422 253.295 422.422C253.939 422.422 254.457 422.226 254.849 421.834C255.25 421.442 255.451 420.873 255.451 420.126V418.838C255.18 419.202 254.812 419.51 254.345 419.762C253.888 420.005 253.365 420.126 252.777 420.126C252.105 420.126 251.489 419.958 250.929 419.622C250.378 419.277 249.94 418.801 249.613 418.194C249.296 417.578 249.137 416.883 249.137 416.108C249.137 415.333 249.296 414.647 249.613 414.05C249.94 413.453 250.378 412.991 250.929 412.664C251.489 412.328 252.105 412.16 252.777 412.16ZM255.451 416.136C255.451 415.604 255.339 415.142 255.115 414.75C254.9 414.358 254.616 414.059 254.261 413.854C253.906 413.649 253.524 413.546 253.113 413.546C252.702 413.546 252.32 413.649 251.965 413.854C251.61 414.05 251.321 414.344 251.097 414.736C250.882 415.119 250.775 415.576 250.775 416.108C250.775 416.64 250.882 417.107 251.097 417.508C251.321 417.909 251.61 418.217 251.965 418.432C252.329 418.637 252.712 418.74 253.113 418.74C253.524 418.74 253.906 418.637 254.261 418.432C254.616 418.227 254.9 417.928 255.115 417.536C255.339 417.135 255.451 416.668 255.451 416.136ZM266.227 415.954C266.227 416.243 266.209 416.505 266.171 416.738H260.277C260.324 417.354 260.553 417.849 260.963 418.222C261.374 418.595 261.878 418.782 262.475 418.782C263.334 418.782 263.941 418.423 264.295 417.704H266.017C265.784 418.413 265.359 418.997 264.743 419.454C264.137 419.902 263.381 420.126 262.475 420.126C261.738 420.126 261.075 419.963 260.487 419.636C259.909 419.3 259.451 418.833 259.115 418.236C258.789 417.629 258.625 416.929 258.625 416.136C258.625 415.343 258.784 414.647 259.101 414.05C259.428 413.443 259.881 412.977 260.459 412.65C261.047 412.323 261.719 412.16 262.475 412.16C263.203 412.16 263.852 412.319 264.421 412.636C264.991 412.953 265.434 413.401 265.751 413.98C266.069 414.549 266.227 415.207 266.227 415.954ZM264.561 415.45C264.552 414.862 264.342 414.391 263.931 414.036C263.521 413.681 263.012 413.504 262.405 413.504C261.855 413.504 261.383 413.681 260.991 414.036C260.599 414.381 260.366 414.853 260.291 415.45H264.561ZM269.394 413.406C269.627 413.014 269.935 412.711 270.318 412.496C270.71 412.272 271.172 412.16 271.704 412.16V413.812H271.298C270.673 413.812 270.197 413.971 269.87 414.288C269.553 414.605 269.394 415.156 269.394 415.94V420H267.798V412.286H269.394V413.406Z" fill="white"/>
</g>
<g filter="url(#filter1_d_3879_14155)">
<rect x="150.5" y="452" width="137" height="42" rx="12" fill="url(#paint6_linear_3879_14155)" shape-rendering="crispEdges"/>
<path d="M198.721 473.002C199.244 473.095 199.687 473.371 200.051 473.828C200.415 474.285 200.597 474.803 200.597 475.382C200.597 475.877 200.466 476.325 200.205 476.726C199.953 477.118 199.584 477.431 199.099 477.664C198.614 477.888 198.049 478 197.405 478H193.513V468.27H197.223C197.886 468.27 198.455 468.382 198.931 468.606C199.407 468.83 199.766 469.133 200.009 469.516C200.252 469.889 200.373 470.309 200.373 470.776C200.373 471.336 200.224 471.803 199.925 472.176C199.626 472.549 199.225 472.825 198.721 473.002ZM195.109 472.358H197.083C197.606 472.358 198.012 472.241 198.301 472.008C198.6 471.765 198.749 471.42 198.749 470.972C198.749 470.533 198.6 470.193 198.301 469.95C198.012 469.698 197.606 469.572 197.083 469.572H195.109V472.358ZM197.265 476.698C197.806 476.698 198.231 476.567 198.539 476.306C198.847 476.045 199.001 475.681 199.001 475.214C199.001 474.738 198.838 474.36 198.511 474.08C198.184 473.8 197.75 473.66 197.209 473.66H195.109V476.698H197.265ZM203.927 468.27V478H202.331V468.27H203.927ZM215.945 468.27V469.572H213.355V478H211.759V469.572H209.155V468.27H215.945ZM220.908 478.126C220.18 478.126 219.522 477.963 218.934 477.636C218.346 477.3 217.884 476.833 217.548 476.236C217.212 475.629 217.044 474.929 217.044 474.136C217.044 473.352 217.216 472.657 217.562 472.05C217.907 471.443 218.378 470.977 218.976 470.65C219.573 470.323 220.24 470.16 220.978 470.16C221.715 470.16 222.382 470.323 222.98 470.65C223.577 470.977 224.048 471.443 224.394 472.05C224.739 472.657 224.912 473.352 224.912 474.136C224.912 474.92 224.734 475.615 224.38 476.222C224.025 476.829 223.54 477.3 222.924 477.636C222.317 477.963 221.645 478.126 220.908 478.126ZM220.908 476.74C221.318 476.74 221.701 476.642 222.056 476.446C222.42 476.25 222.714 475.956 222.938 475.564C223.162 475.172 223.274 474.696 223.274 474.136C223.274 473.576 223.166 473.105 222.952 472.722C222.737 472.33 222.452 472.036 222.098 471.84C221.743 471.644 221.36 471.546 220.95 471.546C220.539 471.546 220.156 471.644 219.802 471.84C219.456 472.036 219.181 472.33 218.976 472.722C218.77 473.105 218.668 473.576 218.668 474.136C218.668 474.967 218.878 475.611 219.298 476.068C219.727 476.516 220.264 476.74 220.908 476.74ZM229.835 478.126C229.107 478.126 228.449 477.963 227.861 477.636C227.273 477.3 226.811 476.833 226.475 476.236C226.139 475.629 225.971 474.929 225.971 474.136C225.971 473.352 226.144 472.657 226.489 472.05C226.835 471.443 227.306 470.977 227.903 470.65C228.501 470.323 229.168 470.16 229.905 470.16C230.643 470.16 231.31 470.323 231.907 470.65C232.505 470.977 232.976 471.443 233.321 472.05C233.667 472.657 233.839 473.352 233.839 474.136C233.839 474.92 233.662 475.615 233.307 476.222C232.953 476.829 232.467 477.3 231.851 477.636C231.245 477.963 230.573 478.126 229.835 478.126ZM229.835 476.74C230.246 476.74 230.629 476.642 230.983 476.446C231.347 476.25 231.641 475.956 231.865 475.564C232.089 475.172 232.201 474.696 232.201 474.136C232.201 473.576 232.094 473.105 231.879 472.722C231.665 472.33 231.38 472.036 231.025 471.84C230.671 471.644 230.288 471.546 229.877 471.546C229.467 471.546 229.084 471.644 228.729 471.84C228.384 472.036 228.109 472.33 227.903 472.722C227.698 473.105 227.595 473.576 227.595 474.136C227.595 474.967 227.805 475.611 228.225 476.068C228.655 476.516 229.191 476.74 229.835 476.74ZM237.013 467.64V478H235.417V467.64H237.013ZM241.909 478.126C241.302 478.126 240.756 478.019 240.271 477.804C239.795 477.58 239.417 477.281 239.137 476.908C238.857 476.525 238.707 476.101 238.689 475.634H240.341C240.369 475.961 240.523 476.236 240.803 476.46C241.092 476.675 241.451 476.782 241.881 476.782C242.329 476.782 242.674 476.698 242.917 476.53C243.169 476.353 243.295 476.129 243.295 475.858C243.295 475.569 243.155 475.354 242.875 475.214C242.604 475.074 242.17 474.92 241.573 474.752C240.994 474.593 240.523 474.439 240.159 474.29C239.795 474.141 239.477 473.912 239.207 473.604C238.945 473.296 238.815 472.89 238.815 472.386C238.815 471.975 238.936 471.602 239.179 471.266C239.421 470.921 239.767 470.65 240.215 470.454C240.672 470.258 241.195 470.16 241.783 470.16C242.66 470.16 243.365 470.384 243.897 470.832C244.438 471.271 244.727 471.873 244.765 472.638H243.169C243.141 472.293 243.001 472.017 242.749 471.812C242.497 471.607 242.156 471.504 241.727 471.504C241.307 471.504 240.985 471.583 240.761 471.742C240.537 471.901 240.425 472.111 240.425 472.372C240.425 472.577 240.499 472.75 240.649 472.89C240.798 473.03 240.98 473.142 241.195 473.226C241.409 473.301 241.727 473.399 242.147 473.52C242.707 473.669 243.164 473.823 243.519 473.982C243.883 474.131 244.195 474.355 244.457 474.654C244.718 474.953 244.853 475.349 244.863 475.844C244.863 476.283 244.741 476.675 244.499 477.02C244.256 477.365 243.911 477.636 243.463 477.832C243.024 478.028 242.506 478.126 241.909 478.126Z" fill="white"/>
</g>
<g filter="url(#filter2_d_3879_14155)">
<rect x="150.5" y="510" width="137" height="56" rx="12" fill="url(#paint7_linear_3879_14155)" shape-rendering="crispEdges"/>
<path d="M175.633 524.27V534H174.037V524.27H175.633ZM181.621 526.16C182.227 526.16 182.769 526.286 183.245 526.538C183.73 526.79 184.108 527.163 184.379 527.658C184.649 528.153 184.785 528.75 184.785 529.45V534H183.203V529.688C183.203 528.997 183.03 528.47 182.685 528.106C182.339 527.733 181.868 527.546 181.271 527.546C180.673 527.546 180.197 527.733 179.843 528.106C179.497 528.47 179.325 528.997 179.325 529.688V534H177.729V526.286H179.325V527.168C179.586 526.851 179.917 526.603 180.319 526.426C180.729 526.249 181.163 526.16 181.621 526.16ZM188.683 527.588V531.858C188.683 532.147 188.748 532.357 188.879 532.488C189.019 532.609 189.252 532.67 189.579 532.67H190.559V534H189.299C188.58 534 188.029 533.832 187.647 533.496C187.264 533.16 187.073 532.614 187.073 531.858V527.588H186.163V526.286H187.073V524.368H188.683V526.286H190.559V527.588H188.683ZM199.099 529.954C199.099 530.243 199.081 530.505 199.043 530.738H193.149C193.196 531.354 193.425 531.849 193.835 532.222C194.246 532.595 194.75 532.782 195.347 532.782C196.206 532.782 196.813 532.423 197.167 531.704H198.889C198.656 532.413 198.231 532.997 197.615 533.454C197.009 533.902 196.253 534.126 195.347 534.126C194.61 534.126 193.947 533.963 193.359 533.636C192.781 533.3 192.323 532.833 191.987 532.236C191.661 531.629 191.497 530.929 191.497 530.136C191.497 529.343 191.656 528.647 191.973 528.05C192.3 527.443 192.753 526.977 193.331 526.65C193.919 526.323 194.591 526.16 195.347 526.16C196.075 526.16 196.724 526.319 197.293 526.636C197.863 526.953 198.306 527.401 198.623 527.98C198.941 528.549 199.099 529.207 199.099 529.954ZM197.433 529.45C197.424 528.862 197.214 528.391 196.803 528.036C196.393 527.681 195.884 527.504 195.277 527.504C194.727 527.504 194.255 527.681 193.863 528.036C193.471 528.381 193.238 528.853 193.163 529.45H197.433ZM202.266 527.406C202.499 527.014 202.807 526.711 203.19 526.496C203.582 526.272 204.044 526.16 204.576 526.16V527.812H204.17C203.545 527.812 203.069 527.971 202.742 528.288C202.425 528.605 202.266 529.156 202.266 529.94V534H200.67V526.286H202.266V527.406ZM209.935 526.16C210.542 526.16 211.083 526.286 211.559 526.538C212.044 526.79 212.422 527.163 212.693 527.658C212.964 528.153 213.099 528.75 213.099 529.45V534H211.517V529.688C211.517 528.997 211.344 528.47 210.999 528.106C210.654 527.733 210.182 527.546 209.585 527.546C208.988 527.546 208.512 527.733 208.157 528.106C207.812 528.47 207.639 528.997 207.639 529.688V534H206.043V526.286H207.639V527.168C207.9 526.851 208.232 526.603 208.633 526.426C209.044 526.249 209.478 526.16 209.935 526.16ZM214.603 530.108C214.603 529.333 214.762 528.647 215.079 528.05C215.406 527.453 215.844 526.991 216.395 526.664C216.955 526.328 217.571 526.16 218.243 526.16C218.85 526.16 219.377 526.281 219.825 526.524C220.282 526.757 220.646 527.051 220.917 527.406V526.286H222.527V534H220.917V532.852C220.646 533.216 220.278 533.519 219.811 533.762C219.344 534.005 218.812 534.126 218.215 534.126C217.552 534.126 216.946 533.958 216.395 533.622C215.844 533.277 215.406 532.801 215.079 532.194C214.762 531.578 214.603 530.883 214.603 530.108ZM220.917 530.136C220.917 529.604 220.805 529.142 220.581 528.75C220.366 528.358 220.082 528.059 219.727 527.854C219.372 527.649 218.99 527.546 218.579 527.546C218.168 527.546 217.786 527.649 217.431 527.854C217.076 528.05 216.787 528.344 216.563 528.736C216.348 529.119 216.241 529.576 216.241 530.108C216.241 530.64 216.348 531.107 216.563 531.508C216.787 531.909 217.076 532.217 217.431 532.432C217.795 532.637 218.178 532.74 218.579 532.74C218.99 532.74 219.372 532.637 219.727 532.432C220.082 532.227 220.366 531.928 220.581 531.536C220.805 531.135 220.917 530.668 220.917 530.136ZM226.219 523.64V534H224.623V523.64H226.219ZM235.129 524.27C236.165 524.27 237.071 524.471 237.845 524.872C238.629 525.264 239.231 525.833 239.651 526.58C240.081 527.317 240.295 528.181 240.295 529.17C240.295 530.159 240.081 531.018 239.651 531.746C239.231 532.474 238.629 533.034 237.845 533.426C237.071 533.809 236.165 534 235.129 534H231.951V524.27H235.129ZM235.129 532.698C236.268 532.698 237.141 532.39 237.747 531.774C238.354 531.158 238.657 530.29 238.657 529.17C238.657 528.041 238.354 527.159 237.747 526.524C237.141 525.889 236.268 525.572 235.129 525.572H233.547V532.698H235.129ZM241.345 530.108C241.345 529.333 241.504 528.647 241.821 528.05C242.148 527.453 242.586 526.991 243.137 526.664C243.697 526.328 244.313 526.16 244.985 526.16C245.592 526.16 246.119 526.281 246.567 526.524C247.024 526.757 247.388 527.051 247.659 527.406V526.286H249.269V534H247.659V532.852C247.388 533.216 247.02 533.519 246.553 533.762C246.086 534.005 245.554 534.126 244.957 534.126C244.294 534.126 243.688 533.958 243.137 533.622C242.586 533.277 242.148 532.801 241.821 532.194C241.504 531.578 241.345 530.883 241.345 530.108ZM247.659 530.136C247.659 529.604 247.547 529.142 247.323 528.75C247.108 528.358 246.824 528.059 246.469 527.854C246.114 527.649 245.732 527.546 245.321 527.546C244.91 527.546 244.528 527.649 244.173 527.854C243.818 528.05 243.529 528.344 243.305 528.736C243.09 529.119 242.983 529.576 242.983 530.108C242.983 530.64 243.09 531.107 243.305 531.508C243.529 531.909 243.818 532.217 244.173 532.432C244.537 532.637 244.92 532.74 245.321 532.74C245.732 532.74 246.114 532.637 246.469 532.432C246.824 532.227 247.108 531.928 247.323 531.536C247.547 531.135 247.659 530.668 247.659 530.136ZM253.227 527.588V531.858C253.227 532.147 253.293 532.357 253.423 532.488C253.563 532.609 253.797 532.67 254.123 532.67H255.103V534H253.843C253.125 534 252.574 533.832 252.191 533.496C251.809 533.16 251.617 532.614 251.617 531.858V527.588H250.707V526.286H251.617V524.368H253.227V526.286H255.103V527.588H253.227ZM256.042 530.108C256.042 529.333 256.201 528.647 256.518 528.05C256.845 527.453 257.284 526.991 257.834 526.664C258.394 526.328 259.01 526.16 259.682 526.16C260.289 526.16 260.816 526.281 261.264 526.524C261.722 526.757 262.086 527.051 262.356 527.406V526.286H263.966V534H262.356V532.852C262.086 533.216 261.717 533.519 261.25 533.762C260.784 534.005 260.252 534.126 259.654 534.126C258.992 534.126 258.385 533.958 257.834 533.622C257.284 533.277 256.845 532.801 256.518 532.194C256.201 531.578 256.042 530.883 256.042 530.108ZM262.356 530.136C262.356 529.604 262.244 529.142 262.02 528.75C261.806 528.358 261.521 528.059 261.166 527.854C260.812 527.649 260.429 527.546 260.018 527.546C259.608 527.546 259.225 527.649 258.87 527.854C258.516 528.05 258.226 528.344 258.002 528.736C257.788 529.119 257.68 529.576 257.68 530.108C257.68 530.64 257.788 531.107 258.002 531.508C258.226 531.909 258.516 532.217 258.87 532.432C259.234 532.637 259.617 532.74 260.018 532.74C260.429 532.74 260.812 532.637 261.166 532.432C261.521 532.227 261.806 531.928 262.02 531.536C262.244 531.135 262.356 530.668 262.356 530.136ZM192.361 542.27L189.477 552H187.671L185.627 544.636L183.457 552L181.665 552.014L178.907 542.27H180.601L182.617 550.194L184.801 542.27H186.593L188.623 550.152L190.653 542.27H192.361ZM193.145 548.108C193.145 547.333 193.304 546.647 193.621 546.05C193.948 545.453 194.386 544.991 194.937 544.664C195.497 544.328 196.113 544.16 196.785 544.16C197.392 544.16 197.919 544.281 198.367 544.524C198.824 544.757 199.188 545.051 199.459 545.406V544.286H201.069V552H199.459V550.852C199.188 551.216 198.82 551.519 198.353 551.762C197.886 552.005 197.354 552.126 196.757 552.126C196.094 552.126 195.488 551.958 194.937 551.622C194.386 551.277 193.948 550.801 193.621 550.194C193.304 549.578 193.145 548.883 193.145 548.108ZM199.459 548.136C199.459 547.604 199.347 547.142 199.123 546.75C198.908 546.358 198.624 546.059 198.269 545.854C197.914 545.649 197.532 545.546 197.121 545.546C196.71 545.546 196.328 545.649 195.973 545.854C195.618 546.05 195.329 546.344 195.105 546.736C194.89 547.119 194.783 547.576 194.783 548.108C194.783 548.64 194.89 549.107 195.105 549.508C195.329 549.909 195.618 550.217 195.973 550.432C196.337 550.637 196.72 550.74 197.121 550.74C197.532 550.74 197.914 550.637 198.269 550.432C198.624 550.227 198.908 549.928 199.123 549.536C199.347 549.135 199.459 548.668 199.459 548.136ZM204.761 545.406C204.995 545.014 205.303 544.711 205.685 544.496C206.077 544.272 206.539 544.16 207.071 544.16V545.812H206.665C206.04 545.812 205.564 545.971 205.237 546.288C204.92 546.605 204.761 547.156 204.761 547.94V552H203.165V544.286H204.761V545.406ZM215.608 547.954C215.608 548.243 215.59 548.505 215.552 548.738H209.658C209.705 549.354 209.934 549.849 210.344 550.222C210.755 550.595 211.259 550.782 211.856 550.782C212.715 550.782 213.322 550.423 213.676 549.704H215.398C215.165 550.413 214.74 550.997 214.124 551.454C213.518 551.902 212.762 552.126 211.856 552.126C211.119 552.126 210.456 551.963 209.868 551.636C209.29 551.3 208.832 550.833 208.496 550.236C208.17 549.629 208.006 548.929 208.006 548.136C208.006 547.343 208.165 546.647 208.482 546.05C208.809 545.443 209.262 544.977 209.84 544.65C210.428 544.323 211.1 544.16 211.856 544.16C212.584 544.16 213.233 544.319 213.802 544.636C214.372 544.953 214.815 545.401 215.132 545.98C215.45 546.549 215.608 547.207 215.608 547.954ZM213.942 547.45C213.933 546.862 213.723 546.391 213.312 546.036C212.902 545.681 212.393 545.504 211.786 545.504C211.236 545.504 210.764 545.681 210.372 546.036C209.98 546.381 209.747 546.853 209.672 547.45H213.942ZM221.169 544.16C221.757 544.16 222.28 544.286 222.737 544.538C223.204 544.79 223.568 545.163 223.829 545.658C224.1 546.153 224.235 546.75 224.235 547.45V552H222.653V547.688C222.653 546.997 222.48 546.47 222.135 546.106C221.79 545.733 221.318 545.546 220.721 545.546C220.124 545.546 219.648 545.733 219.293 546.106C218.948 546.47 218.775 546.997 218.775 547.688V552H217.179V541.64H218.775V545.182C219.046 544.855 219.386 544.603 219.797 544.426C220.217 544.249 220.674 544.16 221.169 544.16ZM229.617 552.126C228.889 552.126 228.231 551.963 227.643 551.636C227.055 551.3 226.593 550.833 226.257 550.236C225.921 549.629 225.753 548.929 225.753 548.136C225.753 547.352 225.925 546.657 226.271 546.05C226.616 545.443 227.087 544.977 227.685 544.65C228.282 544.323 228.949 544.16 229.687 544.16C230.424 544.16 231.091 544.323 231.689 544.65C232.286 544.977 232.757 545.443 233.103 546.05C233.448 546.657 233.621 547.352 233.621 548.136C233.621 548.92 233.443 549.615 233.089 550.222C232.734 550.829 232.249 551.3 231.633 551.636C231.026 551.963 230.354 552.126 229.617 552.126ZM229.617 550.74C230.027 550.74 230.41 550.642 230.765 550.446C231.129 550.25 231.423 549.956 231.647 549.564C231.871 549.172 231.983 548.696 231.983 548.136C231.983 547.576 231.875 547.105 231.661 546.722C231.446 546.33 231.161 546.036 230.807 545.84C230.452 545.644 230.069 545.546 229.659 545.546C229.248 545.546 228.865 545.644 228.511 545.84C228.165 546.036 227.89 546.33 227.685 546.722C227.479 547.105 227.377 547.576 227.377 548.136C227.377 548.967 227.587 549.611 228.007 550.068C228.436 550.516 228.973 550.74 229.617 550.74ZM242.184 544.286V552H240.588V551.09C240.336 551.407 240.005 551.659 239.594 551.846C239.193 552.023 238.764 552.112 238.306 552.112C237.7 552.112 237.154 551.986 236.668 551.734C236.192 551.482 235.814 551.109 235.534 550.614C235.264 550.119 235.128 549.522 235.128 548.822V544.286H236.71V548.584C236.71 549.275 236.883 549.807 237.228 550.18C237.574 550.544 238.045 550.726 238.642 550.726C239.24 550.726 239.711 550.544 240.056 550.18C240.411 549.807 240.588 549.275 240.588 548.584V544.286H242.184ZM247.09 552.126C246.484 552.126 245.938 552.019 245.452 551.804C244.976 551.58 244.598 551.281 244.318 550.908C244.038 550.525 243.889 550.101 243.87 549.634H245.522C245.55 549.961 245.704 550.236 245.984 550.46C246.274 550.675 246.633 550.782 247.062 550.782C247.51 550.782 247.856 550.698 248.098 550.53C248.35 550.353 248.476 550.129 248.476 549.858C248.476 549.569 248.336 549.354 248.056 549.214C247.786 549.074 247.352 548.92 246.754 548.752C246.176 548.593 245.704 548.439 245.34 548.29C244.976 548.141 244.659 547.912 244.388 547.604C244.127 547.296 243.996 546.89 243.996 546.386C243.996 545.975 244.118 545.602 244.36 545.266C244.603 544.921 244.948 544.65 245.396 544.454C245.854 544.258 246.376 544.16 246.964 544.16C247.842 544.16 248.546 544.384 249.078 544.832C249.62 545.271 249.909 545.873 249.946 546.638H248.35C248.322 546.293 248.182 546.017 247.93 545.812C247.678 545.607 247.338 545.504 246.908 545.504C246.488 545.504 246.166 545.583 245.942 545.742C245.718 545.901 245.606 546.111 245.606 546.372C245.606 546.577 245.681 546.75 245.83 546.89C245.98 547.03 246.162 547.142 246.376 547.226C246.591 547.301 246.908 547.399 247.328 547.52C247.888 547.669 248.346 547.823 248.7 547.982C249.064 548.131 249.377 548.355 249.638 548.654C249.9 548.953 250.035 549.349 250.044 549.844C250.044 550.283 249.923 550.675 249.68 551.02C249.438 551.365 249.092 551.636 248.644 551.832C248.206 552.028 247.688 552.126 247.09 552.126ZM258.839 547.954C258.839 548.243 258.82 548.505 258.783 548.738H252.889C252.935 549.354 253.164 549.849 253.575 550.222C253.985 550.595 254.489 550.782 255.087 550.782C255.945 550.782 256.552 550.423 256.907 549.704H258.629C258.395 550.413 257.971 550.997 257.355 551.454C256.748 551.902 255.992 552.126 255.087 552.126C254.349 552.126 253.687 551.963 253.099 551.636C252.52 551.3 252.063 550.833 251.727 550.236C251.4 549.629 251.237 548.929 251.237 548.136C251.237 547.343 251.395 546.647 251.713 546.05C252.039 545.443 252.492 544.977 253.071 544.65C253.659 544.323 254.331 544.16 255.087 544.16C255.815 544.16 256.463 544.319 257.033 544.636C257.602 544.953 258.045 545.401 258.363 545.98C258.68 546.549 258.839 547.207 258.839 547.954ZM257.173 547.45C257.163 546.862 256.953 546.391 256.543 546.036C256.132 545.681 255.623 545.504 255.017 545.504C254.466 545.504 253.995 545.681 253.603 546.036C253.211 546.381 252.977 546.853 252.903 547.45H257.173Z" fill="white"/>
</g>
<circle cx="68.8105" cy="417.047" r="3" transform="rotate(-90 68.8105 417.047)" fill="#FAA204"/>
<circle cx="109.811" cy="417.047" r="3" transform="rotate(-90 109.811 417.047)" fill="#FAA204"/>
<circle cx="68.8105" cy="474.106" r="3" transform="rotate(-90 68.8105 474.106)" fill="#FAA204"/>
<circle cx="109.811" cy="474.106" r="3" transform="rotate(-90 109.811 474.106)" fill="#FAA204"/>
<circle cx="68.8105" cy="540.544" r="3" transform="rotate(-90 68.8105 540.544)" fill="#FAA204"/>
<circle cx="109.811" cy="540.544" r="3" transform="rotate(-90 109.811 540.544)" fill="#FAA204"/>
<path d="M160.132 182.192C160.132 182.757 159.999 183.291 159.732 183.792C159.466 184.293 159.039 184.704 158.452 185.024C157.866 185.333 157.114 185.488 156.196 185.488H154.18V190H152.356V178.88H156.196C157.05 178.88 157.77 179.029 158.356 179.328C158.954 179.616 159.396 180.011 159.684 180.512C159.983 181.013 160.132 181.573 160.132 182.192ZM156.196 184C156.89 184 157.407 183.845 157.748 183.536C158.09 183.216 158.26 182.768 158.26 182.192C158.26 180.976 157.572 180.368 156.196 180.368H154.18V184H156.196ZM163.696 182.464C163.963 182.016 164.315 181.669 164.752 181.424C165.2 181.168 165.728 181.04 166.336 181.04V182.928H165.872C165.157 182.928 164.613 183.109 164.24 183.472C163.877 183.835 163.696 184.464 163.696 185.36V190H161.872V181.184H163.696V182.464ZM176.093 185.376C176.093 185.707 176.071 186.005 176.029 186.272H169.293C169.346 186.976 169.607 187.541 170.077 187.968C170.546 188.395 171.122 188.608 171.805 188.608C172.786 188.608 173.479 188.197 173.885 187.376H175.852C175.586 188.187 175.101 188.853 174.397 189.376C173.703 189.888 172.839 190.144 171.805 190.144C170.962 190.144 170.205 189.957 169.533 189.584C168.871 189.2 168.349 188.667 167.965 187.984C167.591 187.291 167.405 186.491 167.405 185.584C167.405 184.677 167.586 183.883 167.949 183.2C168.322 182.507 168.839 181.973 169.501 181.6C170.173 181.227 170.941 181.04 171.805 181.04C172.637 181.04 173.378 181.221 174.029 181.584C174.679 181.947 175.186 182.459 175.549 183.12C175.911 183.771 176.093 184.523 176.093 185.376ZM174.189 184.8C174.178 184.128 173.938 183.589 173.469 183.184C172.999 182.779 172.418 182.576 171.725 182.576C171.095 182.576 170.557 182.779 170.109 183.184C169.661 183.579 169.394 184.117 169.309 184.8H174.189ZM184.656 183.44V184.976H178.08V183.44H184.656ZM189.071 182.496C189.38 182.069 189.802 181.723 190.335 181.456C190.879 181.179 191.482 181.04 192.143 181.04C192.922 181.04 193.626 181.227 194.255 181.6C194.884 181.973 195.38 182.507 195.743 183.2C196.106 183.883 196.287 184.667 196.287 185.552C196.287 186.437 196.106 187.232 195.743 187.936C195.38 188.629 194.879 189.173 194.239 189.568C193.61 189.952 192.911 190.144 192.143 190.144C191.46 190.144 190.852 190.011 190.319 189.744C189.796 189.477 189.38 189.136 189.071 188.72V190H187.247V178.16H189.071V182.496ZM194.431 185.552C194.431 184.944 194.303 184.421 194.047 183.984C193.802 183.536 193.471 183.2 193.055 182.976C192.65 182.741 192.212 182.624 191.743 182.624C191.284 182.624 190.847 182.741 190.431 182.976C190.026 183.211 189.695 183.552 189.439 184C189.194 184.448 189.071 184.976 189.071 185.584C189.071 186.192 189.194 186.725 189.439 187.184C189.695 187.632 190.026 187.973 190.431 188.208C190.847 188.443 191.284 188.56 191.743 188.56C192.212 188.56 192.65 188.443 193.055 188.208C193.471 187.963 193.802 187.611 194.047 187.152C194.303 186.693 194.431 186.16 194.431 185.552ZM206.075 181.184V190H204.251V188.96C203.963 189.323 203.584 189.611 203.115 189.824C202.656 190.027 202.165 190.128 201.643 190.128C200.949 190.128 200.325 189.984 199.771 189.696C199.227 189.408 198.795 188.981 198.475 188.416C198.165 187.851 198.011 187.168 198.011 186.368V181.184H199.819V186.096C199.819 186.885 200.016 187.493 200.411 187.92C200.805 188.336 201.344 188.544 202.027 188.544C202.709 188.544 203.248 188.336 203.643 187.92C204.048 187.493 204.251 186.885 204.251 186.096V181.184H206.075ZM209.409 180.016C209.079 180.016 208.801 179.904 208.577 179.68C208.353 179.456 208.241 179.179 208.241 178.848C208.241 178.517 208.353 178.24 208.577 178.016C208.801 177.792 209.079 177.68 209.409 177.68C209.729 177.68 210.001 177.792 210.225 178.016C210.449 178.24 210.561 178.517 210.561 178.848C210.561 179.179 210.449 179.456 210.225 179.68C210.001 179.904 209.729 180.016 209.409 180.016ZM210.305 181.184V190H208.481V181.184H210.305ZM214.524 178.16V190H212.7V178.16H214.524ZM219.047 182.672V187.552C219.047 187.883 219.121 188.123 219.271 188.272C219.431 188.411 219.697 188.48 220.071 188.48H221.191V190H219.751C218.929 190 218.3 189.808 217.863 189.424C217.425 189.04 217.207 188.416 217.207 187.552V182.672H216.167V181.184H217.207V178.992H219.047V181.184H221.191V182.672H219.047ZM232.804 190L230.244 185.552H228.852V190H227.028V178.88H230.868C231.721 178.88 232.441 179.029 233.028 179.328C233.625 179.627 234.068 180.027 234.356 180.528C234.655 181.029 234.804 181.589 234.804 182.208C234.804 182.933 234.591 183.595 234.164 184.192C233.748 184.779 233.103 185.179 232.228 185.392L234.98 190H232.804ZM228.852 184.096H230.868C231.551 184.096 232.063 183.925 232.404 183.584C232.756 183.243 232.932 182.784 232.932 182.208C232.932 181.632 232.761 181.184 232.42 180.864C232.079 180.533 231.561 180.368 230.868 180.368H228.852V184.096ZM245.218 185.376C245.218 185.707 245.196 186.005 245.154 186.272H238.418C238.471 186.976 238.732 187.541 239.202 187.968C239.671 188.395 240.247 188.608 240.93 188.608C241.911 188.608 242.604 188.197 243.01 187.376H244.977C244.711 188.187 244.226 188.853 243.522 189.376C242.828 189.888 241.964 190.144 240.93 190.144C240.087 190.144 239.33 189.957 238.658 189.584C237.996 189.2 237.474 188.667 237.09 187.984C236.716 187.291 236.53 186.491 236.53 185.584C236.53 184.677 236.711 183.883 237.074 183.2C237.447 182.507 237.964 181.973 238.626 181.6C239.298 181.227 240.066 181.04 240.93 181.04C241.762 181.04 242.503 181.221 243.154 181.584C243.804 181.947 244.311 182.459 244.674 183.12C245.036 183.771 245.218 184.523 245.218 185.376ZM243.314 184.8C243.303 184.128 243.063 183.589 242.594 183.184C242.124 182.779 241.543 182.576 240.85 182.576C240.22 182.576 239.682 182.779 239.234 183.184C238.786 183.579 238.519 184.117 238.434 184.8H243.314ZM248.837 182.48C249.146 182.075 249.567 181.733 250.101 181.456C250.634 181.179 251.237 181.04 251.909 181.04C252.677 181.04 253.375 181.232 254.005 181.616C254.645 181.989 255.146 182.517 255.509 183.2C255.871 183.883 256.053 184.667 256.053 185.552C256.053 186.437 255.871 187.232 255.509 187.936C255.146 188.629 254.645 189.173 254.005 189.568C253.375 189.952 252.677 190.144 251.909 190.144C251.237 190.144 250.639 190.011 250.117 189.744C249.594 189.467 249.167 189.125 248.837 188.72V194.192H247.013V181.184H248.837V182.48ZM254.197 185.552C254.197 184.944 254.069 184.421 253.812 183.984C253.567 183.536 253.237 183.2 252.821 182.976C252.415 182.741 251.978 182.624 251.509 182.624C251.05 182.624 250.613 182.741 250.197 182.976C249.791 183.211 249.461 183.552 249.205 184C248.959 184.448 248.837 184.976 248.837 185.584C248.837 186.192 248.959 186.725 249.205 187.184C249.461 187.632 249.791 187.973 250.197 188.208C250.613 188.443 251.05 188.56 251.509 188.56C251.978 188.56 252.415 188.443 252.821 188.208C253.237 187.963 253.567 187.611 253.812 187.152C254.069 186.693 254.197 186.16 254.197 185.552ZM261.68 190.144C260.848 190.144 260.096 189.957 259.424 189.584C258.752 189.2 258.224 188.667 257.84 187.984C257.456 187.291 257.264 186.491 257.264 185.584C257.264 184.688 257.462 183.893 257.856 183.2C258.251 182.507 258.79 181.973 259.472 181.6C260.155 181.227 260.918 181.04 261.76 181.04C262.603 181.04 263.366 181.227 264.048 181.6C264.731 181.973 265.27 182.507 265.664 183.2C266.059 183.893 266.256 184.688 266.256 185.584C266.256 186.48 266.054 187.275 265.648 187.968C265.243 188.661 264.688 189.2 263.984 189.584C263.291 189.957 262.523 190.144 261.68 190.144ZM261.68 188.56C262.15 188.56 262.587 188.448 262.992 188.224C263.408 188 263.744 187.664 264 187.216C264.256 186.768 264.384 186.224 264.384 185.584C264.384 184.944 264.262 184.405 264.016 183.968C263.771 183.52 263.446 183.184 263.04 182.96C262.635 182.736 262.198 182.624 261.728 182.624C261.259 182.624 260.822 182.736 260.416 182.96C260.022 183.184 259.707 183.52 259.472 183.968C259.238 184.405 259.12 184.944 259.12 185.584C259.12 186.533 259.36 187.269 259.84 187.792C260.331 188.304 260.944 188.56 261.68 188.56ZM269.883 182.464C270.15 182.016 270.502 181.669 270.939 181.424C271.387 181.168 271.915 181.04 272.523 181.04V182.928H272.059C271.345 182.928 270.801 183.109 270.427 183.472C270.065 183.835 269.883 184.464 269.883 185.36V190H268.059V181.184H269.883V182.464ZM276.328 182.672V187.552C276.328 187.883 276.403 188.123 276.552 188.272C276.712 188.411 276.979 188.48 277.352 188.48H278.472V190H277.032C276.211 190 275.581 189.808 275.144 189.424C274.707 189.04 274.488 188.416 274.488 187.552V182.672H273.448V181.184H274.488V178.992H276.328V181.184H278.472V182.672H276.328ZM283.353 190.144C282.66 190.144 282.036 190.021 281.481 189.776C280.937 189.52 280.505 189.179 280.185 188.752C279.865 188.315 279.694 187.829 279.673 187.296H281.561C281.593 187.669 281.769 187.984 282.089 188.24C282.42 188.485 282.83 188.608 283.321 188.608C283.833 188.608 284.228 188.512 284.505 188.32C284.793 188.117 284.937 187.861 284.937 187.552C284.937 187.221 284.777 186.976 284.457 186.816C284.148 186.656 283.652 186.48 282.969 186.288C282.308 186.107 281.769 185.931 281.353 185.76C280.937 185.589 280.574 185.328 280.265 184.976C279.966 184.624 279.817 184.16 279.817 183.584C279.817 183.115 279.956 182.688 280.233 182.304C280.51 181.909 280.905 181.6 281.417 181.376C281.94 181.152 282.537 181.04 283.209 181.04C284.212 181.04 285.017 181.296 285.625 181.808C286.244 182.309 286.574 182.997 286.617 183.872H284.793C284.761 183.477 284.601 183.163 284.313 182.928C284.025 182.693 283.636 182.576 283.145 182.576C282.665 182.576 282.297 182.667 282.041 182.848C281.785 183.029 281.657 183.269 281.657 183.568C281.657 183.803 281.742 184 281.913 184.16C282.084 184.32 282.292 184.448 282.537 184.544C282.782 184.629 283.145 184.741 283.625 184.88C284.265 185.051 284.788 185.227 285.193 185.408C285.609 185.579 285.966 185.835 286.265 186.176C286.564 186.517 286.718 186.971 286.729 187.536C286.729 188.037 286.59 188.485 286.313 188.88C286.036 189.275 285.641 189.584 285.129 189.808C284.628 190.032 284.036 190.144 283.353 190.144ZM182.417 212L181.041 210.624C180.508 211.157 179.926 211.557 179.297 211.824C178.668 212.08 177.964 212.208 177.185 212.208C176.396 212.208 175.697 212.069 175.089 211.792C174.481 211.515 174.012 211.12 173.681 210.608C173.35 210.085 173.185 209.483 173.185 208.8C173.185 208.032 173.404 207.349 173.841 206.752C174.278 206.144 174.929 205.664 175.793 205.312C175.484 204.939 175.265 204.592 175.137 204.272C175.009 203.941 174.945 203.579 174.945 203.184C174.945 202.693 175.068 202.256 175.313 201.872C175.569 201.488 175.932 201.184 176.401 200.96C176.87 200.736 177.414 200.624 178.033 200.624C178.662 200.624 179.196 200.747 179.633 200.992C180.081 201.227 180.412 201.552 180.625 201.968C180.849 202.384 180.94 202.848 180.897 203.36H179.073C179.084 202.965 178.988 202.661 178.785 202.448C178.582 202.224 178.305 202.112 177.953 202.112C177.601 202.112 177.313 202.219 177.089 202.432C176.876 202.635 176.769 202.885 176.769 203.184C176.769 203.472 176.849 203.76 177.009 204.048C177.18 204.325 177.473 204.688 177.889 205.136L180.833 208.064L181.969 206.192H183.937L182.497 208.656L182.097 209.312L184.801 212H182.417ZM177.185 210.656C178.188 210.656 179.073 210.245 179.841 209.424L176.897 206.464C175.638 206.965 175.009 207.723 175.009 208.736C175.009 209.28 175.212 209.739 175.617 210.112C176.022 210.475 176.545 210.656 177.185 210.656ZM193.785 200.88C194.969 200.88 196.004 201.109 196.889 201.568C197.785 202.016 198.473 202.667 198.953 203.52C199.444 204.363 199.689 205.349 199.689 206.48C199.689 207.611 199.444 208.592 198.953 209.424C198.473 210.256 197.785 210.896 196.889 211.344C196.004 211.781 194.969 212 193.785 212H190.153V200.88H193.785ZM193.785 210.512C195.086 210.512 196.084 210.16 196.777 209.456C197.47 208.752 197.817 207.76 197.817 206.48C197.817 205.189 197.47 204.181 196.777 203.456C196.084 202.731 195.086 202.368 193.785 202.368H191.977V210.512H193.785ZM200.889 207.552C200.889 206.667 201.07 205.883 201.433 205.2C201.806 204.517 202.308 203.989 202.937 203.616C203.577 203.232 204.281 203.04 205.049 203.04C205.742 203.04 206.345 203.179 206.857 203.456C207.38 203.723 207.796 204.059 208.105 204.464V203.184H209.945V212H208.105V210.688C207.796 211.104 207.374 211.451 206.841 211.728C206.308 212.005 205.7 212.144 205.017 212.144C204.26 212.144 203.566 211.952 202.937 211.568C202.308 211.173 201.806 210.629 201.433 209.936C201.07 209.232 200.889 208.437 200.889 207.552ZM208.105 207.584C208.105 206.976 207.977 206.448 207.721 206C207.476 205.552 207.15 205.211 206.745 204.976C206.34 204.741 205.902 204.624 205.433 204.624C204.964 204.624 204.526 204.741 204.121 204.976C203.716 205.2 203.385 205.536 203.129 205.984C202.884 206.421 202.761 206.944 202.761 207.552C202.761 208.16 202.884 208.693 203.129 209.152C203.385 209.611 203.716 209.963 204.121 210.208C204.537 210.443 204.974 210.56 205.433 210.56C205.902 210.56 206.34 210.443 206.745 210.208C207.15 209.973 207.476 209.632 207.721 209.184C207.977 208.725 208.105 208.192 208.105 207.584ZM215.541 212.144C214.847 212.144 214.223 212.021 213.669 211.776C213.125 211.52 212.693 211.179 212.373 210.752C212.053 210.315 211.882 209.829 211.861 209.296H213.749C213.781 209.669 213.957 209.984 214.277 210.24C214.607 210.485 215.018 210.608 215.509 210.608C216.021 210.608 216.415 210.512 216.693 210.32C216.981 210.117 217.125 209.861 217.125 209.552C217.125 209.221 216.965 208.976 216.645 208.816C216.335 208.656 215.839 208.48 215.157 208.288C214.495 208.107 213.957 207.931 213.541 207.76C213.125 207.589 212.762 207.328 212.453 206.976C212.154 206.624 212.005 206.16 212.005 205.584C212.005 205.115 212.143 204.688 212.421 204.304C212.698 203.909 213.093 203.6 213.605 203.376C214.127 203.152 214.725 203.04 215.397 203.04C216.399 203.04 217.205 203.296 217.813 203.808C218.431 204.309 218.762 204.997 218.805 205.872H216.981C216.949 205.477 216.789 205.163 216.501 204.928C216.213 204.693 215.823 204.576 215.333 204.576C214.853 204.576 214.485 204.667 214.229 204.848C213.973 205.029 213.845 205.269 213.845 205.568C213.845 205.803 213.93 206 214.101 206.16C214.271 206.32 214.479 206.448 214.725 206.544C214.97 206.629 215.333 206.741 215.813 206.88C216.453 207.051 216.975 207.227 217.381 207.408C217.797 207.579 218.154 207.835 218.453 208.176C218.751 208.517 218.906 208.971 218.917 209.536C218.917 210.037 218.778 210.485 218.501 210.88C218.223 211.275 217.829 211.584 217.317 211.808C216.815 212.032 216.223 212.144 215.541 212.144ZM225.448 203.04C226.12 203.04 226.717 203.184 227.24 203.472C227.773 203.76 228.189 204.187 228.488 204.752C228.797 205.317 228.952 206 228.952 206.8V212H227.144V207.072C227.144 206.283 226.946 205.68 226.552 205.264C226.157 204.837 225.618 204.624 224.936 204.624C224.253 204.624 223.709 204.837 223.304 205.264C222.909 205.68 222.712 206.283 222.712 207.072V212H220.888V200.16H222.712V204.208C223.021 203.835 223.41 203.547 223.88 203.344C224.36 203.141 224.882 203.04 225.448 203.04ZM233.102 204.496C233.411 204.069 233.833 203.723 234.366 203.456C234.91 203.179 235.513 203.04 236.174 203.04C236.953 203.04 237.657 203.227 238.286 203.6C238.915 203.973 239.411 204.507 239.774 205.2C240.137 205.883 240.318 206.667 240.318 207.552C240.318 208.437 240.137 209.232 239.774 209.936C239.411 210.629 238.91 211.173 238.27 211.568C237.641 211.952 236.942 212.144 236.174 212.144C235.491 212.144 234.883 212.011 234.35 211.744C233.827 211.477 233.411 211.136 233.102 210.72V212H231.278V200.16H233.102V204.496ZM238.462 207.552C238.462 206.944 238.334 206.421 238.078 205.984C237.833 205.536 237.502 205.2 237.086 204.976C236.681 204.741 236.243 204.624 235.774 204.624C235.315 204.624 234.878 204.741 234.462 204.976C234.057 205.211 233.726 205.552 233.47 206C233.225 206.448 233.102 206.976 233.102 207.584C233.102 208.192 233.225 208.725 233.47 209.184C233.726 209.632 234.057 209.973 234.462 210.208C234.878 210.443 235.315 210.56 235.774 210.56C236.243 210.56 236.681 210.443 237.086 210.208C237.502 209.963 237.833 209.611 238.078 209.152C238.334 208.693 238.462 208.16 238.462 207.552ZM245.946 212.144C245.114 212.144 244.362 211.957 243.69 211.584C243.018 211.2 242.49 210.667 242.106 209.984C241.722 209.291 241.53 208.491 241.53 207.584C241.53 206.688 241.727 205.893 242.122 205.2C242.517 204.507 243.055 203.973 243.738 203.6C244.421 203.227 245.183 203.04 246.026 203.04C246.869 203.04 247.631 203.227 248.314 203.6C248.997 203.973 249.535 204.507 249.93 205.2C250.325 205.893 250.522 206.688 250.522 207.584C250.522 208.48 250.319 209.275 249.914 209.968C249.509 210.661 248.954 211.2 248.25 211.584C247.557 211.957 246.789 212.144 245.946 212.144ZM245.946 210.56C246.415 210.56 246.853 210.448 247.258 210.224C247.674 210 248.01 209.664 248.266 209.216C248.522 208.768 248.65 208.224 248.65 207.584C248.65 206.944 248.527 206.405 248.282 205.968C248.037 205.52 247.711 205.184 247.306 204.96C246.901 204.736 246.463 204.624 245.994 204.624C245.525 204.624 245.087 204.736 244.682 204.96C244.287 205.184 243.973 205.52 243.738 205.968C243.503 206.405 243.386 206.944 243.386 207.584C243.386 208.533 243.626 209.269 244.106 209.792C244.597 210.304 245.21 210.56 245.946 210.56ZM251.717 207.552C251.717 206.667 251.898 205.883 252.261 205.2C252.634 204.517 253.136 203.989 253.765 203.616C254.405 203.232 255.109 203.04 255.877 203.04C256.57 203.04 257.173 203.179 257.685 203.456C258.208 203.723 258.624 204.059 258.933 204.464V203.184H260.773V212H258.933V210.688C258.624 211.104 258.202 211.451 257.669 211.728C257.136 212.005 256.528 212.144 255.845 212.144C255.088 212.144 254.394 211.952 253.765 211.568C253.136 211.173 252.634 210.629 252.261 209.936C251.898 209.232 251.717 208.437 251.717 207.552ZM258.933 207.584C258.933 206.976 258.805 206.448 258.549 206C258.304 205.552 257.978 205.211 257.573 204.976C257.168 204.741 256.73 204.624 256.261 204.624C255.792 204.624 255.354 204.741 254.949 204.976C254.544 205.2 254.213 205.536 253.957 205.984C253.712 206.421 253.589 206.944 253.589 207.552C253.589 208.16 253.712 208.693 253.957 209.152C254.213 209.611 254.544 209.963 254.949 210.208C255.365 210.443 255.802 210.56 256.261 210.56C256.73 210.56 257.168 210.443 257.573 210.208C257.978 209.973 258.304 209.632 258.549 209.184C258.805 208.725 258.933 208.192 258.933 207.584ZM264.993 204.464C265.259 204.016 265.611 203.669 266.049 203.424C266.497 203.168 267.025 203.04 267.633 203.04V204.928H267.169C266.454 204.928 265.91 205.109 265.537 205.472C265.174 205.835 264.993 206.464 264.993 207.36V212H263.169V203.184H264.993V204.464ZM268.701 207.552C268.701 206.667 268.883 205.883 269.245 205.2C269.619 204.517 270.12 203.989 270.749 203.616C271.389 203.232 272.099 203.04 272.877 203.04C273.453 203.04 274.019 203.168 274.573 203.424C275.139 203.669 275.587 204 275.917 204.416V200.16H277.757V212H275.917V210.672C275.619 211.099 275.203 211.451 274.669 211.728C274.147 212.005 273.544 212.144 272.861 212.144C272.093 212.144 271.389 211.952 270.749 211.568C270.12 211.173 269.619 210.629 269.245 209.936C268.883 209.232 268.701 208.437 268.701 207.552ZM275.917 207.584C275.917 206.976 275.789 206.448 275.533 206C275.288 205.552 274.963 205.211 274.557 204.976C274.152 204.741 273.715 204.624 273.245 204.624C272.776 204.624 272.339 204.741 271.933 204.976C271.528 205.2 271.197 205.536 270.941 205.984C270.696 206.421 270.573 206.944 270.573 207.552C270.573 208.16 270.696 208.693 270.941 209.152C271.197 209.611 271.528 209.963 271.933 210.208C272.349 210.443 272.787 210.56 273.245 210.56C273.715 210.56 274.152 210.443 274.557 210.208C274.963 209.973 275.288 209.632 275.533 209.184C275.789 208.725 275.917 208.192 275.917 207.584ZM283.353 212.144C282.66 212.144 282.036 212.021 281.481 211.776C280.937 211.52 280.505 211.179 280.185 210.752C279.865 210.315 279.694 209.829 279.673 209.296H281.561C281.593 209.669 281.769 209.984 282.089 210.24C282.42 210.485 282.83 210.608 283.321 210.608C283.833 210.608 284.228 210.512 284.505 210.32C284.793 210.117 284.937 209.861 284.937 209.552C284.937 209.221 284.777 208.976 284.457 208.816C284.148 208.656 283.652 208.48 282.969 208.288C282.308 208.107 281.769 207.931 281.353 207.76C280.937 207.589 280.574 207.328 280.265 206.976C279.966 206.624 279.817 206.16 279.817 205.584C279.817 205.115 279.956 204.688 280.233 204.304C280.51 203.909 280.905 203.6 281.417 203.376C281.94 203.152 282.537 203.04 283.209 203.04C284.212 203.04 285.017 203.296 285.625 203.808C286.244 204.309 286.574 204.997 286.617 205.872H284.793C284.761 205.477 284.601 205.163 284.313 204.928C284.025 204.693 283.636 204.576 283.145 204.576C282.665 204.576 282.297 204.667 282.041 204.848C281.785 205.029 281.657 205.269 281.657 205.568C281.657 205.803 281.742 206 281.913 206.16C282.084 206.32 282.292 206.448 282.537 206.544C282.782 206.629 283.145 206.741 283.625 206.88C284.265 207.051 284.788 207.227 285.193 207.408C285.609 207.579 285.966 207.835 286.265 208.176C286.564 208.517 286.718 208.971 286.729 209.536C286.729 210.037 286.59 210.485 286.313 210.88C286.036 211.275 285.641 211.584 285.129 211.808C284.628 212.032 284.036 212.144 283.353 212.144Z" fill="#ABAECD"/>
<path d="M8.404 133.728H3.748L2.948 136H1.044L5.028 124.864H7.14L11.124 136H9.204L8.404 133.728ZM7.892 132.24L6.084 127.072L4.26 132.24H7.892ZM12.2483 131.584C12.2483 130.677 12.4296 129.883 12.7923 129.2C13.1656 128.507 13.6776 127.973 14.3283 127.6C14.9789 127.227 15.7256 127.04 16.5683 127.04C17.6349 127.04 18.5149 127.296 19.2083 127.808C19.9123 128.309 20.3869 129.029 20.6323 129.968H18.6643C18.5043 129.531 18.2483 129.189 17.8963 128.944C17.5443 128.699 17.1016 128.576 16.5683 128.576C15.8216 128.576 15.2243 128.843 14.7763 129.376C14.3389 129.899 14.1203 130.635 14.1203 131.584C14.1203 132.533 14.3389 133.275 14.7763 133.808C15.2243 134.341 15.8216 134.608 16.5683 134.608C17.6243 134.608 18.3229 134.144 18.6643 133.216H20.6323C20.3763 134.112 19.8963 134.827 19.1923 135.36C18.4883 135.883 17.6136 136.144 16.5683 136.144C15.7256 136.144 14.9789 135.957 14.3283 135.584C13.6776 135.2 13.1656 134.667 12.7923 133.984C12.4296 133.291 12.2483 132.491 12.2483 131.584ZM21.842 131.584C21.842 130.677 22.0233 129.883 22.386 129.2C22.7593 128.507 23.2713 127.973 23.922 127.6C24.5727 127.227 25.3193 127.04 26.162 127.04C27.2287 127.04 28.1087 127.296 28.802 127.808C29.506 128.309 29.9807 129.029 30.226 129.968H28.258C28.098 129.531 27.842 129.189 27.49 128.944C27.138 128.699 26.6953 128.576 26.162 128.576C25.4153 128.576 24.818 128.843 24.37 129.376C23.9327 129.899 23.714 130.635 23.714 131.584C23.714 132.533 23.9327 133.275 24.37 133.808C24.818 134.341 25.4153 134.608 26.162 134.608C27.218 134.608 27.9167 134.144 28.258 133.216H30.226C29.97 134.112 29.49 134.827 28.786 135.36C28.082 135.883 27.2073 136.144 26.162 136.144C25.3193 136.144 24.5727 135.957 23.922 135.584C23.2713 135.2 22.7593 134.667 22.386 133.984C22.0233 133.291 21.842 132.491 21.842 131.584ZM40.1238 131.376C40.1238 131.707 40.1024 132.005 40.0598 132.272H33.3238C33.3771 132.976 33.6384 133.541 34.1078 133.968C34.5771 134.395 35.1531 134.608 35.8358 134.608C36.8171 134.608 37.5104 134.197 37.9158 133.376H39.8837C39.6171 134.187 39.1318 134.853 38.4278 135.376C37.7344 135.888 36.8704 136.144 35.8358 136.144C34.9931 136.144 34.2358 135.957 33.5638 135.584C32.9024 135.2 32.3798 134.667 31.9958 133.984C31.6224 133.291 31.4358 132.491 31.4358 131.584C31.4358 130.677 31.6171 129.883 31.9798 129.2C32.3531 128.507 32.8704 127.973 33.5318 127.6C34.2038 127.227 34.9718 127.04 35.8358 127.04C36.6678 127.04 37.4091 127.221 38.0598 127.584C38.7104 127.947 39.2171 128.459 39.5798 129.12C39.9424 129.771 40.1238 130.523 40.1238 131.376ZM38.2198 130.8C38.2091 130.128 37.9691 129.589 37.4998 129.184C37.0304 128.779 36.4491 128.576 35.7558 128.576C35.1264 128.576 34.5878 128.779 34.1398 129.184C33.6918 129.579 33.4251 130.117 33.3398 130.8H38.2198ZM45.1188 136.144C44.4254 136.144 43.8014 136.021 43.2468 135.776C42.7028 135.52 42.2708 135.179 41.9508 134.752C41.6308 134.315 41.4601 133.829 41.4388 133.296H43.3268C43.3588 133.669 43.5348 133.984 43.8548 134.24C44.1854 134.485 44.5961 134.608 45.0868 134.608C45.5988 134.608 45.9934 134.512 46.2708 134.32C46.5588 134.117 46.7028 133.861 46.7028 133.552C46.7028 133.221 46.5428 132.976 46.2228 132.816C45.9134 132.656 45.4174 132.48 44.7348 132.288C44.0734 132.107 43.5348 131.931 43.1188 131.76C42.7028 131.589 42.3401 131.328 42.0308 130.976C41.7321 130.624 41.5828 130.16 41.5828 129.584C41.5828 129.115 41.7214 128.688 41.9988 128.304C42.2761 127.909 42.6708 127.6 43.1828 127.376C43.7054 127.152 44.3028 127.04 44.9748 127.04C45.9774 127.04 46.7828 127.296 47.3908 127.808C48.0094 128.309 48.3401 128.997 48.3828 129.872H46.5588C46.5268 129.477 46.3668 129.163 46.0788 128.928C45.7908 128.693 45.4014 128.576 44.9108 128.576C44.4308 128.576 44.0628 128.667 43.8068 128.848C43.5508 129.029 43.4228 129.269 43.4228 129.568C43.4228 129.803 43.5081 130 43.6788 130.16C43.8494 130.32 44.0574 130.448 44.3028 130.544C44.5481 130.629 44.9108 130.741 45.3908 130.88C46.0308 131.051 46.5534 131.227 46.9588 131.408C47.3748 131.579 47.7321 131.835 48.0308 132.176C48.3294 132.517 48.4841 132.971 48.4948 133.536C48.4948 134.037 48.3561 134.485 48.0788 134.88C47.8014 135.275 47.4068 135.584 46.8948 135.808C46.3934 136.032 45.8014 136.144 45.1188 136.144ZM53.6656 136.144C52.9723 136.144 52.3483 136.021 51.7936 135.776C51.2496 135.52 50.8176 135.179 50.4976 134.752C50.1776 134.315 50.007 133.829 49.9856 133.296H51.8736C51.9056 133.669 52.0816 133.984 52.4016 134.24C52.7323 134.485 53.143 134.608 53.6336 134.608C54.1456 134.608 54.5403 134.512 54.8176 134.32C55.1056 134.117 55.2496 133.861 55.2496 133.552C55.2496 133.221 55.0896 132.976 54.7696 132.816C54.4603 132.656 53.9643 132.48 53.2816 132.288C52.6203 132.107 52.0816 131.931 51.6656 131.76C51.2496 131.589 50.887 131.328 50.5776 130.976C50.279 130.624 50.1296 130.16 50.1296 129.584C50.1296 129.115 50.2683 128.688 50.5456 128.304C50.823 127.909 51.2176 127.6 51.7296 127.376C52.2523 127.152 52.8496 127.04 53.5216 127.04C54.5243 127.04 55.3296 127.296 55.9376 127.808C56.5563 128.309 56.887 128.997 56.9296 129.872H55.1056C55.0736 129.477 54.9136 129.163 54.6256 128.928C54.3376 128.693 53.9483 128.576 53.4576 128.576C52.9776 128.576 52.6096 128.667 52.3536 128.848C52.0976 129.029 51.9696 129.269 51.9696 129.568C51.9696 129.803 52.055 130 52.2256 130.16C52.3963 130.32 52.6043 130.448 52.8496 130.544C53.095 130.629 53.4576 130.741 53.9376 130.88C54.5776 131.051 55.1003 131.227 55.5056 131.408C55.9216 131.579 56.279 131.835 56.5776 132.176C56.8763 132.517 57.031 132.971 57.0416 133.536C57.0416 134.037 56.903 134.485 56.6256 134.88C56.3483 135.275 55.9536 135.584 55.4416 135.808C54.9403 136.032 54.3483 136.144 53.6656 136.144ZM59.9405 126.016C59.6098 126.016 59.3325 125.904 59.1085 125.68C58.8845 125.456 58.7725 125.179 58.7725 124.848C58.7725 124.517 58.8845 124.24 59.1085 124.016C59.3325 123.792 59.6098 123.68 59.9405 123.68C60.2605 123.68 60.5325 123.792 60.7565 124.016C60.9805 124.24 61.0925 124.517 61.0925 124.848C61.0925 125.179 60.9805 125.456 60.7565 125.68C60.5325 125.904 60.2605 126.016 59.9405 126.016ZM60.8365 127.184V136H59.0125V127.184H60.8365ZM65.0553 128.496C65.3646 128.069 65.7859 127.723 66.3193 127.456C66.8633 127.179 67.4659 127.04 68.1273 127.04C68.9059 127.04 69.6099 127.227 70.2393 127.6C70.8686 127.973 71.3646 128.507 71.7273 129.2C72.0899 129.883 72.2713 130.667 72.2713 131.552C72.2713 132.437 72.0899 133.232 71.7273 133.936C71.3646 134.629 70.8633 135.173 70.2233 135.568C69.5939 135.952 68.8953 136.144 68.1273 136.144C67.4446 136.144 66.8366 136.011 66.3033 135.744C65.7806 135.477 65.3646 135.136 65.0553 134.72V136H63.2313V124.16H65.0553V128.496ZM70.4153 131.552C70.4153 130.944 70.2873 130.421 70.0312 129.984C69.7859 129.536 69.4553 129.2 69.0393 128.976C68.6339 128.741 68.1966 128.624 67.7273 128.624C67.2686 128.624 66.8313 128.741 66.4153 128.976C66.0099 129.211 65.6793 129.552 65.4233 130C65.1779 130.448 65.0553 130.976 65.0553 131.584C65.0553 132.192 65.1779 132.725 65.4233 133.184C65.6793 133.632 66.0099 133.973 66.4153 134.208C66.8313 134.443 67.2686 134.56 67.7273 134.56C68.1966 134.56 68.6339 134.443 69.0393 134.208C69.4553 133.963 69.7859 133.611 70.0312 133.152C70.2873 132.693 70.4153 132.16 70.4153 131.552ZM75.899 124.16V136H74.075V124.16H75.899ZM86.3738 131.376C86.3738 131.707 86.3524 132.005 86.3098 132.272H79.5738C79.6271 132.976 79.8884 133.541 80.3578 133.968C80.8271 134.395 81.4031 134.608 82.0858 134.608C83.0671 134.608 83.7604 134.197 84.1658 133.376H86.1337C85.8671 134.187 85.3818 134.853 84.6778 135.376C83.9844 135.888 83.1204 136.144 82.0858 136.144C81.2431 136.144 80.4858 135.957 79.8138 135.584C79.1524 135.2 78.6298 134.667 78.2458 133.984C77.8724 133.291 77.6858 132.491 77.6858 131.584C77.6858 130.677 77.8671 129.883 78.2298 129.2C78.6031 128.507 79.1204 127.973 79.7818 127.6C80.4538 127.227 81.2218 127.04 82.0858 127.04C82.9178 127.04 83.6591 127.221 84.3098 127.584C84.9604 127.947 85.4671 128.459 85.8298 129.12C86.1924 129.771 86.3738 130.523 86.3738 131.376ZM84.4698 130.8C84.4591 130.128 84.2191 129.589 83.7498 129.184C83.2804 128.779 82.6991 128.576 82.0058 128.576C81.3764 128.576 80.8378 128.779 80.3898 129.184C79.9418 129.579 79.6751 130.117 79.5898 130.8H84.4698ZM95.957 124.88C97.141 124.88 98.1757 125.109 99.061 125.568C99.957 126.016 100.645 126.667 101.125 127.52C101.616 128.363 101.861 129.349 101.861 130.48C101.861 131.611 101.616 132.592 101.125 133.424C100.645 134.256 99.957 134.896 99.061 135.344C98.1757 135.781 97.141 136 95.957 136H92.325V124.88H95.957ZM95.957 134.512C97.2583 134.512 98.2557 134.16 98.949 133.456C99.6423 132.752 99.989 131.76 99.989 130.48C99.989 129.189 99.6423 128.181 98.949 127.456C98.2557 126.731 97.2583 126.368 95.957 126.368H94.149V134.512H95.957ZM103.061 131.552C103.061 130.667 103.242 129.883 103.605 129.2C103.978 128.517 104.479 127.989 105.109 127.616C105.749 127.232 106.453 127.04 107.221 127.04C107.914 127.04 108.517 127.179 109.029 127.456C109.551 127.723 109.967 128.059 110.277 128.464V127.184H112.117V136H110.277V134.688C109.967 135.104 109.546 135.451 109.013 135.728C108.479 136.005 107.871 136.144 107.189 136.144C106.431 136.144 105.738 135.952 105.109 135.568C104.479 135.173 103.978 134.629 103.605 133.936C103.242 133.232 103.061 132.437 103.061 131.552ZM110.277 131.584C110.277 130.976 110.149 130.448 109.893 130C109.647 129.552 109.322 129.211 108.917 128.976C108.511 128.741 108.074 128.624 107.605 128.624C107.135 128.624 106.698 128.741 106.293 128.976C105.887 129.2 105.557 129.536 105.301 129.984C105.055 130.421 104.933 130.944 104.933 131.552C104.933 132.16 105.055 132.693 105.301 133.152C105.557 133.611 105.887 133.963 106.293 134.208C106.709 134.443 107.146 134.56 107.605 134.56C108.074 134.56 108.511 134.443 108.917 134.208C109.322 133.973 109.647 133.632 109.893 133.184C110.149 132.725 110.277 132.192 110.277 131.584ZM116.641 128.672V133.552C116.641 133.883 116.715 134.123 116.865 134.272C117.025 134.411 117.291 134.48 117.665 134.48H118.785V136H117.345C116.523 136 115.894 135.808 115.457 135.424C115.019 135.04 114.801 134.416 114.801 133.552V128.672H113.761V127.184H114.801V124.992H116.641V127.184H118.785V128.672H116.641ZM119.858 131.552C119.858 130.667 120.039 129.883 120.402 129.2C120.775 128.517 121.276 127.989 121.906 127.616C122.546 127.232 123.25 127.04 124.018 127.04C124.711 127.04 125.314 127.179 125.826 127.456C126.348 127.723 126.764 128.059 127.074 128.464V127.184H128.914V136H127.074V134.688C126.764 135.104 126.343 135.451 125.81 135.728C125.276 136.005 124.668 136.144 123.986 136.144C123.228 136.144 122.535 135.952 121.906 135.568C121.276 135.173 120.775 134.629 120.402 133.936C120.039 133.232 119.858 132.437 119.858 131.552ZM127.074 131.584C127.074 130.976 126.946 130.448 126.69 130C126.444 129.552 126.119 129.211 125.714 128.976C125.308 128.741 124.871 128.624 124.402 128.624C123.932 128.624 123.495 128.741 123.09 128.976C122.684 129.2 122.354 129.536 122.098 129.984C121.852 130.421 121.73 130.944 121.73 131.552C121.73 132.16 121.852 132.693 122.098 133.152C122.354 133.611 122.684 133.963 123.09 134.208C123.506 134.443 123.943 134.56 124.402 134.56C124.871 134.56 125.308 134.443 125.714 134.208C126.119 133.973 126.444 133.632 126.69 133.184C126.946 132.725 127.074 132.192 127.074 131.584ZM7.476 158L4.916 153.552H3.524V158H1.7V146.88H5.54C6.39333 146.88 7.11333 147.029 7.7 147.328C8.29733 147.627 8.74 148.027 9.028 148.528C9.32667 149.029 9.476 149.589 9.476 150.208C9.476 150.933 9.26267 151.595 8.836 152.192C8.42 152.779 7.77467 153.179 6.9 153.392L9.652 158H7.476ZM3.524 152.096H5.54C6.22267 152.096 6.73467 151.925 7.076 151.584C7.428 151.243 7.604 150.784 7.604 150.208C7.604 149.632 7.43333 149.184 7.092 148.864C6.75067 148.533 6.23333 148.368 5.54 148.368H3.524V152.096ZM19.8894 153.376C19.8894 153.707 19.868 154.005 19.8254 154.272H13.0894C13.1427 154.976 13.404 155.541 13.8734 155.968C14.3427 156.395 14.9187 156.608 15.6014 156.608C16.5827 156.608 17.276 156.197 17.6814 155.376H19.6494C19.3827 156.187 18.8974 156.853 18.1934 157.376C17.5 157.888 16.636 158.144 15.6014 158.144C14.7587 158.144 14.0014 157.957 13.3294 157.584C12.668 157.2 12.1454 156.667 11.7614 155.984C11.388 155.291 11.2014 154.491 11.2014 153.584C11.2014 152.677 11.3827 151.883 11.7454 151.2C12.1187 150.507 12.636 149.973 13.2974 149.6C13.9694 149.227 14.7374 149.04 15.6014 149.04C16.4334 149.04 17.1747 149.221 17.8254 149.584C18.476 149.947 18.9827 150.459 19.3454 151.12C19.708 151.771 19.8894 152.523 19.8894 153.376ZM17.9854 152.8C17.9747 152.128 17.7347 151.589 17.2654 151.184C16.796 150.779 16.2147 150.576 15.5214 150.576C14.892 150.576 14.3534 150.779 13.9054 151.184C13.4574 151.579 13.1907 152.117 13.1054 152.8H17.9854ZM23.5084 150.48C23.8177 150.075 24.239 149.733 24.7724 149.456C25.3057 149.179 25.9084 149.04 26.5804 149.04C27.3484 149.04 28.047 149.232 28.6764 149.616C29.3164 149.989 29.8177 150.517 30.1804 151.2C30.543 151.883 30.7244 152.667 30.7244 153.552C30.7244 154.437 30.543 155.232 30.1804 155.936C29.8177 156.629 29.3164 157.173 28.6764 157.568C28.047 157.952 27.3484 158.144 26.5804 158.144C25.9084 158.144 25.311 158.011 24.7884 157.744C24.2657 157.467 23.839 157.125 23.5084 156.72V162.192H21.6844V149.184H23.5084V150.48ZM28.8684 153.552C28.8684 152.944 28.7404 152.421 28.4844 151.984C28.239 151.536 27.9084 151.2 27.4924 150.976C27.087 150.741 26.6497 150.624 26.1804 150.624C25.7217 150.624 25.2844 150.741 24.8684 150.976C24.463 151.211 24.1324 151.552 23.8764 152C23.631 152.448 23.5084 152.976 23.5084 153.584C23.5084 154.192 23.631 154.725 23.8764 155.184C24.1324 155.632 24.463 155.973 24.8684 156.208C25.2844 156.443 25.7217 156.56 26.1804 156.56C26.6497 156.56 27.087 156.443 27.4924 156.208C27.9084 155.963 28.239 155.611 28.4844 155.152C28.7404 154.693 28.8684 154.16 28.8684 153.552ZM36.3521 158.144C35.5201 158.144 34.7681 157.957 34.0961 157.584C33.4241 157.2 32.8961 156.667 32.5121 155.984C32.1281 155.291 31.9361 154.491 31.9361 153.584C31.9361 152.688 32.1335 151.893 32.5281 151.2C32.9228 150.507 33.4615 149.973 34.1441 149.6C34.8268 149.227 35.5895 149.04 36.4321 149.04C37.2748 149.04 38.0375 149.227 38.7201 149.6C39.4028 149.973 39.9415 150.507 40.3361 151.2C40.7308 151.893 40.9281 152.688 40.9281 153.584C40.9281 154.48 40.7255 155.275 40.3201 155.968C39.9148 156.661 39.3601 157.2 38.6561 157.584C37.9628 157.957 37.1948 158.144 36.3521 158.144ZM36.3521 156.56C36.8215 156.56 37.2588 156.448 37.6641 156.224C38.0801 156 38.4161 155.664 38.6721 155.216C38.9281 154.768 39.0561 154.224 39.0561 153.584C39.0561 152.944 38.9335 152.405 38.6881 151.968C38.4428 151.52 38.1175 151.184 37.7121 150.96C37.3068 150.736 36.8695 150.624 36.4001 150.624C35.9308 150.624 35.4935 150.736 35.0881 150.96C34.6935 151.184 34.3788 151.52 34.1441 151.968C33.9095 152.405 33.7921 152.944 33.7921 153.584C33.7921 154.533 34.0321 155.269 34.5121 155.792C35.0028 156.304 35.6161 156.56 36.3521 156.56ZM45.9313 158.144C45.2379 158.144 44.6139 158.021 44.0593 157.776C43.5153 157.52 43.0833 157.179 42.7633 156.752C42.4433 156.315 42.2726 155.829 42.2513 155.296H44.1393C44.1713 155.669 44.3473 155.984 44.6673 156.24C44.9979 156.485 45.4086 156.608 45.8993 156.608C46.4113 156.608 46.8059 156.512 47.0833 156.32C47.3713 156.117 47.5153 155.861 47.5153 155.552C47.5153 155.221 47.3553 154.976 47.0353 154.816C46.7259 154.656 46.2299 154.48 45.5473 154.288C44.8859 154.107 44.3473 153.931 43.9313 153.76C43.5153 153.589 43.1526 153.328 42.8433 152.976C42.5446 152.624 42.3953 152.16 42.3953 151.584C42.3953 151.115 42.5339 150.688 42.8113 150.304C43.0886 149.909 43.4833 149.6 43.9953 149.376C44.5179 149.152 45.1153 149.04 45.7873 149.04C46.7899 149.04 47.5953 149.296 48.2033 149.808C48.8219 150.309 49.1526 150.997 49.1953 151.872H47.3713C47.3393 151.477 47.1793 151.163 46.8913 150.928C46.6033 150.693 46.2139 150.576 45.7233 150.576C45.2433 150.576 44.8753 150.667 44.6193 150.848C44.3633 151.029 44.2353 151.269 44.2353 151.568C44.2353 151.803 44.3206 152 44.4913 152.16C44.6619 152.32 44.8699 152.448 45.1153 152.544C45.3606 152.629 45.7233 152.741 46.2033 152.88C46.8433 153.051 47.3659 153.227 47.7713 153.408C48.1873 153.579 48.5446 153.835 48.8433 154.176C49.1419 154.517 49.2966 154.971 49.3073 155.536C49.3073 156.037 49.1686 156.485 48.8913 156.88C48.6139 157.275 48.2193 157.584 47.7073 157.808C47.2059 158.032 46.6139 158.144 45.9313 158.144ZM52.2061 148.016C51.8755 148.016 51.5981 147.904 51.3741 147.68C51.1501 147.456 51.0381 147.179 51.0381 146.848C51.0381 146.517 51.1501 146.24 51.3741 146.016C51.5981 145.792 51.8755 145.68 52.2061 145.68C52.5261 145.68 52.7981 145.792 53.0221 146.016C53.2461 146.24 53.3581 146.517 53.3581 146.848C53.3581 147.179 53.2461 147.456 53.0221 147.68C52.7981 147.904 52.5261 148.016 52.2061 148.016ZM53.1021 149.184V158H51.2781V149.184H53.1021ZM57.6249 150.672V155.552C57.6249 155.883 57.6995 156.123 57.8489 156.272C58.0089 156.411 58.2755 156.48 58.6489 156.48H59.7689V158H58.3289C57.5075 158 56.8782 157.808 56.4409 157.424C56.0035 157.04 55.7849 156.416 55.7849 155.552V150.672H54.7449V149.184H55.7849V146.992H57.6249V149.184H59.7689V150.672H57.6249ZM65.274 158.144C64.442 158.144 63.69 157.957 63.018 157.584C62.346 157.2 61.818 156.667 61.434 155.984C61.05 155.291 60.858 154.491 60.858 153.584C60.858 152.688 61.0553 151.893 61.45 151.2C61.8447 150.507 62.3833 149.973 63.066 149.6C63.7487 149.227 64.5113 149.04 65.354 149.04C66.1967 149.04 66.9593 149.227 67.642 149.6C68.3247 149.973 68.8633 150.507 69.258 151.2C69.6527 151.893 69.85 152.688 69.85 153.584C69.85 154.48 69.6473 155.275 69.242 155.968C68.8367 156.661 68.282 157.2 67.578 157.584C66.8847 157.957 66.1167 158.144 65.274 158.144ZM65.274 156.56C65.7433 156.56 66.1807 156.448 66.586 156.224C67.002 156 67.338 155.664 67.594 155.216C67.85 154.768 67.978 154.224 67.978 153.584C67.978 152.944 67.8553 152.405 67.61 151.968C67.3647 151.52 67.0393 151.184 66.634 150.96C66.2287 150.736 65.7913 150.624 65.322 150.624C64.8527 150.624 64.4153 150.736 64.01 150.96C63.6153 151.184 63.3007 151.52 63.066 151.968C62.8313 152.405 62.714 152.944 62.714 153.584C62.714 154.533 62.954 155.269 63.434 155.792C63.9247 156.304 64.538 156.56 65.274 156.56ZM73.4771 150.464C73.7438 150.016 74.0958 149.669 74.5331 149.424C74.9811 149.168 75.5091 149.04 76.1171 149.04V150.928H75.6531C74.9385 150.928 74.3945 151.109 74.0211 151.472C73.6585 151.835 73.4771 152.464 73.4771 153.36V158H71.6531V149.184H73.4771V150.464ZM85.7298 149.184L80.3218 162.144H78.4338L80.2258 157.856L76.7538 149.184H78.7858L81.2658 155.904L83.8418 149.184H85.7298Z" fill="#ABAECD"/>
<g filter="url(#filter3_d_3879_14155)">
<rect x="266.382" y="237" width="99.4822" height="79.2256" rx="0.663666" transform="rotate(90 266.382 237)" fill="white"/>
<path d="M199.062 247.641L198.213 246.165H197.751V247.641H197.146V243.951H198.42C198.703 243.951 198.942 244.001 199.137 244.1C199.335 244.199 199.482 244.332 199.577 244.498C199.677 244.664 199.726 244.85 199.726 245.055C199.726 245.296 199.655 245.516 199.514 245.714C199.376 245.909 199.162 246.041 198.871 246.112L199.784 247.641H199.062ZM197.751 245.682H198.42C198.647 245.682 198.816 245.625 198.93 245.512C199.046 245.399 199.105 245.247 199.105 245.055C199.105 244.864 199.048 244.716 198.935 244.609C198.822 244.5 198.65 244.445 198.42 244.445H197.751V245.682ZM201.106 244.44V245.523H202.38V246.016H201.106V247.147H202.539V247.641H200.5V243.946H202.539V244.44H201.106ZM205.865 245.05C205.865 245.238 205.821 245.415 205.732 245.581C205.644 245.747 205.502 245.884 205.308 245.99C205.113 246.093 204.863 246.144 204.559 246.144H203.89V247.641H203.285V243.951H204.559C204.842 243.951 205.081 244.001 205.276 244.1C205.474 244.195 205.621 244.326 205.716 244.493C205.815 244.659 205.865 244.845 205.865 245.05ZM204.559 245.65C204.789 245.65 204.961 245.599 205.074 245.496C205.187 245.39 205.244 245.241 205.244 245.05C205.244 244.647 205.016 244.445 204.559 244.445H203.89V245.65H204.559ZM208.125 247.678C207.782 247.678 207.465 247.599 207.175 247.439C206.888 247.277 206.66 247.052 206.49 246.765C206.324 246.475 206.241 246.149 206.241 245.788C206.241 245.427 206.324 245.103 206.49 244.817C206.66 244.53 206.888 244.307 207.175 244.148C207.465 243.985 207.782 243.903 208.125 243.903C208.472 243.903 208.789 243.985 209.076 244.148C209.366 244.307 209.594 244.53 209.761 244.817C209.927 245.103 210.01 245.427 210.01 245.788C210.01 246.149 209.927 246.475 209.761 246.765C209.594 247.052 209.366 247.277 209.076 247.439C208.789 247.599 208.472 247.678 208.125 247.678ZM208.125 247.153C208.37 247.153 208.587 247.098 208.778 246.988C208.97 246.875 209.118 246.716 209.224 246.51C209.334 246.301 209.389 246.061 209.389 245.788C209.389 245.516 209.334 245.277 209.224 245.071C209.118 244.866 208.97 244.709 208.778 244.599C208.587 244.489 208.37 244.434 208.125 244.434C207.881 244.434 207.663 244.489 207.472 244.599C207.281 244.709 207.131 244.866 207.021 245.071C206.915 245.277 206.862 245.516 206.862 245.788C206.862 246.061 206.915 246.301 207.021 246.51C207.131 246.716 207.281 246.875 207.472 246.988C207.663 247.098 207.881 247.153 208.125 247.153ZM212.522 247.641L211.673 246.165H211.211V247.641H210.606V243.951H211.88C212.163 243.951 212.402 244.001 212.597 244.1C212.795 244.199 212.942 244.332 213.037 244.498C213.137 244.664 213.186 244.85 213.186 245.055C213.186 245.296 213.115 245.516 212.974 245.714C212.836 245.909 212.622 246.041 212.331 246.112L213.244 247.641H212.522ZM211.211 245.682H211.88C212.107 245.682 212.276 245.625 212.39 245.512C212.506 245.399 212.565 245.247 212.565 245.055C212.565 244.864 212.508 244.716 212.395 244.609C212.282 244.5 212.11 244.445 211.88 244.445H211.211V245.682ZM216.344 243.951V244.445H215.362V247.641H214.757V244.445H213.769V243.951H216.344Z" fill="#63B866"/>
<path d="M200.164 258.303L198.938 256.137H198.412V258.303H197.297V252.744H199.384C199.814 252.744 200.18 252.821 200.483 252.975C200.785 253.124 201.011 253.328 201.16 253.589C201.314 253.843 201.391 254.13 201.391 254.449C201.391 254.815 201.284 255.147 201.072 255.444C200.86 255.736 200.544 255.938 200.124 256.049L201.454 258.303H200.164ZM198.412 255.301H199.344C199.646 255.301 199.872 255.229 200.021 255.086C200.169 254.937 200.244 254.733 200.244 254.473C200.244 254.218 200.169 254.021 200.021 253.883C199.872 253.74 199.646 253.668 199.344 253.668H198.412V255.301ZM206.5 256.002C206.5 256.161 206.49 256.304 206.469 256.432H203.243C203.27 256.75 203.381 257 203.578 257.18C203.774 257.361 204.016 257.451 204.302 257.451C204.717 257.451 205.011 257.273 205.186 256.917H206.389C206.262 257.342 206.017 257.693 205.656 257.969C205.295 258.24 204.852 258.375 204.326 258.375C203.902 258.375 203.519 258.282 203.179 258.096C202.845 257.905 202.582 257.637 202.391 257.292C202.205 256.947 202.112 256.548 202.112 256.097C202.112 255.641 202.205 255.24 202.391 254.895C202.577 254.55 202.837 254.284 203.172 254.098C203.506 253.912 203.891 253.819 204.326 253.819C204.746 253.819 205.12 253.91 205.449 254.09C205.784 254.271 206.041 254.528 206.222 254.863C206.408 255.192 206.5 255.572 206.5 256.002ZM205.346 255.683C205.34 255.396 205.237 255.168 205.035 254.998C204.833 254.823 204.586 254.735 204.294 254.735C204.018 254.735 203.785 254.82 203.594 254.99C203.408 255.155 203.294 255.386 203.251 255.683H205.346ZM208.429 254.528C208.573 254.327 208.769 254.159 209.019 254.027C209.273 253.889 209.563 253.819 209.887 253.819C210.264 253.819 210.603 253.912 210.906 254.098C211.214 254.284 211.456 254.55 211.631 254.895C211.811 255.234 211.902 255.63 211.902 256.081C211.902 256.533 211.811 256.933 211.631 257.284C211.456 257.629 211.214 257.897 210.906 258.088C210.603 258.279 210.264 258.375 209.887 258.375C209.563 258.375 209.276 258.309 209.027 258.176C208.782 258.043 208.583 257.876 208.429 257.674V260.406H207.314V253.891H208.429V254.528ZM210.763 256.081C210.763 255.816 210.707 255.587 210.595 255.396C210.489 255.2 210.346 255.051 210.165 254.95C209.99 254.85 209.799 254.799 209.592 254.799C209.39 254.799 209.199 254.852 209.019 254.958C208.843 255.059 208.7 255.208 208.589 255.404C208.482 255.601 208.429 255.832 208.429 256.097C208.429 256.363 208.482 256.594 208.589 256.79C208.7 256.987 208.843 257.138 209.019 257.244C209.199 257.345 209.39 257.395 209.592 257.395C209.799 257.395 209.99 257.342 210.165 257.236C210.346 257.13 210.489 256.979 210.595 256.782C210.707 256.586 210.763 256.352 210.763 256.081ZM214.671 258.375C214.246 258.375 213.864 258.282 213.524 258.096C213.184 257.905 212.916 257.637 212.72 257.292C212.529 256.947 212.433 256.548 212.433 256.097C212.433 255.646 212.531 255.248 212.728 254.903C212.929 254.557 213.203 254.292 213.548 254.106C213.893 253.915 214.278 253.819 214.703 253.819C215.128 253.819 215.512 253.915 215.858 254.106C216.203 254.292 216.473 254.557 216.67 254.903C216.872 255.248 216.973 255.646 216.973 256.097C216.973 256.548 216.869 256.947 216.662 257.292C216.46 257.637 216.184 257.905 215.834 258.096C215.489 258.282 215.101 258.375 214.671 258.375ZM214.671 257.403C214.873 257.403 215.061 257.356 215.236 257.26C215.417 257.159 215.56 257.01 215.666 256.814C215.773 256.618 215.826 256.379 215.826 256.097C215.826 255.678 215.714 255.357 215.491 255.134C215.274 254.905 215.005 254.791 214.687 254.791C214.368 254.791 214.1 254.905 213.882 255.134C213.67 255.357 213.564 255.678 213.564 256.097C213.564 256.517 213.667 256.841 213.875 257.069C214.087 257.292 214.352 257.403 214.671 257.403ZM218.905 254.576C219.049 254.342 219.235 254.159 219.463 254.027C219.696 253.894 219.962 253.827 220.259 253.827V254.998H219.965C219.614 254.998 219.349 255.08 219.168 255.245C218.993 255.41 218.905 255.696 218.905 256.105V258.303H217.79V253.891H218.905V254.576ZM222.308 254.807V256.941C222.308 257.09 222.343 257.199 222.412 257.268C222.486 257.332 222.608 257.363 222.778 257.363H223.296V258.303H222.595C221.655 258.303 221.185 257.847 221.185 256.933V254.807H220.66V253.891H221.185V252.8H222.308V253.891H223.296V254.807H222.308Z" fill="#22338A"/>
</g>
<path fill-rule="evenodd" clip-rule="evenodd" d="M261.48 329.155C266.194 329.155 270.016 325.333 270.016 320.618C270.016 315.903 266.194 312.081 261.48 312.081C256.765 312.081 252.943 315.903 252.943 320.618C252.943 325.333 256.765 329.155 261.48 329.155ZM265.198 318.948C265.397 318.749 265.397 318.428 265.198 318.23C265 318.032 264.679 318.032 264.481 318.23L260.528 322.183L258.731 320.386C258.533 320.188 258.212 320.188 258.014 320.386C257.816 320.584 257.816 320.905 258.014 321.103L260.17 323.259C260.368 323.457 260.689 323.457 260.887 323.259L265.198 318.948Z" fill="#A2CB94"/>
<g filter="url(#filter4_d_3879_14155)">
<rect x="238.366" y="350.122" width="93.8662" height="60.1708" rx="0.49775" transform="rotate(-180 238.366 350.122)" fill="white"/>
</g>
<rect opacity="0.5" x="178.797" y="299.578" width="33.0939" height="15.6444" rx="1.20342" fill="url(#paint8_linear_3879_14155)" fill-opacity="0.7"/>
<rect opacity="0.5" x="178.797" y="317.629" width="33.0939" height="21.6615" rx="1.20342" fill="url(#paint9_linear_3879_14155)" fill-opacity="0.7"/>
<rect opacity="0.5" x="213.696" y="299.578" width="19.2547" height="15.6444" rx="1.20342" fill="url(#paint10_linear_3879_14155)" fill-opacity="0.7"/>
<rect opacity="0.5" x="213.696" y="317.629" width="19.2547" height="21.6615" rx="1.20342" fill="url(#paint11_linear_3879_14155)" fill-opacity="0.7"/>
<g filter="url(#filter5_d_3879_14155)">
<path d="M173.983 350.122L144.998 350.122C144.723 350.122 144.5 349.899 144.5 349.624L144.5 290.449C144.5 290.174 144.723 289.951 144.998 289.951L173.983 289.951L173.983 350.122Z" fill="#BABABC"/>
</g>
<g opacity="0.8">
<rect opacity="0.8" width="2.40683" height="2.40683" rx="1.20342" transform="matrix(-1 0 0 1 151.119 301.183)" fill="white"/>
<rect x="154.127" y="301.183" width="15.6444" height="2.40683" rx="1.20342" fill="url(#paint12_linear_3879_14155)"/>
<rect opacity="0.8" width="2.40683" height="2.40683" rx="1.20342" transform="matrix(-1 0 0 1 151.119 305.996)" fill="white"/>
<rect x="154.127" y="305.996" width="15.6444" height="2.40683" rx="1.20342" fill="url(#paint13_linear_3879_14155)"/>
<rect opacity="0.8" width="2.40683" height="2.40683" rx="1.20342" transform="matrix(-1 0 0 1 151.119 310.81)" fill="white"/>
<rect x="154.127" y="310.81" width="15.6444" height="2.40683" rx="1.20342" fill="url(#paint14_linear_3879_14155)"/>
<rect opacity="0.8" width="2.40683" height="2.40683" rx="1.20342" transform="matrix(-1 0 0 1 151.119 315.624)" fill="white"/>
<rect x="154.127" y="315.624" width="15.6444" height="2.40683" rx="1.20342" fill="url(#paint15_linear_3879_14155)"/>
<rect opacity="0.8" width="2.40683" height="2.40683" rx="1.20342" transform="matrix(-1 0 0 1 151.119 320.438)" fill="white"/>
<rect x="154.127" y="320.438" width="15.6444" height="2.40683" rx="1.20342" fill="url(#paint16_linear_3879_14155)"/>
</g>
<rect opacity="0.6" x="216.103" y="320.638" width="2.40683" height="2.40683" rx="0.300854" fill="#E4F0E0"/>
<rect opacity="0.6" x="216.103" y="325.451" width="2.40683" height="2.40683" rx="0.300854" fill="#D5D7E5"/>
<rect opacity="0.6" x="216.103" y="330.265" width="2.40683" height="2.40683" rx="0.300854" fill="#E4F0E0"/>
<rect opacity="0.6" x="216.103" y="335.079" width="2.40683" height="2.40683" rx="0.300854" fill="#D5D7E5"/>
<rect opacity="0.6" x="202.866" y="335.68" width="7.8222" height="1.80512" transform="rotate(-90 202.866 335.68)" fill="#E6E6E9"/>
<rect opacity="0.6" x="198.654" y="335.68" width="9.62733" height="1.80512" transform="rotate(-90 198.654 335.68)" fill="#E6E6E9"/>
<rect opacity="0.6" x="194.442" y="335.68" width="12.0342" height="1.80512" transform="rotate(-90 194.442 335.68)" fill="#E6E6E9"/>
<rect opacity="0.6" x="190.23" y="335.68" width="9.02562" height="1.80512" transform="rotate(-90 190.23 335.68)" fill="#E6E6E9"/>
<circle cx="223.625" cy="307.701" r="5.11452" fill="#E6E6E9"/>
<rect opacity="0.5" x="178.797" y="294.764" width="33.0939" height="2.40683" rx="1.20342" fill="url(#paint17_linear_3879_14155)" fill-opacity="0.7"/>
<rect opacity="0.5" x="178.797" y="343.502" width="33.0939" height="2.40683" rx="1.20342" fill="url(#paint18_linear_3879_14155)" fill-opacity="0.7"/>
<rect opacity="0.5" x="213.696" y="343.502" width="19.2547" height="2.40683" rx="1.20342" fill="url(#paint19_linear_3879_14155)" fill-opacity="0.7"/>
<defs>
<filter id="filter0_d_3879_14155" x="53.5" y="298" width="338" height="242" filterUnits="userSpaceOnUse" color-interpolation-filters="sRGB">
<feFlood flood-opacity="0" result="BackgroundImageFix"/>
<feColorMatrix in="SourceAlpha" type="matrix" values="0 0 0 0 0 0 0 0 0 0 0 0 0 0 0 0 0 0 127 0" result="hardAlpha"/>
<feOffset dx="4" dy="4"/>
<feGaussianBlur stdDeviation="50"/>
<feComposite in2="hardAlpha" operator="out"/>
<feColorMatrix type="matrix" values="0 0 0 0 0.423529 0 0 0 0 0.482353 0 0 0 0 0.666667 0 0 0 0.12 0"/>
<feBlend mode="normal" in2="BackgroundImageFix" result="effect1_dropShadow_3879_14155"/>
<feBlend mode="normal" in="SourceGraphic" in2="effect1_dropShadow_3879_14155" result="shape"/>
</filter>
<filter id="filter1_d_3879_14155" x="54.5" y="356" width="337" height="242" filterUnits="userSpaceOnUse" color-interpolation-filters="sRGB">
<feFlood flood-opacity="0" result="BackgroundImageFix"/>
<feColorMatrix in="SourceAlpha" type="matrix" values="0 0 0 0 0 0 0 0 0 0 0 0 0 0 0 0 0 0 127 0" result="hardAlpha"/>
<feOffset dx="4" dy="4"/>
<feGaussianBlur stdDeviation="50"/>
<feComposite in2="hardAlpha" operator="out"/>
<feColorMatrix type="matrix" values="0 0 0 0 0.423529 0 0 0 0 0.482353 0 0 0 0 0.666667 0 0 0 0.12 0"/>
<feBlend mode="normal" in2="BackgroundImageFix" result="effect1_dropShadow_3879_14155"/>
<feBlend mode="normal" in="SourceGraphic" in2="effect1_dropShadow_3879_14155" result="shape"/>
</filter>
<filter id="filter2_d_3879_14155" x="54.5" y="414" width="337" height="256" filterUnits="userSpaceOnUse" color-interpolation-filters="sRGB">
<feFlood flood-opacity="0" result="BackgroundImageFix"/>
<feColorMatrix in="SourceAlpha" type="matrix" values="0 0 0 0 0 0 0 0 0 0 0 0 0 0 0 0 0 0 127 0" result="hardAlpha"/>
<feOffset dx="4" dy="4"/>
<feGaussianBlur stdDeviation="50"/>
<feComposite in2="hardAlpha" operator="out"/>
<feColorMatrix type="matrix" values="0 0 0 0 0.423529 0 0 0 0 0.482353 0 0 0 0 0.666667 0 0 0 0.12 0"/>
<feBlend mode="normal" in2="BackgroundImageFix" result="effect1_dropShadow_3879_14155"/>
<feBlend mode="normal" in="SourceGraphic" in2="effect1_dropShadow_3879_14155" result="shape"/>
</filter>
<filter id="filter3_d_3879_14155" x="155.3" y="205.144" width="145.592" height="165.849" filterUnits="userSpaceOnUse" color-interpolation-filters="sRGB">
<feFlood flood-opacity="0" result="BackgroundImageFix"/>
<feColorMatrix in="SourceAlpha" type="matrix" values="0 0 0 0 0 0 0 0 0 0 0 0 0 0 0 0 0 0 127 0" result="hardAlpha"/>
<feOffset dx="1.32733" dy="1.32733"/>
<feGaussianBlur stdDeviation="16.5917"/>
<feComposite in2="hardAlpha" operator="out"/>
<feColorMatrix type="matrix" values="0 0 0 0 0.423529 0 0 0 0 0.482353 0 0 0 0 0.666667 0 0 0 0.12 0"/>
<feBlend mode="normal" in2="BackgroundImageFix" result="effect1_dropShadow_3879_14155"/>
<feBlend mode="normal" in="SourceGraphic" in2="effect1_dropShadow_3879_14155" result="shape"/>
</filter>
<filter id="filter4_d_3879_14155" x="120.608" y="266.059" width="143.641" height="109.946" filterUnits="userSpaceOnUse" color-interpolation-filters="sRGB">
<feFlood flood-opacity="0" result="BackgroundImageFix"/>
<feColorMatrix in="SourceAlpha" type="matrix" values="0 0 0 0 0 0 0 0 0 0 0 0 0 0 0 0 0 0 127 0" result="hardAlpha"/>
<feOffset dx="0.9955" dy="0.9955"/>
<feGaussianBlur stdDeviation="12.4437"/>
<feComposite in2="hardAlpha" operator="out"/>
<feColorMatrix type="matrix" values="0 0 0 0 0.423529 0 0 0 0 0.482353 0 0 0 0 0.666667 0 0 0 0.12 0"/>
<feBlend mode="normal" in2="BackgroundImageFix" result="effect1_dropShadow_3879_14155"/>
<feBlend mode="normal" in="SourceGraphic" in2="effect1_dropShadow_3879_14155" result="shape"/>
</filter>
<filter id="filter5_d_3879_14155" x="120.608" y="266.059" width="79.2584" height="109.946" filterUnits="userSpaceOnUse" color-interpolation-filters="sRGB">
<feFlood flood-opacity="0" result="BackgroundImageFix"/>
<feColorMatrix in="SourceAlpha" type="matrix" values="0 0 0 0 0 0 0 0 0 0 0 0 0 0 0 0 0 0 127 0" result="hardAlpha"/>
<feOffset dx="0.9955" dy="0.9955"/>
<feGaussianBlur stdDeviation="12.4437"/>
<feComposite in2="hardAlpha" operator="out"/>
<feColorMatrix type="matrix" values="0 0 0 0 0.423529 0 0 0 0 0.482353 0 0 0 0 0.666667 0 0 0 0.12 0"/>
<feBlend mode="normal" in2="BackgroundImageFix" result="effect1_dropShadow_3879_14155"/>
<feBlend mode="normal" in="SourceGraphic" in2="effect1_dropShadow_3879_14155" result="shape"/>
</filter>
<linearGradient id="paint0_linear_3879_14155" x1="144.5" y1="0.499938" x2="255.028" y2="158.424" gradientUnits="userSpaceOnUse">
<stop stop-color="white" stop-opacity="0"/>
<stop offset="0.46875" stop-color="white"/>
<stop offset="1" stop-color="white" stop-opacity="0"/>
</linearGradient>
<linearGradient id="paint1_linear_3879_14155" x1="146.5" y1="0.499992" x2="47.2115" y2="111.583" gradientUnits="userSpaceOnUse">
<stop stop-color="white" stop-opacity="0"/>
<stop offset="0.46875" stop-color="white"/>
<stop offset="0.703125" stop-color="#BEC5DA" stop-opacity="0.558824"/>
<stop offset="1" stop-color="#6C7BAA" stop-opacity="0"/>
</linearGradient>
<linearGradient id="paint2_linear_3879_14155" x1="24.5" y1="286.219" x2="173.261" y2="482.618" gradientUnits="userSpaceOnUse">
<stop stop-color="white" stop-opacity="0"/>
<stop offset="1" stop-color="white"/>
</linearGradient>
<linearGradient id="paint3_linear_3879_14155" x1="23.9999" y1="291.219" x2="108.014" y2="475.638" gradientUnits="userSpaceOnUse">
<stop stop-color="white" stop-opacity="0"/>
<stop offset="1" stop-color="white"/>
</linearGradient>
<linearGradient id="paint4_linear_3879_14155" x1="27.5" y1="290.219" x2="38.3075" y2="421.121" gradientUnits="userSpaceOnUse">
<stop stop-color="white" stop-opacity="0"/>
<stop offset="1" stop-color="white"/>
</linearGradient>
<linearGradient id="paint5_linear_3879_14155" x1="218.5" y1="394" x2="218.5" y2="436" gradientUnits="userSpaceOnUse">
<stop stop-color="#EDA13D"/>
<stop offset="1" stop-color="#EDA13D" stop-opacity="0.9"/>
</linearGradient>
<linearGradient id="paint6_linear_3879_14155" x1="219" y1="452" x2="219" y2="494" gradientUnits="userSpaceOnUse">
<stop stop-color="#EDA13D"/>
<stop offset="1" stop-color="#EDA13D" stop-opacity="0.9"/>
</linearGradient>
<linearGradient id="paint7_linear_3879_14155" x1="219" y1="510" x2="219" y2="566" gradientUnits="userSpaceOnUse">
<stop stop-color="#EDA13D"/>
<stop offset="1" stop-color="#EDA13D" stop-opacity="0.9"/>
</linearGradient>
<linearGradient id="paint8_linear_3879_14155" x1="178.797" y1="305.212" x2="216.196" y2="307.848" gradientUnits="userSpaceOnUse">
<stop stop-color="#D5D7E5"/>
<stop offset="1" stop-color="#D5D7E5" stop-opacity="0.05"/>
</linearGradient>
<linearGradient id="paint9_linear_3879_14155" x1="178.797" y1="325.43" x2="216.284" y2="327.338" gradientUnits="userSpaceOnUse">
<stop stop-color="#D5D7E5"/>
<stop offset="1" stop-color="#D5D7E5" stop-opacity="0.05"/>
</linearGradient>
<linearGradient id="paint10_linear_3879_14155" x1="213.696" y1="305.212" x2="235.527" y2="306.107" gradientUnits="userSpaceOnUse">
<stop stop-color="#D5D7E5"/>
<stop offset="1" stop-color="#D5D7E5" stop-opacity="0.05"/>
</linearGradient>
<linearGradient id="paint11_linear_3879_14155" x1="213.696" y1="325.43" x2="235.544" y2="326.077" gradientUnits="userSpaceOnUse">
<stop stop-color="#D5D7E5"/>
<stop offset="1" stop-color="#D5D7E5" stop-opacity="0.05"/>
</linearGradient>
<linearGradient id="paint12_linear_3879_14155" x1="154.729" y1="302.988" x2="172.479" y2="302.386" gradientUnits="userSpaceOnUse">
<stop stop-color="white"/>
<stop offset="1" stop-color="white" stop-opacity="0"/>
</linearGradient>
<linearGradient id="paint13_linear_3879_14155" x1="154.729" y1="307.801" x2="172.479" y2="307.2" gradientUnits="userSpaceOnUse">
<stop stop-color="white"/>
<stop offset="1" stop-color="white" stop-opacity="0"/>
</linearGradient>
<linearGradient id="paint14_linear_3879_14155" x1="154.729" y1="312.615" x2="172.479" y2="312.013" gradientUnits="userSpaceOnUse">
<stop stop-color="white"/>
<stop offset="1" stop-color="white" stop-opacity="0"/>
</linearGradient>
<linearGradient id="paint15_linear_3879_14155" x1="154.729" y1="317.429" x2="172.479" y2="316.827" gradientUnits="userSpaceOnUse">
<stop stop-color="white"/>
<stop offset="1" stop-color="white" stop-opacity="0"/>
</linearGradient>
<linearGradient id="paint16_linear_3879_14155" x1="154.729" y1="322.243" x2="172.479" y2="321.641" gradientUnits="userSpaceOnUse">
<stop stop-color="white"/>
<stop offset="1" stop-color="white" stop-opacity="0"/>
</linearGradient>
<linearGradient id="paint17_linear_3879_14155" x1="178.797" y1="295.631" x2="209.862" y2="309.862" gradientUnits="userSpaceOnUse">
<stop stop-color="#D5D7E5"/>
<stop offset="1" stop-color="#D5D7E5" stop-opacity="0.05"/>
</linearGradient>
<linearGradient id="paint18_linear_3879_14155" x1="178.797" y1="344.369" x2="209.862" y2="358.601" gradientUnits="userSpaceOnUse">
<stop stop-color="#D5D7E5"/>
<stop offset="1" stop-color="#D5D7E5" stop-opacity="0.05"/>
</linearGradient>
<linearGradient id="paint19_linear_3879_14155" x1="213.696" y1="344.369" x2="234.113" y2="349.811" gradientUnits="userSpaceOnUse">
<stop stop-color="#D5D7E5"/>
<stop offset="1" stop-color="#D5D7E5" stop-opacity="0.05"/>
</linearGradient>
</defs>
</svg>
