<svg width="326" height="422" viewBox="0 0 326 422" fill="none" xmlns="http://www.w3.org/2000/svg">
<g clip-path="url(#clip0_7111_9530)">
<path opacity="0.2" d="M279 106.25L279 90.7558C279 73.0828 264.673 58.756 247 58.756L191 58.756C173.327 58.756 159 44.4291 159 26.756L159 -0.525895" stroke="url(#paint0_linear_7111_9530)" stroke-width="32"/>
<path opacity="0.2" d="M41 105.974L41 90.756C41 73.0829 55.3269 58.756 73 58.756L127 58.756C144.673 58.756 159 44.4291 159 26.756L159 -0.525874" stroke="url(#paint1_linear_7111_9530)" stroke-width="32"/>
<circle cx="159" cy="26" r="3" transform="rotate(-90 159 26)" fill="#FAA204"/>
<circle cx="198" cy="58" r="3" transform="rotate(-90 198 58)" fill="#FAA204"/>
<circle cx="238" cy="58" r="3" transform="rotate(-90 238 58)" fill="#FAA204"/>
<circle cx="280" cy="112" r="3" transform="rotate(-90 280 112)" fill="#FAA204"/>
<circle cx="274" cy="74" r="3" transform="rotate(-90 274 74)" fill="#FAA204"/>
<circle cx="280" cy="156" r="3" transform="rotate(-90 280 156)" fill="#FAA204"/>
<circle r="3" transform="matrix(1.31134e-07 -1 -1 -1.31134e-07 121 58)" fill="#FAA204"/>
<circle r="3" transform="matrix(1.31134e-07 -1 -1 -1.31134e-07 80 58)" fill="#FAA204"/>
<circle r="3" transform="matrix(1.31134e-07 -1 -1 -1.31134e-07 47 72)" fill="#FAA204"/>
<path opacity="0.2" d="M278 170.026L278 185.244C278 202.917 263.673 217.244 246 217.244L195 217.244C177.327 217.244 163 231.571 163 249.244L163 264.75" stroke="url(#paint2_linear_7111_9530)" stroke-width="32"/>
<path d="M163 237.026C161.343 237.026 160 235.683 160 234.026C160 232.369 161.343 231.026 163 231.026C164.657 231.026 166 232.369 166 234.026C166 235.683 164.657 237.026 163 237.026Z" fill="#FAA204"/>
<circle r="3" transform="matrix(-4.37114e-08 1 1 4.37114e-08 199 217.026)" fill="#FAA204"/>
<circle r="3" transform="matrix(-4.37114e-08 1 1 4.37114e-08 240 217.026)" fill="#FAA204"/>
<circle r="3" transform="matrix(-4.37114e-08 1 1 4.37114e-08 273 203.026)" fill="#FAA204"/>
<path opacity="0.2" d="M163 264.026L163 248.808C163 231.135 148.673 216.808 131 216.808L73 216.808C55.3269 216.808 41 202.481 41 184.808L41 161.026" stroke="url(#paint3_linear_7111_9530)" stroke-width="32"/>
<circle r="3" transform="matrix(4.37114e-08 -1 -1 -4.37114e-08 45 200.026)" fill="#FAA204"/>
<circle cx="80" cy="217.026" r="3" transform="rotate(-90 80 217.026)" fill="#FAA204"/>
<circle cx="121" cy="217.026" r="3" transform="rotate(-90 121 217.026)" fill="#FAA204"/>
<g filter="url(#filter0_d_7111_9530)">
<rect y="106.224" width="160" height="68" rx="12" fill="#FAA204"/>
<path d="M26.8853 126.494V136.224H25.2893V126.494H26.8853ZM32.8727 128.384C33.4793 128.384 34.0207 128.51 34.4967 128.762C34.982 129.014 35.36 129.387 35.6307 129.882C35.9013 130.377 36.0367 130.974 36.0367 131.674V136.224H34.4547V131.912C34.4547 131.221 34.282 130.694 33.9367 130.33C33.5913 129.957 33.12 129.77 32.5227 129.77C31.9253 129.77 31.4493 129.957 31.0947 130.33C30.7493 130.694 30.5767 131.221 30.5767 131.912V136.224H28.9807V128.51H30.5767V129.392C30.838 129.075 31.1693 128.827 31.5707 128.65C31.9813 128.473 32.4153 128.384 32.8727 128.384ZM39.9345 129.812V134.082C39.9345 134.371 39.9998 134.581 40.1305 134.712C40.2705 134.833 40.5038 134.894 40.8305 134.894H41.8105V136.224H40.5505C39.8318 136.224 39.2811 136.056 38.8985 135.72C38.5158 135.384 38.3245 134.838 38.3245 134.082V129.812H37.4145V128.51H38.3245V126.592H39.9345V128.51H41.8105V129.812H39.9345ZM50.3514 132.178C50.3514 132.467 50.3328 132.729 50.2954 132.962H44.4014C44.4481 133.578 44.6768 134.073 45.0874 134.446C45.4981 134.819 46.0021 135.006 46.5994 135.006C47.4581 135.006 48.0648 134.647 48.4194 133.928H50.1414C49.9081 134.637 49.4834 135.221 48.8674 135.678C48.2608 136.126 47.5048 136.35 46.5994 136.35C45.8621 136.35 45.1994 136.187 44.6114 135.86C44.0328 135.524 43.5754 135.057 43.2394 134.46C42.9128 133.853 42.7494 133.153 42.7494 132.36C42.7494 131.567 42.9081 130.871 43.2254 130.274C43.5521 129.667 44.0048 129.201 44.5834 128.874C45.1714 128.547 45.8434 128.384 46.5994 128.384C47.3274 128.384 47.9761 128.543 48.5454 128.86C49.1148 129.177 49.5581 129.625 49.8754 130.204C50.1928 130.773 50.3514 131.431 50.3514 132.178ZM48.6854 131.674C48.6761 131.086 48.4661 130.615 48.0554 130.26C47.6448 129.905 47.1361 129.728 46.5294 129.728C45.9788 129.728 45.5074 129.905 45.1154 130.26C44.7234 130.605 44.4901 131.077 44.4154 131.674H48.6854ZM53.5181 125.864V136.224H51.9221V125.864H53.5181ZM57.2095 125.864V136.224H55.6135V125.864H57.2095ZM60.1169 127.488C59.8275 127.488 59.5849 127.39 59.3889 127.194C59.1929 126.998 59.0949 126.755 59.0949 126.466C59.0949 126.177 59.1929 125.934 59.3889 125.738C59.5849 125.542 59.8275 125.444 60.1169 125.444C60.3969 125.444 60.6349 125.542 60.8309 125.738C61.0269 125.934 61.1249 126.177 61.1249 126.466C61.1249 126.755 61.0269 126.998 60.8309 127.194C60.6349 127.39 60.3969 127.488 60.1169 127.488ZM60.9009 128.51V136.224H59.3049V128.51H60.9009ZM66.1043 128.384C66.7016 128.384 67.229 128.505 67.6863 128.748C68.153 128.981 68.517 129.275 68.7783 129.63V128.51H70.3883V136.35C70.3883 137.059 70.239 137.689 69.9403 138.24C69.6416 138.8 69.2076 139.239 68.6383 139.556C68.0783 139.873 67.4063 140.032 66.6223 140.032C65.577 140.032 64.709 139.785 64.0183 139.29C63.3276 138.805 62.9356 138.142 62.8423 137.302H64.4243C64.5456 137.703 64.8023 138.025 65.1943 138.268C65.5956 138.52 66.0716 138.646 66.6223 138.646C67.2663 138.646 67.7843 138.45 68.1763 138.058C68.5776 137.666 68.7783 137.097 68.7783 136.35V135.062C68.5076 135.426 68.139 135.734 67.6723 135.986C67.215 136.229 66.6923 136.35 66.1043 136.35C65.4323 136.35 64.8163 136.182 64.2563 135.846C63.7056 135.501 63.267 135.025 62.9403 134.418C62.623 133.802 62.4643 133.107 62.4643 132.332C62.4643 131.557 62.623 130.871 62.9403 130.274C63.267 129.677 63.7056 129.215 64.2563 128.888C64.8163 128.552 65.4323 128.384 66.1043 128.384ZM68.7783 132.36C68.7783 131.828 68.6663 131.366 68.4423 130.974C68.2276 130.582 67.943 130.283 67.5883 130.078C67.2336 129.873 66.851 129.77 66.4403 129.77C66.0296 129.77 65.647 129.873 65.2923 130.078C64.9376 130.274 64.6483 130.568 64.4243 130.96C64.2096 131.343 64.1023 131.8 64.1023 132.332C64.1023 132.864 64.2096 133.331 64.4243 133.732C64.6483 134.133 64.9376 134.441 65.2923 134.656C65.6563 134.861 66.039 134.964 66.4403 134.964C66.851 134.964 67.2336 134.861 67.5883 134.656C67.943 134.451 68.2276 134.152 68.4423 133.76C68.6663 133.359 68.7783 132.892 68.7783 132.36ZM79.5546 132.178C79.5546 132.467 79.5359 132.729 79.4986 132.962H73.6046C73.6512 133.578 73.8799 134.073 74.2906 134.446C74.7012 134.819 75.2052 135.006 75.8026 135.006C76.6612 135.006 77.2679 134.647 77.6226 133.928H79.3446C79.1112 134.637 78.6866 135.221 78.0706 135.678C77.4639 136.126 76.7079 136.35 75.8026 136.35C75.0652 136.35 74.4026 136.187 73.8146 135.86C73.2359 135.524 72.7786 135.057 72.4426 134.46C72.1159 133.853 71.9526 133.153 71.9526 132.36C71.9526 131.567 72.1112 130.871 72.4286 130.274C72.7552 129.667 73.2079 129.201 73.7866 128.874C74.3746 128.547 75.0466 128.384 75.8026 128.384C76.5306 128.384 77.1792 128.543 77.7486 128.86C78.3179 129.177 78.7612 129.625 79.0786 130.204C79.3959 130.773 79.5546 131.431 79.5546 132.178ZM77.8886 131.674C77.8792 131.086 77.6692 130.615 77.2586 130.26C76.8479 129.905 76.3392 129.728 75.7326 129.728C75.1819 129.728 74.7106 129.905 74.3186 130.26C73.9266 130.605 73.6932 131.077 73.6186 131.674H77.8886ZM85.0172 128.384C85.6239 128.384 86.1652 128.51 86.6412 128.762C87.1265 129.014 87.5045 129.387 87.7752 129.882C88.0459 130.377 88.1812 130.974 88.1812 131.674V136.224H86.5992V131.912C86.5992 131.221 86.4265 130.694 86.0812 130.33C85.7359 129.957 85.2645 129.77 84.6672 129.77C84.0699 129.77 83.5939 129.957 83.2392 130.33C82.8939 130.694 82.7212 131.221 82.7212 131.912V136.224H81.1252V128.51H82.7212V129.392C82.9825 129.075 83.3139 128.827 83.7152 128.65C84.1259 128.473 84.5599 128.384 85.0172 128.384ZM92.079 129.812V134.082C92.079 134.371 92.1443 134.581 92.275 134.712C92.415 134.833 92.6483 134.894 92.975 134.894H93.955V136.224H92.695C91.9763 136.224 91.4257 136.056 91.043 135.72C90.6603 135.384 90.469 134.838 90.469 134.082V129.812H89.559V128.51H90.469V126.592H92.079V128.51H93.955V129.812H92.079ZM104.117 136.224L101.877 132.332H100.659V136.224H99.0627V126.494H102.423C103.169 126.494 103.799 126.625 104.313 126.886C104.835 127.147 105.223 127.497 105.475 127.936C105.736 128.375 105.867 128.865 105.867 129.406C105.867 130.041 105.68 130.619 105.307 131.142C104.943 131.655 104.378 132.005 103.613 132.192L106.021 136.224H104.117ZM100.659 131.058H102.423C103.02 131.058 103.468 130.909 103.767 130.61C104.075 130.311 104.229 129.91 104.229 129.406C104.229 128.902 104.079 128.51 103.781 128.23C103.482 127.941 103.029 127.796 102.423 127.796H100.659V131.058ZM114.894 128.51V136.224H113.298V135.314C113.046 135.631 112.715 135.883 112.304 136.07C111.903 136.247 111.474 136.336 111.016 136.336C110.41 136.336 109.864 136.21 109.378 135.958C108.902 135.706 108.524 135.333 108.244 134.838C107.974 134.343 107.838 133.746 107.838 133.046V128.51H109.42V132.808C109.42 133.499 109.593 134.031 109.938 134.404C110.284 134.768 110.755 134.95 111.352 134.95C111.95 134.95 112.421 134.768 112.766 134.404C113.121 134.031 113.298 133.499 113.298 132.808V128.51H114.894ZM118.596 125.864V136.224H117V125.864H118.596ZM127.762 132.178C127.762 132.467 127.743 132.729 127.706 132.962H121.812C121.858 133.578 122.087 134.073 122.498 134.446C122.908 134.819 123.412 135.006 124.01 135.006C124.868 135.006 125.475 134.647 125.83 133.928H127.552C127.318 134.637 126.894 135.221 126.278 135.678C125.671 136.126 124.915 136.35 124.01 136.35C123.272 136.35 122.61 136.187 122.022 135.86C121.443 135.524 120.986 135.057 120.65 134.46C120.323 133.853 120.16 133.153 120.16 132.36C120.16 131.567 120.318 130.871 120.636 130.274C120.962 129.667 121.415 129.201 121.994 128.874C122.582 128.547 123.254 128.384 124.01 128.384C124.738 128.384 125.386 128.543 125.956 128.86C126.525 129.177 126.968 129.625 127.286 130.204C127.603 130.773 127.762 131.431 127.762 132.178ZM126.096 131.674C126.086 131.086 125.876 130.615 125.466 130.26C125.055 129.905 124.546 129.728 123.94 129.728C123.389 129.728 122.918 129.905 122.526 130.26C122.134 130.605 121.9 131.077 121.826 131.674H126.096ZM132.132 136.35C131.526 136.35 130.98 136.243 130.494 136.028C130.018 135.804 129.64 135.505 129.36 135.132C129.08 134.749 128.931 134.325 128.912 133.858H130.564C130.592 134.185 130.746 134.46 131.026 134.684C131.316 134.899 131.675 135.006 132.104 135.006C132.552 135.006 132.898 134.922 133.14 134.754C133.392 134.577 133.518 134.353 133.518 134.082C133.518 133.793 133.378 133.578 133.098 133.438C132.828 133.298 132.394 133.144 131.796 132.976C131.218 132.817 130.746 132.663 130.382 132.514C130.018 132.365 129.701 132.136 129.43 131.828C129.169 131.52 129.038 131.114 129.038 130.61C129.038 130.199 129.16 129.826 129.402 129.49C129.645 129.145 129.99 128.874 130.438 128.678C130.896 128.482 131.418 128.384 132.006 128.384C132.884 128.384 133.588 128.608 134.12 129.056C134.662 129.495 134.951 130.097 134.988 130.862H133.392C133.364 130.517 133.224 130.241 132.972 130.036C132.72 129.831 132.38 129.728 131.95 129.728C131.53 129.728 131.208 129.807 130.984 129.966C130.76 130.125 130.648 130.335 130.648 130.596C130.648 130.801 130.723 130.974 130.872 131.114C131.022 131.254 131.204 131.366 131.418 131.45C131.633 131.525 131.95 131.623 132.37 131.744C132.93 131.893 133.388 132.047 133.742 132.206C134.106 132.355 134.419 132.579 134.68 132.878C134.942 133.177 135.077 133.573 135.086 134.068C135.086 134.507 134.965 134.899 134.722 135.244C134.48 135.589 134.134 135.86 133.686 136.056C133.248 136.252 132.73 136.35 132.132 136.35ZM42.2218 154.322C41.5685 154.322 40.9805 154.21 40.4578 153.986C39.9352 153.753 39.5245 153.426 39.2258 153.006C38.9272 152.586 38.7778 152.096 38.7778 151.536H40.4858C40.5232 151.956 40.6865 152.301 40.9758 152.572C41.2745 152.843 41.6898 152.978 42.2218 152.978C42.7725 152.978 43.2018 152.847 43.5098 152.586C43.8178 152.315 43.9718 151.97 43.9718 151.55C43.9718 151.223 43.8738 150.957 43.6778 150.752C43.4912 150.547 43.2532 150.388 42.9638 150.276C42.6838 150.164 42.2918 150.043 41.7878 149.912C41.1532 149.744 40.6352 149.576 40.2338 149.408C39.8418 149.231 39.5058 148.96 39.2258 148.596C38.9458 148.232 38.8058 147.747 38.8058 147.14C38.8058 146.58 38.9458 146.09 39.2258 145.67C39.5058 145.25 39.8978 144.928 40.4018 144.704C40.9058 144.48 41.4892 144.368 42.1518 144.368C43.0945 144.368 43.8645 144.606 44.4618 145.082C45.0685 145.549 45.4045 146.193 45.4698 147.014H43.7058C43.6778 146.659 43.5098 146.356 43.2018 146.104C42.8938 145.852 42.4878 145.726 41.9838 145.726C41.5265 145.726 41.1532 145.843 40.8638 146.076C40.5745 146.309 40.4298 146.645 40.4298 147.084C40.4298 147.383 40.5185 147.63 40.6958 147.826C40.8825 148.013 41.1158 148.162 41.3958 148.274C41.6758 148.386 42.0585 148.507 42.5438 148.638C43.1878 148.815 43.7105 148.993 44.1118 149.17C44.5225 149.347 44.8678 149.623 45.1478 149.996C45.4372 150.36 45.5818 150.85 45.5818 151.466C45.5818 151.961 45.4465 152.427 45.1758 152.866C44.9145 153.305 44.5272 153.659 44.0138 153.93C43.5098 154.191 42.9125 154.322 42.2218 154.322ZM54.535 150.178C54.535 150.467 54.5164 150.729 54.479 150.962H48.585C48.6317 151.578 48.8604 152.073 49.271 152.446C49.6817 152.819 50.1857 153.006 50.783 153.006C51.6417 153.006 52.2484 152.647 52.603 151.928H54.325C54.0917 152.637 53.667 153.221 53.051 153.678C52.4444 154.126 51.6884 154.35 50.783 154.35C50.0457 154.35 49.383 154.187 48.795 153.86C48.2164 153.524 47.759 153.057 47.423 152.46C47.0964 151.853 46.933 151.153 46.933 150.36C46.933 149.567 47.0917 148.871 47.409 148.274C47.7357 147.667 48.1884 147.201 48.767 146.874C49.355 146.547 50.027 146.384 50.783 146.384C51.511 146.384 52.1597 146.543 52.729 146.86C53.2984 147.177 53.7417 147.625 54.059 148.204C54.3764 148.773 54.535 149.431 54.535 150.178ZM52.869 149.674C52.8597 149.086 52.6497 148.615 52.239 148.26C51.8284 147.905 51.3197 147.728 50.713 147.728C50.1624 147.728 49.691 147.905 49.299 148.26C48.907 148.605 48.6737 149.077 48.599 149.674H52.869ZM55.5737 150.332C55.5737 149.557 55.7323 148.871 56.0497 148.274C56.3763 147.677 56.815 147.215 57.3657 146.888C57.9257 146.552 58.5463 146.384 59.2277 146.384C59.825 146.384 60.3523 146.505 60.8097 146.748C61.2763 146.991 61.6357 147.285 61.8877 147.63V146.51H63.4977V157.892H61.8877V153.104C61.6357 153.449 61.2717 153.743 60.7957 153.986C60.3197 154.229 59.7783 154.35 59.1717 154.35C58.509 154.35 57.9023 154.182 57.3517 153.846C56.8103 153.501 56.3763 153.025 56.0497 152.418C55.7323 151.802 55.5737 151.107 55.5737 150.332ZM61.8877 150.36C61.8877 149.828 61.7757 149.366 61.5517 148.974C61.337 148.582 61.0523 148.283 60.6977 148.078C60.343 147.873 59.9603 147.77 59.5497 147.77C59.139 147.77 58.7563 147.873 58.4017 148.078C58.047 148.274 57.7577 148.568 57.5337 148.96C57.319 149.343 57.2117 149.8 57.2117 150.332C57.2117 150.864 57.319 151.331 57.5337 151.732C57.7577 152.133 58.047 152.441 58.4017 152.656C58.7657 152.861 59.1483 152.964 59.5497 152.964C59.9603 152.964 60.343 152.861 60.6977 152.656C61.0523 152.451 61.337 152.152 61.5517 151.76C61.7757 151.359 61.8877 150.892 61.8877 150.36ZM72.5799 146.51V154.224H70.9839V153.314C70.7319 153.631 70.4006 153.883 69.9899 154.07C69.5886 154.247 69.1593 154.336 68.7019 154.336C68.0953 154.336 67.5493 154.21 67.0639 153.958C66.5879 153.706 66.2099 153.333 65.9299 152.838C65.6593 152.343 65.5239 151.746 65.5239 151.046V146.51H67.1059V150.808C67.1059 151.499 67.2786 152.031 67.6239 152.404C67.9693 152.768 68.4406 152.95 69.0379 152.95C69.6353 152.95 70.1066 152.768 70.4519 152.404C70.8066 152.031 70.9839 151.499 70.9839 150.808V146.51H72.5799ZM81.7557 150.178C81.7557 150.467 81.7371 150.729 81.6997 150.962H75.8057C75.8524 151.578 76.0811 152.073 76.4917 152.446C76.9024 152.819 77.4064 153.006 78.0037 153.006C78.8624 153.006 79.4691 152.647 79.8237 151.928H81.5457C81.3124 152.637 80.8877 153.221 80.2717 153.678C79.6651 154.126 78.9091 154.35 78.0037 154.35C77.2664 154.35 76.6037 154.187 76.0157 153.86C75.4371 153.524 74.9797 153.057 74.6437 152.46C74.3171 151.853 74.1537 151.153 74.1537 150.36C74.1537 149.567 74.3124 148.871 74.6297 148.274C74.9564 147.667 75.4091 147.201 75.9877 146.874C76.5757 146.547 77.2477 146.384 78.0037 146.384C78.7317 146.384 79.3804 146.543 79.9497 146.86C80.5191 147.177 80.9624 147.625 81.2797 148.204C81.5971 148.773 81.7557 149.431 81.7557 150.178ZM80.0897 149.674C80.0804 149.086 79.8704 148.615 79.4597 148.26C79.0491 147.905 78.5404 147.728 77.9337 147.728C77.3831 147.728 76.9117 147.905 76.5197 148.26C76.1277 148.605 75.8944 149.077 75.8197 149.674H80.0897ZM87.2184 146.384C87.825 146.384 88.3664 146.51 88.8424 146.762C89.3277 147.014 89.7057 147.387 89.9764 147.882C90.247 148.377 90.3824 148.974 90.3824 149.674V154.224H88.8004V149.912C88.8004 149.221 88.6277 148.694 88.2824 148.33C87.937 147.957 87.4657 147.77 86.8684 147.77C86.271 147.77 85.795 147.957 85.4404 148.33C85.095 148.694 84.9224 149.221 84.9224 149.912V154.224H83.3264V146.51H84.9224V147.392C85.1837 147.075 85.515 146.827 85.9164 146.65C86.327 146.473 86.761 146.384 87.2184 146.384ZM91.8862 150.36C91.8862 149.567 92.0448 148.871 92.3622 148.274C92.6888 147.667 93.1368 147.201 93.7062 146.874C94.2755 146.547 94.9288 146.384 95.6662 146.384C96.5995 146.384 97.3695 146.608 97.9762 147.056C98.5922 147.495 99.0075 148.125 99.2222 148.946H97.5002C97.3602 148.563 97.1362 148.265 96.8282 148.05C96.5202 147.835 96.1328 147.728 95.6662 147.728C95.0128 147.728 94.4902 147.961 94.0982 148.428C93.7155 148.885 93.5242 149.529 93.5242 150.36C93.5242 151.191 93.7155 151.839 94.0982 152.306C94.4902 152.773 95.0128 153.006 95.6662 153.006C96.5902 153.006 97.2015 152.6 97.5002 151.788H99.2222C98.9982 152.572 98.5782 153.197 97.9622 153.664C97.3462 154.121 96.5808 154.35 95.6662 154.35C94.9288 154.35 94.2755 154.187 93.7062 153.86C93.1368 153.524 92.6888 153.057 92.3622 152.46C92.0448 151.853 91.8862 151.153 91.8862 150.36ZM101.625 145.488C101.335 145.488 101.093 145.39 100.897 145.194C100.701 144.998 100.603 144.755 100.603 144.466C100.603 144.177 100.701 143.934 100.897 143.738C101.093 143.542 101.335 143.444 101.625 143.444C101.905 143.444 102.143 143.542 102.339 143.738C102.535 143.934 102.633 144.177 102.633 144.466C102.633 144.755 102.535 144.998 102.339 145.194C102.143 145.39 101.905 145.488 101.625 145.488ZM102.409 146.51V154.224H100.813V146.51H102.409ZM108.396 146.384C109.003 146.384 109.544 146.51 110.02 146.762C110.505 147.014 110.883 147.387 111.154 147.882C111.425 148.377 111.56 148.974 111.56 149.674V154.224H109.978V149.912C109.978 149.221 109.805 148.694 109.46 148.33C109.115 147.957 108.643 147.77 108.046 147.77C107.449 147.77 106.973 147.957 106.618 148.33C106.273 148.694 106.1 149.221 106.1 149.912V154.224H104.504V146.51H106.1V147.392C106.361 147.075 106.693 146.827 107.094 146.65C107.505 146.473 107.939 146.384 108.396 146.384ZM116.704 146.384C117.301 146.384 117.829 146.505 118.286 146.748C118.753 146.981 119.117 147.275 119.378 147.63V146.51H120.988V154.35C120.988 155.059 120.839 155.689 120.54 156.24C120.241 156.8 119.807 157.239 119.238 157.556C118.678 157.873 118.006 158.032 117.222 158.032C116.177 158.032 115.309 157.785 114.618 157.29C113.927 156.805 113.535 156.142 113.442 155.302H115.024C115.145 155.703 115.402 156.025 115.794 156.268C116.195 156.52 116.671 156.646 117.222 156.646C117.866 156.646 118.384 156.45 118.776 156.058C119.177 155.666 119.378 155.097 119.378 154.35V153.062C119.107 153.426 118.739 153.734 118.272 153.986C117.815 154.229 117.292 154.35 116.704 154.35C116.032 154.35 115.416 154.182 114.856 153.846C114.305 153.501 113.867 153.025 113.54 152.418C113.223 151.802 113.064 151.107 113.064 150.332C113.064 149.557 113.223 148.871 113.54 148.274C113.867 147.677 114.305 147.215 114.856 146.888C115.416 146.552 116.032 146.384 116.704 146.384ZM119.378 150.36C119.378 149.828 119.266 149.366 119.042 148.974C118.827 148.582 118.543 148.283 118.188 148.078C117.833 147.873 117.451 147.77 117.04 147.77C116.629 147.77 116.247 147.873 115.892 148.078C115.537 148.274 115.248 148.568 115.024 148.96C114.809 149.343 114.702 149.8 114.702 150.332C114.702 150.864 114.809 151.331 115.024 151.732C115.248 152.133 115.537 152.441 115.892 152.656C116.256 152.861 116.639 152.964 117.04 152.964C117.451 152.964 117.833 152.861 118.188 152.656C118.543 152.451 118.827 152.152 119.042 151.76C119.266 151.359 119.378 150.892 119.378 150.36Z" fill="white"/>
<rect x="1" y="107.224" width="158" height="66" rx="11" stroke="url(#paint4_linear_7111_9530)" stroke-width="2"/>
</g>
<rect x="172" y="106.25" width="154" height="68" rx="12" fill="#FAA204"/>
<path d="M204.238 129.418C204.238 129.913 204.121 130.379 203.888 130.818C203.654 131.257 203.281 131.616 202.768 131.896C202.254 132.167 201.596 132.302 200.794 132.302H199.03V136.25H197.434V126.52H200.794C201.54 126.52 202.17 126.651 202.684 126.912C203.206 127.164 203.594 127.509 203.846 127.948C204.107 128.387 204.238 128.877 204.238 129.418ZM200.794 131C201.4 131 201.853 130.865 202.152 130.594C202.45 130.314 202.6 129.922 202.6 129.418C202.6 128.354 201.998 127.822 200.794 127.822H199.03V131H200.794ZM207.356 129.656C207.589 129.264 207.897 128.961 208.28 128.746C208.672 128.522 209.134 128.41 209.666 128.41V130.062H209.26C208.635 130.062 208.159 130.221 207.832 130.538C207.515 130.855 207.356 131.406 207.356 132.19V136.25H205.76V128.536H207.356V129.656ZM218.203 132.204C218.203 132.493 218.184 132.755 218.147 132.988H212.253C212.3 133.604 212.528 134.099 212.939 134.472C213.35 134.845 213.854 135.032 214.451 135.032C215.31 135.032 215.916 134.673 216.271 133.954H217.993C217.76 134.663 217.335 135.247 216.719 135.704C216.112 136.152 215.356 136.376 214.451 136.376C213.714 136.376 213.051 136.213 212.463 135.886C211.884 135.55 211.427 135.083 211.091 134.486C210.764 133.879 210.601 133.179 210.601 132.386C210.601 131.593 210.76 130.897 211.077 130.3C211.404 129.693 211.856 129.227 212.435 128.9C213.023 128.573 213.695 128.41 214.451 128.41C215.179 128.41 215.828 128.569 216.397 128.886C216.966 129.203 217.41 129.651 217.727 130.23C218.044 130.799 218.203 131.457 218.203 132.204ZM216.537 131.7C216.528 131.112 216.318 130.641 215.907 130.286C215.496 129.931 214.988 129.754 214.381 129.754C213.83 129.754 213.359 129.931 212.967 130.286C212.575 130.631 212.342 131.103 212.267 131.7H216.537ZM225.696 130.51V131.854H219.942V130.51H225.696ZM234.767 129.418C234.767 129.913 234.65 130.379 234.417 130.818C234.184 131.257 233.81 131.616 233.297 131.896C232.784 132.167 232.126 132.302 231.323 132.302H229.559V136.25H227.963V126.52H231.323C232.07 126.52 232.7 126.651 233.213 126.912C233.736 127.164 234.123 127.509 234.375 127.948C234.636 128.387 234.767 128.877 234.767 129.418ZM231.323 131C231.93 131 232.382 130.865 232.681 130.594C232.98 130.314 233.129 129.922 233.129 129.418C233.129 128.354 232.527 127.822 231.323 127.822H229.559V131H231.323ZM235.757 132.358C235.757 131.583 235.916 130.897 236.233 130.3C236.56 129.703 236.999 129.241 237.549 128.914C238.109 128.578 238.725 128.41 239.397 128.41C240.004 128.41 240.531 128.531 240.979 128.774C241.437 129.007 241.801 129.301 242.071 129.656V128.536H243.681V136.25H242.071V135.102C241.801 135.466 241.432 135.769 240.965 136.012C240.499 136.255 239.967 136.376 239.369 136.376C238.707 136.376 238.1 136.208 237.549 135.872C236.999 135.527 236.56 135.051 236.233 134.444C235.916 133.828 235.757 133.133 235.757 132.358ZM242.071 132.386C242.071 131.854 241.959 131.392 241.735 131C241.521 130.608 241.236 130.309 240.881 130.104C240.527 129.899 240.144 129.796 239.733 129.796C239.323 129.796 238.94 129.899 238.585 130.104C238.231 130.3 237.941 130.594 237.717 130.986C237.503 131.369 237.395 131.826 237.395 132.358C237.395 132.89 237.503 133.357 237.717 133.758C237.941 134.159 238.231 134.467 238.585 134.682C238.949 134.887 239.332 134.99 239.733 134.99C240.144 134.99 240.527 134.887 240.881 134.682C241.236 134.477 241.521 134.178 241.735 133.786C241.959 133.385 242.071 132.918 242.071 132.386ZM245.246 132.386C245.246 131.593 245.404 130.897 245.722 130.3C246.048 129.693 246.496 129.227 247.066 128.9C247.635 128.573 248.288 128.41 249.026 128.41C249.959 128.41 250.729 128.634 251.336 129.082C251.952 129.521 252.367 130.151 252.582 130.972H250.86C250.72 130.589 250.496 130.291 250.188 130.076C249.88 129.861 249.492 129.754 249.026 129.754C248.372 129.754 247.85 129.987 247.458 130.454C247.075 130.911 246.884 131.555 246.884 132.386C246.884 133.217 247.075 133.865 247.458 134.332C247.85 134.799 248.372 135.032 249.026 135.032C249.95 135.032 250.561 134.626 250.86 133.814H252.582C252.358 134.598 251.938 135.223 251.322 135.69C250.706 136.147 249.94 136.376 249.026 136.376C248.288 136.376 247.635 136.213 247.066 135.886C246.496 135.55 246.048 135.083 245.722 134.486C245.404 133.879 245.246 133.179 245.246 132.386ZM257.224 132.4L260.78 136.25H258.624L255.768 132.932V136.25H254.172V125.89H255.768V131.91L258.568 128.536H260.78L257.224 132.4ZM261.392 132.358C261.392 131.583 261.551 130.897 261.868 130.3C262.195 129.703 262.633 129.241 263.184 128.914C263.744 128.578 264.36 128.41 265.032 128.41C265.639 128.41 266.166 128.531 266.614 128.774C267.071 129.007 267.435 129.301 267.706 129.656V128.536H269.316V136.25H267.706V135.102C267.435 135.466 267.067 135.769 266.6 136.012C266.133 136.255 265.601 136.376 265.004 136.376C264.341 136.376 263.735 136.208 263.184 135.872C262.633 135.527 262.195 135.051 261.868 134.444C261.551 133.828 261.392 133.133 261.392 132.358ZM267.706 132.386C267.706 131.854 267.594 131.392 267.37 131C267.155 130.608 266.871 130.309 266.516 130.104C266.161 129.899 265.779 129.796 265.368 129.796C264.957 129.796 264.575 129.899 264.22 130.104C263.865 130.3 263.576 130.594 263.352 130.986C263.137 131.369 263.03 131.826 263.03 132.358C263.03 132.89 263.137 133.357 263.352 133.758C263.576 134.159 263.865 134.467 264.22 134.682C264.584 134.887 264.967 134.99 265.368 134.99C265.779 134.99 266.161 134.887 266.516 134.682C266.871 134.477 267.155 134.178 267.37 133.786C267.594 133.385 267.706 132.918 267.706 132.386ZM274.52 128.41C275.118 128.41 275.645 128.531 276.102 128.774C276.569 129.007 276.933 129.301 277.194 129.656V128.536H278.804V136.376C278.804 137.085 278.655 137.715 278.356 138.266C278.058 138.826 277.624 139.265 277.054 139.582C276.494 139.899 275.822 140.058 275.038 140.058C273.993 140.058 273.125 139.811 272.434 139.316C271.744 138.831 271.352 138.168 271.258 137.328H272.84C272.962 137.729 273.218 138.051 273.61 138.294C274.012 138.546 274.488 138.672 275.038 138.672C275.682 138.672 276.2 138.476 276.592 138.084C276.994 137.692 277.194 137.123 277.194 136.376V135.088C276.924 135.452 276.555 135.76 276.088 136.012C275.631 136.255 275.108 136.376 274.52 136.376C273.848 136.376 273.232 136.208 272.672 135.872C272.122 135.527 271.683 135.051 271.356 134.444C271.039 133.828 270.88 133.133 270.88 132.358C270.88 131.583 271.039 130.897 271.356 130.3C271.683 129.703 272.122 129.241 272.672 128.914C273.232 128.578 273.848 128.41 274.52 128.41ZM277.194 132.386C277.194 131.854 277.082 131.392 276.858 131C276.644 130.608 276.359 130.309 276.004 130.104C275.65 129.899 275.267 129.796 274.856 129.796C274.446 129.796 274.063 129.899 273.708 130.104C273.354 130.3 273.064 130.594 272.84 130.986C272.626 131.369 272.518 131.826 272.518 132.358C272.518 132.89 272.626 133.357 272.84 133.758C273.064 134.159 273.354 134.467 273.708 134.682C274.072 134.887 274.455 134.99 274.856 134.99C275.267 134.99 275.65 134.887 276.004 134.682C276.359 134.477 276.644 134.178 276.858 133.786C277.082 133.385 277.194 132.918 277.194 132.386ZM287.971 132.204C287.971 132.493 287.952 132.755 287.915 132.988H282.021C282.067 133.604 282.296 134.099 282.707 134.472C283.117 134.845 283.621 135.032 284.219 135.032C285.077 135.032 285.684 134.673 286.039 133.954H287.761C287.527 134.663 287.103 135.247 286.487 135.704C285.88 136.152 285.124 136.376 284.219 136.376C283.481 136.376 282.819 136.213 282.231 135.886C281.652 135.55 281.195 135.083 280.859 134.486C280.532 133.879 280.369 133.179 280.369 132.386C280.369 131.593 280.527 130.897 280.845 130.3C281.171 129.693 281.624 129.227 282.203 128.9C282.791 128.573 283.463 128.41 284.219 128.41C284.947 128.41 285.595 128.569 286.165 128.886C286.734 129.203 287.177 129.651 287.495 130.23C287.812 130.799 287.971 131.457 287.971 132.204ZM286.305 131.7C286.295 131.112 286.085 130.641 285.675 130.286C285.264 129.931 284.755 129.754 284.149 129.754C283.598 129.754 283.127 129.931 282.735 130.286C282.343 130.631 282.109 131.103 282.035 131.7H286.305ZM289.009 132.358C289.009 131.583 289.168 130.897 289.485 130.3C289.812 129.703 290.251 129.241 290.801 128.914C291.361 128.578 291.982 128.41 292.663 128.41C293.167 128.41 293.662 128.522 294.147 128.746C294.642 128.961 295.034 129.25 295.323 129.614V125.89H296.933V136.25H295.323V135.088C295.062 135.461 294.698 135.769 294.231 136.012C293.774 136.255 293.247 136.376 292.649 136.376C291.977 136.376 291.361 136.208 290.801 135.872C290.251 135.527 289.812 135.051 289.485 134.444C289.168 133.828 289.009 133.133 289.009 132.358ZM295.323 132.386C295.323 131.854 295.211 131.392 294.987 131C294.773 130.608 294.488 130.309 294.133 130.104C293.779 129.899 293.396 129.796 292.985 129.796C292.575 129.796 292.192 129.899 291.837 130.104C291.483 130.3 291.193 130.594 290.969 130.986C290.755 131.369 290.647 131.826 290.647 132.358C290.647 132.89 290.755 133.357 290.969 133.758C291.193 134.159 291.483 134.467 291.837 134.682C292.201 134.887 292.584 134.99 292.985 134.99C293.396 134.99 293.779 134.887 294.133 134.682C294.488 134.477 294.773 134.178 294.987 133.786C295.211 133.385 295.323 132.918 295.323 132.386ZM203.681 149.252C204.204 149.345 204.647 149.621 205.011 150.078C205.375 150.535 205.557 151.053 205.557 151.632C205.557 152.127 205.426 152.575 205.165 152.976C204.913 153.368 204.544 153.681 204.059 153.914C203.574 154.138 203.009 154.25 202.365 154.25H198.473V144.52H202.183C202.846 144.52 203.415 144.632 203.891 144.856C204.367 145.08 204.726 145.383 204.969 145.766C205.212 146.139 205.333 146.559 205.333 147.026C205.333 147.586 205.184 148.053 204.885 148.426C204.586 148.799 204.185 149.075 203.681 149.252ZM200.069 148.608H202.043C202.566 148.608 202.972 148.491 203.261 148.258C203.56 148.015 203.709 147.67 203.709 147.222C203.709 146.783 203.56 146.443 203.261 146.2C202.972 145.948 202.566 145.822 202.043 145.822H200.069V148.608ZM202.225 152.948C202.766 152.948 203.191 152.817 203.499 152.556C203.807 152.295 203.961 151.931 203.961 151.464C203.961 150.988 203.798 150.61 203.471 150.33C203.144 150.05 202.71 149.91 202.169 149.91H200.069V152.948H202.225ZM214.277 146.536V154.25H212.681V153.34C212.429 153.657 212.098 153.909 211.687 154.096C211.286 154.273 210.857 154.362 210.399 154.362C209.793 154.362 209.247 154.236 208.761 153.984C208.285 153.732 207.907 153.359 207.627 152.864C207.357 152.369 207.221 151.772 207.221 151.072V146.536H208.803V150.834C208.803 151.525 208.976 152.057 209.321 152.43C209.667 152.794 210.138 152.976 210.735 152.976C211.333 152.976 211.804 152.794 212.149 152.43C212.504 152.057 212.681 151.525 212.681 150.834V146.536H214.277ZM219.183 154.376C218.576 154.376 218.03 154.269 217.545 154.054C217.069 153.83 216.691 153.531 216.411 153.158C216.131 152.775 215.982 152.351 215.963 151.884H217.615C217.643 152.211 217.797 152.486 218.077 152.71C218.366 152.925 218.726 153.032 219.155 153.032C219.603 153.032 219.948 152.948 220.191 152.78C220.443 152.603 220.569 152.379 220.569 152.108C220.569 151.819 220.429 151.604 220.149 151.464C219.878 151.324 219.444 151.17 218.847 151.002C218.268 150.843 217.797 150.689 217.433 150.54C217.069 150.391 216.752 150.162 216.481 149.854C216.22 149.546 216.089 149.14 216.089 148.636C216.089 148.225 216.21 147.852 216.453 147.516C216.696 147.171 217.041 146.9 217.489 146.704C217.946 146.508 218.469 146.41 219.057 146.41C219.934 146.41 220.639 146.634 221.171 147.082C221.712 147.521 222.002 148.123 222.039 148.888H220.443C220.415 148.543 220.275 148.267 220.023 148.062C219.771 147.857 219.43 147.754 219.001 147.754C218.581 147.754 218.259 147.833 218.035 147.992C217.811 148.151 217.699 148.361 217.699 148.622C217.699 148.827 217.774 149 217.923 149.14C218.072 149.28 218.254 149.392 218.469 149.476C218.684 149.551 219.001 149.649 219.421 149.77C219.981 149.919 220.438 150.073 220.793 150.232C221.157 150.381 221.47 150.605 221.731 150.904C221.992 151.203 222.128 151.599 222.137 152.094C222.137 152.533 222.016 152.925 221.773 153.27C221.53 153.615 221.185 153.886 220.737 154.082C220.298 154.278 219.78 154.376 219.183 154.376ZM224.674 145.514C224.384 145.514 224.142 145.416 223.946 145.22C223.75 145.024 223.652 144.781 223.652 144.492C223.652 144.203 223.75 143.96 223.946 143.764C224.142 143.568 224.384 143.47 224.674 143.47C224.954 143.47 225.192 143.568 225.388 143.764C225.584 143.96 225.682 144.203 225.682 144.492C225.682 144.781 225.584 145.024 225.388 145.22C225.192 145.416 224.954 145.514 224.674 145.514ZM225.458 146.536V154.25H223.862V146.536H225.458ZM231.445 146.41C232.052 146.41 232.593 146.536 233.069 146.788C233.554 147.04 233.932 147.413 234.203 147.908C234.474 148.403 234.609 149 234.609 149.7V154.25H233.027V149.938C233.027 149.247 232.854 148.72 232.509 148.356C232.164 147.983 231.692 147.796 231.095 147.796C230.498 147.796 230.022 147.983 229.667 148.356C229.322 148.72 229.149 149.247 229.149 149.938V154.25H227.553V146.536H229.149V147.418C229.41 147.101 229.742 146.853 230.143 146.676C230.554 146.499 230.988 146.41 231.445 146.41ZM243.715 150.204C243.715 150.493 243.696 150.755 243.659 150.988H237.765C237.811 151.604 238.04 152.099 238.451 152.472C238.861 152.845 239.365 153.032 239.963 153.032C240.821 153.032 241.428 152.673 241.783 151.954H243.505C243.271 152.663 242.847 153.247 242.231 153.704C241.624 154.152 240.868 154.376 239.963 154.376C239.225 154.376 238.563 154.213 237.975 153.886C237.396 153.55 236.939 153.083 236.603 152.486C236.276 151.879 236.113 151.179 236.113 150.386C236.113 149.593 236.271 148.897 236.589 148.3C236.915 147.693 237.368 147.227 237.947 146.9C238.535 146.573 239.207 146.41 239.963 146.41C240.691 146.41 241.339 146.569 241.909 146.886C242.478 147.203 242.921 147.651 243.239 148.23C243.556 148.799 243.715 149.457 243.715 150.204ZM242.049 149.7C242.039 149.112 241.829 148.641 241.419 148.286C241.008 147.931 240.499 147.754 239.893 147.754C239.342 147.754 238.871 147.931 238.479 148.286C238.087 148.631 237.853 149.103 237.779 149.7H242.049ZM248.085 154.376C247.479 154.376 246.933 154.269 246.447 154.054C245.971 153.83 245.593 153.531 245.313 153.158C245.033 152.775 244.884 152.351 244.865 151.884H246.517C246.545 152.211 246.699 152.486 246.979 152.71C247.269 152.925 247.628 153.032 248.057 153.032C248.505 153.032 248.851 152.948 249.093 152.78C249.345 152.603 249.471 152.379 249.471 152.108C249.471 151.819 249.331 151.604 249.051 151.464C248.781 151.324 248.347 151.17 247.749 151.002C247.171 150.843 246.699 150.689 246.335 150.54C245.971 150.391 245.654 150.162 245.383 149.854C245.122 149.546 244.991 149.14 244.991 148.636C244.991 148.225 245.113 147.852 245.355 147.516C245.598 147.171 245.943 146.9 246.391 146.704C246.849 146.508 247.371 146.41 247.959 146.41C248.837 146.41 249.541 146.634 250.073 147.082C250.615 147.521 250.904 148.123 250.941 148.888H249.345C249.317 148.543 249.177 148.267 248.925 148.062C248.673 147.857 248.333 147.754 247.903 147.754C247.483 147.754 247.161 147.833 246.937 147.992C246.713 148.151 246.601 148.361 246.601 148.622C246.601 148.827 246.676 149 246.825 149.14C246.975 149.28 247.157 149.392 247.371 149.476C247.586 149.551 247.903 149.649 248.323 149.77C248.883 149.919 249.341 150.073 249.695 150.232C250.059 150.381 250.372 150.605 250.633 150.904C250.895 151.203 251.03 151.599 251.039 152.094C251.039 152.533 250.918 152.925 250.675 153.27C250.433 153.615 250.087 153.886 249.639 154.082C249.201 154.278 248.683 154.376 248.085 154.376ZM255.564 154.376C254.957 154.376 254.411 154.269 253.926 154.054C253.45 153.83 253.072 153.531 252.792 153.158C252.512 152.775 252.363 152.351 252.344 151.884H253.996C254.024 152.211 254.178 152.486 254.458 152.71C254.747 152.925 255.107 153.032 255.536 153.032C255.984 153.032 256.329 152.948 256.572 152.78C256.824 152.603 256.95 152.379 256.95 152.108C256.95 151.819 256.81 151.604 256.53 151.464C256.259 151.324 255.825 151.17 255.228 151.002C254.649 150.843 254.178 150.689 253.814 150.54C253.45 150.391 253.133 150.162 252.862 149.854C252.601 149.546 252.47 149.14 252.47 148.636C252.47 148.225 252.591 147.852 252.834 147.516C253.077 147.171 253.422 146.9 253.87 146.704C254.327 146.508 254.85 146.41 255.438 146.41C256.315 146.41 257.02 146.634 257.552 147.082C258.093 147.521 258.383 148.123 258.42 148.888H256.824C256.796 148.543 256.656 148.267 256.404 148.062C256.152 147.857 255.811 147.754 255.382 147.754C254.962 147.754 254.64 147.833 254.416 147.992C254.192 148.151 254.08 148.361 254.08 148.622C254.08 148.827 254.155 149 254.304 149.14C254.453 149.28 254.635 149.392 254.85 149.476C255.065 149.551 255.382 149.649 255.802 149.77C256.362 149.919 256.819 150.073 257.174 150.232C257.538 150.381 257.851 150.605 258.112 150.904C258.373 151.203 258.509 151.599 258.518 152.094C258.518 152.533 258.397 152.925 258.154 153.27C257.911 153.615 257.566 153.886 257.118 154.082C256.679 154.278 256.161 154.376 255.564 154.376ZM268.933 154.25L266.693 150.358H265.475V154.25H263.879V144.52H267.239C267.986 144.52 268.616 144.651 269.129 144.912C269.652 145.173 270.039 145.523 270.291 145.962C270.552 146.401 270.683 146.891 270.683 147.432C270.683 148.067 270.496 148.645 270.123 149.168C269.759 149.681 269.194 150.031 268.429 150.218L270.837 154.25H268.933ZM265.475 149.084H267.239C267.836 149.084 268.284 148.935 268.583 148.636C268.891 148.337 269.045 147.936 269.045 147.432C269.045 146.928 268.896 146.536 268.597 146.256C268.298 145.967 267.846 145.822 267.239 145.822H265.475V149.084ZM279.711 146.536V154.25H278.115V153.34C277.863 153.657 277.531 153.909 277.121 154.096C276.719 154.273 276.29 154.362 275.833 154.362C275.226 154.362 274.68 154.236 274.195 153.984C273.719 153.732 273.341 153.359 273.061 152.864C272.79 152.369 272.655 151.772 272.655 151.072V146.536H274.237V150.834C274.237 151.525 274.409 152.057 274.755 152.43C275.1 152.794 275.571 152.976 276.169 152.976C276.766 152.976 277.237 152.794 277.583 152.43C277.937 152.057 278.115 151.525 278.115 150.834V146.536H279.711ZM283.413 143.89V154.25H281.817V143.89H283.413ZM292.578 150.204C292.578 150.493 292.559 150.755 292.522 150.988H286.628C286.675 151.604 286.903 152.099 287.314 152.472C287.725 152.845 288.229 153.032 288.826 153.032C289.685 153.032 290.291 152.673 290.646 151.954H292.368C292.135 152.663 291.71 153.247 291.094 153.704C290.487 154.152 289.731 154.376 288.826 154.376C288.089 154.376 287.426 154.213 286.838 153.886C286.259 153.55 285.802 153.083 285.466 152.486C285.139 151.879 284.976 151.179 284.976 150.386C284.976 149.593 285.135 148.897 285.452 148.3C285.779 147.693 286.231 147.227 286.81 146.9C287.398 146.573 288.07 146.41 288.826 146.41C289.554 146.41 290.203 146.569 290.772 146.886C291.341 147.203 291.785 147.651 292.102 148.23C292.419 148.799 292.578 149.457 292.578 150.204ZM290.912 149.7C290.903 149.112 290.693 148.641 290.282 148.286C289.871 147.931 289.363 147.754 288.756 147.754C288.205 147.754 287.734 147.931 287.342 148.286C286.95 148.631 286.717 149.103 286.642 149.7H290.912ZM296.949 154.376C296.342 154.376 295.796 154.269 295.311 154.054C294.835 153.83 294.457 153.531 294.177 153.158C293.897 152.775 293.747 152.351 293.729 151.884H295.381C295.409 152.211 295.563 152.486 295.843 152.71C296.132 152.925 296.491 153.032 296.921 153.032C297.369 153.032 297.714 152.948 297.957 152.78C298.209 152.603 298.335 152.379 298.335 152.108C298.335 151.819 298.195 151.604 297.915 151.464C297.644 151.324 297.21 151.17 296.613 151.002C296.034 150.843 295.563 150.689 295.199 150.54C294.835 150.391 294.517 150.162 294.247 149.854C293.985 149.546 293.855 149.14 293.855 148.636C293.855 148.225 293.976 147.852 294.219 147.516C294.461 147.171 294.807 146.9 295.255 146.704C295.712 146.508 296.235 146.41 296.823 146.41C297.7 146.41 298.405 146.634 298.937 147.082C299.478 147.521 299.767 148.123 299.805 148.888H298.209C298.181 148.543 298.041 148.267 297.789 148.062C297.537 147.857 297.196 147.754 296.767 147.754C296.347 147.754 296.025 147.833 295.801 147.992C295.577 148.151 295.465 148.361 295.465 148.622C295.465 148.827 295.539 149 295.689 149.14C295.838 149.28 296.02 149.392 296.235 149.476C296.449 149.551 296.767 149.649 297.187 149.77C297.747 149.919 298.204 150.073 298.559 150.232C298.923 150.381 299.235 150.605 299.497 150.904C299.758 151.203 299.893 151.599 299.903 152.094C299.903 152.533 299.781 152.925 299.539 153.27C299.296 153.615 298.951 153.886 298.503 154.082C298.064 154.278 297.546 154.376 296.949 154.376Z" fill="white"/>
<path d="M61.904 320.978H57.248L56.448 323.25H54.544L58.528 312.114H60.64L64.624 323.25H62.704L61.904 320.978ZM61.392 319.49L59.584 314.322L57.76 319.49H61.392ZM74.3403 314.434V323.25H72.5163V322.21C72.2283 322.573 71.8496 322.861 71.3803 323.074C70.9216 323.277 70.4309 323.378 69.9083 323.378C69.2149 323.378 68.5909 323.234 68.0363 322.946C67.4923 322.658 67.0603 322.231 66.7403 321.666C66.4309 321.101 66.2763 320.418 66.2763 319.618V314.434H68.0843V319.346C68.0843 320.135 68.2816 320.743 68.6763 321.17C69.0709 321.586 69.6096 321.794 70.2923 321.794C70.9749 321.794 71.5136 321.586 71.9083 321.17C72.3136 320.743 72.5163 320.135 72.5163 319.346V314.434H74.3403ZM76.1389 318.802C76.1389 317.917 76.3202 317.133 76.6829 316.45C77.0562 315.767 77.5575 315.239 78.1869 314.866C78.8269 314.482 79.5362 314.29 80.3149 314.29C80.8909 314.29 81.4562 314.418 82.0109 314.674C82.5762 314.919 83.0242 315.25 83.3549 315.666V311.41H85.1949V323.25H83.3549V321.922C83.0562 322.349 82.6402 322.701 82.1069 322.978C81.5842 323.255 80.9815 323.394 80.2989 323.394C79.5309 323.394 78.8269 323.202 78.1869 322.818C77.5575 322.423 77.0562 321.879 76.6829 321.186C76.3202 320.482 76.1389 319.687 76.1389 318.802ZM83.3549 318.834C83.3549 318.226 83.2269 317.698 82.9709 317.25C82.7255 316.802 82.4002 316.461 81.9949 316.226C81.5895 315.991 81.1522 315.874 80.6829 315.874C80.2135 315.874 79.7762 315.991 79.3709 316.226C78.9655 316.45 78.6349 316.786 78.3789 317.234C78.1335 317.671 78.0109 318.194 78.0109 318.802C78.0109 319.41 78.1335 319.943 78.3789 320.402C78.6349 320.861 78.9655 321.213 79.3709 321.458C79.7869 321.693 80.2242 321.81 80.6829 321.81C81.1522 321.81 81.5895 321.693 81.9949 321.458C82.4002 321.223 82.7255 320.882 82.9709 320.434C83.2269 319.975 83.3549 319.442 83.3549 318.834ZM88.5186 313.266C88.188 313.266 87.9106 313.154 87.6866 312.93C87.4626 312.706 87.3506 312.429 87.3506 312.098C87.3506 311.767 87.4626 311.49 87.6866 311.266C87.9106 311.042 88.188 310.93 88.5186 310.93C88.8386 310.93 89.1106 311.042 89.3346 311.266C89.5586 311.49 89.6706 311.767 89.6706 312.098C89.6706 312.429 89.5586 312.706 89.3346 312.93C89.1106 313.154 88.8386 313.266 88.5186 313.266ZM89.4146 314.434V323.25H87.5906V314.434H89.4146ZM93.9374 315.922V320.802C93.9374 321.133 94.012 321.373 94.1614 321.522C94.3214 321.661 94.588 321.73 94.9614 321.73H96.0814V323.25H94.6414C93.82 323.25 93.1907 323.058 92.7534 322.674C92.316 322.29 92.0974 321.666 92.0974 320.802V315.922H91.0574V314.434H92.0974V312.242H93.9374V314.434H96.0814V315.922H93.9374ZM110.799 312.13V323.25H108.975V318.386H103.743V323.25H101.919V312.13H103.743V316.898H108.975V312.13H110.799ZM114.128 313.266C113.797 313.266 113.52 313.154 113.296 312.93C113.072 312.706 112.96 312.429 112.96 312.098C112.96 311.767 113.072 311.49 113.296 311.266C113.52 311.042 113.797 310.93 114.128 310.93C114.448 310.93 114.72 311.042 114.944 311.266C115.168 311.49 115.28 311.767 115.28 312.098C115.28 312.429 115.168 312.706 114.944 312.93C114.72 313.154 114.448 313.266 114.128 313.266ZM115.024 314.434V323.25H113.2V314.434H115.024ZM120.619 323.394C119.925 323.394 119.301 323.271 118.747 323.026C118.203 322.77 117.771 322.429 117.451 322.002C117.131 321.565 116.96 321.079 116.939 320.546H118.827C118.859 320.919 119.035 321.234 119.355 321.49C119.685 321.735 120.096 321.858 120.587 321.858C121.099 321.858 121.493 321.762 121.771 321.57C122.059 321.367 122.203 321.111 122.203 320.802C122.203 320.471 122.043 320.226 121.723 320.066C121.413 319.906 120.917 319.73 120.235 319.538C119.573 319.357 119.035 319.181 118.619 319.01C118.203 318.839 117.84 318.578 117.531 318.226C117.232 317.874 117.083 317.41 117.083 316.834C117.083 316.365 117.221 315.938 117.499 315.554C117.776 315.159 118.171 314.85 118.683 314.626C119.205 314.402 119.803 314.29 120.475 314.29C121.477 314.29 122.283 314.546 122.891 315.058C123.509 315.559 123.84 316.247 123.883 317.122H122.059C122.027 316.727 121.867 316.413 121.579 316.178C121.291 315.943 120.901 315.826 120.411 315.826C119.931 315.826 119.563 315.917 119.307 316.098C119.051 316.279 118.923 316.519 118.923 316.818C118.923 317.053 119.008 317.25 119.179 317.41C119.349 317.57 119.557 317.698 119.803 317.794C120.048 317.879 120.411 317.991 120.891 318.13C121.531 318.301 122.053 318.477 122.459 318.658C122.875 318.829 123.232 319.085 123.531 319.426C123.829 319.767 123.984 320.221 123.995 320.786C123.995 321.287 123.856 321.735 123.579 322.13C123.301 322.525 122.907 322.834 122.395 323.058C121.893 323.282 121.301 323.394 120.619 323.394ZM128.094 315.922V320.802C128.094 321.133 128.168 321.373 128.318 321.522C128.478 321.661 128.744 321.73 129.118 321.73H130.238V323.25H128.798C127.976 323.25 127.347 323.058 126.91 322.674C126.472 322.29 126.254 321.666 126.254 320.802V315.922H125.214V314.434H126.254V312.242H128.094V314.434H130.238V315.922H128.094ZM135.743 323.394C134.911 323.394 134.159 323.207 133.487 322.834C132.815 322.45 132.287 321.917 131.903 321.234C131.519 320.541 131.327 319.741 131.327 318.834C131.327 317.938 131.524 317.143 131.919 316.45C132.313 315.757 132.852 315.223 133.535 314.85C134.217 314.477 134.98 314.29 135.823 314.29C136.665 314.29 137.428 314.477 138.111 314.85C138.793 315.223 139.332 315.757 139.727 316.45C140.121 317.143 140.319 317.938 140.319 318.834C140.319 319.73 140.116 320.525 139.711 321.218C139.305 321.911 138.751 322.45 138.047 322.834C137.353 323.207 136.585 323.394 135.743 323.394ZM135.743 321.81C136.212 321.81 136.649 321.698 137.055 321.474C137.471 321.25 137.807 320.914 138.063 320.466C138.319 320.018 138.447 319.474 138.447 318.834C138.447 318.194 138.324 317.655 138.079 317.218C137.833 316.77 137.508 316.434 137.103 316.21C136.697 315.986 136.26 315.874 135.791 315.874C135.321 315.874 134.884 315.986 134.479 316.21C134.084 316.434 133.769 316.77 133.535 317.218C133.3 317.655 133.183 318.194 133.183 318.834C133.183 319.783 133.423 320.519 133.903 321.042C134.393 321.554 135.007 321.81 135.743 321.81ZM143.946 315.714C144.213 315.266 144.565 314.919 145.002 314.674C145.45 314.418 145.978 314.29 146.586 314.29V316.178H146.122C145.407 316.178 144.863 316.359 144.49 316.722C144.127 317.085 143.946 317.714 143.946 318.61V323.25H142.122V314.434H143.946V315.714ZM156.199 314.434L150.791 327.394H148.903L150.695 323.106L147.223 314.434H149.255L151.735 321.154L154.311 314.434H156.199ZM66.912 334.13V345.25H65.088V337.634L61.696 345.25H60.432L57.024 337.634V345.25H55.2V334.13H57.168L61.072 342.85L64.96 334.13H66.912ZM68.7014 340.802C68.7014 339.917 68.8827 339.133 69.2454 338.45C69.6187 337.767 70.12 337.239 70.7494 336.866C71.3894 336.482 72.0934 336.29 72.8614 336.29C73.5547 336.29 74.1574 336.429 74.6694 336.706C75.192 336.973 75.608 337.309 75.9174 337.714V336.434H77.7574V345.25H75.9174V343.938C75.608 344.354 75.1867 344.701 74.6534 344.978C74.12 345.255 73.512 345.394 72.8294 345.394C72.072 345.394 71.3787 345.202 70.7494 344.818C70.12 344.423 69.6187 343.879 69.2454 343.186C68.8827 342.482 68.7014 341.687 68.7014 340.802ZM75.9174 340.834C75.9174 340.226 75.7894 339.698 75.5334 339.25C75.288 338.802 74.9627 338.461 74.5574 338.226C74.152 337.991 73.7147 337.874 73.2454 337.874C72.776 337.874 72.3387 337.991 71.9334 338.226C71.528 338.45 71.1974 338.786 70.9414 339.234C70.696 339.671 70.5734 340.194 70.5734 340.802C70.5734 341.41 70.696 341.943 70.9414 342.402C71.1974 342.861 71.528 343.213 71.9334 343.458C72.3494 343.693 72.7867 343.81 73.2454 343.81C73.7147 343.81 74.152 343.693 74.5574 343.458C74.9627 343.223 75.288 342.882 75.5334 342.434C75.7894 341.975 75.9174 341.442 75.9174 340.834ZM84.6011 336.29C85.2945 336.29 85.9131 336.434 86.4571 336.722C87.0118 337.01 87.4438 337.437 87.7531 338.002C88.0625 338.567 88.2171 339.25 88.2171 340.05V345.25H86.4091V340.322C86.4091 339.533 86.2118 338.93 85.8171 338.514C85.4225 338.087 84.8838 337.874 84.2011 337.874C83.5185 337.874 82.9745 338.087 82.5691 338.514C82.1745 338.93 81.9771 339.533 81.9771 340.322V345.25H80.1531V336.434H81.9771V337.442C82.2758 337.079 82.6545 336.797 83.1131 336.594C83.5825 336.391 84.0785 336.29 84.6011 336.29ZM89.9358 340.802C89.9358 339.917 90.1171 339.133 90.4798 338.45C90.8531 337.767 91.3544 337.239 91.9838 336.866C92.6238 336.482 93.3278 336.29 94.0958 336.29C94.7891 336.29 95.3918 336.429 95.9038 336.706C96.4264 336.973 96.8424 337.309 97.1518 337.714V336.434H98.9918V345.25H97.1518V343.938C96.8424 344.354 96.4211 344.701 95.8878 344.978C95.3544 345.255 94.7464 345.394 94.0638 345.394C93.3064 345.394 92.6131 345.202 91.9838 344.818C91.3544 344.423 90.8531 343.879 90.4798 343.186C90.1171 342.482 89.9358 341.687 89.9358 340.802ZM97.1518 340.834C97.1518 340.226 97.0238 339.698 96.7678 339.25C96.5224 338.802 96.1971 338.461 95.7918 338.226C95.3864 337.991 94.9491 337.874 94.4798 337.874C94.0104 337.874 93.5731 337.991 93.1678 338.226C92.7624 338.45 92.4318 338.786 92.1758 339.234C91.9304 339.671 91.8078 340.194 91.8078 340.802C91.8078 341.41 91.9304 341.943 92.1758 342.402C92.4318 342.861 92.7624 343.213 93.1678 343.458C93.5838 343.693 94.0211 343.81 94.4798 343.81C94.9491 343.81 95.3864 343.693 95.7918 343.458C96.1971 343.223 96.5224 342.882 96.7678 342.434C97.0238 341.975 97.1518 341.442 97.1518 340.834ZM104.94 336.29C105.622 336.29 106.225 336.429 106.748 336.706C107.281 336.973 107.697 337.309 107.996 337.714V336.434H109.836V345.394C109.836 346.205 109.665 346.925 109.324 347.554C108.982 348.194 108.486 348.695 107.836 349.058C107.196 349.421 106.428 349.602 105.532 349.602C104.337 349.602 103.345 349.319 102.556 348.754C101.766 348.199 101.318 347.442 101.212 346.482H103.02C103.158 346.941 103.452 347.309 103.9 347.586C104.358 347.874 104.902 348.018 105.532 348.018C106.268 348.018 106.86 347.794 107.308 347.346C107.766 346.898 107.996 346.247 107.996 345.394V343.922C107.686 344.338 107.265 344.69 106.732 344.978C106.209 345.255 105.612 345.394 104.94 345.394C104.172 345.394 103.468 345.202 102.828 344.818C102.198 344.423 101.697 343.879 101.324 343.186C100.961 342.482 100.78 341.687 100.78 340.802C100.78 339.917 100.961 339.133 101.324 338.45C101.697 337.767 102.198 337.239 102.828 336.866C103.468 336.482 104.172 336.29 104.94 336.29ZM107.996 340.834C107.996 340.226 107.868 339.698 107.612 339.25C107.366 338.802 107.041 338.461 106.636 338.226C106.23 337.991 105.793 337.874 105.324 337.874C104.854 337.874 104.417 337.991 104.012 338.226C103.606 338.45 103.276 338.786 103.02 339.234C102.774 339.671 102.652 340.194 102.652 340.802C102.652 341.41 102.774 341.943 103.02 342.402C103.276 342.861 103.606 343.213 104.012 343.458C104.428 343.693 104.865 343.81 105.324 343.81C105.793 343.81 106.23 343.693 106.636 343.458C107.041 343.223 107.366 342.882 107.612 342.434C107.868 341.975 107.996 341.442 107.996 340.834ZM120.311 340.626C120.311 340.957 120.29 341.255 120.247 341.522H113.511C113.565 342.226 113.826 342.791 114.295 343.218C114.765 343.645 115.341 343.858 116.023 343.858C117.005 343.858 117.698 343.447 118.103 342.626H120.071C119.805 343.437 119.319 344.103 118.615 344.626C117.922 345.138 117.058 345.394 116.023 345.394C115.181 345.394 114.423 345.207 113.751 344.834C113.09 344.45 112.567 343.917 112.183 343.234C111.81 342.541 111.623 341.741 111.623 340.834C111.623 339.927 111.805 339.133 112.167 338.45C112.541 337.757 113.058 337.223 113.719 336.85C114.391 336.477 115.159 336.29 116.023 336.29C116.855 336.29 117.597 336.471 118.247 336.834C118.898 337.197 119.405 337.709 119.767 338.37C120.13 339.021 120.311 339.773 120.311 340.626ZM118.407 340.05C118.397 339.378 118.157 338.839 117.687 338.434C117.218 338.029 116.637 337.826 115.943 337.826C115.314 337.826 114.775 338.029 114.327 338.434C113.879 338.829 113.613 339.367 113.527 340.05H118.407ZM132.778 336.29C133.472 336.29 134.09 336.434 134.634 336.722C135.189 337.01 135.621 337.437 135.93 338.002C136.25 338.567 136.41 339.25 136.41 340.05V345.25H134.602V340.322C134.602 339.533 134.405 338.93 134.01 338.514C133.616 338.087 133.077 337.874 132.394 337.874C131.712 337.874 131.168 338.087 130.762 338.514C130.368 338.93 130.17 339.533 130.17 340.322V345.25H128.362V340.322C128.362 339.533 128.165 338.93 127.77 338.514C127.376 338.087 126.837 337.874 126.154 337.874C125.472 337.874 124.928 338.087 124.522 338.514C124.128 338.93 123.93 339.533 123.93 340.322V345.25H122.106V336.434H123.93V337.442C124.229 337.079 124.608 336.797 125.066 336.594C125.525 336.391 126.016 336.29 126.538 336.29C127.242 336.29 127.872 336.439 128.426 336.738C128.981 337.037 129.408 337.469 129.706 338.034C129.973 337.501 130.389 337.079 130.954 336.77C131.52 336.45 132.128 336.29 132.778 336.29ZM146.811 340.626C146.811 340.957 146.79 341.255 146.747 341.522H140.011C140.065 342.226 140.326 342.791 140.795 343.218C141.265 343.645 141.841 343.858 142.523 343.858C143.505 343.858 144.198 343.447 144.603 342.626H146.571C146.305 343.437 145.819 344.103 145.115 344.626C144.422 345.138 143.558 345.394 142.523 345.394C141.681 345.394 140.923 345.207 140.251 344.834C139.59 344.45 139.067 343.917 138.683 343.234C138.31 342.541 138.123 341.741 138.123 340.834C138.123 339.927 138.305 339.133 138.667 338.45C139.041 337.757 139.558 337.223 140.219 336.85C140.891 336.477 141.659 336.29 142.523 336.29C143.355 336.29 144.097 336.471 144.747 336.834C145.398 337.197 145.905 337.709 146.267 338.37C146.63 339.021 146.811 339.773 146.811 340.626ZM144.907 340.05C144.897 339.378 144.657 338.839 144.187 338.434C143.718 338.029 143.137 337.826 142.443 337.826C141.814 337.826 141.275 338.029 140.827 338.434C140.379 338.829 140.113 339.367 140.027 340.05H144.907ZM153.054 336.29C153.748 336.29 154.366 336.434 154.91 336.722C155.465 337.01 155.897 337.437 156.206 338.002C156.516 338.567 156.67 339.25 156.67 340.05V345.25H154.862V340.322C154.862 339.533 154.665 338.93 154.27 338.514C153.876 338.087 153.337 337.874 152.654 337.874C151.972 337.874 151.428 338.087 151.022 338.514C150.628 338.93 150.43 339.533 150.43 340.322V345.25H148.606V336.434H150.43V337.442C150.729 337.079 151.108 336.797 151.566 336.594C152.036 336.391 152.532 336.29 153.054 336.29ZM161.125 337.922V342.802C161.125 343.133 161.2 343.373 161.349 343.522C161.509 343.661 161.776 343.73 162.149 343.73H163.269V345.25H161.829C161.008 345.25 160.378 345.058 159.941 344.674C159.504 344.29 159.285 343.666 159.285 342.802V337.922H158.245V336.434H159.285V334.242H161.125V336.434H163.269V337.922H161.125Z" fill="#ABAECD"/>
<path d="M233.678 324.193L283.973 347.951L233.425 376.763L182.878 347.951L233.678 324.193Z" fill="#BABABC"/>
<path d="M233.426 376.763L283.973 347.951V361.093L233.426 389.905V376.763Z" fill="#E8E9ED"/>
<path d="M236.964 380.137L261.227 365.983V368.675L236.964 382.828V380.137Z" fill="url(#paint5_linear_7111_9530)"/>
<path d="M233.426 376.763L182.878 347.951V361.093L233.426 389.905V376.763Z" fill="#F0F2F5"/>
<ellipse cx="277.898" cy="357.246" rx="1.26369" ry="1.51643" transform="rotate(10 277.898 357.246)" fill="url(#paint6_linear_7111_9530)"/>
<ellipse cx="274.362" cy="359.268" rx="1.26369" ry="1.51643" transform="rotate(10 274.362 359.268)" fill="url(#paint7_linear_7111_9530)"/>
<ellipse cx="270.823" cy="361.29" rx="1.26369" ry="1.51643" transform="rotate(10 270.823 361.29)" fill="url(#paint8_linear_7111_9530)"/>
<ellipse cx="267.285" cy="363.311" rx="1.26369" ry="1.51643" transform="rotate(10 267.285 363.311)" fill="url(#paint9_linear_7111_9530)"/>
<path d="M235.701 303.469L285.996 327.227L235.448 356.039L184.9 327.227L235.701 303.469Z" fill="#BABABC"/>
<path d="M235.448 356.039L285.996 327.227V340.369L235.448 369.181V356.039Z" fill="#E8E9ED"/>
<path d="M238.986 359.412L263.249 345.259V347.951L238.986 362.104V359.412Z" fill="url(#paint10_linear_7111_9530)"/>
<path d="M235.448 356.039L184.9 327.227V340.369L235.448 369.181V356.039Z" fill="#F0F2F5"/>
<ellipse cx="279.92" cy="336.521" rx="1.26369" ry="1.51643" transform="rotate(10 279.92 336.521)" fill="url(#paint11_linear_7111_9530)"/>
<ellipse cx="276.384" cy="338.543" rx="1.26369" ry="1.51643" transform="rotate(10 276.384 338.543)" fill="url(#paint12_linear_7111_9530)"/>
<ellipse cx="272.845" cy="340.565" rx="1.26369" ry="1.51643" transform="rotate(10 272.845 340.565)" fill="url(#paint13_linear_7111_9530)"/>
<ellipse cx="269.307" cy="342.587" rx="1.26369" ry="1.51643" transform="rotate(10 269.307 342.587)" fill="url(#paint14_linear_7111_9530)"/>
<path d="M235.701 283.25L285.996 307.007L235.448 335.82L184.9 307.007L235.701 283.25Z" fill="#BABABC"/>
<path d="M235.448 335.82L285.996 307.007V320.15L235.448 348.962V335.82Z" fill="#E8E9ED"/>
<path d="M238.986 339.193L263.249 325.04V327.732L238.986 341.885V339.193Z" fill="url(#paint15_linear_7111_9530)"/>
<path d="M235.448 335.82L184.9 307.007V320.15L235.448 348.962V335.82Z" fill="#F0F2F5"/>
<ellipse cx="279.92" cy="316.303" rx="1.26369" ry="1.51643" transform="rotate(10 279.92 316.303)" fill="url(#paint16_linear_7111_9530)"/>
<ellipse cx="276.384" cy="318.325" rx="1.26369" ry="1.51643" transform="rotate(10 276.384 318.325)" fill="url(#paint17_linear_7111_9530)"/>
<ellipse cx="272.845" cy="320.347" rx="1.26369" ry="1.51643" transform="rotate(10 272.845 320.347)" fill="url(#paint18_linear_7111_9530)"/>
<ellipse cx="269.307" cy="322.368" rx="1.26369" ry="1.51643" transform="rotate(10 269.307 322.368)" fill="url(#paint19_linear_7111_9530)"/>
<g filter="url(#filter1_d_7111_9530)">
<path d="M212.4 373.24C204.223 381.416 190.967 381.416 182.791 373.24C174.614 365.064 174.614 351.807 182.791 343.631C190.967 335.455 204.223 335.455 212.4 343.631C220.576 351.807 220.576 365.064 212.4 373.24Z" fill="url(#paint20_linear_7111_9530)"/>
<path fill-rule="evenodd" clip-rule="evenodd" d="M183.188 372.843C191.145 380.799 204.045 380.799 212.002 372.843C219.959 364.886 219.959 351.985 212.002 344.029C204.045 336.072 191.145 336.072 183.188 344.029C175.231 351.985 175.231 364.886 183.188 372.843ZM182.791 373.24C190.967 381.416 204.223 381.416 212.4 373.24C220.576 365.064 220.576 351.807 212.4 343.631C204.223 335.455 190.967 335.455 182.791 343.631C174.614 351.807 174.614 365.064 182.791 373.24Z" fill="url(#paint21_linear_7111_9530)"/>
<path fill-rule="evenodd" clip-rule="evenodd" d="M184.773 371.258C191.855 378.339 203.336 378.339 210.417 371.258C217.499 364.176 217.499 352.695 210.417 345.614C203.336 338.532 191.855 338.532 184.773 345.614C177.692 352.695 177.692 364.176 184.773 371.258ZM181.002 375.029C190.166 384.193 205.024 384.193 214.188 375.029C223.352 365.865 223.352 351.007 214.188 341.843C205.024 332.679 190.166 332.679 181.002 341.843C171.838 351.007 171.838 365.865 181.002 375.029Z" fill="#E8E9ED"/>
<path fill-rule="evenodd" clip-rule="evenodd" d="M150.721 400.587L179.634 371.673L184.159 376.198L155.246 405.112L150.721 400.587Z" fill="#E8E9ED"/>
<path d="M170.173 376.916C171.49 375.599 173.626 375.599 174.943 376.916L179.116 381.089C180.433 382.406 180.433 384.542 179.116 385.859L158.449 406.525C157.132 407.842 154.997 407.842 153.68 406.525L149.507 402.352C148.19 401.035 148.19 398.9 149.507 397.583L170.173 376.916Z" fill="#E8E9ED"/>
<path fill-rule="evenodd" clip-rule="evenodd" d="M178.917 381.288L174.744 377.115C173.537 375.908 171.579 375.908 170.372 377.115L149.706 397.782C148.498 398.989 148.498 400.946 149.706 402.153L153.879 406.327C155.086 407.534 157.043 407.534 158.25 406.327L178.917 385.66C180.124 384.453 180.124 382.495 178.917 381.288ZM174.943 376.916C173.626 375.599 171.49 375.599 170.173 376.916L149.507 397.583C148.19 398.9 148.19 401.035 149.507 402.352L153.68 406.525C154.997 407.842 157.132 407.842 158.449 406.525L179.116 385.859C180.433 384.542 180.433 382.406 179.116 381.089L174.943 376.916Z" fill="#E8E9ED"/>
<path d="M168.376 378.712L177.319 387.655L160.375 404.599L151.433 395.656L168.376 378.712Z" fill="#64B867"/>
</g>
</g>
<defs>
<filter id="filter0_d_7111_9530" x="-96" y="10.2241" width="360" height="268" filterUnits="userSpaceOnUse" color-interpolation-filters="sRGB">
<feFlood flood-opacity="0" result="BackgroundImageFix"/>
<feColorMatrix in="SourceAlpha" type="matrix" values="0 0 0 0 0 0 0 0 0 0 0 0 0 0 0 0 0 0 127 0" result="hardAlpha"/>
<feOffset dx="4" dy="4"/>
<feGaussianBlur stdDeviation="50"/>
<feComposite in2="hardAlpha" operator="out"/>
<feColorMatrix type="matrix" values="0 0 0 0 0.423529 0 0 0 0 0.482353 0 0 0 0 0.666667 0 0 0 0.12 0"/>
<feBlend mode="normal" in2="BackgroundImageFix" result="effect1_dropShadow_7111_9530"/>
<feBlend mode="normal" in="SourceGraphic" in2="effect1_dropShadow_7111_9530" result="shape"/>
</filter>
<filter id="filter1_d_7111_9530" x="96.4303" y="282.881" width="185.778" height="185.78" filterUnits="userSpaceOnUse" color-interpolation-filters="sRGB">
<feFlood flood-opacity="0" result="BackgroundImageFix"/>
<feColorMatrix in="SourceAlpha" type="matrix" values="0 0 0 0 0 0 0 0 0 0 0 0 0 0 0 0 0 0 127 0" result="hardAlpha"/>
<feOffset dx="4.52946" dy="4.52946"/>
<feGaussianBlur stdDeviation="28.3091"/>
<feComposite in2="hardAlpha" operator="out"/>
<feColorMatrix type="matrix" values="0 0 0 0 0.423529 0 0 0 0 0.482353 0 0 0 0 0.666667 0 0 0 0.12 0"/>
<feBlend mode="normal" in2="BackgroundImageFix" result="effect1_dropShadow_7111_9530"/>
<feBlend mode="normal" in="SourceGraphic" in2="effect1_dropShadow_7111_9530" result="shape"/>
</filter>
<linearGradient id="paint0_linear_7111_9530" x1="166.5" y1="-0.0517328" x2="285.955" y2="233.277" gradientUnits="userSpaceOnUse">
<stop stop-color="white" stop-opacity="0"/>
<stop offset="1" stop-color="white"/>
</linearGradient>
<linearGradient id="paint1_linear_7111_9530" x1="159" y1="6.94824" x2="160.407" y2="135.959" gradientUnits="userSpaceOnUse">
<stop stop-color="white" stop-opacity="0"/>
<stop offset="1" stop-color="white"/>
</linearGradient>
<linearGradient id="paint2_linear_7111_9530" x1="160" y1="265.25" x2="158.634" y2="140.041" gradientUnits="userSpaceOnUse">
<stop stop-color="white" stop-opacity="0"/>
<stop offset="0.588542" stop-color="white"/>
</linearGradient>
<linearGradient id="paint3_linear_7111_9530" x1="41" y1="171.75" x2="39.9913" y2="264.239" gradientUnits="userSpaceOnUse">
<stop stop-color="white"/>
<stop offset="1" stop-color="white" stop-opacity="0"/>
</linearGradient>
<linearGradient id="paint4_linear_7111_9530" x1="80" y1="106.224" x2="80" y2="174.224" gradientUnits="userSpaceOnUse">
<stop stop-color="#EDA13D"/>
<stop offset="1" stop-color="#EDA13D" stop-opacity="0"/>
</linearGradient>
<linearGradient id="paint5_linear_7111_9530" x1="249.095" y1="365.983" x2="249.095" y2="382.828" gradientUnits="userSpaceOnUse">
<stop stop-color="#63B866"/>
<stop offset="1" stop-color="#63B866" stop-opacity="0.86"/>
</linearGradient>
<linearGradient id="paint6_linear_7111_9530" x1="277.898" y1="355.73" x2="277.898" y2="358.762" gradientUnits="userSpaceOnUse">
<stop stop-color="#63B866"/>
<stop offset="1" stop-color="#63B866" stop-opacity="0.86"/>
</linearGradient>
<linearGradient id="paint7_linear_7111_9530" x1="274.362" y1="357.752" x2="274.362" y2="360.784" gradientUnits="userSpaceOnUse">
<stop stop-color="#63B866"/>
<stop offset="1" stop-color="#63B866" stop-opacity="0.86"/>
</linearGradient>
<linearGradient id="paint8_linear_7111_9530" x1="270.823" y1="359.774" x2="270.823" y2="362.806" gradientUnits="userSpaceOnUse">
<stop stop-color="#63B866"/>
<stop offset="1" stop-color="#63B866" stop-opacity="0.86"/>
</linearGradient>
<linearGradient id="paint9_linear_7111_9530" x1="267.285" y1="361.795" x2="267.285" y2="364.828" gradientUnits="userSpaceOnUse">
<stop stop-color="#63B866"/>
<stop offset="1" stop-color="#63B866" stop-opacity="0.86"/>
</linearGradient>
<linearGradient id="paint10_linear_7111_9530" x1="251.118" y1="345.259" x2="251.118" y2="362.104" gradientUnits="userSpaceOnUse">
<stop stop-color="#63B866"/>
<stop offset="1" stop-color="#63B866" stop-opacity="0.86"/>
</linearGradient>
<linearGradient id="paint11_linear_7111_9530" x1="279.92" y1="335.005" x2="279.92" y2="338.038" gradientUnits="userSpaceOnUse">
<stop stop-color="#63B866"/>
<stop offset="1" stop-color="#63B866" stop-opacity="0.86"/>
</linearGradient>
<linearGradient id="paint12_linear_7111_9530" x1="276.384" y1="337.027" x2="276.384" y2="340.06" gradientUnits="userSpaceOnUse">
<stop stop-color="#63B866"/>
<stop offset="1" stop-color="#63B866" stop-opacity="0.86"/>
</linearGradient>
<linearGradient id="paint13_linear_7111_9530" x1="272.845" y1="339.049" x2="272.845" y2="342.082" gradientUnits="userSpaceOnUse">
<stop stop-color="#63B866"/>
<stop offset="1" stop-color="#63B866" stop-opacity="0.86"/>
</linearGradient>
<linearGradient id="paint14_linear_7111_9530" x1="269.307" y1="341.07" x2="269.307" y2="344.103" gradientUnits="userSpaceOnUse">
<stop stop-color="#63B866"/>
<stop offset="1" stop-color="#63B866" stop-opacity="0.86"/>
</linearGradient>
<linearGradient id="paint15_linear_7111_9530" x1="251.118" y1="325.04" x2="251.118" y2="341.885" gradientUnits="userSpaceOnUse">
<stop stop-color="#63B866"/>
<stop offset="1" stop-color="#63B866" stop-opacity="0.86"/>
</linearGradient>
<linearGradient id="paint16_linear_7111_9530" x1="279.92" y1="314.786" x2="279.92" y2="317.819" gradientUnits="userSpaceOnUse">
<stop stop-color="#63B866"/>
<stop offset="1" stop-color="#63B866" stop-opacity="0.86"/>
</linearGradient>
<linearGradient id="paint17_linear_7111_9530" x1="276.384" y1="316.808" x2="276.384" y2="319.841" gradientUnits="userSpaceOnUse">
<stop stop-color="#63B866"/>
<stop offset="1" stop-color="#63B866" stop-opacity="0.86"/>
</linearGradient>
<linearGradient id="paint18_linear_7111_9530" x1="272.845" y1="318.83" x2="272.845" y2="321.863" gradientUnits="userSpaceOnUse">
<stop stop-color="#63B866"/>
<stop offset="1" stop-color="#63B866" stop-opacity="0.86"/>
</linearGradient>
<linearGradient id="paint19_linear_7111_9530" x1="269.307" y1="320.852" x2="269.307" y2="323.885" gradientUnits="userSpaceOnUse">
<stop stop-color="#63B866"/>
<stop offset="1" stop-color="#63B866" stop-opacity="0.86"/>
</linearGradient>
<linearGradient id="paint20_linear_7111_9530" x1="171.961" y1="354.461" x2="221.143" y2="352.375" gradientUnits="userSpaceOnUse">
<stop offset="0.34375" stop-color="white"/>
<stop offset="1" stop-color="white" stop-opacity="0.87"/>
</linearGradient>
<linearGradient id="paint21_linear_7111_9530" x1="218.56" y1="357.939" x2="171.762" y2="359.23" gradientUnits="userSpaceOnUse">
<stop stop-color="white" stop-opacity="0"/>
<stop offset="0.943372" stop-color="white"/>
</linearGradient>
<clipPath id="clip0_7111_9530">
<rect width="326" height="421.031" fill="white"/>
</clipPath>
</defs>
</svg>
