<svg width="445" height="422" viewBox="0 0 445 422" fill="none" xmlns="http://www.w3.org/2000/svg">
<g clip-path="url(#clip0_3534_41690)">
<g clip-path="url(#clip1_3534_41690)">
<path d="M143.082 142.68V125.409C143.082 118.446 125.595 112.767 104.041 112.767C82.4871 112.767 65 118.446 65 125.409V142.68C65 149.643 82.4871 155.322 104.041 155.322C125.595 155.322 143.082 149.643 143.082 142.68Z" fill="#E6E6E9"/>
<ellipse cx="104.041" cy="123.699" rx="39.0411" ry="10.9315" fill="#C0C0C7"/>
<path d="M143.082 112.489V101.464C143.082 94.5012 125.595 88.8223 104.041 88.8223C82.4871 88.8223 65 94.5012 65 101.464V112.489C65 119.452 82.4871 125.13 104.041 125.13C125.595 125.13 143.082 119.452 143.082 112.489Z" fill="#E6E6E9"/>
<ellipse cx="104.041" cy="99.7538" rx="39.0411" ry="10.9315" fill="#C0C0C7"/>
<path d="M143.082 88.543V80.6419C143.082 73.6789 125.595 68 104.041 68C82.4871 68 65 73.6789 65 80.6419V88.543C65 95.506 82.4871 101.185 104.041 101.185C125.595 101.185 143.082 95.506 143.082 88.543Z" fill="#E6E6E9"/>
<ellipse cx="104.041" cy="78.9315" rx="39.0411" ry="10.9315" fill="#C0C0C7"/>
</g>
<path d="M157.584 136.973H138.993C136.939 136.973 135.274 138.638 135.274 140.691V159.282C135.274 161.335 136.939 163 138.993 163H157.584C159.637 163 161.302 161.335 161.302 159.282V140.691C161.302 138.638 159.634 136.973 157.584 136.973ZM155.26 153.24C155.26 154.268 154.428 155.099 153.401 155.099C152.373 155.099 151.542 154.268 151.542 153.24V149.365L144.489 156.418C144.128 156.778 143.652 156.958 143.176 156.958C142.699 156.958 142.224 156.776 141.861 156.413C141.135 155.687 141.135 154.511 141.861 153.784L148.916 146.733H145.035C144.007 146.733 143.176 145.902 143.176 144.874C143.176 143.846 144.007 143.015 145.035 143.015H153.401C154.428 143.015 155.26 143.846 155.26 144.874V153.24Z" fill="#ABAECD"/>
<path d="M73.1468 8.216C73.2108 7.224 73.5894 6.45067 74.2828 5.896C74.9868 5.34133 75.8828 5.064 76.9708 5.064C77.7174 5.064 78.3628 5.19733 78.9068 5.464C79.4508 5.73067 79.8614 6.09333 80.1388 6.552C80.4161 7.01067 80.5548 7.528 80.5548 8.104C80.5548 8.76533 80.3788 9.33067 80.0268 9.8C79.6748 10.2693 79.2534 10.584 78.7628 10.744V10.808C79.3921 11 79.8828 11.352 80.2348 11.864C80.5868 12.3653 80.7628 13.0107 80.7628 13.8C80.7628 14.4293 80.6188 14.9893 80.3308 15.48C80.0428 15.9707 79.6161 16.36 79.0508 16.648C78.4854 16.9253 77.8081 17.064 77.0188 17.064C75.8668 17.064 74.9174 16.7707 74.1708 16.184C73.4348 15.5867 73.0401 14.7333 72.9868 13.624H74.7468C74.7894 14.1893 75.0081 14.6533 75.4028 15.016C75.7974 15.368 76.3308 15.544 77.0028 15.544C77.6534 15.544 78.1548 15.368 78.5068 15.016C78.8588 14.6533 79.0348 14.1893 79.0348 13.624C79.0348 12.8773 78.7948 12.3493 78.3148 12.04C77.8454 11.72 77.1201 11.56 76.1388 11.56H75.7228V10.056H76.1548C77.0188 10.0453 77.6748 9.90133 78.1228 9.624C78.5814 9.34667 78.8108 8.90933 78.8108 8.312C78.8108 7.8 78.6454 7.39467 78.3148 7.096C77.9841 6.78667 77.5148 6.632 76.9068 6.632C76.3094 6.632 75.8454 6.78667 75.5148 7.096C75.1841 7.39467 74.9868 7.768 74.9228 8.216H73.1468ZM84.7428 9.464C85.0094 9.016 85.3614 8.66933 85.7988 8.424C86.2468 8.168 86.7748 8.04 87.3828 8.04V9.928H86.9188C86.2041 9.928 85.6601 10.1093 85.2868 10.472C84.9241 10.8347 84.7428 11.464 84.7428 12.36V17H82.9188V8.184H84.7428V9.464ZM88.4514 12.552C88.4514 11.6667 88.6327 10.8827 88.9954 10.2C89.3687 9.51733 89.87 8.98933 90.4994 8.616C91.1394 8.232 91.8487 8.04 92.6274 8.04C93.2034 8.04 93.7687 8.168 94.3234 8.424C94.8887 8.66933 95.3367 9 95.6674 9.416V5.16H97.5074V17H95.6674V15.672C95.3687 16.0987 94.9527 16.4507 94.4194 16.728C93.8967 17.0053 93.294 17.144 92.6114 17.144C91.8434 17.144 91.1394 16.952 90.4994 16.568C89.87 16.1733 89.3687 15.6293 88.9954 14.936C88.6327 14.232 88.4514 13.4373 88.4514 12.552ZM95.6674 12.584C95.6674 11.976 95.5394 11.448 95.2834 11C95.038 10.552 94.7127 10.2107 94.3074 9.976C93.902 9.74133 93.4647 9.624 92.9954 9.624C92.526 9.624 92.0887 9.74133 91.6834 9.976C91.278 10.2 90.9474 10.536 90.6914 10.984C90.446 11.4213 90.3234 11.944 90.3234 12.552C90.3234 13.16 90.446 13.6933 90.6914 14.152C90.9474 14.6107 91.278 14.9627 91.6834 15.208C92.0994 15.4427 92.5367 15.56 92.9954 15.56C93.4647 15.56 93.902 15.4427 94.3074 15.208C94.7127 14.9733 95.038 14.632 95.2834 14.184C95.5394 13.7253 95.6674 13.192 95.6674 12.584ZM111.835 9.192C111.835 9.75733 111.702 10.2907 111.435 10.792C111.169 11.2933 110.742 11.704 110.155 12.024C109.569 12.3333 108.817 12.488 107.899 12.488H105.883V17H104.059V5.88H107.899C108.753 5.88 109.473 6.02933 110.059 6.328C110.657 6.616 111.099 7.01067 111.387 7.512C111.686 8.01333 111.835 8.57333 111.835 9.192ZM107.899 11C108.593 11 109.11 10.8453 109.451 10.536C109.793 10.216 109.963 9.768 109.963 9.192C109.963 7.976 109.275 7.368 107.899 7.368H105.883V11H107.899ZM112.967 12.552C112.967 11.6667 113.148 10.8827 113.511 10.2C113.884 9.51733 114.386 8.98933 115.015 8.616C115.655 8.232 116.359 8.04 117.127 8.04C117.82 8.04 118.423 8.17867 118.935 8.456C119.458 8.72267 119.874 9.05867 120.183 9.464V8.184H122.023V17H120.183V15.688C119.874 16.104 119.452 16.4507 118.919 16.728C118.386 17.0053 117.778 17.144 117.095 17.144C116.338 17.144 115.644 16.952 115.015 16.568C114.386 16.1733 113.884 15.6293 113.511 14.936C113.148 14.232 112.967 13.4373 112.967 12.552ZM120.183 12.584C120.183 11.976 120.055 11.448 119.799 11C119.554 10.552 119.228 10.2107 118.823 9.976C118.418 9.74133 117.98 9.624 117.511 9.624C117.042 9.624 116.604 9.74133 116.199 9.976C115.794 10.2 115.463 10.536 115.207 10.984C114.962 11.4213 114.839 11.944 114.839 12.552C114.839 13.16 114.962 13.6933 115.207 14.152C115.463 14.6107 115.794 14.9627 116.199 15.208C116.615 15.4427 117.052 15.56 117.511 15.56C117.98 15.56 118.418 15.4427 118.823 15.208C119.228 14.9733 119.554 14.632 119.799 14.184C120.055 13.7253 120.183 13.192 120.183 12.584ZM126.243 9.464C126.509 9.016 126.861 8.66933 127.299 8.424C127.747 8.168 128.275 8.04 128.883 8.04V9.928H128.419C127.704 9.928 127.16 10.1093 126.787 10.472C126.424 10.8347 126.243 11.464 126.243 12.36V17H124.419V8.184H126.243V9.464ZM132.687 9.672V14.552C132.687 14.8827 132.762 15.1227 132.911 15.272C133.071 15.4107 133.338 15.48 133.711 15.48H134.831V17H133.391C132.57 17 131.941 16.808 131.503 16.424C131.066 16.04 130.847 15.416 130.847 14.552V9.672H129.807V8.184H130.847V5.992H132.687V8.184H134.831V9.672H132.687ZM144.449 8.184L139.041 21.144H137.153L138.945 16.856L135.473 8.184H137.505L139.985 14.904L142.561 8.184H144.449ZM65.864 39.112C65.1173 39.112 64.4453 38.984 63.848 38.728C63.2507 38.4613 62.7813 38.088 62.44 37.608C62.0987 37.128 61.928 36.568 61.928 35.928H63.88C63.9227 36.408 64.1093 36.8027 64.44 37.112C64.7813 37.4213 65.256 37.576 65.864 37.576C66.4933 37.576 66.984 37.4267 67.336 37.128C67.688 36.8187 67.864 36.424 67.864 35.944C67.864 35.5707 67.752 35.2667 67.528 35.032C67.3147 34.7973 67.0427 34.616 66.712 34.488C66.392 34.36 65.944 34.2213 65.368 34.072C64.6427 33.88 64.0507 33.688 63.592 33.496C63.144 33.2933 62.76 32.984 62.44 32.568C62.12 32.152 61.96 31.5973 61.96 30.904C61.96 30.264 62.12 29.704 62.44 29.224C62.76 28.744 63.208 28.376 63.784 28.12C64.36 27.864 65.0267 27.736 65.784 27.736C66.8613 27.736 67.7413 28.008 68.424 28.552C69.1173 29.0853 69.5013 29.8213 69.576 30.76H67.56C67.528 30.3547 67.336 30.008 66.984 29.72C66.632 29.432 66.168 29.288 65.592 29.288C65.0693 29.288 64.6427 29.4213 64.312 29.688C63.9813 29.9547 63.816 30.3387 63.816 30.84C63.816 31.1813 63.9173 31.464 64.12 31.688C64.3333 31.9013 64.6 32.072 64.92 32.2C65.24 32.328 65.6773 32.4667 66.232 32.616C66.968 32.8187 67.5653 33.0213 68.024 33.224C68.4933 33.4267 68.888 33.7413 69.208 34.168C69.5387 34.584 69.704 35.144 69.704 35.848C69.704 36.4133 69.5493 36.9467 69.24 37.448C68.9413 37.9493 68.4987 38.3547 67.912 38.664C67.336 38.9627 66.6533 39.112 65.864 39.112ZM75.6803 39.144C74.8483 39.144 74.0963 38.9573 73.4243 38.584C72.7523 38.2 72.2243 37.6667 71.8403 36.984C71.4563 36.2907 71.2643 35.4907 71.2643 34.584C71.2643 33.688 71.4616 32.8933 71.8563 32.2C72.2509 31.5067 72.7896 30.9733 73.4723 30.6C74.1549 30.2267 74.9176 30.04 75.7603 30.04C76.6029 30.04 77.3656 30.2267 78.0483 30.6C78.7309 30.9733 79.2696 31.5067 79.6643 32.2C80.0589 32.8933 80.2563 33.688 80.2563 34.584C80.2563 35.48 80.0536 36.2747 79.6483 36.968C79.2429 37.6613 78.6883 38.2 77.9843 38.584C77.2909 38.9573 76.5229 39.144 75.6803 39.144ZM75.6803 37.56C76.1496 37.56 76.5869 37.448 76.9923 37.224C77.4083 37 77.7443 36.664 78.0003 36.216C78.2563 35.768 78.3843 35.224 78.3843 34.584C78.3843 33.944 78.2616 33.4053 78.0163 32.968C77.7709 32.52 77.4456 32.184 77.0403 31.96C76.6349 31.736 76.1976 31.624 75.7283 31.624C75.2589 31.624 74.8216 31.736 74.4163 31.96C74.0216 32.184 73.7069 32.52 73.4723 32.968C73.2376 33.4053 73.1203 33.944 73.1203 34.584C73.1203 35.5333 73.3603 36.2693 73.8403 36.792C74.3309 37.304 74.9443 37.56 75.6803 37.56ZM90.0434 30.184V39H88.2194V37.96C87.9314 38.3227 87.5527 38.6107 87.0834 38.824C86.6247 39.0267 86.134 39.128 85.6114 39.128C84.918 39.128 84.294 38.984 83.7394 38.696C83.1954 38.408 82.7634 37.9813 82.4434 37.416C82.134 36.8507 81.9794 36.168 81.9794 35.368V30.184H83.7874V35.096C83.7874 35.8853 83.9847 36.4933 84.3794 36.92C84.774 37.336 85.3127 37.544 85.9954 37.544C86.678 37.544 87.2167 37.336 87.6114 36.92C88.0167 36.4933 88.2194 35.8853 88.2194 35.096V30.184H90.0434ZM94.274 31.464C94.5407 31.016 94.8927 30.6693 95.33 30.424C95.778 30.168 96.306 30.04 96.914 30.04V31.928H96.45C95.7353 31.928 95.1913 32.1093 94.818 32.472C94.4553 32.8347 94.274 33.464 94.274 34.36V39H92.45V30.184H94.274V31.464ZM97.9826 34.584C97.9826 33.6773 98.164 32.8827 98.5266 32.2C98.9 31.5067 99.412 30.9733 100.063 30.6C100.713 30.2267 101.46 30.04 102.303 30.04C103.369 30.04 104.249 30.296 104.943 30.808C105.647 31.3093 106.121 32.0293 106.367 32.968H104.399C104.239 32.5307 103.983 32.1893 103.631 31.944C103.279 31.6987 102.836 31.576 102.303 31.576C101.556 31.576 100.959 31.8427 100.511 32.376C100.073 32.8987 99.8546 33.6347 99.8546 34.584C99.8546 35.5333 100.073 36.2747 100.511 36.808C100.959 37.3413 101.556 37.608 102.303 37.608C103.359 37.608 104.057 37.144 104.399 36.216H106.367C106.111 37.112 105.631 37.8267 104.927 38.36C104.223 38.8827 103.348 39.144 102.303 39.144C101.46 39.144 100.713 38.9573 100.063 38.584C99.412 38.2 98.9 37.6667 98.5266 36.984C98.164 36.2907 97.9826 35.4907 97.9826 34.584ZM116.264 34.376C116.264 34.7067 116.243 35.0053 116.2 35.272H109.464C109.518 35.976 109.779 36.5413 110.248 36.968C110.718 37.3947 111.294 37.608 111.976 37.608C112.958 37.608 113.651 37.1973 114.056 36.376H116.024C115.758 37.1867 115.272 37.8533 114.568 38.376C113.875 38.888 113.011 39.144 111.976 39.144C111.134 39.144 110.376 38.9573 109.704 38.584C109.043 38.2 108.52 37.6667 108.136 36.984C107.763 36.2907 107.576 35.4907 107.576 34.584C107.576 33.6773 107.758 32.8827 108.12 32.2C108.494 31.5067 109.011 30.9733 109.672 30.6C110.344 30.2267 111.112 30.04 111.976 30.04C112.808 30.04 113.55 30.2213 114.2 30.584C114.851 30.9467 115.358 31.4587 115.72 32.12C116.083 32.7707 116.264 33.5227 116.264 34.376ZM114.36 33.8C114.35 33.128 114.11 32.5893 113.64 32.184C113.171 31.7787 112.59 31.576 111.896 31.576C111.267 31.576 110.728 31.7787 110.28 32.184C109.832 32.5787 109.566 33.1173 109.48 33.8H114.36ZM125.848 27.88C127.032 27.88 128.066 28.1093 128.952 28.568C129.848 29.016 130.536 29.6667 131.016 30.52C131.506 31.3627 131.752 32.3493 131.752 33.48C131.752 34.6107 131.506 35.592 131.016 36.424C130.536 37.256 129.848 37.896 128.952 38.344C128.066 38.7813 127.032 39 125.848 39H122.216V27.88H125.848ZM125.848 37.512C127.149 37.512 128.146 37.16 128.84 36.456C129.533 35.752 129.88 34.76 129.88 33.48C129.88 32.1893 129.533 31.1813 128.84 30.456C128.146 29.7307 127.149 29.368 125.848 29.368H124.04V37.512H125.848ZM132.951 34.552C132.951 33.6667 133.133 32.8827 133.495 32.2C133.869 31.5173 134.37 30.9893 134.999 30.616C135.639 30.232 136.343 30.04 137.111 30.04C137.805 30.04 138.407 30.1787 138.919 30.456C139.442 30.7227 139.858 31.0587 140.167 31.464V30.184H142.007V39H140.167V37.688C139.858 38.104 139.437 38.4507 138.903 38.728C138.37 39.0053 137.762 39.144 137.079 39.144C136.322 39.144 135.629 38.952 134.999 38.568C134.37 38.1733 133.869 37.6293 133.495 36.936C133.133 36.232 132.951 35.4373 132.951 34.552ZM140.167 34.584C140.167 33.976 140.039 33.448 139.783 33C139.538 32.552 139.213 32.2107 138.807 31.976C138.402 31.7413 137.965 31.624 137.495 31.624C137.026 31.624 136.589 31.7413 136.183 31.976C135.778 32.2 135.447 32.536 135.191 32.984C134.946 33.4213 134.823 33.944 134.823 34.552C134.823 35.16 134.946 35.6933 135.191 36.152C135.447 36.6107 135.778 36.9627 136.183 37.208C136.599 37.4427 137.037 37.56 137.495 37.56C137.965 37.56 138.402 37.4427 138.807 37.208C139.213 36.9733 139.538 36.632 139.783 36.184C140.039 35.7253 140.167 35.192 140.167 34.584ZM146.531 31.672V36.552C146.531 36.8827 146.606 37.1227 146.755 37.272C146.915 37.4107 147.182 37.48 147.555 37.48H148.675V39H147.235C146.414 39 145.784 38.808 145.347 38.424C144.91 38.04 144.691 37.416 144.691 36.552V31.672H143.651V30.184H144.691V27.992H146.531V30.184H148.675V31.672H146.531ZM149.748 34.552C149.748 33.6667 149.93 32.8827 150.292 32.2C150.666 31.5173 151.167 30.9893 151.796 30.616C152.436 30.232 153.14 30.04 153.908 30.04C154.602 30.04 155.204 30.1787 155.716 30.456C156.239 30.7227 156.655 31.0587 156.964 31.464V30.184H158.804V39H156.964V37.688C156.655 38.104 156.234 38.4507 155.7 38.728C155.167 39.0053 154.559 39.144 153.876 39.144C153.119 39.144 152.426 38.952 151.796 38.568C151.167 38.1733 150.666 37.6293 150.292 36.936C149.93 36.232 149.748 35.4373 149.748 34.552ZM156.964 34.584C156.964 33.976 156.836 33.448 156.58 33C156.335 32.552 156.01 32.2107 155.604 31.976C155.199 31.7413 154.762 31.624 154.292 31.624C153.823 31.624 153.386 31.7413 152.98 31.976C152.575 32.2 152.244 32.536 151.988 32.984C151.743 33.4213 151.62 33.944 151.62 34.552C151.62 35.16 151.743 35.6933 151.988 36.152C152.244 36.6107 152.575 36.9627 152.98 37.208C153.396 37.4427 153.834 37.56 154.292 37.56C154.762 37.56 155.199 37.4427 155.604 37.208C156.01 36.9733 156.335 36.632 156.58 36.184C156.836 35.7253 156.964 35.192 156.964 34.584Z" fill="#ABAECD"/>
<g clip-path="url(#clip2_3534_41690)">
<path d="M363.385 142.68V125.409C363.385 118.446 345.898 112.767 324.344 112.767C302.79 112.767 285.303 118.446 285.303 125.409V142.68C285.303 149.643 302.79 155.322 324.344 155.322C345.898 155.322 363.385 149.643 363.385 142.68Z" fill="#E6E6E9"/>
<ellipse cx="324.344" cy="123.699" rx="39.0411" ry="10.9315" fill="#C0C0C7"/>
<path d="M363.385 112.489V101.464C363.385 94.5012 345.898 88.8223 324.344 88.8223C302.79 88.8223 285.303 94.5012 285.303 101.464V112.489C285.303 119.452 302.79 125.13 324.344 125.13C345.898 125.13 363.385 119.452 363.385 112.489Z" fill="#E6E6E9"/>
<ellipse cx="324.344" cy="99.7538" rx="39.0411" ry="10.9315" fill="#C0C0C7"/>
<path d="M363.385 88.543V80.6419C363.385 73.6789 345.898 68 324.344 68C302.79 68 285.303 73.6789 285.303 80.6419V88.543C285.303 95.506 302.79 101.185 324.344 101.185C345.898 101.185 363.385 95.506 363.385 88.543Z" fill="#E6E6E9"/>
<ellipse cx="324.344" cy="78.9315" rx="39.0411" ry="10.9315" fill="#C0C0C7"/>
</g>
<path d="M359.293 163L377.884 163C379.938 163 381.603 161.335 381.603 159.282L381.603 140.691C381.603 138.638 379.938 136.973 377.884 136.973L359.293 136.973C357.24 136.973 355.575 138.638 355.575 140.691L355.575 159.282C355.575 161.335 357.243 163 359.293 163ZM361.617 146.733C361.617 145.705 362.449 144.874 363.476 144.874C364.504 144.874 365.335 145.705 365.335 146.733L365.335 150.608L372.388 143.555C372.749 143.195 373.225 143.015 373.701 143.015C374.178 143.015 374.653 143.196 375.016 143.559C375.742 144.286 375.742 145.462 375.016 146.188L367.961 153.24L371.842 153.24C372.87 153.24 373.701 154.071 373.701 155.099C373.701 156.127 372.87 156.958 371.842 156.958L363.476 156.958C362.449 156.958 361.617 156.127 361.617 155.099L361.617 146.733Z" fill="#ABAECD"/>
<path d="M297.43 5.88V17H295.606V5.88H297.43ZM304.273 8.04C304.966 8.04 305.585 8.184 306.129 8.472C306.684 8.76 307.116 9.18667 307.425 9.752C307.734 10.3173 307.889 11 307.889 11.8V17H306.081V12.072C306.081 11.2827 305.884 10.68 305.489 10.264C305.094 9.83733 304.556 9.624 303.873 9.624C303.19 9.624 302.646 9.83733 302.241 10.264C301.846 10.68 301.649 11.2827 301.649 12.072V17H299.825V8.184H301.649V9.192C301.948 8.82933 302.326 8.54667 302.785 8.344C303.254 8.14133 303.75 8.04 304.273 8.04ZM312.344 9.672V14.552C312.344 14.8827 312.418 15.1227 312.568 15.272C312.728 15.4107 312.994 15.48 313.368 15.48H314.488V17H313.048C312.226 17 311.597 16.808 311.16 16.424C310.722 16.04 310.504 15.416 310.504 14.552V9.672H309.464V8.184H310.504V5.992H312.344V8.184H314.488V9.672H312.344ZM324.249 12.376C324.249 12.7067 324.227 13.0053 324.185 13.272H317.449C317.502 13.976 317.763 14.5413 318.233 14.968C318.702 15.3947 319.278 15.608 319.961 15.608C320.942 15.608 321.635 15.1973 322.041 14.376H324.009C323.742 15.1867 323.257 15.8533 322.553 16.376C321.859 16.888 320.995 17.144 319.961 17.144C319.118 17.144 318.361 16.9573 317.689 16.584C317.027 16.2 316.505 15.6667 316.121 14.984C315.747 14.2907 315.561 13.4907 315.561 12.584C315.561 11.6773 315.742 10.8827 316.105 10.2C316.478 9.50667 316.995 8.97333 317.657 8.6C318.329 8.22667 319.097 8.04 319.961 8.04C320.793 8.04 321.534 8.22133 322.185 8.584C322.835 8.94667 323.342 9.45867 323.705 10.12C324.067 10.7707 324.249 11.5227 324.249 12.376ZM322.345 11.8C322.334 11.128 322.094 10.5893 321.625 10.184C321.155 9.77867 320.574 9.576 319.881 9.576C319.251 9.576 318.713 9.77867 318.265 10.184C317.817 10.5787 317.55 11.1173 317.465 11.8H322.345ZM327.868 9.464C328.134 9.016 328.486 8.66933 328.924 8.424C329.372 8.168 329.9 8.04 330.508 8.04V9.928H330.044C329.329 9.928 328.785 10.1093 328.412 10.472C328.049 10.8347 327.868 11.464 327.868 12.36V17H326.044V8.184H327.868V9.464ZM336.632 8.04C337.326 8.04 337.944 8.184 338.488 8.472C339.043 8.76 339.475 9.18667 339.784 9.752C340.094 10.3173 340.248 11 340.248 11.8V17H338.44V12.072C338.44 11.2827 338.243 10.68 337.848 10.264C337.454 9.83733 336.915 9.624 336.232 9.624C335.55 9.624 335.006 9.83733 334.6 10.264C334.206 10.68 334.008 11.2827 334.008 12.072V17H332.184V8.184H334.008V9.192C334.307 8.82933 334.686 8.54667 335.144 8.344C335.614 8.14133 336.11 8.04 336.632 8.04ZM341.967 12.552C341.967 11.6667 342.148 10.8827 342.511 10.2C342.884 9.51733 343.386 8.98933 344.015 8.616C344.655 8.232 345.359 8.04 346.127 8.04C346.82 8.04 347.423 8.17867 347.935 8.456C348.458 8.72267 348.874 9.05867 349.183 9.464V8.184H351.023V17H349.183V15.688C348.874 16.104 348.452 16.4507 347.919 16.728C347.386 17.0053 346.778 17.144 346.095 17.144C345.338 17.144 344.644 16.952 344.015 16.568C343.386 16.1733 342.884 15.6293 342.511 14.936C342.148 14.232 341.967 13.4373 341.967 12.552ZM349.183 12.584C349.183 11.976 349.055 11.448 348.799 11C348.554 10.552 348.228 10.2107 347.823 9.976C347.418 9.74133 346.98 9.624 346.511 9.624C346.042 9.624 345.604 9.74133 345.199 9.976C344.794 10.2 344.463 10.536 344.207 10.984C343.962 11.4213 343.839 11.944 343.839 12.552C343.839 13.16 343.962 13.6933 344.207 14.152C344.463 14.6107 344.794 14.9627 345.199 15.208C345.615 15.4427 346.052 15.56 346.511 15.56C346.98 15.56 347.418 15.4427 347.823 15.208C348.228 14.9733 348.554 14.632 348.799 14.184C349.055 13.7253 349.183 13.192 349.183 12.584ZM355.243 5.16V17H353.419V5.16H355.243ZM282.864 39.112C282.117 39.112 281.445 38.984 280.848 38.728C280.251 38.4613 279.781 38.088 279.44 37.608C279.099 37.128 278.928 36.568 278.928 35.928H280.88C280.923 36.408 281.109 36.8027 281.44 37.112C281.781 37.4213 282.256 37.576 282.864 37.576C283.493 37.576 283.984 37.4267 284.336 37.128C284.688 36.8187 284.864 36.424 284.864 35.944C284.864 35.5707 284.752 35.2667 284.528 35.032C284.315 34.7973 284.043 34.616 283.712 34.488C283.392 34.36 282.944 34.2213 282.368 34.072C281.643 33.88 281.051 33.688 280.592 33.496C280.144 33.2933 279.76 32.984 279.44 32.568C279.12 32.152 278.96 31.5973 278.96 30.904C278.96 30.264 279.12 29.704 279.44 29.224C279.76 28.744 280.208 28.376 280.784 28.12C281.36 27.864 282.027 27.736 282.784 27.736C283.861 27.736 284.741 28.008 285.424 28.552C286.117 29.0853 286.501 29.8213 286.576 30.76H284.56C284.528 30.3547 284.336 30.008 283.984 29.72C283.632 29.432 283.168 29.288 282.592 29.288C282.069 29.288 281.643 29.4213 281.312 29.688C280.981 29.9547 280.816 30.3387 280.816 30.84C280.816 31.1813 280.917 31.464 281.12 31.688C281.333 31.9013 281.6 32.072 281.92 32.2C282.24 32.328 282.677 32.4667 283.232 32.616C283.968 32.8187 284.565 33.0213 285.024 33.224C285.493 33.4267 285.888 33.7413 286.208 34.168C286.539 34.584 286.704 35.144 286.704 35.848C286.704 36.4133 286.549 36.9467 286.24 37.448C285.941 37.9493 285.499 38.3547 284.912 38.664C284.336 38.9627 283.653 39.112 282.864 39.112ZM292.68 39.144C291.848 39.144 291.096 38.9573 290.424 38.584C289.752 38.2 289.224 37.6667 288.84 36.984C288.456 36.2907 288.264 35.4907 288.264 34.584C288.264 33.688 288.462 32.8933 288.856 32.2C289.251 31.5067 289.79 30.9733 290.472 30.6C291.155 30.2267 291.918 30.04 292.76 30.04C293.603 30.04 294.366 30.2267 295.048 30.6C295.731 30.9733 296.27 31.5067 296.664 32.2C297.059 32.8933 297.256 33.688 297.256 34.584C297.256 35.48 297.054 36.2747 296.648 36.968C296.243 37.6613 295.688 38.2 294.984 38.584C294.291 38.9573 293.523 39.144 292.68 39.144ZM292.68 37.56C293.15 37.56 293.587 37.448 293.992 37.224C294.408 37 294.744 36.664 295 36.216C295.256 35.768 295.384 35.224 295.384 34.584C295.384 33.944 295.262 33.4053 295.016 32.968C294.771 32.52 294.446 32.184 294.04 31.96C293.635 31.736 293.198 31.624 292.728 31.624C292.259 31.624 291.822 31.736 291.416 31.96C291.022 32.184 290.707 32.52 290.472 32.968C290.238 33.4053 290.12 33.944 290.12 34.584C290.12 35.5333 290.36 36.2693 290.84 36.792C291.331 37.304 291.944 37.56 292.68 37.56ZM307.043 30.184V39H305.219V37.96C304.931 38.3227 304.553 38.6107 304.083 38.824C303.625 39.0267 303.134 39.128 302.611 39.128C301.918 39.128 301.294 38.984 300.739 38.696C300.195 38.408 299.763 37.9813 299.443 37.416C299.134 36.8507 298.979 36.168 298.979 35.368V30.184H300.787V35.096C300.787 35.8853 300.985 36.4933 301.379 36.92C301.774 37.336 302.313 37.544 302.995 37.544C303.678 37.544 304.217 37.336 304.611 36.92C305.017 36.4933 305.219 35.8853 305.219 35.096V30.184H307.043ZM311.274 31.464C311.541 31.016 311.893 30.6693 312.33 30.424C312.778 30.168 313.306 30.04 313.914 30.04V31.928H313.45C312.735 31.928 312.191 32.1093 311.818 32.472C311.455 32.8347 311.274 33.464 311.274 34.36V39H309.45V30.184H311.274V31.464ZM314.983 34.584C314.983 33.6773 315.164 32.8827 315.527 32.2C315.9 31.5067 316.412 30.9733 317.063 30.6C317.713 30.2267 318.46 30.04 319.303 30.04C320.369 30.04 321.249 30.296 321.943 30.808C322.647 31.3093 323.121 32.0293 323.367 32.968H321.399C321.239 32.5307 320.983 32.1893 320.631 31.944C320.279 31.6987 319.836 31.576 319.303 31.576C318.556 31.576 317.959 31.8427 317.511 32.376C317.073 32.8987 316.855 33.6347 316.855 34.584C316.855 35.5333 317.073 36.2747 317.511 36.808C317.959 37.3413 318.556 37.608 319.303 37.608C320.359 37.608 321.057 37.144 321.399 36.216H323.367C323.111 37.112 322.631 37.8267 321.927 38.36C321.223 38.8827 320.348 39.144 319.303 39.144C318.46 39.144 317.713 38.9573 317.063 38.584C316.412 38.2 315.9 37.6667 315.527 36.984C315.164 36.2907 314.983 35.4907 314.983 34.584ZM333.264 34.376C333.264 34.7067 333.243 35.0053 333.2 35.272H326.464C326.518 35.976 326.779 36.5413 327.248 36.968C327.718 37.3947 328.294 37.608 328.976 37.608C329.958 37.608 330.651 37.1973 331.056 36.376H333.024C332.758 37.1867 332.272 37.8533 331.568 38.376C330.875 38.888 330.011 39.144 328.976 39.144C328.134 39.144 327.376 38.9573 326.704 38.584C326.043 38.2 325.52 37.6667 325.136 36.984C324.763 36.2907 324.576 35.4907 324.576 34.584C324.576 33.6773 324.758 32.8827 325.12 32.2C325.494 31.5067 326.011 30.9733 326.672 30.6C327.344 30.2267 328.112 30.04 328.976 30.04C329.808 30.04 330.55 30.2213 331.2 30.584C331.851 30.9467 332.358 31.4587 332.72 32.12C333.083 32.7707 333.264 33.5227 333.264 34.376ZM331.36 33.8C331.35 33.128 331.11 32.5893 330.64 32.184C330.171 31.7787 329.59 31.576 328.896 31.576C328.267 31.576 327.728 31.7787 327.28 32.184C326.832 32.5787 326.566 33.1173 326.48 33.8H331.36ZM342.848 27.88C344.032 27.88 345.066 28.1093 345.952 28.568C346.848 29.016 347.536 29.6667 348.016 30.52C348.506 31.3627 348.752 32.3493 348.752 33.48C348.752 34.6107 348.506 35.592 348.016 36.424C347.536 37.256 346.848 37.896 345.952 38.344C345.066 38.7813 344.032 39 342.848 39H339.216V27.88H342.848ZM342.848 37.512C344.149 37.512 345.146 37.16 345.84 36.456C346.533 35.752 346.88 34.76 346.88 33.48C346.88 32.1893 346.533 31.1813 345.84 30.456C345.146 29.7307 344.149 29.368 342.848 29.368H341.04V37.512H342.848ZM349.951 34.552C349.951 33.6667 350.133 32.8827 350.495 32.2C350.869 31.5173 351.37 30.9893 351.999 30.616C352.639 30.232 353.343 30.04 354.111 30.04C354.805 30.04 355.407 30.1787 355.919 30.456C356.442 30.7227 356.858 31.0587 357.167 31.464V30.184H359.007V39H357.167V37.688C356.858 38.104 356.437 38.4507 355.903 38.728C355.37 39.0053 354.762 39.144 354.079 39.144C353.322 39.144 352.629 38.952 351.999 38.568C351.37 38.1733 350.869 37.6293 350.495 36.936C350.133 36.232 349.951 35.4373 349.951 34.552ZM357.167 34.584C357.167 33.976 357.039 33.448 356.783 33C356.538 32.552 356.213 32.2107 355.807 31.976C355.402 31.7413 354.965 31.624 354.495 31.624C354.026 31.624 353.589 31.7413 353.183 31.976C352.778 32.2 352.447 32.536 352.191 32.984C351.946 33.4213 351.823 33.944 351.823 34.552C351.823 35.16 351.946 35.6933 352.191 36.152C352.447 36.6107 352.778 36.9627 353.183 37.208C353.599 37.4427 354.037 37.56 354.495 37.56C354.965 37.56 355.402 37.4427 355.807 37.208C356.213 36.9733 356.538 36.632 356.783 36.184C357.039 35.7253 357.167 35.192 357.167 34.584ZM363.531 31.672V36.552C363.531 36.8827 363.606 37.1227 363.755 37.272C363.915 37.4107 364.182 37.48 364.555 37.48H365.675V39H364.235C363.414 39 362.784 38.808 362.347 38.424C361.91 38.04 361.691 37.416 361.691 36.552V31.672H360.651V30.184H361.691V27.992H363.531V30.184H365.675V31.672H363.531ZM366.748 34.552C366.748 33.6667 366.93 32.8827 367.292 32.2C367.666 31.5173 368.167 30.9893 368.796 30.616C369.436 30.232 370.14 30.04 370.908 30.04C371.602 30.04 372.204 30.1787 372.716 30.456C373.239 30.7227 373.655 31.0587 373.964 31.464V30.184H375.804V39H373.964V37.688C373.655 38.104 373.234 38.4507 372.7 38.728C372.167 39.0053 371.559 39.144 370.876 39.144C370.119 39.144 369.426 38.952 368.796 38.568C368.167 38.1733 367.666 37.6293 367.292 36.936C366.93 36.232 366.748 35.4373 366.748 34.552ZM373.964 34.584C373.964 33.976 373.836 33.448 373.58 33C373.335 32.552 373.01 32.2107 372.604 31.976C372.199 31.7413 371.762 31.624 371.292 31.624C370.823 31.624 370.386 31.7413 369.98 31.976C369.575 32.2 369.244 32.536 368.988 32.984C368.743 33.4213 368.62 33.944 368.62 34.552C368.62 35.16 368.743 35.6933 368.988 36.152C369.244 36.6107 369.575 36.9627 369.98 37.208C370.396 37.4427 370.834 37.56 371.292 37.56C371.762 37.56 372.199 37.4427 372.604 37.208C373.01 36.9733 373.335 36.632 373.58 36.184C373.836 35.7253 373.964 35.192 373.964 34.584Z" fill="#ABAECD"/>
<rect x="370" y="187" width="55" height="34" rx="12" fill="#C9E1C2"/>
<path d="M393.24 207.138H389.348L388.704 209H386.646L390.16 199.214H392.442L395.956 209H393.884L393.24 207.138ZM392.708 205.57L391.294 201.482L389.88 205.57H392.708ZM404.396 202.252C404.396 202.775 404.27 203.265 404.018 203.722C403.775 204.179 403.388 204.548 402.856 204.828C402.333 205.108 401.67 205.248 400.868 205.248H399.23V209H397.27V199.228H400.868C401.624 199.228 402.268 199.359 402.8 199.62C403.332 199.881 403.728 200.241 403.99 200.698C404.26 201.155 404.396 201.673 404.396 202.252ZM400.784 203.666C401.325 203.666 401.726 203.545 401.988 203.302C402.249 203.05 402.38 202.7 402.38 202.252C402.38 201.3 401.848 200.824 400.784 200.824H399.23V203.666H400.784ZM407.747 199.228V209H405.787V199.228H407.747Z" fill="#22338A"/>
<rect x="18" y="187" width="55" height="34" rx="12" fill="#C9E1C2"/>
<path d="M41.2402 207.138H37.3482L36.7042 209H34.6462L38.1602 199.214H40.4422L43.9562 209H41.8842L41.2402 207.138ZM40.7082 205.57L39.2942 201.482L37.8802 205.57H40.7082ZM52.3957 202.252C52.3957 202.775 52.2697 203.265 52.0177 203.722C51.775 204.179 51.3877 204.548 50.8557 204.828C50.333 205.108 49.6704 205.248 48.8677 205.248H47.2297V209H45.2697V199.228H48.8677C49.6237 199.228 50.2677 199.359 50.7997 199.62C51.3317 199.881 51.7284 200.241 51.9897 200.698C52.2604 201.155 52.3957 201.673 52.3957 202.252ZM48.7837 203.666C49.325 203.666 49.7264 203.545 49.9877 203.302C50.249 203.05 50.3797 202.7 50.3797 202.252C50.3797 201.3 49.8477 200.824 48.7837 200.824H47.2297V203.666H48.7837ZM55.7473 199.228V209H53.7873V199.228H55.7473Z" fill="#22338A"/>
<rect x="18" y="229" width="55" height="34" rx="12" fill="#C9E1C2"/>
<path d="M40.4893 241.228V242.81H36.4153V245.316H39.5373V246.87H36.4153V251H34.4553V241.228H40.4893ZM48.5291 241.228V242.81H45.9251V251H43.9651V242.81H41.3611V241.228H48.5291ZM57.0852 244.252C57.0852 244.775 56.9592 245.265 56.7072 245.722C56.4645 246.179 56.0772 246.548 55.5452 246.828C55.0225 247.108 54.3598 247.248 53.5572 247.248H51.9192V251H49.9592V241.228H53.5572C54.3132 241.228 54.9572 241.359 55.4892 241.62C56.0212 241.881 56.4178 242.241 56.6792 242.698C56.9498 243.155 57.0852 243.673 57.0852 244.252ZM53.4732 245.666C54.0145 245.666 54.4158 245.545 54.6772 245.302C54.9385 245.05 55.0692 244.7 55.0692 244.252C55.0692 243.3 54.5372 242.824 53.4732 242.824H51.9192V245.666H53.4732Z" fill="#22338A"/>
<rect x="18" y="271" width="55" height="34" rx="12" fill="#C9E1C2"/>
<path d="M41.3839 293.098C40.7026 293.098 40.0866 292.981 39.5359 292.748C38.9946 292.515 38.5653 292.179 38.2479 291.74C37.9306 291.301 37.7673 290.783 37.7579 290.186H39.8579C39.8859 290.587 40.0259 290.905 40.2779 291.138C40.5393 291.371 40.8939 291.488 41.3419 291.488C41.7993 291.488 42.1586 291.381 42.4199 291.166C42.6813 290.942 42.8119 290.653 42.8119 290.298C42.8119 290.009 42.7233 289.771 42.5459 289.584C42.3686 289.397 42.1446 289.253 41.8739 289.15C41.6126 289.038 41.2486 288.917 40.7819 288.786C40.1473 288.599 39.6293 288.417 39.2279 288.24C38.8359 288.053 38.4953 287.778 38.2059 287.414C37.9259 287.041 37.7859 286.546 37.7859 285.93C37.7859 285.351 37.9306 284.847 38.2199 284.418C38.5093 283.989 38.9153 283.662 39.4379 283.438C39.9606 283.205 40.5579 283.088 41.2299 283.088C42.2379 283.088 43.0546 283.335 43.6799 283.83C44.3146 284.315 44.6646 284.997 44.7299 285.874H42.5739C42.5553 285.538 42.4106 285.263 42.1399 285.048C41.8786 284.824 41.5286 284.712 41.0899 284.712C40.7073 284.712 40.3993 284.81 40.1659 285.006C39.9419 285.202 39.8299 285.487 39.8299 285.86C39.8299 286.121 39.9139 286.341 40.0819 286.518C40.2593 286.686 40.4739 286.826 40.7259 286.938C40.9873 287.041 41.3513 287.162 41.8179 287.302C42.4526 287.489 42.9706 287.675 43.3719 287.862C43.7733 288.049 44.1186 288.329 44.4079 288.702C44.6973 289.075 44.8419 289.565 44.8419 290.172C44.8419 290.695 44.7066 291.18 44.4359 291.628C44.1653 292.076 43.7686 292.435 43.2459 292.706C42.7233 292.967 42.1026 293.098 41.3839 293.098ZM46.3452 285.482C46.3919 284.549 46.7185 283.83 47.3252 283.326C47.9412 282.813 48.7485 282.556 49.7472 282.556C50.4285 282.556 51.0119 282.677 51.4972 282.92C51.9825 283.153 52.3465 283.475 52.5892 283.886C52.8412 284.287 52.9672 284.745 52.9672 285.258C52.9672 285.846 52.8132 286.345 52.5052 286.756C52.2065 287.157 51.8472 287.428 51.4272 287.568V287.624C51.9685 287.792 52.3885 288.091 52.6872 288.52C52.9952 288.949 53.1492 289.5 53.1492 290.172C53.1492 290.732 53.0185 291.231 52.7572 291.67C52.5052 292.109 52.1272 292.454 51.6232 292.706C51.1285 292.949 50.5312 293.07 49.8312 293.07C48.7765 293.07 47.9179 292.804 47.2552 292.272C46.5925 291.74 46.2425 290.956 46.2052 289.92H48.1092C48.1279 290.377 48.2819 290.746 48.5712 291.026C48.8699 291.297 49.2759 291.432 49.7892 291.432C50.2652 291.432 50.6292 291.301 50.8812 291.04C51.1425 290.769 51.2732 290.424 51.2732 290.004C51.2732 289.444 51.0959 289.043 50.7412 288.8C50.3865 288.557 49.8359 288.436 49.0892 288.436H48.6832V286.826H49.0892C50.4145 286.826 51.0772 286.383 51.0772 285.496C51.0772 285.095 50.9559 284.782 50.7132 284.558C50.4799 284.334 50.1392 284.222 49.6912 284.222C49.2525 284.222 48.9119 284.343 48.6692 284.586C48.4359 284.819 48.3005 285.118 48.2632 285.482H46.3452Z" fill="#22338A"/>
<g filter="url(#filter0_d_3534_41690)">
<rect x="73" y="466" width="297" height="76" rx="12" fill="url(#paint0_linear_3534_41690)" shape-rendering="crispEdges"/>
</g>
<g filter="url(#filter1_d_3534_41690)">
<rect x="73" y="321" width="297" height="66" rx="12" fill="url(#paint1_linear_3534_41690)" shape-rendering="crispEdges"/>
<path d="M118.782 347.88V359H116.958V347.88H118.782ZM125.625 350.04C126.318 350.04 126.937 350.184 127.481 350.472C128.035 350.76 128.467 351.187 128.777 351.752C129.086 352.317 129.241 353 129.241 353.8V359H127.433V354.072C127.433 353.283 127.235 352.68 126.841 352.264C126.446 351.837 125.907 351.624 125.225 351.624C124.542 351.624 123.998 351.837 123.593 352.264C123.198 352.68 123.001 353.283 123.001 354.072V359H121.177V350.184H123.001V351.192C123.299 350.829 123.678 350.547 124.137 350.344C124.606 350.141 125.102 350.04 125.625 350.04ZM133.695 351.672V356.552C133.695 356.883 133.77 357.123 133.919 357.272C134.079 357.411 134.346 357.48 134.719 357.48H135.839V359H134.399C133.578 359 132.949 358.808 132.511 358.424C132.074 358.04 131.855 357.416 131.855 356.552V351.672H130.815V350.184H131.855V347.992H133.695V350.184H135.839V351.672H133.695ZM145.6 354.376C145.6 354.707 145.579 355.005 145.536 355.272H138.8C138.854 355.976 139.115 356.541 139.584 356.968C140.054 357.395 140.63 357.608 141.312 357.608C142.294 357.608 142.987 357.197 143.392 356.376H145.36C145.094 357.187 144.608 357.853 143.904 358.376C143.211 358.888 142.347 359.144 141.312 359.144C140.47 359.144 139.712 358.957 139.04 358.584C138.379 358.2 137.856 357.667 137.472 356.984C137.099 356.291 136.912 355.491 136.912 354.584C136.912 353.677 137.094 352.883 137.456 352.2C137.83 351.507 138.347 350.973 139.008 350.6C139.68 350.227 140.448 350.04 141.312 350.04C142.144 350.04 142.886 350.221 143.536 350.584C144.187 350.947 144.694 351.459 145.056 352.12C145.419 352.771 145.6 353.523 145.6 354.376ZM143.696 353.8C143.686 353.128 143.446 352.589 142.976 352.184C142.507 351.779 141.926 351.576 141.232 351.576C140.603 351.576 140.064 351.779 139.616 352.184C139.168 352.579 138.902 353.117 138.816 353.8H143.696ZM150.947 350.04C151.63 350.04 152.233 350.179 152.755 350.456C153.289 350.723 153.705 351.059 154.003 351.464V350.184H155.843V359.144C155.843 359.955 155.673 360.675 155.331 361.304C154.99 361.944 154.494 362.445 153.843 362.808C153.203 363.171 152.435 363.352 151.539 363.352C150.345 363.352 149.353 363.069 148.563 362.504C147.774 361.949 147.326 361.192 147.219 360.232H149.027C149.166 360.691 149.459 361.059 149.907 361.336C150.366 361.624 150.91 361.768 151.539 361.768C152.275 361.768 152.867 361.544 153.315 361.096C153.774 360.648 154.003 359.997 154.003 359.144V357.672C153.694 358.088 153.273 358.44 152.739 358.728C152.217 359.005 151.619 359.144 150.947 359.144C150.179 359.144 149.475 358.952 148.835 358.568C148.206 358.173 147.705 357.629 147.331 356.936C146.969 356.232 146.787 355.437 146.787 354.552C146.787 353.667 146.969 352.883 147.331 352.2C147.705 351.517 148.206 350.989 148.835 350.616C149.475 350.232 150.179 350.04 150.947 350.04ZM154.003 354.584C154.003 353.976 153.875 353.448 153.619 353C153.374 352.552 153.049 352.211 152.643 351.976C152.238 351.741 151.801 351.624 151.331 351.624C150.862 351.624 150.425 351.741 150.019 351.976C149.614 352.2 149.283 352.536 149.027 352.984C148.782 353.421 148.659 353.944 148.659 354.552C148.659 355.16 148.782 355.693 149.027 356.152C149.283 356.611 149.614 356.963 150.019 357.208C150.435 357.443 150.873 357.56 151.331 357.56C151.801 357.56 152.238 357.443 152.643 357.208C153.049 356.973 153.374 356.632 153.619 356.184C153.875 355.725 154.003 355.192 154.003 354.584ZM160.063 351.464C160.33 351.016 160.682 350.669 161.119 350.424C161.567 350.168 162.095 350.04 162.703 350.04V351.928H162.239C161.524 351.928 160.98 352.109 160.607 352.472C160.244 352.835 160.063 353.464 160.063 354.36V359H158.239V350.184H160.063V351.464ZM163.772 354.552C163.772 353.667 163.953 352.883 164.316 352.2C164.689 351.517 165.19 350.989 165.82 350.616C166.46 350.232 167.164 350.04 167.932 350.04C168.625 350.04 169.228 350.179 169.74 350.456C170.262 350.723 170.678 351.059 170.988 351.464V350.184H172.828V359H170.988V357.688C170.678 358.104 170.257 358.451 169.724 358.728C169.19 359.005 168.582 359.144 167.9 359.144C167.142 359.144 166.449 358.952 165.82 358.568C165.19 358.173 164.689 357.629 164.316 356.936C163.953 356.232 163.772 355.437 163.772 354.552ZM170.988 354.584C170.988 353.976 170.86 353.448 170.604 353C170.358 352.552 170.033 352.211 169.628 351.976C169.222 351.741 168.785 351.624 168.316 351.624C167.846 351.624 167.409 351.741 167.004 351.976C166.598 352.2 166.268 352.536 166.012 352.984C165.766 353.421 165.644 353.944 165.644 354.552C165.644 355.16 165.766 355.693 166.012 356.152C166.268 356.611 166.598 356.963 167.004 357.208C167.42 357.443 167.857 357.56 168.316 357.56C168.785 357.56 169.222 357.443 169.628 357.208C170.033 356.973 170.358 356.632 170.604 356.184C170.86 355.725 170.988 355.192 170.988 354.584ZM177.351 351.672V356.552C177.351 356.883 177.426 357.123 177.575 357.272C177.735 357.411 178.002 357.48 178.375 357.48H179.495V359H178.055C177.234 359 176.605 358.808 176.167 358.424C175.73 358.04 175.511 357.416 175.511 356.552V351.672H174.471V350.184H175.511V347.992H177.351V350.184H179.495V351.672H177.351ZM182.105 349.016C181.774 349.016 181.497 348.904 181.273 348.68C181.049 348.456 180.937 348.179 180.937 347.848C180.937 347.517 181.049 347.24 181.273 347.016C181.497 346.792 181.774 346.68 182.105 346.68C182.425 346.68 182.697 346.792 182.921 347.016C183.145 347.24 183.257 347.517 183.257 347.848C183.257 348.179 183.145 348.456 182.921 348.68C182.697 348.904 182.425 349.016 182.105 349.016ZM183.001 350.184V359H181.177V350.184H183.001ZM189.219 359.144C188.387 359.144 187.635 358.957 186.963 358.584C186.291 358.2 185.763 357.667 185.379 356.984C184.995 356.291 184.803 355.491 184.803 354.584C184.803 353.688 185.001 352.893 185.395 352.2C185.79 351.507 186.329 350.973 187.011 350.6C187.694 350.227 188.457 350.04 189.299 350.04C190.142 350.04 190.905 350.227 191.587 350.6C192.27 350.973 192.809 351.507 193.203 352.2C193.598 352.893 193.795 353.688 193.795 354.584C193.795 355.48 193.593 356.275 193.187 356.968C192.782 357.661 192.227 358.2 191.523 358.584C190.83 358.957 190.062 359.144 189.219 359.144ZM189.219 357.56C189.689 357.56 190.126 357.448 190.531 357.224C190.947 357 191.283 356.664 191.539 356.216C191.795 355.768 191.923 355.224 191.923 354.584C191.923 353.944 191.801 353.405 191.555 352.968C191.31 352.52 190.985 352.184 190.579 351.96C190.174 351.736 189.737 351.624 189.267 351.624C188.798 351.624 188.361 351.736 187.955 351.96C187.561 352.184 187.246 352.52 187.011 352.968C186.777 353.405 186.659 353.944 186.659 354.584C186.659 355.533 186.899 356.269 187.379 356.792C187.87 357.304 188.483 357.56 189.219 357.56ZM200.046 350.04C200.74 350.04 201.358 350.184 201.902 350.472C202.457 350.76 202.889 351.187 203.198 351.752C203.508 352.317 203.662 353 203.662 353.8V359H201.854V354.072C201.854 353.283 201.657 352.68 201.262 352.264C200.868 351.837 200.329 351.624 199.646 351.624C198.964 351.624 198.42 351.837 198.014 352.264C197.62 352.68 197.422 353.283 197.422 354.072V359H195.598V350.184H197.422V351.192C197.721 350.829 198.1 350.547 198.558 350.344C199.028 350.141 199.524 350.04 200.046 350.04ZM209.189 359.144C208.496 359.144 207.872 359.021 207.317 358.776C206.773 358.52 206.341 358.179 206.021 357.752C205.701 357.315 205.53 356.829 205.509 356.296H207.397C207.429 356.669 207.605 356.984 207.925 357.24C208.256 357.485 208.666 357.608 209.157 357.608C209.669 357.608 210.064 357.512 210.341 357.32C210.629 357.117 210.773 356.861 210.773 356.552C210.773 356.221 210.613 355.976 210.293 355.816C209.984 355.656 209.488 355.48 208.805 355.288C208.144 355.107 207.605 354.931 207.189 354.76C206.773 354.589 206.41 354.328 206.101 353.976C205.802 353.624 205.653 353.16 205.653 352.584C205.653 352.115 205.792 351.688 206.069 351.304C206.346 350.909 206.741 350.6 207.253 350.376C207.776 350.152 208.373 350.04 209.045 350.04C210.048 350.04 210.853 350.296 211.461 350.808C212.08 351.309 212.41 351.997 212.453 352.872H210.629C210.597 352.477 210.437 352.163 210.149 351.928C209.861 351.693 209.472 351.576 208.981 351.576C208.501 351.576 208.133 351.667 207.877 351.848C207.621 352.029 207.493 352.269 207.493 352.568C207.493 352.803 207.578 353 207.749 353.16C207.92 353.32 208.128 353.448 208.373 353.544C208.618 353.629 208.981 353.741 209.461 353.88C210.101 354.051 210.624 354.227 211.029 354.408C211.445 354.579 211.802 354.835 212.101 355.176C212.4 355.517 212.554 355.971 212.565 356.536C212.565 357.037 212.426 357.485 212.149 357.88C211.872 358.275 211.477 358.584 210.965 358.808C210.464 359.032 209.872 359.144 209.189 359.144ZM230.404 347.88V359H228.58V351.384L225.188 359H223.924L220.516 351.384V359H218.692V347.88H220.66L224.564 356.6L228.452 347.88H230.404ZM232.194 354.552C232.194 353.667 232.375 352.883 232.738 352.2C233.111 351.517 233.612 350.989 234.242 350.616C234.882 350.232 235.586 350.04 236.354 350.04C237.047 350.04 237.65 350.179 238.162 350.456C238.684 350.723 239.1 351.059 239.41 351.464V350.184H241.25V359H239.41V357.688C239.1 358.104 238.679 358.451 238.146 358.728C237.612 359.005 237.004 359.144 236.322 359.144C235.564 359.144 234.871 358.952 234.242 358.568C233.612 358.173 233.111 357.629 232.738 356.936C232.375 356.232 232.194 355.437 232.194 354.552ZM239.41 354.584C239.41 353.976 239.282 353.448 239.026 353C238.78 352.552 238.455 352.211 238.05 351.976C237.644 351.741 237.207 351.624 236.738 351.624C236.268 351.624 235.831 351.741 235.426 351.976C235.02 352.2 234.69 352.536 234.434 352.984C234.188 353.421 234.066 353.944 234.066 354.552C234.066 355.16 234.188 355.693 234.434 356.152C234.69 356.611 235.02 356.963 235.426 357.208C235.842 357.443 236.279 357.56 236.738 357.56C237.207 357.56 237.644 357.443 238.05 357.208C238.455 356.973 238.78 356.632 239.026 356.184C239.282 355.725 239.41 355.192 239.41 354.584ZM248.093 350.04C248.787 350.04 249.405 350.184 249.949 350.472C250.504 350.76 250.936 351.187 251.245 351.752C251.555 352.317 251.709 353 251.709 353.8V359H249.901V354.072C249.901 353.283 249.704 352.68 249.309 352.264C248.915 351.837 248.376 351.624 247.693 351.624C247.011 351.624 246.467 351.837 246.061 352.264C245.667 352.68 245.469 353.283 245.469 354.072V359H243.645V350.184H245.469V351.192C245.768 350.829 246.147 350.547 246.605 350.344C247.075 350.141 247.571 350.04 248.093 350.04ZM253.428 354.552C253.428 353.667 253.609 352.883 253.972 352.2C254.345 351.517 254.847 350.989 255.476 350.616C256.116 350.232 256.82 350.04 257.588 350.04C258.281 350.04 258.884 350.179 259.396 350.456C259.919 350.723 260.335 351.059 260.644 351.464V350.184H262.484V359H260.644V357.688C260.335 358.104 259.913 358.451 259.38 358.728C258.847 359.005 258.239 359.144 257.556 359.144C256.799 359.144 256.105 358.952 255.476 358.568C254.847 358.173 254.345 357.629 253.972 356.936C253.609 356.232 253.428 355.437 253.428 354.552ZM260.644 354.584C260.644 353.976 260.516 353.448 260.26 353C260.015 352.552 259.689 352.211 259.284 351.976C258.879 351.741 258.441 351.624 257.972 351.624C257.503 351.624 257.065 351.741 256.66 351.976C256.255 352.2 255.924 352.536 255.668 352.984C255.423 353.421 255.3 353.944 255.3 354.552C255.3 355.16 255.423 355.693 255.668 356.152C255.924 356.611 256.255 356.963 256.66 357.208C257.076 357.443 257.513 357.56 257.972 357.56C258.441 357.56 258.879 357.443 259.284 357.208C259.689 356.973 260.015 356.632 260.26 356.184C260.516 355.725 260.644 355.192 260.644 354.584ZM268.432 350.04C269.114 350.04 269.717 350.179 270.24 350.456C270.773 350.723 271.189 351.059 271.488 351.464V350.184H273.328V359.144C273.328 359.955 273.157 360.675 272.816 361.304C272.474 361.944 271.978 362.445 271.328 362.808C270.688 363.171 269.92 363.352 269.024 363.352C267.829 363.352 266.837 363.069 266.048 362.504C265.258 361.949 264.81 361.192 264.704 360.232H266.512C266.65 360.691 266.944 361.059 267.392 361.336C267.85 361.624 268.394 361.768 269.024 361.768C269.76 361.768 270.352 361.544 270.8 361.096C271.258 360.648 271.488 359.997 271.488 359.144V357.672C271.178 358.088 270.757 358.44 270.224 358.728C269.701 359.005 269.104 359.144 268.432 359.144C267.664 359.144 266.96 358.952 266.32 358.568C265.69 358.173 265.189 357.629 264.816 356.936C264.453 356.232 264.272 355.437 264.272 354.552C264.272 353.667 264.453 352.883 264.816 352.2C265.189 351.517 265.69 350.989 266.32 350.616C266.96 350.232 267.664 350.04 268.432 350.04ZM271.488 354.584C271.488 353.976 271.36 353.448 271.104 353C270.858 352.552 270.533 352.211 270.128 351.976C269.722 351.741 269.285 351.624 268.816 351.624C268.346 351.624 267.909 351.741 267.504 351.976C267.098 352.2 266.768 352.536 266.512 352.984C266.266 353.421 266.144 353.944 266.144 354.552C266.144 355.16 266.266 355.693 266.512 356.152C266.768 356.611 267.098 356.963 267.504 357.208C267.92 357.443 268.357 357.56 268.816 357.56C269.285 357.56 269.722 357.443 270.128 357.208C270.533 356.973 270.858 356.632 271.104 356.184C271.36 355.725 271.488 355.192 271.488 354.584ZM283.803 354.376C283.803 354.707 283.782 355.005 283.739 355.272H277.003C277.057 355.976 277.318 356.541 277.787 356.968C278.257 357.395 278.833 357.608 279.515 357.608C280.497 357.608 281.19 357.197 281.595 356.376H283.563C283.297 357.187 282.811 357.853 282.107 358.376C281.414 358.888 280.55 359.144 279.515 359.144C278.673 359.144 277.915 358.957 277.243 358.584C276.582 358.2 276.059 357.667 275.675 356.984C275.302 356.291 275.115 355.491 275.115 354.584C275.115 353.677 275.297 352.883 275.659 352.2C276.033 351.507 276.55 350.973 277.211 350.6C277.883 350.227 278.651 350.04 279.515 350.04C280.347 350.04 281.089 350.221 281.739 350.584C282.39 350.947 282.897 351.459 283.259 352.12C283.622 352.771 283.803 353.523 283.803 354.376ZM281.899 353.8C281.889 353.128 281.649 352.589 281.179 352.184C280.71 351.779 280.129 351.576 279.435 351.576C278.806 351.576 278.267 351.779 277.819 352.184C277.371 352.579 277.105 353.117 277.019 353.8H281.899ZM296.27 350.04C296.964 350.04 297.582 350.184 298.126 350.472C298.681 350.76 299.113 351.187 299.422 351.752C299.742 352.317 299.902 353 299.902 353.8V359H298.094V354.072C298.094 353.283 297.897 352.68 297.502 352.264C297.108 351.837 296.569 351.624 295.886 351.624C295.204 351.624 294.66 351.837 294.254 352.264C293.86 352.68 293.662 353.283 293.662 354.072V359H291.854V354.072C291.854 353.283 291.657 352.68 291.262 352.264C290.868 351.837 290.329 351.624 289.646 351.624C288.964 351.624 288.42 351.837 288.014 352.264C287.62 352.68 287.422 353.283 287.422 354.072V359H285.598V350.184H287.422V351.192C287.721 350.829 288.1 350.547 288.558 350.344C289.017 350.141 289.508 350.04 290.03 350.04C290.734 350.04 291.364 350.189 291.918 350.488C292.473 350.787 292.9 351.219 293.198 351.784C293.465 351.251 293.881 350.829 294.446 350.52C295.012 350.2 295.62 350.04 296.27 350.04ZM310.303 354.376C310.303 354.707 310.282 355.005 310.239 355.272H303.503C303.557 355.976 303.818 356.541 304.287 356.968C304.757 357.395 305.333 357.608 306.015 357.608C306.997 357.608 307.69 357.197 308.095 356.376H310.063C309.797 357.187 309.311 357.853 308.607 358.376C307.914 358.888 307.05 359.144 306.015 359.144C305.173 359.144 304.415 358.957 303.743 358.584C303.082 358.2 302.559 357.667 302.175 356.984C301.802 356.291 301.615 355.491 301.615 354.584C301.615 353.677 301.797 352.883 302.159 352.2C302.533 351.507 303.05 350.973 303.711 350.6C304.383 350.227 305.151 350.04 306.015 350.04C306.847 350.04 307.589 350.221 308.239 350.584C308.89 350.947 309.397 351.459 309.759 352.12C310.122 352.771 310.303 353.523 310.303 354.376ZM308.399 353.8C308.389 353.128 308.149 352.589 307.679 352.184C307.21 351.779 306.629 351.576 305.935 351.576C305.306 351.576 304.767 351.779 304.319 352.184C303.871 352.579 303.605 353.117 303.519 353.8H308.399ZM316.546 350.04C317.24 350.04 317.858 350.184 318.402 350.472C318.957 350.76 319.389 351.187 319.698 351.752C320.008 352.317 320.162 353 320.162 353.8V359H318.354V354.072C318.354 353.283 318.157 352.68 317.762 352.264C317.368 351.837 316.829 351.624 316.146 351.624C315.464 351.624 314.92 351.837 314.514 352.264C314.12 352.68 313.922 353.283 313.922 354.072V359H312.098V350.184H313.922V351.192C314.221 350.829 314.6 350.547 315.058 350.344C315.528 350.141 316.024 350.04 316.546 350.04ZM324.617 351.672V356.552C324.617 356.883 324.692 357.123 324.841 357.272C325.001 357.411 325.268 357.48 325.641 357.48H326.761V359H325.321C324.5 359 323.87 358.808 323.433 358.424C322.996 358.04 322.777 357.416 322.777 356.552V351.672H321.737V350.184H322.777V347.992H324.617V350.184H326.761V351.672H324.617Z" fill="white"/>
</g>
<path opacity="0.2" fill-rule="evenodd" clip-rule="evenodd" d="M206 466L206 386L238 386L238 466L206 466Z" fill="url(#paint2_linear_3534_41690)"/>
<circle cx="222" cy="411" r="3" transform="rotate(90 222 411)" fill="#63B866"/>
<path opacity="0.2" d="M108 166L108 211.218C108 228.891 122.327 243.218 140 243.218L190 243.218C207.673 243.218 222 257.545 222 275.218L222 322.5" stroke="url(#paint3_linear_3534_41690)" stroke-width="32"/>
<path opacity="0.2" d="M336 166L336 211.218C336 228.891 321.673 243.218 304 243.218L254 243.218C236.327 243.218 222 257.545 222 275.218L222 322.5" stroke="url(#paint4_linear_3534_41690)" stroke-width="32"/>
<circle cx="222" cy="275" r="3" transform="rotate(90 222 275)" fill="#63B866"/>
<circle cx="183" cy="243" r="3" transform="rotate(90 183 243)" fill="#63B866"/>
<circle cx="133" cy="243" r="3" transform="rotate(90 133 243)" fill="#63B866"/>
<circle cx="108" cy="205" r="3" transform="rotate(90 108 205)" fill="#63B866"/>
<circle r="3" transform="matrix(-4.37114e-08 1 1 4.37114e-08 260 243)" fill="#63B866"/>
<circle r="3" transform="matrix(-4.37114e-08 1 1 4.37114e-08 310 243)" fill="#63B866"/>
<circle r="3" transform="matrix(-4.37114e-08 1 1 4.37114e-08 335 205)" fill="#63B866"/>
</g>
<defs>
<filter id="filter0_d_3534_41690" x="-23" y="370" width="497" height="276" filterUnits="userSpaceOnUse" color-interpolation-filters="sRGB">
<feFlood flood-opacity="0" result="BackgroundImageFix"/>
<feColorMatrix in="SourceAlpha" type="matrix" values="0 0 0 0 0 0 0 0 0 0 0 0 0 0 0 0 0 0 127 0" result="hardAlpha"/>
<feOffset dx="4" dy="4"/>
<feGaussianBlur stdDeviation="50"/>
<feComposite in2="hardAlpha" operator="out"/>
<feColorMatrix type="matrix" values="0 0 0 0 0.423529 0 0 0 0 0.482353 0 0 0 0 0.666667 0 0 0 0.12 0"/>
<feBlend mode="normal" in2="BackgroundImageFix" result="effect1_dropShadow_3534_41690"/>
<feBlend mode="normal" in="SourceGraphic" in2="effect1_dropShadow_3534_41690" result="shape"/>
</filter>
<filter id="filter1_d_3534_41690" x="-23" y="225" width="497" height="266" filterUnits="userSpaceOnUse" color-interpolation-filters="sRGB">
<feFlood flood-opacity="0" result="BackgroundImageFix"/>
<feColorMatrix in="SourceAlpha" type="matrix" values="0 0 0 0 0 0 0 0 0 0 0 0 0 0 0 0 0 0 127 0" result="hardAlpha"/>
<feOffset dx="4" dy="4"/>
<feGaussianBlur stdDeviation="50"/>
<feComposite in2="hardAlpha" operator="out"/>
<feColorMatrix type="matrix" values="0 0 0 0 0.423529 0 0 0 0 0.482353 0 0 0 0 0.666667 0 0 0 0.12 0"/>
<feBlend mode="normal" in2="BackgroundImageFix" result="effect1_dropShadow_3534_41690"/>
<feBlend mode="normal" in="SourceGraphic" in2="effect1_dropShadow_3534_41690" result="shape"/>
</filter>
<linearGradient id="paint0_linear_3534_41690" x1="221.5" y1="466" x2="221.5" y2="542" gradientUnits="userSpaceOnUse">
<stop stop-color="#63B866" stop-opacity="0.99"/>
<stop offset="1" stop-color="#63B866" stop-opacity="0.8"/>
</linearGradient>
<linearGradient id="paint1_linear_3534_41690" x1="221.5" y1="321" x2="221.5" y2="387" gradientUnits="userSpaceOnUse">
<stop stop-color="#63B866"/>
<stop offset="1" stop-color="#63B866" stop-opacity="0.8"/>
</linearGradient>
<linearGradient id="paint2_linear_3534_41690" x1="221" y1="466" x2="196.219" y2="394.601" gradientUnits="userSpaceOnUse">
<stop stop-color="#6C7BAA"/>
<stop offset="1" stop-color="#6C7BAA" stop-opacity="0"/>
</linearGradient>
<linearGradient id="paint3_linear_3534_41690" x1="222" y1="347" x2="223.974" y2="166.022" gradientUnits="userSpaceOnUse">
<stop stop-color="#6C7BAA"/>
<stop offset="1" stop-color="#6C7BAA" stop-opacity="0"/>
</linearGradient>
<linearGradient id="paint4_linear_3534_41690" x1="222" y1="347" x2="220.026" y2="166.022" gradientUnits="userSpaceOnUse">
<stop stop-color="#6C7BAA"/>
<stop offset="1" stop-color="#6C7BAA" stop-opacity="0"/>
</linearGradient>
<clipPath id="clip0_3534_41690">
<rect width="445" height="422" fill="white"/>
</clipPath>
<clipPath id="clip1_3534_41690">
<rect width="78.0822" height="88.4931" fill="white" transform="translate(65 68)"/>
</clipPath>
<clipPath id="clip2_3534_41690">
<rect width="78.0822" height="88.4931" fill="white" transform="translate(285.302 68)"/>
</clipPath>
</defs>
</svg>
