<svg width="422" height="470" viewBox="0 0 422 470" fill="none" xmlns="http://www.w3.org/2000/svg">
<path opacity="0.2" d="M375 107.25L375 91.7558C375 74.0828 360.673 59.756 343 59.756L287 59.756C269.327 59.756 255 45.4291 255 27.756L255 0.474105" stroke="url(#paint0_linear_3879_13746)" stroke-width="32"/>
<path opacity="0.2" d="M137 106.974L137 91.756C137 74.0829 151.327 59.756 169 59.756L223 59.756C240.673 59.756 255 45.4291 255 27.756L255 0.474126" stroke="url(#paint1_linear_3879_13746)" stroke-width="32"/>
<circle cx="255" cy="27" r="3" transform="rotate(-90 255 27)" fill="#FAA204"/>
<circle cx="294" cy="59" r="3" transform="rotate(-90 294 59)" fill="#FAA204"/>
<circle cx="334" cy="59" r="3" transform="rotate(-90 334 59)" fill="#FAA204"/>
<circle cx="376" cy="113" r="3" transform="rotate(-90 376 113)" fill="#FAA204"/>
<circle cx="370" cy="75" r="3" transform="rotate(-90 370 75)" fill="#FAA204"/>
<circle cx="376" cy="157" r="3" transform="rotate(-90 376 157)" fill="#FAA204"/>
<circle r="3" transform="matrix(1.31134e-07 -1 -1 -1.31134e-07 217 59)" fill="#FAA204"/>
<circle r="3" transform="matrix(1.31134e-07 -1 -1 -1.31134e-07 176 59)" fill="#FAA204"/>
<circle r="3" transform="matrix(1.31134e-07 -1 -1 -1.31134e-07 143 73)" fill="#FAA204"/>
<path opacity="0.2" d="M374 171.026L374 186.244C374 203.917 359.673 218.244 342 218.244L291 218.244C273.327 218.244 259 232.571 259 250.244L259 265.75" stroke="url(#paint2_linear_3879_13746)" stroke-width="32"/>
<path d="M259 238.026C257.343 238.026 256 236.683 256 235.026C256 233.369 257.343 232.026 259 232.026C260.657 232.026 262 233.369 262 235.026C262 236.683 260.657 238.026 259 238.026Z" fill="#FAA204"/>
<circle r="3" transform="matrix(-4.37114e-08 1 1 4.37114e-08 295 218.026)" fill="#FAA204"/>
<circle r="3" transform="matrix(-4.37114e-08 1 1 4.37114e-08 336 218.026)" fill="#FAA204"/>
<circle r="3" transform="matrix(-4.37114e-08 1 1 4.37114e-08 369 204.026)" fill="#FAA204"/>
<path opacity="0.2" d="M259 265.026L259 249.808C259 232.135 244.673 217.808 227 217.808L169 217.808C151.327 217.808 137 203.481 137 185.808L137 162.026" stroke="url(#paint3_linear_3879_13746)" stroke-width="32"/>
<circle r="3" transform="matrix(4.37114e-08 -1 -1 -4.37114e-08 141 201.026)" fill="#FAA204"/>
<circle cx="176" cy="218.026" r="3" transform="rotate(-90 176 218.026)" fill="#FAA204"/>
<circle cx="217" cy="218.026" r="3" transform="rotate(-90 217 218.026)" fill="#FAA204"/>
<g filter="url(#filter0_d_3879_13746)">
<rect x="96" y="107.224" width="160" height="68" rx="12" fill="#FAA204"/>
<path d="M122.885 127.494V137.224H121.289V127.494H122.885ZM128.873 129.384C129.479 129.384 130.021 129.51 130.497 129.762C130.982 130.014 131.36 130.387 131.631 130.882C131.901 131.377 132.037 131.974 132.037 132.674V137.224H130.455V132.912C130.455 132.221 130.282 131.694 129.937 131.33C129.591 130.957 129.12 130.77 128.523 130.77C127.925 130.77 127.449 130.957 127.095 131.33C126.749 131.694 126.577 132.221 126.577 132.912V137.224H124.981V129.51H126.577V130.392C126.838 130.075 127.169 129.827 127.571 129.65C127.981 129.473 128.415 129.384 128.873 129.384ZM135.934 130.812V135.082C135.934 135.371 136 135.581 136.13 135.712C136.27 135.833 136.504 135.894 136.83 135.894H137.81V137.224H136.55C135.832 137.224 135.281 137.056 134.898 136.72C134.516 136.384 134.324 135.838 134.324 135.082V130.812H133.414V129.51H134.324V127.592H135.934V129.51H137.81V130.812H135.934ZM146.351 133.178C146.351 133.467 146.333 133.729 146.295 133.962H140.401C140.448 134.578 140.677 135.073 141.087 135.446C141.498 135.819 142.002 136.006 142.599 136.006C143.458 136.006 144.065 135.647 144.419 134.928H146.141C145.908 135.637 145.483 136.221 144.867 136.678C144.261 137.126 143.505 137.35 142.599 137.35C141.862 137.35 141.199 137.187 140.611 136.86C140.033 136.524 139.575 136.057 139.239 135.46C138.913 134.853 138.749 134.153 138.749 133.36C138.749 132.567 138.908 131.871 139.225 131.274C139.552 130.667 140.005 130.201 140.583 129.874C141.171 129.547 141.843 129.384 142.599 129.384C143.327 129.384 143.976 129.543 144.545 129.86C145.115 130.177 145.558 130.625 145.875 131.204C146.193 131.773 146.351 132.431 146.351 133.178ZM144.685 132.674C144.676 132.086 144.466 131.615 144.055 131.26C143.645 130.905 143.136 130.728 142.529 130.728C141.979 130.728 141.507 130.905 141.115 131.26C140.723 131.605 140.49 132.077 140.415 132.674H144.685ZM149.518 126.864V137.224H147.922V126.864H149.518ZM153.209 126.864V137.224H151.613V126.864H153.209ZM156.117 128.488C155.828 128.488 155.585 128.39 155.389 128.194C155.193 127.998 155.095 127.755 155.095 127.466C155.095 127.177 155.193 126.934 155.389 126.738C155.585 126.542 155.828 126.444 156.117 126.444C156.397 126.444 156.635 126.542 156.831 126.738C157.027 126.934 157.125 127.177 157.125 127.466C157.125 127.755 157.027 127.998 156.831 128.194C156.635 128.39 156.397 128.488 156.117 128.488ZM156.901 129.51V137.224H155.305V129.51H156.901ZM162.104 129.384C162.702 129.384 163.229 129.505 163.686 129.748C164.153 129.981 164.517 130.275 164.778 130.63V129.51H166.388V137.35C166.388 138.059 166.239 138.689 165.94 139.24C165.642 139.8 165.208 140.239 164.638 140.556C164.078 140.873 163.406 141.032 162.622 141.032C161.577 141.032 160.709 140.785 160.018 140.29C159.328 139.805 158.936 139.142 158.842 138.302H160.424C160.546 138.703 160.802 139.025 161.194 139.268C161.596 139.52 162.072 139.646 162.622 139.646C163.266 139.646 163.784 139.45 164.176 139.058C164.578 138.666 164.778 138.097 164.778 137.35V136.062C164.508 136.426 164.139 136.734 163.672 136.986C163.215 137.229 162.692 137.35 162.104 137.35C161.432 137.35 160.816 137.182 160.256 136.846C159.706 136.501 159.267 136.025 158.94 135.418C158.623 134.802 158.464 134.107 158.464 133.332C158.464 132.557 158.623 131.871 158.94 131.274C159.267 130.677 159.706 130.215 160.256 129.888C160.816 129.552 161.432 129.384 162.104 129.384ZM164.778 133.36C164.778 132.828 164.666 132.366 164.442 131.974C164.228 131.582 163.943 131.283 163.588 131.078C163.234 130.873 162.851 130.77 162.44 130.77C162.03 130.77 161.647 130.873 161.292 131.078C160.938 131.274 160.648 131.568 160.424 131.96C160.21 132.343 160.102 132.8 160.102 133.332C160.102 133.864 160.21 134.331 160.424 134.732C160.648 135.133 160.938 135.441 161.292 135.656C161.656 135.861 162.039 135.964 162.44 135.964C162.851 135.964 163.234 135.861 163.588 135.656C163.943 135.451 164.228 135.152 164.442 134.76C164.666 134.359 164.778 133.892 164.778 133.36ZM175.555 133.178C175.555 133.467 175.536 133.729 175.499 133.962H169.605C169.651 134.578 169.88 135.073 170.291 135.446C170.701 135.819 171.205 136.006 171.803 136.006C172.661 136.006 173.268 135.647 173.623 134.928H175.345C175.111 135.637 174.687 136.221 174.071 136.678C173.464 137.126 172.708 137.35 171.803 137.35C171.065 137.35 170.403 137.187 169.815 136.86C169.236 136.524 168.779 136.057 168.443 135.46C168.116 134.853 167.953 134.153 167.953 133.36C167.953 132.567 168.111 131.871 168.429 131.274C168.755 130.667 169.208 130.201 169.787 129.874C170.375 129.547 171.047 129.384 171.803 129.384C172.531 129.384 173.179 129.543 173.749 129.86C174.318 130.177 174.761 130.625 175.079 131.204C175.396 131.773 175.555 132.431 175.555 133.178ZM173.889 132.674C173.879 132.086 173.669 131.615 173.259 131.26C172.848 130.905 172.339 130.728 171.733 130.728C171.182 130.728 170.711 130.905 170.319 131.26C169.927 131.605 169.693 132.077 169.619 132.674H173.889ZM181.017 129.384C181.624 129.384 182.165 129.51 182.641 129.762C183.127 130.014 183.505 130.387 183.775 130.882C184.046 131.377 184.181 131.974 184.181 132.674V137.224H182.599V132.912C182.599 132.221 182.427 131.694 182.081 131.33C181.736 130.957 181.265 130.77 180.667 130.77C180.07 130.77 179.594 130.957 179.239 131.33C178.894 131.694 178.721 132.221 178.721 132.912V137.224H177.125V129.51H178.721V130.392C178.983 130.075 179.314 129.827 179.715 129.65C180.126 129.473 180.56 129.384 181.017 129.384ZM188.079 130.812V135.082C188.079 135.371 188.144 135.581 188.275 135.712C188.415 135.833 188.648 135.894 188.975 135.894H189.955V137.224H188.695C187.976 137.224 187.426 137.056 187.043 136.72C186.66 136.384 186.469 135.838 186.469 135.082V130.812H185.559V129.51H186.469V127.592H188.079V129.51H189.955V130.812H188.079ZM200.117 137.224L197.877 133.332H196.659V137.224H195.063V127.494H198.423C199.169 127.494 199.799 127.625 200.313 127.886C200.835 128.147 201.223 128.497 201.475 128.936C201.736 129.375 201.867 129.865 201.867 130.406C201.867 131.041 201.68 131.619 201.307 132.142C200.943 132.655 200.378 133.005 199.613 133.192L202.021 137.224H200.117ZM196.659 132.058H198.423C199.02 132.058 199.468 131.909 199.767 131.61C200.075 131.311 200.229 130.91 200.229 130.406C200.229 129.902 200.079 129.51 199.781 129.23C199.482 128.941 199.029 128.796 198.423 128.796H196.659V132.058ZM210.894 129.51V137.224H209.298V136.314C209.046 136.631 208.715 136.883 208.304 137.07C207.903 137.247 207.474 137.336 207.016 137.336C206.41 137.336 205.864 137.21 205.378 136.958C204.902 136.706 204.524 136.333 204.244 135.838C203.974 135.343 203.838 134.746 203.838 134.046V129.51H205.42V133.808C205.42 134.499 205.593 135.031 205.938 135.404C206.284 135.768 206.755 135.95 207.352 135.95C207.95 135.95 208.421 135.768 208.766 135.404C209.121 135.031 209.298 134.499 209.298 133.808V129.51H210.894ZM214.596 126.864V137.224H213V126.864H214.596ZM223.762 133.178C223.762 133.467 223.743 133.729 223.706 133.962H217.812C217.858 134.578 218.087 135.073 218.498 135.446C218.908 135.819 219.412 136.006 220.01 136.006C220.868 136.006 221.475 135.647 221.83 134.928H223.552C223.318 135.637 222.894 136.221 222.278 136.678C221.671 137.126 220.915 137.35 220.01 137.35C219.272 137.35 218.61 137.187 218.022 136.86C217.443 136.524 216.986 136.057 216.65 135.46C216.323 134.853 216.16 134.153 216.16 133.36C216.16 132.567 216.318 131.871 216.636 131.274C216.962 130.667 217.415 130.201 217.994 129.874C218.582 129.547 219.254 129.384 220.01 129.384C220.738 129.384 221.386 129.543 221.956 129.86C222.525 130.177 222.968 130.625 223.286 131.204C223.603 131.773 223.762 132.431 223.762 133.178ZM222.096 132.674C222.086 132.086 221.876 131.615 221.466 131.26C221.055 130.905 220.546 130.728 219.94 130.728C219.389 130.728 218.918 130.905 218.526 131.26C218.134 131.605 217.9 132.077 217.826 132.674H222.096ZM228.132 137.35C227.526 137.35 226.98 137.243 226.494 137.028C226.018 136.804 225.64 136.505 225.36 136.132C225.08 135.749 224.931 135.325 224.912 134.858H226.564C226.592 135.185 226.746 135.46 227.026 135.684C227.316 135.899 227.675 136.006 228.104 136.006C228.552 136.006 228.898 135.922 229.14 135.754C229.392 135.577 229.518 135.353 229.518 135.082C229.518 134.793 229.378 134.578 229.098 134.438C228.828 134.298 228.394 134.144 227.796 133.976C227.218 133.817 226.746 133.663 226.382 133.514C226.018 133.365 225.701 133.136 225.43 132.828C225.169 132.52 225.038 132.114 225.038 131.61C225.038 131.199 225.16 130.826 225.402 130.49C225.645 130.145 225.99 129.874 226.438 129.678C226.896 129.482 227.418 129.384 228.006 129.384C228.884 129.384 229.588 129.608 230.12 130.056C230.662 130.495 230.951 131.097 230.988 131.862H229.392C229.364 131.517 229.224 131.241 228.972 131.036C228.72 130.831 228.38 130.728 227.95 130.728C227.53 130.728 227.208 130.807 226.984 130.966C226.76 131.125 226.648 131.335 226.648 131.596C226.648 131.801 226.723 131.974 226.872 132.114C227.022 132.254 227.204 132.366 227.418 132.45C227.633 132.525 227.95 132.623 228.37 132.744C228.93 132.893 229.388 133.047 229.742 133.206C230.106 133.355 230.419 133.579 230.68 133.878C230.942 134.177 231.077 134.573 231.086 135.068C231.086 135.507 230.965 135.899 230.722 136.244C230.48 136.589 230.134 136.86 229.686 137.056C229.248 137.252 228.73 137.35 228.132 137.35ZM138.222 155.322C137.568 155.322 136.98 155.21 136.458 154.986C135.935 154.753 135.524 154.426 135.226 154.006C134.927 153.586 134.778 153.096 134.778 152.536H136.486C136.523 152.956 136.686 153.301 136.976 153.572C137.274 153.843 137.69 153.978 138.222 153.978C138.772 153.978 139.202 153.847 139.51 153.586C139.818 153.315 139.972 152.97 139.972 152.55C139.972 152.223 139.874 151.957 139.678 151.752C139.491 151.547 139.253 151.388 138.964 151.276C138.684 151.164 138.292 151.043 137.788 150.912C137.153 150.744 136.635 150.576 136.234 150.408C135.842 150.231 135.506 149.96 135.226 149.596C134.946 149.232 134.806 148.747 134.806 148.14C134.806 147.58 134.946 147.09 135.226 146.67C135.506 146.25 135.898 145.928 136.402 145.704C136.906 145.48 137.489 145.368 138.152 145.368C139.094 145.368 139.864 145.606 140.462 146.082C141.068 146.549 141.404 147.193 141.47 148.014H139.706C139.678 147.659 139.51 147.356 139.202 147.104C138.894 146.852 138.488 146.726 137.984 146.726C137.526 146.726 137.153 146.843 136.864 147.076C136.574 147.309 136.43 147.645 136.43 148.084C136.43 148.383 136.518 148.63 136.696 148.826C136.882 149.013 137.116 149.162 137.396 149.274C137.676 149.386 138.058 149.507 138.544 149.638C139.188 149.815 139.71 149.993 140.112 150.17C140.522 150.347 140.868 150.623 141.148 150.996C141.437 151.36 141.582 151.85 141.582 152.466C141.582 152.961 141.446 153.427 141.176 153.866C140.914 154.305 140.527 154.659 140.014 154.93C139.51 155.191 138.912 155.322 138.222 155.322ZM150.535 151.178C150.535 151.467 150.516 151.729 150.479 151.962H144.585C144.632 152.578 144.86 153.073 145.271 153.446C145.682 153.819 146.186 154.006 146.783 154.006C147.642 154.006 148.248 153.647 148.603 152.928H150.325C150.092 153.637 149.667 154.221 149.051 154.678C148.444 155.126 147.688 155.35 146.783 155.35C146.046 155.35 145.383 155.187 144.795 154.86C144.216 154.524 143.759 154.057 143.423 153.46C143.096 152.853 142.933 152.153 142.933 151.36C142.933 150.567 143.092 149.871 143.409 149.274C143.736 148.667 144.188 148.201 144.767 147.874C145.355 147.547 146.027 147.384 146.783 147.384C147.511 147.384 148.16 147.543 148.729 147.86C149.298 148.177 149.742 148.625 150.059 149.204C150.376 149.773 150.535 150.431 150.535 151.178ZM148.869 150.674C148.86 150.086 148.65 149.615 148.239 149.26C147.828 148.905 147.32 148.728 146.713 148.728C146.162 148.728 145.691 148.905 145.299 149.26C144.907 149.605 144.674 150.077 144.599 150.674H148.869ZM151.574 151.332C151.574 150.557 151.732 149.871 152.05 149.274C152.376 148.677 152.815 148.215 153.366 147.888C153.926 147.552 154.546 147.384 155.228 147.384C155.825 147.384 156.352 147.505 156.81 147.748C157.276 147.991 157.636 148.285 157.888 148.63V147.51H159.498V158.892H157.888V154.104C157.636 154.449 157.272 154.743 156.796 154.986C156.32 155.229 155.778 155.35 155.172 155.35C154.509 155.35 153.902 155.182 153.352 154.846C152.81 154.501 152.376 154.025 152.05 153.418C151.732 152.802 151.574 152.107 151.574 151.332ZM157.888 151.36C157.888 150.828 157.776 150.366 157.552 149.974C157.337 149.582 157.052 149.283 156.698 149.078C156.343 148.873 155.96 148.77 155.55 148.77C155.139 148.77 154.756 148.873 154.402 149.078C154.047 149.274 153.758 149.568 153.534 149.96C153.319 150.343 153.212 150.8 153.212 151.332C153.212 151.864 153.319 152.331 153.534 152.732C153.758 153.133 154.047 153.441 154.402 153.656C154.766 153.861 155.148 153.964 155.55 153.964C155.96 153.964 156.343 153.861 156.698 153.656C157.052 153.451 157.337 153.152 157.552 152.76C157.776 152.359 157.888 151.892 157.888 151.36ZM168.58 147.51V155.224H166.984V154.314C166.732 154.631 166.401 154.883 165.99 155.07C165.589 155.247 165.159 155.336 164.702 155.336C164.095 155.336 163.549 155.21 163.064 154.958C162.588 154.706 162.21 154.333 161.93 153.838C161.659 153.343 161.524 152.746 161.524 152.046V147.51H163.106V151.808C163.106 152.499 163.279 153.031 163.624 153.404C163.969 153.768 164.441 153.95 165.038 153.95C165.635 153.95 166.107 153.768 166.452 153.404C166.807 153.031 166.984 152.499 166.984 151.808V147.51H168.58ZM177.756 151.178C177.756 151.467 177.737 151.729 177.7 151.962H171.806C171.852 152.578 172.081 153.073 172.492 153.446C172.902 153.819 173.406 154.006 174.004 154.006C174.862 154.006 175.469 153.647 175.824 152.928H177.546C177.312 153.637 176.888 154.221 176.272 154.678C175.665 155.126 174.909 155.35 174.004 155.35C173.266 155.35 172.604 155.187 172.016 154.86C171.437 154.524 170.98 154.057 170.644 153.46C170.317 152.853 170.154 152.153 170.154 151.36C170.154 150.567 170.312 149.871 170.63 149.274C170.956 148.667 171.409 148.201 171.988 147.874C172.576 147.547 173.248 147.384 174.004 147.384C174.732 147.384 175.38 147.543 175.95 147.86C176.519 148.177 176.962 148.625 177.28 149.204C177.597 149.773 177.756 150.431 177.756 151.178ZM176.09 150.674C176.08 150.086 175.87 149.615 175.46 149.26C175.049 148.905 174.54 148.728 173.934 148.728C173.383 148.728 172.912 148.905 172.52 149.26C172.128 149.605 171.894 150.077 171.82 150.674H176.09ZM183.218 147.384C183.825 147.384 184.366 147.51 184.842 147.762C185.328 148.014 185.706 148.387 185.976 148.882C186.247 149.377 186.382 149.974 186.382 150.674V155.224H184.8V150.912C184.8 150.221 184.628 149.694 184.282 149.33C183.937 148.957 183.466 148.77 182.868 148.77C182.271 148.77 181.795 148.957 181.44 149.33C181.095 149.694 180.922 150.221 180.922 150.912V155.224H179.326V147.51H180.922V148.392C181.184 148.075 181.515 147.827 181.916 147.65C182.327 147.473 182.761 147.384 183.218 147.384ZM187.886 151.36C187.886 150.567 188.045 149.871 188.362 149.274C188.689 148.667 189.137 148.201 189.706 147.874C190.275 147.547 190.929 147.384 191.666 147.384C192.599 147.384 193.369 147.608 193.976 148.056C194.592 148.495 195.007 149.125 195.222 149.946H193.5C193.36 149.563 193.136 149.265 192.828 149.05C192.52 148.835 192.133 148.728 191.666 148.728C191.013 148.728 190.49 148.961 190.098 149.428C189.715 149.885 189.524 150.529 189.524 151.36C189.524 152.191 189.715 152.839 190.098 153.306C190.49 153.773 191.013 154.006 191.666 154.006C192.59 154.006 193.201 153.6 193.5 152.788H195.222C194.998 153.572 194.578 154.197 193.962 154.664C193.346 155.121 192.581 155.35 191.666 155.35C190.929 155.35 190.275 155.187 189.706 154.86C189.137 154.524 188.689 154.057 188.362 153.46C188.045 152.853 187.886 152.153 187.886 151.36ZM197.625 146.488C197.335 146.488 197.093 146.39 196.897 146.194C196.701 145.998 196.603 145.755 196.603 145.466C196.603 145.177 196.701 144.934 196.897 144.738C197.093 144.542 197.335 144.444 197.625 144.444C197.905 144.444 198.143 144.542 198.339 144.738C198.535 144.934 198.633 145.177 198.633 145.466C198.633 145.755 198.535 145.998 198.339 146.194C198.143 146.39 197.905 146.488 197.625 146.488ZM198.409 147.51V155.224H196.813V147.51H198.409ZM204.396 147.384C205.003 147.384 205.544 147.51 206.02 147.762C206.505 148.014 206.883 148.387 207.154 148.882C207.425 149.377 207.56 149.974 207.56 150.674V155.224H205.978V150.912C205.978 150.221 205.805 149.694 205.46 149.33C205.115 148.957 204.643 148.77 204.046 148.77C203.449 148.77 202.973 148.957 202.618 149.33C202.273 149.694 202.1 150.221 202.1 150.912V155.224H200.504V147.51H202.1V148.392C202.361 148.075 202.693 147.827 203.094 147.65C203.505 147.473 203.939 147.384 204.396 147.384ZM212.704 147.384C213.301 147.384 213.829 147.505 214.286 147.748C214.753 147.981 215.117 148.275 215.378 148.63V147.51H216.988V155.35C216.988 156.059 216.839 156.689 216.54 157.24C216.241 157.8 215.807 158.239 215.238 158.556C214.678 158.873 214.006 159.032 213.222 159.032C212.177 159.032 211.309 158.785 210.618 158.29C209.927 157.805 209.535 157.142 209.442 156.302H211.024C211.145 156.703 211.402 157.025 211.794 157.268C212.195 157.52 212.671 157.646 213.222 157.646C213.866 157.646 214.384 157.45 214.776 157.058C215.177 156.666 215.378 156.097 215.378 155.35V154.062C215.107 154.426 214.739 154.734 214.272 154.986C213.815 155.229 213.292 155.35 212.704 155.35C212.032 155.35 211.416 155.182 210.856 154.846C210.305 154.501 209.867 154.025 209.54 153.418C209.223 152.802 209.064 152.107 209.064 151.332C209.064 150.557 209.223 149.871 209.54 149.274C209.867 148.677 210.305 148.215 210.856 147.888C211.416 147.552 212.032 147.384 212.704 147.384ZM215.378 151.36C215.378 150.828 215.266 150.366 215.042 149.974C214.827 149.582 214.543 149.283 214.188 149.078C213.833 148.873 213.451 148.77 213.04 148.77C212.629 148.77 212.247 148.873 211.892 149.078C211.537 149.274 211.248 149.568 211.024 149.96C210.809 150.343 210.702 150.8 210.702 151.332C210.702 151.864 210.809 152.331 211.024 152.732C211.248 153.133 211.537 153.441 211.892 153.656C212.256 153.861 212.639 153.964 213.04 153.964C213.451 153.964 213.833 153.861 214.188 153.656C214.543 153.451 214.827 153.152 215.042 152.76C215.266 152.359 215.378 151.892 215.378 151.36Z" fill="white"/>
<rect x="97" y="108.224" width="158" height="66" rx="11" stroke="url(#paint4_linear_3879_13746)" stroke-width="2"/>
</g>
<rect x="268" y="107.25" width="154" height="68" rx="12" fill="#FAA204"/>
<path d="M300.238 130.418C300.238 130.913 300.121 131.379 299.888 131.818C299.654 132.257 299.281 132.616 298.768 132.896C298.254 133.167 297.596 133.302 296.794 133.302H295.03V137.25H293.434V127.52H296.794C297.54 127.52 298.17 127.651 298.684 127.912C299.206 128.164 299.594 128.509 299.846 128.948C300.107 129.387 300.238 129.877 300.238 130.418ZM296.794 132C297.4 132 297.853 131.865 298.152 131.594C298.45 131.314 298.6 130.922 298.6 130.418C298.6 129.354 297.998 128.822 296.794 128.822H295.03V132H296.794ZM303.356 130.656C303.589 130.264 303.897 129.961 304.28 129.746C304.672 129.522 305.134 129.41 305.666 129.41V131.062H305.26C304.635 131.062 304.159 131.221 303.832 131.538C303.515 131.855 303.356 132.406 303.356 133.19V137.25H301.76V129.536H303.356V130.656ZM314.203 133.204C314.203 133.493 314.184 133.755 314.147 133.988H308.253C308.3 134.604 308.528 135.099 308.939 135.472C309.35 135.845 309.854 136.032 310.451 136.032C311.31 136.032 311.916 135.673 312.271 134.954H313.993C313.76 135.663 313.335 136.247 312.719 136.704C312.112 137.152 311.356 137.376 310.451 137.376C309.714 137.376 309.051 137.213 308.463 136.886C307.884 136.55 307.427 136.083 307.091 135.486C306.764 134.879 306.601 134.179 306.601 133.386C306.601 132.593 306.76 131.897 307.077 131.3C307.404 130.693 307.856 130.227 308.435 129.9C309.023 129.573 309.695 129.41 310.451 129.41C311.179 129.41 311.828 129.569 312.397 129.886C312.966 130.203 313.41 130.651 313.727 131.23C314.044 131.799 314.203 132.457 314.203 133.204ZM312.537 132.7C312.528 132.112 312.318 131.641 311.907 131.286C311.496 130.931 310.988 130.754 310.381 130.754C309.83 130.754 309.359 130.931 308.967 131.286C308.575 131.631 308.342 132.103 308.267 132.7H312.537ZM321.696 131.51V132.854H315.942V131.51H321.696ZM330.767 130.418C330.767 130.913 330.65 131.379 330.417 131.818C330.184 132.257 329.81 132.616 329.297 132.896C328.784 133.167 328.126 133.302 327.323 133.302H325.559V137.25H323.963V127.52H327.323C328.07 127.52 328.7 127.651 329.213 127.912C329.736 128.164 330.123 128.509 330.375 128.948C330.636 129.387 330.767 129.877 330.767 130.418ZM327.323 132C327.93 132 328.382 131.865 328.681 131.594C328.98 131.314 329.129 130.922 329.129 130.418C329.129 129.354 328.527 128.822 327.323 128.822H325.559V132H327.323ZM331.757 133.358C331.757 132.583 331.916 131.897 332.233 131.3C332.56 130.703 332.999 130.241 333.549 129.914C334.109 129.578 334.725 129.41 335.397 129.41C336.004 129.41 336.531 129.531 336.979 129.774C337.437 130.007 337.801 130.301 338.071 130.656V129.536H339.681V137.25H338.071V136.102C337.801 136.466 337.432 136.769 336.965 137.012C336.499 137.255 335.967 137.376 335.369 137.376C334.707 137.376 334.1 137.208 333.549 136.872C332.999 136.527 332.56 136.051 332.233 135.444C331.916 134.828 331.757 134.133 331.757 133.358ZM338.071 133.386C338.071 132.854 337.959 132.392 337.735 132C337.521 131.608 337.236 131.309 336.881 131.104C336.527 130.899 336.144 130.796 335.733 130.796C335.323 130.796 334.94 130.899 334.585 131.104C334.231 131.3 333.941 131.594 333.717 131.986C333.503 132.369 333.395 132.826 333.395 133.358C333.395 133.89 333.503 134.357 333.717 134.758C333.941 135.159 334.231 135.467 334.585 135.682C334.949 135.887 335.332 135.99 335.733 135.99C336.144 135.99 336.527 135.887 336.881 135.682C337.236 135.477 337.521 135.178 337.735 134.786C337.959 134.385 338.071 133.918 338.071 133.386ZM341.246 133.386C341.246 132.593 341.404 131.897 341.722 131.3C342.048 130.693 342.496 130.227 343.066 129.9C343.635 129.573 344.288 129.41 345.026 129.41C345.959 129.41 346.729 129.634 347.336 130.082C347.952 130.521 348.367 131.151 348.582 131.972H346.86C346.72 131.589 346.496 131.291 346.188 131.076C345.88 130.861 345.492 130.754 345.026 130.754C344.372 130.754 343.85 130.987 343.458 131.454C343.075 131.911 342.884 132.555 342.884 133.386C342.884 134.217 343.075 134.865 343.458 135.332C343.85 135.799 344.372 136.032 345.026 136.032C345.95 136.032 346.561 135.626 346.86 134.814H348.582C348.358 135.598 347.938 136.223 347.322 136.69C346.706 137.147 345.94 137.376 345.026 137.376C344.288 137.376 343.635 137.213 343.066 136.886C342.496 136.55 342.048 136.083 341.722 135.486C341.404 134.879 341.246 134.179 341.246 133.386ZM353.224 133.4L356.78 137.25H354.624L351.768 133.932V137.25H350.172V126.89H351.768V132.91L354.568 129.536H356.78L353.224 133.4ZM357.392 133.358C357.392 132.583 357.551 131.897 357.868 131.3C358.195 130.703 358.633 130.241 359.184 129.914C359.744 129.578 360.36 129.41 361.032 129.41C361.639 129.41 362.166 129.531 362.614 129.774C363.071 130.007 363.435 130.301 363.706 130.656V129.536H365.316V137.25H363.706V136.102C363.435 136.466 363.067 136.769 362.6 137.012C362.133 137.255 361.601 137.376 361.004 137.376C360.341 137.376 359.735 137.208 359.184 136.872C358.633 136.527 358.195 136.051 357.868 135.444C357.551 134.828 357.392 134.133 357.392 133.358ZM363.706 133.386C363.706 132.854 363.594 132.392 363.37 132C363.155 131.608 362.871 131.309 362.516 131.104C362.161 130.899 361.779 130.796 361.368 130.796C360.957 130.796 360.575 130.899 360.22 131.104C359.865 131.3 359.576 131.594 359.352 131.986C359.137 132.369 359.03 132.826 359.03 133.358C359.03 133.89 359.137 134.357 359.352 134.758C359.576 135.159 359.865 135.467 360.22 135.682C360.584 135.887 360.967 135.99 361.368 135.99C361.779 135.99 362.161 135.887 362.516 135.682C362.871 135.477 363.155 135.178 363.37 134.786C363.594 134.385 363.706 133.918 363.706 133.386ZM370.52 129.41C371.118 129.41 371.645 129.531 372.102 129.774C372.569 130.007 372.933 130.301 373.194 130.656V129.536H374.804V137.376C374.804 138.085 374.655 138.715 374.356 139.266C374.058 139.826 373.624 140.265 373.054 140.582C372.494 140.899 371.822 141.058 371.038 141.058C369.993 141.058 369.125 140.811 368.434 140.316C367.744 139.831 367.352 139.168 367.258 138.328H368.84C368.962 138.729 369.218 139.051 369.61 139.294C370.012 139.546 370.488 139.672 371.038 139.672C371.682 139.672 372.2 139.476 372.592 139.084C372.994 138.692 373.194 138.123 373.194 137.376V136.088C372.924 136.452 372.555 136.76 372.088 137.012C371.631 137.255 371.108 137.376 370.52 137.376C369.848 137.376 369.232 137.208 368.672 136.872C368.122 136.527 367.683 136.051 367.356 135.444C367.039 134.828 366.88 134.133 366.88 133.358C366.88 132.583 367.039 131.897 367.356 131.3C367.683 130.703 368.122 130.241 368.672 129.914C369.232 129.578 369.848 129.41 370.52 129.41ZM373.194 133.386C373.194 132.854 373.082 132.392 372.858 132C372.644 131.608 372.359 131.309 372.004 131.104C371.65 130.899 371.267 130.796 370.856 130.796C370.446 130.796 370.063 130.899 369.708 131.104C369.354 131.3 369.064 131.594 368.84 131.986C368.626 132.369 368.518 132.826 368.518 133.358C368.518 133.89 368.626 134.357 368.84 134.758C369.064 135.159 369.354 135.467 369.708 135.682C370.072 135.887 370.455 135.99 370.856 135.99C371.267 135.99 371.65 135.887 372.004 135.682C372.359 135.477 372.644 135.178 372.858 134.786C373.082 134.385 373.194 133.918 373.194 133.386ZM383.971 133.204C383.971 133.493 383.952 133.755 383.915 133.988H378.021C378.067 134.604 378.296 135.099 378.707 135.472C379.117 135.845 379.621 136.032 380.219 136.032C381.077 136.032 381.684 135.673 382.039 134.954H383.761C383.527 135.663 383.103 136.247 382.487 136.704C381.88 137.152 381.124 137.376 380.219 137.376C379.481 137.376 378.819 137.213 378.231 136.886C377.652 136.55 377.195 136.083 376.859 135.486C376.532 134.879 376.369 134.179 376.369 133.386C376.369 132.593 376.527 131.897 376.845 131.3C377.171 130.693 377.624 130.227 378.203 129.9C378.791 129.573 379.463 129.41 380.219 129.41C380.947 129.41 381.595 129.569 382.165 129.886C382.734 130.203 383.177 130.651 383.495 131.23C383.812 131.799 383.971 132.457 383.971 133.204ZM382.305 132.7C382.295 132.112 382.085 131.641 381.675 131.286C381.264 130.931 380.755 130.754 380.149 130.754C379.598 130.754 379.127 130.931 378.735 131.286C378.343 131.631 378.109 132.103 378.035 132.7H382.305ZM385.009 133.358C385.009 132.583 385.168 131.897 385.485 131.3C385.812 130.703 386.251 130.241 386.801 129.914C387.361 129.578 387.982 129.41 388.663 129.41C389.167 129.41 389.662 129.522 390.147 129.746C390.642 129.961 391.034 130.25 391.323 130.614V126.89H392.933V137.25H391.323V136.088C391.062 136.461 390.698 136.769 390.231 137.012C389.774 137.255 389.247 137.376 388.649 137.376C387.977 137.376 387.361 137.208 386.801 136.872C386.251 136.527 385.812 136.051 385.485 135.444C385.168 134.828 385.009 134.133 385.009 133.358ZM391.323 133.386C391.323 132.854 391.211 132.392 390.987 132C390.773 131.608 390.488 131.309 390.133 131.104C389.779 130.899 389.396 130.796 388.985 130.796C388.575 130.796 388.192 130.899 387.837 131.104C387.483 131.3 387.193 131.594 386.969 131.986C386.755 132.369 386.647 132.826 386.647 133.358C386.647 133.89 386.755 134.357 386.969 134.758C387.193 135.159 387.483 135.467 387.837 135.682C388.201 135.887 388.584 135.99 388.985 135.99C389.396 135.99 389.779 135.887 390.133 135.682C390.488 135.477 390.773 135.178 390.987 134.786C391.211 134.385 391.323 133.918 391.323 133.386ZM299.681 150.252C300.204 150.345 300.647 150.621 301.011 151.078C301.375 151.535 301.557 152.053 301.557 152.632C301.557 153.127 301.426 153.575 301.165 153.976C300.913 154.368 300.544 154.681 300.059 154.914C299.574 155.138 299.009 155.25 298.365 155.25H294.473V145.52H298.183C298.846 145.52 299.415 145.632 299.891 145.856C300.367 146.08 300.726 146.383 300.969 146.766C301.212 147.139 301.333 147.559 301.333 148.026C301.333 148.586 301.184 149.053 300.885 149.426C300.586 149.799 300.185 150.075 299.681 150.252ZM296.069 149.608H298.043C298.566 149.608 298.972 149.491 299.261 149.258C299.56 149.015 299.709 148.67 299.709 148.222C299.709 147.783 299.56 147.443 299.261 147.2C298.972 146.948 298.566 146.822 298.043 146.822H296.069V149.608ZM298.225 153.948C298.766 153.948 299.191 153.817 299.499 153.556C299.807 153.295 299.961 152.931 299.961 152.464C299.961 151.988 299.798 151.61 299.471 151.33C299.144 151.05 298.71 150.91 298.169 150.91H296.069V153.948H298.225ZM310.277 147.536V155.25H308.681V154.34C308.429 154.657 308.098 154.909 307.687 155.096C307.286 155.273 306.857 155.362 306.399 155.362C305.793 155.362 305.247 155.236 304.761 154.984C304.285 154.732 303.907 154.359 303.627 153.864C303.357 153.369 303.221 152.772 303.221 152.072V147.536H304.803V151.834C304.803 152.525 304.976 153.057 305.321 153.43C305.667 153.794 306.138 153.976 306.735 153.976C307.333 153.976 307.804 153.794 308.149 153.43C308.504 153.057 308.681 152.525 308.681 151.834V147.536H310.277ZM315.183 155.376C314.576 155.376 314.03 155.269 313.545 155.054C313.069 154.83 312.691 154.531 312.411 154.158C312.131 153.775 311.982 153.351 311.963 152.884H313.615C313.643 153.211 313.797 153.486 314.077 153.71C314.366 153.925 314.726 154.032 315.155 154.032C315.603 154.032 315.948 153.948 316.191 153.78C316.443 153.603 316.569 153.379 316.569 153.108C316.569 152.819 316.429 152.604 316.149 152.464C315.878 152.324 315.444 152.17 314.847 152.002C314.268 151.843 313.797 151.689 313.433 151.54C313.069 151.391 312.752 151.162 312.481 150.854C312.22 150.546 312.089 150.14 312.089 149.636C312.089 149.225 312.21 148.852 312.453 148.516C312.696 148.171 313.041 147.9 313.489 147.704C313.946 147.508 314.469 147.41 315.057 147.41C315.934 147.41 316.639 147.634 317.171 148.082C317.712 148.521 318.002 149.123 318.039 149.888H316.443C316.415 149.543 316.275 149.267 316.023 149.062C315.771 148.857 315.43 148.754 315.001 148.754C314.581 148.754 314.259 148.833 314.035 148.992C313.811 149.151 313.699 149.361 313.699 149.622C313.699 149.827 313.774 150 313.923 150.14C314.072 150.28 314.254 150.392 314.469 150.476C314.684 150.551 315.001 150.649 315.421 150.77C315.981 150.919 316.438 151.073 316.793 151.232C317.157 151.381 317.47 151.605 317.731 151.904C317.992 152.203 318.128 152.599 318.137 153.094C318.137 153.533 318.016 153.925 317.773 154.27C317.53 154.615 317.185 154.886 316.737 155.082C316.298 155.278 315.78 155.376 315.183 155.376ZM320.674 146.514C320.384 146.514 320.142 146.416 319.946 146.22C319.75 146.024 319.652 145.781 319.652 145.492C319.652 145.203 319.75 144.96 319.946 144.764C320.142 144.568 320.384 144.47 320.674 144.47C320.954 144.47 321.192 144.568 321.388 144.764C321.584 144.96 321.682 145.203 321.682 145.492C321.682 145.781 321.584 146.024 321.388 146.22C321.192 146.416 320.954 146.514 320.674 146.514ZM321.458 147.536V155.25H319.862V147.536H321.458ZM327.445 147.41C328.052 147.41 328.593 147.536 329.069 147.788C329.554 148.04 329.932 148.413 330.203 148.908C330.474 149.403 330.609 150 330.609 150.7V155.25H329.027V150.938C329.027 150.247 328.854 149.72 328.509 149.356C328.164 148.983 327.692 148.796 327.095 148.796C326.498 148.796 326.022 148.983 325.667 149.356C325.322 149.72 325.149 150.247 325.149 150.938V155.25H323.553V147.536H325.149V148.418C325.41 148.101 325.742 147.853 326.143 147.676C326.554 147.499 326.988 147.41 327.445 147.41ZM339.715 151.204C339.715 151.493 339.696 151.755 339.659 151.988H333.765C333.811 152.604 334.04 153.099 334.451 153.472C334.861 153.845 335.365 154.032 335.963 154.032C336.821 154.032 337.428 153.673 337.783 152.954H339.505C339.271 153.663 338.847 154.247 338.231 154.704C337.624 155.152 336.868 155.376 335.963 155.376C335.225 155.376 334.563 155.213 333.975 154.886C333.396 154.55 332.939 154.083 332.603 153.486C332.276 152.879 332.113 152.179 332.113 151.386C332.113 150.593 332.271 149.897 332.589 149.3C332.915 148.693 333.368 148.227 333.947 147.9C334.535 147.573 335.207 147.41 335.963 147.41C336.691 147.41 337.339 147.569 337.909 147.886C338.478 148.203 338.921 148.651 339.239 149.23C339.556 149.799 339.715 150.457 339.715 151.204ZM338.049 150.7C338.039 150.112 337.829 149.641 337.419 149.286C337.008 148.931 336.499 148.754 335.893 148.754C335.342 148.754 334.871 148.931 334.479 149.286C334.087 149.631 333.853 150.103 333.779 150.7H338.049ZM344.085 155.376C343.479 155.376 342.933 155.269 342.447 155.054C341.971 154.83 341.593 154.531 341.313 154.158C341.033 153.775 340.884 153.351 340.865 152.884H342.517C342.545 153.211 342.699 153.486 342.979 153.71C343.269 153.925 343.628 154.032 344.057 154.032C344.505 154.032 344.851 153.948 345.093 153.78C345.345 153.603 345.471 153.379 345.471 153.108C345.471 152.819 345.331 152.604 345.051 152.464C344.781 152.324 344.347 152.17 343.749 152.002C343.171 151.843 342.699 151.689 342.335 151.54C341.971 151.391 341.654 151.162 341.383 150.854C341.122 150.546 340.991 150.14 340.991 149.636C340.991 149.225 341.113 148.852 341.355 148.516C341.598 148.171 341.943 147.9 342.391 147.704C342.849 147.508 343.371 147.41 343.959 147.41C344.837 147.41 345.541 147.634 346.073 148.082C346.615 148.521 346.904 149.123 346.941 149.888H345.345C345.317 149.543 345.177 149.267 344.925 149.062C344.673 148.857 344.333 148.754 343.903 148.754C343.483 148.754 343.161 148.833 342.937 148.992C342.713 149.151 342.601 149.361 342.601 149.622C342.601 149.827 342.676 150 342.825 150.14C342.975 150.28 343.157 150.392 343.371 150.476C343.586 150.551 343.903 150.649 344.323 150.77C344.883 150.919 345.341 151.073 345.695 151.232C346.059 151.381 346.372 151.605 346.633 151.904C346.895 152.203 347.03 152.599 347.039 153.094C347.039 153.533 346.918 153.925 346.675 154.27C346.433 154.615 346.087 154.886 345.639 155.082C345.201 155.278 344.683 155.376 344.085 155.376ZM351.564 155.376C350.957 155.376 350.411 155.269 349.926 155.054C349.45 154.83 349.072 154.531 348.792 154.158C348.512 153.775 348.363 153.351 348.344 152.884H349.996C350.024 153.211 350.178 153.486 350.458 153.71C350.747 153.925 351.107 154.032 351.536 154.032C351.984 154.032 352.329 153.948 352.572 153.78C352.824 153.603 352.95 153.379 352.95 153.108C352.95 152.819 352.81 152.604 352.53 152.464C352.259 152.324 351.825 152.17 351.228 152.002C350.649 151.843 350.178 151.689 349.814 151.54C349.45 151.391 349.133 151.162 348.862 150.854C348.601 150.546 348.47 150.14 348.47 149.636C348.47 149.225 348.591 148.852 348.834 148.516C349.077 148.171 349.422 147.9 349.87 147.704C350.327 147.508 350.85 147.41 351.438 147.41C352.315 147.41 353.02 147.634 353.552 148.082C354.093 148.521 354.383 149.123 354.42 149.888H352.824C352.796 149.543 352.656 149.267 352.404 149.062C352.152 148.857 351.811 148.754 351.382 148.754C350.962 148.754 350.64 148.833 350.416 148.992C350.192 149.151 350.08 149.361 350.08 149.622C350.08 149.827 350.155 150 350.304 150.14C350.453 150.28 350.635 150.392 350.85 150.476C351.065 150.551 351.382 150.649 351.802 150.77C352.362 150.919 352.819 151.073 353.174 151.232C353.538 151.381 353.851 151.605 354.112 151.904C354.373 152.203 354.509 152.599 354.518 153.094C354.518 153.533 354.397 153.925 354.154 154.27C353.911 154.615 353.566 154.886 353.118 155.082C352.679 155.278 352.161 155.376 351.564 155.376ZM364.933 155.25L362.693 151.358H361.475V155.25H359.879V145.52H363.239C363.986 145.52 364.616 145.651 365.129 145.912C365.652 146.173 366.039 146.523 366.291 146.962C366.552 147.401 366.683 147.891 366.683 148.432C366.683 149.067 366.496 149.645 366.123 150.168C365.759 150.681 365.194 151.031 364.429 151.218L366.837 155.25H364.933ZM361.475 150.084H363.239C363.836 150.084 364.284 149.935 364.583 149.636C364.891 149.337 365.045 148.936 365.045 148.432C365.045 147.928 364.896 147.536 364.597 147.256C364.298 146.967 363.846 146.822 363.239 146.822H361.475V150.084ZM375.711 147.536V155.25H374.115V154.34C373.863 154.657 373.531 154.909 373.121 155.096C372.719 155.273 372.29 155.362 371.833 155.362C371.226 155.362 370.68 155.236 370.195 154.984C369.719 154.732 369.341 154.359 369.061 153.864C368.79 153.369 368.655 152.772 368.655 152.072V147.536H370.237V151.834C370.237 152.525 370.409 153.057 370.755 153.43C371.1 153.794 371.571 153.976 372.169 153.976C372.766 153.976 373.237 153.794 373.583 153.43C373.937 153.057 374.115 152.525 374.115 151.834V147.536H375.711ZM379.413 144.89V155.25H377.817V144.89H379.413ZM388.578 151.204C388.578 151.493 388.559 151.755 388.522 151.988H382.628C382.675 152.604 382.903 153.099 383.314 153.472C383.725 153.845 384.229 154.032 384.826 154.032C385.685 154.032 386.291 153.673 386.646 152.954H388.368C388.135 153.663 387.71 154.247 387.094 154.704C386.487 155.152 385.731 155.376 384.826 155.376C384.089 155.376 383.426 155.213 382.838 154.886C382.259 154.55 381.802 154.083 381.466 153.486C381.139 152.879 380.976 152.179 380.976 151.386C380.976 150.593 381.135 149.897 381.452 149.3C381.779 148.693 382.231 148.227 382.81 147.9C383.398 147.573 384.07 147.41 384.826 147.41C385.554 147.41 386.203 147.569 386.772 147.886C387.341 148.203 387.785 148.651 388.102 149.23C388.419 149.799 388.578 150.457 388.578 151.204ZM386.912 150.7C386.903 150.112 386.693 149.641 386.282 149.286C385.871 148.931 385.363 148.754 384.756 148.754C384.205 148.754 383.734 148.931 383.342 149.286C382.95 149.631 382.717 150.103 382.642 150.7H386.912ZM392.949 155.376C392.342 155.376 391.796 155.269 391.311 155.054C390.835 154.83 390.457 154.531 390.177 154.158C389.897 153.775 389.747 153.351 389.729 152.884H391.381C391.409 153.211 391.563 153.486 391.843 153.71C392.132 153.925 392.491 154.032 392.921 154.032C393.369 154.032 393.714 153.948 393.957 153.78C394.209 153.603 394.335 153.379 394.335 153.108C394.335 152.819 394.195 152.604 393.915 152.464C393.644 152.324 393.21 152.17 392.613 152.002C392.034 151.843 391.563 151.689 391.199 151.54C390.835 151.391 390.517 151.162 390.247 150.854C389.985 150.546 389.855 150.14 389.855 149.636C389.855 149.225 389.976 148.852 390.219 148.516C390.461 148.171 390.807 147.9 391.255 147.704C391.712 147.508 392.235 147.41 392.823 147.41C393.7 147.41 394.405 147.634 394.937 148.082C395.478 148.521 395.767 149.123 395.805 149.888H394.209C394.181 149.543 394.041 149.267 393.789 149.062C393.537 148.857 393.196 148.754 392.767 148.754C392.347 148.754 392.025 148.833 391.801 148.992C391.577 149.151 391.465 149.361 391.465 149.622C391.465 149.827 391.539 150 391.689 150.14C391.838 150.28 392.02 150.392 392.235 150.476C392.449 150.551 392.767 150.649 393.187 150.77C393.747 150.919 394.204 151.073 394.559 151.232C394.923 151.381 395.235 151.605 395.497 151.904C395.758 152.203 395.893 152.599 395.903 153.094C395.903 153.533 395.781 153.925 395.539 154.27C395.296 154.615 394.951 154.886 394.503 155.082C394.064 155.278 393.546 155.376 392.949 155.376Z" fill="white"/>
<path d="M157.904 321.978H153.248L152.448 324.25H150.544L154.528 313.114H156.64L160.624 324.25H158.704L157.904 321.978ZM157.392 320.49L155.584 315.322L153.76 320.49H157.392ZM170.34 315.434V324.25H168.516V323.21C168.228 323.573 167.85 323.861 167.38 324.074C166.922 324.277 166.431 324.378 165.908 324.378C165.215 324.378 164.591 324.234 164.036 323.946C163.492 323.658 163.06 323.231 162.74 322.666C162.431 322.101 162.276 321.418 162.276 320.618V315.434H164.084V320.346C164.084 321.135 164.282 321.743 164.676 322.17C165.071 322.586 165.61 322.794 166.292 322.794C166.975 322.794 167.514 322.586 167.908 322.17C168.314 321.743 168.516 321.135 168.516 320.346V315.434H170.34ZM172.139 319.802C172.139 318.917 172.32 318.133 172.683 317.45C173.056 316.767 173.558 316.239 174.187 315.866C174.827 315.482 175.536 315.29 176.315 315.29C176.891 315.29 177.456 315.418 178.011 315.674C178.576 315.919 179.024 316.25 179.355 316.666V312.41H181.195V324.25H179.355V322.922C179.056 323.349 178.64 323.701 178.107 323.978C177.584 324.255 176.982 324.394 176.299 324.394C175.531 324.394 174.827 324.202 174.187 323.818C173.558 323.423 173.056 322.879 172.683 322.186C172.32 321.482 172.139 320.687 172.139 319.802ZM179.355 319.834C179.355 319.226 179.227 318.698 178.971 318.25C178.726 317.802 178.4 317.461 177.995 317.226C177.59 316.991 177.152 316.874 176.683 316.874C176.214 316.874 175.776 316.991 175.371 317.226C174.966 317.45 174.635 317.786 174.379 318.234C174.134 318.671 174.011 319.194 174.011 319.802C174.011 320.41 174.134 320.943 174.379 321.402C174.635 321.861 174.966 322.213 175.371 322.458C175.787 322.693 176.224 322.81 176.683 322.81C177.152 322.81 177.59 322.693 177.995 322.458C178.4 322.223 178.726 321.882 178.971 321.434C179.227 320.975 179.355 320.442 179.355 319.834ZM184.519 314.266C184.188 314.266 183.911 314.154 183.687 313.93C183.463 313.706 183.351 313.429 183.351 313.098C183.351 312.767 183.463 312.49 183.687 312.266C183.911 312.042 184.188 311.93 184.519 311.93C184.839 311.93 185.111 312.042 185.335 312.266C185.559 312.49 185.671 312.767 185.671 313.098C185.671 313.429 185.559 313.706 185.335 313.93C185.111 314.154 184.839 314.266 184.519 314.266ZM185.415 315.434V324.25H183.591V315.434H185.415ZM189.937 316.922V321.802C189.937 322.133 190.012 322.373 190.161 322.522C190.321 322.661 190.588 322.73 190.961 322.73H192.081V324.25H190.641C189.82 324.25 189.191 324.058 188.753 323.674C188.316 323.29 188.097 322.666 188.097 321.802V316.922H187.057V315.434H188.097V313.242H189.937V315.434H192.081V316.922H189.937ZM206.799 313.13V324.25H204.975V319.386H199.743V324.25H197.919V313.13H199.743V317.898H204.975V313.13H206.799ZM210.128 314.266C209.797 314.266 209.52 314.154 209.296 313.93C209.072 313.706 208.96 313.429 208.96 313.098C208.96 312.767 209.072 312.49 209.296 312.266C209.52 312.042 209.797 311.93 210.128 311.93C210.448 311.93 210.72 312.042 210.944 312.266C211.168 312.49 211.28 312.767 211.28 313.098C211.28 313.429 211.168 313.706 210.944 313.93C210.72 314.154 210.448 314.266 210.128 314.266ZM211.024 315.434V324.25H209.2V315.434H211.024ZM216.619 324.394C215.925 324.394 215.301 324.271 214.747 324.026C214.203 323.77 213.771 323.429 213.451 323.002C213.131 322.565 212.96 322.079 212.939 321.546H214.827C214.859 321.919 215.035 322.234 215.355 322.49C215.685 322.735 216.096 322.858 216.587 322.858C217.099 322.858 217.493 322.762 217.771 322.57C218.059 322.367 218.203 322.111 218.203 321.802C218.203 321.471 218.043 321.226 217.723 321.066C217.413 320.906 216.917 320.73 216.235 320.538C215.573 320.357 215.035 320.181 214.619 320.01C214.203 319.839 213.84 319.578 213.531 319.226C213.232 318.874 213.083 318.41 213.083 317.834C213.083 317.365 213.221 316.938 213.499 316.554C213.776 316.159 214.171 315.85 214.683 315.626C215.205 315.402 215.803 315.29 216.475 315.29C217.477 315.29 218.283 315.546 218.891 316.058C219.509 316.559 219.84 317.247 219.883 318.122H218.059C218.027 317.727 217.867 317.413 217.579 317.178C217.291 316.943 216.901 316.826 216.411 316.826C215.931 316.826 215.563 316.917 215.307 317.098C215.051 317.279 214.923 317.519 214.923 317.818C214.923 318.053 215.008 318.25 215.179 318.41C215.349 318.57 215.557 318.698 215.803 318.794C216.048 318.879 216.411 318.991 216.891 319.13C217.531 319.301 218.053 319.477 218.459 319.658C218.875 319.829 219.232 320.085 219.531 320.426C219.829 320.767 219.984 321.221 219.995 321.786C219.995 322.287 219.856 322.735 219.579 323.13C219.301 323.525 218.907 323.834 218.395 324.058C217.893 324.282 217.301 324.394 216.619 324.394ZM224.094 316.922V321.802C224.094 322.133 224.168 322.373 224.318 322.522C224.478 322.661 224.744 322.73 225.118 322.73H226.238V324.25H224.798C223.976 324.25 223.347 324.058 222.91 323.674C222.472 323.29 222.254 322.666 222.254 321.802V316.922H221.214V315.434H222.254V313.242H224.094V315.434H226.238V316.922H224.094ZM231.743 324.394C230.911 324.394 230.159 324.207 229.487 323.834C228.815 323.45 228.287 322.917 227.903 322.234C227.519 321.541 227.327 320.741 227.327 319.834C227.327 318.938 227.524 318.143 227.919 317.45C228.313 316.757 228.852 316.223 229.535 315.85C230.217 315.477 230.98 315.29 231.823 315.29C232.665 315.29 233.428 315.477 234.111 315.85C234.793 316.223 235.332 316.757 235.727 317.45C236.121 318.143 236.319 318.938 236.319 319.834C236.319 320.73 236.116 321.525 235.711 322.218C235.305 322.911 234.751 323.45 234.047 323.834C233.353 324.207 232.585 324.394 231.743 324.394ZM231.743 322.81C232.212 322.81 232.649 322.698 233.055 322.474C233.471 322.25 233.807 321.914 234.063 321.466C234.319 321.018 234.447 320.474 234.447 319.834C234.447 319.194 234.324 318.655 234.079 318.218C233.833 317.77 233.508 317.434 233.103 317.21C232.697 316.986 232.26 316.874 231.791 316.874C231.321 316.874 230.884 316.986 230.479 317.21C230.084 317.434 229.769 317.77 229.535 318.218C229.3 318.655 229.183 319.194 229.183 319.834C229.183 320.783 229.423 321.519 229.903 322.042C230.393 322.554 231.007 322.81 231.743 322.81ZM239.946 316.714C240.213 316.266 240.565 315.919 241.002 315.674C241.45 315.418 241.978 315.29 242.586 315.29V317.178H242.122C241.407 317.178 240.863 317.359 240.49 317.722C240.127 318.085 239.946 318.714 239.946 319.61V324.25H238.122V315.434H239.946V316.714ZM252.199 315.434L246.791 328.394H244.903L246.695 324.106L243.223 315.434H245.255L247.735 322.154L250.311 315.434H252.199ZM162.912 335.13V346.25H161.088V338.634L157.696 346.25H156.432L153.024 338.634V346.25H151.2V335.13H153.168L157.072 343.85L160.96 335.13H162.912ZM164.701 341.802C164.701 340.917 164.883 340.133 165.245 339.45C165.619 338.767 166.12 338.239 166.749 337.866C167.389 337.482 168.093 337.29 168.861 337.29C169.555 337.29 170.157 337.429 170.669 337.706C171.192 337.973 171.608 338.309 171.917 338.714V337.434H173.757V346.25H171.917V344.938C171.608 345.354 171.187 345.701 170.653 345.978C170.12 346.255 169.512 346.394 168.829 346.394C168.072 346.394 167.379 346.202 166.749 345.818C166.12 345.423 165.619 344.879 165.245 344.186C164.883 343.482 164.701 342.687 164.701 341.802ZM171.917 341.834C171.917 341.226 171.789 340.698 171.533 340.25C171.288 339.802 170.963 339.461 170.557 339.226C170.152 338.991 169.715 338.874 169.245 338.874C168.776 338.874 168.339 338.991 167.933 339.226C167.528 339.45 167.197 339.786 166.941 340.234C166.696 340.671 166.573 341.194 166.573 341.802C166.573 342.41 166.696 342.943 166.941 343.402C167.197 343.861 167.528 344.213 167.933 344.458C168.349 344.693 168.787 344.81 169.245 344.81C169.715 344.81 170.152 344.693 170.557 344.458C170.963 344.223 171.288 343.882 171.533 343.434C171.789 342.975 171.917 342.442 171.917 341.834ZM180.601 337.29C181.294 337.29 181.913 337.434 182.457 337.722C183.012 338.01 183.444 338.437 183.753 339.002C184.062 339.567 184.217 340.25 184.217 341.05V346.25H182.409V341.322C182.409 340.533 182.212 339.93 181.817 339.514C181.422 339.087 180.884 338.874 180.201 338.874C179.518 338.874 178.974 339.087 178.569 339.514C178.174 339.93 177.977 340.533 177.977 341.322V346.25H176.153V337.434H177.977V338.442C178.276 338.079 178.654 337.797 179.113 337.594C179.582 337.391 180.078 337.29 180.601 337.29ZM185.936 341.802C185.936 340.917 186.117 340.133 186.48 339.45C186.853 338.767 187.354 338.239 187.984 337.866C188.624 337.482 189.328 337.29 190.096 337.29C190.789 337.29 191.392 337.429 191.904 337.706C192.426 337.973 192.842 338.309 193.152 338.714V337.434H194.992V346.25H193.152V344.938C192.842 345.354 192.421 345.701 191.888 345.978C191.354 346.255 190.746 346.394 190.064 346.394C189.306 346.394 188.613 346.202 187.984 345.818C187.354 345.423 186.853 344.879 186.48 344.186C186.117 343.482 185.936 342.687 185.936 341.802ZM193.152 341.834C193.152 341.226 193.024 340.698 192.768 340.25C192.522 339.802 192.197 339.461 191.792 339.226C191.386 338.991 190.949 338.874 190.48 338.874C190.01 338.874 189.573 338.991 189.168 339.226C188.762 339.45 188.432 339.786 188.176 340.234C187.93 340.671 187.808 341.194 187.808 341.802C187.808 342.41 187.93 342.943 188.176 343.402C188.432 343.861 188.762 344.213 189.168 344.458C189.584 344.693 190.021 344.81 190.48 344.81C190.949 344.81 191.386 344.693 191.792 344.458C192.197 344.223 192.522 343.882 192.768 343.434C193.024 342.975 193.152 342.442 193.152 341.834ZM200.94 337.29C201.622 337.29 202.225 337.429 202.748 337.706C203.281 337.973 203.697 338.309 203.996 338.714V337.434H205.836V346.394C205.836 347.205 205.665 347.925 205.324 348.554C204.982 349.194 204.486 349.695 203.836 350.058C203.196 350.421 202.428 350.602 201.532 350.602C200.337 350.602 199.345 350.319 198.556 349.754C197.766 349.199 197.318 348.442 197.212 347.482H199.02C199.158 347.941 199.452 348.309 199.9 348.586C200.358 348.874 200.902 349.018 201.532 349.018C202.268 349.018 202.86 348.794 203.308 348.346C203.766 347.898 203.996 347.247 203.996 346.394V344.922C203.686 345.338 203.265 345.69 202.732 345.978C202.209 346.255 201.612 346.394 200.94 346.394C200.172 346.394 199.468 346.202 198.828 345.818C198.198 345.423 197.697 344.879 197.324 344.186C196.961 343.482 196.78 342.687 196.78 341.802C196.78 340.917 196.961 340.133 197.324 339.45C197.697 338.767 198.198 338.239 198.828 337.866C199.468 337.482 200.172 337.29 200.94 337.29ZM203.996 341.834C203.996 341.226 203.868 340.698 203.612 340.25C203.366 339.802 203.041 339.461 202.636 339.226C202.23 338.991 201.793 338.874 201.324 338.874C200.854 338.874 200.417 338.991 200.012 339.226C199.606 339.45 199.276 339.786 199.02 340.234C198.774 340.671 198.652 341.194 198.652 341.802C198.652 342.41 198.774 342.943 199.02 343.402C199.276 343.861 199.606 344.213 200.012 344.458C200.428 344.693 200.865 344.81 201.324 344.81C201.793 344.81 202.23 344.693 202.636 344.458C203.041 344.223 203.366 343.882 203.612 343.434C203.868 342.975 203.996 342.442 203.996 341.834ZM216.311 341.626C216.311 341.957 216.29 342.255 216.247 342.522H209.511C209.565 343.226 209.826 343.791 210.295 344.218C210.765 344.645 211.341 344.858 212.023 344.858C213.005 344.858 213.698 344.447 214.103 343.626H216.071C215.805 344.437 215.319 345.103 214.615 345.626C213.922 346.138 213.058 346.394 212.023 346.394C211.181 346.394 210.423 346.207 209.751 345.834C209.09 345.45 208.567 344.917 208.183 344.234C207.81 343.541 207.623 342.741 207.623 341.834C207.623 340.927 207.805 340.133 208.167 339.45C208.541 338.757 209.058 338.223 209.719 337.85C210.391 337.477 211.159 337.29 212.023 337.29C212.855 337.29 213.597 337.471 214.247 337.834C214.898 338.197 215.405 338.709 215.767 339.37C216.13 340.021 216.311 340.773 216.311 341.626ZM214.407 341.05C214.397 340.378 214.157 339.839 213.687 339.434C213.218 339.029 212.637 338.826 211.943 338.826C211.314 338.826 210.775 339.029 210.327 339.434C209.879 339.829 209.613 340.367 209.527 341.05H214.407ZM228.778 337.29C229.472 337.29 230.09 337.434 230.634 337.722C231.189 338.01 231.621 338.437 231.93 339.002C232.25 339.567 232.41 340.25 232.41 341.05V346.25H230.602V341.322C230.602 340.533 230.405 339.93 230.01 339.514C229.616 339.087 229.077 338.874 228.394 338.874C227.712 338.874 227.168 339.087 226.762 339.514C226.368 339.93 226.17 340.533 226.17 341.322V346.25H224.362V341.322C224.362 340.533 224.165 339.93 223.77 339.514C223.376 339.087 222.837 338.874 222.154 338.874C221.472 338.874 220.928 339.087 220.522 339.514C220.128 339.93 219.93 340.533 219.93 341.322V346.25H218.106V337.434H219.93V338.442C220.229 338.079 220.608 337.797 221.066 337.594C221.525 337.391 222.016 337.29 222.538 337.29C223.242 337.29 223.872 337.439 224.426 337.738C224.981 338.037 225.408 338.469 225.706 339.034C225.973 338.501 226.389 338.079 226.954 337.77C227.52 337.45 228.128 337.29 228.778 337.29ZM242.811 341.626C242.811 341.957 242.79 342.255 242.747 342.522H236.011C236.065 343.226 236.326 343.791 236.795 344.218C237.265 344.645 237.841 344.858 238.523 344.858C239.505 344.858 240.198 344.447 240.603 343.626H242.571C242.305 344.437 241.819 345.103 241.115 345.626C240.422 346.138 239.558 346.394 238.523 346.394C237.681 346.394 236.923 346.207 236.251 345.834C235.59 345.45 235.067 344.917 234.683 344.234C234.31 343.541 234.123 342.741 234.123 341.834C234.123 340.927 234.305 340.133 234.667 339.45C235.041 338.757 235.558 338.223 236.219 337.85C236.891 337.477 237.659 337.29 238.523 337.29C239.355 337.29 240.097 337.471 240.747 337.834C241.398 338.197 241.905 338.709 242.267 339.37C242.63 340.021 242.811 340.773 242.811 341.626ZM240.907 341.05C240.897 340.378 240.657 339.839 240.187 339.434C239.718 339.029 239.137 338.826 238.443 338.826C237.814 338.826 237.275 339.029 236.827 339.434C236.379 339.829 236.113 340.367 236.027 341.05H240.907ZM249.054 337.29C249.748 337.29 250.366 337.434 250.91 337.722C251.465 338.01 251.897 338.437 252.206 339.002C252.516 339.567 252.67 340.25 252.67 341.05V346.25H250.862V341.322C250.862 340.533 250.665 339.93 250.27 339.514C249.876 339.087 249.337 338.874 248.654 338.874C247.972 338.874 247.428 339.087 247.022 339.514C246.628 339.93 246.43 340.533 246.43 341.322V346.25H244.606V337.434H246.43V338.442C246.729 338.079 247.108 337.797 247.566 337.594C248.036 337.391 248.532 337.29 249.054 337.29ZM257.125 338.922V343.802C257.125 344.133 257.2 344.373 257.349 344.522C257.509 344.661 257.776 344.73 258.149 344.73H259.269V346.25H257.829C257.008 346.25 256.378 346.058 255.941 345.674C255.504 345.29 255.285 344.666 255.285 343.802V338.922H254.245V337.434H255.285V335.242H257.125V337.434H259.269V338.922H257.125Z" fill="#ABAECD"/>
<path d="M329.678 325.193L379.973 348.951L329.425 377.763L278.878 348.951L329.678 325.193Z" fill="#BABABC"/>
<path d="M329.426 377.763L379.973 348.951V362.093L329.426 390.905V377.763Z" fill="#E8E9ED"/>
<path d="M332.964 381.137L357.227 366.983V369.675L332.964 383.828V381.137Z" fill="url(#paint5_linear_3879_13746)"/>
<path d="M329.426 377.763L278.878 348.951V362.093L329.426 390.905V377.763Z" fill="#F0F2F5"/>
<ellipse cx="373.898" cy="358.246" rx="1.26369" ry="1.51643" transform="rotate(10 373.898 358.246)" fill="url(#paint6_linear_3879_13746)"/>
<ellipse cx="370.362" cy="360.268" rx="1.26369" ry="1.51643" transform="rotate(10 370.362 360.268)" fill="url(#paint7_linear_3879_13746)"/>
<ellipse cx="366.823" cy="362.29" rx="1.26369" ry="1.51643" transform="rotate(10 366.823 362.29)" fill="url(#paint8_linear_3879_13746)"/>
<ellipse cx="363.285" cy="364.311" rx="1.26369" ry="1.51643" transform="rotate(10 363.285 364.311)" fill="url(#paint9_linear_3879_13746)"/>
<path d="M331.701 304.469L381.996 328.227L331.448 357.039L280.9 328.227L331.701 304.469Z" fill="#BABABC"/>
<path d="M331.448 357.039L381.996 328.227V341.369L331.448 370.181V357.039Z" fill="#E8E9ED"/>
<path d="M334.986 360.412L359.249 346.259V348.951L334.986 363.104V360.412Z" fill="url(#paint10_linear_3879_13746)"/>
<path d="M331.448 357.039L280.9 328.227V341.369L331.448 370.181V357.039Z" fill="#F0F2F5"/>
<ellipse cx="375.92" cy="337.521" rx="1.26369" ry="1.51643" transform="rotate(10 375.92 337.521)" fill="url(#paint11_linear_3879_13746)"/>
<ellipse cx="372.384" cy="339.543" rx="1.26369" ry="1.51643" transform="rotate(10 372.384 339.543)" fill="url(#paint12_linear_3879_13746)"/>
<ellipse cx="368.845" cy="341.565" rx="1.26369" ry="1.51643" transform="rotate(10 368.845 341.565)" fill="url(#paint13_linear_3879_13746)"/>
<ellipse cx="365.307" cy="343.587" rx="1.26369" ry="1.51643" transform="rotate(10 365.307 343.587)" fill="url(#paint14_linear_3879_13746)"/>
<path d="M331.701 284.25L381.996 308.007L331.448 336.82L280.9 308.007L331.701 284.25Z" fill="#BABABC"/>
<path d="M331.448 336.82L381.996 308.007V321.15L331.448 349.962V336.82Z" fill="#E8E9ED"/>
<path d="M334.986 340.193L359.249 326.04V328.732L334.986 342.885V340.193Z" fill="url(#paint15_linear_3879_13746)"/>
<path d="M331.448 336.82L280.9 308.007V321.15L331.448 349.962V336.82Z" fill="#F0F2F5"/>
<ellipse cx="375.92" cy="317.303" rx="1.26369" ry="1.51643" transform="rotate(10 375.92 317.303)" fill="url(#paint16_linear_3879_13746)"/>
<ellipse cx="372.384" cy="319.325" rx="1.26369" ry="1.51643" transform="rotate(10 372.384 319.325)" fill="url(#paint17_linear_3879_13746)"/>
<ellipse cx="368.845" cy="321.347" rx="1.26369" ry="1.51643" transform="rotate(10 368.845 321.347)" fill="url(#paint18_linear_3879_13746)"/>
<ellipse cx="365.307" cy="323.368" rx="1.26369" ry="1.51643" transform="rotate(10 365.307 323.368)" fill="url(#paint19_linear_3879_13746)"/>
<g filter="url(#filter1_d_3879_13746)">
<path d="M308.4 374.24C300.223 382.416 286.967 382.416 278.791 374.24C270.614 366.064 270.614 352.807 278.791 344.631C286.967 336.455 300.223 336.455 308.4 344.631C316.576 352.807 316.576 366.064 308.4 374.24Z" fill="url(#paint20_linear_3879_13746)"/>
<path fill-rule="evenodd" clip-rule="evenodd" d="M279.188 373.843C287.145 381.799 300.045 381.799 308.002 373.843C315.959 365.886 315.959 352.985 308.002 345.029C300.045 337.072 287.145 337.072 279.188 345.029C271.231 352.985 271.231 365.886 279.188 373.843ZM278.791 374.24C286.967 382.416 300.223 382.416 308.4 374.24C316.576 366.064 316.576 352.807 308.4 344.631C300.223 336.455 286.967 336.455 278.791 344.631C270.614 352.807 270.614 366.064 278.791 374.24Z" fill="url(#paint21_linear_3879_13746)"/>
<path fill-rule="evenodd" clip-rule="evenodd" d="M280.773 372.258C287.855 379.339 299.336 379.339 306.417 372.258C313.499 365.176 313.499 353.695 306.417 346.614C299.336 339.532 287.855 339.532 280.773 346.614C273.692 353.695 273.692 365.176 280.773 372.258ZM277.002 376.029C286.166 385.193 301.024 385.193 310.188 376.029C319.352 366.865 319.352 352.007 310.188 342.843C301.024 333.679 286.166 333.679 277.002 342.843C267.838 352.007 267.838 366.865 277.002 376.029Z" fill="#E8E9ED"/>
<path fill-rule="evenodd" clip-rule="evenodd" d="M246.721 401.587L275.634 372.673L280.159 377.198L251.246 406.112L246.721 401.587Z" fill="#E8E9ED"/>
<path d="M266.173 377.916C267.49 376.599 269.626 376.599 270.943 377.916L275.116 382.089C276.433 383.406 276.433 385.542 275.116 386.859L254.449 407.525C253.132 408.842 250.997 408.842 249.68 407.525L245.507 403.352C244.19 402.035 244.19 399.9 245.507 398.583L266.173 377.916Z" fill="#E8E9ED"/>
<path fill-rule="evenodd" clip-rule="evenodd" d="M274.917 382.288L270.744 378.115C269.537 376.908 267.579 376.908 266.372 378.115L245.706 398.782C244.498 399.989 244.498 401.946 245.706 403.153L249.879 407.327C251.086 408.534 253.043 408.534 254.25 407.327L274.917 386.66C276.124 385.453 276.124 383.495 274.917 382.288ZM270.943 377.916C269.626 376.599 267.49 376.599 266.173 377.916L245.507 398.583C244.19 399.9 244.19 402.035 245.507 403.352L249.68 407.525C250.997 408.842 253.132 408.842 254.449 407.525L275.116 386.859C276.433 385.542 276.433 383.406 275.116 382.089L270.943 377.916Z" fill="#E8E9ED"/>
<path d="M264.376 379.712L273.319 388.655L256.375 405.599L247.433 396.656L264.376 379.712Z" fill="#64B867"/>
</g>
<defs>
<filter id="filter0_d_3879_13746" x="0" y="11.2241" width="360" height="268" filterUnits="userSpaceOnUse" color-interpolation-filters="sRGB">
<feFlood flood-opacity="0" result="BackgroundImageFix"/>
<feColorMatrix in="SourceAlpha" type="matrix" values="0 0 0 0 0 0 0 0 0 0 0 0 0 0 0 0 0 0 127 0" result="hardAlpha"/>
<feOffset dx="4" dy="4"/>
<feGaussianBlur stdDeviation="50"/>
<feComposite in2="hardAlpha" operator="out"/>
<feColorMatrix type="matrix" values="0 0 0 0 0.423529 0 0 0 0 0.482353 0 0 0 0 0.666667 0 0 0 0.12 0"/>
<feBlend mode="normal" in2="BackgroundImageFix" result="effect1_dropShadow_3879_13746"/>
<feBlend mode="normal" in="SourceGraphic" in2="effect1_dropShadow_3879_13746" result="shape"/>
</filter>
<filter id="filter1_d_3879_13746" x="192.43" y="283.881" width="185.778" height="185.78" filterUnits="userSpaceOnUse" color-interpolation-filters="sRGB">
<feFlood flood-opacity="0" result="BackgroundImageFix"/>
<feColorMatrix in="SourceAlpha" type="matrix" values="0 0 0 0 0 0 0 0 0 0 0 0 0 0 0 0 0 0 127 0" result="hardAlpha"/>
<feOffset dx="4.52946" dy="4.52946"/>
<feGaussianBlur stdDeviation="28.3091"/>
<feComposite in2="hardAlpha" operator="out"/>
<feColorMatrix type="matrix" values="0 0 0 0 0.423529 0 0 0 0 0.482353 0 0 0 0 0.666667 0 0 0 0.12 0"/>
<feBlend mode="normal" in2="BackgroundImageFix" result="effect1_dropShadow_3879_13746"/>
<feBlend mode="normal" in="SourceGraphic" in2="effect1_dropShadow_3879_13746" result="shape"/>
</filter>
<linearGradient id="paint0_linear_3879_13746" x1="262.5" y1="0.948267" x2="381.955" y2="234.277" gradientUnits="userSpaceOnUse">
<stop stop-color="white" stop-opacity="0"/>
<stop offset="1" stop-color="white"/>
</linearGradient>
<linearGradient id="paint1_linear_3879_13746" x1="255" y1="7.94824" x2="256.407" y2="136.959" gradientUnits="userSpaceOnUse">
<stop stop-color="white" stop-opacity="0"/>
<stop offset="1" stop-color="white"/>
</linearGradient>
<linearGradient id="paint2_linear_3879_13746" x1="256" y1="266.25" x2="254.634" y2="141.041" gradientUnits="userSpaceOnUse">
<stop stop-color="white" stop-opacity="0"/>
<stop offset="0.588542" stop-color="white"/>
</linearGradient>
<linearGradient id="paint3_linear_3879_13746" x1="137" y1="172.75" x2="135.991" y2="265.239" gradientUnits="userSpaceOnUse">
<stop stop-color="white"/>
<stop offset="1" stop-color="white" stop-opacity="0"/>
</linearGradient>
<linearGradient id="paint4_linear_3879_13746" x1="176" y1="107.224" x2="176" y2="175.224" gradientUnits="userSpaceOnUse">
<stop stop-color="#EDA13D"/>
<stop offset="1" stop-color="#EDA13D" stop-opacity="0"/>
</linearGradient>
<linearGradient id="paint5_linear_3879_13746" x1="345.095" y1="366.983" x2="345.095" y2="383.828" gradientUnits="userSpaceOnUse">
<stop stop-color="#63B866"/>
<stop offset="1" stop-color="#63B866" stop-opacity="0.86"/>
</linearGradient>
<linearGradient id="paint6_linear_3879_13746" x1="373.898" y1="356.73" x2="373.898" y2="359.762" gradientUnits="userSpaceOnUse">
<stop stop-color="#63B866"/>
<stop offset="1" stop-color="#63B866" stop-opacity="0.86"/>
</linearGradient>
<linearGradient id="paint7_linear_3879_13746" x1="370.362" y1="358.752" x2="370.362" y2="361.784" gradientUnits="userSpaceOnUse">
<stop stop-color="#63B866"/>
<stop offset="1" stop-color="#63B866" stop-opacity="0.86"/>
</linearGradient>
<linearGradient id="paint8_linear_3879_13746" x1="366.823" y1="360.774" x2="366.823" y2="363.806" gradientUnits="userSpaceOnUse">
<stop stop-color="#63B866"/>
<stop offset="1" stop-color="#63B866" stop-opacity="0.86"/>
</linearGradient>
<linearGradient id="paint9_linear_3879_13746" x1="363.285" y1="362.795" x2="363.285" y2="365.828" gradientUnits="userSpaceOnUse">
<stop stop-color="#63B866"/>
<stop offset="1" stop-color="#63B866" stop-opacity="0.86"/>
</linearGradient>
<linearGradient id="paint10_linear_3879_13746" x1="347.118" y1="346.259" x2="347.118" y2="363.104" gradientUnits="userSpaceOnUse">
<stop stop-color="#63B866"/>
<stop offset="1" stop-color="#63B866" stop-opacity="0.86"/>
</linearGradient>
<linearGradient id="paint11_linear_3879_13746" x1="375.92" y1="336.005" x2="375.92" y2="339.038" gradientUnits="userSpaceOnUse">
<stop stop-color="#63B866"/>
<stop offset="1" stop-color="#63B866" stop-opacity="0.86"/>
</linearGradient>
<linearGradient id="paint12_linear_3879_13746" x1="372.384" y1="338.027" x2="372.384" y2="341.06" gradientUnits="userSpaceOnUse">
<stop stop-color="#63B866"/>
<stop offset="1" stop-color="#63B866" stop-opacity="0.86"/>
</linearGradient>
<linearGradient id="paint13_linear_3879_13746" x1="368.845" y1="340.049" x2="368.845" y2="343.082" gradientUnits="userSpaceOnUse">
<stop stop-color="#63B866"/>
<stop offset="1" stop-color="#63B866" stop-opacity="0.86"/>
</linearGradient>
<linearGradient id="paint14_linear_3879_13746" x1="365.307" y1="342.07" x2="365.307" y2="345.103" gradientUnits="userSpaceOnUse">
<stop stop-color="#63B866"/>
<stop offset="1" stop-color="#63B866" stop-opacity="0.86"/>
</linearGradient>
<linearGradient id="paint15_linear_3879_13746" x1="347.118" y1="326.04" x2="347.118" y2="342.885" gradientUnits="userSpaceOnUse">
<stop stop-color="#63B866"/>
<stop offset="1" stop-color="#63B866" stop-opacity="0.86"/>
</linearGradient>
<linearGradient id="paint16_linear_3879_13746" x1="375.92" y1="315.786" x2="375.92" y2="318.819" gradientUnits="userSpaceOnUse">
<stop stop-color="#63B866"/>
<stop offset="1" stop-color="#63B866" stop-opacity="0.86"/>
</linearGradient>
<linearGradient id="paint17_linear_3879_13746" x1="372.384" y1="317.808" x2="372.384" y2="320.841" gradientUnits="userSpaceOnUse">
<stop stop-color="#63B866"/>
<stop offset="1" stop-color="#63B866" stop-opacity="0.86"/>
</linearGradient>
<linearGradient id="paint18_linear_3879_13746" x1="368.845" y1="319.83" x2="368.845" y2="322.863" gradientUnits="userSpaceOnUse">
<stop stop-color="#63B866"/>
<stop offset="1" stop-color="#63B866" stop-opacity="0.86"/>
</linearGradient>
<linearGradient id="paint19_linear_3879_13746" x1="365.307" y1="321.852" x2="365.307" y2="324.885" gradientUnits="userSpaceOnUse">
<stop stop-color="#63B866"/>
<stop offset="1" stop-color="#63B866" stop-opacity="0.86"/>
</linearGradient>
<linearGradient id="paint20_linear_3879_13746" x1="267.961" y1="355.461" x2="317.143" y2="353.375" gradientUnits="userSpaceOnUse">
<stop offset="0.34375" stop-color="white"/>
<stop offset="1" stop-color="white" stop-opacity="0.87"/>
</linearGradient>
<linearGradient id="paint21_linear_3879_13746" x1="314.56" y1="358.939" x2="267.762" y2="360.23" gradientUnits="userSpaceOnUse">
<stop stop-color="white" stop-opacity="0"/>
<stop offset="0.943372" stop-color="white"/>
</linearGradient>
</defs>
</svg>
