<svg width="100" height="30" viewBox="0 0 100 30" fill="none" xmlns="http://www.w3.org/2000/svg">
<g clip-path="url(#clip0_4671_8680)">
<path d="M18.7673 15.0152C18.7673 9.97975 14.7876 5.8481 9.75971 5.65063V0H9.00781V30H9.75971V24.3494C14.7876 24.1747 18.7597 20.043 18.7673 15.0152ZM9.75971 20.6203V9.40253C12.8584 9.58481 15.2205 12.2506 15.0382 15.3494C14.8635 18.1899 12.6002 20.4532 9.75971 20.6203Z" fill="#222222"/>
<path d="M60.0458 5.62787C58.0103 5.62787 56.0357 6.28863 54.4179 7.51901V5.62787H50.666V30.0228H54.4179V22.5038C58.5572 25.6177 64.4357 24.7823 67.5496 20.6431C70.6636 16.5038 69.8281 10.6253 65.6889 7.51141C64.0559 6.28863 62.0812 5.62787 60.0458 5.62787ZM60.0458 20.6431C56.9395 20.6431 54.4179 18.1215 54.4179 15.0152C54.4179 11.9089 56.9395 9.38736 60.0458 9.38736C63.1521 9.38736 65.6737 11.9089 65.6737 15.0152C65.6737 18.1215 63.1521 20.6431 60.0458 20.6431Z" fill="#222222"/>
<path d="M84.44 5.62787V15.9494C84.44 18.5393 82.3362 20.6431 79.7463 20.6431C77.1565 20.6431 75.0527 18.5393 75.0527 15.9494V5.62787H71.3008V15.9494C71.3008 20.6127 75.0755 24.395 79.7387 24.395C81.4096 24.395 83.0425 23.9013 84.4324 22.9747V24.4025H88.1843V5.62787H84.44Z" fill="#222222"/>
<path d="M33.774 5.62787V15.9494C33.774 18.5393 31.6702 20.6431 29.0803 20.6431C26.4905 20.6431 24.3867 18.5393 24.3867 15.9494V5.62787H20.6348V15.9494C20.6348 20.6127 24.4094 24.395 29.0727 24.395C30.7436 24.395 32.3765 23.9013 33.7664 22.9747V24.4025H37.5183V5.62787H33.774Z" fill="#222222"/>
<path d="M99.4177 5.62785H96.6304V0H92.8785V5.62785H90.0684V9.37975H92.8785V24.3949H96.6304V9.37975H99.4177V5.62785Z" fill="#222222"/>
<path d="M48.7821 5.62785H45.972V0H42.2201V5.62785H39.4023V9.37975H42.2201V24.3949H45.972V9.37975H48.7821V5.62785Z" fill="#222222"/>
<path d="M6.75977 6.00762V24.0076C7.0028 24.0836 7.25344 24.1443 7.51166 24.1975V5.81775C7.25344 5.87091 7.0028 5.93927 6.75977 6.00762Z" fill="#222222"/>
<path d="M4.50391 7.0101V23.0126C4.74694 23.1645 4.99758 23.3012 5.2558 23.4228V6.59998C4.99758 6.72149 4.74694 6.8582 4.50391 7.0101Z" fill="#222222"/>
<path d="M2.25586 8.92404V21.0987C2.4913 21.3721 2.74194 21.6304 3.00776 21.8734V8.14935C2.73434 8.39239 2.48371 8.65062 2.25586 8.92404Z" fill="#222222"/>
<path d="M0 15.0152C0 16.2835 0.250633 17.5291 0.751899 18.6987V11.3392C0.250633 12.4937 0 13.7468 0 15.0152Z" fill="#222222"/>
</g>
<defs>
<clipPath id="clip0_4671_8680">
<rect width="99.4177" height="30" fill="white"/>
</clipPath>
</defs>
</svg>
