<svg width="150" height="40" viewBox="0 0 150 40" fill="none" xmlns="http://www.w3.org/2000/svg">
<g clip-path="url(#clip0_4671_8733)">
<path d="M20.4174 0.0789474C26.0705 0.497204 30.652 4.82936 31.3857 10.4503C32.1194 16.0712 28.8033 21.4342 23.447 23.2895L35.4272 39.3553H0.0390625V0H18.6312C19.2825 0 19.8746 0.0296053 20.4174 0.0789474Z" fill="#157EFF"/>
<path d="M23.072 39.355H0V0L35.181 39.355H23.072Z" fill="#157EFF"/>
<path d="M35.428 39.355H0L17.595 11.872L35.428 39.355Z" fill="#00BDFF"/>
<path d="M0 22.776V0H9.888L24.661 22.766L0 22.776Z" fill="#1560FA"/>
<path d="M10.6172 22.776L17.5942 11.872L24.6702 22.776H10.6172Z" fill="#00EFE9"/>
<path d="M35.4287 39.355H22.2637L17.5957 11.872L35.4287 39.355Z" fill="#157EFF" fill-opacity="0.5"/>
<path d="M52.6093 13.4408V17.8026H55.1553C57.129 17.8026 58.0369 16.8158 58.0073 15.5921C57.9777 14.3684 57.0205 13.4408 55.1553 13.4408H52.6093ZM55.2244 10.1743C58.9843 10.1743 61.4514 12.4441 61.4514 15.5921C61.4514 18.7401 59.754 20.4474 57.8297 20.8421L61.777 27.977H57.8297L54.1784 21.296H52.6093V27.977H49.0566V10.2138L55.2244 10.1743ZM66.958 20.6053H72.4251C72.3043 19.1854 71.1165 18.0943 69.6915 18.0943C68.2665 18.0943 67.0787 19.1854 66.958 20.6053ZM75.7606 21.75C75.7627 22.1225 75.743 22.4949 75.7014 22.8651H66.9481C67.1339 24.4387 68.5258 25.587 70.106 25.4704C71.2503 25.444 72.351 25.026 73.2244 24.2862L75.1981 26.4276C73.75 27.7028 71.8662 28.3708 69.9382 28.2928C68.2032 28.3858 66.5108 27.7344 65.2859 26.502C64.0611 25.2696 63.42 23.5733 63.5237 21.8388C63.5237 17.9605 66.0698 15.3158 69.7705 15.3158C73.4711 15.3158 75.7606 17.9507 75.7705 21.7895L75.7606 21.75ZM81.8198 21.8092C81.7255 23.0042 82.3097 24.1511 83.3318 24.7775C84.3539 25.4039 85.641 25.4039 86.6631 24.7775C87.6851 24.1511 88.2693 23.0042 88.1751 21.8092C88.2693 20.6142 87.6851 19.4673 86.6631 18.8409C85.641 18.2145 84.3539 18.2145 83.3318 18.8409C82.3097 19.4673 81.7255 20.6142 81.8198 21.8092ZM91.5895 21.8092C91.5895 25.5099 89.0139 28.2928 85.6093 28.2928C84.2068 28.3574 82.8539 27.7667 81.9481 26.6941V33.0691H78.6718V15.671H81.9481V17.0329C82.8364 15.9164 84.2033 15.2897 85.629 15.3454C89.0435 15.3454 91.6191 18.1283 91.6191 21.8289L91.5895 21.8092ZM105.8 22.727C105.8 26.6151 103.047 28.3026 99.9678 28.3026C96.8889 28.3026 94.1159 26.625 94.1159 22.727V15.671H97.4415V22.4507C97.4415 24.4243 98.527 25.2237 99.9678 25.2237C101.409 25.2237 102.494 24.4243 102.494 22.4507V15.671H105.81L105.8 22.727ZM112.244 21.8092C112.15 23.0042 112.734 24.1511 113.756 24.7775C114.778 25.4039 116.065 25.4039 117.087 24.7775C118.109 24.1511 118.694 23.0042 118.599 21.8092C118.694 20.6142 118.109 19.4673 117.087 18.8409C116.065 18.2145 114.778 18.2145 113.756 18.8409C112.734 19.4673 112.15 20.6142 112.244 21.8092ZM122.014 21.8092C122.014 25.5099 119.438 28.2928 116.034 28.2928C114.604 28.3524 113.23 27.7298 112.333 26.6151V27.977H109.086V9.66118H112.402V16.9342C113.29 15.8581 114.63 15.2592 116.024 15.3158C119.438 15.3158 122.014 18.0987 122.014 21.7993" fill="black"/>
<path d="M124.727 27.977H128.053V9.661H124.727V27.977Z" fill="black"/>
<path d="M131.546 27.977H134.872V15.6711H131.546V27.977ZM135.316 11.6151C135.305 12.783 134.352 13.7225 133.184 13.7171C132.016 13.7116 131.072 12.7633 131.072 11.5954C131.072 10.4275 132.016 9.47916 133.184 9.47368C133.753 9.46831 134.299 9.69252 134.701 10.0956C135.102 10.4986 135.324 11.0465 135.316 11.6151ZM149.112 17.6447L146.714 19.6184C146.066 18.8576 145.118 18.4178 144.118 18.4145C143.247 18.4254 142.42 18.7967 141.833 19.4399C141.246 20.0832 140.951 20.941 141.02 21.8092C140.945 22.6772 141.236 23.5368 141.823 24.1811C142.409 24.8254 143.237 25.1961 144.108 25.2039C145.14 25.1917 146.116 24.7392 146.793 23.9605L149.161 25.9342C147.974 27.4415 146.145 28.3009 144.227 28.2533C142.473 28.3431 140.763 27.6921 139.513 26.459C138.263 25.2259 137.588 23.5243 137.654 21.7697C137.591 20.016 138.267 18.3163 139.516 17.0839C140.765 15.8515 142.474 15.1994 144.227 15.2862C146.148 15.233 147.981 16.0978 149.161 17.6151" fill="black"/>
</g>
<defs>
<clipPath id="clip0_4671_8733">
<rect width="150" height="40" fill="white"/>
</clipPath>
</defs>
</svg>
