<svg width="32" height="22" viewBox="0 0 32 22" fill="none" xmlns="http://www.w3.org/2000/svg">
<path opacity="0.9" fill-rule="evenodd" clip-rule="evenodd" d="M15.1579 0L9.33407 8.81979C12.2061 9.36135 14.6792 11.5276 14.6792 15.0865C14.6792 19.0322 11.4881 21.8947 7.33961 21.8947C3.35069 21.8947 0 19.2643 0 14.3128C0 11.5276 1.35623 8.81979 3.03158 6.34406L7.25983 0H15.1579ZM31.9997 0L26.1759 8.81979C29.0479 9.36135 31.521 11.5276 31.521 15.0865C31.521 19.0322 28.3299 21.8947 24.1814 21.8947C20.1925 21.8947 16.8418 19.2643 16.8418 14.3128C16.8418 11.5276 18.198 8.81979 19.8734 6.34406L24.1016 0H31.9997Z" fill="#D5D7E5"/>
</svg>
