<svg width="24" height="24" viewBox="0 0 24 24" fill="none" xmlns="http://www.w3.org/2000/svg">
<rect width="24" height="24" rx="4" fill="#22338A"/>
<path fill-rule="evenodd" clip-rule="evenodd" d="M5.55079 18.2409H8.05292C8.17252 18.2409 8.26973 18.1442 8.26973 18.0241V9.62618C8.26973 9.50657 8.17252 9.40937 8.05292 9.40937H5.55079C5.43119 9.40937 5.33398 9.50657 5.33398 9.62618V18.0241C5.33398 18.1442 5.43119 18.2409 5.55079 18.2409ZM18.8567 13.1766V18.0241C18.8567 18.1442 18.7595 18.2409 18.6399 18.2409H16.1373C16.0172 18.2409 15.9205 18.1442 15.9205 18.0241V13.5159C15.9205 12.3294 15.4964 11.5193 14.4333 11.5193C13.6218 11.5193 13.1396 12.0649 12.9271 12.5929C12.8499 12.7816 12.8299 13.0437 12.8299 13.3086V18.0241C12.8299 18.1437 12.7327 18.2409 12.6131 18.2409H10.1114C9.99134 18.2409 9.89366 18.1442 9.89413 18.0241C9.89985 16.8233 9.92511 10.998 9.89938 9.62904C9.89699 9.50753 9.99468 9.40937 10.1162 9.40937H12.6135C12.7332 9.40937 12.8304 9.50657 12.8304 9.62618V10.6611C12.8242 10.6707 12.8156 10.6807 12.8108 10.6897H12.8304V10.6611C13.2201 10.0603 13.9163 9.20209 15.4764 9.20209C17.4081 9.20209 18.8567 10.4643 18.8567 13.1766Z" fill="white"/>
<path fill-rule="evenodd" clip-rule="evenodd" d="M8.2856 6.71487C8.2856 7.58259 7.58228 8.28639 6.71457 8.28639C5.8459 8.28639 5.14258 7.58259 5.14258 6.71487C5.14258 5.84668 5.8459 5.14288 6.71457 5.14288C7.58228 5.14288 8.2856 5.84668 8.2856 6.71487Z" fill="white"/>
</svg>
