<svg width="42" height="42" viewBox="0 0 42 42" fill="none" xmlns="http://www.w3.org/2000/svg">
<rect width="42" height="42" rx="4" fill="#E5F3EB"/>
<g clip-path="url(#clip0_4838_14844)">
<path d="M30.375 22.5H30.1725C30.5303 22.1014 30.75 21.5767 30.75 21C30.75 19.7591 29.7409 18.75 28.5 18.75C27.2591 18.75 26.25 19.7591 26.25 21C26.25 21.5767 26.4697 22.1014 26.8275 22.5H24.2981L23.25 17.9572V15.75H23.625C25.0725 15.75 26.25 14.5721 26.25 13.125V10.125C26.25 9.91763 26.082 9.75 25.875 9.75H24.375C24.168 9.75 24 9.91763 24 10.125V13.125C24 13.332 23.8316 13.5 23.625 13.5H22.6725C23.0302 13.1014 23.25 12.5768 23.25 12C23.25 10.7591 22.2409 9.75 21 9.75C19.7591 9.75 18.75 10.7591 18.75 12C18.75 12.5768 18.9698 13.1014 19.3275 13.5H18.375C18.1684 13.5 18 13.332 18 13.125V10.125C18 9.91763 17.832 9.75 17.625 9.75H16.125C15.918 9.75 15.75 9.91763 15.75 10.125V13.125C15.75 14.5721 16.9275 15.75 18.375 15.75H18.75V17.9572L17.7015 22.5H15.1725C15.5302 22.1014 15.75 21.5767 15.75 21C15.75 19.7591 14.7409 18.75 13.5 18.75C12.2591 18.75 11.25 19.7591 11.25 21C11.25 21.5767 11.4697 22.1014 11.8275 22.5H11.625C10.5911 22.5 9.75 23.3411 9.75 24.375V27C9.75 27.2074 9.918 27.375 10.125 27.375H11.25V31.875C11.25 32.0824 11.418 32.25 11.625 32.25H13.5H15.375C15.582 32.25 15.75 32.0824 15.75 31.875V24.75H19.875C20.082 24.75 20.25 24.5824 20.25 24.375V22.9211L21 19.9211L21.75 22.9211V24.375C21.75 24.5824 21.918 24.75 22.125 24.75H26.25V31.875C26.25 32.0824 26.418 32.25 26.625 32.25H28.5H30.375C30.582 32.25 30.75 32.0824 30.75 31.875V27.375H31.875C32.082 27.375 32.25 27.2074 32.25 27V24.375C32.25 23.3411 31.4089 22.5 30.375 22.5ZM27 21C27 20.1727 27.6728 19.5 28.5 19.5C29.3272 19.5 30 20.1727 30 21C30 21.8273 29.3272 22.5 28.5 22.5C27.6728 22.5 27 21.8273 27 21ZM19.5 12C19.5 11.1727 20.1727 10.5 21 10.5C21.8273 10.5 22.5 11.1727 22.5 12C22.5 12.8273 21.8273 13.5 21 13.5C20.1727 13.5 19.5 12.8273 19.5 12ZM12 21C12 20.1727 12.6727 19.5 13.5 19.5C14.3273 19.5 15 20.1727 15 21C15 21.8273 14.3273 22.5 13.5 22.5C12.6727 22.5 12 21.8273 12 21ZM19.5 24H15.375C15.168 24 15 24.1676 15 24.375V31.5H13.875V27.375H13.125V31.5H12V24.375H11.25V26.625H10.5V24.375C10.5 23.7548 11.0048 23.25 11.625 23.25H18H19.5V24ZM21 18C20.8279 18 20.6779 18.117 20.6363 18.2843L19.5821 22.5H18.4714L19.4906 18.0844C19.4966 18.0566 19.5 18.0281 19.5 18V15.375C19.5 15.1676 19.332 15 19.125 15H18.375C17.3411 15 16.5 14.1589 16.5 13.125V10.5H17.25V13.125C17.25 13.7452 17.7548 14.25 18.375 14.25H23.625C24.2452 14.25 24.75 13.7452 24.75 13.125V10.5H25.5V13.125C25.5 14.1589 24.6589 15 23.625 15H22.875C22.668 15 22.5 15.1676 22.5 15.375V18C22.5 18.0281 22.5034 18.0566 22.5094 18.0844L23.5286 22.5H22.4179L21.3638 18.2843C21.3221 18.117 21.1721 18 21 18ZM31.5 26.625H30.75V24.375H30V31.5H28.875V27.375H28.125V31.5H27V24.375C27 24.1676 26.832 24 26.625 24H22.5V23.25H24H30.375C30.9953 23.25 31.5 23.7548 31.5 24.375V26.625Z" fill="#A2CB94"/>
</g>
<defs>
<clipPath id="clip0_4838_14844">
<rect width="24" height="24" fill="white" transform="translate(9 9)"/>
</clipPath>
</defs>
</svg>
