<svg width="42" height="42" viewBox="0 0 42 42" fill="none" xmlns="http://www.w3.org/2000/svg">
<rect width="42" height="42" rx="4" fill="#DDEFDD"/>
<g clip-path="url(#clip0_4897_9371)">
<path d="M30.375 21H30.1725C30.5303 20.6014 30.75 20.0767 30.75 19.5C30.75 18.2591 29.7409 17.25 28.5 17.25C27.2591 17.25 26.25 18.2591 26.25 19.5C26.25 20.0767 26.4697 20.6014 26.8275 21H25.125C24.918 21 24.75 20.832 24.75 20.625V17.25H28.5H29.625C29.8324 17.25 30 17.0824 30 16.875V10.125C30 9.91763 29.8324 9.75 29.625 9.75H21H12.375C12.1676 9.75 12 9.91763 12 10.125V16.875C12 17.0824 12.1676 17.25 12.375 17.25H13.5H17.25V20.625C17.25 20.832 17.082 21 16.875 21H15.1725C15.5302 20.6014 15.75 20.0767 15.75 19.5C15.75 18.2591 14.7409 17.25 13.5 17.25C12.2591 17.25 11.25 18.2591 11.25 19.5C11.25 20.0767 11.4697 20.6014 11.8275 21H11.625C10.5911 21 9.75 21.8411 9.75 22.875V26.25C9.75 26.4574 9.91763 26.625 10.125 26.625H11.1675L10.1325 31.8015C10.1104 31.9118 10.1393 32.0261 10.2101 32.1127C10.2814 32.1994 10.3875 32.25 10.5 32.25H12.375C12.552 32.25 12.7046 32.1266 12.7417 31.9538L13.5 28.4145L14.2583 31.9538C14.2954 32.1266 14.448 32.25 14.625 32.25H16.5C16.6125 32.25 16.7186 32.1994 16.7899 32.1127C16.8608 32.0261 16.8896 31.9118 16.8675 31.8015L15.75 26.2129V23.25H16.875C18.3221 23.25 19.5 22.0721 19.5 20.625V17.25H21H22.5V20.625C22.5 22.0721 23.6779 23.25 25.125 23.25H26.25V26.2129L25.1325 31.8011C25.1104 31.9114 25.1393 32.0257 25.2101 32.1124C25.2814 32.1994 25.3875 32.25 25.5 32.25H27.375C27.552 32.25 27.7046 32.1266 27.7418 31.9538L28.5 28.4145L29.2582 31.9538C29.2954 32.1266 29.448 32.25 29.625 32.25H31.5C31.6125 32.25 31.7186 32.1994 31.7899 32.1127C31.8608 32.0261 31.8896 31.9118 31.8675 31.8015L30.8325 26.625H31.875C32.0824 26.625 32.25 26.4574 32.25 26.25V22.875C32.25 21.8411 31.4089 21 30.375 21ZM27 19.5C27 18.6727 27.6728 18 28.5 18C29.3272 18 30 18.6727 30 19.5C30 20.3273 29.3272 21 28.5 21C27.6728 21 27 20.3273 27 19.5ZM12 19.5C12 18.6727 12.6727 18 13.5 18C14.3273 18 15 18.6727 15 19.5C15 20.3273 14.3273 21 13.5 21C12.6727 21 12 20.3273 12 19.5ZM18.75 20.625C18.75 21.6589 17.9089 22.5 16.875 22.5H15.375C15.1676 22.5 15 22.6676 15 22.875V26.25C15 26.2744 15.0026 26.2995 15.0075 26.3235L16.0425 31.5H14.928L13.8664 26.5462C13.8296 26.3734 13.677 26.25 13.5 26.25C13.323 26.25 13.1704 26.3734 13.1333 26.5462L12.0716 31.5H10.9575L11.9925 26.3235C11.9974 26.2995 12 26.2744 12 26.25V22.875H11.25V25.875H10.5V22.875C10.5 22.2548 11.0048 21.75 11.625 21.75H16.875C17.4953 21.75 18 21.2452 18 20.625V17.25H18.75V20.625ZM20.625 14.25V16.5H19.125H17.625H12.75V10.5H20.625V12.75C20.625 12.9574 20.7926 13.125 21 13.125H21.5831C21.7163 13.125 21.84 13.0541 21.9071 12.9386C22.1126 12.5858 22.4745 12.375 22.875 12.375C23.4952 12.375 24 12.8798 24 13.5C24 14.1203 23.4952 14.625 22.875 14.625C22.4745 14.625 22.1126 14.4142 21.9071 14.0614C21.8396 13.9459 21.7163 13.875 21.5831 13.875H21C20.7926 13.875 20.625 14.0426 20.625 14.25ZM21.375 14.625H21.3829C21.735 15.0922 22.2889 15.375 22.875 15.375C23.9089 15.375 24.75 14.5339 24.75 13.5C24.75 12.4661 23.9089 11.625 22.875 11.625C22.2889 11.625 21.735 11.9077 21.3829 12.375L21.3765 10.5H29.25V16.5H24.375H22.875H21.375V14.625ZM31.5 25.875H30.75V22.875H30V26.25C30 26.2744 30.0026 26.2995 30.0075 26.3235L31.0425 31.5H29.928L28.8664 26.5462C28.8296 26.3734 28.677 26.25 28.5 26.25C28.323 26.25 28.1704 26.3734 28.1332 26.5462L27.0716 31.5H25.9575L26.9929 26.3235C26.9974 26.2995 27 26.2744 27 26.25V22.875C27 22.6676 26.8324 22.5 26.625 22.5H25.125C24.0911 22.5 23.25 21.6589 23.25 20.625V17.25H24V20.625C24 21.2452 24.5048 21.75 25.125 21.75H30.375C30.9953 21.75 31.5 22.2548 31.5 22.875V25.875Z" fill="#A2CB94"/>
</g>
<defs>
<clipPath id="clip0_4897_9371">
<rect width="24" height="24" fill="white" transform="translate(9 9)"/>
</clipPath>
</defs>
</svg>
