<svg width="42" height="42" viewBox="0 0 42 42" fill="none" xmlns="http://www.w3.org/2000/svg">
<rect width="42" height="42" rx="4" fill="#FBF3E9"/>
<path d="M24.1892 16.3567H23.2051V17.3408H24.1892V16.3567Z" fill="#FAA204"/>
<path d="M22.2229 16.3567H21.2388V17.3408H22.2229V16.3567Z" fill="#FAA204"/>
<path d="M20.2566 16.3567H19.2725V17.3408H20.2566V16.3567Z" fill="#FAA204"/>
<path d="M33.4073 10.4579C32.3229 10.4579 31.441 9.57598 31.441 8.49157C31.441 8.21973 31.2208 8 30.9494 8C30.6781 8 30.4579 8.21973 30.4579 8.49157C30.4579 9.57598 29.576 10.4579 28.4916 10.4579C28.2202 10.4579 28 10.6776 28 10.9494C28 11.2213 28.2202 11.441 28.4916 11.441C29.576 11.441 30.4579 12.3229 30.4579 13.4073C30.4579 13.6791 30.6781 13.8989 30.9494 13.8989C31.2208 13.8989 31.441 13.6791 31.441 13.4073C31.441 12.3229 32.3229 11.441 33.4073 11.441C33.6787 11.441 33.8989 11.2213 33.8989 10.9494C33.8989 10.6776 33.6787 10.4579 33.4073 10.4579ZM30.9494 11.7787C30.7312 11.4504 30.4485 11.1682 30.1202 10.9494C30.4485 10.7312 30.7307 10.4485 30.9494 10.1202C31.1677 10.4485 31.4504 10.7307 31.7787 10.9494C31.4504 11.1677 31.1677 11.4504 30.9494 11.7787Z" fill="#FAA204"/>
<path fill-rule="evenodd" clip-rule="evenodd" d="M15.9997 14.5586C14.5651 15.2759 13.865 16.1759 13.865 17.0238C13.865 17.8717 14.5651 18.7717 15.9997 19.489C17.4049 20.1916 19.3806 20.6404 21.5897 20.6404C23.7988 20.6404 25.7745 20.1916 27.1797 19.489C28.6143 18.7717 29.3144 17.8717 29.3144 17.0238C29.3144 16.1759 28.6143 15.2759 27.1797 14.5586C25.7745 13.856 23.7988 13.4072 21.5897 13.4072C19.3806 13.4072 17.4049 13.856 15.9997 14.5586ZM15.5601 20.3684C14.903 20.0398 14.3188 19.6412 13.865 19.1816V20.8159C13.865 21.6639 14.5651 22.5638 15.9997 23.2811C17.4049 23.9837 19.3806 24.4325 21.5897 24.4325C23.7988 24.4325 25.7745 23.9837 27.1797 23.2811C28.6143 22.5638 29.3144 21.6639 29.3144 20.8159V19.1816C28.8606 19.6412 28.2764 20.0398 27.6193 20.3684C26.0508 21.1526 23.9183 21.6235 21.5897 21.6235C19.2611 21.6235 17.1286 21.1526 15.5601 20.3684ZM29.3144 22.9737V24.6081C29.3144 25.456 28.6143 26.356 27.1797 27.0733C25.7745 27.7759 23.7988 28.2246 21.5897 28.2246C19.3806 28.2246 17.4049 27.7759 15.9997 27.0733C14.5651 26.356 13.865 25.456 13.865 24.6081V22.9737C14.3188 23.4333 14.903 23.8319 15.5601 24.1605C17.1286 24.9448 19.2611 25.4156 21.5897 25.4156C23.9183 25.4156 26.0508 24.9448 27.6193 24.1605C28.2764 23.8319 28.8606 23.4333 29.3144 22.9737ZM29.3144 28.4002V26.7658C28.8606 27.2254 28.2764 27.6241 27.6193 27.9526C26.0508 28.7369 23.9183 29.2078 21.5897 29.2078C19.2611 29.2078 17.1286 28.7369 15.5601 27.9526C14.903 27.6241 14.3188 27.2254 13.865 26.7658V28.4002C13.865 29.2481 14.5651 30.1481 15.9997 30.8654C17.4049 31.568 19.3806 32.0168 21.5897 32.0168C23.7988 32.0168 25.7745 31.568 27.1797 30.8654C28.6143 30.1481 29.3144 29.2481 29.3144 28.4002ZM30.2786 28.7162H30.2976V28.4002V24.6081V20.8159V17.0238C30.2976 15.6029 29.1584 14.4488 27.6193 13.6792C26.0508 12.895 23.9183 12.4241 21.5897 12.4241C19.2611 12.4241 17.1286 12.895 15.5601 13.6792C14.021 14.4488 12.8818 15.6029 12.8818 17.0238V20.8159V24.6081V28.4002V28.7162H12.9008C13.0554 29.9925 14.1367 31.0331 15.5601 31.7448C17.1286 32.529 19.2611 32.9999 21.5897 32.9999C23.9183 32.9999 26.0508 32.529 27.6193 31.7448C29.0427 31.0331 30.124 29.9925 30.2786 28.7162Z" fill="#FAA204"/>
<path d="M8.45787 25.6966C8.45787 25.9684 8.67809 26.1882 8.94944 26.1882C9.22079 26.1882 9.44101 25.9684 9.44101 25.6966C9.44101 24.6122 10.3229 23.7303 11.4073 23.7303C11.6787 23.7303 11.8989 23.5106 11.8989 23.2387C11.8989 22.9669 11.6787 22.7472 11.4073 22.7472C10.3229 22.7472 9.44101 21.8653 9.44101 20.7809C9.44101 20.509 9.22079 20.2893 8.94944 20.2893C8.67809 20.2893 8.45787 20.509 8.45787 20.7809C8.45787 21.8653 7.57598 22.7472 6.49157 22.7472C6.22022 22.7472 6 22.9669 6 23.2387C6 23.5106 6.22022 23.7303 6.49157 23.7303C7.57598 23.7303 8.45787 24.6122 8.45787 25.6966ZM8.94944 22.4095C9.1677 22.7378 9.45035 23.02 9.77872 23.2387C9.45035 23.457 9.16819 23.7397 8.94944 24.068C8.73118 23.7397 8.44852 23.4575 8.12015 23.2387C8.44852 23.0205 8.73118 22.7378 8.94944 22.4095Z" fill="#FAA204"/>
<path d="M33.4084 14.3904H32.4243V15.3745H33.4084V14.3904Z" fill="#FAA204"/>
<path d="M35.3748 14.3904H34.3906V15.3745H35.3748V14.3904Z" fill="#FAA204"/>
<path d="M35.3748 12.4241H34.3906V13.4082H35.3748V12.4241Z" fill="#FAA204"/>
<path d="M9.44213 16.3567H8.45801V17.3408H9.44213V16.3567Z" fill="#FAA204"/>
<path d="M9.44213 27H8.45801V27.9841H9.44213V27Z" fill="#FAA204"/>
<path d="M9.44213 18.323H8.45801V19.3071H9.44213V18.323Z" fill="#FAA204"/>
<path d="M9.44213 28.9663H8.45801V29.9504H9.44213V28.9663Z" fill="#FAA204"/>
</svg>
