<svg width="42" height="42" viewBox="0 0 42 42" fill="none" xmlns="http://www.w3.org/2000/svg">
<rect width="42" height="42" rx="4" fill="#FBF3E9"/>
<path d="M16.1789 31C15.5372 31 14.9932 30.5954 14.8118 30.0374L10.5011 29.9956L10.5151 29.1446L14.8118 29.1865C14.9932 28.6284 15.5372 28.2378 16.1789 28.2378C16.8207 28.2378 17.3647 28.6424 17.5461 29.2004L32.2358 29.2423V30.0932L17.5461 30.0514C17.3647 30.5954 16.8207 31 16.1789 31ZM16.1789 29.0888C15.8581 29.0888 15.593 29.326 15.593 29.6189C15.593 29.9119 15.8581 30.149 16.1789 30.149C16.4998 30.149 16.7649 29.9119 16.7649 29.6189C16.7649 29.326 16.4998 29.0888 16.1789 29.0888ZM29.8503 28.9354C29.2086 28.9354 28.6645 28.5308 28.4832 27.9728H23.7819C23.6005 28.5308 23.0565 28.9354 22.4147 28.9354C21.6196 28.9354 20.9779 28.3215 20.9779 27.5543C20.9779 26.787 21.6196 26.1732 22.4147 26.1732C23.0565 26.1732 23.6005 26.5777 23.7819 27.1358H28.4971C28.6785 26.5777 29.2225 26.1732 29.8642 26.1732C30.506 26.1732 31.05 26.5777 31.2314 27.1358H32.5427V27.9867H31.2314C31.0361 28.5447 30.492 28.9354 29.8503 28.9354ZM29.8503 27.0242C29.5294 27.0242 29.2644 27.2613 29.2644 27.5543C29.2644 27.8472 29.5294 28.0844 29.8503 28.0844C30.1711 28.0844 30.4362 27.8472 30.4362 27.5543C30.4362 27.2613 30.1851 27.0242 29.8503 27.0242ZM22.4147 27.0242C22.0939 27.0242 21.8288 27.2613 21.8288 27.5543C21.8288 27.8472 22.0939 28.0844 22.4147 28.0844C22.7356 28.0844 23.0007 27.8472 23.0007 27.5543C23.0007 27.2613 22.7356 27.0242 22.4147 27.0242ZM11.5195 28.9354C10.7243 28.9354 10.0826 28.3215 10.0826 27.5543C10.0826 26.787 10.7243 26.1732 11.5195 26.1732C12.1612 26.1732 12.7053 26.5777 12.8867 27.1218L14.2259 27.1079V27.9588L12.8727 27.9728C12.7053 28.5447 12.1612 28.9354 11.5195 28.9354ZM11.5195 27.0242C11.1987 27.0242 10.9336 27.2613 10.9336 27.5543C10.9336 27.8472 11.1987 28.0844 11.5195 28.0844C11.8404 28.0844 12.1054 27.8472 12.1054 27.5543C12.1054 27.2613 11.8404 27.0242 11.5195 27.0242ZM20.5035 27.8472L15.9278 27.8054L15.9418 26.9544L19.6665 26.9963L19.6805 19.9234C19.1364 19.756 18.7458 19.2538 18.7458 18.6818C18.7458 17.9564 19.3596 17.3705 20.1129 17.3705C20.7128 17.3705 21.215 17.7332 21.3964 18.2494L23.6563 18.2215C23.8516 17.7193 24.3678 17.3566 24.9537 17.3566C25.721 17.3566 26.3348 17.9564 26.3348 18.6958C26.3348 19.4352 25.707 20.035 24.9537 20.035C24.3259 20.035 23.7958 19.6305 23.6284 19.0725L21.4103 19.1004C21.2708 19.491 20.95 19.7979 20.5454 19.9234L20.5035 27.8472ZM24.9398 18.2215C24.6468 18.2215 24.3957 18.4447 24.3957 18.7097C24.3957 18.9748 24.6329 19.198 24.9398 19.198C25.2327 19.198 25.4838 18.9748 25.4838 18.7097C25.4838 18.4447 25.2467 18.2215 24.9398 18.2215ZM20.1129 18.2215C19.8339 18.2215 19.5968 18.4307 19.5968 18.6818C19.5968 18.9329 19.82 19.1422 20.1129 19.1422C20.4059 19.1422 20.6291 18.9329 20.6291 18.6818C20.6291 18.4307 20.3919 18.2215 20.1129 18.2215ZM18.6761 25.9779L10.5011 25.9221V25.0711L17.8251 25.113L17.8669 21.1371L17.002 20.0071C16.9323 20.0211 16.8486 20.0211 16.7649 20.0211C15.9697 20.0211 15.328 19.4073 15.328 18.64C15.328 17.8727 15.9976 17.2729 16.7928 17.2729C17.5879 17.2729 18.2296 17.8867 18.2296 18.6539C18.2296 19.0445 18.0622 19.3794 17.7972 19.6305L18.7319 20.8581L18.6761 25.9779ZM16.7928 18.1238C16.4719 18.1238 16.2068 18.361 16.2068 18.6539C16.2068 18.9469 16.4719 19.1841 16.7928 19.1841C17.1136 19.1841 17.3787 18.9469 17.3787 18.6539C17.3787 18.361 17.1136 18.1238 16.7928 18.1238ZM25.1909 25.9779H21.787V22.5182C21.1732 22.3368 20.7268 21.7928 20.7268 21.1511C20.7268 20.3698 21.3964 19.7281 22.2194 19.7281C23.0425 19.7281 23.7121 20.3698 23.7121 21.1511C23.7121 21.7928 23.2657 22.3508 22.6519 22.5182V25.1269H25.2188V25.9779H25.1909ZM22.2055 20.5651C21.8567 20.5651 21.5638 20.8302 21.5638 21.1511C21.5638 21.4719 21.8567 21.737 22.2055 21.737C22.5542 21.737 22.8472 21.4719 22.8472 21.1511C22.8472 20.8302 22.5682 20.5651 22.2055 20.5651ZM32.3334 25.9221H27.2695V25.0851H32.3334V25.9221ZM14.6304 23.7458C13.5005 23.7458 12.0496 23.5366 11.0731 22.6437C10.2221 21.8765 9.87338 20.7465 10.0408 19.2817V19.212L10.0687 19.1562C10.1105 19.0585 11.1429 16.7567 13.1796 16.8404C13.3052 16.1847 13.6679 15.0268 14.7002 14.3014C15.5093 13.7434 16.5556 13.5621 17.7972 13.7853C18.3273 13.018 20.099 10.8417 23.0844 11.0091C26.6278 11.2184 27.8414 13.59 27.8972 13.6876L27.1439 14.0643C27.1021 13.9806 26.0837 12.0275 23.0425 11.8601C20.4338 11.7067 18.8853 13.6876 18.4668 14.3154C18.2994 14.5665 18.0064 14.692 17.6995 14.6362C16.6532 14.4549 15.8023 14.5804 15.1745 15.0129C14.3654 15.5709 14.0864 16.5335 14.0027 17.0496C13.9329 17.4403 13.5702 17.7332 13.1517 17.7053C11.8264 17.6356 11.0173 19.1283 10.8778 19.4352C10.7662 20.593 11.0173 21.458 11.6451 22.0299C13.1238 23.3831 16.1929 22.7693 16.2347 22.7553L16.4021 23.5924C16.3324 23.5924 15.593 23.7458 14.6304 23.7458ZM24.2422 23.5784L24.2283 22.7274L29.7108 22.6298C29.7387 22.6298 29.7526 22.6298 29.7805 22.6158C31.7336 22.0299 31.622 20.3838 31.622 20.314V20.2722V20.2164C31.7196 19.5468 31.5941 19.0166 31.2593 18.5842C30.5757 17.7472 29.1946 17.5798 28.6366 17.5379C28.2041 17.51 27.8693 17.1613 27.8693 16.7427V15.6686H28.7203V16.7148C29.5573 16.7706 31.064 17.0217 31.9149 18.068C32.4032 18.6679 32.5846 19.4073 32.473 20.3001C32.5288 21.1511 32.0963 22.8251 30.0316 23.4529C29.934 23.4808 29.8363 23.4947 29.7387 23.4947L24.2422 23.5784ZM22.4147 17.2589C21.6475 17.2589 21.0337 16.659 21.0337 15.9197C21.0337 15.1803 21.6614 14.5804 22.4147 14.5804C23.182 14.5804 23.7958 15.1803 23.7958 15.9197C23.7958 16.659 23.182 17.2589 22.4147 17.2589ZM22.4147 15.4454C22.1218 15.4454 21.8707 15.6686 21.8707 15.9336C21.8707 16.1987 22.1078 16.4219 22.4147 16.4219C22.7077 16.4219 22.9588 16.1987 22.9588 15.9336C22.9588 15.6686 22.7077 15.4454 22.4147 15.4454Z" fill="#FAA204"/>
</svg>
