<svg width="42" height="42" viewBox="0 0 42 42" fill="none" xmlns="http://www.w3.org/2000/svg">
<rect width="42" height="42" rx="4" fill="#DDEFDD"/>
<g clip-path="url(#clip0_4838_12718)">
<path d="M10.125 32.25H22.875H31.875C32.0824 32.25 32.25 32.082 32.25 31.875V10.125C32.25 9.918 32.0824 9.75 31.875 9.75H16.125C16.1171 9.75 16.11 9.75413 16.1021 9.7545C16.0684 9.75638 16.0361 9.76312 16.0042 9.774C15.9926 9.77812 15.981 9.78112 15.9698 9.78637C15.93 9.80475 15.8917 9.82762 15.8595 9.85987L12.8595 12.8599C12.8273 12.8921 12.8044 12.93 12.786 12.9698C12.7807 12.9814 12.7778 12.9926 12.7736 13.0046C12.7627 13.0361 12.7564 13.0684 12.7541 13.1017C12.7541 13.11 12.75 13.1171 12.75 13.125V19.5H12H10.125C9.91763 19.5 9.75 19.668 9.75 19.875V21.75V25.5V27.375V28.875V30.375V31.875C9.75 32.082 9.91763 32.25 10.125 32.25ZM10.8251 22.0121C10.8428 22.0065 10.8596 21.9994 10.8769 21.993C10.9646 21.9619 11.0497 21.9255 11.1322 21.8839C11.1461 21.8767 11.1607 21.8707 11.1746 21.8632C11.2639 21.816 11.3486 21.7624 11.43 21.7039C11.448 21.6911 11.4652 21.6776 11.4829 21.6645C11.6456 21.5407 11.7908 21.3956 11.9145 21.2333C11.928 21.2156 11.9415 21.198 11.9546 21.1796C12.0128 21.0983 12.0664 21.0139 12.1133 20.925C12.1207 20.9107 12.1271 20.8954 12.1346 20.8807C12.1755 20.7994 12.2115 20.715 12.2422 20.6284C12.249 20.61 12.2561 20.592 12.2625 20.5736C12.294 20.4776 12.3184 20.3786 12.3368 20.2774C12.3386 20.2684 12.3424 20.2598 12.3439 20.25H13.125H20.6561C20.6576 20.2598 20.6614 20.2684 20.6632 20.2778C20.6816 20.379 20.7064 20.478 20.7375 20.574C20.7435 20.5928 20.751 20.6104 20.7577 20.6287C20.7889 20.7154 20.8245 20.7994 20.8654 20.8811C20.8729 20.8958 20.8789 20.9108 20.8868 20.9254C20.934 21.0142 20.9872 21.0986 21.0454 21.18C21.0585 21.1984 21.072 21.2156 21.0855 21.2336C21.2093 21.3964 21.3544 21.5411 21.5171 21.6649C21.5348 21.6784 21.552 21.6915 21.57 21.7042C21.6514 21.7627 21.7365 21.8164 21.8254 21.8636C21.8392 21.8711 21.8539 21.8771 21.8678 21.8843C21.9502 21.9259 22.0354 21.9619 22.1231 21.9934C22.1407 21.9997 22.1572 22.0065 22.1749 22.0125C22.2716 22.0444 22.3717 22.0691 22.4738 22.0875C22.4827 22.089 22.491 22.0924 22.5 22.0939V25.1565C22.491 25.158 22.4827 25.1614 22.4738 25.1629C22.3714 25.1813 22.2716 25.206 22.1749 25.2379C22.161 25.2424 22.1479 25.2473 22.1344 25.2521C22.1179 25.2578 22.1021 25.2645 22.0856 25.2705C22.011 25.2986 21.9382 25.3301 21.8678 25.3657C21.8539 25.3729 21.8392 25.3789 21.8254 25.3864C21.8077 25.3957 21.7905 25.4055 21.7733 25.4152C21.7601 25.4227 21.7474 25.431 21.7343 25.4389C21.6776 25.4723 21.6229 25.5075 21.5696 25.5458C21.5516 25.5585 21.5344 25.572 21.5167 25.5851C21.4916 25.6043 21.465 25.6223 21.4406 25.6425C21.4391 25.644 21.4376 25.6455 21.4357 25.6466C21.3442 25.7227 21.2603 25.8075 21.1819 25.8971C21.1736 25.9065 21.1646 25.9155 21.1564 25.9252C21.1313 25.9549 21.1084 25.9856 21.0851 26.0164C21.0716 26.034 21.0581 26.0516 21.045 26.07C21.0139 26.1135 20.9846 26.1585 20.9565 26.2046C20.9468 26.2208 20.9366 26.2369 20.9269 26.2534C20.913 26.277 20.8991 26.3006 20.886 26.3246C20.8785 26.3389 20.8721 26.3542 20.8646 26.3689C20.8335 26.4311 20.805 26.4945 20.7795 26.5597C20.7724 26.5781 20.766 26.5965 20.7592 26.6149C20.7585 26.6168 20.7577 26.619 20.757 26.6209C20.7502 26.6392 20.7431 26.6572 20.7367 26.6756C20.7071 26.7656 20.6835 26.8579 20.6651 26.9524C20.6632 26.9621 20.6614 26.9719 20.6595 26.9816C20.6584 26.988 20.6561 26.9936 20.655 26.9996H12.3439C12.3424 26.9899 12.3386 26.9812 12.3368 26.9719C12.3184 26.8706 12.2936 26.7716 12.2625 26.6756C12.2565 26.6569 12.249 26.6392 12.2422 26.6209C12.2111 26.5343 12.1755 26.4503 12.1346 26.3685C12.1271 26.3539 12.1211 26.3389 12.1133 26.3243C12.066 26.2354 12.0128 26.151 11.9546 26.0696C11.9415 26.0513 11.928 26.034 11.9145 26.016C11.7908 25.8533 11.6456 25.7085 11.4829 25.5848C11.4652 25.5713 11.448 25.5581 11.43 25.5454C11.3486 25.4869 11.2635 25.4332 11.1746 25.386C11.1607 25.3785 11.1461 25.3725 11.1322 25.3654C11.0497 25.3237 10.9646 25.2877 10.8769 25.2562C10.8593 25.2499 10.8428 25.2431 10.8251 25.2371C10.7284 25.2052 10.6283 25.1805 10.5263 25.1621C10.5173 25.1614 10.509 25.158 10.5 25.1561V22.0935C10.509 22.092 10.5173 22.0886 10.5263 22.0871C10.6283 22.0687 10.728 22.044 10.8251 22.0121ZM10.5 29.25H22.5V30H10.5V29.25ZM10.5 27.75H12H21H22.5V28.5H10.5V27.75ZM10.5 25.9282C10.5686 25.9459 10.6369 25.9639 10.7014 25.9909C10.7119 25.9954 10.7216 26.0014 10.7321 26.0059C10.8015 26.037 10.8679 26.0734 10.9313 26.1143C10.9507 26.1266 10.9699 26.1394 10.9886 26.1525C11.0576 26.2013 11.124 26.2537 11.1836 26.3134C11.1847 26.3145 11.1863 26.316 11.1874 26.3171C11.2466 26.3768 11.2991 26.4428 11.3479 26.5118C11.3614 26.5305 11.3737 26.55 11.3865 26.5695C11.4266 26.6325 11.463 26.6981 11.4938 26.7668C11.4986 26.778 11.505 26.7881 11.5099 26.7994C11.5361 26.8635 11.5541 26.9317 11.5717 27H10.5V25.9282ZM21.4744 26.8519C21.4826 26.8298 21.4882 26.8065 21.4976 26.7851C21.5002 26.7787 21.504 26.7727 21.5066 26.7668C21.5374 26.6981 21.5734 26.6325 21.6139 26.5695C21.6251 26.5519 21.6368 26.5343 21.6488 26.5174C21.6536 26.5106 21.6593 26.5046 21.6641 26.4979C21.705 26.4416 21.7485 26.3872 21.7969 26.337C21.8186 26.3141 21.843 26.2943 21.8663 26.2729C21.909 26.2335 21.9532 26.196 22.0005 26.1619C22.0282 26.142 22.0571 26.1232 22.0864 26.1052C22.1347 26.0752 22.1846 26.0483 22.2364 26.0239C22.2671 26.0093 22.2979 25.9946 22.3298 25.9819C22.3849 25.9601 22.4423 25.944 22.5 25.929V27H21.4282C21.4414 26.9498 21.4564 26.8999 21.4744 26.8519ZM22.5 21.3218C22.4314 21.3041 22.3631 21.2861 22.2986 21.2591C22.2881 21.2546 22.2784 21.2486 22.2679 21.2441C22.1985 21.2134 22.1321 21.1766 22.0687 21.1361C22.0492 21.1237 22.0301 21.111 22.0114 21.0979C21.9424 21.0491 21.876 20.9966 21.8164 20.937C21.8152 20.9359 21.8138 20.9344 21.8126 20.9333C21.7534 20.8736 21.7009 20.8076 21.6521 20.739C21.6386 20.7203 21.6263 20.7007 21.6135 20.6812C21.5734 20.6182 21.537 20.5526 21.5062 20.484C21.5014 20.4728 21.495 20.4626 21.4901 20.4514C21.4635 20.3872 21.4455 20.319 21.4275 20.2508H22.5V21.3218ZM10.5 30.75H22.5V31.5H10.5V30.75ZM29.7071 31.3455C29.2654 31.5446 28.4914 31.5476 28.0365 31.3429C27.8029 31.2428 27.75 31.14 27.75 31.125V30.5351C28.0676 30.6754 28.4557 30.75 28.875 30.75C29.2969 30.75 29.6876 30.6746 30 30.5355V31.125C30 31.14 29.9471 31.2428 29.7071 31.3455ZM29.7071 29.8455C29.2654 30.0446 28.4914 30.0476 28.0365 29.8429C27.8029 29.7428 27.75 29.64 27.75 29.625V29.0351C28.0676 29.1754 28.4557 29.25 28.875 29.25C29.2969 29.25 29.6876 29.1746 30 29.0355V29.625C30 29.64 29.9471 29.7428 29.7071 29.8455ZM29.7071 28.3455C29.2654 28.5446 28.4914 28.5476 28.0365 28.3429C27.8029 28.2428 27.75 28.14 27.75 28.125V27.5351C28.0676 27.6754 28.4557 27.75 28.875 27.75C29.2969 27.75 29.6876 27.6746 30 27.5355V28.125C30 28.14 29.9471 28.2428 29.7071 28.3455ZM27.75 21.5351C28.0676 21.6754 28.4557 21.75 28.875 21.75C29.2969 21.75 29.6876 21.6746 30 21.5355V22.125C30 22.14 29.9471 22.2428 29.7071 22.3455C29.2654 22.5446 28.4914 22.5476 28.0365 22.3429C27.8029 22.2428 27.75 22.14 27.75 22.125V21.5351ZM27.75 20.625C27.75 20.5507 28.1119 20.25 28.875 20.25C29.6381 20.25 30 20.5507 30 20.625C30 20.64 29.9471 20.7428 29.7071 20.8455C29.2654 21.0446 28.4914 21.0476 28.0365 20.8429C27.8029 20.7428 27.75 20.64 27.75 20.625ZM27.75 23.0351C28.0676 23.1754 28.4557 23.25 28.875 23.25C29.2969 23.25 29.6876 23.1746 30 23.0355V23.625C30 23.64 29.9471 23.7428 29.7071 23.8455C29.2654 24.0446 28.4914 24.0476 28.0365 23.8429C27.8029 23.7428 27.75 23.64 27.75 23.625V23.0351ZM27.75 24.5351C28.0676 24.6754 28.4557 24.75 28.875 24.75C29.2969 24.75 29.6876 24.6746 30 24.5355V25.125C30 25.14 29.9471 25.2428 29.7071 25.3455C29.2654 25.5446 28.4914 25.5476 28.0365 25.3429C27.8029 25.2428 27.75 25.14 27.75 25.125V24.5351ZM27.75 26.0351C28.0676 26.1754 28.4557 26.25 28.875 26.25C29.2969 26.25 29.6876 26.1746 30 26.0355V26.625C30 26.64 29.9471 26.7428 29.7071 26.8455C29.2654 27.0446 28.4914 27.0476 28.0365 26.8429C27.8029 26.7428 27.75 26.64 27.75 26.625V26.0351ZM24.75 27.5351C25.0676 27.6754 25.4557 27.75 25.875 27.75C26.2969 27.75 26.6876 27.6746 27 27.5355V28.125C27 28.14 26.9471 28.2428 26.7071 28.3455C26.2654 28.5446 25.4914 28.5476 25.0365 28.3429C24.8029 28.2428 24.75 28.14 24.75 28.125V27.5351ZM24.75 26.625C24.75 26.5508 25.1119 26.25 25.875 26.25C26.6381 26.25 27 26.5508 27 26.625C27 26.64 26.9471 26.7428 26.7071 26.8455C26.2654 27.0446 25.4914 27.0476 25.0365 26.8429C24.8029 26.7428 24.75 26.64 24.75 26.625ZM24.75 29.0351C25.0676 29.1754 25.4557 29.25 25.875 29.25C26.2969 29.25 26.6876 29.1746 27 29.0355V29.625C27 29.64 26.9471 29.7428 26.7071 29.8455C26.2654 30.0446 25.4914 30.0476 25.0365 29.8429C24.8029 29.7428 24.75 29.64 24.75 29.625V29.0351ZM24.75 30.5351C25.0676 30.6754 25.4557 30.75 25.875 30.75C26.2969 30.75 26.6876 30.6746 27 30.5355V31.125C27 31.14 26.9471 31.2428 26.7071 31.3455C26.2654 31.5446 25.4914 31.5476 25.0365 31.3429C24.8029 31.2428 24.75 31.14 24.75 31.125V30.5351ZM15.75 11.0303V12.75H14.0302L15.75 11.0303ZM13.5 13.5H16.125C16.3324 13.5 16.5 13.332 16.5 13.125V10.5H31.5V31.5H30.651C30.7148 31.3826 30.75 31.257 30.75 31.125V20.625C30.75 19.9838 29.9441 19.5 28.875 19.5C27.8059 19.5 27 19.9838 27 20.625V25.7171C26.6903 25.5814 26.3059 25.5 25.875 25.5C24.8059 25.5 24 25.9837 24 26.625V31.125C24 31.257 24.0352 31.383 24.099 31.5H23.25V30.375V28.875V27.375V25.5V21.75V19.875C23.25 19.668 23.0824 19.5 22.875 19.5H21H13.5V13.5ZM11.5717 20.25C11.5541 20.3182 11.5361 20.3865 11.5091 20.4506C11.5043 20.4619 11.4982 20.4724 11.493 20.4832C11.4622 20.5519 11.4262 20.6175 11.3858 20.6805C11.3734 20.7 11.3606 20.7195 11.3471 20.7382C11.2984 20.8069 11.2459 20.8733 11.1866 20.9325C11.1855 20.9336 11.184 20.9351 11.1829 20.9362C11.1233 20.9959 11.0569 21.0484 10.9879 21.0971C10.9691 21.1102 10.95 21.123 10.9305 21.1354C10.8671 21.1759 10.8011 21.2126 10.7314 21.2434C10.7209 21.2479 10.7111 21.2539 10.7006 21.2584C10.6369 21.2861 10.5686 21.3041 10.5 21.3218V20.25H11.5717Z" fill="#1ED760"/>
<path d="M16.5 25.5C17.5339 25.5 18.375 24.6589 18.375 23.625C18.375 22.5911 17.5339 21.75 16.5 21.75C15.4661 21.75 14.625 22.5911 14.625 23.625C14.625 24.6589 15.4661 25.5 16.5 25.5ZM16.5 22.5C17.1202 22.5 17.625 23.0048 17.625 23.625C17.625 24.2452 17.1202 24.75 16.5 24.75C15.8798 24.75 15.375 24.2452 15.375 23.625C15.375 23.0048 15.8798 22.5 16.5 22.5Z" fill="#1ED760"/>
<path d="M21.8599 13.6099L18.375 17.0947L16.7651 15.4849C16.6185 15.3382 16.3815 15.3382 16.2349 15.4849L14.3599 17.3599L14.8901 17.8901L16.5 16.2802L18.1099 17.8901C18.183 17.9632 18.279 18 18.375 18C18.471 18 18.567 17.9632 18.6401 17.8901L22.3901 14.1401L21.8599 13.6099Z" fill="#1ED760"/>
<path d="M27 18.75C29.0677 18.75 30.75 17.0677 30.75 15C30.75 12.9323 29.0677 11.25 27 11.25C24.9323 11.25 23.25 12.9323 23.25 15C23.25 17.0677 24.9323 18.75 27 18.75ZM27 18C26.3077 18 25.6718 17.7622 25.1633 17.367L27.1553 15.375H29.9738C29.7885 16.8525 28.527 18 27 18ZM29.9741 14.625H27.375V12.0259C28.7295 12.1961 29.8039 13.2705 29.9741 14.625ZM26.625 12.0259V14.8444L24.633 16.8364C24.2377 16.3282 24 15.6922 24 15C24 13.473 25.1475 12.2115 26.625 12.0259Z" fill="#1ED760"/>
</g>
<defs>
<clipPath id="clip0_4838_12718">
<rect width="24" height="24" fill="white" transform="translate(9 9)"/>
</clipPath>
</defs>
</svg>
