<svg width="42" height="42" viewBox="0 0 42 42" fill="none" xmlns="http://www.w3.org/2000/svg">
<rect width="42" height="42" rx="4" fill="#DDEFDD"/>
<g clip-path="url(#clip0_4897_9331)">
<path d="M10.125 32.25H25.125C26.1589 32.25 27 31.4089 27 30.375V15.375C27 15.168 26.832 15 26.625 15H11.625V13.875H28.125V30H28.875V13.5C28.875 13.293 28.707 13.125 28.5 13.125H13.5V12H30V28.125H30.75V11.625C30.75 11.418 30.582 11.25 30.375 11.25H13.125C12.918 11.25 12.75 11.418 12.75 11.625V13.125H11.25C11.043 13.125 10.875 13.293 10.875 13.5V15H10.125C9.918 15 9.75 15.168 9.75 15.375V31.875C9.75 32.082 9.918 32.25 10.125 32.25ZM25.125 31.5H10.5V18.75H26.25V30.375C26.25 30.9953 25.7452 31.5 25.125 31.5ZM26.25 15.75V18H10.5V15.75H26.25Z" fill="#A2CB94"/>
<path d="M25.125 21H20.25V21.75H25.125V21Z" fill="#A2CB94"/>
<path d="M25.125 22.5H20.25V23.25H25.125V22.5Z" fill="#A2CB94"/>
<path d="M25.125 24H20.25V24.75H25.125V24Z" fill="#A2CB94"/>
<path d="M25.125 25.5H20.25V26.25H25.125V25.5Z" fill="#A2CB94"/>
<path d="M25.125 27H20.25V27.75H25.125V27Z" fill="#A2CB94"/>
<path d="M25.125 28.5H20.25V29.25H25.125V28.5Z" fill="#A2CB94"/>
<path d="M14.25 9.75H13.5V10.5H14.25V9.75Z" fill="#A2CB94"/>
<path d="M15.75 9.75H15V10.5H15.75V9.75Z" fill="#A2CB94"/>
<path d="M17.25 9.75H16.5V10.5H17.25V9.75Z" fill="#A2CB94"/>
<path d="M18.75 9.75H18V10.5H18.75V9.75Z" fill="#A2CB94"/>
<path d="M20.25 9.75H19.5V10.5H20.25V9.75Z" fill="#A2CB94"/>
<path d="M21.75 9.75H21V10.5H21.75V9.75Z" fill="#A2CB94"/>
<path d="M23.25 9.75H22.5V10.5H23.25V9.75Z" fill="#A2CB94"/>
<path d="M24.75 9.75H24V10.5H24.75V9.75Z" fill="#A2CB94"/>
<path d="M26.25 9.75H25.5V10.5H26.25V9.75Z" fill="#A2CB94"/>
<path d="M27.75 9.75H27V10.5H27.75V9.75Z" fill="#A2CB94"/>
<path d="M29.25 9.75H28.5V10.5H29.25V9.75Z" fill="#A2CB94"/>
<path d="M30.75 9.75H30V10.5H30.75V9.75Z" fill="#A2CB94"/>
<path d="M32.25 9.75H31.5V10.5H32.25V9.75Z" fill="#A2CB94"/>
<path d="M32.25 11.25H31.5V12H32.25V11.25Z" fill="#A2CB94"/>
<path d="M32.25 12.75H31.5V13.5H32.25V12.75Z" fill="#A2CB94"/>
<path d="M32.25 14.25H31.5V15H32.25V14.25Z" fill="#A2CB94"/>
<path d="M32.25 15.75H31.5V16.5H32.25V15.75Z" fill="#A2CB94"/>
<path d="M32.25 17.25H31.5V18H32.25V17.25Z" fill="#A2CB94"/>
<path d="M32.25 18.75H31.5V24H32.25V18.75Z" fill="#A2CB94"/>
<path d="M32.25 24.75H31.5V25.5H32.25V24.75Z" fill="#A2CB94"/>
<path d="M32.25 26.25H31.5V27H32.25V26.25Z" fill="#A2CB94"/>
<path d="M12 16.5H11.25V17.25H12V16.5Z" fill="#A2CB94"/>
<path d="M13.5 16.5H12.75V17.25H13.5V16.5Z" fill="#A2CB94"/>
<path d="M15 16.5H14.25V17.25H15V16.5Z" fill="#A2CB94"/>
<path d="M15.375 21C13.1006 21 11.25 22.8506 11.25 25.125C11.25 27.3994 13.1006 29.25 15.375 29.25C17.6494 29.25 19.5 27.3994 19.5 25.125C19.5 22.8506 17.6494 21 15.375 21ZM15.375 28.5C13.5143 28.5 12 26.9858 12 25.125C12 23.2643 13.5143 21.75 15.375 21.75C17.2358 21.75 18.75 23.2643 18.75 25.125C18.75 26.9858 17.2358 28.5 15.375 28.5Z" fill="#A2CB94"/>
<path d="M17.4176 24.7894L14.4176 23.2894C14.3014 23.2316 14.1634 23.2376 14.0527 23.3059C13.9425 23.3745 13.875 23.4949 13.875 23.625V26.625C13.875 26.7551 13.9425 26.8755 14.0527 26.9441C14.1131 26.9813 14.1814 27 14.25 27C14.3074 27 14.3647 26.9869 14.4176 26.9606L17.4176 25.4606C17.5448 25.3969 17.625 25.2671 17.625 25.125C17.625 24.9829 17.5448 24.8531 17.4176 24.7894ZM14.625 26.0183V24.2318L16.4115 25.125L14.625 26.0183Z" fill="#A2CB94"/>
</g>
<defs>
<clipPath id="clip0_4897_9331">
<rect width="24" height="24" fill="white" transform="translate(9 9)"/>
</clipPath>
</defs>
</svg>
