<svg width="59" height="25" viewBox="0 0 59 25" fill="none" xmlns="http://www.w3.org/2000/svg">
<g clip-path="url(#clip0_3918_9134)">
<path d="M17.0374 19.1381C16.0328 20.4828 14.7326 21.886 13.0188 22.9385C11.364 23.9909 9.47287 24.8094 7.22715 24.8094C5.15871 24.8094 3.44487 23.757 2.4993 22.88C1.08094 21.5352 0.31267 19.6058 0.0762773 17.7933C-0.573802 12.1804 2.91299 4.81353 8.29091 1.53935C9.53197 0.779272 10.8912 0.428467 12.1914 0.428467C14.7917 0.428467 16.7419 2.24096 16.9783 4.46273C17.2147 6.45062 16.4464 8.14618 14.2007 9.25706C13.0779 9.84174 12.4869 9.78327 12.3096 9.5494C12.1914 9.374 12.2505 9.08166 12.4869 8.90626C14.5553 7.2107 14.6144 5.80748 14.378 3.81958C14.2007 2.5333 13.3733 1.71475 12.4278 1.71475C8.35001 1.71475 2.4402 10.7772 3.26757 17.3256C3.56306 19.8981 5.15871 22.88 8.46821 22.88C9.53197 22.88 10.7139 22.5877 11.7186 22.0614C14.0234 20.8921 15.0281 20.0736 16.3873 18.2026C16.5646 17.9687 16.7419 17.6764 16.9192 17.4425C17.0374 17.2086 17.2738 17.1502 17.4511 17.1502C17.6284 17.1502 17.8648 17.3256 17.8648 17.6179C17.8648 17.7933 17.8057 18.1441 17.5693 18.4365C17.4511 18.5534 17.2147 18.9042 17.0374 19.1381Z" fill="#A9ABB6"/>
<path d="M23.2432 22.4707C22.2385 22.4707 21.6475 21.9445 21.4112 21.126C20.7611 22.003 19.8155 22.4707 18.8699 22.4707C17.2743 22.4707 15.7968 21.126 15.5604 19.3719C15.2059 16.2732 17.8653 12.2974 21.8839 12.2974C23.5978 12.2974 25.0161 12.999 25.1934 14.3437C25.4298 16.0393 23.9524 16.3901 23.4205 16.3901C22.9477 16.3901 22.1794 16.2732 22.1203 15.8054C22.0612 15.3377 23.125 15.63 23.0068 14.5191C22.9477 13.8175 22.2385 13.5836 21.5293 13.5836C19.0472 13.5836 17.688 16.9748 17.9835 19.0796C18.1017 20.0151 18.5744 20.9506 19.4609 20.9506C20.1701 20.9506 21.2339 19.9566 21.5884 18.4365C21.8248 17.4425 22.8295 16.7409 23.5387 16.7409C23.8933 16.7409 24.1888 16.9163 24.2479 17.2671C24.2479 17.384 24.2479 17.5594 24.1888 17.7933C24.1297 18.261 23.7751 19.6643 23.7751 20.0151C23.7751 20.3074 23.9524 20.6582 24.4252 20.6582C24.957 20.6582 27.3801 19.255 28.7393 17.384C28.8575 17.2086 29.0939 17.0917 29.2712 17.0917C29.4485 17.0917 29.6849 17.2086 29.6849 17.4425C29.744 17.6764 29.6258 17.9687 29.3303 18.378C27.7937 20.5998 24.4252 22.4707 23.2432 22.4707Z" fill="#A9ABB6"/>
<path d="M57.1064 21.3014C57.2246 22.2953 57.6974 22.9385 58.1111 23.2893C58.2884 23.4062 58.3475 23.5816 58.3475 23.6985C58.4066 23.9909 58.1702 24.2247 57.8156 24.2247C57.6974 24.2247 57.5792 24.2247 57.461 24.1663C55.6881 23.4647 54.9789 22.2953 54.7425 21.1844C54.0924 22.003 53.1468 22.5292 52.2604 22.5292C50.6647 22.5292 49.1873 21.1844 48.9509 19.4304C48.5963 16.3901 51.3739 12.4143 55.3335 12.4143C56.9882 12.4143 58.4657 13.0574 58.643 14.4022C58.8794 16.0978 57.3428 16.4486 56.87 16.4486C56.3381 16.4486 55.5699 16.3316 55.5108 15.8639C55.4517 15.4546 56.5745 15.6885 56.4563 14.6361C56.3972 13.9345 55.629 13.7006 54.9789 13.7006C52.6741 13.7006 51.1375 16.6824 51.433 19.1381C51.5512 20.132 52.024 21.0675 52.9104 21.0675C53.6196 21.0675 54.6834 20.0736 55.0971 18.5534C55.3335 17.5594 56.3381 16.8578 57.0473 16.8578C57.4019 16.8578 57.6974 17.0332 57.7565 17.4425C57.7565 17.6179 57.6974 18.0857 57.3428 19.6643C57.0473 20.249 57.0473 20.8336 57.1064 21.3014Z" fill="#A9ABB6"/>
<path d="M35.831 20.7167C36.3629 20.7167 38.1359 20.0736 39.5542 18.1441C39.7315 17.9687 39.9088 17.8518 40.0861 17.8518C40.3225 17.8518 40.4998 17.9687 40.5589 18.2026C40.5589 18.378 40.4407 18.7288 40.1452 19.1381C38.5495 21.3598 35.831 22.4707 34.6491 22.4707C33.408 22.4707 32.7579 21.7106 32.6397 20.5998C32.5806 20.249 32.5806 19.7812 32.6988 19.3135C33.1125 16.7994 34.0581 15.2792 33.999 14.8115C33.999 14.6945 33.8808 14.6361 33.8217 14.6361C33.0534 14.6361 30.2758 17.4425 29.8621 19.3135L29.5075 20.7752C29.2712 21.8276 28.2665 22.4707 27.5573 22.4707C27.2027 22.4707 26.9663 22.2953 26.9072 21.9445C26.9072 21.8276 26.9072 21.6522 26.9663 21.4183C26.9663 21.4183 28.3256 14.5191 28.3847 14.1683C28.562 13.3498 28.8575 12.5312 30.5122 12.5312C30.8668 12.5312 31.1032 12.7066 31.1623 13.1159C31.1623 13.2329 31.1623 13.4083 31.1032 13.6421L30.6304 15.747C32.1079 13.8175 34.3536 12.4143 35.7719 12.4143C36.3629 12.4143 36.7766 12.7066 36.8948 13.3498C36.9539 13.7006 36.8357 14.2853 36.5993 14.9284C36.1265 16.2732 35.5946 18.2026 35.181 19.8981C35.0628 20.132 35.181 20.7167 35.831 20.7167Z" fill="#A9ABB6"/>
<path d="M45.1685 12.6481C45.1685 13.5836 45.6413 14.5776 46.2323 15.2207C46.4687 14.5776 46.5869 13.9344 46.5869 13.2913C46.5869 12.0635 46.1141 11.5373 45.7595 11.5373C45.3458 11.5373 45.1685 12.1219 45.1685 12.6481ZM47.2961 17.6764C47.1188 17.6764 46.9415 17.6764 46.7051 17.6179C45.1685 19.8396 43.5729 21.3598 42.3318 22.0029C41.7999 22.2953 41.3272 22.4122 40.9726 22.4122C40.6771 22.4122 40.3816 22.3538 40.2634 22.1199C39.7315 21.1844 39.4951 19.3719 39.4951 17.4425C39.4951 16.0393 39.6133 14.8699 39.8497 14.0514C40.1452 13.1744 41.2681 12.3558 41.9772 12.3558C42.3318 12.3558 42.6273 12.5312 42.6273 12.9405C42.6273 13.0574 42.5682 13.2328 42.5091 13.4082C41.9772 14.8699 41.7408 16.2731 41.7408 17.6764C41.7408 18.4364 41.9181 19.7227 42.0954 20.3659C42.1545 20.4828 42.1545 20.6582 42.2727 20.6582C42.5091 20.6582 44.1048 19.0796 45.2867 17.2086C44.2821 16.5655 43.6911 15.3961 43.6911 13.9344C43.6911 11.4788 45.1685 10.251 46.5869 10.251C47.7098 10.251 48.7144 11.0695 48.7144 12.7066C48.7144 13.7006 48.3007 14.8699 47.7098 15.9808C47.7098 15.9808 47.9461 16.0393 48.0643 16.0393C48.9508 16.0393 49.66 15.63 50.0146 15.2207C50.3101 14.9284 50.5465 14.6945 50.7829 14.6945C50.9601 14.6945 51.0192 14.8114 51.0192 14.9868C51.0192 15.1038 50.9601 15.2792 50.901 15.4546C50.0737 16.7993 48.5371 17.6764 47.2961 17.6764Z" fill="#A9ABB6"/>
</g>
<defs>
<clipPath id="clip0_3918_9134">
<rect width="58.6667" height="24.381" fill="white" transform="translate(0 0.428467)"/>
</clipPath>
</defs>
</svg>
