<svg width="219" height="116" viewBox="0 0 219 116" fill="none" xmlns="http://www.w3.org/2000/svg">
<rect opacity="0.6" x="99" y="6" width="20" height="20" fill="#C0C0C7"/>
<path d="M63.6075 71.224C62.0502 71.224 60.6422 70.9573 59.3835 70.424C58.1462 69.8907 57.1648 69.1227 56.4395 68.12C55.7142 67.1173 55.3408 65.9333 55.3195 64.568H60.1195C60.1835 65.4853 60.5035 66.2107 61.0795 66.744C61.6768 67.2773 62.4875 67.544 63.5115 67.544C64.5568 67.544 65.3782 67.2987 65.9755 66.808C66.5728 66.296 66.8715 65.6347 66.8715 64.824C66.8715 64.1627 66.6688 63.6187 66.2635 63.192C65.8582 62.7653 65.3462 62.4347 64.7275 62.2C64.1302 61.944 63.2982 61.6667 62.2315 61.368C60.7808 60.9413 59.5968 60.5253 58.6795 60.12C57.7835 59.6933 57.0048 59.064 56.3435 58.232C55.7035 57.3787 55.3835 56.248 55.3835 54.84C55.3835 53.5173 55.7142 52.3653 56.3755 51.384C57.0368 50.4027 57.9648 49.656 59.1595 49.144C60.3542 48.6107 61.7195 48.344 63.2555 48.344C65.5595 48.344 67.4262 48.9093 68.8555 50.04C70.3062 51.1493 71.1062 52.7067 71.2555 54.712H66.3275C66.2848 53.944 65.9542 53.3147 65.3355 52.824C64.7382 52.312 63.9382 52.056 62.9355 52.056C62.0608 52.056 61.3568 52.28 60.8235 52.728C60.3115 53.176 60.0555 53.8267 60.0555 54.68C60.0555 55.2773 60.2475 55.7787 60.6315 56.184C61.0368 56.568 61.5275 56.888 62.1035 57.144C62.7008 57.3787 63.5328 57.656 64.5995 57.976C66.0502 58.4027 67.2342 58.8293 68.1515 59.256C69.0688 59.6827 69.8582 60.3227 70.5195 61.176C71.1808 62.0293 71.5115 63.1493 71.5115 64.536C71.5115 65.7307 71.2022 66.84 70.5835 67.864C69.9648 68.888 69.0582 69.7093 67.8635 70.328C66.6688 70.9253 65.2502 71.224 63.6075 71.224ZM80.6115 56.952V65.528C80.6115 66.1253 80.7502 66.5627 81.0275 66.84C81.3262 67.096 81.8168 67.224 82.4995 67.224H84.5795V71H81.7635C77.9875 71 76.0995 69.1653 76.0995 65.496V56.952H73.9875V53.272H76.0995V48.888H80.6115V53.272H84.5795V56.952H80.6115ZM86.6497 62.072C86.6497 60.28 87.0017 58.6907 87.7057 57.304C88.4311 55.9173 89.4018 54.8507 90.6178 54.104C91.8551 53.3573 93.2311 52.984 94.7458 52.984C96.0684 52.984 97.2204 53.2507 98.2018 53.784C99.2044 54.3173 100.004 54.9893 100.602 55.8V53.272H105.114V71H100.602V68.408C100.026 69.24 99.2258 69.9333 98.2018 70.488C97.1991 71.0213 96.0364 71.288 94.7138 71.288C93.2204 71.288 91.8551 70.904 90.6178 70.136C89.4018 69.368 88.4311 68.2907 87.7057 66.904C87.0017 65.496 86.6497 63.8853 86.6497 62.072ZM100.602 62.136C100.602 61.048 100.388 60.12 99.9618 59.352C99.5351 58.5627 98.9591 57.9653 98.2338 57.56C97.5084 57.1333 96.7298 56.92 95.8978 56.92C95.0658 56.92 94.2978 57.1227 93.5938 57.528C92.8898 57.9333 92.3138 58.5307 91.8658 59.32C91.4391 60.088 91.2258 61.0053 91.2258 62.072C91.2258 63.1387 91.4391 64.0773 91.8658 64.888C92.3138 65.6773 92.8898 66.2853 93.5938 66.712C94.3191 67.1387 95.0871 67.352 95.8978 67.352C96.7298 67.352 97.5084 67.1493 98.2338 66.744C98.9591 66.3173 99.5351 65.72 99.9618 64.952C100.388 64.1627 100.602 63.224 100.602 62.136ZM113.969 56.024C114.545 55.0853 115.292 54.3493 116.209 53.816C117.148 53.2827 118.215 53.016 119.409 53.016V57.72H118.225C116.817 57.72 115.751 58.0507 115.025 58.712C114.321 59.3733 113.969 60.5253 113.969 62.168V71H109.489V53.272H113.969V56.024ZM127.643 56.952V65.528C127.643 66.1253 127.781 66.5627 128.059 66.84C128.357 67.096 128.848 67.224 129.531 67.224H131.611V71H128.795C125.019 71 123.131 69.1653 123.131 65.496V56.952H121.019V53.272H123.131V48.888H127.643V53.272H131.611V56.952H127.643ZM151.313 61.752C151.313 62.392 151.27 62.968 151.185 63.48H138.225C138.332 64.76 138.78 65.7627 139.569 66.488C140.358 67.2133 141.329 67.576 142.481 67.576C144.145 67.576 145.329 66.8613 146.033 65.432H150.865C150.353 67.1387 149.372 68.5467 147.921 69.656C146.47 70.744 144.689 71.288 142.577 71.288C140.87 71.288 139.334 70.9147 137.969 70.168C136.625 69.4 135.569 68.3227 134.801 66.936C134.054 65.5493 133.681 63.9493 133.681 62.136C133.681 60.3013 134.054 58.6907 134.801 57.304C135.548 55.9173 136.593 54.8507 137.937 54.104C139.281 53.3573 140.828 52.984 142.577 52.984C144.262 52.984 145.766 53.3467 147.089 54.072C148.433 54.7973 149.468 55.832 150.193 57.176C150.94 58.4987 151.313 60.024 151.313 61.752ZM146.673 60.472C146.652 59.32 146.236 58.4027 145.425 57.72C144.614 57.016 143.622 56.664 142.449 56.664C141.34 56.664 140.401 57.0053 139.633 57.688C138.886 58.3493 138.428 59.2773 138.257 60.472H146.673ZM159.063 56.024C159.639 55.0853 160.386 54.3493 161.303 53.816C162.242 53.2827 163.308 53.016 164.503 53.016V57.72H163.319C161.911 57.72 160.844 58.0507 160.119 58.712C159.415 59.3733 159.063 60.5253 159.063 62.168V71H154.583V53.272H159.063V56.024Z" fill="#878787"/>
</svg>
