<svg width="223" height="116" viewBox="0 0 223 116" fill="none" xmlns="http://www.w3.org/2000/svg">
<g opacity="0.8">
<rect x="97" y="10" width="19.9111" height="20" fill="#A2CB94"/>
<g style="mix-blend-mode:multiply">
<rect width="15.9289" height="16" transform="matrix(1 0 0 -1 109.071 18)" fill="#A2CB94"/>
</g>
</g>
<path d="M70.0256 55.384C69.5136 54.4453 68.8096 53.7307 67.9136 53.24C67.0176 52.7493 65.9723 52.504 64.7776 52.504C63.455 52.504 62.2816 52.8027 61.2576 53.4C60.2336 53.9973 59.4336 54.8507 58.8576 55.96C58.2816 57.0693 57.9936 58.3493 57.9936 59.8C57.9936 61.2933 58.2816 62.5947 58.8576 63.704C59.455 64.8133 60.2763 65.6667 61.3216 66.264C62.367 66.8613 63.583 67.16 64.9696 67.16C66.6763 67.16 68.0736 66.712 69.1616 65.816C70.2496 64.8987 70.9643 63.6293 71.3056 62.008H63.6256V58.584H75.7216V62.488C75.423 64.0453 74.783 65.4853 73.8016 66.808C72.8203 68.1307 71.551 69.1973 69.9936 70.008C68.4576 70.7973 66.7296 71.192 64.8096 71.192C62.655 71.192 60.703 70.712 58.9536 69.752C57.2256 68.7707 55.8603 67.416 54.8576 65.688C53.8763 63.96 53.3856 61.9973 53.3856 59.8C53.3856 57.6027 53.8763 55.64 54.8576 53.912C55.8603 52.1627 57.2256 50.808 58.9536 49.848C60.703 48.8667 62.6443 48.376 64.7776 48.376C67.295 48.376 69.4816 48.9947 71.3376 50.232C73.1936 51.448 74.4736 53.1653 75.1776 55.384H70.0256ZM83.5161 56.024C84.0921 55.0853 84.8388 54.3493 85.7561 53.816C86.6948 53.2827 87.7615 53.016 88.9561 53.016V57.72H87.7721C86.3641 57.72 85.2975 58.0507 84.5721 58.712C83.8681 59.3733 83.5161 60.5253 83.5161 62.168V71H79.0361V53.272H83.5161V56.024ZM99.8456 71.288C98.139 71.288 96.603 70.9147 95.2376 70.168C93.8723 69.4 92.795 68.3227 92.0056 66.936C91.2376 65.5493 90.8536 63.9493 90.8536 62.136C90.8536 60.3227 91.2483 58.7227 92.0376 57.336C92.8483 55.9493 93.947 54.8827 95.3336 54.136C96.7203 53.368 98.267 52.984 99.9736 52.984C101.68 52.984 103.227 53.368 104.614 54.136C106 54.8827 107.088 55.9493 107.878 57.336C108.688 58.7227 109.094 60.3227 109.094 62.136C109.094 63.9493 108.678 65.5493 107.846 66.936C107.035 68.3227 105.926 69.4 104.518 70.168C103.131 70.9147 101.574 71.288 99.8456 71.288ZM99.8456 67.384C100.656 67.384 101.414 67.192 102.118 66.808C102.843 66.4027 103.419 65.8053 103.846 65.016C104.272 64.2267 104.486 63.2667 104.486 62.136C104.486 60.4507 104.038 59.16 103.142 58.264C102.267 57.3467 101.19 56.888 99.9096 56.888C98.6296 56.888 97.5523 57.3467 96.6776 58.264C95.8243 59.16 95.3976 60.4507 95.3976 62.136C95.3976 63.8213 95.8136 65.1227 96.6456 66.04C97.499 66.936 98.5656 67.384 99.8456 67.384ZM136.956 53.272L131.772 71H126.94L123.708 58.616L120.476 71H115.612L110.396 53.272H114.94L118.076 66.776L121.468 53.272H126.204L129.532 66.744L132.668 53.272H136.956ZM144.596 56.952V65.528C144.596 66.1253 144.735 66.5627 145.012 66.84C145.311 67.096 145.801 67.224 146.484 67.224H148.564V71H145.748C141.972 71 140.084 69.1653 140.084 65.496V56.952H137.972V53.272H140.084V48.888H144.596V53.272H148.564V56.952H144.596ZM161.77 53.016C163.114 53.016 164.309 53.3147 165.354 53.912C166.399 54.488 167.21 55.352 167.786 56.504C168.383 57.6347 168.682 59 168.682 60.6V71H164.202V61.208C164.202 59.8 163.85 58.7227 163.146 57.976C162.442 57.208 161.482 56.824 160.266 56.824C159.029 56.824 158.047 57.208 157.322 57.976C156.618 58.7227 156.266 59.8 156.266 61.208V71H151.786V47.32H156.266V55.48C156.842 54.712 157.61 54.1147 158.57 53.688C159.53 53.24 160.597 53.016 161.77 53.016Z" fill="#A2CB94"/>
</svg>
