<svg width="219" height="116" viewBox="0 0 219 116" fill="none" xmlns="http://www.w3.org/2000/svg">
<g opacity="0.8">
<rect x="93.5" y="12.5969" width="19.225" height="19.4031" fill="#6C7BAA"/>
<g style="mix-blend-mode:multiply">
<rect x="115.887" width="9.61248" height="9.70156" fill="#6C7BAA"/>
</g>
<g style="mix-blend-mode:multiply">
<rect x="104.944" y="4.85083" width="15.38" height="15.5225" fill="#6C7BAA"/>
</g>
</g>
<path d="M34.188 52.28V57.88H41.708V61.432H34.188V67.352H42.668V71H29.708V48.632H42.668V52.28H34.188ZM56.5633 53.016C58.6753 53.016 60.3819 53.688 61.6833 55.032C62.9846 56.3547 63.6353 58.2107 63.6353 60.6V71H59.1553V61.208C59.1553 59.8 58.8033 58.7227 58.0993 57.976C57.3953 57.208 56.4353 56.824 55.2193 56.824C53.9819 56.824 53.0006 57.208 52.2753 57.976C51.5713 58.7227 51.2193 59.8 51.2193 61.208V71H46.7393V53.272H51.2193V55.48C51.8166 54.712 52.5739 54.1147 53.4913 53.688C54.4299 53.24 55.4539 53.016 56.5633 53.016ZM73.1115 56.952V65.528C73.1115 66.1253 73.2502 66.5627 73.5275 66.84C73.8262 67.096 74.3168 67.224 74.9995 67.224H77.0795V71H74.2635C70.4875 71 68.5995 69.1653 68.5995 65.496V56.952H66.4875V53.272H68.5995V48.888H73.1115V53.272H77.0795V56.952H73.1115ZM96.7818 61.752C96.7818 62.392 96.7391 62.968 96.6538 63.48H83.6938C83.8004 64.76 84.2484 65.7627 85.0378 66.488C85.8271 67.2133 86.7978 67.576 87.9498 67.576C89.6138 67.576 90.7978 66.8613 91.5018 65.432H96.3338C95.8218 67.1387 94.8404 68.5467 93.3898 69.656C91.9391 70.744 90.1578 71.288 88.0458 71.288C86.3391 71.288 84.8031 70.9147 83.4378 70.168C82.0938 69.4 81.0378 68.3227 80.2698 66.936C79.5231 65.5493 79.1497 63.9493 79.1497 62.136C79.1497 60.3013 79.5231 58.6907 80.2698 57.304C81.0164 55.9173 82.0618 54.8507 83.4058 54.104C84.7498 53.3573 86.2964 52.984 88.0458 52.984C89.7311 52.984 91.2351 53.3467 92.5578 54.072C93.9018 54.7973 94.9364 55.832 95.6618 57.176C96.4084 58.4987 96.7818 60.024 96.7818 61.752ZM92.1418 60.472C92.1204 59.32 91.7044 58.4027 90.8938 57.72C90.0831 57.016 89.0911 56.664 87.9178 56.664C86.8084 56.664 85.8698 57.0053 85.1018 57.688C84.3551 58.3493 83.8964 59.2773 83.7258 60.472H92.1418ZM104.532 56.024C105.108 55.0853 105.854 54.3493 106.772 53.816C107.71 53.2827 108.777 53.016 109.972 53.016V57.72H108.788C107.38 57.72 106.313 58.0507 105.588 58.712C104.884 59.3733 104.532 60.5253 104.532 62.168V71H100.052V53.272H104.532V56.024ZM117.469 55.832C118.045 55.0213 118.835 54.3493 119.837 53.816C120.861 53.2613 122.024 52.984 123.325 52.984C124.84 52.984 126.205 53.3573 127.421 54.104C128.659 54.8507 129.629 55.9173 130.333 57.304C131.059 58.6693 131.421 60.2587 131.421 62.072C131.421 63.8853 131.059 65.496 130.333 66.904C129.629 68.2907 128.659 69.368 127.421 70.136C126.205 70.904 124.84 71.288 123.325 71.288C122.024 71.288 120.872 71.0213 119.869 70.488C118.888 69.9547 118.088 69.2827 117.469 68.472V79.448H112.989V53.272H117.469V55.832ZM126.845 62.072C126.845 61.0053 126.621 60.088 126.173 59.32C125.747 58.5307 125.171 57.9333 124.445 57.528C123.741 57.1227 122.973 56.92 122.141 56.92C121.331 56.92 120.563 57.1333 119.837 57.56C119.133 57.9653 118.557 58.5627 118.109 59.352C117.683 60.1413 117.469 61.0693 117.469 62.136C117.469 63.2027 117.683 64.1307 118.109 64.92C118.557 65.7093 119.133 66.3173 119.837 66.744C120.563 67.1493 121.331 67.352 122.141 67.352C122.973 67.352 123.741 67.1387 124.445 66.712C125.171 66.2853 125.747 65.6773 126.173 64.888C126.621 64.0987 126.845 63.16 126.845 62.072ZM139.157 56.024C139.733 55.0853 140.479 54.3493 141.397 53.816C142.335 53.2827 143.402 53.016 144.597 53.016V57.72H143.413C142.005 57.72 140.938 58.0507 140.213 58.712C139.509 59.3733 139.157 60.5253 139.157 62.168V71H134.677V53.272H139.157V56.024ZM149.886 51.16C149.097 51.16 148.436 50.9147 147.902 50.424C147.39 49.912 147.134 49.2827 147.134 48.536C147.134 47.7893 147.39 47.1707 147.902 46.68C148.436 46.168 149.097 45.912 149.886 45.912C150.676 45.912 151.326 46.168 151.838 46.68C152.372 47.1707 152.638 47.7893 152.638 48.536C152.638 49.2827 152.372 49.912 151.838 50.424C151.326 50.9147 150.676 51.16 149.886 51.16ZM152.094 53.272V71H147.614V53.272H152.094ZM163.305 71.288C161.854 71.288 160.553 71.032 159.401 70.52C158.249 69.9867 157.331 69.272 156.649 68.376C155.987 67.48 155.625 66.488 155.561 65.4H160.073C160.158 66.0827 160.489 66.648 161.065 67.096C161.662 67.544 162.398 67.768 163.273 67.768C164.126 67.768 164.787 67.5973 165.257 67.256C165.747 66.9147 165.993 66.4773 165.993 65.944C165.993 65.368 165.694 64.9413 165.097 64.664C164.521 64.3653 163.593 64.0453 162.312 63.704C160.99 63.384 159.902 63.0533 159.049 62.712C158.217 62.3707 157.491 61.848 156.873 61.144C156.275 60.44 155.977 59.4907 155.977 58.296C155.977 57.3147 156.254 56.4187 156.809 55.608C157.385 54.7973 158.195 54.1573 159.241 53.688C160.307 53.2187 161.555 52.984 162.985 52.984C165.097 52.984 166.782 53.5173 168.041 54.584C169.299 55.6293 169.993 57.048 170.121 58.84H165.833C165.769 58.136 165.47 57.5813 164.937 57.176C164.425 56.7493 163.731 56.536 162.857 56.536C162.046 56.536 161.417 56.6853 160.969 56.984C160.542 57.2827 160.329 57.6987 160.329 58.232C160.329 58.8293 160.627 59.288 161.225 59.608C161.822 59.9067 162.75 60.216 164.009 60.536C165.289 60.856 166.345 61.1867 167.177 61.528C168.009 61.8693 168.723 62.4027 169.321 63.128C169.939 63.832 170.259 64.7707 170.281 65.944C170.281 66.968 169.993 67.8853 169.417 68.696C168.862 69.5067 168.051 70.1467 166.985 70.616C165.939 71.064 164.713 71.288 163.305 71.288ZM190.438 61.752C190.438 62.392 190.395 62.968 190.31 63.48H177.35C177.457 64.76 177.905 65.7627 178.694 66.488C179.483 67.2133 180.454 67.576 181.606 67.576C183.27 67.576 184.454 66.8613 185.158 65.432H189.99C189.478 67.1387 188.497 68.5467 187.046 69.656C185.595 70.744 183.814 71.288 181.702 71.288C179.995 71.288 178.459 70.9147 177.094 70.168C175.75 69.4 174.694 68.3227 173.926 66.936C173.179 65.5493 172.806 63.9493 172.806 62.136C172.806 60.3013 173.179 58.6907 173.926 57.304C174.673 55.9173 175.718 54.8507 177.062 54.104C178.406 53.3573 179.953 52.984 181.702 52.984C183.387 52.984 184.891 53.3467 186.214 54.072C187.558 54.7973 188.593 55.832 189.318 57.176C190.065 58.4987 190.438 60.024 190.438 61.752ZM185.798 60.472C185.777 59.32 185.361 58.4027 184.55 57.72C183.739 57.016 182.747 56.664 181.574 56.664C180.465 56.664 179.526 57.0053 178.758 57.688C178.011 58.3493 177.553 59.2773 177.382 60.472H185.798Z" fill="#6C7BAA"/>
</svg>
